<?xml version="1.0" standalone="no"?>
<!DOCTYPE svg PUBLIC "-//W3C//DTD SVG 1.1//EN" "http://www.w3.org/Graphics/SVG/1.1/DTD/svg11.dtd" >
<svg xmlns="http://www.w3.org/2000/svg" xmlns:xlink="http://www.w3.org/1999/xlink" version="1.1">
<metadata>
Created by FontForge 20150824 at Mon Jan 11 23:50:00 2016
 By Everything Fonts
Copyright (c) 2006 by Department of Intellectual Property (DIP), Ministry of Commerce and Software Industry Promotion Agency (Public Organization) (SIPA). All rights reserved.
</metadata>
<defs>
<font id="THK2DJuly8" horiz-adv-x="0" >
  <font-face 
    font-family="THK2DJuly8"
    font-weight="400"
    font-stretch="normal"
    units-per-em="1000"
    panose-1="2 0 5 6 0 0 0 2 0 4"
    ascent="800"
    descent="-200"
    x-height="337"
    cap-height="481"
    bbox="-442 -378 783 802.708"
    underline-thickness="50"
    underline-position="-130"
    unicode-range="U+0020-FB02"
  />
<missing-glyph horiz-adv-x="500" 
d="M402 35v625h-305v-625h305zM436 0h-373v695h373v-695z" />
    <glyph glyph-name="Agrave" unicode="A&#x300;" horiz-adv-x="420" 
d="M397 46q6 -16 -1 -31t-22 -21l-62 161h-203l-63 -161q-16 6 -22.5 21t-0.5 31l168 423q4 12 19 12q14 0 19 -12zM123 191h175l-95 245l-1 -3l6 -20zM225 513q-17 0 -26 2.5t-16 8.5l-84 93h23q35 0 47 -18z" />
    <glyph glyph-name="Aacute" unicode="A&#x301;" horiz-adv-x="420" 
d="M397 46q6 -16 -1 -31t-22 -21l-62 161h-203l-63 -161q-16 6 -22.5 21t-0.5 31l168 423q4 12 19 12q14 0 19 -12zM123 191h175l-95 245l-1 -3l6 -20zM248 599q12 18 47 18h23l-84 -93q-7 -6 -16 -8.5t-26 -2.5z" />
    <glyph glyph-name="Atilde" unicode="A&#x303;" horiz-adv-x="420" 
d="M397 46q6 -16 -1 -31t-22 -21l-62 161h-203l-63 -161q-16 6 -22.5 21t-0.5 31l168 423q4 12 19 12q14 0 19 -12zM123 191h175l-95 245l-1 -3l6 -20zM220 584q8 -7 16 -13t18 -6q11 0 18 13t-1 29q16 6 24.5 -4t6.5 -21q-3 -20 -15.5 -32.5t-32.5 -12.5q-18 0 -29 7.5
t-24 17.5q-8 7 -16 13t-18 6q-11 0 -18 -13t1 -29q-16 -6 -24.5 4t-6.5 21q3 20 15.5 32.5t32.5 12.5q18 0 29 -7.5t24 -17.5z" />
    <glyph glyph-name="Egrave" unicode="E&#x300;" horiz-adv-x="464" 
d="M90 256h198q0 -36 -36 -36h-162v-70q0 -24 11.5 -46t31.5 -38.5t46.5 -26t57.5 -9.5t58 9.5t47 26t31.5 38.5t11.5 46v10t-1 10q16 0 29.5 -11t8.5 -37q-6 -30 -24 -54t-43.5 -40.5t-56 -25t-61.5 -8.5q-33 0 -66 10.5t-60 30.5t-44 49t-17 66v176q0 36 16.5 64.5
t43 48.5t60 31t67.5 11q30 0 59.5 -7.5t55 -23.5t44 -39.5t26.5 -55.5q6 -27 -8 -38t-30 -11q1 5 1 10v10q0 24 -11.5 46t-31.5 38t-47 25.5t-58 9.5t-57.5 -9.5t-46.5 -25.5t-31.5 -38t-11.5 -46v-70zM263 513q-17 0 -26 2.5t-16 8.5l-84 93h23q35 0 47 -18z" />
    <glyph glyph-name="Eacute" unicode="E&#x301;" horiz-adv-x="464" 
d="M90 256h198q0 -36 -36 -36h-162v-70q0 -24 11.5 -46t31.5 -38.5t46.5 -26t57.5 -9.5t58 9.5t47 26t31.5 38.5t11.5 46v10t-1 10q16 0 29.5 -11t8.5 -37q-6 -30 -24 -54t-43.5 -40.5t-56 -25t-61.5 -8.5q-33 0 -66 10.5t-60 30.5t-44 49t-17 66v176q0 36 16.5 64.5
t43 48.5t60 31t67.5 11q30 0 59.5 -7.5t55 -23.5t44 -39.5t26.5 -55.5q6 -27 -8 -38t-30 -11q1 5 1 10v10q0 24 -11.5 46t-31.5 38t-47 25.5t-58 9.5t-57.5 -9.5t-46.5 -25.5t-31.5 -38t-11.5 -46v-70zM273 595q12 18 47 18h23l-84 -93q-7 -6 -16 -8.5t-26 -2.5z" />
    <glyph glyph-name="Igrave" unicode="I&#x300;" horiz-adv-x="160" 
d="M100 34q0 -40 -40 -40v447q0 40 40 40v-447zM104 513q-17 0 -26 2.5t-16 8.5l-84 93h23q35 0 47 -18z" />
    <glyph glyph-name="Iacute" unicode="I&#x301;" horiz-adv-x="160" 
d="M100 34q0 -40 -40 -40v447q0 40 40 40v-447zM113 599q12 18 47 18h23l-84 -93q-7 -6 -16 -8.5t-26 -2.5z" />
    <glyph glyph-name="Ograve" unicode="O&#x300;" horiz-adv-x="567" 
d="M40 237q0 51 19 95.5t52 77.5t77 52t95 19t95.5 -19t77.5 -52t52 -77.5t19 -95.5t-19 -95t-52 -77t-77.5 -52t-95.5 -19t-95 19t-77 52t-52 77t-19 95zM80 237q0 -43 16 -81t43.5 -66t64.5 -44t79 -16t79.5 16t65 44t43.5 66t16 81t-16 81t-43.5 66t-65 44.5t-79.5 16.5
t-79 -16.5t-64.5 -44.5t-43.5 -66t-16 -81zM306 513q-17 0 -26 2.5t-16 8.5l-84 93h23q35 0 47 -18z" />
    <glyph glyph-name="Oacute" unicode="O&#x301;" horiz-adv-x="567" 
d="M40 237q0 51 19 95.5t52 77.5t77 52t95 19t95.5 -19t77.5 -52t52 -77.5t19 -95.5t-19 -95t-52 -77t-77.5 -52t-95.5 -19t-95 19t-77 52t-52 77t-19 95zM80 237q0 -43 16 -81t43.5 -66t64.5 -44t79 -16t79.5 16t65 44t43.5 66t16 81t-16 81t-43.5 66t-65 44.5t-79.5 16.5
t-79 -16.5t-64.5 -44.5t-43.5 -66t-16 -81zM316 599q12 18 47 18h23l-84 -93q-7 -6 -16 -8.5t-26 -2.5z" />
    <glyph glyph-name="Otilde" unicode="O&#x303;" horiz-adv-x="567" 
d="M40 237q0 51 19 95.5t52 77.5t77 52t95 19t95.5 -19t77.5 -52t52 -77.5t19 -95.5t-19 -95t-52 -77t-77.5 -52t-95.5 -19t-95 19t-77 52t-52 77t-19 95zM80 237q0 -43 16 -81t43.5 -66t64.5 -44t79 -16t79.5 16t65 44t43.5 66t16 81t-16 81t-43.5 66t-65 44.5t-79.5 16.5
t-79 -16.5t-64.5 -44.5t-43.5 -66t-16 -81zM293 584q8 -7 16 -13t18 -6q11 0 18 13t-1 29q16 6 24.5 -4t6.5 -21q-3 -20 -15.5 -32.5t-32.5 -12.5q-18 0 -29 7.5t-24 17.5q-8 7 -16 13t-18 6q-11 0 -18 -13t1 -29q-16 -6 -24.5 4t-6.5 21q3 20 15.5 32.5t32.5 12.5
q18 0 29 -7.5t24 -17.5z" />
    <glyph glyph-name="Ugrave" unicode="U&#x300;" horiz-adv-x="494" 
d="M100 150q0 -24 11.5 -46t31.5 -38.5t46.5 -26t57.5 -9.5t57.5 9.5t46.5 26t31.5 38.5t11.5 46v291q0 40 40 40v-331q0 -37 -17 -66t-44 -49t-60 -30.5t-66 -10.5t-66 10.5t-60 30.5t-44 49t-17 66v291q0 40 40 40v-331zM270 513q-17 0 -26 2.5t-16 8.5l-84 93h23
q35 0 47 -18z" />
    <glyph glyph-name="Uacute" unicode="U&#x301;" horiz-adv-x="494" 
d="M100 150q0 -24 11.5 -46t31.5 -38.5t46.5 -26t57.5 -9.5t57.5 9.5t46.5 26t31.5 38.5t11.5 46v291q0 40 40 40v-331q0 -37 -17 -66t-44 -49t-60 -30.5t-66 -10.5t-66 10.5t-60 30.5t-44 49t-17 66v291q0 40 40 40v-331zM280 599q12 18 47 18h23l-84 -93q-7 -6 -16 -8.5
t-26 -2.5z" />
    <glyph glyph-name="Yacute" unicode="Y&#x301;" horiz-adv-x="400" 
d="M220 34q0 -40 -40 -40v248l-170 233q14 10 28.5 6.5t23.5 -16.5l138 -190l138 190q9 13 23.5 16.5t28.5 -6.5l-170 -233v-208zM233 599q12 18 47 18h23l-84 -93q-7 -6 -16 -8.5t-26 -2.5z" />
    <glyph glyph-name="agrave" unicode="a&#x300;" horiz-adv-x="370" 
d="M175 221q35 0 64 -13t47 -36l1 3q-2 3 -6 7.5t-7 6.5v43q0 32 -28.5 56t-70.5 24q-33 0 -60.5 -19t-41.5 -46q-12 9 -15.5 23.5t7.5 26.5q19 23 48 35.5t62 12.5q24 0 48 -7.5t43.5 -22t31.5 -35.5t12 -48v-202q0 -36 -36 -36v32q3 2 7 6.5t6 7.5l-1 3q-18 -23 -47 -36
t-64 -13q-28 0 -52.5 9t-43 24t-29 35.5t-10.5 44.5t10.5 44.5t29 36t43 24.5t52.5 9zM175 27q43 0 71 24t28 56q0 16 -7.5 30.5t-20.5 26t-31.5 18t-39.5 6.5t-39.5 -6.5t-31.5 -18t-20.5 -26t-7.5 -30.5q0 -32 28 -56t71 -24zM208 373q-17 0 -26 2.5t-16 8.5l-84 93h23
q35 0 47 -18z" />
    <glyph glyph-name="aacute" unicode="a&#x301;" horiz-adv-x="370" 
d="M175 221q35 0 64 -13t47 -36l1 3q-2 3 -6 7.5t-7 6.5v43q0 32 -28.5 56t-70.5 24q-33 0 -60.5 -19t-41.5 -46q-12 9 -15.5 23.5t7.5 26.5q19 23 48 35.5t62 12.5q24 0 48 -7.5t43.5 -22t31.5 -35.5t12 -48v-202q0 -36 -36 -36v32q3 2 7 6.5t6 7.5l-1 3q-18 -23 -47 -36
t-64 -13q-28 0 -52.5 9t-43 24t-29 35.5t-10.5 44.5t10.5 44.5t29 36t43 24.5t52.5 9zM175 27q43 0 71 24t28 56q0 16 -7.5 30.5t-20.5 26t-31.5 18t-39.5 6.5t-39.5 -6.5t-31.5 -18t-20.5 -26t-7.5 -30.5q0 -32 28 -56t71 -24zM218 459q12 18 47 18h23l-84 -93
q-7 -6 -16 -8.5t-26 -2.5z" />
    <glyph glyph-name="atilde" unicode="a&#x303;" horiz-adv-x="370" 
d="M175 221q35 0 64 -13t47 -36l1 3q-2 3 -6 7.5t-7 6.5v43q0 32 -28.5 56t-70.5 24q-33 0 -60.5 -19t-41.5 -46q-12 9 -15.5 23.5t7.5 26.5q19 23 48 35.5t62 12.5q24 0 48 -7.5t43.5 -22t31.5 -35.5t12 -48v-202q0 -36 -36 -36v32q3 2 7 6.5t6 7.5l-1 3q-18 -23 -47 -36
t-64 -13q-28 0 -52.5 9t-43 24t-29 35.5t-10.5 44.5t10.5 44.5t29 36t43 24.5t52.5 9zM175 27q43 0 71 24t28 56q0 16 -7.5 30.5t-20.5 26t-31.5 18t-39.5 6.5t-39.5 -6.5t-31.5 -18t-20.5 -26t-7.5 -30.5q0 -32 28 -56t71 -24zM195 444q8 -7 16 -13t18 -6q11 0 18 13t-1 29
q16 6 24.5 -4t6.5 -21q-3 -20 -15.5 -32.5t-32.5 -12.5q-18 0 -29 7.5t-24 17.5q-8 7 -16 13t-18 6q-11 0 -18 -13t1 -29q-16 -6 -24.5 4t-6.5 21q3 20 15.5 32.5t32.5 12.5q18 0 29 -7.5t24 -17.5z" />
    <glyph glyph-name="egrave" unicode="e&#x300;" horiz-adv-x="370" 
d="M86 107q0 -32 28 -56t71 -24q21 0 39.5 6.5t31.5 18t20.5 26t7.5 30.5q6 0 12 -3.5t10.5 -9t6 -13.5t-2.5 -17q-15 -32 -48.5 -51.5t-76.5 -19.5q-28 0 -52.5 9t-43 24t-29 35.5t-10.5 44.5v124q0 24 10.5 44.5t29 36t43 24.5t52.5 9t52.5 -9t43 -24.5t29 -36t10.5 -44.5
v-36q0 -8 -5.5 -13t-12.5 -5h-216v-70zM86 210h198v21q0 16 -7.5 30.5t-20.5 26t-31.5 18t-39.5 6.5t-39.5 -6.5t-31.5 -18t-20.5 -26t-7.5 -30.5v-21zM208 373q-17 0 -26 2.5t-16 8.5l-84 93h23q35 0 47 -18z" />
    <glyph glyph-name="eacute" unicode="e&#x301;" horiz-adv-x="370" 
d="M86 107q0 -32 28 -56t71 -24q21 0 39.5 6.5t31.5 18t20.5 26t7.5 30.5q6 0 12 -3.5t10.5 -9t6 -13.5t-2.5 -17q-15 -32 -48.5 -51.5t-76.5 -19.5q-28 0 -52.5 9t-43 24t-29 35.5t-10.5 44.5v124q0 24 10.5 44.5t29 36t43 24.5t52.5 9t52.5 -9t43 -24.5t29 -36t10.5 -44.5
v-36q0 -8 -5.5 -13t-12.5 -5h-216v-70zM86 210h198v21q0 16 -7.5 30.5t-20.5 26t-31.5 18t-39.5 6.5t-39.5 -6.5t-31.5 -18t-20.5 -26t-7.5 -30.5v-21zM218 459q12 18 47 18h23l-84 -93q-7 -6 -16 -8.5t-26 -2.5z" />
    <glyph glyph-name="igrave" unicode="i&#x300;" horiz-adv-x="156" 
d="M60 309q0 36 36 36v-315q0 -36 -36 -36v315zM102 373q-17 0 -26 2.5t-16 8.5l-84 93h23q35 0 47 -18z" />
    <glyph glyph-name="iacute" unicode="i&#x301;" horiz-adv-x="156" 
d="M60 309q0 36 36 36v-315q0 -36 -36 -36v315zM111 459q12 18 47 18h23l-84 -93q-7 -6 -16 -8.5t-26 -2.5z" />
    <glyph glyph-name="ograve" unicode="o&#x300;" horiz-adv-x="430" 
d="M40 169q0 36 13.5 68t37.5 56t56 38t68 14t68 -14t56 -38t38 -56t14 -68t-14 -68t-38 -56t-56 -37.5t-68 -13.5t-68 13.5t-56 37.5t-37.5 56t-13.5 68zM76 169q0 -30 11 -55.5t29.5 -45t44 -30.5t54.5 -11t54.5 11t44.5 30.5t30 45t11 55.5t-11 56t-30 45.5t-44.5 30.5
t-54.5 11t-54.5 -11t-44 -30.5t-29.5 -45.5t-11 -56zM238 373q-17 0 -26 2.5t-16 8.5l-84 93h23q35 0 47 -18z" />
    <glyph glyph-name="oacute" unicode="o&#x301;" horiz-adv-x="430" 
d="M40 169q0 36 13.5 68t37.5 56t56 38t68 14t68 -14t56 -38t38 -56t14 -68t-14 -68t-38 -56t-56 -37.5t-68 -13.5t-68 13.5t-56 37.5t-37.5 56t-13.5 68zM76 169q0 -30 11 -55.5t29.5 -45t44 -30.5t54.5 -11t54.5 11t44.5 30.5t30 45t11 55.5t-11 56t-30 45.5t-44.5 30.5
t-54.5 11t-54.5 -11t-44 -30.5t-29.5 -45.5t-11 -56zM248 459q12 18 47 18h23l-84 -93q-7 -6 -16 -8.5t-26 -2.5z" />
    <glyph glyph-name="otilde" unicode="o&#x303;" horiz-adv-x="430" 
d="M40 169q0 36 13.5 68t37.5 56t56 38t68 14t68 -14t56 -38t38 -56t14 -68t-14 -68t-38 -56t-56 -37.5t-68 -13.5t-68 13.5t-56 37.5t-37.5 56t-13.5 68zM76 169q0 -30 11 -55.5t29.5 -45t44 -30.5t54.5 -11t54.5 11t44.5 30.5t30 45t11 55.5t-11 56t-30 45.5t-44.5 30.5
t-54.5 11t-54.5 -11t-44 -30.5t-29.5 -45.5t-11 -56zM225 444q8 -7 16 -13t18 -6q11 0 18 13t-1 29q16 6 24.5 -4t6.5 -21q-3 -20 -15.5 -32.5t-32.5 -12.5q-18 0 -29 7.5t-24 17.5q-8 7 -16 13t-18 6q-11 0 -18 -13t1 -29q-16 -6 -24.5 4t-6.5 21q3 20 15.5 32.5t32.5 12.5
q18 0 29 -7.5t24 -17.5z" />
    <glyph glyph-name="ugrave" unicode="u&#x300;" horiz-adv-x="390" 
d="M330 30q0 -36 -36 -36v32q3 2 7 6.5t6 7.5l-1 3q-18 -23 -47 -36t-64 -13q-28 0 -52.5 9t-43 24.5t-29 36t-10.5 44.5v201q0 36 36 36v-237q0 -16 7.5 -30.5t20.5 -26t31.5 -18t39.5 -6.5t39.5 6.5t31.5 18t20.5 26t7.5 30.5v201q0 36 36 36v-315zM218 373q-17 0 -26 2.5
t-16 8.5l-84 93h23q35 0 47 -18z" />
    <glyph glyph-name="uacute" unicode="u&#x301;" horiz-adv-x="390" 
d="M330 30q0 -36 -36 -36v32q3 2 7 6.5t6 7.5l-1 3q-18 -23 -47 -36t-64 -13q-28 0 -52.5 9t-43 24.5t-29 36t-10.5 44.5v201q0 36 36 36v-237q0 -16 7.5 -30.5t20.5 -26t31.5 -18t39.5 -6.5t39.5 6.5t31.5 18t20.5 26t7.5 30.5v201q0 36 36 36v-315zM228 459q12 18 47 18
h23l-84 -93q-7 -6 -16 -8.5t-26 -2.5z" />
    <glyph glyph-name="yacute" unicode="y&#x301;" horiz-adv-x="336" 
d="M57 -140q-39 -9 -42 27q7 0 12 0.5t13 2.5q36 8 57.5 27t37.5 57l15 36l-135 332q14 6 26 0.5t17 -18.5l108 -269l-6 -20l1 -3l117 292q5 13 17 18.5t26 -0.5l-154 -378q-18 -45 -43.5 -69.5t-66.5 -34.5zM201 459q12 18 47 18h23l-84 -93q-7 -6 -16 -8.5t-26 -2.5z" />
    <glyph glyph-name="Itilde" unicode="I&#x303;" horiz-adv-x="160" 
d="M100 34q0 -40 -40 -40v447q0 40 40 40v-447zM92 587q9 -8 18 -14t20 -6t19 14t0 31q18 6 27 -4.5t7 -22.5q-3 -22 -17 -35.5t-36 -13.5q-20 0 -33 8t-27 19q-8 8 -17.5 14t-20.5 6t-19 -14t0 -31q-17 -7 -26.5 4t-7.5 23q4 22 18 35.5t35 13.5t33.5 -8t26.5 -19z" />
    <glyph glyph-name="itilde" unicode="i&#x303;" horiz-adv-x="156" 
d="M60 309q0 36 36 36v-315q0 -36 -36 -36v315zM90 447q9 -8 18 -14t20 -6t19 14t0 31q18 6 27 -4.5t7 -22.5q-3 -22 -17 -35.5t-36 -13.5q-20 0 -33 8t-27 19q-8 8 -17.5 14t-20.5 6t-19 -14t0 -31q-17 -7 -26.5 4t-7.5 23q4 22 18 35.5t35 13.5t33.5 -8t26.5 -19z" />
    <glyph glyph-name="Utilde" unicode="U&#x303;" horiz-adv-x="494" 
d="M100 150q0 -24 11.5 -46t31.5 -38.5t46.5 -26t57.5 -9.5t57.5 9.5t46.5 26t31.5 38.5t11.5 46v291q0 40 40 40v-331q0 -37 -17 -66t-44 -49t-60 -30.5t-66 -10.5t-66 10.5t-60 30.5t-44 49t-17 66v291q0 40 40 40v-331zM258 587q9 -8 18 -14t20 -6t19 14t0 31
q18 6 27 -4.5t7 -22.5q-3 -22 -17 -35.5t-36 -13.5q-20 0 -33 8t-27 19q-8 8 -17.5 14t-20.5 6t-19 -14t0 -31q-17 -7 -26.5 4t-7.5 23q4 22 18 35.5t35 13.5t33.5 -8t26.5 -19z" />
    <glyph glyph-name="utilde" unicode="u&#x303;" horiz-adv-x="390" 
d="M330 30q0 -36 -36 -36v32q3 2 7 6.5t6 7.5l-1 3q-18 -23 -47 -36t-64 -13q-28 0 -52.5 9t-43 24.5t-29 36t-10.5 44.5v201q0 36 36 36v-237q0 -16 7.5 -30.5t20.5 -26t31.5 -18t39.5 -6.5t39.5 6.5t31.5 18t20.5 26t7.5 30.5v201q0 36 36 36v-315zM206 447q9 -8 18 -14
t20 -6t19 14t0 31q18 6 27 -4.5t7 -22.5q-3 -22 -17 -35.5t-36 -13.5q-20 0 -33 8t-27 19q-8 8 -17.5 14t-20.5 6t-19 -14t0 -31q-17 -7 -26.5 4t-7.5 23q4 22 18 35.5t35 13.5t33.5 -8t26.5 -19z" />
    <glyph glyph-name="uni1EA0" unicode="A&#x323;" horiz-adv-x="420" 
d="M397 46q6 -16 -1 -31t-22 -21l-62 161h-203l-63 -161q-16 6 -22.5 21t-0.5 31l168 423q4 12 19 12q14 0 19 -12zM123 191h175l-95 245l-1 -3l6 -20zM176 -82q0 14 10 24t24 10t24 -10t10 -24t-10 -24t-24 -10t-24 10t-10 24z" />
    <glyph glyph-name="uni1EA1" unicode="a&#x323;" horiz-adv-x="370" 
d="M175 221q35 0 64 -13t47 -36l1 3q-2 3 -6 7.5t-7 6.5v43q0 32 -28.5 56t-70.5 24q-33 0 -60.5 -19t-41.5 -46q-12 9 -15.5 23.5t7.5 26.5q19 23 48 35.5t62 12.5q24 0 48 -7.5t43.5 -22t31.5 -35.5t12 -48v-202q0 -36 -36 -36v32q3 2 7 6.5t6 7.5l-1 3q-18 -23 -47 -36
t-64 -13q-28 0 -52.5 9t-43 24t-29 35.5t-10.5 44.5t10.5 44.5t29 36t43 24.5t52.5 9zM175 27q43 0 71 24t28 56q0 16 -7.5 30.5t-20.5 26t-31.5 18t-39.5 6.5t-39.5 -6.5t-31.5 -18t-20.5 -26t-7.5 -30.5q0 -32 28 -56t71 -24zM141 -82q0 14 10 24t24 10t24 -10t10 -24
t-10 -24t-24 -10t-24 10t-10 24z" />
    <glyph glyph-name="uni1EA2" unicode="A&#x309;" horiz-adv-x="420" 
d="M397 46q6 -16 -1 -31t-22 -21l-62 161h-203l-63 -161q-16 6 -22.5 21t-0.5 31l168 423q4 12 19 12q14 0 19 -12zM123 191h175l-95 245l-1 -3l6 -20zM227 525q0 -11 -9 -13t-23 -2v14q0 15 7 22.5t16 14.5q6 5 11 10t5 13t-7.5 15.5t-17.5 7.5t-17.5 -7t-7.5 -16
q0 -8 1 -13q-16 0 -25 7.5t-4 22.5q6 16 21 25t32 9q22 0 39.5 -14t17.5 -37q0 -18 -9.5 -28.5t-17.5 -15.5q-12 -7 -12 -15z" />
    <glyph glyph-name="uni1EA3" unicode="a&#x309;" horiz-adv-x="370" 
d="M175 221q35 0 64 -13t47 -36l1 3q-2 3 -6 7.5t-7 6.5v43q0 32 -28.5 56t-70.5 24q-33 0 -60.5 -19t-41.5 -46q-12 9 -15.5 23.5t7.5 26.5q19 23 48 35.5t62 12.5q24 0 48 -7.5t43.5 -22t31.5 -35.5t12 -48v-202q0 -36 -36 -36v32q3 2 7 6.5t6 7.5l-1 3q-18 -23 -47 -36
t-64 -13q-28 0 -52.5 9t-43 24t-29 35.5t-10.5 44.5t10.5 44.5t29 36t43 24.5t52.5 9zM175 27q43 0 71 24t28 56q0 16 -7.5 30.5t-20.5 26t-31.5 18t-39.5 6.5t-39.5 -6.5t-31.5 -18t-20.5 -26t-7.5 -30.5q0 -32 28 -56t71 -24zM201 385q0 -11 -9 -13t-23 -2v14q0 15 7 22.5
t16 14.5q6 5 11 10t5 13t-7.5 15.5t-17.5 7.5t-17.5 -7t-7.5 -16q0 -8 1 -13q-16 0 -25 7.5t-4 22.5q6 16 21 25t32 9q22 0 39.5 -14t17.5 -37q0 -18 -9.5 -28.5t-17.5 -15.5q-12 -7 -12 -15z" />
    <glyph glyph-name="uni1EA4" unicode="&#xc2;&#x301;" horiz-adv-x="420" 
d="M397 46q6 -16 -1 -31t-22 -21l-62 161h-203l-63 -161q-16 6 -22.5 21t-0.5 31l168 423q4 12 19 12q14 0 19 -12zM123 191h175l-95 245l-1 -3l6 -20zM210 618q7 0 12 -5l85 -90q-11 -8 -24 -8t-21 8l-52 55l-52 -55q-8 -8 -21 -8t-24 8l85 90q5 5 12 5zM309 689
q12 18 47 18h23l-84 -93q-7 -6 -16 -8.5t-26 -2.5z" />
    <glyph glyph-name="uni1EA5" unicode="&#xe2;&#x301;" horiz-adv-x="370" 
d="M175 221q35 0 64 -13t47 -36l1 3q-2 3 -6 7.5t-7 6.5v43q0 32 -28.5 56t-70.5 24q-33 0 -60.5 -19t-41.5 -46q-12 9 -15.5 23.5t7.5 26.5q19 23 48 35.5t62 12.5q24 0 48 -7.5t43.5 -22t31.5 -35.5t12 -48v-202q0 -36 -36 -36v32q3 2 7 6.5t6 7.5l-1 3q-18 -23 -47 -36
t-64 -13q-28 0 -52.5 9t-43 24t-29 35.5t-10.5 44.5t10.5 44.5t29 36t43 24.5t52.5 9zM175 27q43 0 71 24t28 56q0 16 -7.5 30.5t-20.5 26t-31.5 18t-39.5 6.5t-39.5 -6.5t-31.5 -18t-20.5 -26t-7.5 -30.5q0 -32 28 -56t71 -24zM286 549q12 18 47 18h23l-84 -93
q-7 -6 -16 -8.5t-26 -2.5zM185 478q7 0 12 -5l85 -90q-11 -8 -24 -8t-21 8l-52 55l-52 -55q-8 -8 -21 -8t-24 8l85 90q5 5 12 5z" />
    <glyph glyph-name="uni1EA6" unicode="&#xc2;&#x300;" horiz-adv-x="420" 
d="M397 46q6 -16 -1 -31t-22 -21l-62 161h-203l-63 -161q-16 6 -22.5 21t-0.5 31l168 423q4 12 19 12q14 0 19 -12zM123 191h175l-95 245l-1 -3l6 -20zM210 618q7 0 12 -5l85 -90q-11 -8 -24 -8t-21 8l-52 55l-52 -55q-8 -8 -21 -8t-24 8l85 90q5 5 12 5zM319 603
q-17 0 -26 2.5t-16 8.5l-84 93h23q35 0 47 -18z" />
    <glyph glyph-name="uni1EA7" unicode="&#xe2;&#x300;" horiz-adv-x="370" 
d="M175 221q35 0 64 -13t47 -36l1 3q-2 3 -6 7.5t-7 6.5v43q0 32 -28.5 56t-70.5 24q-33 0 -60.5 -19t-41.5 -46q-12 9 -15.5 23.5t7.5 26.5q19 23 48 35.5t62 12.5q24 0 48 -7.5t43.5 -22t31.5 -35.5t12 -48v-202q0 -36 -36 -36v32q3 2 7 6.5t6 7.5l-1 3q-18 -23 -47 -36
t-64 -13q-28 0 -52.5 9t-43 24t-29 35.5t-10.5 44.5t10.5 44.5t29 36t43 24.5t52.5 9zM175 27q43 0 71 24t28 56q0 16 -7.5 30.5t-20.5 26t-31.5 18t-39.5 6.5t-39.5 -6.5t-31.5 -18t-20.5 -26t-7.5 -30.5q0 -32 28 -56t71 -24zM185 478q7 0 12 -5l85 -90q-11 -8 -24 -8
t-21 8l-52 55l-52 -55q-8 -8 -21 -8t-24 8l85 90q5 5 12 5zM292 463q-17 0 -26 2.5t-16 8.5l-84 93h23q35 0 47 -18z" />
    <glyph glyph-name="uni1EA8" unicode="&#xc2;&#x309;" horiz-adv-x="420" 
d="M397 46q6 -16 -1 -31t-22 -21l-62 161h-203l-63 -161q-16 6 -22.5 21t-0.5 31l168 423q4 12 19 12q14 0 19 -12zM123 191h175l-95 245l-1 -3l6 -20zM210 618q7 0 12 -5l85 -90q-11 -8 -24 -8t-21 8l-52 55l-52 -55q-8 -8 -21 -8t-24 8l85 90q5 5 12 5zM307 615
q0 -11 -9 -13t-23 -2v14q0 15 7 22.5t16 14.5q6 5 11 10t5 13t-7.5 15.5t-17.5 7.5t-17.5 -7t-7.5 -16q0 -8 1 -13q-16 0 -25 7.5t-4 22.5q6 16 21 25t32 9q22 0 39.5 -14t17.5 -37q0 -18 -9.5 -28.5t-17.5 -15.5q-12 -7 -12 -15z" />
    <glyph glyph-name="uni1EA9" unicode="&#xe2;&#x309;" horiz-adv-x="370" 
d="M175 221q35 0 64 -13t47 -36l1 3q-2 3 -6 7.5t-7 6.5v43q0 32 -28.5 56t-70.5 24q-33 0 -60.5 -19t-41.5 -46q-12 9 -15.5 23.5t7.5 26.5q19 23 48 35.5t62 12.5q24 0 48 -7.5t43.5 -22t31.5 -35.5t12 -48v-202q0 -36 -36 -36v32q3 2 7 6.5t6 7.5l-1 3q-18 -23 -47 -36
t-64 -13q-28 0 -52.5 9t-43 24t-29 35.5t-10.5 44.5t10.5 44.5t29 36t43 24.5t52.5 9zM175 27q43 0 71 24t28 56q0 16 -7.5 30.5t-20.5 26t-31.5 18t-39.5 6.5t-39.5 -6.5t-31.5 -18t-20.5 -26t-7.5 -30.5q0 -32 28 -56t71 -24zM185 478q7 0 12 -5l85 -90q-11 -8 -24 -8
t-21 8l-52 55l-52 -55q-8 -8 -21 -8t-24 8l85 90q5 5 12 5zM282 475q0 -11 -9 -13t-23 -2v14q0 15 7 22.5t16 14.5q6 5 11 10t5 13t-7.5 15.5t-17.5 7.5t-17.5 -7t-7.5 -16q0 -8 1 -13q-16 0 -25 7.5t-4 22.5q6 16 21 25t32 9q22 0 39.5 -14t17.5 -37q0 -18 -9.5 -28.5
t-17.5 -15.5q-12 -7 -12 -15z" />
    <glyph glyph-name="uni1EAA" unicode="&#xc2;&#x303;" horiz-adv-x="420" 
d="M397 46q6 -16 -1 -31t-22 -21l-62 161h-203l-63 -161q-16 6 -22.5 21t-0.5 31l168 423q4 12 19 12q14 0 19 -12zM123 191h175l-95 245l-1 -3l6 -20zM210 618q7 0 12 -5l85 -90q-11 -8 -24 -8t-21 8l-52 55l-52 -55q-8 -8 -21 -8t-24 8l85 90q5 5 12 5zM220 694
q8 -7 16 -13t18 -6q11 0 18 13t-1 29q16 6 24.5 -4t6.5 -21q-3 -20 -15.5 -32.5t-32.5 -12.5q-18 0 -29 7.5t-24 17.5q-8 7 -16 13t-18 6q-11 0 -18 -13t1 -29q-16 -6 -24.5 4t-6.5 21q3 20 15.5 32.5t32.5 12.5q18 0 29 -7.5t24 -17.5z" />
    <glyph glyph-name="uni1EAB" unicode="&#xe2;&#x303;" horiz-adv-x="370" 
d="M175 221q35 0 64 -13t47 -36l1 3q-2 3 -6 7.5t-7 6.5v43q0 32 -28.5 56t-70.5 24q-33 0 -60.5 -19t-41.5 -46q-12 9 -15.5 23.5t7.5 26.5q19 23 48 35.5t62 12.5q24 0 48 -7.5t43.5 -22t31.5 -35.5t12 -48v-202q0 -36 -36 -36v32q3 2 7 6.5t6 7.5l-1 3q-18 -23 -47 -36
t-64 -13q-28 0 -52.5 9t-43 24t-29 35.5t-10.5 44.5t10.5 44.5t29 36t43 24.5t52.5 9zM175 27q43 0 71 24t28 56q0 16 -7.5 30.5t-20.5 26t-31.5 18t-39.5 6.5t-39.5 -6.5t-31.5 -18t-20.5 -26t-7.5 -30.5q0 -32 28 -56t71 -24zM185 478q7 0 12 -5l85 -90q-11 -8 -24 -8
t-21 8l-52 55l-52 -55q-8 -8 -21 -8t-24 8l85 90q5 5 12 5zM195 554q8 -7 16 -13t18 -6q11 0 18 13t-1 29q16 6 24.5 -4t6.5 -21q-3 -20 -15.5 -32.5t-32.5 -12.5q-18 0 -29 7.5t-24 17.5q-8 7 -16 13t-18 6q-11 0 -18 -13t1 -29q-16 -6 -24.5 4t-6.5 21q3 20 15.5 32.5
t32.5 12.5q18 0 29 -7.5t24 -17.5z" />
    <glyph glyph-name="uni1EAC" unicode="&#xc2;&#x323;" horiz-adv-x="420" 
d="M397 46q6 -16 -1 -31t-22 -21l-62 161h-203l-63 -161q-16 6 -22.5 21t-0.5 31l168 423q4 12 19 12q14 0 19 -12zM123 191h175l-95 245l-1 -3l6 -20zM176 -82q0 14 10 24t24 10t24 -10t10 -24t-10 -24t-24 -10t-24 10t-10 24zM210 618q7 0 12 -5l85 -90q-11 -8 -24 -8
t-21 8l-52 55l-52 -55q-8 -8 -21 -8t-24 8l85 90q5 5 12 5z" />
    <glyph glyph-name="uni1EAD" unicode="&#xe2;&#x323;" horiz-adv-x="370" 
d="M175 221q35 0 64 -13t47 -36l1 3q-2 3 -6 7.5t-7 6.5v43q0 32 -28.5 56t-70.5 24q-33 0 -60.5 -19t-41.5 -46q-12 9 -15.5 23.5t7.5 26.5q19 23 48 35.5t62 12.5q24 0 48 -7.5t43.5 -22t31.5 -35.5t12 -48v-202q0 -36 -36 -36v32q3 2 7 6.5t6 7.5l-1 3q-18 -23 -47 -36
t-64 -13q-28 0 -52.5 9t-43 24t-29 35.5t-10.5 44.5t10.5 44.5t29 36t43 24.5t52.5 9zM175 27q43 0 71 24t28 56q0 16 -7.5 30.5t-20.5 26t-31.5 18t-39.5 6.5t-39.5 -6.5t-31.5 -18t-20.5 -26t-7.5 -30.5q0 -32 28 -56t71 -24zM141 -82q0 14 10 24t24 10t24 -10t10 -24
t-10 -24t-24 -10t-24 10t-10 24zM185 478q7 0 12 -5l85 -90q-11 -8 -24 -8t-21 8l-52 55l-52 -55q-8 -8 -21 -8t-24 8l85 90q5 5 12 5z" />
    <glyph glyph-name="uni1EAE" unicode="&#x102;&#x301;" horiz-adv-x="420" 
d="M210 513q-17 0 -35.5 5.5t-34.5 16t-26.5 26t-11.5 35.5q-1 10 9 17.5t24 7.5q0 -32 21 -53t54 -21t54 21t21 53q14 0 24 -7.5t9 -17.5q-1 -20 -11.5 -35.5t-26.5 -26t-35 -16t-35 -5.5zM244 699q12 18 47 18h23l-84 -93q-7 -6 -16 -8.5t-26 -2.5zM397 46q6 -16 -1 -31
t-22 -21l-62 161h-203l-63 -161q-16 6 -22.5 21t-0.5 31l168 423q4 12 19 12q14 0 19 -12zM123 191h175l-95 245l-1 -3l6 -20z" />
    <glyph glyph-name="uni1EAF" unicode="&#x103;&#x301;" horiz-adv-x="370" 
d="M175 221q35 0 64 -13t47 -36l1 3q-2 3 -6 7.5t-7 6.5v43q0 32 -28.5 56t-70.5 24q-33 0 -60.5 -19t-41.5 -46q-12 9 -15.5 23.5t7.5 26.5q19 23 48 35.5t62 12.5q24 0 48 -7.5t43.5 -22t31.5 -35.5t12 -48v-202q0 -36 -36 -36v32q3 2 7 6.5t6 7.5l-1 3q-18 -23 -47 -36
t-64 -13q-28 0 -52.5 9t-43 24t-29 35.5t-10.5 44.5t10.5 44.5t29 36t43 24.5t52.5 9zM175 27q43 0 71 24t28 56q0 16 -7.5 30.5t-20.5 26t-31.5 18t-39.5 6.5t-39.5 -6.5t-31.5 -18t-20.5 -26t-7.5 -30.5q0 -32 28 -56t71 -24zM185 373q-17 0 -35.5 5.5t-34.5 16t-26.5 26
t-11.5 35.5q-1 10 9 17.5t24 7.5q0 -32 21 -53t54 -21t54 21t21 53q14 0 24 -7.5t9 -17.5q-1 -20 -11.5 -35.5t-26.5 -26t-35 -16t-35 -5.5zM220 559q12 18 47 18h23l-84 -93q-7 -6 -16 -8.5t-26 -2.5z" />
    <glyph glyph-name="uni1EB0" unicode="&#x102;&#x300;" horiz-adv-x="420" 
d="M210 513q-17 0 -35.5 5.5t-34.5 16t-26.5 26t-11.5 35.5q-1 10 9 17.5t24 7.5q0 -32 21 -53t54 -21t54 21t21 53q14 0 24 -7.5t9 -17.5q-1 -20 -11.5 -35.5t-26.5 -26t-35 -16t-35 -5.5zM233 613q-17 0 -26 2.5t-16 8.5l-84 93h23q35 0 47 -18zM397 46q6 -16 -1 -31
t-22 -21l-62 161h-203l-63 -161q-16 6 -22.5 21t-0.5 31l168 423q4 12 19 12q14 0 19 -12zM123 191h175l-95 245l-1 -3l6 -20z" />
    <glyph glyph-name="uni1EB1" unicode="&#x103;&#x300;" horiz-adv-x="370" 
d="M175 221q35 0 64 -13t47 -36l1 3q-2 3 -6 7.5t-7 6.5v43q0 32 -28.5 56t-70.5 24q-33 0 -60.5 -19t-41.5 -46q-12 9 -15.5 23.5t7.5 26.5q19 23 48 35.5t62 12.5q24 0 48 -7.5t43.5 -22t31.5 -35.5t12 -48v-202q0 -36 -36 -36v32q3 2 7 6.5t6 7.5l-1 3q-18 -23 -47 -36
t-64 -13q-28 0 -52.5 9t-43 24t-29 35.5t-10.5 44.5t10.5 44.5t29 36t43 24.5t52.5 9zM175 27q43 0 71 24t28 56q0 16 -7.5 30.5t-20.5 26t-31.5 18t-39.5 6.5t-39.5 -6.5t-31.5 -18t-20.5 -26t-7.5 -30.5q0 -32 28 -56t71 -24zM185 373q-17 0 -35.5 5.5t-34.5 16t-26.5 26
t-11.5 35.5q-1 10 9 17.5t24 7.5q0 -32 21 -53t54 -21t54 21t21 53q14 0 24 -7.5t9 -17.5q-1 -20 -11.5 -35.5t-26.5 -26t-35 -16t-35 -5.5zM208 473q-17 0 -26 2.5t-16 8.5l-84 93h23q35 0 47 -18z" />
    <glyph glyph-name="uni1EB2" unicode="&#x102;&#x309;" horiz-adv-x="420" 
d="M210 513q-17 0 -35.5 5.5t-34.5 16t-26.5 26t-11.5 35.5q-1 10 9 17.5t24 7.5q0 -32 21 -53t54 -21t54 21t21 53q14 0 24 -7.5t9 -17.5q-1 -20 -11.5 -35.5t-26.5 -26t-35 -16t-35 -5.5zM227 625q0 -11 -9 -13t-23 -2v14q0 15 7 22.5t16 14.5q6 5 11 10t5 13t-7.5 15.5
t-17.5 7.5t-17.5 -7t-7.5 -16q0 -8 1 -13q-16 0 -25 7.5t-4 22.5q6 16 21 25t32 9q22 0 39.5 -14t17.5 -37q0 -18 -9.5 -28.5t-17.5 -15.5q-12 -7 -12 -15zM397 46q6 -16 -1 -31t-22 -21l-62 161h-203l-63 -161q-16 6 -22.5 21t-0.5 31l168 423q4 12 19 12q14 0 19 -12z
M123 191h175l-95 245l-1 -3l6 -20z" />
    <glyph glyph-name="uni1EB3" unicode="&#x103;&#x309;" horiz-adv-x="370" 
d="M175 221q35 0 64 -13t47 -36l1 3q-2 3 -6 7.5t-7 6.5v43q0 32 -28.5 56t-70.5 24q-33 0 -60.5 -19t-41.5 -46q-12 9 -15.5 23.5t7.5 26.5q19 23 48 35.5t62 12.5q24 0 48 -7.5t43.5 -22t31.5 -35.5t12 -48v-202q0 -36 -36 -36v32q3 2 7 6.5t6 7.5l-1 3q-18 -23 -47 -36
t-64 -13q-28 0 -52.5 9t-43 24t-29 35.5t-10.5 44.5t10.5 44.5t29 36t43 24.5t52.5 9zM175 27q43 0 71 24t28 56q0 16 -7.5 30.5t-20.5 26t-31.5 18t-39.5 6.5t-39.5 -6.5t-31.5 -18t-20.5 -26t-7.5 -30.5q0 -32 28 -56t71 -24zM185 373q-17 0 -35.5 5.5t-34.5 16t-26.5 26
t-11.5 35.5q-1 10 9 17.5t24 7.5q0 -32 21 -53t54 -21t54 21t21 53q14 0 24 -7.5t9 -17.5q-1 -20 -11.5 -35.5t-26.5 -26t-35 -16t-35 -5.5zM201 485q0 -11 -9 -13t-23 -2v14q0 15 7 22.5t16 14.5q6 5 11 10t5 13t-7.5 15.5t-17.5 7.5t-17.5 -7t-7.5 -16q0 -8 1 -13
q-16 0 -25 7.5t-4 22.5q6 16 21 25t32 9q22 0 39.5 -14t17.5 -37q0 -18 -9.5 -28.5t-17.5 -15.5q-12 -7 -12 -15z" />
    <glyph glyph-name="uni1EB4" unicode="&#x102;&#x303;" horiz-adv-x="420" 
d="M210 513q-17 0 -35.5 5.5t-34.5 16t-26.5 26t-11.5 35.5q-1 10 9 17.5t24 7.5q0 -32 21 -53t54 -21t54 21t21 53q14 0 24 -7.5t9 -17.5q-1 -20 -11.5 -35.5t-26.5 -26t-35 -16t-35 -5.5zM220 684q8 -7 16 -13t18 -6q11 0 18 13t-1 29q16 6 24.5 -4t6.5 -21
q-3 -20 -15.5 -32.5t-32.5 -12.5q-18 0 -29 7.5t-24 17.5q-8 7 -16 13t-18 6q-11 0 -18 -13t1 -29q-16 -6 -24.5 4t-6.5 21q3 20 15.5 32.5t32.5 12.5q18 0 29 -7.5t24 -17.5zM397 46q6 -16 -1 -31t-22 -21l-62 161h-203l-63 -161q-16 6 -22.5 21t-0.5 31l168 423
q4 12 19 12q14 0 19 -12zM123 191h175l-95 245l-1 -3l6 -20z" />
    <glyph glyph-name="uni1EB5" unicode="&#x103;&#x303;" horiz-adv-x="370" 
d="M175 221q35 0 64 -13t47 -36l1 3q-2 3 -6 7.5t-7 6.5v43q0 32 -28.5 56t-70.5 24q-33 0 -60.5 -19t-41.5 -46q-12 9 -15.5 23.5t7.5 26.5q19 23 48 35.5t62 12.5q24 0 48 -7.5t43.5 -22t31.5 -35.5t12 -48v-202q0 -36 -36 -36v32q3 2 7 6.5t6 7.5l-1 3q-18 -23 -47 -36
t-64 -13q-28 0 -52.5 9t-43 24t-29 35.5t-10.5 44.5t10.5 44.5t29 36t43 24.5t52.5 9zM175 27q43 0 71 24t28 56q0 16 -7.5 30.5t-20.5 26t-31.5 18t-39.5 6.5t-39.5 -6.5t-31.5 -18t-20.5 -26t-7.5 -30.5q0 -32 28 -56t71 -24zM185 373q-17 0 -35.5 5.5t-34.5 16t-26.5 26
t-11.5 35.5q-1 10 9 17.5t24 7.5q0 -32 21 -53t54 -21t54 21t21 53q14 0 24 -7.5t9 -17.5q-1 -20 -11.5 -35.5t-26.5 -26t-35 -16t-35 -5.5zM195 544q8 -7 16 -13t18 -6q11 0 18 13t-1 29q16 6 24.5 -4t6.5 -21q-3 -20 -15.5 -32.5t-32.5 -12.5q-18 0 -29 7.5t-24 17.5
q-8 7 -16 13t-18 6q-11 0 -18 -13t1 -29q-16 -6 -24.5 4t-6.5 21q3 20 15.5 32.5t32.5 12.5q18 0 29 -7.5t24 -17.5z" />
    <glyph glyph-name="uni1EB6" unicode="&#x102;&#x323;" horiz-adv-x="420" 
d="M397 46q6 -16 -1 -31t-22 -21l-62 161h-203l-63 -161q-16 6 -22.5 21t-0.5 31l168 423q4 12 19 12q14 0 19 -12zM123 191h175l-95 245l-1 -3l6 -20zM176 -82q0 14 10 24t24 10t24 -10t10 -24t-10 -24t-24 -10t-24 10t-10 24zM210 513q-17 0 -35.5 5.5t-34.5 16t-26.5 26
t-11.5 35.5q-1 10 9 17.5t24 7.5q0 -32 21 -53t54 -21t54 21t21 53q14 0 24 -7.5t9 -17.5q-1 -20 -11.5 -35.5t-26.5 -26t-35 -16t-35 -5.5z" />
    <glyph glyph-name="uni1EB7" unicode="&#x103;&#x323;" horiz-adv-x="370" 
d="M175 221q35 0 64 -13t47 -36l1 3q-2 3 -6 7.5t-7 6.5v43q0 32 -28.5 56t-70.5 24q-33 0 -60.5 -19t-41.5 -46q-12 9 -15.5 23.5t7.5 26.5q19 23 48 35.5t62 12.5q24 0 48 -7.5t43.5 -22t31.5 -35.5t12 -48v-202q0 -36 -36 -36v32q3 2 7 6.5t6 7.5l-1 3q-18 -23 -47 -36
t-64 -13q-28 0 -52.5 9t-43 24t-29 35.5t-10.5 44.5t10.5 44.5t29 36t43 24.5t52.5 9zM175 27q43 0 71 24t28 56q0 16 -7.5 30.5t-20.5 26t-31.5 18t-39.5 6.5t-39.5 -6.5t-31.5 -18t-20.5 -26t-7.5 -30.5q0 -32 28 -56t71 -24zM141 -82q0 14 10 24t24 10t24 -10t10 -24
t-10 -24t-24 -10t-24 10t-10 24zM185 373q-17 0 -35.5 5.5t-34.5 16t-26.5 26t-11.5 35.5q-1 10 9 17.5t24 7.5q0 -32 21 -53t54 -21t54 21t21 53q14 0 24 -7.5t9 -17.5q-1 -20 -11.5 -35.5t-26.5 -26t-35 -16t-35 -5.5z" />
    <glyph glyph-name="uni1EB8" unicode="E&#x323;" horiz-adv-x="464" 
d="M90 256h198q0 -36 -36 -36h-162v-70q0 -24 11.5 -46t31.5 -38.5t46.5 -26t57.5 -9.5t58 9.5t47 26t31.5 38.5t11.5 46v10t-1 10q16 0 29.5 -11t8.5 -37q-6 -30 -24 -54t-43.5 -40.5t-56 -25t-61.5 -8.5q-33 0 -66 10.5t-60 30.5t-44 49t-17 66v176q0 36 16.5 64.5
t43 48.5t60 31t67.5 11q30 0 59.5 -7.5t55 -23.5t44 -39.5t26.5 -55.5q6 -27 -8 -38t-30 -11q1 5 1 10v10q0 24 -11.5 46t-31.5 38t-47 25.5t-58 9.5t-57.5 -9.5t-46.5 -25.5t-31.5 -38t-11.5 -46v-70zM206 -82q0 14 10 24t24 10t24 -10t10 -24t-10 -24t-24 -10t-24 10
t-10 24z" />
    <glyph glyph-name="uni1EB9" unicode="e&#x323;" horiz-adv-x="370" 
d="M86 107q0 -32 28 -56t71 -24q21 0 39.5 6.5t31.5 18t20.5 26t7.5 30.5q6 0 12 -3.5t10.5 -9t6 -13.5t-2.5 -17q-15 -32 -48.5 -51.5t-76.5 -19.5q-28 0 -52.5 9t-43 24t-29 35.5t-10.5 44.5v124q0 24 10.5 44.5t29 36t43 24.5t52.5 9t52.5 -9t43 -24.5t29 -36t10.5 -44.5
v-36q0 -8 -5.5 -13t-12.5 -5h-216v-70zM86 210h198v21q0 16 -7.5 30.5t-20.5 26t-31.5 18t-39.5 6.5t-39.5 -6.5t-31.5 -18t-20.5 -26t-7.5 -30.5v-21zM151 -82q0 14 10 24t24 10t24 -10t10 -24t-10 -24t-24 -10t-24 10t-10 24z" />
    <glyph glyph-name="uni1EBA" unicode="E&#x309;" horiz-adv-x="464" 
d="M90 256h198q0 -36 -36 -36h-162v-70q0 -24 11.5 -46t31.5 -38.5t46.5 -26t57.5 -9.5t58 9.5t47 26t31.5 38.5t11.5 46v10t-1 10q16 0 29.5 -11t8.5 -37q-6 -30 -24 -54t-43.5 -40.5t-56 -25t-61.5 -8.5q-33 0 -66 10.5t-60 30.5t-44 49t-17 66v176q0 36 16.5 64.5
t43 48.5t60 31t67.5 11q30 0 59.5 -7.5t55 -23.5t44 -39.5t26.5 -55.5q6 -27 -8 -38t-30 -11q1 5 1 10v10q0 24 -11.5 46t-31.5 38t-47 25.5t-58 9.5t-57.5 -9.5t-46.5 -25.5t-31.5 -38t-11.5 -46v-70zM257 525q0 -11 -9 -13t-23 -2v14q0 15 7 22.5t16 14.5q6 5 11 10t5 13
t-7.5 15.5t-17.5 7.5t-17.5 -7t-7.5 -16q0 -8 1 -13q-16 0 -25 7.5t-4 22.5q6 16 21 25t32 9q22 0 39.5 -14t17.5 -37q0 -18 -9.5 -28.5t-17.5 -15.5q-12 -7 -12 -15z" />
    <glyph glyph-name="uni1EBB" unicode="e&#x309;" horiz-adv-x="370" 
d="M86 107q0 -32 28 -56t71 -24q21 0 39.5 6.5t31.5 18t20.5 26t7.5 30.5q6 0 12 -3.5t10.5 -9t6 -13.5t-2.5 -17q-15 -32 -48.5 -51.5t-76.5 -19.5q-28 0 -52.5 9t-43 24t-29 35.5t-10.5 44.5v124q0 24 10.5 44.5t29 36t43 24.5t52.5 9t52.5 -9t43 -24.5t29 -36t10.5 -44.5
v-36q0 -8 -5.5 -13t-12.5 -5h-216v-70zM86 210h198v21q0 16 -7.5 30.5t-20.5 26t-31.5 18t-39.5 6.5t-39.5 -6.5t-31.5 -18t-20.5 -26t-7.5 -30.5v-21zM202 385q0 -11 -9 -13t-23 -2v14q0 15 7 22.5t16 14.5q6 5 11 10t5 13t-7.5 15.5t-17.5 7.5t-17.5 -7t-7.5 -16
q0 -8 1 -13q-16 0 -25 7.5t-4 22.5q6 16 21 25t32 9q22 0 39.5 -14t17.5 -37q0 -18 -9.5 -28.5t-17.5 -15.5q-12 -7 -12 -15z" />
    <glyph glyph-name="uni1EBC" unicode="E&#x303;" horiz-adv-x="464" 
d="M90 256h198q0 -36 -36 -36h-162v-70q0 -24 11.5 -46t31.5 -38.5t46.5 -26t57.5 -9.5t58 9.5t47 26t31.5 38.5t11.5 46v10t-1 10q16 0 29.5 -11t8.5 -37q-6 -30 -24 -54t-43.5 -40.5t-56 -25t-61.5 -8.5q-33 0 -66 10.5t-60 30.5t-44 49t-17 66v176q0 36 16.5 64.5
t43 48.5t60 31t67.5 11q30 0 59.5 -7.5t55 -23.5t44 -39.5t26.5 -55.5q6 -27 -8 -38t-30 -11q1 5 1 10v10q0 24 -11.5 46t-31.5 38t-47 25.5t-58 9.5t-57.5 -9.5t-46.5 -25.5t-31.5 -38t-11.5 -46v-70zM250 584q8 -7 16 -13t18 -6q11 0 18 13t-1 29q16 6 24.5 -4t6.5 -21
q-3 -20 -15.5 -32.5t-32.5 -12.5q-18 0 -29 7.5t-24 17.5q-8 7 -16 13t-18 6q-11 0 -18 -13t1 -29q-16 -6 -24.5 4t-6.5 21q3 20 15.5 32.5t32.5 12.5q18 0 29 -7.5t24 -17.5z" />
    <glyph glyph-name="uni1EBD" unicode="e&#x303;" horiz-adv-x="370" 
d="M86 107q0 -32 28 -56t71 -24q21 0 39.5 6.5t31.5 18t20.5 26t7.5 30.5q6 0 12 -3.5t10.5 -9t6 -13.5t-2.5 -17q-15 -32 -48.5 -51.5t-76.5 -19.5q-28 0 -52.5 9t-43 24t-29 35.5t-10.5 44.5v124q0 24 10.5 44.5t29 36t43 24.5t52.5 9t52.5 -9t43 -24.5t29 -36t10.5 -44.5
v-36q0 -8 -5.5 -13t-12.5 -5h-216v-70zM86 210h198v21q0 16 -7.5 30.5t-20.5 26t-31.5 18t-39.5 6.5t-39.5 -6.5t-31.5 -18t-20.5 -26t-7.5 -30.5v-21zM195 444q8 -7 16 -13t18 -6q11 0 18 13t-1 29q16 6 24.5 -4t6.5 -21q-3 -20 -15.5 -32.5t-32.5 -12.5q-18 0 -29 7.5
t-24 17.5q-8 7 -16 13t-18 6q-11 0 -18 -13t1 -29q-16 -6 -24.5 4t-6.5 21q3 20 15.5 32.5t32.5 12.5q18 0 29 -7.5t24 -17.5z" />
    <glyph glyph-name="uni1EBE" unicode="&#xca;&#x301;" horiz-adv-x="464" 
d="M90 256h198q0 -36 -36 -36h-162v-70q0 -24 11.5 -46t31.5 -38.5t46.5 -26t57.5 -9.5t58 9.5t47 26t31.5 38.5t11.5 46v10t-1 10q16 0 29.5 -11t8.5 -37q-6 -30 -24 -54t-43.5 -40.5t-56 -25t-61.5 -8.5q-33 0 -66 10.5t-60 30.5t-44 49t-17 66v176q0 36 16.5 64.5
t43 48.5t60 31t67.5 11q30 0 59.5 -7.5t55 -23.5t44 -39.5t26.5 -55.5q6 -27 -8 -38t-30 -11q1 5 1 10v10q0 24 -11.5 46t-31.5 38t-47 25.5t-58 9.5t-57.5 -9.5t-46.5 -25.5t-31.5 -38t-11.5 -46v-70zM240 618q7 0 12 -5l85 -90q-11 -8 -24 -8t-21 8l-52 55l-52 -55
q-8 -8 -21 -8t-24 8l85 90q5 5 12 5zM353 689q12 18 47 18h23l-84 -93q-7 -6 -16 -8.5t-26 -2.5z" />
    <glyph glyph-name="uni1EBF" unicode="&#xea;&#x301;" horiz-adv-x="370" 
d="M86 107q0 -32 28 -56t71 -24q21 0 39.5 6.5t31.5 18t20.5 26t7.5 30.5q6 0 12 -3.5t10.5 -9t6 -13.5t-2.5 -17q-15 -32 -48.5 -51.5t-76.5 -19.5q-28 0 -52.5 9t-43 24t-29 35.5t-10.5 44.5v124q0 24 10.5 44.5t29 36t43 24.5t52.5 9t52.5 -9t43 -24.5t29 -36t10.5 -44.5
v-36q0 -8 -5.5 -13t-12.5 -5h-216v-70zM86 210h198v21q0 16 -7.5 30.5t-20.5 26t-31.5 18t-39.5 6.5t-39.5 -6.5t-31.5 -18t-20.5 -26t-7.5 -30.5v-21zM185 478q7 0 12 -5l85 -90q-11 -8 -24 -8t-21 8l-52 55l-52 -55q-8 -8 -21 -8t-24 8l85 90q5 5 12 5zM298 549
q12 18 47 18h23l-84 -93q-7 -6 -16 -8.5t-26 -2.5z" />
    <glyph glyph-name="uni1EC0" unicode="&#xca;&#x300;" horiz-adv-x="464" 
d="M90 256h198q0 -36 -36 -36h-162v-70q0 -24 11.5 -46t31.5 -38.5t46.5 -26t57.5 -9.5t58 9.5t47 26t31.5 38.5t11.5 46v10t-1 10q16 0 29.5 -11t8.5 -37q-6 -30 -24 -54t-43.5 -40.5t-56 -25t-61.5 -8.5q-33 0 -66 10.5t-60 30.5t-44 49t-17 66v176q0 36 16.5 64.5
t43 48.5t60 31t67.5 11q30 0 59.5 -7.5t55 -23.5t44 -39.5t26.5 -55.5q6 -27 -8 -38t-30 -11q1 5 1 10v10q0 24 -11.5 46t-31.5 38t-47 25.5t-58 9.5t-57.5 -9.5t-46.5 -25.5t-31.5 -38t-11.5 -46v-70zM240 618q7 0 12 -5l85 -90q-11 -8 -24 -8t-21 8l-52 55l-52 -55
q-8 -8 -21 -8t-24 8l85 90q5 5 12 5zM353 603q-17 0 -26 2.5t-16 8.5l-84 93h23q35 0 47 -18z" />
    <glyph glyph-name="uni1EC1" unicode="&#xea;&#x300;" horiz-adv-x="370" 
d="M86 107q0 -32 28 -56t71 -24q21 0 39.5 6.5t31.5 18t20.5 26t7.5 30.5q6 0 12 -3.5t10.5 -9t6 -13.5t-2.5 -17q-15 -32 -48.5 -51.5t-76.5 -19.5q-28 0 -52.5 9t-43 24t-29 35.5t-10.5 44.5v124q0 24 10.5 44.5t29 36t43 24.5t52.5 9t52.5 -9t43 -24.5t29 -36t10.5 -44.5
v-36q0 -8 -5.5 -13t-12.5 -5h-216v-70zM86 210h198v21q0 16 -7.5 30.5t-20.5 26t-31.5 18t-39.5 6.5t-39.5 -6.5t-31.5 -18t-20.5 -26t-7.5 -30.5v-21zM185 478q7 0 12 -5l85 -90q-11 -8 -24 -8t-21 8l-52 55l-52 -55q-8 -8 -21 -8t-24 8l85 90q5 5 12 5zM298 463
q-17 0 -26 2.5t-16 8.5l-84 93h23q35 0 47 -18z" />
    <glyph glyph-name="uni1EC2" unicode="&#xca;&#x309;" horiz-adv-x="464" 
d="M86 256h198q0 -36 -36 -36h-162v-70q0 -24 11.5 -46t31.5 -38.5t46.5 -26t57.5 -9.5t58 9.5t47 26t31.5 38.5t11.5 46v10t-1 10q16 0 29.5 -11t8.5 -37q-6 -30 -24 -54t-43.5 -40.5t-56 -25t-61.5 -8.5q-33 0 -66 10.5t-60 30.5t-44 49t-17 66v176q0 36 16.5 64.5
t43 48.5t60 31t67.5 11q30 0 59.5 -7.5t55 -23.5t44 -39.5t26.5 -55.5q6 -27 -8 -38t-30 -11q1 5 1 10v10q0 24 -11.5 46t-31.5 38t-47 25.5t-58 9.5t-57.5 -9.5t-46.5 -25.5t-31.5 -38t-11.5 -46v-70zM240 618q7 0 12 -5l85 -90q-11 -8 -24 -8t-21 8l-52 55l-52 -55
q-8 -8 -21 -8t-24 8l85 90q5 5 12 5zM347 615q0 -11 -9 -13t-23 -2v14q0 15 7 22.5t16 14.5q6 5 11 10t5 13t-7.5 15.5t-17.5 7.5t-17.5 -7t-7.5 -16q0 -8 1 -13q-16 0 -25 7.5t-4 22.5q6 16 21 25t32 9q22 0 39.5 -14t17.5 -37q0 -18 -9.5 -28.5t-17.5 -15.5
q-12 -7 -12 -15z" />
    <glyph glyph-name="uni1EC3" unicode="&#xea;&#x309;" horiz-adv-x="370" 
d="M86 107q0 -32 28 -56t71 -24q21 0 39.5 6.5t31.5 18t20.5 26t7.5 30.5q6 0 12 -3.5t10.5 -9t6 -13.5t-2.5 -17q-15 -32 -48.5 -51.5t-76.5 -19.5q-28 0 -52.5 9t-43 24t-29 35.5t-10.5 44.5v124q0 24 10.5 44.5t29 36t43 24.5t52.5 9t52.5 -9t43 -24.5t29 -36t10.5 -44.5
v-36q0 -8 -5.5 -13t-12.5 -5h-216v-70zM86 210h198v21q0 16 -7.5 30.5t-20.5 26t-31.5 18t-39.5 6.5t-39.5 -6.5t-31.5 -18t-20.5 -26t-7.5 -30.5v-21zM185 478q7 0 12 -5l85 -90q-11 -8 -24 -8t-21 8l-52 55l-52 -55q-8 -8 -21 -8t-24 8l85 90q5 5 12 5zM292 475
q0 -11 -9 -13t-23 -2v14q0 15 7 22.5t16 14.5q6 5 11 10t5 13t-7.5 15.5t-17.5 7.5t-17.5 -7t-7.5 -16q0 -8 1 -13q-16 0 -25 7.5t-4 22.5q6 16 21 25t32 9q22 0 39.5 -14t17.5 -37q0 -18 -9.5 -28.5t-17.5 -15.5q-12 -7 -12 -15z" />
    <glyph glyph-name="uni1EC4" unicode="&#xca;&#x303;" horiz-adv-x="464" 
d="M90 256h198q0 -36 -36 -36h-162v-70q0 -24 11.5 -46t31.5 -38.5t46.5 -26t57.5 -9.5t58 9.5t47 26t31.5 38.5t11.5 46v10t-1 10q16 0 29.5 -11t8.5 -37q-6 -30 -24 -54t-43.5 -40.5t-56 -25t-61.5 -8.5q-33 0 -66 10.5t-60 30.5t-44 49t-17 66v176q0 36 16.5 64.5
t43 48.5t60 31t67.5 11q30 0 59.5 -7.5t55 -23.5t44 -39.5t26.5 -55.5q6 -27 -8 -38t-30 -11q1 5 1 10v10q0 24 -11.5 46t-31.5 38t-47 25.5t-58 9.5t-57.5 -9.5t-46.5 -25.5t-31.5 -38t-11.5 -46v-70zM240 618q7 0 12 -5l85 -90q-11 -8 -24 -8t-21 8l-52 55l-52 -55
q-8 -8 -21 -8t-24 8l85 90q5 5 12 5zM250 684q8 -7 16 -13t18 -6q11 0 18 13t-1 29q16 6 24.5 -4t6.5 -21q-3 -20 -15.5 -32.5t-32.5 -12.5q-18 0 -29 7.5t-24 17.5q-8 7 -16 13t-18 6q-11 0 -18 -13t1 -29q-16 -6 -24.5 4t-6.5 21q3 20 15.5 32.5t32.5 12.5q18 0 29 -7.5
t24 -17.5z" />
    <glyph glyph-name="uni1EC5" unicode="&#xea;&#x303;" horiz-adv-x="370" 
d="M86 107q0 -32 28 -56t71 -24q21 0 39.5 6.5t31.5 18t20.5 26t7.5 30.5q6 0 12 -3.5t10.5 -9t6 -13.5t-2.5 -17q-15 -32 -48.5 -51.5t-76.5 -19.5q-28 0 -52.5 9t-43 24t-29 35.5t-10.5 44.5v124q0 24 10.5 44.5t29 36t43 24.5t52.5 9t52.5 -9t43 -24.5t29 -36t10.5 -44.5
v-36q0 -8 -5.5 -13t-12.5 -5h-216v-70zM86 210h198v21q0 16 -7.5 30.5t-20.5 26t-31.5 18t-39.5 6.5t-39.5 -6.5t-31.5 -18t-20.5 -26t-7.5 -30.5v-21zM185 478q7 0 12 -5l85 -90q-11 -8 -24 -8t-21 8l-52 55l-52 -55q-8 -8 -21 -8t-24 8l85 90q5 5 12 5zM195 544
q8 -7 16 -13t18 -6q11 0 18 13t-1 29q16 6 24.5 -4t6.5 -21q-3 -20 -15.5 -32.5t-32.5 -12.5q-18 0 -29 7.5t-24 17.5q-8 7 -16 13t-18 6q-11 0 -18 -13t1 -29q-16 -6 -24.5 4t-6.5 21q3 20 15.5 32.5t32.5 12.5q18 0 29 -7.5t24 -17.5z" />
    <glyph glyph-name="uni1EC6" unicode="&#xca;&#x323;" horiz-adv-x="464" 
d="M90 256h198q0 -36 -36 -36h-162v-70q0 -24 11.5 -46t31.5 -38.5t46.5 -26t57.5 -9.5t58 9.5t47 26t31.5 38.5t11.5 46v10t-1 10q16 0 29.5 -11t8.5 -37q-6 -30 -24 -54t-43.5 -40.5t-56 -25t-61.5 -8.5q-33 0 -66 10.5t-60 30.5t-44 49t-17 66v176q0 36 16.5 64.5
t43 48.5t60 31t67.5 11q30 0 59.5 -7.5t55 -23.5t44 -39.5t26.5 -55.5q6 -27 -8 -38t-30 -11q1 5 1 10v10q0 24 -11.5 46t-31.5 38t-47 25.5t-58 9.5t-57.5 -9.5t-46.5 -25.5t-31.5 -38t-11.5 -46v-70zM206 -82q0 14 10 24t24 10t24 -10t10 -24t-10 -24t-24 -10t-24 10
t-10 24zM240 618q7 0 12 -5l85 -90q-11 -8 -24 -8t-21 8l-52 55l-52 -55q-8 -8 -21 -8t-24 8l85 90q5 5 12 5z" />
    <glyph glyph-name="uni1EC7" unicode="&#xea;&#x323;" horiz-adv-x="370" 
d="M86 107q0 -32 28 -56t71 -24q21 0 39.5 6.5t31.5 18t20.5 26t7.5 30.5q6 0 12 -3.5t10.5 -9t6 -13.5t-2.5 -17q-15 -32 -48.5 -51.5t-76.5 -19.5q-28 0 -52.5 9t-43 24t-29 35.5t-10.5 44.5v124q0 24 10.5 44.5t29 36t43 24.5t52.5 9t52.5 -9t43 -24.5t29 -36t10.5 -44.5
v-36q0 -8 -5.5 -13t-12.5 -5h-216v-70zM86 210h198v21q0 16 -7.5 30.5t-20.5 26t-31.5 18t-39.5 6.5t-39.5 -6.5t-31.5 -18t-20.5 -26t-7.5 -30.5v-21zM151 -82q0 14 10 24t24 10t24 -10t10 -24t-10 -24t-24 -10t-24 10t-10 24zM185 478q7 0 12 -5l85 -90q-11 -8 -24 -8
t-21 8l-52 55l-52 -55q-8 -8 -21 -8t-24 8l85 90q5 5 12 5z" />
    <glyph glyph-name="uni1EC8" unicode="I&#x309;" horiz-adv-x="160" 
d="M100 34q0 -40 -40 -40v447q0 40 40 40v-447zM97 525q0 -11 -9 -13t-23 -2v14q0 15 7 22.5t16 14.5q6 5 11 10t5 13t-7.5 15.5t-17.5 7.5t-17.5 -7t-7.5 -16q0 -8 1 -13q-16 0 -25 7.5t-4 22.5q6 16 21 25t32 9q22 0 39.5 -14t17.5 -37q0 -18 -9.5 -28.5t-17.5 -15.5
q-12 -7 -12 -15z" />
    <glyph glyph-name="uni1EC9" unicode="i&#x309;" horiz-adv-x="156" 
d="M60 309q0 36 36 36v-315q0 -36 -36 -36v315zM95 385q0 -11 -9 -13t-23 -2v14q0 15 7 22.5t16 14.5q6 5 11 10t5 13t-7.5 15.5t-17.5 7.5t-17.5 -7t-7.5 -16q0 -8 1 -13q-16 0 -25 7.5t-4 22.5q6 16 21 25t32 9q22 0 39.5 -14t17.5 -37q0 -18 -9.5 -28.5t-17.5 -15.5
q-12 -7 -12 -15z" />
    <glyph glyph-name="uni1ECA" unicode="I&#x323;" horiz-adv-x="160" 
d="M100 34q0 -40 -40 -40v447q0 40 40 40v-447zM46 -82q0 14 10 24t24 10t24 -10t10 -24t-10 -24t-24 -10t-24 10t-10 24z" />
    <glyph glyph-name="uni1ECB" unicode="i&#x323;" horiz-adv-x="156" 
d="M60 309q0 36 36 36v-315q0 -36 -36 -36v315zM44 433q0 14 10 24t24 10t24 -10t10 -24t-10 -24t-24 -10t-24 10t-10 24zM44 -82q0 14 10 24t24 10t24 -10t10 -24t-10 -24t-24 -10t-24 10t-10 24z" />
    <glyph glyph-name="uni1ECC" unicode="O&#x323;" horiz-adv-x="567" 
d="M40 237q0 51 19 95.5t52 77.5t77 52t95 19t95.5 -19t77.5 -52t52 -77.5t19 -95.5t-19 -95t-52 -77t-77.5 -52t-95.5 -19t-95 19t-77 52t-52 77t-19 95zM80 237q0 -43 16 -81t43.5 -66t64.5 -44t79 -16t79.5 16t65 44t43.5 66t16 81t-16 81t-43.5 66t-65 44.5t-79.5 16.5
t-79 -16.5t-64.5 -44.5t-43.5 -66t-16 -81zM249 -82q0 14 10 24t24 10t24 -10t10 -24t-10 -24t-24 -10t-24 10t-10 24z" />
    <glyph glyph-name="uni1ECD" unicode="o&#x323;" horiz-adv-x="431" 
d="M40 169q0 36 13.5 68t37.5 56t56 38t68 14t68 -14t56 -38t38 -56t14 -68t-14 -68t-38 -56t-56 -37.5t-68 -13.5t-68 13.5t-56 37.5t-37.5 56t-13.5 68zM76 169q0 -30 11 -55.5t29.5 -45t44 -30.5t54.5 -11t54.5 11t44.5 30.5t30 45t11 55.5t-11 56t-30 45.5t-44.5 30.5
t-54.5 11t-54.5 -11t-44 -30.5t-29.5 -45.5t-11 -56zM181 -82q0 14 10 24t24 10t24 -10t10 -24t-10 -24t-24 -10t-24 10t-10 24z" />
    <glyph glyph-name="uni1ECE" unicode="O&#x309;" horiz-adv-x="567" 
d="M40 237q0 51 19 95.5t52 77.5t77 52t95 19t95.5 -19t77.5 -52t52 -77.5t19 -95.5t-19 -95t-52 -77t-77.5 -52t-95.5 -19t-95 19t-77 52t-52 77t-19 95zM80 237q0 -43 16 -81t43.5 -66t64.5 -44t79 -16t79.5 16t65 44t43.5 66t16 81t-16 81t-43.5 66t-65 44.5t-79.5 16.5
t-79 -16.5t-64.5 -44.5t-43.5 -66t-16 -81zM300 525q0 -11 -9 -13t-23 -2v14q0 15 7 22.5t16 14.5q6 5 11 10t5 13t-7.5 15.5t-17.5 7.5t-17.5 -7t-7.5 -16q0 -8 1 -13q-16 0 -25 7.5t-4 22.5q6 16 21 25t32 9q22 0 39.5 -14t17.5 -37q0 -18 -9.5 -28.5t-17.5 -15.5
q-12 -7 -12 -15z" />
    <glyph glyph-name="uni1ECF" unicode="o&#x309;" horiz-adv-x="431" 
d="M40 169q0 36 13.5 68t37.5 56t56 38t68 14t68 -14t56 -38t38 -56t14 -68t-14 -68t-38 -56t-56 -37.5t-68 -13.5t-68 13.5t-56 37.5t-37.5 56t-13.5 68zM76 169q0 -30 11 -55.5t29.5 -45t44 -30.5t54.5 -11t54.5 11t44.5 30.5t30 45t11 55.5t-11 56t-30 45.5t-44.5 30.5
t-54.5 11t-54.5 -11t-44 -30.5t-29.5 -45.5t-11 -56zM232 385q0 -11 -9 -13t-23 -2v14q0 15 7 22.5t16 14.5q6 5 11 10t5 13t-7.5 15.5t-17.5 7.5t-17.5 -7t-7.5 -16q0 -8 1 -13q-16 0 -25 7.5t-4 22.5q6 16 21 25t32 9q22 0 39.5 -14t17.5 -37q0 -18 -9.5 -28.5
t-17.5 -15.5q-12 -7 -12 -15z" />
    <glyph glyph-name="uni1ED0" unicode="&#xd4;&#x301;" horiz-adv-x="567" 
d="M40 237q0 51 19 95.5t52 77.5t77 52t95 19t95.5 -19t77.5 -52t52 -77.5t19 -95.5t-19 -95t-52 -77t-77.5 -52t-95.5 -19t-95 19t-77 52t-52 77t-19 95zM80 237q0 -43 16 -81t43.5 -66t64.5 -44t79 -16t79.5 16t65 44t43.5 66t16 81t-16 81t-43.5 66t-65 44.5t-79.5 16.5
t-79 -16.5t-64.5 -44.5t-43.5 -66t-16 -81zM283 618q7 0 12 -5l85 -90q-11 -8 -24 -8t-21 8l-52 55l-52 -55q-8 -8 -21 -8t-24 8l85 90q5 5 12 5zM396 689q12 18 47 18h23l-84 -93q-7 -6 -16 -8.5t-26 -2.5z" />
    <glyph glyph-name="uni1ED1" unicode="&#xf4;&#x301;" horiz-adv-x="431" 
d="M40 169q0 36 13.5 68t37.5 56t56 38t68 14t68 -14t56 -38t38 -56t14 -68t-14 -68t-38 -56t-56 -37.5t-68 -13.5t-68 13.5t-56 37.5t-37.5 56t-13.5 68zM76 169q0 -30 11 -55.5t29.5 -45t44 -30.5t54.5 -11t54.5 11t44.5 30.5t30 45t11 55.5t-11 56t-30 45.5t-44.5 30.5
t-54.5 11t-54.5 -11t-44 -30.5t-29.5 -45.5t-11 -56zM215 478q7 0 12 -5l85 -90q-11 -8 -24 -8t-21 8l-52 55l-52 -55q-8 -8 -21 -8t-24 8l85 90q5 5 12 5zM328 549q12 18 47 18h23l-84 -93q-7 -6 -16 -8.5t-26 -2.5z" />
    <glyph glyph-name="uni1ED2" unicode="&#xd4;&#x300;" horiz-adv-x="567" 
d="M40 237q0 51 19 95.5t52 77.5t77 52t95 19t95.5 -19t77.5 -52t52 -77.5t19 -95.5t-19 -95t-52 -77t-77.5 -52t-95.5 -19t-95 19t-77 52t-52 77t-19 95zM80 237q0 -43 16 -81t43.5 -66t64.5 -44t79 -16t79.5 16t65 44t43.5 66t16 81t-16 81t-43.5 66t-65 44.5t-79.5 16.5
t-79 -16.5t-64.5 -44.5t-43.5 -66t-16 -81zM283 618q7 0 12 -5l85 -90q-11 -8 -24 -8t-21 8l-52 55l-52 -55q-8 -8 -21 -8t-24 8l85 90q5 5 12 5zM386 603q-17 0 -26 2.5t-16 8.5l-84 93h23q35 0 47 -18z" />
    <glyph glyph-name="uni1ED3" unicode="&#xf4;&#x300;" horiz-adv-x="431" 
d="M40 169q0 36 13.5 68t37.5 56t56 38t68 14t68 -14t56 -38t38 -56t14 -68t-14 -68t-38 -56t-56 -37.5t-68 -13.5t-68 13.5t-56 37.5t-37.5 56t-13.5 68zM76 169q0 -30 11 -55.5t29.5 -45t44 -30.5t54.5 -11t54.5 11t44.5 30.5t30 45t11 55.5t-11 56t-30 45.5t-44.5 30.5
t-54.5 11t-54.5 -11t-44 -30.5t-29.5 -45.5t-11 -56zM215 478q7 0 12 -5l85 -90q-11 -8 -24 -8t-21 8l-52 55l-52 -55q-8 -8 -21 -8t-24 8l85 90q5 5 12 5zM318 463q-17 0 -26 2.5t-16 8.5l-84 93h23q35 0 47 -18z" />
    <glyph glyph-name="uni1ED4" unicode="&#xd4;&#x309;" horiz-adv-x="567" 
d="M40 237q0 51 19 95.5t52 77.5t77 52t95 19t95.5 -19t77.5 -52t52 -77.5t19 -95.5t-19 -95t-52 -77t-77.5 -52t-95.5 -19t-95 19t-77 52t-52 77t-19 95zM80 237q0 -43 16 -81t43.5 -66t64.5 -44t79 -16t79.5 16t65 44t43.5 66t16 81t-16 81t-43.5 66t-65 44.5t-79.5 16.5
t-79 -16.5t-64.5 -44.5t-43.5 -66t-16 -81zM283 618q7 0 12 -5l85 -90q-11 -8 -24 -8t-21 8l-52 55l-52 -55q-8 -8 -21 -8t-24 8l85 90q5 5 12 5zM370 615q0 -11 -9 -13t-23 -2v14q0 15 7 22.5t16 14.5q6 5 11 10t5 13t-7.5 15.5t-17.5 7.5t-17.5 -7t-7.5 -16q0 -8 1 -13
q-16 0 -25 7.5t-4 22.5q6 16 21 25t32 9q22 0 39.5 -14t17.5 -37q0 -18 -9.5 -28.5t-17.5 -15.5q-12 -7 -12 -15z" />
    <glyph glyph-name="uni1ED5" unicode="&#xf4;&#x309;" horiz-adv-x="431" 
d="M40 169q0 36 13.5 68t37.5 56t56 38t68 14t68 -14t56 -38t38 -56t14 -68t-14 -68t-38 -56t-56 -37.5t-68 -13.5t-68 13.5t-56 37.5t-37.5 56t-13.5 68zM76 169q0 -30 11 -55.5t29.5 -45t44 -30.5t54.5 -11t54.5 11t44.5 30.5t30 45t11 55.5t-11 56t-30 45.5t-44.5 30.5
t-54.5 11t-54.5 -11t-44 -30.5t-29.5 -45.5t-11 -56zM215 478q7 0 12 -5l85 -90q-11 -8 -24 -8t-21 8l-52 55l-52 -55q-8 -8 -21 -8t-24 8l85 90q5 5 12 5zM302 475q0 -11 -9 -13t-23 -2v14q0 15 7 22.5t16 14.5q6 5 11 10t5 13t-7.5 15.5t-17.5 7.5t-17.5 -7t-7.5 -16
q0 -8 1 -13q-16 0 -25 7.5t-4 22.5q6 16 21 25t32 9q22 0 39.5 -14t17.5 -37q0 -18 -9.5 -28.5t-17.5 -15.5q-12 -7 -12 -15z" />
    <glyph glyph-name="uni1ED6" unicode="&#xd4;&#x303;" horiz-adv-x="567" 
d="M40 237q0 51 19 95.5t52 77.5t77 52t95 19t95.5 -19t77.5 -52t52 -77.5t19 -95.5t-19 -95t-52 -77t-77.5 -52t-95.5 -19t-95 19t-77 52t-52 77t-19 95zM80 237q0 -43 16 -81t43.5 -66t64.5 -44t79 -16t79.5 16t65 44t43.5 66t16 81t-16 81t-43.5 66t-65 44.5t-79.5 16.5
t-79 -16.5t-64.5 -44.5t-43.5 -66t-16 -81zM283 618q7 0 12 -5l85 -90q-11 -8 -24 -8t-21 8l-52 55l-52 -55q-8 -8 -21 -8t-24 8l85 90q5 5 12 5zM293 684q8 -7 16 -13t18 -6q11 0 18 13t-1 29q16 6 24.5 -4t6.5 -21q-3 -20 -15.5 -32.5t-32.5 -12.5q-18 0 -29 7.5t-24 17.5
q-8 7 -16 13t-18 6q-11 0 -18 -13t1 -29q-16 -6 -24.5 4t-6.5 21q3 20 15.5 32.5t32.5 12.5q18 0 29 -7.5t24 -17.5z" />
    <glyph glyph-name="uni1ED7" unicode="&#xf4;&#x303;" horiz-adv-x="431" 
d="M40 169q0 36 13.5 68t37.5 56t56 38t68 14t68 -14t56 -38t38 -56t14 -68t-14 -68t-38 -56t-56 -37.5t-68 -13.5t-68 13.5t-56 37.5t-37.5 56t-13.5 68zM76 169q0 -30 11 -55.5t29.5 -45t44 -30.5t54.5 -11t54.5 11t44.5 30.5t30 45t11 55.5t-11 56t-30 45.5t-44.5 30.5
t-54.5 11t-54.5 -11t-44 -30.5t-29.5 -45.5t-11 -56zM215 478q7 0 12 -5l85 -90q-11 -8 -24 -8t-21 8l-52 55l-52 -55q-8 -8 -21 -8t-24 8l85 90q5 5 12 5zM225 544q8 -7 16 -13t18 -6q11 0 18 13t-1 29q16 6 24.5 -4t6.5 -21q-3 -20 -15.5 -32.5t-32.5 -12.5q-18 0 -29 7.5
t-24 17.5q-8 7 -16 13t-18 6q-11 0 -18 -13t1 -29q-16 -6 -24.5 4t-6.5 21q3 20 15.5 32.5t32.5 12.5q18 0 29 -7.5t24 -17.5z" />
    <glyph glyph-name="uni1ED8" unicode="&#xd4;&#x323;" horiz-adv-x="567" 
d="M40 237q0 51 19 95.5t52 77.5t77 52t95 19t95.5 -19t77.5 -52t52 -77.5t19 -95.5t-19 -95t-52 -77t-77.5 -52t-95.5 -19t-95 19t-77 52t-52 77t-19 95zM80 237q0 -43 16 -81t43.5 -66t64.5 -44t79 -16t79.5 16t65 44t43.5 66t16 81t-16 81t-43.5 66t-65 44.5t-79.5 16.5
t-79 -16.5t-64.5 -44.5t-43.5 -66t-16 -81zM249 -82q0 14 10 24t24 10t24 -10t10 -24t-10 -24t-24 -10t-24 10t-10 24zM283 618q7 0 12 -5l85 -90q-11 -8 -24 -8t-21 8l-52 55l-52 -55q-8 -8 -21 -8t-24 8l85 90q5 5 12 5z" />
    <glyph glyph-name="uni1ED9" unicode="&#xf4;&#x323;" horiz-adv-x="431" 
d="M40 169q0 36 13.5 68t37.5 56t56 38t68 14t68 -14t56 -38t38 -56t14 -68t-14 -68t-38 -56t-56 -37.5t-68 -13.5t-68 13.5t-56 37.5t-37.5 56t-13.5 68zM76 169q0 -30 11 -55.5t29.5 -45t44 -30.5t54.5 -11t54.5 11t44.5 30.5t30 45t11 55.5t-11 56t-30 45.5t-44.5 30.5
t-54.5 11t-54.5 -11t-44 -30.5t-29.5 -45.5t-11 -56zM181 -82q0 14 10 24t24 10t24 -10t10 -24t-10 -24t-24 -10t-24 10t-10 24zM215 478q7 0 12 -5l85 -90q-11 -8 -24 -8t-21 8l-52 55l-52 -55q-8 -8 -21 -8t-24 8l85 90q5 5 12 5z" />
    <glyph glyph-name="uni1EDA" unicode="&#x1a0;&#x301;" horiz-adv-x="567" 
d="M316 599q12 18 47 18h23l-84 -93q-7 -6 -16 -8.5t-26 -2.5zM40 237q0 51 19 95.5t52 77.5t77 52t95 19q65 0 119 -31t86 -82q23 13 31.5 41.5t8.5 71.5q38 0 38 -39q0 -26 -14.5 -54.5t-49.5 -42.5q25 -52 25 -108q0 -51 -19 -95t-52 -77t-77.5 -52t-95.5 -19t-95 19
t-77 52t-52 77t-19 95zM80 237q0 -43 16 -81t43.5 -66t64.5 -44t79 -16t79.5 16t65 44t43.5 66t16 81t-16 81t-43.5 66t-65 44.5t-79.5 16.5t-79 -16.5t-64.5 -44.5t-43.5 -66t-16 -81z" />
    <glyph glyph-name="uni1EDB" unicode="&#x1a1;&#x301;" horiz-adv-x="431" 
d="M248 459q12 18 47 18h23l-84 -93q-7 -6 -16 -8.5t-26 -2.5zM442 310q0 -24 -13.5 -49.5t-46.5 -37.5q9 -26 9 -54q0 -36 -14 -68t-38 -56t-56 -37.5t-68 -13.5t-68 13.5t-56 37.5t-37.5 56t-13.5 68t13.5 68t37.5 56t56 38t68 14q52 0 94.5 -27.5t63.5 -72.5
q20 11 27.5 36.5t7.5 63.5q34 0 34 -35zM76 169q0 -30 11 -55.5t29.5 -45t44 -30.5t54.5 -11t54.5 11t44.5 30.5t30 45t11 55.5t-11 56t-30 45.5t-44.5 30.5t-54.5 11t-54.5 -11t-44 -30.5t-29.5 -45.5t-11 -56z" />
    <glyph glyph-name="uni1EDC" unicode="&#x1a0;&#x300;" horiz-adv-x="567" 
d="M306 513q-17 0 -26 2.5t-16 8.5l-84 93h23q35 0 47 -18zM40 237q0 51 19 95.5t52 77.5t77 52t95 19q65 0 119 -31t86 -82q23 13 31.5 41.5t8.5 71.5q38 0 38 -39q0 -26 -14.5 -54.5t-49.5 -42.5q25 -52 25 -108q0 -51 -19 -95t-52 -77t-77.5 -52t-95.5 -19t-95 19t-77 52
t-52 77t-19 95zM80 237q0 -43 16 -81t43.5 -66t64.5 -44t79 -16t79.5 16t65 44t43.5 66t16 81t-16 81t-43.5 66t-65 44.5t-79.5 16.5t-79 -16.5t-64.5 -44.5t-43.5 -66t-16 -81z" />
    <glyph glyph-name="uni1EDD" unicode="&#x1a1;&#x300;" horiz-adv-x="431" 
d="M238 373q-17 0 -26 2.5t-16 8.5l-84 93h23q35 0 47 -18zM442 310q0 -24 -13.5 -49.5t-46.5 -37.5q9 -26 9 -54q0 -36 -14 -68t-38 -56t-56 -37.5t-68 -13.5t-68 13.5t-56 37.5t-37.5 56t-13.5 68t13.5 68t37.5 56t56 38t68 14q52 0 94.5 -27.5t63.5 -72.5
q20 11 27.5 36.5t7.5 63.5q34 0 34 -35zM76 169q0 -30 11 -55.5t29.5 -45t44 -30.5t54.5 -11t54.5 11t44.5 30.5t30 45t11 55.5t-11 56t-30 45.5t-44.5 30.5t-54.5 11t-54.5 -11t-44 -30.5t-29.5 -45.5t-11 -56z" />
    <glyph glyph-name="uni1EDE" unicode="&#x1a0;&#x309;" horiz-adv-x="567" 
d="M300 525q0 -11 -9 -13t-23 -2v14q0 15 7 22.5t16 14.5q6 5 11 10t5 13t-7.5 15.5t-17.5 7.5t-17.5 -7t-7.5 -16q0 -8 1 -13q-16 0 -25 7.5t-4 22.5q6 16 21 25t32 9q22 0 39.5 -14t17.5 -37q0 -18 -9.5 -28.5t-17.5 -15.5q-12 -7 -12 -15zM40 237q0 51 19 95.5t52 77.5
t77 52t95 19q65 0 119 -31t86 -82q23 13 31.5 41.5t8.5 71.5q38 0 38 -39q0 -26 -14.5 -54.5t-49.5 -42.5q25 -52 25 -108q0 -51 -19 -95t-52 -77t-77.5 -52t-95.5 -19t-95 19t-77 52t-52 77t-19 95zM80 237q0 -43 16 -81t43.5 -66t64.5 -44t79 -16t79.5 16t65 44t43.5 66
t16 81t-16 81t-43.5 66t-65 44.5t-79.5 16.5t-79 -16.5t-64.5 -44.5t-43.5 -66t-16 -81z" />
    <glyph glyph-name="uni1EDF" unicode="&#x1a1;&#x309;" horiz-adv-x="431" 
d="M232 385q0 -11 -9 -13t-23 -2v14q0 15 7 22.5t16 14.5q6 5 11 10t5 13t-7.5 15.5t-17.5 7.5t-17.5 -7t-7.5 -16q0 -8 1 -13q-16 0 -25 7.5t-4 22.5q6 16 21 25t32 9q22 0 39.5 -14t17.5 -37q0 -18 -9.5 -28.5t-17.5 -15.5q-12 -7 -12 -15zM442 310q0 -24 -13.5 -49.5
t-46.5 -37.5q9 -26 9 -54q0 -36 -14 -68t-38 -56t-56 -37.5t-68 -13.5t-68 13.5t-56 37.5t-37.5 56t-13.5 68t13.5 68t37.5 56t56 38t68 14q52 0 94.5 -27.5t63.5 -72.5q20 11 27.5 36.5t7.5 63.5q34 0 34 -35zM76 169q0 -30 11 -55.5t29.5 -45t44 -30.5t54.5 -11t54.5 11
t44.5 30.5t30 45t11 55.5t-11 56t-30 45.5t-44.5 30.5t-54.5 11t-54.5 -11t-44 -30.5t-29.5 -45.5t-11 -56z" />
    <glyph glyph-name="uni1EE0" unicode="&#x1a0;&#x303;" horiz-adv-x="567" 
d="M293 584q8 -7 16 -13t18 -6q11 0 18 13t-1 29q16 6 24.5 -4t6.5 -21q-3 -20 -15.5 -32.5t-32.5 -12.5q-18 0 -29 7.5t-24 17.5q-8 7 -16 13t-18 6q-11 0 -18 -13t1 -29q-16 -6 -24.5 4t-6.5 21q3 20 15.5 32.5t32.5 12.5q18 0 29 -7.5t24 -17.5zM40 237q0 51 19 95.5
t52 77.5t77 52t95 19q65 0 119 -31t86 -82q23 13 31.5 41.5t8.5 71.5q38 0 38 -39q0 -26 -14.5 -54.5t-49.5 -42.5q25 -52 25 -108q0 -51 -19 -95t-52 -77t-77.5 -52t-95.5 -19t-95 19t-77 52t-52 77t-19 95zM80 237q0 -43 16 -81t43.5 -66t64.5 -44t79 -16t79.5 16t65 44
t43.5 66t16 81t-16 81t-43.5 66t-65 44.5t-79.5 16.5t-79 -16.5t-64.5 -44.5t-43.5 -66t-16 -81z" />
    <glyph glyph-name="uni1EE1" unicode="&#x1a1;&#x303;" horiz-adv-x="431" 
d="M225 444q8 -7 16 -13t18 -6q11 0 18 13t-1 29q16 6 24.5 -4t6.5 -21q-3 -20 -15.5 -32.5t-32.5 -12.5q-18 0 -29 7.5t-24 17.5q-8 7 -16 13t-18 6q-11 0 -18 -13t1 -29q-16 -6 -24.5 4t-6.5 21q3 20 15.5 32.5t32.5 12.5q18 0 29 -7.5t24 -17.5zM442 310
q0 -24 -13.5 -49.5t-46.5 -37.5q9 -26 9 -54q0 -36 -14 -68t-38 -56t-56 -37.5t-68 -13.5t-68 13.5t-56 37.5t-37.5 56t-13.5 68t13.5 68t37.5 56t56 38t68 14q52 0 94.5 -27.5t63.5 -72.5q20 11 27.5 36.5t7.5 63.5q34 0 34 -35zM76 169q0 -30 11 -55.5t29.5 -45t44 -30.5
t54.5 -11t54.5 11t44.5 30.5t30 45t11 55.5t-11 56t-30 45.5t-44.5 30.5t-54.5 11t-54.5 -11t-44 -30.5t-29.5 -45.5t-11 -56z" />
    <glyph glyph-name="uni1EE2" unicode="&#x1a0;&#x323;" horiz-adv-x="567" 
d="M249 -82q0 14 10 24t24 10t24 -10t10 -24t-10 -24t-24 -10t-24 10t-10 24zM40 237q0 51 19 95.5t52 77.5t77 52t95 19q65 0 119 -31t86 -82q23 13 31.5 41.5t8.5 71.5q38 0 38 -39q0 -26 -14.5 -54.5t-49.5 -42.5q25 -52 25 -108q0 -51 -19 -95t-52 -77t-77.5 -52
t-95.5 -19t-95 19t-77 52t-52 77t-19 95zM80 237q0 -43 16 -81t43.5 -66t64.5 -44t79 -16t79.5 16t65 44t43.5 66t16 81t-16 81t-43.5 66t-65 44.5t-79.5 16.5t-79 -16.5t-64.5 -44.5t-43.5 -66t-16 -81z" />
    <glyph glyph-name="uni1EE3" unicode="&#x1a1;&#x323;" horiz-adv-x="431" 
d="M181 -82q0 14 10 24t24 10t24 -10t10 -24t-10 -24t-24 -10t-24 10t-10 24zM442 310q0 -24 -13.5 -49.5t-46.5 -37.5q9 -26 9 -54q0 -36 -14 -68t-38 -56t-56 -37.5t-68 -13.5t-68 13.5t-56 37.5t-37.5 56t-13.5 68t13.5 68t37.5 56t56 38t68 14q52 0 94.5 -27.5
t63.5 -72.5q20 11 27.5 36.5t7.5 63.5q34 0 34 -35zM76 169q0 -30 11 -55.5t29.5 -45t44 -30.5t54.5 -11t54.5 11t44.5 30.5t30 45t11 55.5t-11 56t-30 45.5t-44.5 30.5t-54.5 11t-54.5 -11t-44 -30.5t-29.5 -45.5t-11 -56z" />
    <glyph glyph-name="uni1EE4" unicode="U&#x323;" horiz-adv-x="494" 
d="M100 150q0 -24 11.5 -46t31.5 -38.5t46.5 -26t57.5 -9.5t57.5 9.5t46.5 26t31.5 38.5t11.5 46v291q0 40 40 40v-331q0 -37 -17 -66t-44 -49t-60 -30.5t-66 -10.5t-66 10.5t-60 30.5t-44 49t-17 66v291q0 40 40 40v-331zM213 -82q0 14 10 24t24 10t24 -10t10 -24t-10 -24
t-24 -10t-24 10t-10 24z" />
    <glyph glyph-name="uni1EE5" unicode="u&#x323;" horiz-adv-x="390" 
d="M330 30q0 -36 -36 -36v32q3 2 7 6.5t6 7.5l-1 3q-18 -23 -47 -36t-64 -13q-28 0 -52.5 9t-43 24.5t-29 36t-10.5 44.5v201q0 36 36 36v-237q0 -16 7.5 -30.5t20.5 -26t31.5 -18t39.5 -6.5t39.5 6.5t31.5 18t20.5 26t7.5 30.5v201q0 36 36 36v-315zM161 -82q0 14 10 24
t24 10t24 -10t10 -24t-10 -24t-24 -10t-24 10t-10 24z" />
    <glyph glyph-name="uni1EE6" unicode="U&#x309;" horiz-adv-x="494" 
d="M100 150q0 -24 11.5 -46t31.5 -38.5t46.5 -26t57.5 -9.5t57.5 9.5t46.5 26t31.5 38.5t11.5 46v291q0 40 40 40v-331q0 -37 -17 -66t-44 -49t-60 -30.5t-66 -10.5t-66 10.5t-60 30.5t-44 49t-17 66v291q0 40 40 40v-331zM263 525q0 -11 -9 -13t-23 -2v14q0 15 7 22.5
t16 14.5q6 5 11 10t5 13t-7.5 15.5t-17.5 7.5t-17.5 -7t-7.5 -16q0 -8 1 -13q-16 0 -25 7.5t-4 22.5q6 16 21 25t32 9q22 0 39.5 -14t17.5 -37q0 -18 -9.5 -28.5t-17.5 -15.5q-12 -7 -12 -15z" />
    <glyph glyph-name="uni1EE7" unicode="u&#x309;" horiz-adv-x="390" 
d="M211 385q0 -11 -9 -13t-23 -2v14q0 15 7 22.5t16 14.5q6 5 11 10t5 13t-7.5 15.5t-17.5 7.5t-17.5 -7t-7.5 -16q0 -8 1 -13q-16 0 -25 7.5t-4 22.5q6 16 21 25t32 9q22 0 39.5 -14t17.5 -37q0 -18 -9.5 -28.5t-17.5 -15.5q-12 -7 -12 -15zM330 30q0 -36 -36 -36v32
q3 2 7 6.5t6 7.5l-1 3q-18 -23 -47 -36t-64 -13q-28 0 -52.5 9t-43 24.5t-29 36t-10.5 44.5v201q0 36 36 36v-237q0 -16 7.5 -30.5t20.5 -26t31.5 -18t39.5 -6.5t39.5 6.5t31.5 18t20.5 26t7.5 30.5v201q0 36 36 36v-315z" />
    <glyph glyph-name="uni1EE8" unicode="&#x1af;&#x301;" horiz-adv-x="494" 
d="M280 599q12 18 47 18h23l-84 -93q-7 -6 -16 -8.5t-26 -2.5zM100 150q0 -24 11.5 -46t31.5 -38.5t46.5 -26t57.5 -9.5t57.5 9.5t46.5 26t31.5 38.5t11.5 46v291q0 40 40 40v-115q26 12 34.5 41t8.5 74q38 0 38 -39q0 -15 -4.5 -30.5t-14 -30t-25 -25.5t-37.5 -17v-189
q0 -37 -17 -66t-44 -49t-60 -30.5t-66 -10.5t-66 10.5t-60 30.5t-44 49t-17 66v291q0 40 40 40v-331z" />
    <glyph glyph-name="uni1EE9" unicode="&#x1b0;&#x301;" horiz-adv-x="390" 
d="M228 459q12 18 47 18h23l-84 -93q-7 -6 -16 -8.5t-26 -2.5zM404 310q0 -13 -4 -27.5t-13 -27t-23 -22.5t-34 -15v-188q0 -36 -36 -36v32q3 2 7 6.5t6 7.5l-1 3q-18 -23 -47 -36t-64 -13q-28 0 -52.5 9t-43 24.5t-29 36t-10.5 44.5v201q0 36 36 36v-237q0 -16 7.5 -30.5
t20.5 -26t31.5 -18t39.5 -6.5t39.5 6.5t31.5 18t20.5 26t7.5 30.5v201q0 36 36 36v-103q23 11 31.5 37t8.5 66q34 0 34 -35z" />
    <glyph glyph-name="uni1EEA" unicode="&#x1af;&#x300;" horiz-adv-x="494" 
d="M310 513q-17 0 -26 2.5t-16 8.5l-84 93h23q35 0 47 -18zM100 150q0 -24 11.5 -46t31.5 -38.5t46.5 -26t57.5 -9.5t57.5 9.5t46.5 26t31.5 38.5t11.5 46v291q0 40 40 40v-115q26 12 34.5 41t8.5 74q38 0 38 -39q0 -15 -4.5 -30.5t-14 -30t-25 -25.5t-37.5 -17v-189
q0 -37 -17 -66t-44 -49t-60 -30.5t-66 -10.5t-66 10.5t-60 30.5t-44 49t-17 66v291q0 40 40 40v-331z" />
    <glyph glyph-name="uni1EEB" unicode="&#x1b0;&#x300;" horiz-adv-x="390" 
d="M218 373q-17 0 -26 2.5t-16 8.5l-84 93h23q35 0 47 -18zM404 310q0 -13 -4 -27.5t-13 -27t-23 -22.5t-34 -15v-188q0 -36 -36 -36v32q3 2 7 6.5t6 7.5l-1 3q-18 -23 -47 -36t-64 -13q-28 0 -52.5 9t-43 24.5t-29 36t-10.5 44.5v201q0 36 36 36v-237q0 -16 7.5 -30.5
t20.5 -26t31.5 -18t39.5 -6.5t39.5 6.5t31.5 18t20.5 26t7.5 30.5v201q0 36 36 36v-103q23 11 31.5 37t8.5 66q34 0 34 -35z" />
    <glyph glyph-name="uni1EEC" unicode="&#x1af;&#x309;" horiz-adv-x="494" 
d="M263 525q0 -11 -9 -13t-23 -2v14q0 15 7 22.5t16 14.5q6 5 11 10t5 13t-7.5 15.5t-17.5 7.5t-17.5 -7t-7.5 -16q0 -8 1 -13q-16 0 -25 7.5t-4 22.5q6 16 21 25t32 9q22 0 39.5 -14t17.5 -37q0 -18 -9.5 -28.5t-17.5 -15.5q-12 -7 -12 -15zM100 150q0 -24 11.5 -46
t31.5 -38.5t46.5 -26t57.5 -9.5t57.5 9.5t46.5 26t31.5 38.5t11.5 46v291q0 40 40 40v-115q26 12 34.5 41t8.5 74q38 0 38 -39q0 -15 -4.5 -30.5t-14 -30t-25 -25.5t-37.5 -17v-189q0 -37 -17 -66t-44 -49t-60 -30.5t-66 -10.5t-66 10.5t-60 30.5t-44 49t-17 66v291
q0 40 40 40v-331z" />
    <glyph glyph-name="uni1EED" unicode="&#x1b0;&#x309;" horiz-adv-x="390" 
d="M211 385q0 -11 -9 -13t-23 -2v14q0 15 7 22.5t16 14.5q6 5 11 10t5 13t-7.5 15.5t-17.5 7.5t-17.5 -7t-7.5 -16q0 -8 1 -13q-16 0 -25 7.5t-4 22.5q6 16 21 25t32 9q22 0 39.5 -14t17.5 -37q0 -18 -9.5 -28.5t-17.5 -15.5q-12 -7 -12 -15zM404 310q0 -13 -4 -27.5
t-13 -27t-23 -22.5t-34 -15v-188q0 -36 -36 -36v32q3 2 7 6.5t6 7.5l-1 3q-18 -23 -47 -36t-64 -13q-28 0 -52.5 9t-43 24.5t-29 36t-10.5 44.5v201q0 36 36 36v-237q0 -16 7.5 -30.5t20.5 -26t31.5 -18t39.5 -6.5t39.5 6.5t31.5 18t20.5 26t7.5 30.5v201q0 36 36 36v-103
q23 11 31.5 37t8.5 66q34 0 34 -35z" />
    <glyph glyph-name="uni1EEE" unicode="&#x1af;&#x303;" horiz-adv-x="494" 
d="M257 584q8 -7 16 -13t18 -6q11 0 18 13t-1 29q16 6 24.5 -4t6.5 -21q-3 -20 -15.5 -32.5t-32.5 -12.5q-18 0 -29 7.5t-24 17.5q-8 7 -16 13t-18 6q-11 0 -18 -13t1 -29q-16 -6 -24.5 4t-6.5 21q3 20 15.5 32.5t32.5 12.5q18 0 29 -7.5t24 -17.5zM100 150q0 -24 11.5 -46
t31.5 -38.5t46.5 -26t57.5 -9.5t57.5 9.5t46.5 26t31.5 38.5t11.5 46v291q0 40 40 40v-115q26 12 34.5 41t8.5 74q38 0 38 -39q0 -15 -4.5 -30.5t-14 -30t-25 -25.5t-37.5 -17v-189q0 -37 -17 -66t-44 -49t-60 -30.5t-66 -10.5t-66 10.5t-60 30.5t-44 49t-17 66v291
q0 40 40 40v-331z" />
    <glyph glyph-name="uni1EEF" unicode="&#x1b0;&#x303;" horiz-adv-x="390" 
d="M205 444q8 -7 16 -13t18 -6q11 0 18 13t-1 29q16 6 24.5 -4t6.5 -21q-3 -20 -15.5 -32.5t-32.5 -12.5q-18 0 -29 7.5t-24 17.5q-8 7 -16 13t-18 6q-11 0 -18 -13t1 -29q-16 -6 -24.5 4t-6.5 21q3 20 15.5 32.5t32.5 12.5q18 0 29 -7.5t24 -17.5zM404 310q0 -13 -4 -27.5
t-13 -27t-23 -22.5t-34 -15v-188q0 -36 -36 -36v32q3 2 7 6.5t6 7.5l-1 3q-18 -23 -47 -36t-64 -13q-28 0 -52.5 9t-43 24.5t-29 36t-10.5 44.5v201q0 36 36 36v-237q0 -16 7.5 -30.5t20.5 -26t31.5 -18t39.5 -6.5t39.5 6.5t31.5 18t20.5 26t7.5 30.5v201q0 36 36 36v-103
q23 11 31.5 37t8.5 66q34 0 34 -35z" />
    <glyph glyph-name="uni1EF0" unicode="&#x1af;&#x323;" horiz-adv-x="494" 
d="M213 -82q0 14 10 24t24 10t24 -10t10 -24t-10 -24t-24 -10t-24 10t-10 24zM100 150q0 -24 11.5 -46t31.5 -38.5t46.5 -26t57.5 -9.5t57.5 9.5t46.5 26t31.5 38.5t11.5 46v291q0 40 40 40v-115q26 12 34.5 41t8.5 74q38 0 38 -39q0 -15 -4.5 -30.5t-14 -30t-25 -25.5
t-37.5 -17v-189q0 -37 -17 -66t-44 -49t-60 -30.5t-66 -10.5t-66 10.5t-60 30.5t-44 49t-17 66v291q0 40 40 40v-331z" />
    <glyph glyph-name="uni1EF1" unicode="&#x1b0;&#x323;" horiz-adv-x="390" 
d="M161 -82q0 14 10 24t24 10t24 -10t10 -24t-10 -24t-24 -10t-24 10t-10 24zM404 310q0 -13 -4 -27.5t-13 -27t-23 -22.5t-34 -15v-188q0 -36 -36 -36v32q3 2 7 6.5t6 7.5l-1 3q-18 -23 -47 -36t-64 -13q-28 0 -52.5 9t-43 24.5t-29 36t-10.5 44.5v201q0 36 36 36v-237
q0 -16 7.5 -30.5t20.5 -26t31.5 -18t39.5 -6.5t39.5 6.5t31.5 18t20.5 26t7.5 30.5v201q0 36 36 36v-103q23 11 31.5 37t8.5 66q34 0 34 -35z" />
    <glyph glyph-name="Ygrave" unicode="Y&#x300;" horiz-adv-x="400" 
d="M220 34q0 -40 -40 -40v248l-170 233q14 10 28.5 6.5t23.5 -16.5l138 -190l138 190q9 13 23.5 16.5t28.5 -6.5l-170 -233v-208zM223 513q-17 0 -26 2.5t-16 8.5l-84 93h23q35 0 47 -18z" />
    <glyph glyph-name="ygrave" unicode="y&#x300;" horiz-adv-x="336" 
d="M57 -140q-39 -9 -42 27q7 0 12 0.5t13 2.5q36 8 57.5 27t37.5 57l15 36l-135 332q14 6 26 0.5t17 -18.5l108 -269l-6 -20l1 -3l117 292q5 13 17 18.5t26 -0.5l-154 -378q-18 -45 -43.5 -69.5t-66.5 -34.5zM191 373q-17 0 -26 2.5t-16 8.5l-84 93h23q35 0 47 -18z" />
    <glyph glyph-name="uni1EF4" unicode="Y&#x323;" horiz-adv-x="400" 
d="M220 34q0 -40 -40 -40v248l-170 233q14 10 28.5 6.5t23.5 -16.5l138 -190l138 190q9 13 23.5 16.5t28.5 -6.5l-170 -233v-208zM166 -82q0 14 10 24t24 10t24 -10t10 -24t-10 -24t-24 -10t-24 10t-10 24z" />
    <glyph glyph-name="uni1EF5" unicode="y&#x323;" horiz-adv-x="336" 
d="M57 -140q-39 -9 -42 27q7 0 12 0.5t13 2.5q36 8 57.5 27t37.5 57l15 36l-135 332q14 6 26 0.5t17 -18.5l108 -269l-6 -20l1 -3l117 292q5 13 17 18.5t26 -0.5l-154 -378q-18 -45 -43.5 -69.5t-66.5 -34.5zM134 -151q0 14 10 24t24 10t24 -10t10 -24t-10 -24t-24 -10
t-24 10t-10 24z" />
    <glyph glyph-name="uni1EF6" unicode="Y&#x309;" horiz-adv-x="400" 
d="M220 34q0 -40 -40 -40v248l-170 233q14 10 28.5 6.5t23.5 -16.5l138 -190l138 190q9 13 23.5 16.5t28.5 -6.5l-170 -233v-208zM216 525q0 -11 -9 -13t-23 -2v14q0 15 7 22.5t16 14.5q6 5 11 10t5 13t-7.5 15.5t-17.5 7.5t-17.5 -7t-7.5 -16q0 -8 1 -13q-16 0 -25 7.5
t-4 22.5q6 16 21 25t32 9q22 0 39.5 -14t17.5 -37q0 -18 -9.5 -28.5t-17.5 -15.5q-12 -7 -12 -15z" />
    <glyph glyph-name="uni1EF7" unicode="y&#x309;" horiz-adv-x="336" 
d="M57 -140q-39 -9 -42 27q7 0 12 0.5t13 2.5q36 8 57.5 27t37.5 57l15 36l-135 332q14 6 26 0.5t17 -18.5l108 -269l-6 -20l1 -3l117 292q5 13 17 18.5t26 -0.5l-154 -378q-18 -45 -43.5 -69.5t-66.5 -34.5zM185 385q0 -11 -9 -13t-23 -2v14q0 15 7 22.5t16 14.5q6 5 11 10
t5 13t-7.5 15.5t-17.5 7.5t-17.5 -7t-7.5 -16q0 -8 1 -13q-16 0 -25 7.5t-4 22.5q6 16 21 25t32 9q22 0 39.5 -14t17.5 -37q0 -18 -9.5 -28.5t-17.5 -15.5q-12 -7 -12 -15z" />
    <glyph glyph-name="uni1EF8" unicode="Y&#x303;" horiz-adv-x="400" 
d="M220 34q0 -40 -40 -40v248l-170 233q14 10 28.5 6.5t23.5 -16.5l138 -190l138 190q9 13 23.5 16.5t28.5 -6.5l-170 -233v-208zM210 584q8 -7 16 -13t18 -6q11 0 18 13t-1 29q16 6 24.5 -4t6.5 -21q-3 -20 -15.5 -32.5t-32.5 -12.5q-18 0 -29 7.5t-24 17.5q-8 7 -16 13
t-18 6q-11 0 -18 -13t1 -29q-16 -6 -24.5 4t-6.5 21q3 20 15.5 32.5t32.5 12.5q18 0 29 -7.5t24 -17.5z" />
    <glyph glyph-name="uni1EF9" unicode="y&#x303;" horiz-adv-x="336" 
d="M57 -140q-39 -9 -42 27q7 0 12 0.5t13 2.5q36 8 57.5 27t37.5 57l15 36l-135 332q14 6 26 0.5t17 -18.5l108 -269l-6 -20l1 -3l117 292q5 13 17 18.5t26 -0.5l-154 -378q-18 -45 -43.5 -69.5t-66.5 -34.5zM178 444q8 -7 16 -13t18 -6q11 0 18 13t-1 29q16 6 24.5 -4
t6.5 -21q-3 -20 -15.5 -32.5t-32.5 -12.5q-18 0 -29 7.5t-24 17.5q-8 7 -16 13t-18 6q-11 0 -18 -13t1 -29q-16 -6 -24.5 4t-6.5 21q3 20 15.5 32.5t32.5 12.5q18 0 29 -7.5t24 -17.5z" />
    <glyph glyph-name="uni0E4F.liga" unicode="&#xe4f;&#x22;" horiz-adv-x="458" 
d="M293 163q0 26 -18.5 45t-45.5 19t-45.5 -19t-18.5 -45q0 -27 18.5 -45.5t45.5 -18.5t45.5 18.5t18.5 45.5zM328 163q0 -41 -29 -70.5t-70 -29.5t-70 29.5t-29 70.5t29 70t70 29t70 -29t29 -70zM363 163q0 56 -39 95t-95 39q-55 0 -94.5 -39t-39.5 -95t39.5 -95.5
t94.5 -39.5q56 0 95 40t39 95zM398 163q0 -70 -49.5 -119.5t-119.5 -49.5t-119.5 49.5t-49.5 119.5t49.5 119.5t119.5 49.5q69 0 119 -50t50 -119zM162 481q-2 25 11.5 36.5t36.5 11.5l-6 -106q0 -14 -10 -26t-26 -12zM249 481q-2 25 11.5 36.5t36.5 11.5l-6 -106
q0 -14 -10 -26t-26 -12z" />
    <glyph glyph-name="uni0E24.liga" unicode="&#xe24;&#xe32;" horiz-adv-x="620" 
d="M328 317q13 39 43.5 62t68.5 23q25 0 47 -9.5t38 -26.5t25.5 -42t9.5 -55v-427q0 -18 -11 -30t-27 -12v469q0 42 -23 70.5t-59 28.5q-17 0 -31.5 -7.5t-26 -21t-18 -32.5t-6.5 -41v-424q0 -18 -11 -30t-27 -12v469q0 19 -9.5 37t-26 32t-38.5 22t-47 8q-24 0 -45.5 -7.5
t-38 -20.5t-26.5 -30t-11 -36q2 -3 7 -14t12 -23q7 -14 17 -30q2 -6 2 -9v-80q-10 -6 -16 -16l1 -3q12 19 39 19q26 0 44 -18t18 -44t-18 -44t-44 -18t-44 18t-18 44v137q-2 2 -8 13t-12 23q-8 14 -16 31q-2 6 -2 9q0 30 14 54.5t36.5 42t51 27t57.5 9.5q38 0 75 -16t60 -46
q-4 -9 -7 -20zM108 56q0 -14 9 -23t23 -9t23 9t9 23t-9 23t-23 9t-23 -9t-9 -23z" />
    <glyph glyph-name="uni0E26.liga" unicode="&#xe26;&#xe32;" horiz-adv-x="638" 
d="M217 402q38 0 75 -16t60 -46q-4 -9 -7 -20l1 -3q13 39 43.5 62t68.5 23q25 0 47 -9.5t38 -26.5t25.5 -42t9.5 -55v-427q0 -18 -11 -30t-27 -12v469q0 42 -23 70.5t-59 28.5q-16 0 -31 -7.5t-26 -21t-18 -31.5t-7 -39v-427q0 -18 -11 -30t-27 -12v469q0 19 -9.5 37t-26 32
t-38.5 22t-47 8q-24 0 -45.5 -7.5t-38 -20.5t-26.5 -30t-11 -36q2 -4 11 -14.5t18 -21.5q11 -13 24 -29q5 -5 5 -12v-141q0 -26 -18 -44t-44 -18t-44 18t-18 44t18 44t44 18q27 0 39 -19l1 3q-6 10 -16 16v73q-3 3 -12 14l-18 22q-11 13 -24 30q-4 6 -4 12q0 30 14 55
t36.5 42t51 26.5t57.5 9.5zM60 56q0 -14 9 -23t23 -9t23 9t9 23t-9 23t-23 9t-23 -9t-9 -23z" />
    <glyph glyph-name="fi" unicode="fi" horiz-adv-x="356" 
d="M260 431q-22 9 -46 13t-47 4q-31 0 -47 -17t-16 -41v-51h192v-309q0 -36 -36 -36v312h-156v-276q0 -36 -36 -36v312h-58q0 33 33 33h25v51q0 38 26.5 64.5t72.5 26.5q31 0 67 -7.5t62 -28.5q-2 -11 -12.5 -15t-23.5 1z" />
    <glyph glyph-name="fl" unicode="fl" horiz-adv-x="392" 
d="M68 390q0 38 26.5 64.5t72.5 26.5q31 0 67 -8t62 -28v-360q0 -24 16 -41t47 -17q17 0 29 6q8 -14 -0.5 -26.5t-28.5 -12.5q-46 0 -72.5 26.5t-26.5 64.5v346q-22 9 -46 13t-47 4q-31 0 -47 -17t-16 -41v-51h63q0 -33 -33 -33h-30v-276q0 -36 -36 -36v312h-58q0 33 33 33
h25v51z" />
    <glyph glyph-name="K2D" unicode="KtwoDesign&#x28;c&#x29;" horiz-adv-x="695" 
d="M76 43l29 30h20l-29 -29l32 -45h-20l-23 34l-9 -10v-24h-16v74h16v-30zM162 43h-10v-27q0 -4 2 -5t4 -1q3 0 4 1v-12h-15q-10 0 -10 12v32h-9v10h9v16h15v-16h10v-10zM206 35l-9 -36h-16l-17 54h16l9 -36h1l9 36h14l9 -36h1l9 36h15l-16 -54h-16zM280 54q14 0 20.5 -8.5
t6.5 -19.5q0 -13 -8 -20.5t-19 -7.5q-13 0 -20.5 8.5t-7.5 19.5q0 14 8.5 21t19.5 7zM280 9q8 0 10.5 6t2.5 11q0 17 -13 17q-8 0 -10.5 -6t-2.5 -11q0 -17 13 -17zM355 6q-5 -8 -16 -8q-13 0 -18.5 9t-5.5 20t6.5 19t16.5 8q12 0 16 -8v27h15v-74h-14v7zM342 43
q-8 0 -10.5 -5.5t-2.5 -11.5q0 -7 3.5 -12t9.5 -5q8 0 10.5 6t2.5 11q0 17 -13 17zM405 9q4 0 8 2t4 5h13q-6 -18 -25 -18q-13 0 -20 8.5t-7 19.5q0 14 8 21t19 7q14 0 20 -10t6 -21h-39q0 -14 13 -14zM405 43q-6 0 -9.5 -3.5t-3.5 -7.5h24q0 5 -3.5 8t-7.5 3zM462 8
q10 0 10 7q0 4 -5.5 5t-11.5 2.5t-11.5 4.5t-5.5 10q0 11 8 14t16 3q10 0 16.5 -4.5t6.5 -12.5h-14q0 5 -3.5 6t-6.5 1q-8 0 -8 -5q0 -4 5.5 -5.5t11.5 -3t11.5 -4t5.5 -9.5q0 -11 -8.5 -15t-16.5 -4q-11 0 -18 5.5t-7 13.5h14q0 -5 4 -7t7 -2zM496 73h14v-12h-14v12z
M510 -1h-14v54h14v-54zM546 -21q-9 0 -16.5 5t-7.5 12h15q0 -4 4 -5.5t7 -1.5q11 0 11 13v7q-2 -5 -7 -6.5t-9 -1.5q-12 0 -17.5 8.5t-5.5 18.5q0 11 6.5 18.5t16.5 7.5q11 0 16 -8v7h14v-50q0 -13 -8 -18.5t-19 -5.5zM559 27q0 9 -4 12.5t-8 3.5q-7 0 -9.5 -5t-2.5 -10
q0 -16 12 -16q7 0 9.5 5t2.5 10zM599 45q6 9 17 9t15 -7t4 -15v-33h-14v31q0 13 -10 13q-7 0 -9 -5.5t-2 -10.5v-28h-15v54h14v-8zM455 85l-114 146q14 16 24 34.5t10 41.5q0 38 -26.5 61.5t-67.5 23.5q-19 0 -35 -6l-50 64l128 118h-37l-166 -153v153h-27v-483h-34v715h575
v-715h-180zM601 164v404h-28v-224q-6 23 -29 35.5t-47 12.5t-42.5 -9.5t-31 -25.5t-19.5 -37.5t-7 -44.5q0 -20 6 -41t18 -38t31 -27.5t45 -10.5q24 0 46.5 12.5t32.5 35.5v-42h25zM121 85v296l55 51l46 -59q-38 -30 -38 -89h27q0 15 4 30.5t12 27.5t21.5 19.5t31.5 7.5
q26 0 47 -16.5t21 -45.5q0 -26 -16 -46.5t-37 -34.5q-19 -13 -39.5 -26.5t-38 -30t-28.5 -37t-12 -47.5h-56zM496 180q-18 0 -31.5 8.5t-22.5 22t-13.5 30.5t-4.5 34q0 15 4 32t13 30.5t22.5 22.5t32.5 9q37 0 57.5 -28t20.5 -66q0 -17 -4.5 -34t-14 -30.5t-24.5 -22
t-35 -8.5zM422 85h-45v26h-169q3 17 13 29.5t23 22.5t27.5 18.5t27.5 17.5q13 7 23 15z" />
    <glyph glyph-name=".notdef" horiz-adv-x="500" 
d="M402 35v625h-305v-625h305zM436 0h-373v695h373v-695z" />
    <glyph glyph-name=".null" 
 />
    <glyph glyph-name="nonmarkingreturn" horiz-adv-x="221" 
 />
    <glyph glyph-name="space" unicode=" " horiz-adv-x="360" 
 />
    <glyph glyph-name="exclam" unicode="!" horiz-adv-x="147" 
d="M46 426q-1 26 14 40.5t44 14.5l-12 -347q-2 -38 -36 -38zM36 31q0 16 10.5 27t26.5 11t27 -11t11 -27t-11 -26.5t-27 -10.5t-26.5 10.5t-10.5 26.5z" />
    <glyph glyph-name="quotedbl" unicode="&#x22;" horiz-adv-x="232" 
d="M50 433q-2 25 11.5 36.5t36.5 11.5l-6 -106q0 -14 -10 -26t-26 -12zM137 433q-2 25 11.5 36.5t36.5 11.5l-6 -106q0 -14 -10 -26t-26 -12z" />
    <glyph glyph-name="numbersign" unicode="#" horiz-adv-x="413" 
d="M272 451q4 34 38 30l-19 -159h91q0 -32 -32 -32h-63l-13 -111h92q0 -32 -32 -32h-64l-14 -124q-5 -34 -38 -29l18 153h-82l-14 -124q-5 -34 -38 -29l18 153h-89q0 32 32 32h61l13 111h-90q0 32 32 32h62l15 129q4 34 38 30l-19 -159h82zM158 179h82l13 111h-82z" />
    <glyph glyph-name="dollar" unicode="$" horiz-adv-x="453" 
d="M78 150q0 -23 10 -43t27.5 -36t41.5 -26.5t52 -13.5v198q-35 7 -62 15.5t-45.5 21t-29 30t-12.5 43.5q-3 26 6.5 50t29 43.5t48.5 32t65 15.5v17q0 34 34 34v-51q63 -5 100.5 -40.5t45.5 -86.5q4 -25 -10 -36t-29 -11q1 5 1 10v10q0 45 -28.5 78.5t-79.5 39.5v-184
q36 -7 66 -14t52.5 -19t36 -30t15.5 -46q2 -30 -11 -57t-36.5 -48t-55 -34.5t-67.5 -16.5v-17q0 -34 -34 -34v51q-32 2 -60 12.5t-50 27.5t-37 39t-21 48q-5 26 8.5 37t29.5 11q-1 -5 -1 -10v-10zM373 148q-3 32 -39.5 48t-90.5 27v-192q27 3 51.5 13.5t42 26.5t27.5 36
t9 41zM100 343q2 -33 28.5 -48.5t80.5 -27.5v177q-26 -3 -47 -12.5t-35.5 -23t-21.5 -30.5t-5 -35z" />
    <glyph glyph-name="percent" unicode="%" horiz-adv-x="567" 
d="M242 283q0 -16 -7.5 -30.5t-21 -25t-31.5 -16.5t-39 -6t-39 6t-31.5 16.5t-21.5 25t-8 30.5v117q0 16 8 30.5t21.5 25t31.5 16.5t39 6t39 -6t31.5 -16.5t21 -25t7.5 -30.5v-117zM76 283q0 -20 19.5 -34.5t47.5 -14.5q27 0 46.5 14.5t19.5 34.5v117q0 20 -19.5 34.5
t-46.5 14.5q-28 0 -47.5 -14.5t-19.5 -34.5v-117zM524 75q0 -16 -7.5 -30.5t-21 -25t-31.5 -16.5t-39 -6t-39 6t-31.5 16.5t-21.5 25t-8 30.5v117q0 16 8 30.5t21.5 25t31.5 16.5t39 6t39 -6t31.5 -16.5t21 -25t7.5 -30.5v-117zM358 75q0 -20 19.5 -34.5t47.5 -14.5
q27 0 46.5 14.5t19.5 34.5v117q0 20 -19.5 34.5t-46.5 14.5q-28 0 -47.5 -14.5t-19.5 -34.5v-117zM385 479q15 32 48 16l-251 -499q-16 -33 -48 -16z" />
    <glyph glyph-name="ampersand" unicode="&#x26;" horiz-adv-x="430" 
d="M326 51q-37 -29 -78 -43t-81 -14q-30 0 -56 10t-45.5 27.5t-31 41.5t-11.5 53q0 53 28.5 88t69.5 55q-41 53 -41 99q0 22 8 42.5t23 36t37 25t51 9.5q44 0 72 -25t28 -69q0 -40 -32 -73.5t-87 -58.5q42 -48 79.5 -88.5t63.5 -63.5q20 22 32.5 46.5t12.5 67.5q34 0 34 -37
q0 -26 -15.5 -51.5t-36.5 -48.5q17 -18 37 -38.5t37 -34.5q-11 -11 -25 -12t-27 10zM260 383q0 24 -15 43.5t-50 19.5q-36 0 -55.5 -22.5t-19.5 -51.5q0 -28 12 -48t25 -37l3 -5q43 21 71.5 43.5t28.5 57.5zM175 30q38 0 69.5 13t54.5 34q-9 9 -25.5 26t-37 38.5t-44.5 47.5
t-48 53q-12 -6 -26 -16t-26.5 -23.5t-20.5 -31t-8 -40.5q0 -48 32 -74.5t80 -26.5z" />
    <glyph glyph-name="quotesingle" unicode="'" horiz-adv-x="146" 
d="M50 433q-2 25 11.5 36.5t36.5 11.5l-6 -106q0 -14 -10 -26t-26 -12z" />
    <glyph glyph-name="parenleft" unicode="(" horiz-adv-x="191" 
d="M47 204q0 49 8 89.5t21.5 74.5t31 62.5t36.5 52.5q8 11 19.5 10.5t19.5 -11.5q-45 -55 -70.5 -122t-25.5 -156t25.5 -156t70.5 -122q-8 -11 -19.5 -11.5t-19.5 10.5q-19 24 -36.5 52.5t-31 62.5t-21.5 74.5t-8 89.5z" />
    <glyph glyph-name="parenright" unicode=")" horiz-adv-x="194" 
d="M156.003 204.013q0 -48.9971 -8 -89.4951q-7.99902 -40.4971 -21.498 -74.4951t-30.998 -62.4961t-36.498 -52.4971q-7.99902 -10.999 -19.499 -10.499q-11.499 0.5 -19.499 11.499q44.998 54.9971 70.4961 121.992q25.498 66.9961 25.498 155.991
q0 88.9941 -25.498 155.99t-70.4961 121.992q8 11 19.499 11.5q11.5 0.5 19.499 -10.5q18.999 -23.998 36.498 -52.4961q17.499 -28.499 30.998 -62.4971q13.499 -33.9971 21.498 -74.4951q8 -40.4971 8 -89.4941z" />
    <glyph glyph-name="asterisk" unicode="*" horiz-adv-x="288" 
d="M162 362q16 -20 32 -41.5t32 -41.5l-39 -21l-46 94q-13 -23 -24.5 -47t-24.5 -47l-33 21l64 86q-26 -2 -51.5 -4.5t-51.5 -4.5v38l103 -7q-16 21 -32.5 43l-31.5 42l38 22l47 -92q11 22 22.5 46t22.5 46l37 -21l-64 -87l52 4l52 4v-38z" />
    <glyph glyph-name="plus" unicode="+" horiz-adv-x="400" 
d="M181 181h-151q0 34 34 34h117v115q0 38 38 38v-153h151q0 -34 -34 -34h-117v-115q0 -38 -38 -38v153z" />
    <glyph glyph-name="comma" unicode="," horiz-adv-x="128" 
d="M28 31q0 16 10.5 27t26.5 11t27 -11t11 -27q0 -30 -4.5 -51t-12 -35.5t-16.5 -24t-18 -16.5q-4 -3 -9.5 -3t-8.5 3q20 18 31.5 40.5t11.5 51.5q-4 -2 -12 -2q-16 0 -26.5 10.5t-10.5 26.5z" />
    <glyph glyph-name="hyphen" unicode="-" horiz-adv-x="235" 
d="M30 180q0 36 34 36h141q0 -36 -34 -36h-141z" />
    <glyph glyph-name="period" unicode="." horiz-adv-x="131" 
d="M28 31q0 16 10.5 27t26.5 11t27 -11t11 -27t-11 -26.5t-27 -10.5t-26.5 10.5t-10.5 26.5z" />
    <glyph glyph-name="slash" unicode="/" horiz-adv-x="279" 
d="M241 479q15 32 48 16l-251 -499q-16 -33 -48 -16z" />
    <glyph glyph-name="zero" unicode="0" horiz-adv-x="460" 
d="M404 129q0 -28 -13.5 -52.5t-37.5 -43t-55.5 -29t-67.5 -10.5t-67.5 10.5t-55.5 29t-37.5 43t-13.5 52.5v217q0 28 13.5 52.5t37.5 43t55.5 29t67.5 10.5t67.5 -10.5t55.5 -29t37.5 -43t13.5 -52.5v-217zM96 129q0 -21 10.5 -39t28.5 -31.5t42.5 -21t52.5 -7.5t52.5 7.5
t42.5 21t28.5 31.5t10.5 39v217q0 21 -10.5 39t-28.5 31.5t-42.5 21t-52.5 7.5t-52.5 -7.5t-42.5 -21t-28.5 -31.5t-10.5 -39v-217z" />
    <glyph glyph-name="one" unicode="1" horiz-adv-x="460" 
d="M251 475q8 0 13.5 -5.5t5.5 -13.5v-422q0 -40 -40 -40v445h-44q-36 0 -36 36h101v0z" />
    <glyph glyph-name="two" unicode="2" horiz-adv-x="460" 
d="M365 36q18 0 28.5 -9t10.5 -27h-328q-7 0 -12.5 4t-5.5 12q0 59 40.5 109.5t117.5 86.5q18 9 44 19.5t49 25.5t39.5 34.5t16.5 45.5q0 22 -10.5 41.5t-28.5 34.5t-42.5 23.5t-52.5 8.5t-52.5 -8.5t-43 -23.5t-29 -34.5t-10.5 -41.5v-9t2 -11q-17 0 -29.5 12t-9.5 28
q5 29 21.5 52t40.5 39t52.5 24.5t57.5 8.5q30 0 60.5 -9.5t55.5 -28t41 -45.5t16 -61q0 -30 -15.5 -53.5t-40 -42t-55 -33.5t-61.5 -29q-60 -28 -93 -64.5t-40 -78.5h266z" />
    <glyph glyph-name="three" unicode="3" horiz-adv-x="460" 
d="M85 381q3 18 14.5 36t30.5 32t44.5 23t55.5 9t57 -9.5t47 -26t31.5 -38t11.5 -46.5q0 -32 -18.5 -58t-48.5 -43q42 -17 68 -50.5t26 -74.5q0 -29 -13.5 -55t-37.5 -45t-55.5 -30t-67.5 -11t-66.5 10.5t-53 28t-36 39t-15.5 43.5q-2 19 7 30t32 10q-1 -5 -1.5 -10
t-0.5 -10q0 -22 10.5 -41t28.5 -33.5t42.5 -22.5t52.5 -8t52.5 8t42.5 22.5t28.5 33.5t10.5 41t-10.5 41t-28.5 33t-42.5 22.5t-52.5 8.5q-8 0 -14 5.5t-6 13.5t6 13t14 5q22 0 41.5 6.5t34 18t23 27t8.5 32.5t-8.5 32.5t-23 27t-34 18t-41.5 6.5t-41.5 -6.5t-34 -18
t-23 -27t-8.5 -32.5v-9t2 -11q-17 -2 -30.5 9t-9.5 31z" />
    <glyph glyph-name="four" unicode="4" horiz-adv-x="460" 
d="M431 155q0 -36 -36 -36h-66l3 -1l18 -2v-82q0 -40 -40 -40v125h-256q-12 0 -17.5 9.5t2.5 20.5l277 326q9 10 21 5.5t13 -18.5v-307h81zM310 155v251l16 21l-1 3l-233 -275h218z" />
    <glyph glyph-name="five" unicode="5" horiz-adv-x="460" 
d="M149 327q-6 -4 -10 -7t-9 -7l3 -1q44 30 97 30q36 0 67.5 -13.5t55.5 -37.5t37.5 -55.5t13.5 -67.5t-13.5 -67.5t-37.5 -55.5t-55.5 -37.5t-67.5 -13.5t-66 12.5t-52.5 34t-36 49.5t-16.5 58q-2 19 7 30t32 10q-1 -5 -1.5 -10t-0.5 -10q0 -29 10.5 -54t28.5 -43.5
t42.5 -29.5t52.5 -11t52.5 11t42.5 29.5t28.5 43.5t10.5 54q0 28 -10.5 53.5t-28.5 44t-42.5 29.5t-52.5 11q-32 0 -58.5 -14t-45.5 -37q-6 -6 -13 -6.5t-12.5 2.5t-8.5 9.5t0 14.5l62 185q3 15 19 15h199q0 -36 -36 -36h-150q-9 -27 -17 -50q-7 -20 -12.5 -38t-7.5 -24z
" />
    <glyph glyph-name="six" unicode="6" horiz-adv-x="460" 
d="M182 335q11 3 23.5 5t24.5 2q36 0 67.5 -13.5t55.5 -37.5t37.5 -55.5t13.5 -67.5t-13.5 -67.5t-37.5 -55.5t-55.5 -37.5t-67.5 -13.5t-67.5 13.5t-55.5 37.5t-37.5 55.5t-13.5 67.5q0 37 15 68.5t38 56.5l163 175q24 26 51 2l-117 -126q-15 -3 -27 -7zM364 168
q0 28 -10.5 53.5t-28.5 44t-42.5 29.5t-52.5 11t-52.5 -11t-42.5 -29.5t-28.5 -44t-10.5 -53.5q0 -29 10.5 -54t28.5 -43.5t42.5 -29.5t52.5 -11t52.5 11t42.5 29.5t28.5 43.5t10.5 54z" />
    <glyph glyph-name="seven" unicode="7" horiz-adv-x="460" 
d="M362 439h-263q-36 0 -36 36h327q10 0 16.5 -9t1.5 -20l-222 -432q-16 -31 -49 -14z" />
    <glyph glyph-name="eight" unicode="8" horiz-adv-x="460" 
d="M83 361q0 25 11.5 46.5t31.5 38t47 26t57 9.5t57 -9.5t47 -26t31.5 -38t11.5 -46.5q0 -32 -18.5 -58t-48.5 -43q42 -17 68 -50.5t26 -74.5q0 -29 -13.5 -55t-37.5 -45t-55.5 -30t-67.5 -11t-67.5 11t-55.5 30t-37.5 45t-13.5 55q0 41 26 74.5t68 50.5q-31 17 -49 43
t-18 58zM96 135q0 -22 10.5 -41t28.5 -33.5t42.5 -22.5t52.5 -8t52.5 8t42.5 22.5t28.5 33.5t10.5 41t-10.5 41t-28.5 33t-42.5 22.5t-52.5 8.5t-52.5 -8.5t-42.5 -22.5t-28.5 -33t-10.5 -41zM123 361q0 -17 8.5 -32.5t23 -27t34 -18t41.5 -6.5t41.5 6.5t34 18t23 27
t8.5 32.5t-8.5 32.5t-23 27t-34 18t-41.5 6.5t-41.5 -6.5t-34 -18t-23 -27t-8.5 -32.5z" />
    <glyph glyph-name="nine" unicode="9" horiz-adv-x="460" 
d="M278 140q-11 -3 -23.5 -5t-24.5 -2q-36 0 -67.5 13.5t-55.5 37.5t-37.5 55.5t-13.5 67.5t13.5 67.5t37.5 55.5t55.5 37.5t67.5 13.5t67.5 -13.5t55.5 -37.5t37.5 -55.5t13.5 -67.5q0 -37 -15 -68.5t-38 -56.5l-163 -175q-24 -26 -51 -2l117 126q15 3 27 7zM96 307
q0 -29 10.5 -54t28.5 -43.5t42.5 -29.5t52.5 -11t52.5 11t42.5 29.5t28.5 43.5t10.5 54q0 28 -10.5 53.5t-28.5 44t-42.5 29.5t-52.5 11t-52.5 -11t-42.5 -29.5t-28.5 -44t-10.5 -53.5z" />
    <glyph glyph-name="colon" unicode=":" horiz-adv-x="131" 
d="M28 31q0 16 10.5 27t26.5 11t27 -11t11 -27t-11 -26.5t-27 -10.5t-26.5 10.5t-10.5 26.5zM28 286q0 16 10.5 27t26.5 11t27 -11t11 -27t-11 -26.5t-27 -10.5t-26.5 10.5t-10.5 26.5z" />
    <glyph glyph-name="semicolon" unicode=";" horiz-adv-x="131" 
d="M28 286q0 16 10.5 27t26.5 11t27 -11t11 -27t-11 -26.5t-27 -10.5t-26.5 10.5t-10.5 26.5zM28 31q0 16 10.5 27t26.5 11t27 -11t11 -27q0 -30 -4.5 -51t-12 -35.5t-16.5 -24t-18 -16.5q-4 -3 -9.5 -3t-8.5 3q20 18 31.5 40.5t11.5 51.5q-4 -2 -12 -2q-16 0 -26.5 10.5
t-10.5 26.5z" />
    <glyph glyph-name="less" unicode="&#x3c;" horiz-adv-x="400" 
d="M40 211l327 180q13 -31 -12 -45l-269 -148l269 -148q25 -14 12 -45l-327 180q-8 5 -8 13t8 13z" />
    <glyph glyph-name="equal" unicode="=" horiz-adv-x="400" 
d="M30 241q0 34 34 34h306q0 -34 -34 -34h-306zM30 121q0 34 34 34h306q0 -34 -34 -34h-306z" />
    <glyph glyph-name="greater" unicode="&#x3e;" horiz-adv-x="400" 
d="M363.002 185.013l-326.979 -179.989q-12.999 30.998 11.999 44.998l268.983 147.99l-268.983 147.991q-24.998 13.999 -11.999 44.9971l326.979 -179.988q8 -5 8 -13q0 -7.99902 -8 -12.999z" />
    <glyph glyph-name="question" unicode="?" horiz-adv-x="334" 
d="M182 134q0 -38 -38 -38v59q0 24 9 41t22.5 31t29 26t29 25.5t22.5 30.5t9 40q0 42 -28.5 70t-73.5 28q-42 0 -72 -26.5t-30 -71.5v-9.5t1 -9.5q-16 0 -28 11t-10 27q7 52 46 82.5t93 30.5q28 0 53.5 -9t44.5 -26t30.5 -41.5t11.5 -55.5q0 -41 -19 -66.5t-41.5 -44.5
t-41.5 -37.5t-19 -45.5v-21zM126 31q0 16 10.5 27t26.5 11t27 -11t11 -27t-11 -26.5t-27 -10.5t-26.5 10.5t-10.5 26.5z" />
    <glyph glyph-name="at" unicode="@" horiz-adv-x="562" 
d="M240 123q23 0 43.5 17t35.5 42t23.5 53t8.5 51q0 11 -4 23t-11.5 21t-17 14t-19.5 5q-26 0 -47.5 -15t-36.5 -39t-24 -51.5t-9 -52.5q0 -30 16 -49t42 -19zM390 369h34l-62 -193q-4 -11 -7 -20t-3 -17q0 -18 19 -18t37.5 14t34 37t25.5 52t10 57q0 40 -15.5 70.5
t-40.5 53t-59 35t-71 12.5q-45 0 -83 -17.5t-65.5 -47t-43.5 -68.5t-16 -84q0 -44 16.5 -82t44 -66.5t66 -45.5t82.5 -17q51 0 98 24t76 67q16 22 34 0q-16 -28 -38 -50t-49 -38t-58 -24.5t-63 -8.5q-53 0 -96.5 19.5t-76 53.5t-51.5 78t-19 95q0 50 19.5 93.5t52.5 76.5
t76 52t93 19q47 0 86.5 -15t70 -42t47.5 -63.5t17 -80.5q0 -39 -14 -73.5t-35.5 -61t-47.5 -40.5t-51 -14q-18 0 -31 12t-14 33h-1q-16 -17 -39 -31t-48 -14q-43 0 -66.5 29t-23.5 67q0 36 12 71t32 62.5t50.5 44.5t66.5 17q22 0 41 -12t30 -43z" />
    <glyph glyph-name="A" unicode="A" horiz-adv-x="420" 
d="M397 46q6 -16 -1 -31t-22 -21l-62 161h-203l-63 -161q-16 6 -22.5 21t-0.5 31l168 423q4 12 19 12q14 0 19 -12zM123 191h175l-95 245l-1 -3l6 -20z" />
    <glyph glyph-name="B" unicode="B" horiz-adv-x="465" 
d="M340 250q45 -10 70 -44t25 -77q0 -26 -8 -49.5t-23.5 -41t-38 -28t-50.5 -10.5h-235q-8 0 -14 6t-6 14v435q0 9 6 14.5t14 5.5h195q25 0 47 -10.5t38 -28t25.5 -40.5t9.5 -48q0 -27 -14.5 -55.5t-40.5 -42.5zM100 256h175q17 0 31.5 8.5t25.5 21.5t17 29.5t6 32.5
t-6 32.5t-17 29.5t-25.5 21t-31.5 8h-175v-183zM315 36q34 0 57 24.5t23 68.5q0 42 -23 66.5t-57 24.5h-215v-184h215z" />
    <glyph glyph-name="C" unicode="C" horiz-adv-x="464" 
d="M90 150q0 -24 11.5 -46t31.5 -38.5t46.5 -26t57.5 -9.5t58 9.5t47 26t31.5 38.5t11.5 46v10t-1 10q16 0 29.5 -11t8.5 -37q-6 -30 -24 -54t-43.5 -40.5t-56 -25t-61.5 -8.5q-33 0 -66 10.5t-60 30.5t-44 49t-17 66v176q0 36 16.5 64.5t43 48.5t60 31t67.5 11
q30 0 59.5 -7.5t55 -23.5t44 -39.5t26.5 -55.5q6 -27 -8 -38t-30 -11q1 5 1 10v10q0 24 -11.5 46t-31.5 38t-47 25.5t-58 9.5t-57.5 -9.5t-46.5 -25.5t-31.5 -38t-11.5 -46v-176z" />
    <glyph glyph-name="D" unicode="D" horiz-adv-x="484" 
d="M247 475q33 0 66 -10.5t60 -30t44 -48.5t17 -66v-164q0 -36 -16.5 -64.5t-43 -49t-60 -31.5t-67.5 -11h-167q-9 0 -14.5 6t-5.5 14v435q0 20 20 20h167zM100 439v-403h147q30 0 57 9.5t47.5 26t32 38.5t11.5 46v164q0 24 -11.5 46t-32 38t-47.5 25.5t-57 9.5h-147z" />
    <glyph glyph-name="E" unicode="E" horiz-adv-x="464" 
d="M90 256h198q0 -36 -36 -36h-162v-70q0 -24 11.5 -46t31.5 -38.5t46.5 -26t57.5 -9.5t58 9.5t47 26t31.5 38.5t11.5 46v10t-1 10q16 0 29.5 -11t8.5 -37q-6 -30 -24 -54t-43.5 -40.5t-56 -25t-61.5 -8.5q-33 0 -66 10.5t-60 30.5t-44 49t-17 66v176q0 36 16.5 64.5
t43 48.5t60 31t67.5 11q30 0 59.5 -7.5t55 -23.5t44 -39.5t26.5 -55.5q6 -27 -8 -38t-30 -11q1 5 1 10v10q0 24 -11.5 46t-31.5 38t-47 25.5t-58 9.5t-57.5 -9.5t-46.5 -25.5t-31.5 -38t-11.5 -46v-70z" />
    <glyph glyph-name="F" unicode="F" horiz-adv-x="464" 
d="M50 326q0 36 16.5 64.5t43 48.5t60 31t67.5 11q30 0 59 -7.5t54.5 -23.5t44 -39.5t27.5 -55.5q5 -27 -8.5 -38t-29.5 -11q1 5 1 10v10q0 24 -11.5 46t-31.5 38t-47 25.5t-58 9.5t-57.5 -9.5t-46.5 -25.5t-31.5 -38t-11.5 -46v-70h198q0 -36 -36 -36h-162v-186
q0 -40 -40 -40v332z" />
    <glyph glyph-name="G" unicode="G" horiz-adv-x="474" 
d="M424 150q0 -37 -17 -66t-44 -49t-60 -30.5t-66 -10.5t-66 10.5t-60 30.5t-44 49t-17 66v176q0 36 16.5 64.5t43 48.5t60 31t67.5 11q30 0 59.5 -7.5t55 -23.5t44 -39.5t26.5 -55.5q6 -27 -8 -38t-30 -11q1 5 1 10v10q0 24 -11.5 46t-31.5 38t-47 25.5t-58 9.5t-57.5 -9.5
t-46.5 -25.5t-31.5 -38t-11.5 -46v-176q0 -24 11.5 -46t31.5 -38.5t46.5 -26t57.5 -9.5t57.5 9.5t46.5 26t31.5 38.5t11.5 46v70h-146q0 36 36 36h130q8 0 14 -6t6 -14v-86v0z" />
    <glyph glyph-name="H" unicode="H" horiz-adv-x="494" 
d="M434 34q0 -40 -40 -40v226h-294v-186q0 -40 -40 -40v447q0 40 40 40v-225h294v185q0 40 40 40v-447z" />
    <glyph glyph-name="I" unicode="I" horiz-adv-x="160" 
d="M100 34q0 -40 -40 -40v447q0 40 40 40v-447z" />
    <glyph glyph-name="J" unicode="J" horiz-adv-x="425" 
d="M80 150q0 -24 10 -46t27.5 -38.5t40.5 -26t50 -9.5q26 0 49 9.5t40.5 26t27.5 38.5t10 46v289h-94q-36 0 -36 36h151q19 0 19 -20v-305q0 -32 -13 -60.5t-36 -49.5t-53.5 -33.5t-64.5 -12.5q-31 0 -58.5 9.5t-49.5 27t-36.5 41t-20.5 50.5q-5 26 8.5 37t30.5 11
q-1 -5 -1.5 -10t-0.5 -10z" />
    <glyph glyph-name="K" unicode="K" horiz-adv-x="454" 
d="M60 441q0 40 40 40v-254l266 254q25 -25 -1 -51l-152 -145q-12 -4 -20 -7.5t-14 -7.5l3 -1q10 5 22 8t23 3q34 0 64.5 -12.5t53.5 -33.5t36 -49.5t13 -60.5v-90q0 -40 -40 -40v130q0 24 -10 46t-27.5 38.5t-40.5 26t-49 9.5t-49.5 -9.5t-40.5 -26t-27 -38.5t-10 -46v-90
q0 -40 -40 -40v447z" />
    <glyph glyph-name="L" unicode="L" horiz-adv-x="414" 
d="M358 36q36 0 36 -36h-314q-9 0 -14.5 6t-5.5 14v421q0 40 40 40v-445h258z" />
    <glyph glyph-name="M" unicode="M" horiz-adv-x="568" 
d="M60 441q0 40 40 40l182 -419l-6 -18l1 -3l191 440q40 0 40 -40v-407q0 -40 -40 -40v383l11 34l-1 3l-176 -407q-2 -5 -7 -9t-11 -4t-11 4t-7 9l-176 407l-1 -3l11 -34v-343q0 -40 -40 -40v447z" />
    <glyph glyph-name="N" unicode="N" horiz-adv-x="494" 
d="M60 441q0 40 40 40l13 -19t34.5 -50t48.5 -70t56 -80l152 -218l1 3l-11 21v413q40 0 40 -40v-407q0 -40 -40 -40l-13.5 18.5t-34.5 49t-48.5 70t-55.5 80.5q-67 96 -152 219l-1 -3l11 -21v-373q0 -40 -40 -40v447z" />
    <glyph glyph-name="O" unicode="O" horiz-adv-x="567" 
d="M40 237q0 51 19 95.5t52 77.5t77 52t95 19t95.5 -19t77.5 -52t52 -77.5t19 -95.5t-19 -95t-52 -77t-77.5 -52t-95.5 -19t-95 19t-77 52t-52 77t-19 95zM80 237q0 -43 16 -81t43.5 -66t64.5 -44t79 -16t79.5 16t65 44t43.5 66t16 81t-16 81t-43.5 66t-65 44.5t-79.5 16.5
t-79 -16.5t-64.5 -44.5t-43.5 -66t-16 -81z" />
    <glyph glyph-name="P" unicode="P" horiz-adv-x="474" 
d="M60 455q0 20 20 20h234q25 0 47 -10.5t38 -28t25.5 -40.5t9.5 -48t-9.5 -48t-25.5 -41t-38 -28.5t-47 -10.5h-214v-186q0 -40 -40 -40v461zM314 256q17 0 31.5 8.5t25.5 21.5t17 29.5t6 32.5t-6 32.5t-17 29.5t-25.5 21t-31.5 8h-214v-183h214z" />
    <glyph glyph-name="Q" unicode="Q" horiz-adv-x="567" 
d="M527 25q0 -42 -44 -28q-17 5 -32.5 15.5t-30.5 22.5q-29 -20 -64 -30.5t-73 -10.5q-51 0 -95 19t-77 52t-52 77t-19 95t19 95.5t52 77.5t77 52t95 19t95.5 -19t77.5 -52t52 -77.5t19 -95.5q0 -54 -21 -99.5t-56 -78.5q18 -14 37 -24t40 -10zM80 237q0 -30 7 -54
q42 15 89 15q83 0 157 -46q23 -14 40.5 -28.5t34.5 -28.5l6 -6t7 -5q30 28 48 67.5t18 85.5q0 43 -16 81t-43.5 66t-65 44.5t-79.5 16.5t-79 -16.5t-64.5 -44.5t-43.5 -66t-16 -81zM283 30q58 0 108 31l-7 6q-17 14 -35.5 29t-35.5 26q-31 19 -66.5 29.5t-70.5 10.5
q-19 0 -38 -3.5t-38 -12.5q24 -52 73 -84t110 -32z" />
    <glyph glyph-name="R" unicode="R" horiz-adv-x="485" 
d="M314 256q17 0 31.5 8.5t25.5 21.5t17 29.5t6 32.5t-6 32.5t-17 29.5t-25.5 21t-31.5 8h-214v-183h214zM100 34q0 -40 -40 -40v461q0 20 20 20h234q25 0 47 -10.5t38 -28t25.5 -40.5t9.5 -48q0 -33 -19 -65t-45 -47q30 -14 47.5 -43.5t17.5 -63.5v-95q0 -40 -40 -40v135
q0 42 -23.5 66.5t-57.5 24.5h-214v-186z" />
    <glyph glyph-name="S" unicode="S" horiz-adv-x="454" 
d="M78 150q0 -24 11.5 -46t31.5 -38.5t47 -26t58 -9.5q30 0 57.5 10t48 26.5t31.5 37.5t10 44q-2 18 -14 30t-32 21t-47 15.5t-58 12.5q-38 7 -67 15.5t-49.5 21t-31.5 30.5t-14 45t8 53t32.5 45.5t53.5 31.5t72 12q71 0 113 -36.5t50 -91.5q4 -25 -10 -36t-29 -11q1 5 1 10
v10q0 24 -8.5 45.5t-24.5 38t-39 26t-53 9.5t-54 -9t-40.5 -23t-25 -32.5t-6.5 -37.5q3 -36 34 -51.5t96 -28.5q39 -8 71.5 -15t56.5 -19t38.5 -30t16.5 -48q2 -31 -12.5 -59.5t-40.5 -50t-60.5 -34.5t-73.5 -13q-35 0 -65.5 9.5t-55.5 27t-41.5 41t-22.5 50.5q-5 26 8.5 37
t29.5 11q-1 -5 -1 -10v-10z" />
    <glyph glyph-name="T" unicode="T" horiz-adv-x="373" 
d="M373 475q0 -36 -36 -36h-130v-405q0 -40 -40 -40v445h-167q0 36 36 36h337z" />
    <glyph glyph-name="U" unicode="U" horiz-adv-x="494" 
d="M100 150q0 -24 11.5 -46t31.5 -38.5t46.5 -26t57.5 -9.5t57.5 9.5t46.5 26t31.5 38.5t11.5 46v291q0 40 40 40v-331q0 -37 -17 -66t-44 -49t-60 -30.5t-66 -10.5t-66 10.5t-60 30.5t-44 49t-17 66v291q0 40 40 40v-331z" />
    <glyph glyph-name="V" unicode="V" horiz-adv-x="432" 
d="M214 62l-6 -20l1 -3l161 417q6 16 21 23t31 0l-187 -473q-5 -12 -19 -12t-19 12l-187 473q16 7 31 0t21 -23z" />
    <glyph glyph-name="W" unicode="W" horiz-adv-x="638" 
d="M200 -6q-29 0 -40 33l-150 453q16 5 31 -2.5t20 -23.5l123 -381l-5 -21l1 -3l119 373q5 13 19 13t19 -13l111 -349l-5 -21l1 -3l131 405q5 16 20 23.5t31 2.5l-150 -453q-11 -33 -40 -33l-124 387l-1 -3l5 -22z" />
    <glyph glyph-name="X" unicode="X" horiz-adv-x="420" 
d="M20 475q14 10 28.5 6.5t23.5 -16.5l138 -190l138 190q9 13 23.5 16.5t28.5 -6.5l-168 -230l178 -244q-14 -10 -28 -6.5t-24 17.5l-148 203l-148 -203q-10 -14 -24 -17.5t-28 6.5l178 244z" />
    <glyph glyph-name="Y" unicode="Y" horiz-adv-x="400" 
d="M220 34q0 -40 -40 -40v248l-170 233q14 10 28.5 6.5t23.5 -16.5l138 -190l138 190q9 13 23.5 16.5t28.5 -6.5l-170 -233v-208z" />
    <glyph glyph-name="Z" unicode="Z" horiz-adv-x="420" 
d="M56 439q-36 0 -36 36h360q12 0 17.5 -11t-1.5 -20l-333 -422l3 1l12 13h286q36 0 36 -36h-360q-12 0 -17.5 11t1.5 20l333 422l-3 -1l-12 -13h-286z" />
    <glyph glyph-name="bracketleft" unicode="[" horiz-adv-x="191" 
d="M60 -86v579h136q0 -36 -36 -36h-62v-507h62q36 0 36 -36h-136z" />
    <glyph glyph-name="backslash" unicode="\" horiz-adv-x="279" 
d="M289 -20q-32 -17 -48 16l-251 499q33 16 48 -16z" />
    <glyph glyph-name="bracketright" unicode="]" horiz-adv-x="191" 
d="M131.004 492.995v-578.965h-135.992q0 35.998 35.998 35.998h61.9961v506.969h-61.9961q-35.998 0 -35.998 35.998h135.992z" />
    <glyph glyph-name="asciicircum" unicode="^" horiz-adv-x="426" 
d="M212 478q14 0 19 -11l147 -327q-12 -6 -26.5 -2t-19.5 16l-119 269l-119 -269q-5 -12 -19.5 -16t-26.5 2l147 327q5 11 19 11h-2z" />
    <glyph glyph-name="underscore" unicode="_" horiz-adv-x="360" 
d="M0 -187v32h360v-32h-360z" />
    <glyph glyph-name="grave" unicode="`" horiz-adv-x="216" 
d="M169 373q-17 0 -26 2.5t-16 8.5l-84 93h23q35 0 47 -18z" />
    <glyph glyph-name="a" unicode="a" horiz-adv-x="370" 
d="M175 221q35 0 64 -13t47 -36l1 3q-2 3 -6 7.5t-7 6.5v43q0 32 -28.5 56t-70.5 24q-33 0 -60.5 -19t-41.5 -46q-12 9 -15.5 23.5t7.5 26.5q19 23 48 35.5t62 12.5q24 0 48 -7.5t43.5 -22t31.5 -35.5t12 -48v-202q0 -36 -36 -36v32q3 2 7 6.5t6 7.5l-1 3q-18 -23 -47 -36
t-64 -13q-28 0 -52.5 9t-43 24t-29 35.5t-10.5 44.5t10.5 44.5t29 36t43 24.5t52.5 9zM175 27q43 0 71 24t28 56q0 16 -7.5 30.5t-20.5 26t-31.5 18t-39.5 6.5t-39.5 -6.5t-31.5 -18t-20.5 -26t-7.5 -30.5q0 -32 28 -56t71 -24z" />
    <glyph glyph-name="b" unicode="b" horiz-adv-x="380" 
d="M96 108q0 -16 7.5 -30.5t20.5 -26t31.5 -18t39.5 -6.5t39.5 6.5t31.5 18t20.5 26t7.5 30.5v124q0 32 -28 56t-71 24t-71 -24t-28 -56v-124zM96 313q-3 -2 -7 -6.5t-6 -7.5l1 -3q18 23 47 36t64 13q28 0 52.5 -9t43 -24t29 -35.5t10.5 -44.5v-124q0 -24 -10.5 -44.5
t-29 -36t-43 -24.5t-52.5 -9q-35 0 -64 13t-47 36l-1 -3q2 -3 6 -7.5t7 -6.5q-1 -15 -8.5 -23.5t-27.5 -8.5v451q0 36 36 36v-168z" />
    <glyph glyph-name="c" unicode="c" horiz-adv-x="344" 
d="M185 345q43 0 76.5 -19.5t48.5 -51.5q4 -9 2.5 -17t-6 -13.5t-10.5 -9t-12 -3.5q0 16 -7.5 30.5t-20.5 26t-31.5 18t-39.5 6.5t-39.5 -6.5t-31.5 -18t-20.5 -26t-7.5 -30.5v-124q0 -32 28 -56t71 -24q21 0 39.5 6.5t31.5 18t20.5 26t7.5 30.5q6 0 12 -3.5t10.5 -9
t6 -13.5t-2.5 -17q-15 -32 -48.5 -51.5t-76.5 -19.5q-28 0 -52.5 9t-43 24t-29 35.5t-10.5 44.5v124q0 24 10.5 44.5t29 36t43 24.5t52.5 9z" />
    <glyph glyph-name="d" unicode="d" horiz-adv-x="380" 
d="M284 231q0 16 -7.5 30.5t-20.5 26t-31.5 18t-39.5 6.5t-39.5 -6.5t-31.5 -18t-20.5 -26t-7.5 -30.5v-124q0 -32 28 -56t71 -24t71 24t28 56v124zM284 445q0 36 36 36v-451q0 -36 -36 -36v32q3 2 7 6.5t6 7.5l-1 3q-18 -23 -47 -36t-64 -13q-28 0 -52.5 9t-43 24t-29 35.5
t-10.5 44.5v124q0 24 10.5 44.5t29 36t43 24.5t52.5 9q35 0 64 -13t47 -36l1 3q-2 3 -6 7.5t-7 6.5v132z" />
    <glyph glyph-name="e" unicode="e" horiz-adv-x="370" 
d="M86 107q0 -32 28 -56t71 -24q21 0 39.5 6.5t31.5 18t20.5 26t7.5 30.5q6 0 12 -3.5t10.5 -9t6 -13.5t-2.5 -17q-15 -32 -48.5 -51.5t-76.5 -19.5q-28 0 -52.5 9t-43 24t-29 35.5t-10.5 44.5v124q0 24 10.5 44.5t29 36t43 24.5t52.5 9t52.5 -9t43 -24.5t29 -36t10.5 -44.5
v-36q0 -8 -5.5 -13t-12.5 -5h-216v-70zM86 210h198v21q0 16 -7.5 30.5t-20.5 26t-31.5 18t-39.5 6.5t-39.5 -6.5t-31.5 -18t-20.5 -26t-7.5 -30.5v-21z" />
    <glyph glyph-name="f" unicode="f" horiz-adv-x="200" 
d="M68 306h-58q0 33 33 33h25v51q0 38 26.5 64.5t72.5 26.5q20 0 28.5 -12.5t0.5 -26.5q-12 6 -29 6q-31 0 -47 -17t-16 -41v-51h63q0 -33 -33 -33h-30v-276q0 -36 -36 -36v312z" />
    <glyph glyph-name="g" unicode="g" horiz-adv-x="380" 
d="M284 231q0 16 -7.5 30.5t-20.5 26t-31.5 18t-39.5 6.5t-39.5 -6.5t-31.5 -18t-20.5 -26t-7.5 -30.5v-124q0 -32 28 -56t71 -24t71 24t28 56v124zM284 26q3 2 7 6.5t6 7.5l-1 3q-18 -23 -47 -36t-64 -13q-28 0 -52.5 9t-43 24t-29 35.5t-10.5 44.5v124q0 24 10.5 44.5
t29 36t43 24.5t52.5 9q35 0 64 -13t47 -36l1 3q-2 3 -6 7.5t-7 6.5q1 15 8.5 23.5t27.5 8.5v-374q0 -24 -10.5 -44.5t-29 -35.5t-43 -24t-52.5 -9q-43 0 -76.5 19.5t-48.5 51.5q-4 9 -2.5 17t6 13.5t10.5 9t12 3.5q0 -16 7.5 -30.5t20.5 -26t31.5 -18t39.5 -6.5q43 0 71 24
t28 56v55z" />
    <glyph glyph-name="h" unicode="h" horiz-adv-x="390" 
d="M60 445q0 36 36 36v-168q-3 -2 -7 -6.5t-6 -7.5l1 -3q18 23 47 36t64 13q28 0 52.5 -9t43 -24.5t29 -36t10.5 -44.5v-201q0 -36 -36 -36v237q0 16 -7.5 30.5t-20.5 26t-31.5 18t-39.5 6.5t-39.5 -6.5t-31.5 -18t-20.5 -26t-7.5 -30.5v-201q0 -36 -36 -36v451z" />
    <glyph glyph-name="i" unicode="i" horiz-adv-x="156" 
d="M60 309q0 36 36 36v-315q0 -36 -36 -36v315zM44 433q0 14 10 24t24 10t24 -10t10 -24t-10 -24t-24 -10t-24 10t-10 24z" />
    <glyph glyph-name="j" unicode="j" horiz-adv-x="156" 
d="M96 -51q0 -38 -26.5 -64.5t-72.5 -26.5q-20 0 -28.5 12.5t-0.5 26.5q12 -6 29 -6q31 0 47 17t16 41v360q0 36 36 36v-396zM44 433q0 14 10 24t24 10t24 -10t10 -24t-10 -24t-24 -10t-24 10t-10 24z" />
    <glyph glyph-name="k" unicode="k" horiz-adv-x="380" 
d="M60 445q0 36 36 36v-272l212 135q19 -33 -12 -50l-79 -50h-12.5t-12.5 -2l-3 -1h6q28 0 52.5 -9t43 -24.5t29 -36t10.5 -44.5v-97q0 -36 -36 -36v133q0 16 -7.5 30.5t-20.5 26t-31.5 18t-39.5 6.5t-39.5 -6.5t-31.5 -18t-20.5 -26t-7.5 -30.5v-97q0 -36 -36 -36v451z" />
    <glyph glyph-name="l" unicode="l" horiz-adv-x="192" 
d="M159 -6q-46 0 -72.5 26.5t-26.5 64.5v360q0 36 36 36v-396q0 -24 16 -41t47 -17q17 0 29 6q8 -14 -0.5 -26.5t-28.5 -12.5z" />
    <glyph glyph-name="m" unicode="m" horiz-adv-x="522" 
d="M243 254q0 24 -21.5 41t-52.5 17t-52 -17t-21 -41v-224q0 -36 -36 -36v315q0 36 36 36v-18q-3 -2 -8 -6.5t-7 -7.5l3 -1q15 15 37 24t48 9q27 0 50.5 -10t38.5 -27q-6 -8 -8 -16l1 -3q12 25 39 40.5t62 15.5q23 0 43 -7t35 -19.5t23.5 -29t8.5 -35.5v-224q0 -36 -36 -36
v260q0 24 -21.5 41t-52.5 17t-52 -17t-21 -41v-224q0 -36 -36 -36v260z" />
    <glyph glyph-name="n" unicode="n" horiz-adv-x="390" 
d="M60 309q0 36 36 36v-32q-3 -2 -7 -6.5t-6 -7.5l1 -3q18 23 47 36t64 13q28 0 52.5 -9t43 -24.5t29 -36t10.5 -44.5v-201q0 -36 -36 -36v237q0 16 -7.5 30.5t-20.5 26t-31.5 18t-39.5 6.5t-39.5 -6.5t-31.5 -18t-20.5 -26t-7.5 -30.5v-201q0 -36 -36 -36v315z" />
    <glyph glyph-name="o" unicode="o" horiz-adv-x="431" 
d="M40 169q0 36 13.5 68t37.5 56t56 38t68 14t68 -14t56 -38t38 -56t14 -68t-14 -68t-38 -56t-56 -37.5t-68 -13.5t-68 13.5t-56 37.5t-37.5 56t-13.5 68zM76 169q0 -30 11 -55.5t29.5 -45t44 -30.5t54.5 -11t54.5 11t44.5 30.5t30 45t11 55.5t-11 56t-30 45.5t-44.5 30.5
t-54.5 11t-54.5 -11t-44 -30.5t-29.5 -45.5t-11 -56z" />
    <glyph glyph-name="p" unicode="p" horiz-adv-x="380" 
d="M96 107q0 -32 28 -56t71 -24t71 24t28 56v124q0 16 -7.5 30.5t-20.5 26t-31.5 18t-39.5 6.5t-39.5 -6.5t-31.5 -18t-20.5 -26t-7.5 -30.5v-124zM60 309q0 36 36 36v-32q-3 -2 -7 -6.5t-6 -7.5l1 -3q18 23 47 36t64 13q28 0 52.5 -9t43 -24.5t29 -36t10.5 -44.5v-124
q0 -24 -10.5 -44.5t-29 -35.5t-43 -24t-52.5 -9q-35 0 -64 13t-47 36l-1 -3q2 -3 6 -7.5t7 -6.5v-132q0 -36 -36 -36v451z" />
    <glyph glyph-name="q" unicode="q" horiz-adv-x="380" 
d="M284 231q0 16 -7.5 30.5t-20.5 26t-31.5 18t-39.5 6.5t-39.5 -6.5t-31.5 -18t-20.5 -26t-7.5 -30.5v-124q0 -32 28 -56t71 -24t71 24t28 56v124zM284 26q3 2 7 6.5t6 7.5l-1 3q-18 -23 -47 -36t-64 -13q-28 0 -52.5 9t-43 24t-29 35.5t-10.5 44.5v124q0 24 10.5 44.5
t29 36t43 24.5t52.5 9q35 0 64 -13t47 -36l1 3q-2 3 -6 7.5t-7 6.5q1 15 8.5 23.5t27.5 8.5v-451q0 -36 -36 -36v168z" />
    <glyph glyph-name="r" unicode="r" horiz-adv-x="251" 
d="M231 341q-3 -32 -36 -29q-21 0 -39.5 -6.5t-31.5 -18t-20.5 -26t-7.5 -30.5v-201q0 -36 -36 -36v315q0 36 36 36v-34q-4 -4 -7.5 -8.5t-5.5 -8.5l1 -3q18 26 47 40t64 14q9 0 18.5 -1t17.5 -3z" />
    <glyph glyph-name="s" unicode="s" horiz-adv-x="329" 
d="M283 250q3 -19 -8 -28.5t-28 -7.5q4 19 -0.5 36.5t-16 31t-29 22t-37.5 8.5t-35.5 -6t-27 -15.5t-17 -22t-4.5 -24.5q2 -24 22 -34t65 -19q28 -6 52 -11.5t41 -14.5t27 -22.5t12 -35.5t-8.5 -42.5t-29 -36t-44 -25t-53.5 -9.5q-50 0 -87.5 26.5t-45.5 67.5q-3 17 6 27.5
t29 8.5q-5 -21 2 -38.5t22 -30.5t34.5 -20.5t39.5 -7.5q21 0 39.5 6.5t32 17.5t21 25t6.5 29q-2 23 -30 33.5t-72 19.5q-29 6 -50.5 11.5t-35.5 14.5t-21.5 22t-9.5 34q-2 20 6 39t23.5 33.5t38.5 23.5t52 9q52 0 82 -27t37 -68z" />
    <glyph glyph-name="t" unicode="t" horiz-adv-x="200" 
d="M167 -6q-46 0 -72.5 26.5t-26.5 64.5v221h-58q0 33 33 33h25v106q0 36 36 36v-142h63q0 -33 -33 -33h-30v-221q0 -24 16 -41t47 -17q17 0 29 6q8 -14 -0.5 -26.5t-28.5 -12.5z" />
    <glyph glyph-name="u" unicode="u" horiz-adv-x="390" 
d="M330 30q0 -36 -36 -36v32q3 2 7 6.5t6 7.5l-1 3q-18 -23 -47 -36t-64 -13q-28 0 -52.5 9t-43 24.5t-29 36t-10.5 44.5v201q0 36 36 36v-237q0 -16 7.5 -30.5t20.5 -26t31.5 -18t39.5 -6.5t39.5 6.5t31.5 18t20.5 26t7.5 30.5v201q0 36 36 36v-315z" />
    <glyph glyph-name="v" unicode="v" horiz-adv-x="336" 
d="M168 -6q-12 0 -16 11l-137 337q14 6 26 0.5t17 -18.5l108 -269l-6 -20l1 -3l117 292q5 13 17 18.5t26 -0.5l-137 -337q-4 -11 -16 -11z" />
    <glyph glyph-name="w" unicode="w" horiz-adv-x="484" 
d="M240 243l-81 -249q-14 0 -21.5 7t-12.5 20l-110 321q31 10 42 -21l89 -260l-4 -19l1 -3l82 257q5 13 17 13t17 -13l75 -235l-4 -19l1 -3l96 282q10 31 42 21l-110 -321q-5 -13 -12.5 -20t-21.5 -7l-88 270l-1 -3z" />
    <glyph glyph-name="x" unicode="x" horiz-adv-x="338" 
d="M323 3q-26 -20 -46 6l-108 144l-108 -144q-20 -26 -46 -6l133 178l-117 156q27 19 47 -7l91 -121l91 121q20 26 47 7l-117 -156z" />
    <glyph glyph-name="y" unicode="y" horiz-adv-x="336" 
d="M57 -140q-39 -9 -42 27q7 0 12 0.5t13 2.5q36 8 57.5 27t37.5 57l15 36l-135 332q14 6 26 0.5t17 -18.5l108 -269l-6 -20l1 -3l117 292q5 13 17 18.5t26 -0.5l-154 -378q-18 -45 -43.5 -69.5t-66.5 -34.5z" />
    <glyph glyph-name="z" unicode="z" horiz-adv-x="302" 
d="M48 306q-33 0 -33 33h254q11 0 16.5 -10.5t-2.5 -19.5l-231 -290l3 1l12 13h187q33 0 33 -33h-254q-11 0 -16.5 10.5t2.5 19.5l231 290l-3 -1l-12 -13h-187z" />
    <glyph glyph-name="braceleft" unicode="{" horiz-adv-x="191" 
d="M24 204q0 13 12 13q26 0 36 16.5t10 45.5v127q0 42 17.5 64.5t49.5 22.5h47q0 -32 -32 -32h-6q-15 0 -25.5 -9t-10.5 -37v-129q0 -38 -11.5 -56.5t-37.5 -25.5q26 -7 37.5 -25.5t11.5 -56.5v-129q0 -28 10.5 -37t25.5 -9h6q32 0 32 -32h-47q-32 0 -49.5 22.5t-17.5 64.5
v127q0 29 -10 45.5t-36 16.5q-12 0 -12 13z" />
    <glyph glyph-name="bar" unicode="|" horiz-adv-x="154" 
d="M60 493q0 34 34 34v-597q0 -34 -34 -34v597z" />
    <glyph glyph-name="braceright" unicode="}" horiz-adv-x="191" 
d="M167.002 204.013q0 -12.999 -12 -12.999q-25.998 0 -35.998 -16.499q-9.99902 -16.499 -9.99902 -45.498v-126.992q0 -41.9971 -17.499 -64.4961q-17.499 -22.498 -49.4971 -22.498h-46.9971q0 31.998 31.998 31.998h6q14.999 0 25.498 8.99902q10.5 9 10.5 36.998
v128.992q0 37.998 11.499 56.4961q11.499 18.499 37.498 25.499q-25.999 6.99902 -37.498 25.498t-11.499 56.4971v128.992q0 27.998 -10.5 36.9971q-10.499 9 -25.498 9h-6q-31.998 0 -31.998 31.998h46.9971q31.998 0 49.4971 -22.499q17.499 -22.498 17.499 -64.4961
v-126.992q0 -28.998 9.99902 -45.4971q10 -16.499 35.998 -16.499q12 0 12 -12.999z" />
    <glyph glyph-name="asciitilde" unicode="~" horiz-adv-x="433" 
d="M43 176q-24 33 9 51q29 13 66 13q42 0 98 -24.5t87 -24.5q49 0 87 43q14 -11 14.5 -24t-13.5 -24q-36 -30 -88 -30q-39 0 -103 27q-24 11 -44.5 16t-37.5 5q-25 0 -43.5 -8t-31.5 -20z" />
    <glyph glyph-name="nonbreakingspace" unicode="&#xa0;" horiz-adv-x="270" 
 />
    <glyph glyph-name="exclamdown" unicode="&#xa1;" horiz-adv-x="147" 
d="M102 -87q1 -26 -14 -40.5t-44 -14.5l12 347q2 38 36 38zM112 308q0 -16 -10.5 -27t-26.5 -11t-27 11t-11 27t11 26.5t27 10.5t26.5 -10.5t10.5 -26.5z" />
    <glyph glyph-name="cent" unicode="&#xa2;" horiz-adv-x="344" 
d="M168 361q0 34 34 34v-51q37 -4 65.5 -22.5t42.5 -47.5q4 -9 2.5 -17t-6 -13.5t-10.5 -9t-12 -3.5q0 29 -23 52t-59 28v-283q36 5 59 28t23 52q6 0 12 -3.5t10.5 -9t6 -13.5t-2.5 -17q-14 -29 -42.5 -47.5t-65.5 -22.5v-17q0 -34 -34 -34v51q-51 5 -84.5 36.5t-33.5 75.5
v124q0 44 33.5 76t84.5 37v17zM86 231v-124q0 -29 23 -51.5t59 -27.5v283q-36 -5 -59 -28t-23 -52z" />
    <glyph glyph-name="sterling" unicode="&#xa3;" horiz-adv-x="382" 
d="M41 220q0 36 36 36h48q-3 23 -5 44.5t-2 44.5q0 30 10 55t27.5 43t41.5 28t53 10q26 0 45.5 -6t30.5 -16q10 -8 9.5 -19.5t-8.5 -18.5q-28 25 -80 25q-45 0 -67.5 -27t-22.5 -75q0 -16 1.5 -39.5t3.5 -48.5h117q0 -36 -36 -36h-77q2 -23 4 -41t2 -26q0 -43 -14 -70
t-43 -47h200q36 0 36 -36h-300q0 12 4 22t12 15q11 7 23 17.5t22 24.5t16.5 31t6.5 36t-1.5 37.5t-3.5 36.5h-89z" />
    <glyph glyph-name="currency" unicode="&#xa4;" horiz-adv-x="493" 
d="M100 124q-40 50 -40 114q0 31 9.5 61t30.5 55l-40 41l30 31l41 -42q25 20 55.5 30.5t59.5 10.5q65 0 117 -41l43 42l29 -31l-41 -41q20 -23 29.5 -53.5t9.5 -62.5q0 -30 -9.5 -59.5t-29.5 -54.5l41 -42l-30 -30l-42 43q-24 -22 -54.5 -32.5t-62.5 -10.5t-61 10t-54 33
l-41 -43l-30 30zM100 238q0 -31 11.5 -58.5t31 -48t46.5 -32.5t57 -12t57 12t46.5 32.5t31 48t11.5 58.5t-11.5 58.5t-31 48t-46.5 32.5t-57 12t-57 -12t-46.5 -32.5t-31 -48t-11.5 -58.5z" />
    <glyph glyph-name="yen" unicode="&#xa5;" horiz-adv-x="400" 
d="M56 265q0 36 36 36h45l-127 174q14 10 28.5 6.5t23.5 -16.5l138 -190l138 190q9 13 23.5 16.5t28.5 -6.5l-127 -174h81q0 -36 -36 -36h-71l-17 -23v-31h124q0 -36 -36 -36h-88v-141q0 -40 -40 -40v181h-124q0 36 36 36h88v31l-17 23h-107z" />
    <glyph glyph-name="brokenbar" unicode="&#xa6;" horiz-adv-x="154" 
d="M60 493q0 34 34 34v-246q0 -34 -34 -34v246zM60 142q0 34 34 34v-246q0 -34 -34 -34v246z" />
    <glyph glyph-name="section" unicode="&#xa7;" horiz-adv-x="393" 
d="M333 229q0 -25 -11 -44.5t-29 -36.5q8 -8 15 -23t7 -33q0 -47 -37 -72.5t-93 -25.5q-24 0 -46 5t-35 13q-11 8 -14 20t5 26q14 -14 37 -22t55 -8q40 0 65.5 15.5t25.5 44.5q0 27 -20 43.5t-77 33.5q-61 18 -91 39.5t-30 61.5q0 17 9 35.5t35 38.5q-10 9 -14.5 22t-4.5 27
q0 42 34.5 67t88.5 25q23 0 45 -5t36 -15q8 -5 8 -17t-6 -20q-14 9 -37 17.5t-51 8.5q-33 0 -56.5 -15t-23.5 -40q0 -27 28 -41t73 -27q23 -8 43 -16.5t34.5 -20t23 -26.5t8.5 -35zM293 224q0 20 -17 37t-59 31q-19 6 -43 14.5t-41 17.5q-18 -14 -26.5 -29t-8.5 -27
q0 -17 17.5 -35t71.5 -34q32 -11 50 -18t30 -14q11 12 18.5 27t7.5 30z" />
    <glyph glyph-name="dieresis" unicode="&#xa8;" horiz-adv-x="215" 
d="M8 436q0 14 10 24t24 10t24 -10t10 -24t-10 -24t-24 -10t-24 10t-10 24zM139 436q0 14 10 24t24 10t24 -10t10 -24t-10 -24t-24 -10t-24 10t-10 24z" />
    <glyph glyph-name="copyright" unicode="&#xa9;" horiz-adv-x="547" 
d="M30 237q0 51 19 95.5t52 77.5t77 52t95 19t95.5 -19t77.5 -52t52 -77.5t19 -95.5t-19 -95t-52 -77t-77.5 -52t-95.5 -19t-95 19t-77 52t-52 77t-19 95zM66 236q0 -44 16.5 -82t44.5 -66.5t65.5 -45t80.5 -16.5t81 16.5t66 45t44.5 66.5t16.5 82t-16.5 83t-44.5 68
t-66 45.5t-81 16.5t-80.5 -16.5t-65.5 -45.5t-44.5 -68t-16.5 -83zM276 352q-32 0 -54.5 -19t-22.5 -44v-102q0 -26 22.5 -44.5t54.5 -18.5t55.5 20t23.5 47q17 2 26 -6.5t4 -26.5q-6 -15 -17 -27t-26 -20.5t-32 -12.5t-34 -4q-19 0 -39 6t-36 18t-26.5 29.5t-10.5 39.5v102
q0 21 10 38t26 29t36 18.5t40 6.5q17 0 34 -4t32 -12t26 -20t17 -27q5 -19 -4 -27t-26 -6q0 26 -23.5 46.5t-55.5 20.5z" />
    <glyph glyph-name="ordfeminine" unicode="&#xaa;" horiz-adv-x="272" 
d="M116 236q32 0 52 17.5t20 40.5q0 24 -20 42t-52 18q-31 0 -51.5 -18t-20.5 -42q0 -23 20.5 -40.5t51.5 -17.5zM188 390q0 23 -20.5 40.5t-51.5 17.5q-24 0 -45 -15t-32 -35q-11 8 -14 20t5 22q15 19 37.5 28.5t48.5 9.5q19 0 38 -6t34 -17.5t24.5 -28t9.5 -36.5v-154
q0 -30 -34 -30v19q7 6 14 14l-1 3q-14 -17 -36.5 -26.5t-48.5 -9.5q-22 0 -41.5 7t-33.5 19t-22.5 28t-8.5 34t8.5 34.5t22.5 29t33.5 19.5t41.5 7q26 0 48.5 -9.5t36.5 -26.5l1 3q-7 8 -14 14v25z" />
    <glyph glyph-name="guillemotleft" unicode="&#xab;" horiz-adv-x="300" 
d="M26 198q0 6 5 13l97 111q11 12 23.5 12t22.5 -12l-108 -124l108 -124q-10 -12 -22.5 -12t-23.5 12l-97 111q-5 7 -5 13zM132 198q0 6 5 13l97 111q11 12 23.5 12t22.5 -12l-108 -124l108 -124q-10 -12 -22.5 -12t-23.5 12l-97 111q-5 7 -5 13z" />
    <glyph glyph-name="logicalnot" unicode="&#xac;" horiz-adv-x="400" 
d="M370 275v-120q0 -34 -34 -34v120h-306q0 34 34 34h306z" />
    <glyph glyph-name="registered" unicode="&#xae;" horiz-adv-x="546" 
d="M316 252q17 0 28.5 15.5t11.5 31.5q0 17 -11.5 32t-28.5 15h-115v-94h115zM201 122q0 -27 -34 -27v265q0 6 4.5 10.5t12.5 4.5h132q32 0 52.5 -22.5t20.5 -53.5q0 -17 -8.5 -34t-23.5 -28q34 -19 34 -62v-53q0 -27 -34 -27v80q0 23 -12 35t-29 12h-115v-100zM30 237
q0 51 19 95.5t52 77.5t77 52t95 19t95.5 -19t77.5 -52t52 -77.5t19 -95.5t-19 -95t-52 -77t-77.5 -52t-95.5 -19t-95 19t-77 52t-52 77t-19 95zM66 236q0 -44 16.5 -82t44.5 -66.5t65.5 -45t80.5 -16.5t81 16.5t66 45t44.5 66.5t16.5 82t-16.5 83t-44.5 68t-66 45.5
t-81 16.5t-80.5 -16.5t-65.5 -45.5t-44.5 -68t-16.5 -83z" />
    <glyph glyph-name="macron" unicode="&#xaf;" horiz-adv-x="216" 
d="M28 422v32h159v-32h-159z" />
    <glyph glyph-name="degree" unicode="&#xb0;" horiz-adv-x="216" 
d="M15 390q0 19 7 35.5t19.5 29t29.5 19.5t36 7t36 -7t29.5 -19.5t19.5 -29t7 -35.5t-7 -35.5t-19.5 -29t-29.5 -19.5t-36 -7t-36 7t-29.5 19.5t-19.5 29t-7 35.5zM52 390q0 -25 16 -42t39 -17t39 17t16 42t-16 42t-39 17t-39 -17t-16 -42z" />
    <glyph glyph-name="plusminus" unicode="&#xb1;" horiz-adv-x="400" 
d="M182 181h-152q0 34 34 34h118v88q0 36 36 36v-124h152q0 -34 -34 -34h-118v-88q0 -36 -36 -36v124zM30 -1q0 17 9.5 26.5t26.5 9.5h304q0 -17 -9.5 -26.5t-26.5 -9.5h-304z" />
    <glyph glyph-name="twosuperior" unicode="&#xb2;" horiz-adv-x="278" 
d="M212 238q26 0 26 -30h-182q-6 0 -11 3.5t-5 10.5q0 34 22 63t67 48q30 13 53.5 26.5t23.5 35.5q0 21 -19.5 37.5t-47.5 16.5q-27 0 -47 -16.5t-20 -37.5v-5t2 -11q-13 0 -24 9t-9 18q3 16 13 29.5t23.5 23t29.5 14.5t32 5q17 0 34.5 -5.5t32 -16t23.5 -26t9 -35.5
q0 -17 -8 -30.5t-21.5 -24t-31 -19t-35.5 -16.5q-29 -12 -45.5 -29.5t-21.5 -37.5h137z" />
    <glyph glyph-name="threesuperior" unicode="&#xb3;" horiz-adv-x="278" 
d="M55 420q3 21 26 39.5t58 18.5q17 0 32.5 -5.5t27 -15t18.5 -22t7 -27.5q0 -16 -8.5 -30t-22.5 -24q21 -11 33 -29t12 -39q0 -34 -28.5 -57.5t-70.5 -23.5q-21 0 -38.5 6.5t-30.5 16.5t-20.5 22.5t-8.5 24.5q-2 27 32 27q-1 -5 -1 -8.5v-7.5q0 -22 19.5 -37t47.5 -15
q27 0 46.5 15t19.5 37q0 21 -19.5 36.5t-46.5 15.5q-7 0 -12 4t-5 10q0 7 5 11t12 4q21 0 36.5 12t15.5 29t-15.5 29t-36.5 12q-22 0 -37 -12t-15 -29q0 -2 0.5 -5.5t2.5 -8.5q-16 -2 -27 5t-8 21z" />
    <glyph glyph-name="acute" unicode="&#xb4;" horiz-adv-x="212" 
d="M99 459q12 18 47 18h23l-84 -93q-7 -6 -16 -8.5t-26 -2.5z" />
    <glyph glyph-name="mu" unicode="&#xb5;" horiz-adv-x="390" 
d="M195 -6q-35 0 -64 13t-47 36l-1 -3q2 -3 6 -7.5t7 -6.5v-132q0 -36 -36 -36v451q0 36 36 36v-237q0 -16 7.5 -30.5t20.5 -26t31.5 -18t39.5 -6.5t39.5 6.5t31.5 18t20.5 26t7.5 30.5v201q0 36 36 36v-315q0 -36 -36 -36v32q3 2 7 6.5t6 7.5l-1 3q-18 -23 -47 -36t-64 -13
z" />
    <glyph glyph-name="paragraph" unicode="&#xb6;" horiz-adv-x="371" 
d="M311 -56q0 -36 -38 -36v541h-48v-505q0 -36 -38 -36v272h-4q-28 0 -56 9t-51 27t-37.5 44.5t-14.5 62.5q0 27 9 55t31.5 51t62 37.5t101.5 14.5q33 0 52.5 -1.5t30.5 -3.5v-532z" />
    <glyph glyph-name="periodcentered" unicode="&#xb7;" horiz-adv-x="230" 
d="M50 198q0 27 19 46t46 19t46 -19t19 -46t-19 -46t-46 -19t-46 19t-19 46z" />
    <glyph glyph-name="cedilla" unicode="&#xb8;" horiz-adv-x="175" 
d="M150 -80q0 -29 -23.5 -44.5t-50.5 -15.5q-23 0 -40 11q-20 14 -8 32q20 -16 48 -16q14 0 26 7.5t12 20.5q0 18 -21.5 25.5t-47.5 5.5l40 61h30l-28 -39q26 0 44.5 -14t18.5 -34z" />
    <glyph glyph-name="onesuperior" unicode="&#xb9;" horiz-adv-x="278" 
d="M154 475q8 0 13.5 -5t5.5 -12v-219q0 -34 -34 -34v240h-11q-14 0 -22 8t-8 22h56v0z" />
    <glyph glyph-name="ordmasculine" unicode="&#xba;" horiz-adv-x="294" 
d="M0 341q0 28 11 53t29.5 43.5t43 29.5t52.5 11q29 0 54 -11t44 -29.5t29.5 -43.5t10.5 -53q0 -27 -10.5 -51.5t-29.5 -43t-44 -29.5t-54 -11q-28 0 -52.5 11t-43 29.5t-29.5 43t-11 51.5zM34 341q0 -22 8 -41t22 -33.5t32.5 -22.5t39.5 -8q44 0 74 30t30 75q0 22 -8 41.5
t-22 34t-33 23t-41 8.5q-21 0 -39.5 -8.5t-32.5 -23t-22 -34t-8 -41.5z" />
    <glyph glyph-name="guillemotright" unicode="&#xbb;" horiz-adv-x="300" 
d="M171.002 198.012q0 -5.99902 -5 -12.999l-96.9941 -110.993q-10.999 -11.999 -23.499 -11.999q-12.499 0 -22.498 11.999l107.993 123.992l-107.993 123.993q9.99902 11.999 22.498 11.999q12.5 0 23.499 -11.999l96.9941 -110.993q5 -7 5 -13zM277.002 198.012
q0 -5.99902 -5 -12.999l-96.9941 -110.993q-10.999 -11.999 -23.499 -11.999q-12.499 0 -22.498 11.999l107.993 123.992l-107.993 123.993q9.99902 11.999 22.498 11.999q12.5 0 23.499 -11.999l96.9941 -110.993q5 -7 5 -13z" />
    <glyph glyph-name="onequarter" unicode="&#xbc;" horiz-adv-x="567" 
d="M158 475q8 0 13.5 -5t5.5 -12v-219q0 -34 -34 -34v240h-11q-14 0 -22 8t-8 22h56zM535 94q0 -30 -25 -30h-18v-40q0 -27 -34 -27v67h-132q-11 0 -15.5 8t2.5 17l149 175q8 8 18 4.5t12 -14.5v-160h43zM458 94v118l-101 -118h101zM385 479q15 32 48 16l-251 -499
q-16 -33 -48 -16z" />
    <glyph glyph-name="onehalf" unicode="&#xbd;" horiz-adv-x="567" 
d="M158 475q8 0 13.5 -5t5.5 -12v-219q0 -34 -34 -34v240h-11q-14 0 -22 8t-8 22h56zM497 30q26 0 26 -30h-182q-6 0 -11 3.5t-5 10.5q0 34 22 63t67 48q30 13 53.5 26.5t23.5 35.5q0 21 -19.5 37.5t-47.5 16.5q-27 0 -47 -16.5t-20 -37.5v-5t2 -11q-13 0 -24 9t-9 18
q3 16 13 29.5t23.5 23t29.5 14.5t32 5q17 0 34.5 -5.5t32 -16t23.5 -26t9 -35.5q0 -17 -8 -30.5t-21.5 -24t-31 -19t-35.5 -16.5q-29 -12 -45.5 -29.5t-21.5 -37.5h137zM385 479q15 32 48 16l-251 -499q-16 -33 -48 -16z" />
    <glyph glyph-name="threequarters" unicode="&#xbe;" horiz-adv-x="567" 
d="M535 94q0 -30 -25 -30h-18v-40q0 -27 -34 -27v67h-132q-11 0 -15.5 8t2.5 17l149 175q8 8 18 4.5t12 -14.5v-160h43zM458 94v118l-101 -118h101zM59 420q3 21 26 39.5t58 18.5q17 0 32.5 -5.5t27 -15t18.5 -22t7 -27.5q0 -16 -8.5 -30t-22.5 -24q21 -11 33 -29t12 -39
q0 -34 -28.5 -57.5t-70.5 -23.5q-21 0 -38.5 6.5t-30.5 16.5t-20.5 22.5t-8.5 24.5q-2 27 32 27q-1 -5 -1 -8.5v-7.5q0 -22 19.5 -37t47.5 -15q27 0 46.5 15t19.5 37q0 21 -19.5 36.5t-46.5 15.5q-7 0 -12 4t-5 10q0 7 5 11t12 4q21 0 36.5 12t15.5 29t-15.5 29t-36.5 12
q-22 0 -37 -12t-15 -29q0 -2 0.5 -5.5t2.5 -8.5q-16 -2 -27 5t-8 21zM385 479q15 32 48 16l-251 -499q-16 -33 -48 -16z" />
    <glyph glyph-name="questiondown" unicode="&#xbf;" horiz-adv-x="334" 
d="M152 205q0 38 38 38v-59q0 -24 -9 -41t-22.5 -31t-29 -26t-29 -25.5t-22.5 -30.5t-9 -40q0 -42 28.5 -70t73.5 -28q42 0 72 26.5t30 71.5v9.5t-1 9.5q16 0 28 -11t10 -27q-7 -52 -46 -82.5t-93 -30.5q-28 0 -53.5 9t-44.5 26t-30.5 41.5t-11.5 55.5q0 41 19 66.5
t41.5 44.5t41.5 37.5t19 45.5v21zM208 308q0 -16 -10.5 -27t-26.5 -11t-27 11t-11 27t11 26.5t27 10.5t26.5 -10.5t10.5 -26.5z" />
    <glyph glyph-name="Acircumflex" unicode="&#xc2;" horiz-adv-x="420" 
d="M397 46q6 -16 -1 -31t-22 -21l-62 161h-203l-63 -161q-16 6 -22.5 21t-0.5 31l168 423q4 12 19 12q14 0 19 -12zM123 191h175l-95 245l-1 -3l6 -20zM210 618q7 0 12 -5l85 -90q-11 -8 -24 -8t-21 8l-52 55l-52 -55q-8 -8 -21 -8t-24 8l85 90q5 5 12 5z" />
    <glyph glyph-name="Adieresis" unicode="&#xc4;" horiz-adv-x="420" 
d="M397 46q6 -16 -1 -31t-22 -21l-62 161h-203l-63 -161q-16 6 -22.5 21t-0.5 31l168 423q4 12 19 12q14 0 19 -12zM123 191h175l-95 245l-1 -3l6 -20zM111 576q0 14 10 24t24 10t24 -10t10 -24t-10 -24t-24 -10t-24 10t-10 24zM242 576q0 14 10 24t24 10t24 -10t10 -24
t-10 -24t-24 -10t-24 10t-10 24z" />
    <glyph glyph-name="Aring" unicode="&#xc5;" horiz-adv-x="420" 
d="M397 46q6 -16 -1 -31t-22 -21l-62 161h-203l-63 -161q-16 6 -22.5 21t-0.5 31l168 423q4 12 19 12q14 0 19 -12zM123 191h175l-95 245l-1 -3l6 -20zM144 601q0 23 18 44t49 21q30 0 48 -21t18 -44q0 -29 -18.5 -47.5t-47.5 -18.5q-28 0 -47.5 19t-19.5 47zM169 601
q0 -18 12 -30t30 -12t30 12t12 30q0 14 -11.5 27.5t-30.5 13.5q-20 0 -31 -13t-11 -28z" />
    <glyph glyph-name="AE" unicode="&#xc6;" horiz-adv-x="603" 
d="M307 475h240q36 0 36 -36h-238l21 -183h197q0 -36 -36 -36h-156l21 -184h201q0 -36 -36 -36h-204l-16 155h-203l-108 -161q-14 6 -17 21t8 31zM158 191h175l-27 245l-2 -3l1 -20z" />
    <glyph glyph-name="Ccedilla" unicode="&#xc7;" horiz-adv-x="464" 
d="M90 150q0 -24 11.5 -46t31.5 -38.5t46.5 -26t57.5 -9.5t58 9.5t47 26t31.5 38.5t11.5 46v10t-1 10q16 0 29.5 -11t8.5 -37q-6 -30 -24 -54t-43.5 -40.5t-56 -25t-61.5 -8.5q-33 0 -66 10.5t-60 30.5t-44 49t-17 66v176q0 36 16.5 64.5t43 48.5t60 31t67.5 11
q30 0 59.5 -7.5t55 -23.5t44 -39.5t26.5 -55.5q6 -27 -8 -38t-30 -11q1 5 1 10v10q0 24 -11.5 46t-31.5 38t-47 25.5t-58 9.5t-57.5 -9.5t-46.5 -25.5t-31.5 -38t-11.5 -46v-176zM306 -80q0 -29 -23.5 -44.5t-50.5 -15.5q-23 0 -40 11q-20 14 -8 32q20 -16 48 -16
q14 0 26 7.5t12 20.5q0 18 -21.5 25.5t-47.5 5.5l40 61h30l-28 -39q26 0 44.5 -14t18.5 -34z" />
    <glyph glyph-name="Ecircumflex" unicode="&#xca;" horiz-adv-x="466" 
d="M90 256h198q0 -36 -36 -36h-162v-70q0 -24 11.5 -46t31.5 -38.5t46.5 -26t57.5 -9.5t58 9.5t47 26t31.5 38.5t11.5 46v10t-1 10q16 0 29.5 -11t8.5 -37q-6 -30 -24 -54t-43.5 -40.5t-56 -25t-61.5 -8.5q-33 0 -66 10.5t-60 30.5t-44 49t-17 66v176q0 36 16.5 64.5
t43 48.5t60 31t67.5 11q30 0 59.5 -7.5t55 -23.5t44 -39.5t26.5 -55.5q6 -27 -8 -38t-30 -11q1 5 1 10v10q0 24 -11.5 46t-31.5 38t-47 25.5t-58 9.5t-57.5 -9.5t-46.5 -25.5t-31.5 -38t-11.5 -46v-70zM240 618q7 0 12 -5l85 -90q-11 -8 -24 -8t-21 8l-52 55l-52 -55
q-8 -8 -21 -8t-24 8l85 90q5 5 12 5z" />
    <glyph glyph-name="Edieresis" unicode="&#xcb;" horiz-adv-x="464" 
d="M90 256h198q0 -36 -36 -36h-162v-70q0 -24 11.5 -46t31.5 -38.5t46.5 -26t57.5 -9.5t58 9.5t47 26t31.5 38.5t11.5 46v10t-1 10q16 0 29.5 -11t8.5 -37q-6 -30 -24 -54t-43.5 -40.5t-56 -25t-61.5 -8.5q-33 0 -66 10.5t-60 30.5t-44 49t-17 66v176q0 36 16.5 64.5
t43 48.5t60 31t67.5 11q30 0 59.5 -7.5t55 -23.5t44 -39.5t26.5 -55.5q6 -27 -8 -38t-30 -11q1 5 1 10v10q0 24 -11.5 46t-31.5 38t-47 25.5t-58 9.5t-57.5 -9.5t-46.5 -25.5t-31.5 -38t-11.5 -46v-70zM141 576q0 14 10 24t24 10t24 -10t10 -24t-10 -24t-24 -10t-24 10
t-10 24zM272 576q0 14 10 24t24 10t24 -10t10 -24t-10 -24t-24 -10t-24 10t-10 24z" />
    <glyph glyph-name="Icircumflex" unicode="&#xce;" horiz-adv-x="160" 
d="M100 34q0 -40 -40 -40v447q0 40 40 40v-447zM81 618q7 0 12 -5l85 -90q-11 -8 -24 -8t-21 8l-52 55l-52 -55q-8 -8 -21 -8t-24 8l85 90q5 5 12 5z" />
    <glyph glyph-name="Idieresis" unicode="&#xcf;" horiz-adv-x="160" 
d="M100 34q0 -40 -40 -40v447q0 40 40 40v-447zM-18 576q0 14 10 24t24 10t24 -10t10 -24t-10 -24t-24 -10t-24 10t-10 24zM113 576q0 14 10 24t24 10t24 -10t10 -24t-10 -24t-24 -10t-24 10t-10 24z" />
    <glyph glyph-name="Eth" unicode="&#xd0;" horiz-adv-x="484" 
d="M247 475q33 0 66 -10.5t60 -30t44 -48.5t17 -66v-164q0 -36 -16.5 -64.5t-43 -49t-60 -31.5t-67.5 -11h-167q-9 0 -14.5 6t-5.5 14v201h-60q0 34 34 34h26v200q0 20 20 20h167zM100 439v-184h113q0 -34 -34 -34h-79v-185h147q30 0 57 9.5t47.5 26t32 38.5t11.5 46v164
q0 24 -11.5 46t-32 38t-47.5 25.5t-57 9.5h-147z" />
    <glyph glyph-name="Ntilde" unicode="&#xd1;" horiz-adv-x="494" 
d="M60 441q0 40 40 40l13 -19t34.5 -50t48.5 -70t56 -80l152 -218l1 3l-11 21v413q40 0 40 -40v-407q0 -40 -40 -40l-13.5 18.5t-34.5 49t-48.5 70t-55.5 80.5q-67 96 -152 219l-1 -3l11 -21v-373q0 -40 -40 -40v447zM257 584q8 -7 16 -13t18 -6q11 0 18 13t-1 29
q16 6 24.5 -4t6.5 -21q-3 -20 -15.5 -32.5t-32.5 -12.5q-18 0 -29 7.5t-24 17.5q-8 7 -16 13t-18 6q-11 0 -18 -13t1 -29q-16 -6 -24.5 4t-6.5 21q3 20 15.5 32.5t32.5 12.5q18 0 29 -7.5t24 -17.5z" />
    <glyph glyph-name="Ocircumflex" unicode="&#xd4;" horiz-adv-x="567" 
d="M40 237q0 51 19 95.5t52 77.5t77 52t95 19t95.5 -19t77.5 -52t52 -77.5t19 -95.5t-19 -95t-52 -77t-77.5 -52t-95.5 -19t-95 19t-77 52t-52 77t-19 95zM80 237q0 -43 16 -81t43.5 -66t64.5 -44t79 -16t79.5 16t65 44t43.5 66t16 81t-16 81t-43.5 66t-65 44.5t-79.5 16.5
t-79 -16.5t-64.5 -44.5t-43.5 -66t-16 -81zM283 618q7 0 12 -5l85 -90q-11 -8 -24 -8t-21 8l-52 55l-52 -55q-8 -8 -21 -8t-24 8l85 90q5 5 12 5z" />
    <glyph glyph-name="Odieresis" unicode="&#xd6;" horiz-adv-x="567" 
d="M40 237q0 51 19 95.5t52 77.5t77 52t95 19t95.5 -19t77.5 -52t52 -77.5t19 -95.5t-19 -95t-52 -77t-77.5 -52t-95.5 -19t-95 19t-77 52t-52 77t-19 95zM80 237q0 -43 16 -81t43.5 -66t64.5 -44t79 -16t79.5 16t65 44t43.5 66t16 81t-16 81t-43.5 66t-65 44.5t-79.5 16.5
t-79 -16.5t-64.5 -44.5t-43.5 -66t-16 -81zM184 576q0 14 10 24t24 10t24 -10t10 -24t-10 -24t-24 -10t-24 10t-10 24zM315 576q0 14 10 24t24 10t24 -10t10 -24t-10 -24t-24 -10t-24 10t-10 24z" />
    <glyph glyph-name="multiply" unicode="&#xd7;" horiz-adv-x="400" 
d="M346 75q-25 -23 -48 0l-245 245q25 23 48 0zM298 320q23 23 48 0l-245 -245q-23 -23 -48 0z" />
    <glyph glyph-name="Oslash" unicode="&#xd8;" horiz-adv-x="567" 
d="M40 237q0 51 19 95.5t52 77.5t77 52t95 19t95.5 -19t77.5 -52t52 -77.5t19 -95.5t-19 -95t-52 -77t-77.5 -52t-95.5 -19t-95 19t-77 52t-52 77t-19 95zM80 237q0 -43 16 -81t43.5 -66t64.5 -44t79 -16t79.5 16t65 44t43.5 66t16 81t-16 81t-43.5 66t-65 44.5t-79.5 16.5
t-79 -16.5t-64.5 -44.5t-43.5 -66t-16 -81zM385 479q15 32 48 16l-251 -499q-16 -33 -48 -16z" />
    <glyph glyph-name="Ucircumflex" unicode="&#xdb;" horiz-adv-x="494" 
d="M100 150q0 -24 11.5 -46t31.5 -38.5t46.5 -26t57.5 -9.5t57.5 9.5t46.5 26t31.5 38.5t11.5 46v291q0 40 40 40v-331q0 -37 -17 -66t-44 -49t-60 -30.5t-66 -10.5t-66 10.5t-60 30.5t-44 49t-17 66v291q0 40 40 40v-331zM247 618q7 0 12 -5l85 -90q-11 -8 -24 -8t-21 8
l-52 55l-52 -55q-8 -8 -21 -8t-24 8l85 90q5 5 12 5z" />
    <glyph glyph-name="Udieresis" unicode="&#xdc;" horiz-adv-x="494" 
d="M100 150q0 -24 11.5 -46t31.5 -38.5t46.5 -26t57.5 -9.5t57.5 9.5t46.5 26t31.5 38.5t11.5 46v291q0 40 40 40v-331q0 -37 -17 -66t-44 -49t-60 -30.5t-66 -10.5t-66 10.5t-60 30.5t-44 49t-17 66v291q0 40 40 40v-331zM148 576q0 14 10 24t24 10t24 -10t10 -24t-10 -24
t-24 -10t-24 10t-10 24zM279 576q0 14 10 24t24 10t24 -10t10 -24t-10 -24t-24 -10t-24 10t-10 24z" />
    <glyph glyph-name="Thorn" unicode="&#xde;" horiz-adv-x="395" 
d="M358 267q0 -35 -14 -63t-39.5 -47.5t-61 -30t-78.5 -10.5q-15 0 -33 0.5t-33 3.5v-87q0 -19 -10.5 -29t-28.5 -10v447q0 18 10.5 28.5t28.5 10.5v-90q20 5 43.5 6t40.5 1q91 0 136 -42q39 -36 39 -88zM319 262q0 29 -11 48.5t-30 31.5t-43.5 17t-51.5 5q-26 0 -49 -2.5
t-35 -6.5v-199q18 -4 35 -5t33 -1q74 0 113 29.5t39 82.5z" />
    <glyph glyph-name="uni00DF" unicode="&#xdf;" horiz-adv-x="371" 
d="M60 354q0 57 29 92t89 35q25 0 46.5 -9.5t36 -25t23 -37.5t8.5 -48q0 -33 -15.5 -58.5t-45.5 -41.5q45 -14 67.5 -47t22.5 -80q0 -65 -29 -102.5t-85 -37.5q-13 0 -20 1.5t-13 3.5q-28 10 -13 40q10 -5 23 -9t26 -4q35 0 53.5 26.5t18.5 76.5q0 59 -30.5 84.5t-90.5 25.5
v32q43 2 66.5 22t23.5 70q0 40 -19.5 63t-60.5 23q-22 0 -35.5 -8t-21.5 -21.5t-11.5 -29.5t-3.5 -33v-409q0 -40 -39 -40v446z" />
    <glyph glyph-name="acircumflex" unicode="&#xe2;" horiz-adv-x="370" 
d="M175 221q35 0 64 -13t47 -36l1 3q-2 3 -6 7.5t-7 6.5v43q0 32 -28.5 56t-70.5 24q-33 0 -60.5 -19t-41.5 -46q-12 9 -15.5 23.5t7.5 26.5q19 23 48 35.5t62 12.5q24 0 48 -7.5t43.5 -22t31.5 -35.5t12 -48v-202q0 -36 -36 -36v32q3 2 7 6.5t6 7.5l-1 3q-18 -23 -47 -36
t-64 -13q-28 0 -52.5 9t-43 24t-29 35.5t-10.5 44.5t10.5 44.5t29 36t43 24.5t52.5 9zM175 27q43 0 71 24t28 56q0 16 -7.5 30.5t-20.5 26t-31.5 18t-39.5 6.5t-39.5 -6.5t-31.5 -18t-20.5 -26t-7.5 -30.5q0 -32 28 -56t71 -24zM185 478q7 0 12 -5l85 -90q-11 -8 -24 -8
t-21 8l-52 55l-52 -55q-8 -8 -21 -8t-24 8l85 90q5 5 12 5z" />
    <glyph glyph-name="adieresis" unicode="&#xe4;" horiz-adv-x="370" 
d="M175 221q35 0 64 -13t47 -36l1 3q-2 3 -6 7.5t-7 6.5v43q0 32 -28.5 56t-70.5 24q-33 0 -60.5 -19t-41.5 -46q-12 9 -15.5 23.5t7.5 26.5q19 23 48 35.5t62 12.5q24 0 48 -7.5t43.5 -22t31.5 -35.5t12 -48v-202q0 -36 -36 -36v32q3 2 7 6.5t6 7.5l-1 3q-18 -23 -47 -36
t-64 -13q-28 0 -52.5 9t-43 24t-29 35.5t-10.5 44.5t10.5 44.5t29 36t43 24.5t52.5 9zM175 27q43 0 71 24t28 56q0 16 -7.5 30.5t-20.5 26t-31.5 18t-39.5 6.5t-39.5 -6.5t-31.5 -18t-20.5 -26t-7.5 -30.5q0 -32 28 -56t71 -24zM86 436q0 14 10 24t24 10t24 -10t10 -24
t-10 -24t-24 -10t-24 10t-10 24zM217 436q0 14 10 24t24 10t24 -10t10 -24t-10 -24t-24 -10t-24 10t-10 24z" />
    <glyph glyph-name="aring" unicode="&#xe5;" horiz-adv-x="370" 
d="M175 221q35 0 64 -13t47 -36l1 3q-2 3 -6 7.5t-7 6.5v43q0 32 -28.5 56t-70.5 24q-33 0 -60.5 -19t-41.5 -46q-12 9 -15.5 23.5t7.5 26.5q19 23 48 35.5t62 12.5q24 0 48 -7.5t43.5 -22t31.5 -35.5t12 -48v-202q0 -36 -36 -36v32q3 2 7 6.5t6 7.5l-1 3q-18 -23 -47 -36
t-64 -13q-28 0 -52.5 9t-43 24t-29 35.5t-10.5 44.5t10.5 44.5t29 36t43 24.5t52.5 9zM175 27q43 0 71 24t28 56q0 16 -7.5 30.5t-20.5 26t-31.5 18t-39.5 6.5t-39.5 -6.5t-31.5 -18t-20.5 -26t-7.5 -30.5q0 -32 28 -56t71 -24zM119 461q0 23 18 44t49 21q30 0 48 -21
t18 -44q0 -29 -18.5 -47.5t-47.5 -18.5q-28 0 -47.5 19t-19.5 47zM144 461q0 -18 12 -30t30 -12t30 12t12 30q0 14 -11.5 27.5t-30.5 13.5q-20 0 -31 -13t-11 -28z" />
    <glyph glyph-name="ae" unicode="&#xe6;" horiz-adv-x="594" 
d="M274 210v22q0 32 -28.5 56t-70.5 24q-33 0 -60.5 -19t-41.5 -46q-12 9 -15.5 23.5t7.5 26.5q19 23 48 35.5t62 12.5q34 0 66.5 -15t51.5 -42q17 26 47.5 41.5t68.5 15.5q28 0 52.5 -9t43 -24.5t29 -36t10.5 -44.5v-36q0 -8 -5.5 -13t-12.5 -5h-216v-70q0 -32 28 -56
t71 -24q21 0 39.5 6.5t31.5 18t20.5 26t7.5 30.5q6 0 12 -3.5t10.5 -9t6 -13.5t-2.5 -17q-15 -32 -48.5 -51.5t-76.5 -19.5q-38 0 -68.5 15.5t-47.5 41.5q-19 -27 -51.5 -42t-66.5 -15q-28 0 -52.5 8t-43 22.5t-29 34t-10.5 43.5t10.5 43.5t29 34t43 22.5t52.5 8h99z
M175 177q-43 0 -71 -21.5t-28 -53.5t28 -53.5t71 -21.5t71 24t28 56v70h-99zM310 210h198v21q0 16 -7.5 30.5t-20.5 26t-31.5 18t-39.5 6.5t-39 -6.5t-31.5 -17.5t-21 -26t-7.5 -31v-21z" />
    <glyph glyph-name="ccedilla" unicode="&#xe7;" horiz-adv-x="344" 
d="M185 345q43 0 76.5 -19.5t48.5 -51.5q4 -9 2.5 -17t-6 -13.5t-10.5 -9t-12 -3.5q0 16 -7.5 30.5t-20.5 26t-31.5 18t-39.5 6.5t-39.5 -6.5t-31.5 -18t-20.5 -26t-7.5 -30.5v-124q0 -32 28 -56t71 -24q21 0 39.5 6.5t31.5 18t20.5 26t7.5 30.5q6 0 12 -3.5t10.5 -9
t6 -13.5t-2.5 -17q-15 -32 -48.5 -51.5t-76.5 -19.5q-28 0 -52.5 9t-43 24t-29 35.5t-10.5 44.5v124q0 24 10.5 44.5t29 36t43 24.5t52.5 9zM251 -80q0 -29 -23.5 -44.5t-50.5 -15.5q-23 0 -40 11q-20 14 -8 32q20 -16 48 -16q14 0 26 7.5t12 20.5q0 18 -21.5 25.5
t-47.5 5.5l40 61h30l-28 -39q26 0 44.5 -14t18.5 -34z" />
    <glyph glyph-name="ecircumflex" unicode="&#xea;" horiz-adv-x="370" 
d="M86 107q0 -32 28 -56t71 -24q21 0 39.5 6.5t31.5 18t20.5 26t7.5 30.5q6 0 12 -3.5t10.5 -9t6 -13.5t-2.5 -17q-15 -32 -48.5 -51.5t-76.5 -19.5q-28 0 -52.5 9t-43 24t-29 35.5t-10.5 44.5v124q0 24 10.5 44.5t29 36t43 24.5t52.5 9t52.5 -9t43 -24.5t29 -36t10.5 -44.5
v-36q0 -8 -5.5 -13t-12.5 -5h-216v-70zM86 210h198v21q0 16 -7.5 30.5t-20.5 26t-31.5 18t-39.5 6.5t-39.5 -6.5t-31.5 -18t-20.5 -26t-7.5 -30.5v-21zM185 478q7 0 12 -5l85 -90q-11 -8 -24 -8t-21 8l-52 55l-52 -55q-8 -8 -21 -8t-24 8l85 90q5 5 12 5z" />
    <glyph glyph-name="edieresis" unicode="&#xeb;" horiz-adv-x="370" 
d="M86 107q0 -32 28 -56t71 -24q21 0 39.5 6.5t31.5 18t20.5 26t7.5 30.5q6 0 12 -3.5t10.5 -9t6 -13.5t-2.5 -17q-15 -32 -48.5 -51.5t-76.5 -19.5q-28 0 -52.5 9t-43 24t-29 35.5t-10.5 44.5v124q0 24 10.5 44.5t29 36t43 24.5t52.5 9t52.5 -9t43 -24.5t29 -36t10.5 -44.5
v-36q0 -8 -5.5 -13t-12.5 -5h-216v-70zM86 210h198v21q0 16 -7.5 30.5t-20.5 26t-31.5 18t-39.5 6.5t-39.5 -6.5t-31.5 -18t-20.5 -26t-7.5 -30.5v-21zM86 436q0 14 10 24t24 10t24 -10t10 -24t-10 -24t-24 -10t-24 10t-10 24zM217 436q0 14 10 24t24 10t24 -10t10 -24
t-10 -24t-24 -10t-24 10t-10 24z" />
    <glyph glyph-name="icircumflex" unicode="&#xee;" horiz-adv-x="156" 
d="M60 309q0 36 36 36v-315q0 -36 -36 -36v315zM80 478q7 0 12 -5l85 -90q-11 -8 -24 -8t-21 8l-52 55l-52 -55q-8 -8 -21 -8t-24 8l85 90q5 5 12 5z" />
    <glyph glyph-name="idieresis" unicode="&#xef;" horiz-adv-x="156" 
d="M60 309q0 36 36 36v-315q0 -36 -36 -36v315zM-20 436q0 14 10 24t24 10t24 -10t10 -24t-10 -24t-24 -10t-24 10t-10 24zM111 436q0 14 10 24t24 10t24 -10t10 -24t-10 -24t-24 -10t-24 10t-10 24z" />
    <glyph glyph-name="eth" unicode="&#xf0;" horiz-adv-x="418" 
d="M105 367q-14 31 16 45l58 27q-18 11 -37 20t-39 17l15 31q26 -11 51.5 -23t48.5 -27l93 43q14 -31 -16 -45l-45 -21q30 -24 55 -54t43 -67q15 -31 22.5 -64t7.5 -71q0 -48 -15.5 -83t-40 -57.5t-55 -33t-61.5 -10.5q-37 0 -67.5 13t-52.5 36t-34 54t-12 67
q0 42 14.5 75.5t38.5 57t54 36t62 12.5q36 0 70 -16t59 -46l1 3q-4 5 -10 12t-14 13q-40 63 -101 106zM339 173q0 36 -8.5 60t-23.5 41q-17 14 -40.5 26.5t-57.5 12.5q-35 0 -60 -13.5t-41 -35t-24 -48t-8 -51.5q0 -33 11.5 -59t29.5 -44t41 -27t47 -9q28 0 52.5 9.5
t42.5 28t28.5 46t10.5 63.5z" />
    <glyph glyph-name="ntilde" unicode="&#xf1;" horiz-adv-x="390" 
d="M60 309q0 36 36 36v-32q-3 -2 -7 -6.5t-6 -7.5l1 -3q18 23 47 36t64 13q28 0 52.5 -9t43 -24.5t29 -36t10.5 -44.5v-201q0 -36 -36 -36v237q0 16 -7.5 30.5t-20.5 26t-31.5 18t-39.5 6.5t-39.5 -6.5t-31.5 -18t-20.5 -26t-7.5 -30.5v-201q0 -36 -36 -36v315zM205 444
q8 -7 16 -13t18 -6q11 0 18 13t-1 29q16 6 24.5 -4t6.5 -21q-3 -20 -15.5 -32.5t-32.5 -12.5q-18 0 -29 7.5t-24 17.5q-8 7 -16 13t-18 6q-11 0 -18 -13t1 -29q-16 -6 -24.5 4t-6.5 21q3 20 15.5 32.5t32.5 12.5q18 0 29 -7.5t24 -17.5z" />
    <glyph glyph-name="ocircumflex" unicode="&#xf4;" horiz-adv-x="430" 
d="M40 169q0 36 13.5 68t37.5 56t56 38t68 14t68 -14t56 -38t38 -56t14 -68t-14 -68t-38 -56t-56 -37.5t-68 -13.5t-68 13.5t-56 37.5t-37.5 56t-13.5 68zM76 169q0 -30 11 -55.5t29.5 -45t44 -30.5t54.5 -11t54.5 11t44.5 30.5t30 45t11 55.5t-11 56t-30 45.5t-44.5 30.5
t-54.5 11t-54.5 -11t-44 -30.5t-29.5 -45.5t-11 -56zM215 478q7 0 12 -5l85 -90q-11 -8 -24 -8t-21 8l-52 55l-52 -55q-8 -8 -21 -8t-24 8l85 90q5 5 12 5z" />
    <glyph glyph-name="odieresis" unicode="&#xf6;" horiz-adv-x="430" 
d="M40 169q0 36 13.5 68t37.5 56t56 38t68 14t68 -14t56 -38t38 -56t14 -68t-14 -68t-38 -56t-56 -37.5t-68 -13.5t-68 13.5t-56 37.5t-37.5 56t-13.5 68zM76 169q0 -30 11 -55.5t29.5 -45t44 -30.5t54.5 -11t54.5 11t44.5 30.5t30 45t11 55.5t-11 56t-30 45.5t-44.5 30.5
t-54.5 11t-54.5 -11t-44 -30.5t-29.5 -45.5t-11 -56zM116 436q0 14 10 24t24 10t24 -10t10 -24t-10 -24t-24 -10t-24 10t-10 24zM247 436q0 14 10 24t24 10t24 -10t10 -24t-10 -24t-24 -10t-24 10t-10 24z" />
    <glyph glyph-name="divide" unicode="&#xf7;" horiz-adv-x="400" 
d="M369 216q0 -17 -9.5 -26.5t-26.5 -9.5h-303q0 17 9.5 26.5t26.5 9.5h303zM163 315q0 15 11 26t26 11t26 -11t11 -26t-11 -26t-26 -11t-26 11t-11 26zM163 81q0 15 11 26t26 11t26 -11t11 -26t-11 -26t-26 -11t-26 11t-11 26z" />
    <glyph glyph-name="oslash" unicode="&#xf8;" horiz-adv-x="431" 
d="M283 343q15 32 48 16l-183 -363q-16 -33 -48 -16zM40 169q0 36 13.5 68t37.5 56t56 38t68 14t68 -14t56 -38t38 -56t14 -68t-14 -68t-38 -56t-56 -37.5t-68 -13.5t-68 13.5t-56 37.5t-37.5 56t-13.5 68zM76 169q0 -30 11 -55.5t29.5 -45t44 -30.5t54.5 -11t54.5 11
t44.5 30.5t30 45t11 55.5t-11 56t-30 45.5t-44.5 30.5t-54.5 11t-54.5 -11t-44 -30.5t-29.5 -45.5t-11 -56z" />
    <glyph glyph-name="ucircumflex" unicode="&#xfb;" horiz-adv-x="390" 
d="M330 30q0 -36 -36 -36v32q3 2 7 6.5t6 7.5l-1 3q-18 -23 -47 -36t-64 -13q-28 0 -52.5 9t-43 24.5t-29 36t-10.5 44.5v201q0 36 36 36v-237q0 -16 7.5 -30.5t20.5 -26t31.5 -18t39.5 -6.5t39.5 6.5t31.5 18t20.5 26t7.5 30.5v201q0 36 36 36v-315zM195 478q7 0 12 -5
l85 -90q-11 -8 -24 -8t-21 8l-52 55l-52 -55q-8 -8 -21 -8t-24 8l85 90q5 5 12 5z" />
    <glyph glyph-name="udieresis" unicode="&#xfc;" horiz-adv-x="390" 
d="M330 30q0 -36 -36 -36v32q3 2 7 6.5t6 7.5l-1 3q-18 -23 -47 -36t-64 -13q-28 0 -52.5 9t-43 24.5t-29 36t-10.5 44.5v201q0 36 36 36v-237q0 -16 7.5 -30.5t20.5 -26t31.5 -18t39.5 -6.5t39.5 6.5t31.5 18t20.5 26t7.5 30.5v201q0 36 36 36v-315zM96 436q0 14 10 24
t24 10t24 -10t10 -24t-10 -24t-24 -10t-24 10t-10 24zM227 436q0 14 10 24t24 10t24 -10t10 -24t-10 -24t-24 -10t-24 10t-10 24z" />
    <glyph glyph-name="thorn" unicode="&#xfe;" horiz-adv-x="390" 
d="M96 108q0 -16 7.5 -30.5t20.5 -26t31.5 -18t39.5 -6.5t39.5 6.5t31.5 18t20.5 26t7.5 30.5v124q0 32 -28 56t-71 24t-71 -24t-28 -56v-124zM96 -110q0 -15 -8 -23.5t-28 -8.5v587q0 36 36 36v-168q-3 -2 -7 -6.5t-6 -7.5l1 -3q18 23 47 36t64 13q28 0 52.5 -9t43 -24
t29 -35.5t10.5 -44.5v-124q0 -24 -10.5 -44.5t-29 -36t-43 -24.5t-52.5 -9q-35 0 -64 13t-47 36l-1 -3q2 -3 6 -7.5t7 -6.5v-136z" />
    <glyph glyph-name="ydieresis" unicode="&#xff;" horiz-adv-x="336" 
d="M57 -140q-39 -9 -42 27q7 0 12 0.5t13 2.5q36 8 57.5 27t37.5 57l15 36l-135 332q14 6 26 0.5t17 -18.5l108 -269l-6 -20l1 -3l117 292q5 13 17 18.5t26 -0.5l-154 -378q-18 -45 -43.5 -69.5t-66.5 -34.5zM69 436q0 14 10 24t24 10t24 -10t10 -24t-10 -24t-24 -10t-24 10
t-10 24zM200 436q0 14 10 24t24 10t24 -10t10 -24t-10 -24t-24 -10t-24 10t-10 24z" />
    <glyph glyph-name="Abreve" unicode="&#x102;" horiz-adv-x="420" 
d="M397 46q6 -16 -1 -31t-22 -21l-62 161h-203l-63 -161q-16 6 -22.5 21t-0.5 31l168 423q4 12 19 12q14 0 19 -12zM123 191h175l-95 245l-1 -3l6 -20zM210 513q-17 0 -35.5 5.5t-34.5 16t-26.5 26t-11.5 35.5q-1 10 9 17.5t24 7.5q0 -32 21 -53t54 -21t54 21t21 53
q14 0 24 -7.5t9 -17.5q-1 -20 -11.5 -35.5t-26.5 -26t-35 -16t-35 -5.5z" />
    <glyph glyph-name="abreve" unicode="&#x103;" horiz-adv-x="370" 
d="M175 221q35 0 64 -13t47 -36l1 3q-2 3 -6 7.5t-7 6.5v43q0 32 -28.5 56t-70.5 24q-33 0 -60.5 -19t-41.5 -46q-12 9 -15.5 23.5t7.5 26.5q19 23 48 35.5t62 12.5q24 0 48 -7.5t43.5 -22t31.5 -35.5t12 -48v-202q0 -36 -36 -36v32q3 2 7 6.5t6 7.5l-1 3q-18 -23 -47 -36
t-64 -13q-28 0 -52.5 9t-43 24t-29 35.5t-10.5 44.5t10.5 44.5t29 36t43 24.5t52.5 9zM175 27q43 0 71 24t28 56q0 16 -7.5 30.5t-20.5 26t-31.5 18t-39.5 6.5t-39.5 -6.5t-31.5 -18t-20.5 -26t-7.5 -30.5q0 -32 28 -56t71 -24zM175 373q-17 0 -35.5 5.5t-34.5 16t-26.5 26
t-11.5 35.5q-1 10 9 17.5t24 7.5q0 -32 21 -53t54 -21t54 21t21 53q14 0 24 -7.5t9 -17.5q-1 -20 -11.5 -35.5t-26.5 -26t-35 -16t-35 -5.5z" />
    <glyph glyph-name="Cacute" unicode="&#x106;" horiz-adv-x="464" 
d="M90 150q0 -24 11.5 -46t31.5 -38.5t46.5 -26t57.5 -9.5t58 9.5t47 26t31.5 38.5t11.5 46v10t-1 10q16 0 29.5 -11t8.5 -37q-6 -30 -24 -54t-43.5 -40.5t-56 -25t-61.5 -8.5q-33 0 -66 10.5t-60 30.5t-44 49t-17 66v176q0 36 16.5 64.5t43 48.5t60 31t67.5 11
q30 0 59.5 -7.5t55 -23.5t44 -39.5t26.5 -55.5q6 -27 -8 -38t-30 -11q1 5 1 10v10q0 24 -11.5 46t-31.5 38t-47 25.5t-58 9.5t-57.5 -9.5t-46.5 -25.5t-31.5 -38t-11.5 -46v-176zM272 599q12 18 47 18h23l-84 -93q-7 -6 -16 -8.5t-26 -2.5z" />
    <glyph glyph-name="cacute" unicode="&#x107;" horiz-adv-x="344" 
d="M185 345q43 0 76.5 -19.5t48.5 -51.5q4 -9 2.5 -17t-6 -13.5t-10.5 -9t-12 -3.5q0 16 -7.5 30.5t-20.5 26t-31.5 18t-39.5 6.5t-39.5 -6.5t-31.5 -18t-20.5 -26t-7.5 -30.5v-124q0 -32 28 -56t71 -24q21 0 39.5 6.5t31.5 18t20.5 26t7.5 30.5q6 0 12 -3.5t10.5 -9
t6 -13.5t-2.5 -17q-15 -32 -48.5 -51.5t-76.5 -19.5q-28 0 -52.5 9t-43 24t-29 35.5t-10.5 44.5v124q0 24 10.5 44.5t29 36t43 24.5t52.5 9zM218 459q12 18 47 18h23l-84 -93q-7 -6 -16 -8.5t-26 -2.5z" />
    <glyph glyph-name="Ccaron" unicode="&#x10c;" horiz-adv-x="464" 
d="M90 150q0 -24 11.5 -46t31.5 -38.5t46.5 -26t57.5 -9.5t58 9.5t47 26t31.5 38.5t11.5 46v10t-1 10q16 0 29.5 -11t8.5 -37q-6 -30 -24 -54t-43.5 -40.5t-56 -25t-61.5 -8.5q-33 0 -66 10.5t-60 30.5t-44 49t-17 66v176q0 36 16.5 64.5t43 48.5t60 31t67.5 11
q30 0 59.5 -7.5t55 -23.5t44 -39.5t26.5 -55.5q6 -27 -8 -38t-30 -11q1 5 1 10v10q0 24 -11.5 46t-31.5 38t-47 25.5t-58 9.5t-57.5 -9.5t-46.5 -25.5t-31.5 -38t-11.5 -46v-176z" />
    <glyph glyph-name="ccaron" unicode="&#x10d;" horiz-adv-x="344" 
d="M185 345q43 0 76.5 -19.5t48.5 -51.5q4 -9 2.5 -17t-6 -13.5t-10.5 -9t-12 -3.5q0 16 -7.5 30.5t-20.5 26t-31.5 18t-39.5 6.5t-39.5 -6.5t-31.5 -18t-20.5 -26t-7.5 -30.5v-124q0 -32 28 -56t71 -24q21 0 39.5 6.5t31.5 18t20.5 26t7.5 30.5q6 0 12 -3.5t10.5 -9
t6 -13.5t-2.5 -17q-15 -32 -48.5 -51.5t-76.5 -19.5q-28 0 -52.5 9t-43 24t-29 35.5t-10.5 44.5v124q0 24 10.5 44.5t29 36t43 24.5t52.5 9z" />
    <glyph glyph-name="Dcroat" unicode="&#x110;" horiz-adv-x="484" 
d="M247 475q33 0 66 -10.5t60 -30t44 -48.5t17 -66v-164q0 -36 -16.5 -64.5t-43 -49t-60 -31.5t-67.5 -11h-167q-9 0 -14.5 6t-5.5 14v201h-60q0 34 34 34h26v200q0 20 20 20h167zM100 439v-184h113q0 -34 -34 -34h-79v-185h147q30 0 57 9.5t47.5 26t32 38.5t11.5 46v164
q0 24 -11.5 46t-32 38t-47.5 25.5t-57 9.5h-147z" />
    <glyph glyph-name="dcroat" unicode="&#x111;" horiz-adv-x="380" 
d="M284 396h-60q0 34 34 34h26v15q0 36 36 36v-51h60q0 -34 -34 -34h-26v-366q0 -36 -36 -36v32q3 2 7 6.5t6 7.5l-1 3q-18 -23 -47 -36t-64 -13q-28 0 -52.5 9t-43 24t-29 35.5t-10.5 44.5v124q0 24 10.5 44.5t29 36t43 24.5t52.5 9q35 0 64 -13t47 -36l1 3q-2 3 -6 7.5
t-7 6.5v83zM284 231q0 16 -7.5 30.5t-20.5 26t-31.5 18t-39.5 6.5t-39.5 -6.5t-31.5 -18t-20.5 -26t-7.5 -30.5v-124q0 -32 28 -56t71 -24t71 24t28 56v124z" />
    <glyph glyph-name="Gbreve" unicode="&#x11e;" horiz-adv-x="474" 
d="M424 150q0 -37 -17 -66t-44 -49t-60 -30.5t-66 -10.5t-66 10.5t-60 30.5t-44 49t-17 66v176q0 36 16.5 64.5t43 48.5t60 31t67.5 11q30 0 59.5 -7.5t55 -23.5t44 -39.5t26.5 -55.5q6 -27 -8 -38t-30 -11q1 5 1 10v10q0 24 -11.5 46t-31.5 38t-47 25.5t-58 9.5t-57.5 -9.5
t-46.5 -25.5t-31.5 -38t-11.5 -46v-176q0 -24 11.5 -46t31.5 -38.5t46.5 -26t57.5 -9.5t57.5 9.5t46.5 26t31.5 38.5t11.5 46v70h-146q0 36 36 36h130q8 0 14 -6t6 -14v-86v0zM240 513q-17 0 -35.5 5.5t-34.5 16t-26.5 26t-11.5 35.5q-1 10 9 17.5t24 7.5q0 -32 21 -53
t54 -21t54 21t21 53q14 0 24 -7.5t9 -17.5q-1 -20 -11.5 -35.5t-26.5 -26t-35 -16t-35 -5.5z" />
    <glyph glyph-name="gbreve" unicode="&#x11f;" horiz-adv-x="380" 
d="M284 231q0 16 -7.5 30.5t-20.5 26t-31.5 18t-39.5 6.5t-39.5 -6.5t-31.5 -18t-20.5 -26t-7.5 -30.5v-124q0 -32 28 -56t71 -24t71 24t28 56v124zM284 26q3 2 7 6.5t6 7.5l-1 3q-18 -23 -47 -36t-64 -13q-28 0 -52.5 9t-43 24t-29 35.5t-10.5 44.5v124q0 24 10.5 44.5
t29 36t43 24.5t52.5 9q35 0 64 -13t47 -36l1 3q-2 3 -6 7.5t-7 6.5q1 15 8.5 23.5t27.5 8.5v-374q0 -24 -10.5 -44.5t-29 -35.5t-43 -24t-52.5 -9q-43 0 -76.5 19.5t-48.5 51.5q-4 9 -2.5 17t6 13.5t10.5 9t12 3.5q0 -16 7.5 -30.5t20.5 -26t31.5 -18t39.5 -6.5q43 0 71 24
t28 56v55zM184 373q-17 0 -35.5 5.5t-34.5 16t-26.5 26t-11.5 35.5q-1 10 9 17.5t24 7.5q0 -32 21 -53t54 -21t54 21t21 53q14 0 24 -7.5t9 -17.5q-1 -20 -11.5 -35.5t-26.5 -26t-35 -16t-35 -5.5z" />
    <glyph glyph-name="Idotaccent" unicode="&#x130;" horiz-adv-x="160" 
d="M46 554q0 14 10 24t24 10t24 -10t10 -24t-10 -24t-24 -10t-24 10t-10 24zM100 34q0 -40 -40 -40v447q0 40 40 40v-447z" />
    <glyph glyph-name="dotlessi" unicode="&#x131;" horiz-adv-x="156" 
d="M60 309q0 36 36 36v-315q0 -36 -36 -36v315z" />
    <glyph glyph-name="Lslash" unicode="&#x141;" horiz-adv-x="414" 
d="M358 36q36 0 36 -36h-314q-9 0 -14.5 6t-5.5 14v180l-53 -34q-17 28 10 46l43 28v201q0 40 40 40v-214l113 74q18 -28 -9 -46l-104 -69v-190h258z" />
    <glyph glyph-name="lslash" unicode="&#x142;" horiz-adv-x="160" 
d="M100 266l53 35q18 -28 -9 -46l-44 -29v-192q0 -40 -40 -40v206l-53 -34q-17 28 10 46l43 28v201q0 40 40 40v-215z" />
    <glyph glyph-name="OE" unicode="&#x152;" horiz-adv-x="799" 
d="M425 256h198q0 -36 -36 -36h-162v-70q0 -24 11.5 -46t31.5 -38.5t46.5 -26t57.5 -9.5t58 9.5t47 26t31.5 38.5t11.5 46v10t-1 10q16 0 29.5 -11t8.5 -37q-6 -30 -24 -54t-43.5 -40.5t-56 -25t-61.5 -8.5q-48 0 -94.5 21.5t-72.5 62.5q-12 -20 -30.5 -35.5t-41 -26.5
t-47 -16.5t-49.5 -5.5q-33 0 -66 10.5t-60 30.5t-44 49t-17 66v176q0 36 16.5 64.5t43 48.5t60 31t67.5 11q49 0 95.5 -21t72.5 -64q25 40 71.5 62.5t95.5 22.5q30 0 59.5 -7.5t55 -23.5t44 -39.5t26.5 -55.5q6 -27 -8 -38t-30 -11q1 5 1 10v10q0 24 -11.5 46t-31.5 38
t-47 25.5t-58 9.5t-57.5 -9.5t-46.5 -25.5t-31.5 -38t-11.5 -46v-70zM385 326q0 24 -11.5 46t-31.5 38t-47 25.5t-58 9.5t-57.5 -9.5t-46.5 -25.5t-31.5 -38t-11.5 -46v-176q0 -24 11.5 -46t31.5 -38.5t46.5 -26t57.5 -9.5t58 9.5t47 26t31.5 38.5t11.5 46v176z" />
    <glyph glyph-name="oe" unicode="&#x153;" horiz-adv-x="604" 
d="M320 107q0 -32 28 -56t71 -24q21 0 39.5 6.5t31.5 18t20.5 26t7.5 30.5q6 0 12 -3.5t10.5 -9t6 -13.5t-2.5 -17q-15 -32 -48.5 -51.5t-76.5 -19.5q-38 0 -69.5 15.5t-48.5 41.5q-17 -26 -47.5 -41.5t-68.5 -15.5q-28 0 -52.5 9t-43 24t-29 35.5t-10.5 44.5v124
q0 24 10.5 44.5t29 36t43 24.5t52.5 9q38 0 69 -15.5t48 -41.5q17 26 48 41.5t69 15.5q28 0 52.5 -9t43 -24.5t29 -36t10.5 -44.5v-36q0 -8 -5.5 -13t-12.5 -5h-216v-70zM185 312q-21 0 -39.5 -6.5t-31.5 -18t-20.5 -26t-7.5 -30.5v-124q0 -32 28 -56t71 -24q21 0 39 6.5
t31.5 17t21 25t7.5 31.5v124q0 16 -7.5 30.5t-20.5 26t-31.5 18t-39.5 6.5zM320 210h198v21q0 16 -7.5 30.5t-20.5 26t-31.5 18t-39.5 6.5t-39.5 -6.5t-31.5 -18t-20.5 -26t-7.5 -30.5v-21z" />
    <glyph glyph-name="Scedilla" unicode="&#x15e;" horiz-adv-x="454" 
d="M78 150q0 -24 11.5 -46t31.5 -38.5t47 -26t58 -9.5q30 0 57.5 10t48 26.5t31.5 37.5t10 44q-2 18 -14 30t-32 21t-47 15.5t-58 12.5q-38 7 -67 15.5t-49.5 21t-31.5 30.5t-14 45t8 53t32.5 45.5t53.5 31.5t72 12q71 0 113 -36.5t50 -91.5q4 -25 -10 -36t-29 -11q1 5 1 10
v10q0 24 -8.5 45.5t-24.5 38t-39 26t-53 9.5t-54 -9t-40.5 -23t-25 -32.5t-6.5 -37.5q3 -36 34 -51.5t96 -28.5q39 -8 71.5 -15t56.5 -19t38.5 -30t16.5 -48q2 -31 -12.5 -59.5t-40.5 -50t-60.5 -34.5t-73.5 -13q-35 0 -65.5 9.5t-55.5 27t-41.5 41t-22.5 50.5q-5 26 8.5 37
t29.5 11q-1 -5 -1 -10v-10zM292 -80q0 -29 -23.5 -44.5t-50.5 -15.5q-23 0 -40 11q-20 14 -8 32q20 -16 48 -16q14 0 26 7.5t12 20.5q0 18 -21.5 25.5t-47.5 5.5l40 61h30l-28 -39q26 0 44.5 -14t18.5 -34z" />
    <glyph glyph-name="scedilla" unicode="&#x15f;" horiz-adv-x="328" 
d="M283 250q3 -19 -8 -28.5t-28 -7.5q4 19 -0.5 36.5t-16 31t-29 22t-37.5 8.5t-35.5 -6t-27 -15.5t-17 -22t-4.5 -24.5q2 -24 22 -34t65 -19q28 -6 52 -11.5t41 -14.5t27 -22.5t12 -35.5t-8.5 -42.5t-29 -36t-44 -25t-53.5 -9.5q-50 0 -87.5 26.5t-45.5 67.5q-3 17 6 27.5
t29 8.5q-5 -21 2 -38.5t22 -30.5t34.5 -20.5t39.5 -7.5q21 0 39.5 6.5t32 17.5t21 25t6.5 29q-2 23 -30 33.5t-72 19.5q-29 6 -50.5 11.5t-35.5 14.5t-21.5 22t-9.5 34q-2 20 6 39t23.5 33.5t38.5 23.5t52 9q52 0 82 -27t37 -68zM231 -80q0 -29 -23.5 -44.5t-50.5 -15.5
q-23 0 -40 11q-20 14 -8 32q20 -16 48 -16q14 0 26 7.5t12 20.5q0 18 -21.5 25.5t-47.5 5.5l40 61h30l-28 -39q26 0 44.5 -14t18.5 -34z" />
    <glyph glyph-name="Scaron" unicode="&#x160;" horiz-adv-x="454" 
d="M78 150q0 -24 11.5 -46t31.5 -38.5t47 -26t58 -9.5q30 0 57.5 10t48 26.5t31.5 37.5t10 44q-2 18 -14 30t-32 21t-47 15.5t-58 12.5q-38 7 -67 15.5t-49.5 21t-31.5 30.5t-14 45t8 53t32.5 45.5t53.5 31.5t72 12q71 0 113 -36.5t50 -91.5q4 -25 -10 -36t-29 -11q1 5 1 10
v10q0 24 -8.5 45.5t-24.5 38t-39 26t-53 9.5t-54 -9t-40.5 -23t-25 -32.5t-6.5 -37.5q3 -36 34 -51.5t96 -28.5q39 -8 71.5 -15t56.5 -19t38.5 -30t16.5 -48q2 -31 -12.5 -59.5t-40.5 -50t-60.5 -34.5t-73.5 -13q-35 0 -65.5 9.5t-55.5 27t-41.5 41t-22.5 50.5q-5 26 8.5 37
t29.5 11q-1 -5 -1 -10v-10zM226.01 513.029q-7 0 -12 5l-84.9941 89.9941q10.999 7.99902 23.998 7.99902t20.999 -7.99902l51.9971 -54.9971l51.9961 54.9971q8 7.99902 20.999 7.99902t23.999 -7.99902l-84.9951 -89.9941q-5 -5 -11.999 -5z" />
    <glyph glyph-name="scaron" unicode="&#x161;" horiz-adv-x="328" 
d="M283 250q3 -19 -8 -28.5t-28 -7.5q4 19 -0.5 36.5t-16 31t-29 22t-37.5 8.5t-35.5 -6t-27 -15.5t-17 -22t-4.5 -24.5q2 -24 22 -34t65 -19q28 -6 52 -11.5t41 -14.5t27 -22.5t12 -35.5t-8.5 -42.5t-29 -36t-44 -25t-53.5 -9.5q-50 0 -87.5 26.5t-45.5 67.5q-3 17 6 27.5
t29 8.5q-5 -21 2 -38.5t22 -30.5t34.5 -20.5t39.5 -7.5q21 0 39.5 6.5t32 17.5t21 25t6.5 29q-2 23 -30 33.5t-72 19.5q-29 6 -50.5 11.5t-35.5 14.5t-21.5 22t-9.5 34q-2 20 6 39t23.5 33.5t38.5 23.5t52 9q52 0 82 -27t37 -68zM165.01 374.029q-7 0 -12 5
l-84.9941 89.9941q10.999 7.99902 23.998 7.99902t20.999 -7.99902l51.9971 -54.9971l51.9961 54.9971q8 7.99902 20.999 7.99902t23.999 -7.99902l-84.9951 -89.9941q-5 -5 -11.999 -5z" />
    <glyph glyph-name="Ydieresis" unicode="&#x178;" horiz-adv-x="400" 
d="M220 34q0 -40 -40 -40v248l-170 233q14 10 28.5 6.5t23.5 -16.5l138 -190l138 190q9 13 23.5 16.5t28.5 -6.5l-170 -233v-208zM101 572q0 14 10 24t24 10t24 -10t10 -24t-10 -24t-24 -10t-24 10t-10 24zM232 572q0 14 10 24t24 10t24 -10t10 -24t-10 -24t-24 -10t-24 10
t-10 24z" />
    <glyph glyph-name="Zcaron" unicode="&#x17d;" horiz-adv-x="420" 
d="M56 439q-36 0 -36 36h360q12 0 17.5 -11t-1.5 -20l-333 -422l3 1l12 13h286q36 0 36 -36h-360q-12 0 -17.5 11t1.5 20l333 422l-3 -1l-12 -13h-286z" />
    <glyph glyph-name="zcaron" unicode="&#x17e;" horiz-adv-x="301" 
d="M48 306q-33 0 -33 33h254q11 0 16.5 -10.5t-2.5 -19.5l-231 -290l3 1l12 13h187q33 0 33 -33h-254q-11 0 -16.5 10.5t2.5 19.5l231 290l-3 -1l-12 -13h-187z" />
    <glyph glyph-name="florin" unicode="&#x192;" horiz-adv-x="382" 
d="M350 436q-11 6 -25.5 9.5t-26.5 3.5q-23 0 -39.5 -10.5t-28 -28t-17.5 -40t-8 -47.5l-4 -34h104q0 -32 -32 -32h-75q-3 -30 -7 -58q-3 -24 -5.5 -50t-4.5 -44q-8 -74 -36 -118t-86 -44q-15 0 -27 4q-12 5 -17 14.5t1 24.5q13 -7 23 -9t24 -2q19 0 33 9.5t23 25.5
t14.5 36.5t7.5 41.5l18 169h-75q0 32 32 32h47q1 9 2 17.5t2 17.5q8 70 41 114t95 44q21 0 35 -7q26 -13 12 -39z" />
    <glyph glyph-name="Ohorn" unicode="&#x1a0;" horiz-adv-x="567" 
d="M40 237q0 51 19 95.5t52 77.5t77 52t95 19q65 0 119 -31t86 -82q23 13 31.5 41.5t8.5 71.5q38 0 38 -39q0 -26 -14.5 -54.5t-49.5 -42.5q25 -52 25 -108q0 -51 -19 -95t-52 -77t-77.5 -52t-95.5 -19t-95 19t-77 52t-52 77t-19 95zM80 237q0 -43 16 -81t43.5 -66t64.5 -44
t79 -16t79.5 16t65 44t43.5 66t16 81t-16 81t-43.5 66t-65 44.5t-79.5 16.5t-79 -16.5t-64.5 -44.5t-43.5 -66t-16 -81z" />
    <glyph glyph-name="ohorn" unicode="&#x1a1;" horiz-adv-x="431" 
d="M442 310q0 -24 -13.5 -49.5t-46.5 -37.5q9 -26 9 -54q0 -36 -14 -68t-38 -56t-56 -37.5t-68 -13.5t-68 13.5t-56 37.5t-37.5 56t-13.5 68t13.5 68t37.5 56t56 38t68 14q52 0 94.5 -27.5t63.5 -72.5q20 11 27.5 36.5t7.5 63.5q34 0 34 -35zM76 169q0 -30 11 -55.5
t29.5 -45t44 -30.5t54.5 -11t54.5 11t44.5 30.5t30 45t11 55.5t-11 56t-30 45.5t-44.5 30.5t-54.5 11t-54.5 -11t-44 -30.5t-29.5 -45.5t-11 -56z" />
    <glyph glyph-name="Uhorn" unicode="&#x1af;" horiz-adv-x="494" 
d="M100 150q0 -24 11.5 -46t31.5 -38.5t46.5 -26t57.5 -9.5t57.5 9.5t46.5 26t31.5 38.5t11.5 46v291q0 40 40 40v-115q26 12 34.5 41t8.5 74q38 0 38 -39q0 -15 -4.5 -30.5t-14 -30t-25 -25.5t-37.5 -17v-189q0 -37 -17 -66t-44 -49t-60 -30.5t-66 -10.5t-66 10.5t-60 30.5
t-44 49t-17 66v291q0 40 40 40v-331z" />
    <glyph glyph-name="uhorn" unicode="&#x1b0;" horiz-adv-x="390" 
d="M404 310q0 -13 -4 -27.5t-13 -27t-23 -22.5t-34 -15v-188q0 -36 -36 -36v32q3 2 7 6.5t6 7.5l-1 3q-18 -23 -47 -36t-64 -13q-28 0 -52.5 9t-43 24.5t-29 36t-10.5 44.5v201q0 36 36 36v-237q0 -16 7.5 -30.5t20.5 -26t31.5 -18t39.5 -6.5t39.5 6.5t31.5 18t20.5 26
t7.5 30.5v201q0 36 36 36v-103q23 11 31.5 37t8.5 66q34 0 34 -35z" />
    <glyph glyph-name="circumflex" unicode="&#x2c6;" horiz-adv-x="306" 
d="M153 478q7 0 12 -5l85 -90q-11 -8 -24 -8t-21 8l-52 55l-52 -55q-8 -8 -21 -8t-24 8l85 90q5 5 12 5z" />
    <glyph glyph-name="caron" unicode="&#x2c7;" horiz-adv-x="306" 
d="M153.01 372.029q-7 0 -12 5l-84.9941 89.9941q10.999 7.99902 23.998 7.99902t20.999 -7.99902l51.9971 -54.9971l51.9961 54.9971q8 7.99902 20.999 7.99902t23.999 -7.99902l-84.9951 -89.9941q-5 -5 -11.999 -5z" />
    <glyph glyph-name="breve" unicode="&#x2d8;" horiz-adv-x="300" 
d="M150 373q-17 0 -35.5 5.5t-34.5 16t-26.5 26t-11.5 35.5q-1 10 9 17.5t24 7.5q0 -32 21 -53t54 -21t54 21t21 53q14 0 24 -7.5t9 -17.5q-1 -20 -11.5 -35.5t-26.5 -26t-35 -16t-35 -5.5z" />
    <glyph glyph-name="dotaccent" unicode="&#x2d9;" horiz-adv-x="158" 
d="M43 462q0 14 10 25t26 11t26 -11t10 -25q0 -15 -10 -25.5t-26 -10.5t-26 10.5t-10 25.5z" />
    <glyph glyph-name="ring" unicode="&#x2da;" horiz-adv-x="278" 
d="M72 461q0 23 18 44t49 21q30 0 48 -21t18 -44q0 -29 -18.5 -47.5t-47.5 -18.5q-28 0 -47.5 19t-19.5 47zM97 461q0 -18 12 -30t30 -12t30 12t12 30q0 14 -11.5 27.5t-30.5 13.5q-20 0 -31 -13t-11 -28z" />
    <glyph glyph-name="ogonek" unicode="&#x2db;" horiz-adv-x="174" 
d="M24.0088 -80q0 -29 23.499 -44.5q23.498 -15.5 50.4971 -15.5q22.998 0 39.9971 11q19.999 14 8 32q-19.999 -16 -47.9971 -16q-13.999 0 -25.999 7.5q-11.999 7.5 -11.999 20.5q0 18 21.499 25.5q21.498 7.5 47.4971 5.5l-39.998 61h-29.998l27.998 -39
q-25.998 0 -44.4971 -14t-18.499 -34z" />
    <glyph glyph-name="tilde" unicode="&#x2dc;" horiz-adv-x="233" 
d="M127 447q9 -8 18 -14t20 -6t19 14t0 31q18 6 27 -4.5t7 -22.5q-3 -22 -17 -35.5t-36 -13.5q-20 0 -33 8t-27 19q-8 8 -17.5 14t-20.5 6t-19 -14t0 -31q-17 -7 -26.5 4t-7.5 23q4 22 18 35.5t35 13.5t33.5 -8t26.5 -19z" />
    <glyph glyph-name="hungarumlaut" unicode="&#x2dd;" horiz-adv-x="356" 
d="M239 459q12 18 47 18h23l-84 -93q-7 -6 -16 -8.5t-26 -2.5zM99 459q12 18 47 18h23l-84 -93q-7 -6 -16 -8.5t-26 -2.5z" />
    <glyph glyph-name="gravecomb" unicode="&#x300;" horiz-adv-x="212" 
d="M169 373q-17 0 -26 2.5t-16 8.5l-84 93h23q35 0 47 -18z" />
    <glyph glyph-name="acutecomb" unicode="&#x301;" horiz-adv-x="212" 
d="M99 459q12 18 47 18h23l-84 -93q-7 -6 -16 -8.5t-26 -2.5z" />
    <glyph glyph-name="tildecomb" unicode="&#x303;" horiz-adv-x="233" 
d="M126 444q8 -7 16 -13t18 -6q11 0 18 13t-1 29q16 6 24.5 -4t6.5 -21q-3 -20 -15.5 -32.5t-32.5 -12.5q-18 0 -29 7.5t-24 17.5q-8 7 -16 13t-18 6q-11 0 -18 -13t1 -29q-16 -6 -24.5 4t-6.5 21q3 20 15.5 32.5t32.5 12.5q18 0 29 -7.5t24 -17.5z" />
    <glyph glyph-name="hookabovecomb" unicode="&#x309;" horiz-adv-x="156" 
d="M95 385q0 -11 -9 -13t-23 -2v14q0 15 7 22.5t16 14.5q6 5 11 10t5 13t-7.5 15.5t-17.5 7.5t-17.5 -7t-7.5 -16q0 -8 1 -13q-16 0 -25 7.5t-4 22.5q6 16 21 25t32 9q22 0 39.5 -14t17.5 -37q0 -18 -9.5 -28.5t-17.5 -15.5q-12 -7 -12 -15z" />
    <glyph glyph-name="dotbelowcomb" unicode="&#x323;" horiz-adv-x="131" 
d="M31 -82q0 14 10 24t24 10t24 -10t10 -24t-10 -24t-24 -10t-24 10t-10 24z" />
    <glyph glyph-name="uni03A9" unicode="&#x3a9;" horiz-adv-x="622" 
 />
    <glyph glyph-name="pi" unicode="&#x3c0;" horiz-adv-x="159" 
d="M60 306q0 19 10 30t29 11v-313q0 -40 -39 -40v312zM60 306q0 19 10 30t29 11v-313q0 -40 -39 -40v312z" />
    <glyph glyph-name="uni0E00" unicode="&#xe00;" horiz-adv-x="318" 
 />
    <glyph glyph-name="uni0E01" unicode="&#xe01;" horiz-adv-x="418" 
d="M78 193q-2 2 -8 13t-12 23q-8 14 -16 31q-2 6 -2 9q0 30 14 54.5t36.5 42t51 27t57.5 9.5q28 0 56.5 -9t51 -26t37 -42t14.5 -56v-233q0 -18 -11 -30t-27 -12v275q0 19 -9.5 37t-26 32t-38.5 22t-47 8q-24 0 -45.5 -7.5t-38 -20.5t-26.5 -30t-11 -36q2 -3 7 -14t12 -23
q7 -14 17 -30q2 -6 2 -9v-204q-16 0 -27 12t-11 30v157v0z" />
    <glyph glyph-name="uni0E02" unicode="&#xe02;" horiz-adv-x="401" 
d="M303 359q0 17 11 29.5t27 12.5v-310q0 -22 -8.5 -40t-23.5 -30.5t-34.5 -19.5t-40.5 -7t-40 7t-34 19.5t-23.5 30.5t-8.5 40v19q0 37 17 67.5t40 59.5q23 28 23 53q0 15 -6 29t-16 25t-23.5 17.5t-28.5 6.5q-26 0 -45 -13.5t-28 -33.5q-10 -10 -14 -20l1 -3
q5 14 18.5 21.5t26.5 7.5q26 0 44 -16.5t18 -41.5q0 -26 -18 -44t-44 -18q-32 0 -51.5 25t-19.5 58q0 23 9 43.5t24 35.5t35.5 24t43.5 9t43.5 -9t35.5 -24t24 -35.5t9 -43.5q0 -20 -10.5 -39t-25.5 -38q-18 -23 -30.5 -47.5t-13.5 -55.5v-19q0 -28 20 -45.5t48 -17.5
t48.5 17t20.5 46v268zM61 269q0 -14 9 -23t23 -9t23 9t9 23t-9 23t-23 9t-23 -9t-9 -23z" />
    <glyph glyph-name="uni0E03" unicode="&#xe03;" horiz-adv-x="401" 
d="M61 269q0 -14 9 -23t23 -9t23 9t9 23t-9 23t-23 9t-23 -9t-9 -23zM93 327q26 0 44 -16.5t18 -41.5q0 -26 -18 -44t-44 -18q-32 0 -51.5 25t-19.5 58q0 20 5 39.5t16 34.5q25 38 61 38q9 0 16.5 -8t15.5 -15q6 5 14 14t18 9q18 0 32.5 -10t24.5 -25.5t15.5 -35.5t5.5 -41
q0 -20 -10.5 -39t-25.5 -38q-18 -23 -30.5 -47.5t-13.5 -55.5v-19q0 -28 20 -45.5t48 -17.5t48.5 17t20.5 46v268q0 17 11 29.5t27 12.5v-310q0 -22 -8.5 -40t-23.5 -30.5t-34.5 -19.5t-40.5 -7t-40 7t-34 19.5t-23.5 30.5t-8.5 40v19q0 37 17 67.5t40 59.5q23 28 23 53
q0 12 -2.5 24.5t-7 24t-10.5 19.5t-13 11q-4 -3 -8 -7l-8 -8t-10 -9q-5 -5 -13 -5t-13 5q-6 5 -10 9t-8.5 8t-7.5 7q-11 -4 -21 -16.5t-16 -32.5q-9 -9 -13 -19l1 -3q5 14 18.5 21.5t26.5 7.5z" />
    <glyph glyph-name="uni0E04" unicode="&#xe04;" horiz-adv-x="438" 
d="M219 402q28 0 56 -9t51 -26.5t37.5 -42t14.5 -55.5v-233q0 -18 -11 -30t-27 -12v275q0 19 -9.5 37t-26 32t-38.5 22t-47 8t-47 -8t-38.5 -22t-26 -32t-9.5 -37v-169l-9 -27l1 -3l72 190q6 17 21.5 27.5t35.5 10.5q25 0 43.5 -18t18.5 -44t-18.5 -44t-43.5 -18
q-40 0 -52 38l-1 -3q2 -10 7 -17l-75 -198q-16 0 -27 12t-11 30v233q0 30 14 54.5t36.5 42t51 27t57.5 9.5zM187 236q0 -14 9 -23t23 -9t23 9t9 23t-9 23t-23 9t-23 -9t-9 -23z" />
    <glyph glyph-name="uni0E05" unicode="&#xe05;" horiz-adv-x="438" 
d="M187 227q0 -14 9 -23t23 -9t23 9t9 23t-9 23t-23 9t-23 -9t-9 -23zM162 251q7 17 22.5 27.5t34.5 10.5q26 0 44 -18t18 -44t-18 -44t-44 -18q-40 0 -52 38l-1 -3q2 -10 7 -17l-75 -189q-16 0 -27 12t-11 30v252q0 27 10 48.5t25 36t33 22t33 7.5q7 0 12 -5q9 -8 18 -14
q8 -6 15.5 -11.5t12.5 -10.5q5 5 13 10.5t16 11.5q9 6 17 14q5 5 12 5q15 0 33 -7.5t33 -22t25 -36t10 -48.5v-252q0 -18 -11 -30t-27 -12v294q0 17 -5.5 31t-14 24t-18.5 16t-19 8q-4 -3 -12.5 -10t-17.5 -14q-11 -8 -22 -17q-12 -10 -24 0q-11 9 -22 17q-9 7 -17.5 14
t-12.5 10q-9 -2 -19 -8t-18.5 -16t-14 -24t-5.5 -31v-188l-9 -27l1 -3z" />
    <glyph glyph-name="uni0E06" unicode="&#xe06;" horiz-adv-x="459" 
d="M60 320q-9 -9 -13 -19l1 -3q5 14 18.5 21.5t26.5 7.5q26 0 44 -16.5t18 -41.5q0 -26 -18 -44t-44 -18q-32 0 -51.5 25t-19.5 58q0 20 5 39.5t16 34.5q25 38 61 38q9 0 16.5 -8t15.5 -15q6 5 14 14t18 9q18 0 32.5 -10t24.5 -25.5t15.5 -35.5t5.5 -41q0 -20 -10.5 -39
t-25.5 -38q-17 -20 -30.5 -46t-13.5 -53q0 -7 1 -11l194 -69v325q0 17 11 29.5t27 12.5v-365q0 -18 -11 -30t-27 -12l-194 69v-5q0 -27 -19 -45.5t-45 -18.5q-27 0 -45.5 18.5t-18.5 45.5q0 26 18.5 45t45.5 19q5 0 12.5 -1.5t12.5 -4.5q2 35 18.5 63.5t38.5 57.5
q23 28 23 53q0 12 -2.5 24.5t-7 24t-10.5 19.5t-13 11q-4 -3 -8 -7l-8 -8t-10 -9q-5 -5 -13 -5t-13 5q-6 5 -10 9t-8.5 8t-7.5 7q-11 -4 -21 -16.5t-16 -32.5zM61 269q0 -14 9 -23t23 -9t23 9t9 23t-9 23t-23 9t-23 -9t-9 -23zM69 58q0 -14 10 -24t24 -10t24 10t10 24
t-10 24t-24 10t-24 -10t-10 -24z" />
    <glyph glyph-name="uni0E07" unicode="&#xe07;" horiz-adv-x="362" 
d="M240 402q26 0 44 -18t18 -44v-304q0 -18 -11 -30t-27 -12l-222 246q-11 11 -11 26t11 26l233 -258l1 3l-12 14v228q10 6 16 16l-1 3q-12 -19 -39 -19q-26 0 -44 17.5t-18 43.5t18 44t44 18zM240 308q14 0 23 9.5t9 22.5q0 14 -9 23t-23 9q-13 0 -22.5 -9t-9.5 -23
q0 -13 9.5 -22.5t22.5 -9.5z" />
    <glyph glyph-name="uni0E08" unicode="&#xe08;" horiz-adv-x="390" 
d="M148 237q0 -14 9 -23t23 -9t23 9t9 23t-9 23t-23 9t-23 -9t-9 -23zM224 189q6 8 8 17l-1 3q-5 -17 -19 -25.5t-32 -8.5q-26 0 -44 18t-18 44t18 44t44 18q21 0 37 -12.5t22 -31.5l63 -188l1 3l-11 36v163q0 20 -9 38t-24.5 31.5t-37 21.5t-45.5 8t-45.5 -8t-37 -21.5
t-24.5 -31.5t-9 -38v-9.5t1 -9.5q-16 0 -28 11t-10 27q4 24 17.5 45t33.5 36.5t46 24t56 8.5q32 0 60 -10.5t49 -28.5t33 -42t12 -52v-233q0 -17 -11 -29.5t-27 -12.5z" />
    <glyph glyph-name="uni0E09" unicode="&#xe09;" horiz-adv-x="415" 
d="M126 123q10 6 16 16l-1 3q-12 -19 -39 -19q-26 0 -44 18t-18 44t18 44t44 18t44 -18t18 -44v-149l110 68q13 8 20.5 19.5t7.5 21.5v124q0 19 -9.5 37t-26 32t-38.5 22t-47 8t-47 -8t-38.5 -22t-26 -32t-9.5 -37q-20 -1 -29.5 12.5t-1.5 30.5q9 21 25 37.5t36.5 28.5
t44 18t46.5 6q27 0 55 -9t51.5 -26t38 -42t14.5 -56v-124q0 -12 -5 -25q21 -5 35.5 -22t14.5 -40q0 -27 -19 -45.5t-45 -18.5q-25 0 -43.5 16.5t-20.5 40.5l-93 -57q-16 0 -27 12.5t-11 29.5v87zM70 185q0 -14 9 -23t23 -9t23 9t9 23t-9 23t-23 9t-23 -9t-9 -23zM287 58
q0 -14 10 -24t24 -10t24 10t10 24t-10 24t-24 10t-24 -10t-10 -24z" />
    <glyph glyph-name="uni0E0A" unicode="&#xe0a;" horiz-adv-x="401" 
d="M128 110q0 37 17 67.5t40 59.5q23 28 23 53q0 15 -6 29t-16 25t-23.5 17.5t-28.5 6.5q-26 0 -45 -13.5t-28 -33.5q-10 -10 -14 -20l1 -3q5 14 18.5 21.5t26.5 7.5q26 0 44 -16.5t18 -41.5q0 -26 -18 -44t-44 -18q-32 0 -51.5 25t-19.5 58q0 23 9 43.5t24 35.5t35.5 24
t43.5 9t43.5 -9t35.5 -24t24 -35.5t9 -43.5q0 -20 -10.5 -39t-25.5 -38q-18 -23 -30.5 -47.5t-13.5 -55.5v-19q0 -28 20 -45.5t48 -17.5t48.5 17t20.5 46v126q0 37 -8 52t-23 20q-13 3 -13 14t13 14q11 3 20.5 11.5t16 19.5t10.5 23.5t4 23.5v9.5t-2 9.5q16 0 27.5 -11
t9.5 -26q-4 -23 -17.5 -44.5t-31.5 -29.5q17 -12 24.5 -34t7.5 -52v-126q0 -22 -8.5 -40t-23.5 -30.5t-34.5 -19.5t-40.5 -7t-40 7t-34 19.5t-23.5 30.5t-8.5 40v19zM61 269q0 -14 9 -23t23 -9t23 9t9 23t-9 23t-23 9t-23 -9t-9 -23z" />
    <glyph glyph-name="uni0E0B" unicode="&#xe0b;" horiz-adv-x="401" 
d="M128 110q0 37 17 67.5t40 59.5q23 28 23 53q0 12 -2.5 24.5t-7 24t-10.5 19.5t-13 11q-4 -3 -8 -7l-8 -8t-10 -9q-5 -5 -13 -5t-13 5q-6 5 -10 9t-8.5 8t-7.5 7q-11 -4 -21 -16.5t-16 -32.5q-9 -9 -13 -19l1 -3q5 14 18.5 21.5t26.5 7.5q26 0 44 -16.5t18 -41.5
q0 -26 -18 -44t-44 -18q-32 0 -51.5 25t-19.5 58q0 20 5 39.5t16 34.5q25 38 61 38q9 0 16.5 -8t15.5 -15q6 5 14 14t18 9q18 0 32.5 -10t24.5 -25.5t15.5 -35.5t5.5 -41q0 -20 -10.5 -39t-25.5 -38q-18 -23 -30.5 -47.5t-13.5 -55.5v-19q0 -28 20 -45.5t48 -17.5t48.5 17
t20.5 46v126q0 37 -8 52t-23 20q-13 3 -13 14t13 14q11 3 20.5 11.5t16 19.5t10.5 23.5t4 23.5v9.5t-2 9.5q16 0 27.5 -11t9.5 -26q-4 -23 -17.5 -44.5t-31.5 -29.5q17 -12 24.5 -34t7.5 -52v-126q0 -22 -8.5 -40t-23.5 -30.5t-34.5 -19.5t-40.5 -7t-40 7t-34 19.5
t-23.5 30.5t-8.5 40v19zM61 269q0 -14 9 -23t23 -9t23 9t9 23t-9 23t-23 9t-23 -9t-9 -23z" />
    <glyph glyph-name="uni0E0C" unicode="&#xe0c;" horiz-adv-x="603" 
d="M116 118q-10 -6 -16 -16l1 -3q12 19 39 19q26 0 44 -18t18 -44t-18 -44t-44 -18t-44 18t-18 44v137q-2 2 -8 13t-12 23q-8 14 -16 31q-2 6 -2 9q0 30 14 54.5t36.5 42t51 27t57.5 9.5q28 0 56.5 -9t51 -26t37 -42t14.5 -56v-173l147 -63v326q0 17 11 29.5t27 12.5v-365
q0 -18 -11 -30t-27 -12l-147 62q0 -26 -18 -44t-44 -18t-44 18t-18 44t18 44t44 18q7 0 13.5 -2t12.5 -4q-2 3 -2 8v149q0 19 -9.5 37t-26 32t-38.5 22t-47 8q-24 0 -45.5 -7.5t-38 -20.5t-26.5 -30t-11 -36q2 -3 7 -14t12 -23q7 -14 17 -30q2 -6 2 -9v-80zM264 56
q0 -14 9 -23t23 -9t23 9t9 23t-9 23t-23 9t-23 -9t-9 -23zM140 88q-14 0 -23 -9t-9 -23t9 -23t23 -9t23 9t9 23t-9 23t-23 9z" />
    <glyph glyph-name="uni0E0D" unicode="&#xe0d;" horiz-adv-x="583" 
d="M140 88q-14 0 -23 -9t-9 -23t9 -23t23 -9t23 9t9 23t-9 23t-23 9zM140 118q26 0 44 -18t18 -44t-18 -44t-44 -18t-44 18t-18 44v137q-2 2 -8 13t-12 23q-8 14 -16 31q-2 6 -2 9q0 28 11.5 52.5t31.5 42.5t47 28t59 10t59.5 -10t47.5 -28t31.5 -42.5t11.5 -52.5v-178
q0 -26 20.5 -42.5t52.5 -16.5q31 0 52 16.5t21 42.5v268q0 17 11 29.5t27 12.5v-310q0 -22 -9.5 -40t-25 -30.5t-35.5 -19.5t-41 -7q-20 0 -40 6.5t-36 19t-25.5 30.5t-9.5 41v178q0 22 -9.5 40t-25 31t-35.5 20.5t-42 7.5q-20 0 -39 -6.5t-34 -18.5t-25 -29.5t-13 -39.5
q2 -3 7 -14t12 -23q7 -14 17 -30q2 -6 2 -9v-80q-10 -6 -16 -16l1 -3q12 19 39 19zM338 -86q0 -12 8.5 -20.5t20.5 -8.5t20.5 8.5t8.5 20.5t-8.5 20.5t-20.5 8.5t-20.5 -8.5t-8.5 -20.5zM410 -144q19 0 33.5 10.5t23 27t11 37t-2.5 39.5q18 0 28.5 -10t10.5 -26
q0 -21 -7.5 -41t-21 -36t-32.5 -25.5t-43 -9.5q-19 0 -37 7t-32 19t-22.5 29t-8.5 37q0 23 16.5 40t40.5 17q23 0 40 -17t17 -40t-17 -38t-40 -15l-3 -1q13 -2 23 1q12 -5 23 -5z" />
    <glyph glyph-name="uni0E0E" unicode="&#xe0e;" horiz-adv-x="437" 
d="M163 -170q17 -1 31.5 8.5t28.5 29.5q-17 11 -31.5 15t-27.5 2q-10 -2 -19.5 -7.5t-9.5 -20.5q0 -25 28 -27zM60 56q0 -14 9 -23t23 -9t23 9t9 23t-9 23t-23 9t-23 -9t-9 -23zM116 191q-3 3 -12 14l-18 22q-11 13 -24 30q-4 6 -4 12q0 30 14 55t36.5 42t51 26.5t57.5 9.5
q28 0 56.5 -9t51 -26t37 -42t14.5 -56v-364q0 -8 -2 -15t-7 -11l-74 -75q-6 -6 -14 -4t-11 9q-8 22 -22 39q-40 -51 -89 -48q-26 2 -41.5 17.5t-15.5 39.5q0 23 15 38.5t41 19.5q37 5 76 -17l7 -5q7 12 12 24.5t10 25.5q13 -5 17.5 -16.5t-0.5 -23.5l-7.5 -15t-7.5 -14
q6 -7 13.5 -16t12.5 -20l49 49v382q0 19 -9.5 37t-26 32t-38.5 22t-47 8q-24 0 -45.5 -7.5t-38 -20.5t-26.5 -30t-11 -36q2 -4 11 -14.5t18 -21.5q11 -13 24 -29q5 -5 5 -12v-141q0 -26 -18 -44t-44 -18t-44 18t-18 44t18 44t44 18q27 0 39 -19l1 3q-6 10 -16 16v73z" />
    <glyph glyph-name="uni0E0F" unicode="&#xe0f;" horiz-adv-x="436" 
d="M92 118q27 0 39 -19l1 3q-6 10 -16 16v73q-3 3 -12 14l-18 22q-11 13 -24 30q-4 6 -4 12q0 30 14 55t36.5 42t51 26.5t57.5 9.5q28 0 56.5 -9t51 -26t37 -42t14.5 -56v-397q0 -13 -9 -22l-46 -46q-5 -5 -11 -5t-10 5l-36 36l-36 -36q-6 -6 -14 -4t-11 9q-9 25 -22 39
q-40 -51 -89 -48q-26 2 -41.5 17.5t-15.5 39.5q0 23 15 38.5t41 19.5q37 5 76 -17l7 -5q5 8 9 17t8 19q1 2 2 6.5t3 7.5q13 -5 17.5 -16.5t-0.5 -23.5l-7.5 -15t-7.5 -14q6 -7 14.5 -17t13.5 -21l31 31q10 10 21 0l34 -33l26 25v410q0 19 -9.5 37t-26 32t-38.5 22t-47 8
q-24 0 -45.5 -7.5t-38 -20.5t-26.5 -30t-11 -36q2 -4 11 -14.5t18 -21.5q11 -13 24 -29q5 -5 5 -12v-141q0 -26 -18 -44t-44 -18t-44 18t-18 44t18 44t44 18zM98 -170q17 -1 31.5 8.5t28.5 29.5q-17 11 -31.5 15t-27.5 2q-10 -2 -19.5 -7.5t-9.5 -20.5q0 -25 28 -27zM60 56
q0 -14 9 -23t23 -9t23 9t9 23t-9 23t-23 9t-23 -9t-9 -23z" />
    <glyph glyph-name="uni0E10" unicode="&#xe10;" horiz-adv-x="385" 
d="M281 -129q8 4 13 11l-1 3q-6 -8 -14.5 -11t-20.5 -3q-21 0 -37 15t-16 38q0 22 15.5 37.5t37.5 15.5t37.5 -15.5t15.5 -37.5v-62q0 -13 -6 -19l-8 -8t-12 -13q-8 -8 -16 -18q-4 -4 -9 -4t-9 4l-27 29l-27 -29q-4 -4 -10 -4q-8 0 -11 8q-8 20 -17 32q-9 -17 -28 -28.5
t-39 -11.5t-33.5 14t-13.5 34q0 22 14.5 35.5t35.5 13.5q16 0 31 -4t28 -14q4 7 8 17.5t9 27.5q22 -9 15 -34q-4 -14 -13 -28q5 -5 11.5 -14t11.5 -17l23 25q4 4 9 4t9 -4l25 -27l19 21v21zM93 -175q26 0 48 32q-13 10 -24 12.5t-22 2.5q-8 0 -16.5 -5.5t-8.5 -18.5
q0 -10 6.5 -16.5t16.5 -6.5zM233 -76q0 -11 7 -18t18 -7t18 7t7 18t-7 18t-18 7t-18 -7t-7 -18zM134 141q0 -14 9 -23t23 -9t23 9t9 23t-9 23t-23 9t-23 -9t-9 -23zM325 396q15 -7 19 -20t-3 -27l-25 -50q-7 -13 -17 -12t-15 12q-12 30 -41 49.5t-63 19.5q-38 0 -64.5 -19.5
t-34.5 -51.5l204 -49q13 -3 21.5 -14.5t8.5 -26.5v-171q0 -18 -11 -30t-27 -12l-59 110q2 4 3 7.5t2 8.5l-1 3q-5 -23 -21 -33.5t-35 -10.5q-26 0 -44 18t-18 44t18 44t44 18q17 0 32 -9t23 -24q2 -5 13 -24.5t23 -42.5q14 -26 30 -58l1 3l-11 22v144l-222 55q-6 2 -11 7
t-4 13q3 24 15 45t30.5 36t43 23.5t51.5 8.5q21 0 41 -6t37 -16t30 -24t20 -30l1 3q-3 9 -10 19z" />
    <glyph glyph-name="uni0E11" unicode="&#xe11;" horiz-adv-x="487" 
d="M60 320q-9 -9 -13 -19l1 -3q5 14 18.5 21.5t26.5 7.5q26 0 44 -16.5t18 -41.5q0 -26 -18 -44t-44 -18q-32 0 -51.5 25t-19.5 58q0 20 5 39.5t16 34.5q25 38 61 38q9 0 16.5 -8t15.5 -15q6 5 14 14t18 9q18 0 32.5 -10t24.5 -25.5t15.5 -35.5t5.5 -41q0 -20 -10.5 -39
t-25.5 -38q-19 -23 -26.5 -47t-7.5 -56v-36l-13 -26l1 -3l180 347q4 10 17 10q30 0 48 -18t18 -48v-300q0 -18 -11 -30t-27 -12v342q0 25 -22 28l-191 -370q-16 0 -27 12t-11 30v74q0 37 11.5 67t35.5 60q23 28 23 53q0 12 -2.5 24.5t-7 24t-10.5 19.5t-13 11q-4 -3 -8 -7
l-8 -8t-10 -9q-5 -5 -13 -5t-13 5q-6 5 -10 9t-8.5 8t-7.5 7q-11 -4 -21 -16.5t-16 -32.5zM61 269q0 -14 9 -23t23 -9t23 9t9 23t-9 23t-23 9t-23 -9t-9 -23z" />
    <glyph glyph-name="uni0E12" unicode="&#xe12;" horiz-adv-x="622" 
d="M187 227q0 -14 9 -23t23 -9t23 9t9 23t-9 23t-23 9t-23 -9t-9 -23zM280 58q0 -14 10 -24t24 -10t24 10t10 24t-10 24t-24 10t-24 -10t-10 -24zM219 166q-26 0 -44 17.5t-18 43.5t18 44t44 18q25 0 43.5 -18t18.5 -44q0 -22 -15 -40l-168 -193q-16 0 -27 12t-11 30v252
q0 27 10 48.5t25 36t33 22t33 7.5q7 0 12 -5q9 -8 18 -14q8 -6 15.5 -11.5t12.5 -10.5q5 5 13 10.5t16 11.5q9 6 17 14q5 5 12 5q15 0 33 -7.5t33 -22t25 -36t10 -48.5v-189l146 -67v327q0 17 11 29.5t27 12.5v-365q0 -18 -11 -30t-27 -12l-146 66q0 -29 -18.5 -47.5
t-45.5 -18.5q-26 0 -45 18.5t-19 45.5q0 26 19 45t45 19q14 0 26 -6v172q0 17 -5.5 31t-14 24t-18.5 16t-19 8q-4 -3 -12.5 -10t-17.5 -14q-11 -8 -22 -17q-12 -10 -24 0q-11 9 -22 17q-9 7 -17.5 14t-12.5 10q-9 -2 -19 -8t-18.5 -16t-14 -24t-5.5 -31v-236l-14 -17l1 -3
l116 133q5 -1 9 -1.5t10 -0.5z" />
    <glyph glyph-name="uni0E13" unicode="&#xe13;" horiz-adv-x="600" 
d="M108 56q0 -14 9 -23t23 -9t23 9t9 23t-9 23t-23 9t-23 -9t-9 -23zM472 58q0 -14 10 -24t24 -10t24 10t10 24t-10 24t-24 10t-24 -10t-10 -24zM140 118q26 0 44 -18t18 -44t-18 -44t-44 -18t-44 18t-18 44v137q-2 2 -8 13t-12 23q-8 14 -16 31q-2 6 -2 9q0 28 11.5 52.5
t31.5 42.5t47.5 28t59.5 10t59.5 -10t47.5 -28t31.5 -42.5t11.5 -52.5v-234l120 70q17 11 22 21t5 20v213q0 17 11 29.5t27 12.5v-255q0 -7 -1 -14t-3 -12q21 -5 35 -22t14 -40q0 -27 -19 -45.5t-45 -18.5t-44 17.5t-20 41.5l-102 -59q-16 0 -27 12t-11 30v233
q0 20 -7.5 37.5t-22.5 30.5q-15 14 -36.5 22.5t-45.5 8.5t-45 -8.5t-37 -22.5q-14 -12 -21.5 -29t-8.5 -34q2 -3 7 -14t12 -23q7 -14 17 -30q2 -6 2 -9v-80q-10 -6 -16 -16l1 -3q12 19 39 19z" />
    <glyph glyph-name="uni0E14" unicode="&#xe14;" horiz-adv-x="438" 
d="M187 237q0 -14 9 -23t23 -9t23 9t9 23t-9 23t-23 9t-23 -9t-9 -23zM98 54l-14 -18l1 -3l117 142q5 -1 9 -1.5t10 -0.5l-1 3q-26 0 -44.5 17.5t-18.5 43.5t18 44t44 18t44 -18t18 -44q0 -22 -14 -39l-169 -204q-16 0 -27 12t-11 30v233q0 56 48 95q47 38 111 38
q31 0 59.5 -10t51.5 -28q48 -39 48 -95v-233q0 -18 -11 -30t-27 -12v275q0 19 -9.5 37t-26 32t-38.5 22t-47 8t-47 -8t-38.5 -22t-26 -32t-9.5 -37v-215z" />
    <glyph glyph-name="uni0E15" unicode="&#xe15;" horiz-adv-x="438" 
d="M187 227q0 -14 9 -23t23 -9t23 9t9 23t-9 23t-23 9t-23 -9t-9 -23zM98 52l-14 -17l1 -3l116 133q5 -1 9 -1.5t10 -0.5l-1 3q-26 0 -44 17.5t-18 43.5t18 44t44 18q25 0 43.5 -18t18.5 -44q0 -22 -15 -40l-168 -193q-16 0 -27 12t-11 30v252q0 27 10 48.5t25 36t33 22
t33 7.5q7 0 12 -5q9 -8 18 -14q8 -6 15.5 -11.5t12.5 -10.5q5 5 13 10.5t16 11.5q9 6 17 14q5 5 12 5q15 0 33 -7.5t33 -22t25 -36t10 -48.5v-252q0 -18 -11 -30t-27 -12v294q0 17 -5.5 31t-14 24t-18.5 16t-19 8q-4 -3 -12.5 -10t-17.5 -14q-11 -8 -22 -17q-12 -10 -24 0
q-11 9 -22 17q-9 7 -17.5 14t-12.5 10q-9 -2 -19 -8t-18.5 -16t-14 -24t-5.5 -31v-236z" />
    <glyph glyph-name="uni0E16" unicode="&#xe16;" horiz-adv-x="418" 
d="M108 56q0 -14 9 -23t23 -9t23 9t9 23t-9 23t-23 9t-23 -9t-9 -23zM140 118q26 0 44 -18t18 -44t-18 -44t-44 -18t-44 18t-18 44v137q-2 2 -8 13t-12 23q-8 14 -16 31q-2 6 -2 9q0 30 14 54.5t36.5 42t51 27t57.5 9.5q28 0 56.5 -9t51 -26t37 -42t14.5 -56v-233
q0 -18 -11 -30t-27 -12v275q0 19 -9.5 37t-26 32t-38.5 22t-47 8q-24 0 -45.5 -7.5t-38 -20.5t-26.5 -30t-11 -36q2 -3 7 -14t12 -23q7 -14 17 -30q2 -6 2 -9v-80q-10 -6 -16 -16l1 -3q12 19 39 19z" />
    <glyph glyph-name="uni0E17" unicode="&#xe17;" horiz-adv-x="465" 
d="M116 278q10 6 16 16l-1 3q-12 -19 -39 -19q-26 0 -44 18t-18 44t18 44t44 18t44 -18t18 -44v-242l-12 -34l1 -3q36 91 64 163q12 31 23.5 60t21 52.5t15.5 38t6 15.5q4 12 18 12q54 0 84 -30q30 -29 30 -84v-252q0 -18 -11 -30t-27 -12v294q0 72 -67 76l-146 -370
q-16 0 -27 12t-11 30v242zM60 340q0 -14 9 -23t23 -9t23 9t9 23t-9 23t-23 9t-23 -9t-9 -23z" />
    <glyph glyph-name="uni0E18" unicode="&#xe18;" horiz-adv-x="385" 
d="M325 126q0 -57 -34 -94.5t-99 -37.5q-64 0 -98 37.5t-34 94.5v64q0 17 11 29.5t27 12.5v-106q0 -44 25.5 -71t68.5 -27q42 0 68.5 26t26.5 72v85l-232 58q-6 2 -11 7t-4 13q3 24 15 45t30.5 36t43 23.5t51.5 8.5q21 0 41 -6t37 -16t30 -24t20 -30l1 3q-3 9 -10 19l26 48
q15 -7 19 -20t-3 -27l-25 -50q-7 -13 -17 -12t-15 12q-12 30 -41 49.5t-63 19.5q-38 0 -64.5 -19.5t-34.5 -51.5l214 -52q13 -3 21.5 -14.5t8.5 -26.5v-78z" />
    <glyph glyph-name="uni0E19" unicode="&#xe19;" horiz-adv-x="471" 
d="M116 278q10 6 16 16l-1 3q-12 -19 -39 -19q-26 0 -44 18t-18 44t18 44t44 18t44 -18t18 -44v-307l174 74q17 8 23.5 20t6.5 22v210q0 17 11 29.5t27 12.5v-252q0 -8 -2 -14.5t-5 -13.5q22 -5 37 -22.5t15 -40.5q0 -26 -19 -45t-45 -19q-27 0 -45.5 19t-18.5 48l-159 -67
q-16 0 -27 12t-11 30v242zM60 340q0 -14 9 -23t23 -9t23 9t9 23t-9 23t-23 9t-23 -9t-9 -23zM343 58q0 -14 10 -24t24 -10t24 10t10 24t-10 24t-24 10t-24 -10t-10 -24z" />
    <glyph glyph-name="uni0E1A" unicode="&#xe1a;" horiz-adv-x="455" 
d="M60 340q0 -14 9 -23t23 -9t23 9t9 23t-9 23t-23 9t-23 -9t-9 -23zM92 278q-26 0 -44 18t-18 44t18 44t44 18t44 -18t18 -44v-213q0 -42 28 -70.5t73 -28.5q22 0 40.5 7.5t32 21t21.5 31.5t8 39v232q0 17 11 29.5t27 12.5v-274q0 -30 -11 -54.5t-29.5 -42t-44 -27
t-55.5 -9.5q-29 0 -54.5 9.5t-44 27t-29.5 42t-11 54.5v151q10 6 16 16l-1 3q-12 -19 -39 -19z" />
    <glyph glyph-name="uni0E1B" unicode="&#xe1b;" horiz-adv-x="465" 
d="M60 340q0 -14 9 -23t23 -9t23 9t9 23t-9 23t-23 9t-23 -9t-9 -23zM92 278q-26 0 -44 18t-18 44t18 44t44 18t44 -18t18 -44v-213q0 -42 29 -70.5t77 -28.5t77.5 28.5t29.5 70.5v395q0 17 11 29.5t27 12.5v-437q0 -30 -11.5 -54.5t-31.5 -42t-46.5 -27t-55.5 -9.5
q-28 0 -54 9.5t-46 27t-32 42t-12 54.5v151q10 6 16 16l-1 3q-12 -19 -39 -19z" />
    <glyph glyph-name="uni0E1C" unicode="&#xe1c;" horiz-adv-x="420" 
d="M90 340q0 -14 9 -23t23 -9t23 9t9 23t-9 23t-23 9t-23 -9t-9 -23zM334 42l1 3l-13 25v289q0 17 11 29.5t27 12.5v-365q0 -18 -11 -30t-27 -12l-112 196l-112 -196q-16 0 -27 12t-11 30v304q0 26 18 44t44 18t44 -18t18 -44t-18 -44t-44 -18q-27 0 -39 19l-1 -3
q6 -10 16 -16v-208l-13 -25l1 -3l108 187q2 5 6.5 7t9.5 2q11 0 16 -9z" />
    <glyph glyph-name="uni0E1D" unicode="&#xe1d;" horiz-adv-x="420" 
d="M90 340q0 -14 9 -23t23 -9t23 9t9 23t-9 23t-23 9t-23 -9t-9 -23zM334 42l1 3l-13 25v452q0 17 11 29.5t27 12.5v-528q0 -18 -11 -30t-27 -12l-112 196l-112 -196q-16 0 -27 12t-11 30v304q0 26 18 44t44 18t44 -18t18 -44t-18 -44t-44 -18q-27 0 -39 19l-1 -3
q6 -10 16 -16v-208l-13 -25l1 -3l108 187q2 5 6.5 7t9.5 2q11 0 16 -9z" />
    <glyph glyph-name="uni0E1E" unicode="&#xe1e;" horiz-adv-x="474" 
d="M60 340q0 -14 9 -23t23 -9t23 9t9 23t-9 23t-23 9t-23 -9t-9 -23zM92 278q-26 0 -44 18t-18 44t18 44t44 18t44 -18t18 -44v-240l-11 -33l1 -3l103 279q5 12 18 12t18 -12l103 -279l1 3l-11 33v259q0 17 11 29.5t27 12.5v-365q0 -18 -11 -30t-27 -12l-111 298l-111 -298
q-16 0 -27 12t-11 30v242q10 6 16 16l-1 3q-12 -19 -39 -19z" />
    <glyph glyph-name="uni0E1F" unicode="&#xe1f;" horiz-adv-x="474" 
d="M60 340q0 -14 9 -23t23 -9t23 9t9 23t-9 23t-23 9t-23 -9t-9 -23zM92 278q-26 0 -44 18t-18 44t18 44t44 18t44 -18t18 -44v-240l-11 -33l1 -3l103 279q5 12 18 12t18 -12l103 -279l1 3l-11 33v422q0 17 11 29.5t27 12.5v-528q0 -18 -11 -30t-27 -12l-111 298l-111 -298
q-16 0 -27 12t-11 30v242q10 6 16 16l-1 3q-12 -19 -39 -19z" />
    <glyph glyph-name="uni0E20" unicode="&#xe20;" horiz-adv-x="436" 
d="M92 118q27 0 39 -19l1 3q-6 10 -16 16v73q-3 3 -12 14l-18 22q-11 13 -24 30q-4 6 -4 12q0 30 14 55t36.5 42t51 26.5t57.5 9.5q28 0 56.5 -9t51 -26t37 -42t14.5 -56v-233q0 -18 -11 -30t-27 -12v275q0 19 -9.5 37t-26 32t-38.5 22t-47 8q-24 0 -45.5 -7.5t-38 -20.5
t-26.5 -30t-11 -36q2 -4 11 -14.5t18 -21.5q11 -13 24 -29q5 -5 5 -12v-141q0 -26 -18 -44t-44 -18t-44 18t-18 44t18 44t44 18zM60 56q0 -14 9 -23t23 -9t23 9t9 23t-9 23t-23 9t-23 -9t-9 -23z" />
    <glyph glyph-name="uni0E21" unicode="&#xe21;" horiz-adv-x="451" 
d="M120 278q10 6 16 16l-1 3q-12 -19 -39 -19q-26 0 -44 18t-18 44t18 44t44 18t44 -18t18 -44v-237l195 -71v327q0 17 11 29.5t27 12.5v-365q0 -18 -11 -30t-27 -12l-195 70v-6q0 -27 -18.5 -45.5t-45.5 -18.5q-26 0 -45 18.5t-19 45.5q0 26 19 45t45 19q14 0 26 -6v162z
M96 308q14 0 23 9.5t9 22.5q0 14 -9 23t-23 9t-23 -9t-9 -23q0 -13 9 -22.5t23 -9.5zM60 58q0 -14 10 -24t24 -10t24 10t10 24t-10 24t-24 10t-24 -10t-10 -24z" />
    <glyph glyph-name="uni0E22" unicode="&#xe22;" horiz-adv-x="409" 
d="M110 222q-11 -3 -21 -9q-24 14 -36.5 38.5t-12.5 53.5q0 16 6 33t17 31t26.5 23.5t33.5 9.5q26 0 44 -18t18 -44t-18 -43.5t-44 -17.5q-14 0 -30.5 9.5t-19.5 32.5l-1 -3q0 -12 7 -22q2 -29 22 -45.5t52 -16.5h32q19 0 19 -19q0 -8 -5.5 -13.5t-13.5 -5.5
q-17 0 -35.5 -3.5t-34.5 -12.5t-26 -23.5t-10 -35.5q0 -40 33.5 -66.5t82.5 -26.5t82.5 26.5t33.5 66.5v238q0 17 11 29.5t27 12.5v-280q0 -28 -12 -51t-33 -40t-49 -26.5t-60 -9.5q-33 0 -61 9.5t-48.5 26.5t-32.5 40t-12 51q0 36 19.5 61t52.5 39zM91 340q0 -14 9 -23
t23 -9t23 9t9 23t-9 23t-23 9t-23 -9t-9 -23z" />
    <glyph glyph-name="uni0E23" unicode="&#xe23;" horiz-adv-x="385" 
d="M221 56q0 -14 9 -23t23 -9t23 9t9 23t-9 23t-23 9t-23 -9t-9 -23zM277 214l-222 55q-6 2 -11 7t-4 13q3 24 15 45t30.5 36t43 23.5t51.5 8.5q21 0 41 -6t37 -16t30 -24t20 -30l1 3q-3 9 -10 19l26 48q15 -7 19 -20t-3 -27l-25 -50q-7 -13 -17 -12t-15 12q-12 30 -41 49.5
t-63 19.5q-38 0 -64.5 -19.5t-34.5 -51.5l204 -49q13 -3 21.5 -14.5t8.5 -26.5v-151q0 -26 -18 -44t-44 -18t-44 18t-18 44t18 44t44 18q27 0 39 -19l1 3q-6 10 -16 16v96z" />
    <glyph glyph-name="uni0E24" unicode="&#xe24;" horiz-adv-x="418" 
d="M108 56q0 -14 9 -23t23 -9t23 9t9 23t-9 23t-23 9t-23 -9t-9 -23zM140 118q26 0 44 -18t18 -44t-18 -44t-44 -18t-44 18t-18 44v137q-2 2 -8 13t-12 23q-8 14 -16 31q-2 6 -2 9q0 30 14 54.5t36.5 42t51 27t57.5 9.5q28 0 56.5 -9t51 -26t37 -42t14.5 -56v-427
q0 -18 -11 -30t-27 -12v469q0 19 -9.5 37t-26 32t-38.5 22t-47 8q-24 0 -45.5 -7.5t-38 -20.5t-26.5 -30t-11 -36q2 -3 7 -14t12 -23q7 -14 17 -30q2 -6 2 -9v-80q-10 -6 -16 -16l1 -3q12 19 39 19z" />
    <glyph glyph-name="uni0E25" unicode="&#xe25;" horiz-adv-x="416" 
d="M318 269q0 19 -9.5 37t-26 32t-38 22t-46.5 8t-47 -8t-38.5 -22t-26 -32t-9.5 -37v-9.5t1 -9.5q-16 0 -28 11t-10 27q4 27 19.5 48t37.5 35.5t48 22.5t53 8q28 0 56 -9t50.5 -26.5t37 -42t14.5 -55.5v-233q0 -18 -11 -30t-27 -12v132q0 19 -9.5 37t-26 31.5t-38 21.5
t-46.5 8q-44 0 -72 -26.5t-30 -71.5v-8q-10 -6 -16 -16l1 -3q12 19 39 19q26 0 44 -18t18 -44t-18 -44t-44 -18t-44 18t-18 44v70q0 29 11 53.5t29.5 42t44 27t55.5 9.5q42 0 78.5 -18.5t56.5 -50.5l1 3q-7 11 -16 20v57zM88 56q0 -14 9 -23t23 -9t23 9t9 23t-9 23t-23 9
t-23 -9t-9 -23z" />
    <glyph glyph-name="uni0E26" unicode="&#xe26;" horiz-adv-x="436" 
d="M92 118q27 0 39 -19l1 3q-6 10 -16 16v73q-3 3 -12 14l-18 22q-11 13 -24 30q-4 6 -4 12q0 30 14 55t36.5 42t51 26.5t57.5 9.5q28 0 56.5 -9t51 -26t37 -42t14.5 -56v-427q0 -18 -11 -30t-27 -12v469q0 19 -9.5 37t-26 32t-38.5 22t-47 8q-24 0 -45.5 -7.5t-38 -20.5
t-26.5 -30t-11 -36q2 -4 11 -14.5t18 -21.5q11 -13 24 -29q5 -5 5 -12v-141q0 -26 -18 -44t-44 -18t-44 18t-18 44t18 44t44 18zM60 56q0 -14 9 -23t23 -9t23 9t9 23t-9 23t-23 9t-23 -9t-9 -23z" />
    <glyph glyph-name="uni0E27" unicode="&#xe27;" horiz-adv-x="362" 
d="M208 56q0 -14 9 -23t23 -9t23 9t9 23t-9 23t-23 9t-23 -9t-9 -23zM264 269q0 21 -8 39t-21.5 31.5t-32 21t-40.5 7.5q-20 0 -38.5 -7t-32.5 -20t-22.5 -31.5t-8.5 -40.5v-9.5t2 -9.5q-16 0 -28 11t-10 27q3 25 15 46t31 36t42.5 23.5t49.5 8.5q29 0 54.5 -9.5t44.5 -26.5
t30 -42t11 -55v-213q0 -26 -18 -44t-44 -18t-44 18t-18 44t18 44t44 18q27 0 39 -19l1 3q-6 10 -16 16v151z" />
    <glyph glyph-name="uni0E28" unicode="&#xe28;" horiz-adv-x="438" 
d="M219 402q34 0 68 -13.5t58 -38.5q15 23 15 45v9.5t-2 9.5q16 0 27.5 -11t9.5 -26q-2 -16 -10 -30.5t-19 -28.5q5 -11 8.5 -23t3.5 -26v-233q0 -18 -11 -30t-27 -12v275q0 5 -1 11t-3 11q-14 -11 -29 -18.5t-31 -13.5q5 -12 5 -23q0 -26 -18.5 -44t-43.5 -18q-40 0 -52 38
l-1 -3q2 -10 7 -17l-75 -198q-16 0 -27 12t-11 30v233q0 30 14 54.5t36.5 42t51 27t57.5 9.5zM255 285q36 11 65 37q-17 20 -43 33t-58 13q-25 0 -47 -8t-38.5 -22t-26 -32t-9.5 -37v-169l-9 -27l1 -3l72 190q6 17 21.5 27.5t35.5 10.5t36 -13zM187 236q0 -14 9 -23t23 -9
t23 9t9 23t-9 23t-23 9t-23 -9t-9 -23z" />
    <glyph glyph-name="uni0E29" unicode="&#xe29;" horiz-adv-x="465" 
d="M60 340q0 -14 9 -23t23 -9t23 9t9 23t-9 23t-23 9t-23 -9t-9 -23zM205 216q0 -12 8.5 -20.5t20.5 -8.5t20.5 8.5t8.5 20.5t-8.5 20.5t-20.5 8.5t-20.5 -8.5t-8.5 -20.5zM377 204q-9 -33 -35.5 -56.5t-64.5 -23.5q-19 0 -37 7t-32 19t-22.5 29t-8.5 37q0 23 16.5 40
t40.5 17q23 0 40 -17t17 -40t-17 -38t-40 -15l-3 -1q13 -2 23 1q12 -5 23 -5q19 0 33.5 10.5t23 27t11 37t-2.5 39.5q29 0 37 -23l1 3q-3 7 -5.5 10t-7.5 7v94q0 17 11 27.5t27 10.5v-274q0 -30 -11.5 -54.5t-31.5 -42t-46 -27t-56 -9.5q-29 0 -55 9.5t-46 27t-31.5 42
t-11.5 54.5v151q10 6 16 16l-1 3q-12 -19 -39 -19q-26 0 -44 18t-18 44t18 44t44 18t44 -18t18 -44v-213q0 -21 8.5 -39t22.5 -31.5t33.5 -21t41.5 -7.5t41.5 7.5t34 21t23 31.5t8.5 39v46q7 12 11 28z" />
    <glyph glyph-name="uni0E2A" unicode="&#xe2a;" horiz-adv-x="416" 
d="M58 126q0 29 10.5 53t29 41t43.5 27t54 11q26 11 53.5 27.5t49.5 36.5q-17 20 -43 33t-57 13q-25 0 -47 -8t-38.5 -22t-26 -32t-9.5 -37v-9.5t1 -9.5q-16 0 -28 11t-10 27q4 27 19.5 48t37.5 35.5t48 22.5t53 8q34 0 67.5 -13.5t56.5 -38.5q16 24 16 45v9.5t-2 9.5
q16 0 27.5 -11t9.5 -26q-3 -29 -29 -58q12 -23 12 -50v-233q0 -18 -11 -30t-27 -12v132q0 19 -9.5 37t-26 31.5t-38 21.5t-46.5 8q-44 0 -72 -26.5t-30 -71.5v-8q-10 -6 -16 -16l1 -3q12 19 39 19q26 0 44 -18t18 -44t-18 -44t-44 -18t-44 18t-18 44v70zM88 56q0 -14 9 -23
t23 -9t23 9t9 23t-9 23t-23 9t-23 -9t-9 -23zM318 269q0 5 -1 11t-3 11q-15 -12 -32 -22t-34 -19q26 -8 48.5 -23.5t36.5 -37.5l1 3q-7 11 -16 20v57z" />
    <glyph glyph-name="uni0E2B" unicode="&#xe2b;" horiz-adv-x="466" 
d="M116 278q10 6 16 16l-1 3q-12 -19 -39 -19q-26 0 -44 18t-18 44t18 44t44 18t44 -18t18 -44v-269l-13 -25l1 -3l128 226q7 11 14.5 20.5t18.5 15.5q-11 16 -11 35q0 26 18 44t44 18t44 -18t18 -44q0 -15 -7.5 -29t-19.5 -22q17 -17 17 -42v-211q0 -18 -11 -30t-27 -12
v253q0 11 -7 21.5t-22 10.5q-14 0 -23 -6.5t-18 -23.5l-144 -255q-16 0 -27 12t-11 30v242zM60 340q0 -14 9 -23t23 -9t23 9t9 23t-9 23t-23 9t-23 -9t-9 -23zM322 340q0 -14 9 -23t23 -9t23 9t9 23t-9 23t-23 9t-23 -9t-9 -23z" />
    <glyph glyph-name="uni0E2C" unicode="&#xe2c;" horiz-adv-x="476" 
d="M389 56l-11 25v198q-8 -1 -12 -1h-12q-26 0 -44 18t-18 44t18 44t44 18t44 -18t18 -44v-22l3 1v19q11 14 13.5 30t0.5 33q15 0 27 -10.5t10 -26.5q-5 -24 -19 -43.5t-35 -30.5v-254q0 -18 -11 -30t-27 -12l-113 233l-111 -233q-16 0 -27 12t-11 30v242q10 6 16 16l-1 3
q-12 -19 -39 -19q-26 0 -44 18t-18 44t18 44t44 18t44 -18t18 -44v-259l-11 -25l1 -3l104 217q5 11 17 11t17 -11l106 -217zM60 340q0 -14 9 -23t23 -9t23 9t9 23t-9 23t-23 9t-23 -9t-9 -23zM322 340q0 -14 9 -23t23 -9t23 9t9 23t-9 23t-23 9t-23 -9t-9 -23z" />
    <glyph glyph-name="uni0E2D" unicode="&#xe2d;" horiz-adv-x="419" 
d="M102 175q-4 -13 -4 -29v-19q0 -22 9 -40t24.5 -31t35.5 -20.5t42 -7.5q21 0 41 7t35.5 19.5t25.5 31t10 41.5v142q0 19 -9.5 37t-26 32t-38.5 22t-47 8t-47 -8t-38.5 -22t-26 -32t-9.5 -37v-9.5t1 -9.5q-16 0 -28 11t-10 27q8 46 47 76q47 38 111 38q31 0 59.5 -10
t51.5 -28q48 -39 48 -95v-142q0 -30 -12.5 -54.5t-33.5 -42t-48 -27t-56 -9.5q-28 0 -54.5 9t-47.5 26.5t-34 42t-13 55.5v19q0 15 7.5 35.5t20.5 38.5t30.5 30.5t38.5 12.5q26 0 44 -18t18 -44t-18 -43t-44 -17q-23 0 -38.5 14.5t-18.5 36.5l-1 -3q0 -8 3 -14zM125 201
q0 -14 9 -23t23 -9t23 9t9 23t-9 23t-23 9t-23 -9t-9 -23z" />
    <glyph glyph-name="uni0E2E" unicode="&#xe2e;" horiz-adv-x="428" 
d="M347 389q3 11 1 25q17 1 28.5 -12.5t7.5 -29.5q-6 -23 -23.5 -40.5t-40.5 -30.5t-48.5 -21t-46.5 -13q-18 -4 -44.5 -8t-52.5 -2.5t-47.5 11t-28.5 31.5q-7 21 4 39.5t33 33t52 23t62 8.5q30 0 60 -10.5t53 -28.5t37.5 -42.5t14.5 -52.5v-142q0 -28 -12 -52.5t-33 -42.5
t-49 -28t-60 -10q-33 0 -61 10t-48.5 28t-32.5 42t-12 52q0 19 7.5 38.5t21 34.5t31 24.5t37.5 9.5q26 0 44 -18t18 -44t-18 -43t-44 -17q-23 0 -38.5 14.5t-18.5 36.5l-1 -3q0 -8 3 -14q-4 -11 -4 -18q0 -20 9 -38.5t24.5 -32t37 -21.5t45.5 -8t45.5 8t37 21.5t24.5 32
t9 38.5v142q0 20 -11 38.5t-29 32t-40.5 21.5t-46.5 8q-22 0 -44 -5t-38.5 -13t-26 -18.5t-6.5 -21.5q3 -14 19.5 -18.5t37 -4.5t40.5 3t32 6q19 4 40 12t39.5 19.5t32 26.5t18.5 34zM125 171q0 -14 9 -23t23 -9t23 9t9 23t-9 23t-23 9t-23 -9t-9 -23z" />
    <glyph glyph-name="uni0E2F" unicode="&#xe2f;" horiz-adv-x="381" 
d="M60 340q0 -14 9 -23t23 -9t23 9t9 23t-9 23t-23 9t-23 -9t-9 -23zM299 306q-20 -29 -55.5 -47t-72.5 -18q-20 0 -44.5 6t-46 18.5t-36 31t-14.5 43.5q0 26 18.5 44t43.5 18q26 0 43 -18t17 -44q0 -19 -14 -36.5t-37 -18.5l3 -2q4 0 7.5 0.5t8.5 1.5q23 -10 51 -10
q22 0 42 8t35.5 23.5t25 39.5t9.5 56q16 0 27 -12.5t11 -29.5v-324q0 -18 -11 -30t-27 -12v287q5 5 9 11t8 11z" />
    <glyph glyph-name="uni0E30" unicode="&#xe30;" horiz-adv-x="336" 
d="M70 318q0 -14 9 -23t23 -9t23 9t9 23t-9 23t-23 9t-23 -9t-9 -23zM107 261q13 -2 27 3q8 -2 16 -3t15 -1q43 0 70.5 31.5t22.5 88.5q16 0 28 -11.5t10 -27.5q-2 -26 -13.5 -47.5t-29 -36.5t-40.5 -23t-48 -8q-20 0 -42 6t-40.5 17.5t-30.5 28.5t-12 40q0 26 18 44t44 18
q25 0 42.5 -18t17.5 -44q0 -19 -9.5 -33.5t-26.5 -19.5q-5 -2 -11 -2t-9 1zM70 108q0 -14 9 -23t23 -9t23 9t9 23t-9 23t-23 9t-23 -9t-9 -23zM107 51q13 -2 27 3q8 -2 16 -3t15 -1q43 0 70.5 31.5t22.5 88.5q16 0 28 -11.5t10 -27.5q-2 -26 -13.5 -47.5t-29 -36.5
t-40.5 -23t-48 -8q-20 0 -42 6t-40.5 17.5t-30.5 28.5t-12 40q0 26 18 44t44 18q25 0 42.5 -18t17.5 -44q0 -19 -9.5 -33.5t-26.5 -19.5q-5 -2 -11 -2t-9 1z" />
    <glyph glyph-name="uni0E31" unicode="&#xe31;" 
d="M-221 558q0 -14 9 -23t23 -9t23 9t9 23t-9 23t-23 9t-23 -9t-9 -23zM37 578q-2 -21 -12.5 -42t-29.5 -38.5t-45.5 -28t-59.5 -10.5q-20 0 -44.5 6t-46 18.5t-36 31t-14.5 43.5q0 26 18.5 44t43.5 18q26 0 43 -18t17 -44q0 -19 -14 -36.5t-37 -18.5l3 -2q4 0 7.5 0.5
t8.5 1.5q23 -10 51 -10q46 0 79 31.5t33 95.5q17 0 27.5 -12.5t7.5 -29.5z" />
    <glyph glyph-name="uni0E32" unicode="&#xe32;" horiz-adv-x="362" 
d="M264 269q0 21 -8 39t-21.5 31.5t-32 21t-40.5 7.5q-20 0 -38.5 -7t-32.5 -20t-22.5 -31.5t-8.5 -40.5v-9.5t2 -9.5q-16 0 -28 11t-10 27q3 25 15 46t31 36t42.5 23.5t49.5 8.5q29 0 54.5 -9.5t44.5 -26.5t30 -42t11 -55v-233q0 -18 -11 -30t-27 -12v275z" />
    <glyph glyph-name="uni0E33" unicode="&#xe33;" horiz-adv-x="362" 
d="M-134 522q0 -15 10.5 -26t25.5 -11t25.5 11t10.5 26t-10.5 26t-25.5 11t-25.5 -11t-10.5 -26zM-168 522q0 28 20.5 47.5t49.5 19.5t49.5 -19.5t20.5 -47.5t-20.5 -47.5t-49.5 -19.5t-49.5 19.5t-20.5 47.5zM264 269q0 21 -8 39t-21.5 31.5t-32 21t-40.5 7.5
q-20 0 -38.5 -7t-32.5 -20t-22.5 -31.5t-8.5 -40.5v-9.5t2 -9.5q-16 0 -28 11t-10 27q3 25 15 46t31 36t42.5 23.5t49.5 8.5q29 0 54.5 -9.5t44.5 -26.5t30 -42t11 -55v-233q0 -18 -11 -30t-27 -12v275z" />
    <glyph glyph-name="uni0E34" unicode="&#xe34;" 
d="M-363 480q0 18 12.5 36.5t33.5 33t49 23.5t59 9t58.5 -10.5t48.5 -28t33 -39t12 -43.5q0 -7 -6.5 -12.5t-15.5 -3.5q-62 17 -134 22t-131 -2q-8 -1 -13.5 3.5t-5.5 11.5zM-91 472q-3 14 -14 28.5t-27 26.5t-36 20t-41 8q-17 0 -35.5 -4.5t-35 -12.5t-29.5 -20.5
t-19 -27.5q59 11 120.5 6t116.5 -24z" />
    <glyph glyph-name="uni0E35" unicode="&#xe35;" 
d="M-363 480q0 18 12.5 36.5t33.5 33t49 23.5t59 9q33 0 62.5 -12t50.5 -32v46q0 17 9.5 26.5t26.5 9.5v-137q3 -12 3 -22q0 -7 -6.5 -12.5t-15.5 -3.5q-62 17 -134 22t-131 -2q-8 -1 -13.5 3.5t-5.5 11.5zM-91 472q-3 14 -14 28.5t-27 26.5t-36 20t-41 8q-17 0 -35.5 -4.5
t-35 -12.5t-29.5 -20.5t-19 -27.5q59 11 120.5 6t116.5 -24z" />
    <glyph glyph-name="uni0E36" unicode="&#xe36;" 
d="M-363 480q0 18 12.5 36.5t33.5 33t49 23.5t59 9q17 0 33.5 -3.5t31.5 -9.5q1 21 16.5 36t36.5 15t37 -15.5t16 -37.5q0 -18 -11 -32t-27 -19q19 -29 19 -55q0 -7 -6.5 -12.5t-15.5 -3.5q-62 17 -134 22t-131 -2q-8 -1 -13.5 3.5t-5.5 11.5zM-91 472q-3 14 -14 28.5
t-27 26.5t-36 20t-41 8q-17 0 -35.5 -4.5t-35 -12.5t-29.5 -20.5t-19 -27.5q59 11 120.5 6t116.5 -24zM-117 567q0 -10 6 -17l7 -5q6 -3 13 -3q11 0 18 7t7 18t-7 18.5t-18 7.5t-18.5 -7.5t-7.5 -18.5z" />
    <glyph glyph-name="uni0E37" unicode="&#xe37;" 
d="M-363 480q0 18 12.5 36.5t33.5 33t49 23.5t59 9q26 0 52 -8v10q0 17 9.5 26.5t26.5 9.5v-63q7 -5 13.5 -9.5t11.5 -9.5v46q0 17 9.5 26.5t26.5 9.5v-137q3 -12 3 -22q0 -7 -6.5 -12.5t-15.5 -3.5q-62 17 -134 22t-131 -2q-8 -1 -13.5 3.5t-5.5 11.5zM-91 472
q-3 14 -14 28.5t-27 26.5t-36 20t-41 8q-17 0 -35.5 -4.5t-35 -12.5t-29.5 -20.5t-19 -27.5q59 11 120.5 6t116.5 -24z" />
    <glyph glyph-name="uni0E38" unicode="&#xe38;" 
d="M-96 -155q10 5 16 15l-1 3q-11 -17 -36 -17q-23 0 -40 17t-17 40t17 40t40 17t40 -17t17 -40v-82q0 -17 -10.5 -28.5t-25.5 -11.5v64zM-146 -97q0 -12 8.5 -20.5t20.5 -8.5t20.5 8.5t8.5 20.5t-8.5 20.5t-20.5 8.5t-20.5 -8.5t-8.5 -20.5z" />
    <glyph glyph-name="uni0E39" unicode="&#xe39;" 
d="M-146 -161q0 -11 6.5 -18.5t18.5 -7.5q11 0 18 7.5t7 18.5v80q0 17 10.5 28.5t25.5 11.5v-120q0 -24 -17.5 -41t-43.5 -17q-21 0 -40 13.5t-21 39.5v11q10 5 16 15l-1 3q-11 -17 -36 -17q-23 0 -40 17t-17 40t17 40t40 17t40 -17t17 -40v-64zM-232 -97q0 -12 8.5 -20.5
t20.5 -8.5t20.5 8.5t8.5 20.5t-8.5 20.5t-20.5 8.5t-20.5 -8.5t-8.5 -20.5z" />
    <glyph glyph-name="uni0E3A" unicode="&#xe3a;" 
d="M-109 -70q0 13 8.5 21.5t21.5 8.5t21.5 -8.5t8.5 -21.5t-8.5 -21.5t-21.5 -8.5t-21.5 8.5t-8.5 21.5z" />
    <glyph glyph-name="uni0E3F" unicode="&#xe3f;" horiz-adv-x="465" 
d="M340 250q45 -10 70 -44t25 -77q0 -26 -8 -49.5t-23.5 -41t-38 -28t-50.5 -10.5h-84v-22q0 -34 -34 -34v56h-117q-8 0 -14 6t-6 14v435q0 9 6 14.5t14 5.5h117v22q0 34 34 34v-56h44q25 0 47 -10.5t38 -28t25.5 -40.5t9.5 -48q0 -27 -14.5 -55.5t-40.5 -42.5zM315 36
q34 0 57 24.5t23 68.5q0 42 -23 66.5t-57 24.5h-84v-184h84zM231 439v-183h44q17 0 31.5 8.5t25.5 21.5t17 29.5t6 32.5t-6 32.5t-17 29.5t-25.5 21t-31.5 8h-44zM100 36h97v184h-97v-184zM100 256h97v183h-97v-183z" />
    <glyph glyph-name="uni0E40" unicode="&#xe40;" horiz-adv-x="214" 
d="M98 118q-10 -6 -16 -16l1 -3q12 19 39 19q26 0 44 -18t18 -44t-18 -44t-44 -18t-44 18t-18 44v304q0 17 11 29.5t27 12.5v-284zM90 56q0 -14 9 -23t23 -9t23 9t9 23t-9 23t-23 9t-23 -9t-9 -23z" />
    <glyph glyph-name="uni0E41" unicode="&#xe41;" horiz-adv-x="385" 
d="M98 118q-10 -6 -16 -16l1 -3q12 19 39 19q26 0 44 -18t18 -44t-18 -44t-44 -18t-44 18t-18 44v304q0 17 11 29.5t27 12.5v-284zM90 56q0 -14 9 -23t23 -9t23 9t9 23t-9 23t-23 9t-23 -9t-9 -23zM269 118q-10 -6 -16 -16l1 -3q12 19 39 19q26 0 44 -18t18 -44t-18 -44
t-44 -18t-44 18t-18 44v304q0 17 11 29.5t27 12.5v-284zM261 56q0 -14 9 -23t23 -9t23 9t9 23t-9 23t-23 9t-23 -9t-9 -23z" />
    <glyph glyph-name="uni0E42" unicode="&#xe42;" horiz-adv-x="254" 
d="M130 56q0 -14 9 -23t23 -9t23 9t9 23t-9 23t-23 9t-23 -9t-9 -23zM223 597q-3 9 -10 19l20 37q15 -7 19 -20t-3 -27l-17 -36q-7 -13 -17.5 -12t-15.5 12q-10 22 -31 38.5t-55 16.5t-55.5 -18.5t-26.5 -47.5l76 -25q31 -9 31 -43v-373q-10 -6 -16 -16l1 -3q12 19 39 19
q26 0 44 -18t18 -44t-18 -44t-44 -18t-44 18t-18 44v445l-93 30q-15 4 -15 19q0 22 9.5 42t26 35t38.5 23.5t47 8.5q34 0 63.5 -16t45.5 -49z" />
    <glyph glyph-name="uni0E43" unicode="&#xe43;" horiz-adv-x="254" 
d="M130 56q0 -14 9 -23t23 -9t23 9t9 23t-9 23t-23 9t-23 -9t-9 -23zM33 526q0 -14 9 -23t23 -9t23 9t9 23t-9 23t-23 9t-23 -9t-9 -23zM162 118q26 0 44 -18t18 -44t-18 -44t-44 -18t-44 18t-18 44v283q0 38 11 70t32 61q11 14 24 34t13 43q0 15 -6 29t-16 25t-23.5 17.5
t-28.5 6.5q-26 0 -45 -13.5t-28 -33.5q-10 -10 -14 -20l1 -3q5 14 18.5 21.5t26.5 7.5q26 0 44 -16.5t18 -41.5q0 -26 -18 -44t-44 -18q-32 0 -51.5 25t-19.5 58q0 23 9 43.5t24 35.5t35.5 24t43.5 9t43 -9t35 -24t24 -35.5t9 -43.5q0 -14 -5 -27.5t-12.5 -26.5t-16 -25
t-15.5 -22q-16 -23 -23 -46t-7 -61v-221q-10 -6 -16 -16l1 -3q12 19 39 19z" />
    <glyph glyph-name="uni0E44" unicode="&#xe44;" horiz-adv-x="253" 
d="M130 56q0 -14 9 -23t23 -9t23 9t9 23t-9 23t-23 9t-23 -9t-9 -23zM138 118q-10 -6 -16 -16l1 -3q12 19 39 19q26 0 44 -18t18 -44t-18 -44t-44 -18t-44 18t-18 44v283q0 37 7 75t24 67q5 9 11 21.5t11 25t8.5 24t3.5 20.5q0 27 -11 48l-70 -113q-5 -9 -16 -9q-10 0 -16 9
l-65 103q-8 12 -4.5 26.5t14.5 22.5l74 -120l70 111q5 8 10 9q6 1 12 -5q17 -17 24.5 -38t7.5 -44q0 -10 -4 -23.5t-9.5 -28.5t-12 -29t-11.5 -25q-14 -29 -17 -60.5t-3 -66.5v-221z" />
    <glyph glyph-name="uni0E45" unicode="&#xe45;" horiz-adv-x="362" 
d="M264 269q0 21 -8 39t-21.5 31.5t-32 21t-40.5 7.5q-20 0 -38.5 -7t-32.5 -20t-22.5 -31.5t-8.5 -40.5v-9.5t2 -9.5q-16 0 -28 11t-10 27q3 25 15 46t31 36t42.5 23.5t49.5 8.5q29 0 54.5 -9.5t44.5 -26.5t30 -42t11 -55v-427q0 -18 -11 -30t-27 -12v469z" />
    <glyph glyph-name="uni0E46" unicode="&#xe46;" horiz-adv-x="374" 
d="M77 304q-10 -5 -15 -15l1 -3q12 19 39 19q26 0 44 -16.5t18 -42.5t-18 -44t-44 -18q-25 0 -43 18t-18 44v42q0 31 9.5 51.5t19.5 31.5q13 14 28.5 22.5t30.5 8.5q8 0 14 -6l12 -12q5 -5 11 -10.5t11 -10.5q5 5 11.5 10.5t11.5 10.5l12 12q6 6 13 6q15 0 30.5 -8.5
t28.5 -22.5q11 -11 20.5 -31.5t9.5 -51.5v-446q0 -17 -11 -29.5t-27 -12.5v488q0 22 -6.5 39t-13.5 25q-6 7 -12.5 11t-11.5 6q-4 -4 -11 -10.5t-14 -13.5q-8 -8 -17 -16q-5 -5 -13 -5t-13 5q-9 8 -17 16l-24 24q-5 -2 -11.5 -6t-12.5 -11q-5 -6 -12 -18.5t-10 -29.5z
M102 278q-13 0 -22 -9.5t-9 -22.5q0 -14 9 -23t22 -9q14 0 23 9t9 23q0 13 -9 22.5t-23 9.5z" />
    <glyph glyph-name="uni0E47" unicode="&#xe47;" 
d="M-60 686q13 -10 14.5 -26.5t-9.5 -27.5q-14 -14 -35 -19t-44 -5h-68q-32 0 -53 -18t-21 -40q0 -23 9 -37.5t25 -25.5q-5 16 2 29.5t23 20.5q11 5 18 0.5t8 -12.5q2 -19 13.5 -28.5t28.5 -11.5q8 -6 19 -6l3 1q-20 2 -30 18.5t-10 30.5q0 22 15 37.5t38 15.5t38.5 -15.5
t15.5 -38.5q0 -18 -7 -31.5t-18 -22.5t-24 -13.5t-25 -4.5t-25 2t-25 8t-21.5 15.5t-13.5 24.5q-6 -6 -5.5 -15t8.5 -17q5 -6 1.5 -12t-13.5 -6q-16 0 -31 6.5t-27 19t-19 30t-7 38.5t9.5 38t25.5 28.5t35.5 17.5t39.5 6h68q26 0 44.5 13t29.5 33zM-114 553q-11 0 -18 -7
t-7 -18q0 -10 7 -17.5t18 -7.5t18 7.5t7 17.5q0 11 -7 18t-18 7z" />
    <glyph glyph-name="uni0E48" unicode="&#xe48;" 
d="M-60.001 674.456q0 -34.2002 -34.2002 -34.2002v128.251q0 34.2012 34.2002 34.2012v-128.252z" />
    <glyph glyph-name="uni0E49" unicode="&#xe49;" 
d="M-34.584 801.694q15.1963 0 26.1182 -9.05469q10.9229 -9.05566 10.9229 -26.2129q0 -54.332 -34.1924 -87.6934q-24.6934 -22.876 -59.3604 -31.4551q-34.666 -8.5791 -85.0039 -8.5791q-12.3467 0 -15.1963 10.0088t8.54785 15.7275q19.9453 10.4854 33.2422 30.502
q13.2969 2.85938 21.8447 14.2979l-0.950195 0.953125q-3.79883 -4.76562 -10.4473 -8.10156q-6.64844 -3.33691 -14.2471 -3.33691q-21.8447 0 -37.04 15.251q-15.1973 15.251 -15.1973 37.1748q0 21.9229 15.1973 36.2207q15.1953 14.2979 37.04 14.2979
q20.8955 0 36.5664 -14.2979t15.6709 -36.2207q0 -30.502 -8.54785 -49.5654q-8.54785 -19.0645 -20.8945 -32.4092q-4.74902 -1.90625 -10.4473 -3.33594q-5.69922 -1.42969 -10.4473 -1.42969l-0.950195 -1.90625q30.3926 1.90625 58.8857 15.251t42.7393 31.4551
q15.1963 19.0635 18.0459 43.3701t-1.89941 49.0889zM-178.949 751.176q0 -10.4854 7.59863 -18.1104q7.59766 -7.62598 18.0449 -7.62598q10.4482 0 18.0459 7.62598q7.59863 7.625 7.59863 18.1104q0 10.4844 -7.59863 18.1104q-7.59766 7.62598 -18.0459 7.62598
q-10.4473 0 -18.0449 -7.62598q-7.59863 -7.62598 -7.59863 -18.1104z" />
    <glyph glyph-name="uni0E4A" unicode="&#xe4a;" 
d="M-69.0293 664.978q18.0352 9.00488 29.3066 22.5137t18.4854 26.1172q18.0352 33.3213 9.91895 80.1504q14.4277 0 24.7979 -8.55469q10.3701 -8.55566 10.3701 -24.7666q0 -49.5312 -32.4619 -82.8525q-12.625 -12.6074 -35.6191 -25.2158t-46.4385 -12.6084
q-7.21484 0 -11.2725 4.95312t2.25488 11.2578q13.5254 14.4092 17.584 29.7188q4.05762 15.3096 4.05762 38.7246q0 19.8125 -9.91895 32.8711q-9.91992 13.0576 -25.249 13.0576q-9.01758 0 -18.4854 -5.85352q-9.46875 -5.85352 -13.9766 -15.7598
q-1.80371 -4.50293 -6.76367 -4.50293q-4.95898 0 -6.7627 4.50293q-4.50879 9.90625 -13.0752 15.7598t-17.584 5.85352q-16.2305 0 -27.0518 -11.707t-12.624 -29.7188q-6.3125 -6.30371 -9.91895 -15.3096l0.901367 -0.901367q4.50879 10.8076 15.7803 16.2109
t22.0928 5.40332q20.7393 0 34.7168 -12.6084q13.9766 -12.6074 13.9766 -33.3213q0 -20.7129 -13.9766 -34.6719q-13.9775 -13.959 -34.7168 -13.959q-25.249 0 -40.127 22.0645q-14.8789 22.0635 -17.584 46.3799q-1.80371 15.3096 1.35254 30.6191t11.7227 27.4678
q8.56641 12.1572 22.543 19.8125q13.9766 7.6543 32.9131 7.6543q23.4453 0 37.873 -19.8125q14.4277 19.8125 38.7744 19.8125q27.9541 0 46.4395 -17.5605q18.4854 -17.5615 18.4854 -45.4795q0 -27.0166 -4.50879 -40.0752t-16.2314 -25.666zM-225.028 688.392
q0 -9.90625 7.21387 -17.1104q7.21387 -7.20508 17.1328 -7.20508t17.1328 7.20508q7.21387 7.2041 7.21387 17.1104q0 9.90723 -7.21387 17.1113t-17.1328 7.2041t-17.1328 -7.2041t-7.21387 -17.1113z" />
    <glyph glyph-name="uni0E4B" unicode="&#xe4b;" 
d="M5.7207 732.521q0 -30.6201 -30.6543 -30.6201h-35.1631v-29.7188q0 -32.4209 -32.458 -32.4209v62.1396h-66.7188q0 30.6201 30.6543 30.6201h36.0645v28.8184q0 32.4199 32.458 32.4199v-61.2383h65.8174z" />
    <glyph glyph-name="uni0E4C" unicode="&#xe4c;" 
d="M-104.885 590.9q-20.7959 0 -37.5225 15.3145q-16.7275 15.3145 -20.3447 37.8369q-3.61621 24.3232 8.1377 49.0977q11.7549 24.7744 44.3047 40.0889q27.126 12.6133 43.8525 27.0273q16.7275 14.4141 26.6738 39.6387q12.6582 -7.20703 16.7266 -19.8203
q4.06934 -12.6113 -4.06836 -25.2246q-11.7549 -17.1162 -31.1943 -28.377q-19.4395 -11.2617 -43.8525 -20.2695q-12.6582 -5.40625 -19.8916 -15.3154q-9.04199 -4.50488 -14.4668 -12.6123l0.904297 -0.900391q9.94531 12.6113 30.7412 12.6113
q20.7969 0 35.7158 -13.9629q14.9189 -13.9639 14.9189 -34.6836q0 -20.7207 -14.9189 -35.585t-35.7158 -14.8643zM-129.297 641.35q0 -9.91016 7.2334 -17.1172t17.1787 -7.20703q9.94629 0 17.1797 7.20703t7.2334 17.1172q0 9.90918 -7.2334 17.1162t-17.1797 7.20703
q-9.94531 0 -17.1787 -7.20703t-7.2334 -17.1162z" />
    <glyph glyph-name="uni0E4D" unicode="&#xe4d;" 
d="M-134 522q0 -15 10.5 -26t25.5 -11t25.5 11t10.5 26t-10.5 26t-25.5 11t-25.5 -11t-10.5 -26zM-168 522q0 28 20.5 47.5t49.5 19.5t49.5 -19.5t20.5 -47.5t-20.5 -47.5t-49.5 -19.5t-49.5 19.5t-20.5 47.5z" />
    <glyph glyph-name="uni0E4E" unicode="&#xe4e;" 
d="M-163 599q0 15 8 27.5t20 22t27 14.5t30 5q20 0 34.5 -9.5t18.5 -24.5q2 -9 -4.5 -16.5t-14.5 -5.5q0 12 -11 20t-23 8q-20 0 -34 -11.5t-18 -24.5q-2 -11 5 -18t19 -6q4 0 7.5 -2.5t2.5 -7.5t-4 -7.5t-6 -2.5q-9 -1 -20.5 -5t-21.5 -11t-17 -17t-7 -24q0 -11 11 -18.5
t23 -7.5q22 0 39 10t27 24q7 -4 9 -13.5t-1 -15.5q-9 -18 -31.5 -25.5t-42.5 -7.5q-23 0 -44.5 13.5t-21.5 40.5q0 9 3 18q5 16 18 29.5t30 21.5q-5 5 -7.5 12.5t-2.5 14.5z" />
    <glyph glyph-name="uni0E4F" unicode="&#xe4f;" horiz-adv-x="457" 
d="M293 163q0 26 -18.5 45t-45.5 19t-45.5 -19t-18.5 -45q0 -27 18.5 -45.5t45.5 -18.5t45.5 18.5t18.5 45.5zM328 163q0 -41 -29 -70.5t-70 -29.5t-70 29.5t-29 70.5t29 70t70 29t70 -29t29 -70zM363 163q0 56 -39 95t-95 39q-55 0 -94.5 -39t-39.5 -95t39.5 -95.5
t94.5 -39.5q56 0 95 40t39 95zM398 163q0 -70 -49.5 -119.5t-119.5 -49.5t-119.5 49.5t-49.5 119.5t49.5 119.5t119.5 49.5q69 0 119 -50t50 -119z" />
    <glyph glyph-name="uni0E50" unicode="&#xe50;" horiz-adv-x="461" 
d="M230 303q35 0 66 -12t54.5 -33t37 -49t13.5 -60t-13.5 -60t-37 -49t-54.5 -33.5t-66 -12.5t-66 12.5t-54 33.5t-36.5 49t-13.5 60t13.5 60t36.5 49t54 33t66 12zM98 148q0 -25 10.5 -47t28.5 -38t42 -25.5t51 -9.5t51.5 9.5t42.5 25.5t28.5 38t10.5 47t-10.5 47
t-28.5 38.5t-42.5 26t-51.5 9.5t-51 -9.5t-42 -26t-28.5 -38.5t-10.5 -47z" />
    <glyph glyph-name="uni0E51" unicode="&#xe51;" horiz-adv-x="461" 
d="M232 303q36 0 67 -14.5t53.5 -39t35.5 -58t13 -71.5q0 -49 -28.5 -93.5t-73.5 -66.5q-15 -7 -29 1t-19 23q9 1 18 5q19 6 36 19.5t30 31.5t20.5 38.5t7.5 41.5q0 28 -9 55t-26 48t-41.5 33.5t-54.5 12.5q-27 0 -51.5 -9t-43 -25.5t-29 -40.5t-10.5 -53q0 -26 12.5 -46.5
t33.5 -28.5q9 -10 25 -15l3 1q-16 5 -26 18t-10 31q0 26 18.5 44t44.5 18t44.5 -18t18.5 -44q0 -24 -13.5 -40t-34 -24.5t-44 -9t-43.5 7.5q-32 13 -49.5 41t-17.5 65q0 36 13 65.5t36 51t54.5 33.5t68.5 12zM199 133q-14 0 -23 -9t-9 -23t9 -23.5t23 -9.5t23.5 9.5
t9.5 23.5t-9.5 23t-23.5 9z" />
    <glyph glyph-name="uni0E52" unicode="&#xe52;" horiz-adv-x="461" 
d="M169 213q-9 -5 -15 -16l1 -3q12 19 39 19q26 0 44.5 -18.5t18.5 -44.5t-18.5 -44.5t-44.5 -18.5t-44.5 18.5t-18.5 44.5v52q0 17 6.5 35t18 32.5t27.5 24t36 9.5q7 0 12 -5q7 -5 13 -10q5 -5 11 -10t11 -9q5 4 11.5 9t11.5 10l12 10q7 5 13 5q13 0 28.5 -6.5t29 -19.5
t22 -32t8.5 -43v-79q0 -32 -16 -56t-41 -40t-55.5 -24.5t-58.5 -8.5q-29 0 -59.5 8.5t-55 24.5t-40.5 40t-16 56v131q0 29 -9.5 58t-38.5 46q11 12 27.5 13.5t26.5 -10.5q32 -38 32 -107v-131q0 -24 13 -42t32.5 -30t43 -17.5t44.5 -5.5t44 5.5t43 17.5t33 30t13 42v79
q0 18 -6.5 32t-12.5 20q-7 6 -13.5 11.5t-11.5 7.5q-4 -3 -10.5 -9t-13.5 -12q-8 -7 -17 -14q-13 -10 -25 0q-9 7 -17 14l-14 12t-10 9q-13 -3 -28.5 -17t-15.5 -43zM194 182q-14 0 -23 -9t-9 -23t9 -23.5t23 -9.5t23.5 9.5t9.5 23.5t-9.5 23t-23.5 9z" />
    <glyph glyph-name="uni0E53" unicode="&#xe53;" horiz-adv-x="461" 
d="M306 303q19 0 36.5 -6.5t30.5 -18t20.5 -26.5t7.5 -32v-184q0 -18 -11 -30t-27 -12v226q0 19 -17 34t-40 15t-40 -15t-17 -34v-101q0 -8 -5.5 -13.5t-13.5 -5.5t-13.5 5.5t-5.5 13.5v101q0 19 -16.5 34t-40.5 15q-23 0 -37.5 -16.5t-22.5 -31.5q-12 -24 -16.5 -54.5
t0.5 -59.5q-8 -9 -11 -20l1 -3q5 17 21.5 26.5t33.5 9.5q26 0 44.5 -18.5t18.5 -44.5t-18.5 -44.5t-44.5 -18.5q-17 0 -30 7.5t-22 19.5q-31 42 -34 107q-2 62 23 110q16 32 40.5 48.5t53.5 16.5q23 0 43 -9t33 -24q14 15 33.5 24t42.5 9zM123 89q-14 0 -23.5 -9t-9.5 -23
t9.5 -23.5t23.5 -9.5t23 9.5t9 23.5t-9 23t-23 9z" />
    <glyph glyph-name="uni0E54" unicode="&#xe54;" horiz-adv-x="461" 
d="M417 372q13 -8 17.5 -23.5t-6.5 -28.5q-25 -30 -54.5 -43.5t-62.5 -13.5h-98q-23 0 -44 -9t-36.5 -24.5t-25 -36.5t-9.5 -45t9.5 -44.5t25 -36t36.5 -24.5t44 -9h41q10 -5 16 -6.5l14 -3.5l3 1q-42 9 -70.5 42t-28.5 81q0 26 19 44.5t45 18.5t44.5 -18.5t18.5 -44.5
t-18.5 -44.5t-44.5 -18.5q-9 0 -17 3.5t-13 7.5l1 -3q6 -4 10.5 -6t12.5 -4q22 -24 54.5 -34.5t61.5 -10.5q15 0 26.5 -11t12.5 -27h-188q-32 0 -60 11t-48.5 30.5t-32.5 46.5t-12 60q0 31 12 58.5t32.5 47.5t48.5 31.5t60 11.5h98q34 0 63 22t43 53zM219 148
q0 -14 9.5 -23.5t23.5 -9.5t23.5 9.5t9.5 23.5t-9.5 23.5t-23.5 9.5t-23.5 -9.5t-9.5 -23.5z" />
    <glyph glyph-name="uni0E55" unicode="&#xe55;" horiz-adv-x="461" 
d="M219 326q0 -14 9.5 -23.5t23.5 -9.5t23.5 9.5t9.5 23.5t-9.5 23.5t-23.5 9.5t-23.5 -9.5t-9.5 -23.5zM60 148q0 29 10.5 55t28.5 45.5t43 32t54 15.5q-7 13 -7 30q0 26 18.5 44.5t44.5 18.5t44.5 -18.5t18.5 -44.5q0 -15 -7 -29q36 0 65.5 22t43.5 53q13 -8 17.5 -23.5
t-6.5 -28.5q-25 -30 -54.5 -43.5t-62.5 -13.5h-98q-23 0 -44 -9t-36.5 -24.5t-25 -36.5t-9.5 -45t9.5 -44.5t25 -36t36.5 -24.5t44 -9h41q10 -5 16 -6.5l14 -3.5l3 1q-42 9 -70.5 42t-28.5 81q0 26 19 44.5t45 18.5t44.5 -18.5t18.5 -44.5t-18.5 -44.5t-44.5 -18.5
q-9 0 -17 3.5t-13 7.5l1 -3q6 -4 10.5 -6t12.5 -4q22 -24 54.5 -34.5t61.5 -10.5q15 0 26.5 -11t12.5 -27h-188q-32 0 -60 11t-48.5 30.5t-32.5 46.5t-12 60zM219 148q0 -14 9.5 -23.5t23.5 -9.5t23.5 9.5t9.5 23.5t-9.5 23.5t-23.5 9.5t-23.5 -9.5t-9.5 -23.5z" />
    <glyph glyph-name="uni0E56" unicode="&#xe56;" horiz-adv-x="461" 
d="M83 365q46 -38 55 -90q20 13 44.5 20.5t47.5 7.5q35 0 66 -12.5t54.5 -33.5t37 -49t13.5 -60t-11.5 -60t-32 -49t-49 -33t-62.5 -12q-31 0 -59.5 11t-48.5 31t-28 46.5t3 58.5q6 18 23 29.5t36 11.5q26 0 44.5 -18.5t18.5 -44.5t-18.5 -43t-44.5 -17q-9 0 -17 3.5
t-13 7.5l1 -3q9 -6 20 -9q28 -30 83 -30q25 0 46 9t37 25t25 38t9 48q0 24 -10.5 46t-28.5 38.5t-42.5 26.5t-51.5 10q-24 0 -50 -11.5t-43 -28.5q-3 -3 -6.5 -5.5t-8.5 -1.5q-9 2 -11 11l-3 16.5l-3 16.5q-6 29 -27 53t-48 35q8 13 23 16.5t30 -5.5zM139 119q0 -14 9.5 -23
t23.5 -9t23.5 9t9.5 23t-9.5 23.5t-23.5 9.5t-23.5 -9.5t-9.5 -23.5z" />
    <glyph glyph-name="uni0E57" unicode="&#xe57;" horiz-adv-x="461" 
d="M123 89q-14 0 -23.5 -9t-9.5 -23t9.5 -23.5t23.5 -9.5t23.5 9.5t9.5 23.5t-9.5 23t-23.5 9zM395 254q0 69 32 107q10 12 26.5 10.5t27.5 -13.5q-29 -17 -38.5 -46t-9.5 -58v-134q0 -45 -29 -79t-70 -47q-9 -3 -16 3t-8 16v219q0 13 -13 25t-31 12q-17 0 -30 -12t-13 -25
v-90q0 -8 -5.5 -13.5t-13.5 -5.5q-19 0 -19 19v90q0 13 -13 25t-31 12q-23 0 -36.5 -18.5t-20.5 -44t-7.5 -53t1.5 -46.5q-8 -9 -11 -20l1 -3q5 17 21.5 26.5t33.5 9.5q26 0 44.5 -18.5t18.5 -44.5t-18.5 -44.5t-44.5 -18.5q-16 0 -29.5 7.5t-22.5 19.5q-13 18 -21.5 46
t-10.5 59t2 63t16.5 57t33 41t50.5 16q39 0 63 -26q24 26 62 26q34 0 58 -21t24 -50v-189q17 9 32 31t15 46v134z" />
    <glyph glyph-name="uni0E58" unicode="&#xe58;" horiz-adv-x="461" 
d="M417 372q14 -8 18 -23.5t-7 -28.5q-25 -30 -54.5 -43.5t-61.5 -13.5h-99q-23 0 -44 -9t-36.5 -24.5t-25 -36.5t-9.5 -45q0 -17 3.5 -35t11.5 -35t21 -30t31 -19l3 1q-6 2 -10 4t-9 6q2 24 14 44t35 31q8 3 15.5 0t10.5 -13q8 -29 31.5 -51.5t56.5 -22.5q6 0 15.5 3.5
t18.5 12.5q8 2 14 4.5t14 10.5l-3 1q-7 -8 -17 -11t-16 -3q-26 0 -44 18.5t-18 44.5t18 44.5t44 18.5t44.5 -18.5t18.5 -44.5q0 -35 -10 -56.5t-21 -32.5q-14 -14 -30 -20t-28 -6q-38 0 -68 20.5t-47 56.5q-8 -9 -11 -21t5 -31q4 -8 -1 -16.5t-16 -8.5q-28 0 -49 14
t-35.5 36.5t-22 50t-7.5 53.5q0 31 12 58.5t32.5 47.5t48.5 31.5t60 11.5h99q34 0 62.5 22t42.5 53zM338 77q14 0 23.5 9t9.5 23t-9.5 23.5t-23.5 9.5t-23 -9.5t-9 -23.5t9 -23t23 -9z" />
    <glyph glyph-name="uni0E59" unicode="&#xe59;" horiz-adv-x="461" 
d="M280 77q0 -17 -7.5 -32t-20 -26t-28.5 -18t-33 -7q-31 0 -55 13t-41 34t-26 49t-9 58q0 31 10 59t27 49.5t39 34t47 12.5q48 0 79 -31q11 14 27 22.5t33 8.5q37 0 64 -24q14 13 18.5 39t-2.5 54q16 0 27.5 -10t11.5 -27q-1 -45 -18 -68.5t-34 -30.5q-7 -2 -13 1t-10 8
q-8 11 -18.5 17.5t-25.5 6.5q-11 0 -21 -9t-15 -19q10 -17 18 -36t16 -39q14 -34 31 -70.5t45 -70.5q5 -6 4.5 -14t-6.5 -13t-14 -4.5t-13 7.5q-31 37 -49.5 76.5t-32.5 74.5q-7 16 -15 36.5t-19.5 38.5t-28 30t-39.5 12q-20 0 -36 -12.5t-27 -30.5t-16.5 -39t-5.5 -39
q0 -19 4 -37.5t13 -34.5t22.5 -28t33.5 -18q11 -13 33 -16l-1 3q-6 1 -13 3.5t-14 8.5q-10 9 -16 21.5t-6 26.5q0 26 18.5 44.5t44.5 18.5t44.5 -18.5t18.5 -44.5zM217 109q-14 0 -23.5 -9t-9.5 -23t9.5 -23.5t23.5 -9.5t23.5 9.5t9.5 23.5t-9.5 23t-23.5 9z" />
    <glyph glyph-name="uni0E5A" unicode="&#xe5a;" horiz-adv-x="493" 
d="M299 306q-20 -29 -55.5 -47t-72.5 -18q-20 0 -44.5 6t-46 18.5t-36 31t-14.5 43.5q0 26 18.5 44t43.5 18q26 0 43 -18t17 -44q0 -19 -14 -36.5t-37 -18.5l3 -2q4 0 7.5 0.5t8.5 1.5q23 -10 51 -10q22 0 42 8t35.5 23.5t25 39.5t9.5 56q16 0 27 -12.5t11 -29.5v-79
q32 11 53.5 40.5t21.5 80.5q16 0 27 -12.5t11 -29.5v-324q0 -18 -11 -30t-27 -12v287q5 5 9 11t8 11l-1 3q-15 -23 -39 -38.5t-52 -22.5v-209q0 -18 -11 -30t-27 -12v287q5 5 9 11t8 11zM60 340q0 -14 9 -23t23 -9t23 9t9 23t-9 23t-23 9t-23 -9t-9 -23z" />
    <glyph glyph-name="uni0E5B" unicode="&#xe5b;" horiz-adv-x="697" 
d="M242 202q0 28 -28 28t-28 -28t28 -28t28 28zM653 197q-6 -12 -23 -12q-34 0 -60 26q-6 -48 -28 -55q-9 0 -20 33q-14 41 -21 49q0 -92 -27 -92q-6 0 -17 36q-12 40 -21 51q-6 -98 -38 -98q-5 0 -17 39q-14 49 -21 59q0 -191 -149 -191q-62 0 -98 43t-36 116q0 75 31 116
t87 41q45 0 71 -27.5t26 -75.5q0 -44 -17 -72q-20 -36 -61 -36q-22 0 -38 16.5t-16 38.5q0 23 15.5 39t38.5 16q26 0 43 -20v2q2 22 2 24q0 64 -61 64q-41 0 -63 -35.5t-22 -95.5q0 -56 27.5 -88.5t70.5 -32.5q59 0 90.5 43.5t31.5 121.5q0 31 -3 47q55 -10 75 -106
q9 29 9 56q0 21 -8 48q41 -12 73 -87q5 22 5 37q0 12 -5 37q43 -12 64 -84q10 13 10 35q0 12 -3 27q8 -2 41 -27q17 -13 29 -18t33 -8z" />
    <glyph glyph-name="zerowidthnonjoiner" unicode="&#x200c;" 
d="M-17 206q0 34 34 34v-514q0 -34 -34 -34v514z" />
    <glyph glyph-name="zerowidthjoiner" unicode="&#x200d;" 
d="M17 151v-425q0 -34 -34 -34v459l-21 -22l-18 17l38 38l-38 39l18 17l38 -38l38 38l18 -17l-38 -39l38 -38l-18 -17z" />
    <glyph glyph-name="lefttorightmark" unicode="&#x200e;" 
d="M17 168v-442q0 -34 -34 -34v512h134l-17 18l16 17l53 -53l-53 -53l-16 18l17 17h-100z" />
    <glyph glyph-name="righttoleftmark" unicode="&#x200f;" 
d="M17 -274q0 -34 -34 -34v476h-100l17 -17l-16 -18l-53 53l53 53l16 -17l-17 -18h134v-478z" />
    <glyph glyph-name="endash" unicode="&#x2013;" horiz-adv-x="400" 
d="M30 180q0 17 9.5 26.5t26.5 9.5h304q0 -17 -9.5 -26.5t-26.5 -9.5h-304z" />
    <glyph glyph-name="emdash" unicode="&#x2014;" horiz-adv-x="735" 
d="M30 181q0 34 34 34h641q0 -34 -34 -34h-641z" />
    <glyph glyph-name="quoteleft" unicode="&#x2018;" horiz-adv-x="155" 
d="M115.002 350.002q0 -15.999 -10.5 -26.998q-10.499 -11 -26.498 -11t-26.998 11q-11 10.999 -11 26.998q0 29.998 4.5 50.9971q4.5 20.998 11.999 35.498q7.5 14.499 16.499 23.998q9 9.49902 17.999 16.499q4 3 9.5 3q5.49902 0 8.49902 -3
q-19.999 -17.999 -31.498 -40.4971q-11.499 -22.499 -11.499 -51.4971q4 2 11.999 2q15.999 0 26.498 -10.5q10.5 -10.499 10.5 -26.498z" />
    <glyph glyph-name="quoteright" unicode="&#x2019;" horiz-adv-x="155" 
d="M40 443q0 16 10.5 27t26.5 11t27 -11t11 -27q0 -30 -4.5 -51t-12 -35.5t-16.5 -24t-18 -16.5q-4 -3 -9.5 -3t-8.5 3q20 18 31.5 40.5t11.5 51.5q-4 -2 -12 -2q-16 0 -26.5 10.5t-10.5 26.5z" />
    <glyph glyph-name="quotesinglbase" unicode="&#x201a;" horiz-adv-x="155" 
d="M40 31q0 16 10.5 27t26.5 11t27 -11t11 -27q0 -30 -4.5 -51t-12 -35.5t-16.5 -24t-18 -16.5q-4 -3 -9.5 -3t-8.5 3q20 18 31.5 40.5t11.5 51.5q-4 -2 -12 -2q-16 0 -26.5 10.5t-10.5 26.5z" />
    <glyph glyph-name="quotedblleft" unicode="&#x201c;" horiz-adv-x="280" 
d="M115.002 350.002q0 -15.999 -10.5 -26.998q-10.499 -11 -26.498 -11t-26.998 11q-11 10.999 -11 26.998q0 29.998 4.5 50.9971q4.5 20.998 11.999 35.498q7.5 14.499 16.499 23.998q9 9.49902 17.999 16.499q4 3 9.5 3q5.49902 0 8.49902 -3
q-19.999 -17.999 -31.498 -40.4971q-11.499 -22.499 -11.499 -51.4971q4 2 11.999 2q15.999 0 26.498 -10.5q10.5 -10.499 10.5 -26.498zM240.002 350.002q0 -15.999 -10.5 -26.998q-10.499 -11 -26.498 -11t-26.998 11q-11 10.999 -11 26.998q0 29.998 4.5 50.9971
q4.5 20.998 11.999 35.498q7.5 14.499 16.499 23.998q9 9.49902 17.999 16.499q4 3 9.5 3q5.49902 0 8.49902 -3q-19.999 -17.999 -31.498 -40.4971q-11.499 -22.499 -11.499 -51.4971q4 2 11.999 2q15.999 0 26.498 -10.5q10.5 -10.499 10.5 -26.498z" />
    <glyph glyph-name="quotedblright" unicode="&#x201d;" horiz-adv-x="280" 
d="M40 443q0 16 10.5 27t26.5 11t27 -11t11 -27q0 -30 -4.5 -51t-12 -35.5t-16.5 -24t-18 -16.5q-4 -3 -9.5 -3t-8.5 3q20 18 31.5 40.5t11.5 51.5q-4 -2 -12 -2q-16 0 -26.5 10.5t-10.5 26.5zM165 443q0 16 10.5 27t26.5 11t27 -11t11 -27q0 -30 -4.5 -51t-12 -35.5
t-16.5 -24t-18 -16.5q-4 -3 -9.5 -3t-8.5 3q20 18 31.5 40.5t11.5 51.5q-4 -2 -12 -2q-16 0 -26.5 10.5t-10.5 26.5z" />
    <glyph glyph-name="quotedblbase" unicode="&#x201e;" horiz-adv-x="280" 
d="M40 31q0 16 10.5 27t26.5 11t27 -11t11 -27q0 -30 -4.5 -51t-12 -35.5t-16.5 -24t-18 -16.5q-4 -3 -9.5 -3t-8.5 3q20 18 31.5 40.5t11.5 51.5q-4 -2 -12 -2q-16 0 -26.5 10.5t-10.5 26.5zM165 31q0 16 10.5 27t26.5 11t27 -11t11 -27q0 -30 -4.5 -51t-12 -35.5
t-16.5 -24t-18 -16.5q-4 -3 -9.5 -3t-8.5 3q20 18 31.5 40.5t11.5 51.5q-4 -2 -12 -2q-16 0 -26.5 10.5t-10.5 26.5z" />
    <glyph glyph-name="dagger" unicode="&#x2020;" horiz-adv-x="382" 
d="M207 289q0 -89 0.5 -152t1 -106.5t1 -71t0.5 -46.5h-38q0 19 0.5 46.5t1 71t0.5 106.5v152q-68 0 -134 -3v36q34 -1 67 -2t67 -1q0 18 -0.5 41t-0.5 46.5t-0.5 46t-0.5 40.5h38q0 -18 -0.5 -40.5t-1 -46t-1 -46.5t-0.5 -41q33 0 67.5 1t68.5 2v-36q-68 3 -136 3z" />
    <glyph glyph-name="daggerdbl" unicode="&#x2021;" horiz-adv-x="382" 
d="M208 131q33 0 67 1l68 2v-36q-68 3 -136 3q1 -76 1.5 -119t1.5 -69h-38q1 26 1.5 69t0.5 119q-68 0 -134 -3v36q34 -1 67 -2t67 -1v158q-68 0 -134 -3v36q34 -1 67 -2t67 -1q0 18 -0.5 41t-0.5 46.5t-0.5 46t-0.5 40.5h38q0 -18 -0.5 -40.5t-1 -46t-1 -46.5t-0.5 -41
q33 0 67.5 1t68.5 2v-36q-68 3 -136 3z" />
    <glyph glyph-name="bullet" unicode="&#x2022;" horiz-adv-x="358" 
d="M90 198q0 37 26 63t63 26t63 -26t26 -63t-26 -63t-63 -26t-63 26t-26 63z" />
    <glyph glyph-name="ellipsis" unicode="&#x2026;" horiz-adv-x="531" 
d="M28 31q0 16 10.5 27t26.5 11t27 -11t11 -27t-11 -26.5t-27 -10.5t-26.5 10.5t-10.5 26.5zM228 31q0 16 10.5 27t26.5 11t27 -11t11 -27t-11 -26.5t-27 -10.5t-26.5 10.5t-10.5 26.5zM428 31q0 16 10.5 27t26.5 11t27 -11t11 -27t-11 -26.5t-27 -10.5t-26.5 10.5
t-10.5 26.5z" />
    </font>
</defs>
</svg>
