<?xml version="1.0" standalone="no"?>
<!DOCTYPE svg PUBLIC "-//W3C//DTD SVG 1.1//EN" "http://www.w3.org/Graphics/SVG/1.1/DTD/svg11.dtd" >
<svg xmlns="http://www.w3.org/2000/svg" xmlns:xlink="http://www.w3.org/1999/xlink" version="1.1">
<metadata>
Created by FontForge 20150824 at Thu Jan 21 00:07:25 2016
 By Everything Fonts
Copyright (c) 2013 by Arwin Intrungsi. All rights reserved.
</metadata>
<defs>
<font id="PGVIM" horiz-adv-x="0" >
  <font-face 
    font-family="PGVIM"
    font-weight="400"
    font-stretch="normal"
    units-per-em="1000"
    panose-1="2 0 5 6 0 0 0 2 0 4"
    ascent="800"
    descent="-200"
    x-height="320"
    cap-height="456"
    bbox="-439 -378 695 751"
    underline-thickness="30"
    underline-position="-80"
    unicode-range="U+000D-FB02"
  />
<missing-glyph horiz-adv-x="243" 
 />
    <glyph glyph-name="uni0E4F.liga" unicode="&#xe4f;&#x22;" horiz-adv-x="453" 
 />
    <glyph glyph-name="uni0E24.liga" unicode="&#xe24;&#xe32;" horiz-adv-x="632" 
d="M585 -160q5 -5 22 -5v-7h-88l1 429v11v17q0 19 -9 36q-9 15 -23 25t-32 14q-20 5 -36 5q-12 0 -21 -4q-10 -3 -23 -9q-5 -3 -11 -6t-11 -6q-4 -3 -7.5 -6t-7.5 -5q11 -25 11 -63v-284q0 -51 -12 -82q-14 -32 -32 -49q-19 -17 -41 -23q-23 -5 -42 -3q-9 2 -17.5 4t-16.5 6
q-14 6 -17 16q2 8 5 12q3 8 8 11q7 5 11 5q6 2 14 -3q6 -6 8 -10q4 -6 7 -11q2 -2 4.5 -5t4.5 -5q5 -4 14 -4q16 -1 26 13q8 11 13 32q2 9 3 18t1 19v30v305q0 53 -27 77t-75 24q-26 0 -43 -3t-28 -6q-12 -4 -19 -8q5 -5 7 -11.5t4 -12.5q2 -7 2 -15v-213q0 -5 1 -13.5
t4 -17t9 -15.5t16 -10q14 -5 32.5 -1t32.5 11v-16q-10 -12 -24 -21q-12 -8 -29 -13t-39 -1q-23 4 -35.5 16t-18.5 27t-7.5 29.5t-1.5 23.5v15.5v28t0.5 35.5t0.5 38q0 45 1 99q0 16 -6 19q-7 4 -20 4v6q22 17 50 30q24 11 58 21t78 10q29 0 60 -10t47 -27q8 -10 14 -20
q3 4 10 11q4 4 8 7t9 7q11 8 21 14t21 10q22 8 48 8q62 0 93 -31q16 -15 25 -38t9 -55v-6v-402q0 -19 6 -23z" />
    <glyph glyph-name="uni0E26.liga" unicode="&#xe26;&#xe32;" horiz-adv-x="644" 
d="M598 -160q5 -5 22 -5v-7h-88l2 429v11v17q0 19 -9 36q-8 13 -23 25q-16 10 -33 14q-20 5 -36 5q-10 0 -21 -4q-13 -4 -22 -9q-6 -3 -11.5 -6t-10.5 -6q-5 -4 -9 -6.5t-8 -5.5q6 -14 8 -29.5t2 -33.5v-293q0 -26 -3 -41.5t-10 -31.5q-12 -31 -31 -49q-16 -16 -41 -23
q-23 -5 -42 -3q-19 3 -34 9q-14 8 -17 17q1 2 2 5.5t3 6.5q2 5 8 11q7 5 11 5q6 2 14 -3q6 -6 8 -10q4 -6 7 -11q2 -2 4.5 -5t4.5 -5q5 -4 14 -4q16 -1 26 12q4 7 7 15t5 17q2 10 3.5 19t1.5 19v30l1 305q0 54 -27 78t-76 24q-26 0 -42.5 -3t-27.5 -6q-12 -4 -19 -9
q5 -5 6.5 -11.5t3.5 -12.5q1 -7 2 -15l-2 -179l-2 -68q-2 -30 -8 -43q-6 -15 -17 -18q-11 -4 -28 2q-19 7 -38 19l-1 12q4 -4 10 -7q8 -2 11 -2q6 0 9 6q2 4 3 7.5t2 8.5t1.5 8.5t0.5 8.5v12l1 235q0 17 -6 20t-20 3v7q22 17 50 30q24 11 58 20.5t78 9.5q30 0 61 -10t46 -27
q8 -8 15 -20q2 3 5 6l6 6q4 4 8 7t9 7q11 8 21.5 14t21.5 10q22 8 47 8q62 0 93 -31q34 -31 34 -93v-6v-402q0 -19 6 -23z" />
    <glyph glyph-name=".notdef" horiz-adv-x="243" 
 />
    <glyph glyph-name=".null" 
 />
    <glyph glyph-name="nonmarkingreturn" unicode="&#xd;" horiz-adv-x="243" 
 />
    <glyph glyph-name="NULL" 
 />
    <glyph glyph-name="NULL" 
 />
    <glyph glyph-name="space" unicode=" " horiz-adv-x="243" 
 />
    <glyph glyph-name="exclam" unicode="!" horiz-adv-x="145" 
d="M62 95l-23 363h70l-23 -363h-24zM74 56q13 0 22 -9t9 -21q0 -13 -9 -22t-22 -9t-21.5 9t-8.5 22q0 12 8.5 21t21.5 9z" />
    <glyph glyph-name="quotedbl" unicode="&#x22;" horiz-adv-x="217" 
d="M165 338h-27l-10 161h47zM78 338h-27l-10 161h47z" />
    <glyph glyph-name="numbersign" unicode="#" horiz-adv-x="404" 
d="M297 273l-15 -94h67v-35h-71l-22 -145h-39l22 145h-89l-22 -145h-39l22 145h-71v35h76l14 94h-72v35h77l22 145h38l-22 -145h90l22 145h39l-22 -145h65v-35h-70v0zM169 273l-15 -94h90l14 94h-89v0z" />
    <glyph glyph-name="dollar" unicode="$" horiz-adv-x="344" 
d="M297 156q10 -23 10 -48q0 -27 -13 -51q-12 -22 -33 -37q-10 -8 -21.5 -13.5t-23.5 -10.5q-9 -2 -17.5 -3.5t-16.5 -3.5v-48h-28v48q-22 0 -43 6q-23 6 -51 14q-4 0 -8 -4q-4 -3 -4 -8h-8l-2 99h6q12 -28 33 -46t42 -25q18 -6 35 -6v187q-6 4 -10 6q-14 7 -26.5 15
t-24.5 17q-23 17 -38 41q-16 23 -16 59q0 24 11 46q11 20 29 35q9 7 19 12.5t22 9.5q8 3 17 4.5t17 2.5v40h28v-40q3 -1 6 -1t6 -1q7 -1 13.5 -2.5t13.5 -3.5l7 -2q3 -2 6.5 -2.5t6.5 -1.5q4 -1 7 -2l6 -2q4 -1 7 -1q10 0 12 12h8l6 -101h-8q-7 25 -26 42q-18 18 -38 25
q-8 4 -16.5 5.5t-16.5 2.5v-166q4 -2 8 -4.5t8 -4.5l-4 2q11 -6 21 -12t21 -13q18 -11 36 -29q16 -18 25 -38zM123 294q14 -11 31 -22v148q-11 -1 -22 -6q-20 -8 -30 -24q-12 -17 -12 -39q0 -19 10 -32q5 -7 10.5 -13t12.5 -12zM238 58q11 15 11 41q0 28 -15 48
q-8 10 -17.5 18.5t-21.5 16.5q-3 2 -6.5 4.5t-6.5 4.5v-170q13 3 25 9q19 10 31 28z" />
    <glyph glyph-name="percent" unicode="%" horiz-adv-x="460" 
d="M409 35q-12 -22 -35 -35q-23 -11 -46 -12q-25 0 -46 12q-21 10 -36 35q-14 23 -14 58q0 34 14 59q16 23 36 35q22 11 45 11q24 0 47 -12q21 -11 35 -35q14 -23 14 -58t-14 -58zM378 138q-8 18 -23 28q-14 11 -29 11q-15 1 -29 -8t-21 -28q-9 -20 -8 -48q0 -27 9 -46
q11 -19 23 -28q13 -8 29 -10q15 0 29 9q13 9 22 28q8 16 8 47q-2 28 -10 45zM380 461l-264 -473h-34l245 435q-17 -15 -43 -25.5t-61 -2.5q6 -18 6 -40q0 -33 -14 -58q-14 -23 -36 -35q-22 -11 -45 -11q-27 0 -46 11q-21 11 -36 35q-14 23 -14 58q0 34 14 59q15 24 36 35
q21 12 45 12q25 0 46 -12q16 -9 28 -24q21 -12 45 -14q20 -2 45 8t51 42h32zM186 308q8 20 7 47q0 26 -9 46q-11 19 -23 28q-15 10 -29 10q-15 1 -29 -8t-21 -28q-9 -19 -8 -48q0 -27 9 -45q11 -20 23 -28q13 -10 29 -10q15 -1 29 8q13 9 22 28z" />
    <glyph glyph-name="ampersand" unicode="&#x26;" horiz-adv-x="508" 
d="M232 150l-28 38t-28 39q-47 -24 -66 -55q-18 -32 -17 -60q2 -31 20 -52q9 -11 21 -19.5t26 -12.5q19 -5 38.5 -0.5t36 13.5t30 21t22.5 21q-16 17 -28.5 32.5t-26.5 34.5zM232 261l-12 18q20 11 36 25q14 12 25 29t11 38q0 23 -12 37q-9 13 -28 20q-16 4 -35 0
q-19 -5 -30 -17q-13 -15 -16 -36q-3 -23 9 -54q3 -7 6 -13l6 -12q4 -6 7.5 -12t6.5 -11l15 -23q12 -18 24 -35.5t25 -34.5t23.5 -29.5t24.5 -29.5q0 1 10.5 17t23.5 34q15 21 33 48h78v-4q-6 -1 -13.5 -3t-16.5 -11q-11 -11 -25 -28t-27 -34t-22.5 -31t-12.5 -18
q11 -11 21.5 -21t22.5 -18q15 -11 29 -15t25.5 -4.5t19.5 2t10 5.5l6 -4q-2 -6 -9 -13t-17 -13.5t-22 -11t-25 -4.5q-14 0 -29 7.5t-28.5 17.5t-23.5 20t-13 14q-18 -18 -34 -28q-8 -6 -16.5 -11t-17.5 -9t-18.5 -6.5t-19.5 -4.5q-20 -3 -43 -3q-30 0 -52 9q-24 11 -39 25
q-17 16 -24 36q-9 21 -9 43q0 11 1.5 22t6.5 22q8 23 25 42q8 11 18.5 19t21.5 16q12 8 23.5 14.5t23.5 11.5q-7 11 -12.5 22t-10.5 22q-13 27 -13 57q0 28 13 52q14 24 37 39q25 14 58 14q17 0 37 -5q16 -5 31 -17t22 -27q8 -18 8 -37q0 -32 -15.5 -53t-33.5 -34
q-22 -15 -49 -23z" />
    <glyph glyph-name="quotesingle" unicode="'" horiz-adv-x="130" 
d="M78 338h-27l-10 161h46z" />
    <glyph glyph-name="parenleft" unicode="(" horiz-adv-x="222" 
d="M182 -109q-52 41 -86 96q-17 28 -29 57t-19 60q-15 60 -7 125q7 63 41 122q19 34 44 65q24 32 56 56l16 -6q-38 -35 -61 -80q-24 -44 -36 -97t-12 -107q0 -56 12 -107t36 -98q25 -47 61 -80z" />
    <glyph glyph-name="parenright" unicode=")" horiz-adv-x="220" 
d="M26 -103q22 20 38.5 44t30.5 53q26 58 35 119q9 64 2 125q-8 64 -31 114q-7 16 -15 31t-17 30q-17 29 -43 53l16 6q16 -12 29.5 -26t26.5 -30q12 -15 22.5 -31.5t20.5 -33.5q32 -57 40 -122q7 -64 -6 -125q-14 -62 -48 -117q-35 -56 -85 -96z" />
    <glyph glyph-name="asterisk" unicode="*" horiz-adv-x="320" 
d="M284 365l-113 -42l113 -42l-13 -22l-13 -23l-93 78l20 -120h-52l21 120l-93 -78l-13 23l-13 22l113 42l-113 42l13 23l13 22l93 -77l-21 119h52l-20 -119l93 77l26 -45v0z" />
    <glyph glyph-name="plus" unicode="+" horiz-adv-x="409" 
d="M228 146v-146h-44v146h-145v44h145v145h44v-145h145v-44h-145v0z" />
    <glyph glyph-name="comma" unicode="," horiz-adv-x="158" 
d="M64 -81l-5 12q14 8 25.5 24t11.5 32q0 2 -2 5t-4 4q-2 0 -3 0.5t-3 0.5l-12 -1q-12 0 -23 8q-10 7 -10 24q0 12 8 23q9 11 28 11t34 -15q14 -16 14 -40q0 -17 -7 -31.5t-16.5 -26.5t-19.5 -19.5t-16 -10.5z" />
    <glyph glyph-name="hyphen" unicode="-" horiz-adv-x="239" 
d="M39 175v37h164v-37h-164v0z" />
    <glyph glyph-name="period" unicode="." horiz-adv-x="135" 
d="M100 26q0 -13 -9 -22t-22 -9t-22 9t-9 22t9 22t22 9t22 -9t9 -22z" />
    <glyph glyph-name="slash" unicode="/" horiz-adv-x="252" 
d="M65 -9h-40l163 466h40l-163 -466v0z" />
    <glyph glyph-name="zero" unicode="0" horiz-adv-x="380" 
d="M345 229q0 -49 -12 -92t-32.5 -75t-48.5 -50.5t-59 -18.5q-32 0 -60 18.5t-48.5 50.5t-32.5 75t-12 92t12 91.5t32.5 74.5t48.5 50.5t60 18.5q31 0 59 -18.5t48.5 -50.5t32.5 -74.5t12 -91.5zM193 436q-21 0 -39 -16.5t-31.5 -44.5t-21 -66t-7.5 -81t7.5 -81t21 -66
t31.5 -44.5t39 -16.5q20 0 38 16.5t31.5 44.5t21 66t7.5 81t-7.5 81t-21 66t-31.5 44.5t-38 16.5z" />
    <glyph glyph-name="one" unicode="1" horiz-adv-x="212" 
d="M102 0v391q0 7 -5 14q-6 6 -14 3l-56 -23v6l104 71l22 -1v-424q0 -17 7.5 -21.5t11.5 -4.5h17v-11h-87z" />
    <glyph glyph-name="two" unicode="2" horiz-adv-x="351" 
d="M310 0h-270v22l146 160q3 3 14 17t23 34t21.5 45t9.5 51q0 16 -4.5 32t-15 29t-27.5 21.5t-42 8.5q-24 0 -43.5 -6.5t-33.5 -15.5t-23.5 -17.5t-13.5 -12.5l-4 5q2 4 13 19t29 31t42 28.5t52 12.5t51 -11t39.5 -28.5t25 -38.5t8.5 -41q0 -30 -11.5 -58t-25.5 -50.5
t-27.5 -38t-17.5 -19.5l-118 -135l188 1q11 0 19 7.5t11 12.5l4 -3z" />
    <glyph glyph-name="three" unicode="3" horiz-adv-x="342" 
d="M114 245q6 0 27 4.5t44 16t41.5 32t18.5 54.5q0 4 -3 16t-12.5 25t-27.5 22.5t-47 9.5q-20 0 -36.5 -6t-30 -14t-23 -17.5t-13.5 -15.5l-6 1q3 8 12.5 23.5t26.5 30.5t42.5 26t62.5 11q21 0 39.5 -8t33 -22t22.5 -32.5t8 -39.5q0 -26 -10.5 -44.5t-24.5 -31t-27.5 -19.5
t-18.5 -9q14 -3 32.5 -12t33.5 -26.5t23.5 -43t2.5 -61.5q-6 -39 -29 -63.5t-50.5 -37.5t-55 -17.5t-42.5 -3.5q-11 1 -26.5 4t-30 8.5t-26 13.5t-14.5 19q-2 7 1.5 14t8.5 11q4 3 13 5q10 0 13 -2q5 -3 10 -9.5t13.5 -14t24 -13t41.5 -5.5q5 0 21.5 3.5t34.5 14t32.5 30.5
t15.5 53q0 29 -9.5 47.5t-25 29t-33.5 14.5t-34.5 5t-28.5 0.5t-15 0.5z" />
    <glyph glyph-name="four" unicode="4" horiz-adv-x="387" 
d="M293 111v-111h-47v111h-206v44l211 307h42v-310h71v-27l-71 -14v0zM246 405l-173 -253h173v253v0z" />
    <glyph glyph-name="five" unicode="5" horiz-adv-x="342" 
d="M148 24q30 0 50.5 10.5t33.5 27t19 37t6 41.5q0 31 -15.5 56t-42.5 40t-65 18t-83 -10l-6 4l49 209h181q13 0 17 10l6 -2l-12 -47q-1 -2 -3 -4q-3 -3 -9 -3h-156l-27 -117q5 1 23.5 3.5t48.5 -1.5q28 -3 54 -14.5t45 -30t30.5 -44t11.5 -56.5q0 -51 -21 -82t-49.5 -48
t-58 -22.5t-47.5 -5.5q-10 0 -26 2t-31 7t-27 12.5t-13 19.5q-1 16 11 25q11 8 25 5q6 -2 10.5 -8t12 -13.5t21 -13t37.5 -5.5z" />
    <glyph glyph-name="six" unicode="6" horiz-adv-x="372" 
d="M125 247v15q16 11 41 20t47 8q36 -1 60 -16.5t38 -37t20 -46.5t6 -44q0 -46 -15 -75.5t-37.5 -47t-48 -24t-46.5 -6.5q-8 0 -22 2t-30.5 8.5t-34 20t-32 37t-23.5 58.5t-9 84q0 13 2 36.5t9.5 50.5t21.5 54.5t37 50.5q30 30 61.5 45t60 21t52 5.5t38.5 -3.5l-1 -12
q-17 2 -49.5 -1.5t-67 -23t-64.5 -60.5t-42 -114q-12 -72 -1 -117t30 -70t39 -34t26 -10q29 -2 47.5 11t29 32t14 39.5t3.5 32.5q0 6 -3 26t-12.5 42t-29 38.5t-52.5 15.5q-12 -1 -23.5 -2.5t-20.5 -3.5q-11 -3 -19 -5z" />
    <glyph glyph-name="seven" unicode="7" horiz-adv-x="346" 
d="M168 0h-46l139 415h-188q-17 0 -27 -7t-14 -15l-6 4l19 62h264v-26z" />
    <glyph glyph-name="eight" unicode="8" horiz-adv-x="360" 
d="M87 111q0 -27 11 -44t26 -27.5t31 -14.5t26 -4q46 0 70.5 22.5t24.5 53.5q0 44 -36 73q-36 28 -73 48q-4 -2 -17 -9t-27 -20.5t-25 -32.5t-11 -45zM227 263l-15 8q26 19 38.5 40t12.5 55q0 19 -9.5 32.5t-22.5 22t-27.5 12t-24.5 3.5q-9 0 -23 -3t-27.5 -11t-23.5 -22
t-10 -36t12.5 -40.5t28.5 -32t30.5 -21.5t17.5 -9q38 -15 69 -37q26 -19 48 -48t22 -67q0 -35 -14 -57.5t-35 -35.5t-45.5 -18t-46.5 -5q-38 0 -65 11t-44.5 28t-25.5 37.5t-8 38.5q0 31 13.5 53.5t30.5 37.5t33 23t21 11q-4 3 -18.5 12.5t-30 25.5t-28 37.5t-12.5 47.5
q0 15 6.5 33.5t22.5 35t41.5 28t64.5 11.5q35 0 59 -10.5t39 -26t21.5 -33.5t6.5 -33q0 -26 -13 -44.5t-28 -30.5q-18 -14 -41 -23z" />
    <glyph glyph-name="nine" unicode="9" horiz-adv-x="373" 
d="M251 213v-15q-16 -11 -41 -19.5t-47 -8.5q-36 1 -60 16.5t-38 37t-20 46t-6 44.5q0 46 15 75.5t37.5 47t48 24t46.5 6.5q7 0 21.5 -2t31 -8.5t34 -20t32 -37t23.5 -58t9 -84.5q0 -14 -2 -37t-9.5 -50t-21.5 -54.5t-38 -50.5q-30 -30 -61 -45t-59.5 -21t-52 -5.5
t-38.5 3.5l1 12q11 -2 29.5 -1t40.5 6.5t45.5 18.5t44.5 35.5t37.5 56.5t24.5 83q12 72 1.5 117t-29.5 70t-39 34t-26 10q-29 2 -47.5 -11t-29 -32t-14 -39.5t-3.5 -32.5q0 -6 3 -26t12.5 -42t29 -38.5t52.5 -15.5q25 2 43 6q11 2 20 5z" />
    <glyph glyph-name="colon" unicode=":" horiz-adv-x="136" 
d="M69 254q-13 0 -21.5 9t-8.5 22t8.5 22t21.5 9t22 -9t9 -22t-9 -22t-22 -9zM69 57q13 0 22 -9t9 -22t-9 -22t-22 -9t-21.5 9t-8.5 22t8.5 22t21.5 9z" />
    <glyph glyph-name="semicolon" unicode=";" horiz-adv-x="158" 
d="M109 47q15 -15 15 -40q0 -17 -7 -31.5t-16.5 -26.5t-19.5 -19.5t-16 -10.5l-6 12q14 8 25.5 24t11.5 32q0 2 -2 5t-4 4q-2 0 -3 0.5t-2 0.5l-13 -1q-12 0 -23 8q-10 7 -10 24q0 10 8 23q9 11 28 11t34 -15zM72 254q-13 0 -22 9t-9 22t9 22t22 9t22 -9t9 -22t-9 -22
t-22 -9z" />
    <glyph glyph-name="less" unicode="&#x3c;" horiz-adv-x="412" 
d="M38 147v40l339 153l-1 -44l-285 -129l285 -130l1 -43l-339 153v0z" />
    <glyph glyph-name="equal" unicode="=" horiz-adv-x="408" 
d="M38 79v44h334v-44h-334zM38 255h334v-43h-334v43z" />
    <glyph glyph-name="greater" unicode="&#x3e;" horiz-adv-x="413" 
d="M39 -6l1 43l285 130l-285 129l-1 44l339 -153v-40l-339 -153v0z" />
    <glyph glyph-name="question" unicode="?" horiz-adv-x="305" 
d="M236 430q33 -29 33 -78q0 -41 -49 -104q-14 -17 -24.5 -38.5t-18 -42.5t-11.5 -40t-4 -32h-18q0 49 11.5 96t36.5 94q3 6 6 14.5t5 18t3.5 18t1.5 13.5q0 35 -18 62t-56 27q-26 0 -43 -14q-18 -15 -18 -27q0 -8 13 -22t13 -28q0 -12 -8 -19q-8 -8 -19 -8q-12 0 -23 11
q-11 13 -11 33q0 32 29 64q28 30 86 30q49 0 83 -28zM154 57q13 0 21.5 -9t8.5 -22t-8.5 -22t-21.5 -9t-22 9t-9 22t9 22t22 9z" />
    <glyph glyph-name="at" unicode="@" horiz-adv-x="437" 
d="M234 88q-7 -8 -19 -18t-29 -10q-14 0 -24 6q-12 7 -17 16q-4 5 -6.5 10.5t-4.5 11.5q-3 12 -3 25q0 25 9 46q10 24 22 42q16 21 35 31q18 11 44 11q16 0 28 -9q13 -10 16 -25l25 24h15l-37 -138q-8 -23 6 -28q12 -5 29 6t34 39q15 27 15 70q0 28 -12 52q-14 23 -34 39
q-19 14 -46 24q-14 4 -27.5 6t-27.5 1q-28 -2 -54 -13q-29 -11 -49 -33q-28 -30 -39 -65q-5 -18 -6 -35.5t1 -34.5q6 -34 24 -64q10 -14 22 -26.5t26 -21.5q15 -9 31.5 -15.5t35.5 -7.5q31 -2 55.5 2.5t41.5 11t27 13t12 9.5l8 -4q-7 -11 -22 -21q-14 -9 -27 -15
q-19 -9 -39 -14q-19 -4 -42 -4q-39 0 -76 14q-17 8 -32.5 17t-28.5 21q-24 23 -40 56t-17 65q-1 34 12 68q13 35 44 66q23 23 58 39q34 13 69 15q36 1 70 -9q17 -5 32 -13.5t29 -21.5q24 -22 35 -46q13 -25 13 -57q0 -29 -9 -53t-24 -42q-8 -9 -15.5 -16.5t-16.5 -12.5
q-17 -11 -34 -13t-30 6q-7 5 -14.5 15.5t-4.5 21.5q5 14 9 30.5t7 25.5q2 10 4 18.5t2 17.5q0 23 -7 31q-8 11 -20 11q-11 0 -25 -8q-13 -8 -24 -22q-13 -17 -20 -34q-7 -18 -7 -42t9 -34q8 -11 22 -11q15 0 38 15z" />
    <glyph glyph-name="A" unicode="A" horiz-adv-x="504" 
d="M242 390l-83 -207q29 9 60 5q26 -3 56.5 -18.5t57.5 -54.5h-15q-16 21 -44 31t-57 9.5t-53.5 -12t-33.5 -33.5l-28 -67q-8 -19 -5 -27q3 -10 25 -10v-6h-94v6q10 2 13 5q8 6 11 9q4 5 7 13q0 1 1.5 4t7 15.5t16 38.5t30.5 73.5t50 119.5t73 177h37l180 -432q7 -19 29 -23
v-6h-122v6q15 0 23 6q7 6 0 23z" />
    <glyph glyph-name="B" unicode="B" horiz-adv-x="400" 
d="M28 6q6 0 10 0.5t8 0.5q7 0 11 4q4 3 6 9q1 4 1.5 8.5t0.5 10.5v417h121q7 0 33.5 -1.5t54.5 -12.5t50.5 -35t22.5 -68q0 -22 -10 -39.5t-24 -30.5t-29.5 -20.5t-25.5 -9.5q5 -1 23 -4.5t37 -15t34 -32t15 -56.5q0 -43 -21 -68.5t-48.5 -39.5t-55.5 -18.5t-42 -4.5h-172
v6zM156 250q19 0 42.5 5.5t44 17t34.5 28t14 38.5q0 34 -17.5 51t-38.5 25q-25 9 -56 9h-57v-393h55q9 0 30.5 3t43 13.5t38 29.5t16.5 52t-16 52t-39 28.5t-48.5 12t-45.5 2.5v26z" />
    <glyph glyph-name="C" unicode="C" horiz-adv-x="443" 
d="M265 -9q-30 0 -69.5 9.5t-74.5 35.5t-59.5 72t-24.5 119q0 68 22.5 114t57 73.5t74 39t74.5 11.5q20 0 39 -3t34.5 -7t27 -7t17.5 -3q12 0 17 12h7v-102l-4 -1q-13 21 -31 39q-16 14 -40.5 26.5t-58.5 12.5q-55 0 -89 -22.5t-53 -55t-25.5 -67.5t-6.5 -59q0 -51 14 -89.5
t38 -63.5t56.5 -37.5t69.5 -12.5q27 0 47.5 6t37 14.5t29.5 18t24 15.5l3 -11q-10 -9 -24.5 -22.5t-34 -25.5t-43 -20.5t-51.5 -8.5z" />
    <glyph glyph-name="D" unicode="D" horiz-adv-x="471" 
d="M27 6q5 0 9 0.5t8 0.5q6 0 10 4q3 3 5 10q1 5 1 18v417h123q72 0 120 -19.5t77 -52t41.5 -73.5t12.5 -84q0 -52 -14 -89.5t-37 -62.5t-51.5 -40t-57 -22.5t-54 -10t-42.5 -2.5h-151v6zM117 31h40q13 0 34.5 1.5t46 7.5t49 18.5t44 34.5t32 55t12.5 81q0 94 -55.5 144.5
t-154.5 50.5h-48v-393z" />
    <glyph glyph-name="E" unicode="E" horiz-adv-x="379" 
d="M339 0h-307v6q20 0 26 6q5 5 5 27v417h269l1 -69h-9q-4 25 -16 31t-36 6h-151v-170h120h9.5t9.5 1q5 0 13 4q4 3 8 10q1 4 2 8.5t2 10.5h8v-102h-8q-1 6 -2 10.5t-2 8.5q-4 7 -8 10q-8 4 -13 5q-4 0 -9 0.5t-10 0.5h-120v-176q0 -6 3 -9q6 -4 9 -4q3 -1 7 -0.5t7 0.5h118
q23 1 39 5t27 18q9 10 14 25h11z" />
    <glyph glyph-name="F" unicode="F" horiz-adv-x="358" 
d="M319 387q-2 13 -6 20q-3 7 -10 11q-8 4 -15 5q-4 0 -9 0.5t-12 0.5h-147v-170h112q14 0 19 1q7 0 13 4q5 3 9 10q2 6 4 19h9v-102h-9q-2 23 -12 29q-9 6 -33 6h-112v-182q0 -5 0.5 -9.5t0.5 -8.5q1 -5 5 -9q2 -3 10 -5q3 0 7.5 -0.5t10.5 -0.5v-6h-124v6q5 0 9.5 0.5
t7.5 0.5q8 2 10 5q4 4 4 9q1 5 1 18v417h266l1 -69h-10z" />
    <glyph glyph-name="G" unicode="G" horiz-adv-x="470" 
d="M435 57q-7 -6 -20 -16.5t-34 -21.5t-51 -19t-71 -8q-10 0 -30.5 3t-45 11.5t-50.5 24.5t-47.5 42.5t-35 65t-13.5 91.5q0 68 24 113t59 72t74 38.5t68 11.5q17 0 39 -3t42 -7t35 -7.5t18 -4.5q5 -1 9 2.5t6 9.5h8v-95l-5 -2q-11 19 -26 32.5t-32 22.5q-32 19 -76 19
q-52 0 -87 -19t-56 -49t-30 -67.5t-9 -73.5q0 -47 12 -80t30.5 -55.5t40.5 -35t42.5 -19t36.5 -8t23 -1.5q24 0 41.5 6t29 14t18 15.5t7.5 9.5v144q0 12 -4 17q-6 6 -11 7q-8 2 -15 2q-4 -1 -8 -1h-9v10h103v-191z" />
    <glyph glyph-name="H" unicode="H" horiz-adv-x="452" 
d="M340 0v216h-220v-216h-91v6q5 0 9.5 0.5t7.5 0.5q7 1 11 5q2 2 4 9q2 10 2 18v417h57v-206h220v206h58v-417q0 -13 1 -18q0 -6 5 -9q2 -3 10 -5q3 0 7.5 -0.5t9.5 -0.5v-6h-91z" />
    <glyph glyph-name="I" unicode="I" horiz-adv-x="158" 
d="M40 0v456h58v-417q0 -6 0.5 -10.5t1.5 -8.5q2 -7 5 -9q6 -4 11 -4q4 0 8.5 -0.5t10.5 -0.5v-6h-95z" />
    <glyph glyph-name="J" unicode="J" horiz-adv-x="252" 
d="M210 448q-5 0 -11 -4q-3 -3 -5 -10q0 -3 -0.5 -7.5t-0.5 -10.5v-288q0 -61 -27 -97.5t-82 -36.5q-28 0 -42 9.5t-15 18.5q-1 11 2.5 17.5t8.5 9.5t10.5 2.5t9.5 -3.5t7.5 -10t7.5 -14t9.5 -12.5t12.5 -5.5q11 0 19 7t13 19t7 27t2 31v366h91v-7q-13 0 -17 -1z" />
    <glyph glyph-name="K" unicode="K" horiz-adv-x="467" 
d="M357 0l-234 215v-215h-91v6q5 0 9.5 0.5t7.5 0.5q8 2 10 5q3 2 5 9q1 5 1 18v417h58v-211l209 211h73v-7q-8 -1 -14.5 -2t-10.5 -3q-9 -3 -21 -15l-188 -189l223 -210q11 -11 20 -16q9 -6 24 -8v-6h-81z" />
    <glyph glyph-name="L" unicode="L" horiz-adv-x="374" 
d="M331 0h-304v6q5 0 9.5 0.5t7.5 0.5q8 2 10 5q4 4 5 9q0 4 0.5 8.5t0.5 9.5v417h57v-406q0 -12 9.5 -15t23.5 -3h98q20 0 34 2t24.5 7.5t19 15.5t16.5 26l8 -2z" />
    <glyph glyph-name="M" unicode="M" horiz-adv-x="580" 
d="M467 0v404l-173 -404h-23l-172 395v-338v-57h-74v7q14 0 22 3t11 9t3 15q1 5 1 10.5v12.5v399h68l164 -373l159 373h71v-416q0 -6 0.5 -10.5t0.5 -7.5q2 -8 5 -10q4 -4 9 -4q5 -1 18 -1v-7h-90z" />
    <glyph glyph-name="N" unicode="N" horiz-adv-x="459" 
d="M424 0h-55l-270 383v-383h-74v6q14 0 22 3t11 8q3 6 3 15q1 5 1 10.5v12.5v401h52q10 -16 30 -44.5t45 -64.5t51.5 -75t51.5 -75t45 -64.5t30 -44.5v368h57v-456z" />
    <glyph glyph-name="O" unicode="O" horiz-adv-x="502" 
d="M466 228q0 -49 -17 -92t-46 -75.5t-68 -51t-84 -18.5q-44 0 -83 18.5t-68 51t-46 75.5t-17 92t17 92t46 75.5t68 51t83 18.5q45 0 84 -18.5t68 -51t46 -75.5t17 -92zM251 433q-32 0 -60 -16t-48.5 -44t-32.5 -65.5t-12 -79.5q0 -43 12 -80.5t32.5 -65t48.5 -43.5t60 -16
q31 0 59 16t49 43.5t33 65t12 80.5q0 42 -12 79.5t-33 65.5t-49 44t-59 16z" />
    <glyph glyph-name="P" unicode="P" horiz-adv-x="372" 
d="M114 39v-39h-89v6q5 0 9 0.5t8 0.5q7 2 9 5q3 2 5 10q0 3 0.5 7.5t0.5 9.5v417h120q72 0 115.5 -34t43.5 -93q0 -38 -14 -63.5t-37.5 -40.5t-53.5 -21.5t-62 -6.5l-55 2v-160zM114 232q14 0 25 -0.5t31 -0.5q46 0 76.5 23t30.5 76q0 28 -11 46t-27.5 28.5t-36.5 15
t-38 4.5h-50v-192z" />
    <glyph glyph-name="Q" unicode="Q" horiz-adv-x="501" 
d="M371 33q9 -21 18.5 -41.5t20 -37.5t23 -28t28.5 -12v-8q-21 -1 -41 3q-17 4 -35.5 13.5t-29.5 30.5q-6 10 -12.5 24.5t-14.5 30.5q-36 -15 -76 -15q-45 0 -84 18.5t-68 51t-46 75.5t-17 92t17 92t46 75.5t68 51t84 18.5q44 0 83 -18.5t68 -51t46 -75.5t17 -92
q0 -62 -26 -113.5t-69 -83.5zM251 24q30 0 60 16q-8 14 -16.5 25.5t-17.5 19.5q-10 9 -24 16t-29 12t-29.5 7.5t-24.5 2.5q33 10 66 10q27 0 57 -10t51 -40q2 -4 6 -10q25 28 39.5 68.5t14.5 88.5q0 42 -12 79.5t-32.5 65.5t-48.5 44t-60 16t-59.5 -16t-48.5 -44t-33 -65.5
t-12 -79.5q0 -43 12 -80.5t33 -65.5t48.5 -44t59.5 -16z" />
    <glyph glyph-name="R" unicode="R" horiz-adv-x="423" 
d="M146 240q21 0 44.5 6t43 18.5t32.5 32t13 46.5q0 28 -12 44.5t-29.5 24.5t-36.5 10.5t-34 2.5h-52v-425h-89v7q13 0 22 4t9 29v417h130q22 0 48 -4.5t49 -17.5t38.5 -37t15.5 -62q0 -34 -17 -55.5t-38.5 -34t-41 -17.5t-25.5 -5q16 -6 31.5 -15.5t30.5 -28.5
q19 -24 30 -47t19.5 -43.5t17.5 -38t24 -30.5q14 -12 29 -12v-9q-24 -4 -46 0q-19 4 -39.5 17.5t-34.5 45.5q-10 22 -20.5 44t-22 41.5t-23 34.5t-23.5 22q-23 14 -43 14v21z" />
    <glyph glyph-name="S" unicode="S" horiz-adv-x="346" 
d="M46 2h-9v101h7q3 -8 11.5 -21t23.5 -26t37 -22.5t52 -9.5q25 0 41 9.5t26 23t14 27.5t4 22q0 24 -14 44t-32.5 34t-36 23.5t-24.5 12.5l-24.5 14t-36 27t-32.5 40t-14 53q0 35 16 57t37.5 34.5t43 17t33.5 4.5q15 0 31.5 -3t31 -7t24 -7.5l9.5 -3.5q9 -2 13.5 3t5.5 10h7
v-102h-7q-7 24 -23 39t-33 23.5t-32.5 11.5t-21.5 3q-5 0 -19 -2.5t-28 -10t-25 -21.5t-11 -38q0 -20 15.5 -38t35 -32.5t37 -24t22.5 -12.5q30 -15 55 -36q20 -18 37.5 -44t17.5 -60q0 -37 -16.5 -61t-39.5 -37.5t-47.5 -18.5t-40.5 -5q-32 0 -58 7.5t-49 13.5
q-7 2 -10.5 -3.5t-3.5 -8.5z" />
    <glyph glyph-name="T" unicode="T" horiz-adv-x="427" 
d="M388 376q-6 27 -17 37q-13 10 -39 10h-88v-383q0 -10 2 -18q0 -7 5 -10q6 -4 11 -4q5 -1 19 -1v-7h-94v423h-89q-26 0 -39 -11q-12 -9 -18 -36h-6l3 81h355l2 -81h-7z" />
    <glyph glyph-name="U" unicode="U" horiz-adv-x="437" 
d="M400 161q0 -29 -7 -58.5t-26 -54t-52 -40t-85 -15.5q-34 0 -65 9.5t-54.5 29.5t-37.5 52.5t-14 78.5v255q0 15 -3 24q-5 9 -21 9h-10v7h91v-297q0 -69 32.5 -101.5t89.5 -32.5q35 0 59 11t38.5 28.5t21 40t6.5 46.5v305h37v-297z" />
    <glyph glyph-name="V" unicode="V" horiz-adv-x="481" 
d="M436 446q-6 -8 -11 -19l-165 -427h-28l-174 425q-4 12 -13 21q-8 8 -22 8v7h83l149 -376l144 376h57v-7q-13 0 -20 -8z" />
    <glyph glyph-name="W" unicode="W" horiz-adv-x="672" 
d="M628 447q-5 -4 -10 -18q-38 -109 -72.5 -215.5t-66.5 -213.5h-29l-112 344l-111 -344h-30l-135 419q-5 13 -12 24q-8 11 -24 11v7h80l118 -365l117 365h11l121 -368l119 368h56v-7q-15 -2 -20 -7z" />
    <glyph glyph-name="X" unicode="X" horiz-adv-x="492" 
d="M376 0l-137 199l-150 -199h-63v7q16 1 25 9q4 3 8.5 8t9.5 11l148 196l-131 190q-9 13 -20 21q-10 8 -28 8v7h90l125 -179l136 179h67v-7q-19 0 -30 -8q-9 -5 -22 -23l-129 -172l146 -209q10 -15 18 -21q8 -7 26 -10v-7h-89z" />
    <glyph glyph-name="Y" unicode="Y" horiz-adv-x="476" 
d="M414 423l-143 -220v-163q0 -14 1 -19t7 -9t12 -4q5 -1 19 -1v-7h-97v201l-149 220q-10 15 -16 21q-8 8 -24 8v7h85l143 -219l139 219h64v-7q-28 -3 -41 -27z" />
    <glyph glyph-name="Z" unicode="Z" horiz-adv-x="418" 
d="M383 0h-346v24l276 401h-195q-28 0 -42 -11q-14 -9 -18 -39h-10l8 82h325v-24l-272 -400h215q26 0 40 12q14 15 19 38h9z" />
    <glyph glyph-name="bracketleft" unicode="[" horiz-adv-x="171" 
d="M85 -74q0 -8 5.5 -15t17.5 -7h40v-13h-109v581h109v-13h-40q-12 0 -17.5 -7t-5.5 -15v-511z" />
    <glyph glyph-name="backslash" unicode="\" horiz-adv-x="256" 
d="M189 -9l-163 466h43l164 -466h-44v0z" />
    <glyph glyph-name="bracketright" unicode="]" horiz-adv-x="174" 
d="M90 437q0 8 -5.5 15t-17.5 7h-40v13h109v-581h-109v13h40q12 0 17.5 7t5.5 15v511z" />
    <glyph glyph-name="asciicircum" unicode="^" horiz-adv-x="354" 
 />
    <glyph glyph-name="underscore" unicode="_" horiz-adv-x="407" 
d="M39 -83v34h332v-34h-332v0z" />
    <glyph glyph-name="grave" unicode="`" horiz-adv-x="216" 
d="M137 386l-94 104h58l68 -104h-32z" />
    <glyph glyph-name="a" unicode="a" horiz-adv-x="331" 
d="M201 34q-3 -6 -11.5 -12.5t-19 -12.5t-23 -10.5t-24.5 -5.5q-5 0 -19.5 2t-30.5 10.5t-28 25.5t-12 46q0 26 13 45t33.5 32.5t44 22t45 13.5t37 8.5t19.5 5.5v33q0 16 -7.5 28.5t-19.5 21t-27 12.5t-30 4q-18 0 -34 -4.5t-28 -10.5t-20 -11.5t-9 -6.5l-8 6q1 2 10 10.5
t24 17.5t37 16.5t50 7.5q56 0 82 -25q27 -26 27 -78v-165q0 -26 4 -34t9 -8q2 0 9 2.5t9 4.5l-1 -10q-16 -9 -31 -16q-15 -5 -24 -2q-10 5 -14 16q-6 12 -6 36l-2 52v77q-39 -7 -70 -18q-13 -5 -26 -12t-23 -15.5t-16 -19.5t-6 -24q0 -23 9 -35t21 -17.5t23.5 -5.5h16.5
q18 2 29 9.5t19 12.5z" />
    <glyph glyph-name="b" unicode="b" horiz-adv-x="382" 
d="M116 40v-43l-74 20v5h10t8 2q7 1 7 15v407q0 7 -8 9h-9q-4 0 -8 1v7q1 0 11 2.5t22.5 5.5t24 5.5t16.5 3.5v-204q33 53 94 53q38 0 64 -15.5t41.5 -39.5t22.5 -52.5t7 -55.5q0 -45 -12.5 -77.5t-32.5 -54t-45.5 -31.5t-50.5 -10q-21 0 -46.5 12t-41.5 35zM117 126
q0 -48 25.5 -78t63.5 -30q16 0 32 8.5t28.5 25.5t20.5 42t8 57q0 27 -6 52.5t-17 45.5t-28 32.5t-38 12.5q-39 0 -64 -23t-25 -65v-80z" />
    <glyph glyph-name="c" unicode="c" horiz-adv-x="320" 
d="M182 -7q-18 0 -43 7t-47.5 25t-38 50t-15.5 82q0 49 16.5 79.5t28.5 43.5q16 18 34.5 28t35 14.5t30.5 5.5t23 0q37 -2 53.5 -16t21.5 -24q2 -5 3 -15.5t-13 -14.5q-7 -2 -11.5 0.5t-6.5 5.5q-1 1 -3.5 7.5t-8.5 13t-17 12t-29 5.5q-40 0 -62.5 -18.5t-33 -41t-12 -44
t-1.5 -27.5q0 -41 12.5 -68.5t30.5 -44t37.5 -23.5t32.5 -6q18 1 33.5 7t28 13t20 13.5t8.5 9.5l5 -12q-19 -34 -49.5 -50.5t-62.5 -16.5z" />
    <glyph glyph-name="d" unicode="d" horiz-adv-x="364" 
d="M269 -3v49q-35 -53 -94 -53q-24 0 -48.5 9t-43.5 28.5t-31 50.5t-12 75q0 32 8.5 63t26 55.5t44 39.5t62.5 15q56 0 88 -47v152v12q-2 8 -8 9h-10q-4 0 -7 1v7q1 0 11 2.5l22 5.5t23.5 5.5t16.5 3.5v-441q0 -13 8 -15q4 -2 18 -2v-5zM268 196q0 17 -5 36t-16 35
t-27.5 26.5t-40.5 10.5q-38 0 -63.5 -36.5t-25.5 -95.5q0 -36 8.5 -63t21 -45t28.5 -27t31 -9q39 0 64 23.5t25 64.5v80z" />
    <glyph glyph-name="e" unicode="e" horiz-adv-x="329" 
d="M190 144q-18 0 -31 3t-21 8q-10 4 -16 11v16q13 -8 34 -11.5t41 1t35 20t15 46.5q0 12 -4.5 25t-14 23t-23.5 15.5t-32 3.5q-36 -5 -61 -45t-25 -100q0 -37 11.5 -61.5t28.5 -39.5t35.5 -21t32.5 -6q35 0 60 14.5t39 28.5l5 -7q-3 -8 -12 -20.5t-23.5 -24.5t-35 -21
t-46.5 -9q-14 0 -38 5.5t-47 23t-40.5 49t-17.5 83.5q0 17 2 32.5t6 31.5q5 16 11.5 29.5t14.5 26.5q18 23 44 39t63 16q29 0 50 -9t35 -22.5t21 -29.5t7 -31q0 -46 -30 -69.5t-73 -23.5z" />
    <glyph glyph-name="f" unicode="f" horiz-adv-x="229" 
d="M214 439q-9 9 -15.5 23t-19.5 14q-23 0 -34 -23.5t-11 -59.5v-72h70v-10l-70 -11v-268v-32h-81v6h16q6 2 10 4q3 2 5 8q2 8 2 16v266h-63v11l63 10v35q0 50 16.5 77.5t41.5 40.5q19 10 39 10t25 -1q30 -5 37 -15t0 -22q-2 -3 -12 -9.5t-19 2.5z" />
    <glyph glyph-name="g" unicode="g" horiz-adv-x="338" 
d="M232 213q0 38 -21 64.5t-51 26.5t-51 -26.5t-21 -64.5t21 -64t51 -26t51 26t21 64zM313 -34q3 -25 -12.5 -46.5t-44 -36.5t-67.5 -21.5t-82 -0.5q-40 5 -60 19t-26.5 30t-1.5 32t14 25q15 15 28.5 18t24.5 1q12 -3 22 -11q-14 0 -27.5 -7.5t-15.5 -21.5t6 -24t21.5 -16.5
t31 -9.5t34.5 -4t38.5 2t40.5 10t32.5 18.5t15.5 28.5q2 16 -11.5 25t-36 13.5t-51 6t-55.5 3.5q-54 5 -71 21t-15 36q1 11 9 21t17 18q11 10 24 19h1q-26 15 -42 41t-16 58q0 24 9.5 45t26 37t38.5 25t47 9q20 0 38 -6t33 -17l79 16l4 -6l-56 -36l-1 1q23 -29 23 -68
q0 -24 -9.5 -45t-26 -37t-38 -25t-46.5 -9q-21 0 -39 6q-12 -5 -24.5 -15.5t-11.5 -23.5q0 -8 8 -12.5t21 -6.5t30.5 -3.5t36.5 -2.5t41 -3.5t41.5 -9.5t33.5 -21t17 -39z" />
    <glyph glyph-name="h" unicode="h" horiz-adv-x="344" 
d="M301 14q4 -8 15 -8v-6h-68v210q0 16 -2.5 30.5t-10 26t-21.5 18.5t-36 7q-21 0 -35.5 -10t-23.5 -23.5t-13.5 -28.5t-5.5 -25v-205h-49v446q0 7 -8 9h-9q-4 0 -8 1v7q3 1 7 1.5t10 2.5t12 3t13 3q6 2 14 3.5t18 3.5v-212q3 4 10 13.5t19 19t28.5 17.5t37.5 10
q25 2 44.5 -5.5t32 -23t19 -37t6.5 -46.5v-184q0 -10 4 -18z" />
    <glyph glyph-name="i" unicode="i" horiz-adv-x="151" 
d="M105 18q0 -5 3 -8q2 -1 3.5 -2t3.5 -1q3 -1 13 -1v-6h-72v165.5v86.5t-0.5 34t-0.5 7q-1 1 -1.5 2t-1.5 2t-2 1q-5 1 -9 0h-6.5t-8.5 2v3l66 23l13 -1v-307zM77 380q0 1 -4.5 2.5t-9.5 4.5t-9.5 9t-4.5 15q0 8 4.5 16t9.5 14.5t9.5 11.5t4.5 7q0 -2 4.5 -7t10 -11.5
t10 -14.5t4.5 -16q0 -9 -4.5 -15t-10 -9t-10 -4.5t-4.5 -2.5z" />
    <glyph glyph-name="j" unicode="j" horiz-adv-x="141" 
d="M78 380q0 1 -4.5 2.5t-10 4.5t-10 9t-4.5 15q0 8 4.5 16t10 14.5t10 11.5t4.5 7q0 -2 4.5 -7t9.5 -11.5t9.5 -14.5t4.5 -16q0 -9 -4.5 -15t-9.5 -9t-9.5 -4.5t-4.5 -2.5zM-38 -114q1 1 3 4t6 5.5t8.5 3.5t9.5 -3t11.5 -15.5t20.5 -13.5q14 -1 25 16.5t11 52.5v24v188
v98.5t-0.5 38t-0.5 7.5q-1 4 -5 6q-4 1 -10 0q-3 -1 -6 -1t-8 -1v7l66 23l13 -1v-340q0 -41 -11 -68q-11 -30 -35 -48t-60 -15q-22 2 -34 11.5t-4 20.5z" />
    <glyph glyph-name="k" unicode="k" horiz-adv-x="355" 
d="M56 446q0 7 -8 9h-10q-4 0 -7 1v7q1 0 11 2.5t22.5 5.5t24 5.5t16.5 3.5v-296l131 137h74v-5q-19 0 -32 -7q-12 -6 -26 -20l-103 -112l137 -143q8 -9 21 -19q12 -9 26 -9v-6h-78l-150 163v-163h-79v6q20 0 24 4q6 4 6 24v412z" />
    <glyph glyph-name="l" unicode="l" horiz-adv-x="160" 
d="M57 433v12q0 7 -8 9h-9q-4 0 -8 1v7q1 0 11 2.5t22.5 5.5t24 5.5t16.5 3.5v-445q0 -20 6 -24q5 -5 24 -5v-5h-79v433z" />
    <glyph glyph-name="m" unicode="m" horiz-adv-x="529" 
d="M504 6v-6h-74v210q0 16 -2.5 30.5t-9.5 26t-20 18.5t-34 7q-20 0 -33.5 -9.5t-22.5 -23t-13.5 -28.5t-5.5 -25v-206h-47v210q0 16 -2.5 30.5t-10 26t-20.5 18.5t-34 7t-35.5 -11t-23 -25.5t-12.5 -30t-4 -24.5v-201h-49v296q0 16 -5 20q-4 4 -18 4v5h70v-59v-2
q1 1 6.5 10.5t17 20.5t28.5 21t41 12q38 4 61.5 -16.5t31.5 -54.5q0 3 2 5q1 1 1 2q9 17 22 30q11 11 28.5 21.5t42.5 12.5q24 2 42.5 -5.5t31 -23t18.5 -37t6 -46.5v-184q0 -11 1 -15q0 -5 3 -8q2 -1 8 -3h14z" />
    <glyph glyph-name="n" unicode="n" horiz-adv-x="338" 
d="M300 14q3 -8 15 -8v-6h-68v210q0 16 -2.5 30.5t-10 26t-21.5 18.5t-36 7q-21 0 -35.5 -10t-23.5 -23.5t-13.5 -28.5t-5.5 -25v-205h-49v296q0 15 -5 20q-4 4 -18 4v5h70v-59v-2q1 1 7 10.5t18 20.5t30 21t42 12q25 2 44.5 -5.5t32 -23t19 -37t6.5 -46.5v-184q0 -10 4 -18
z" />
    <glyph glyph-name="o" unicode="o" horiz-adv-x="381" 
d="M346 160q0 -35 -12 -65.5t-33 -53.5t-49 -36t-60 -13t-60 13t-48.5 36t-32.5 53.5t-12 65.5t12 66t32.5 54t48.5 36t60 13t60 -13t49 -36t33 -54t12 -66zM192 302q-21 0 -39.5 -11t-32 -30.5t-21.5 -45t-8 -55.5q0 -29 8 -55t21.5 -45.5t32 -30.5t39.5 -11t39.5 11
t32.5 30.5t22 45.5t8 55q0 30 -8 55.5t-22 45t-32.5 30.5t-39.5 11z" />
    <glyph glyph-name="p" unicode="p" horiz-adv-x="364" 
d="M100 -110q0 -6 0.5 -10t1.5 -7q2 -7 6 -8q3 -3 10 -3q3 -1 7 -1h9v-5h-82v34v167v113t-0.5 69.5t-0.5 36.5t-0.5 14.5t-0.5 3.5q-2 5 -4 6q-2 0 -3.5 0.5t-4.5 -0.5t-11 -1v6l58 20h13v-58q5 7 14 17.5t22 20t30.5 16.5t38.5 7q34 0 58 -14t38.5 -38t21 -55.5t6.5 -66.5
q0 -46 -16 -77t-38 -50t-45 -27t-37 -8q-41 0 -62 16t-29 29v-147zM189 290q-12 0 -27.5 -4.5t-29 -15.5t-23 -29t-9.5 -44v-88q0 -35 22.5 -62.5t66.5 -27.5q14 0 29.5 7t28.5 23t21.5 41t8.5 61q0 25 -5.5 50t-16 45t-27.5 32t-39 12z" />
    <glyph glyph-name="q" unicode="q" horiz-adv-x="363" 
d="M268 280v45h13l58 -20v-6q-8 0 -11 1t-4.5 0.5t-3.5 -0.5q-2 -1 -4 -6q-2 -6 -2 -15v-389q0 -6 0.5 -10t1.5 -7q2 -7 6 -8q3 -3 10 -3q5 -1 16 -1v-5h-82v34v160q-5 -7 -14.5 -17t-23 -19t-30 -15.5t-35.5 -6.5q-60 0 -92 47.5t-32 126.5q0 25 9.5 53t27.5 52t43 40
t56 16q39 0 61 -15.5t30 -28.5zM266 123v88q0 36 -23.5 63t-65.5 27q-23 0 -39.5 -12.5t-27 -31.5t-16 -42.5t-5.5 -45.5q0 -33 7.5 -59t20 -43.5t28.5 -27t32 -9.5q43 0 66 27.5t23 65.5z" />
    <glyph glyph-name="r" unicode="r" horiz-adv-x="250" 
d="M105 0h-76v6q18 0 23 5q4 4 4 23v147v77t-0.5 30.5t-0.5 6.5q-2 5 -4 5q-1 0 -4 0.5t-7 0.5h-10v5l60 19h13v-68q1 3 7.5 15t17.5 24.5t26 22.5t35 10q13 0 19.5 -4.5t9.5 -10t3 -10.5v-6q0 -11 -7 -19t-10 -10q-5 -2 -9 2.5t-8.5 11.5t-9 12.5t-10.5 4.5
q-12 -3 -23.5 -12t-20 -20t-13.5 -22.5t-5 -19.5v-226z" />
    <glyph glyph-name="s" unicode="s" horiz-adv-x="277" 
d="M39 -10v89l5 2q1 -5 6.5 -15.5t16 -21t26 -18.5t36.5 -8q32 0 50 15.5t18 38.5q0 16 -10.5 29t-24 23t-26 16t-17.5 8t-18 9t-26.5 18.5t-24 28.5t-10.5 39q0 28 12 45.5t28.5 26.5t33.5 12t26 3t20 -2t21.5 -5t18 -5t9.5 -2q4 0 7 5q1 2 2 5h3v-75h-4q-3 7 -9 17t-16 18
t-23.5 14t-32.5 6q-28 0 -42 -16t-14 -33q0 -14 11 -26.5t25 -22t27.5 -16t18.5 -9.5t18.5 -10t27.5 -19t24.5 -29t10.5 -40q0 -28 -12 -45.5t-29.5 -27.5t-36 -14t-30.5 -4q-4 0 -12.5 1t-18.5 2.5t-18.5 3t-12.5 1.5q-9 2 -18 1.5t-12 -13.5h-4z" />
    <glyph glyph-name="t" unicode="t" horiz-adv-x="245" 
d="M146 -6q-21 0 -34 8q-14 8 -21 20q-7 11 -10 29q-3 16 -3 34v219h-50v12l50 6l34 90h15v-90h57v-6l-57 -12v-219v-10t2 -10q1 -10 6 -21q4 -8 12 -16q7 -6 20 -6q19 -1 32.5 9t18.5 13l6 -7q-1 -2 -7.5 -9t-17 -14.5t-24.5 -13.5t-29 -6z" />
    <glyph glyph-name="u" unicode="u" horiz-adv-x="340" 
d="M299 23q3 -1 7 -1.5t10 -0.5v-6l-61 -17l-6 2v61l-1 -3q-1 -2 -7 -11t-18 -20t-30 -21t-43 -12q-26 -2 -44.5 6t-31.5 23t-19 36.5t-6 46.5v184q0 8 -4 18q-5 9 -16 9v5h68v-210q0 -16 3 -30.5t10.5 -26t21 -18.5t35.5 -7q21 0 35.5 10t23.5 23.5t14 28.5t6 25v205h49
l-1 -282q0 -14 5 -17z" />
    <glyph glyph-name="v" unicode="v" horiz-adv-x="351" 
d="M310 305q-2 -5 -4 -9.5t-4 -9.5l-107 -286h-32l-112 294q-3 9 -9 15q-5 6 -15 6v5h67l93 -260l93 260h46v-5q-12 -3 -16 -10z" />
    <glyph glyph-name="w" unicode="w" horiz-adv-x="529" 
d="M497 309q-2 -2 -3 -4.5t-3 -5.5l-109 -299h-32l-81 230l-88 -230h-33l-106 294q-2 4 -3 7t-3 7q-5 7 -12 7v5h60l89 -262l99 262h13l87 -260l94 260h40v-5q-6 -3 -9 -6z" />
    <glyph glyph-name="x" unicode="x" horiz-adv-x="356" 
d="M258 0l-89 138q-2 -2 -16 -23.5t-31 -47.5q-19 -30 -44 -67h-51v6q9 0 14 4q4 3 10 11l98 147l-84 130q-5 8 -12 13t-18 5v5h73l70 -109l73 109h54v-5q-21 -2 -31 -18l-76 -116l101 -156q2 -4 5 -7l7 -7q7 -6 18 -6v-6h-71z" />
    <glyph glyph-name="y" unicode="y" horiz-adv-x="351" 
d="M316 313q-4 -6 -6 -10l-125 -341q-2 -4 -8.5 -21.5t-18.5 -36.5t-29.5 -34t-41.5 -15q-5 0 -13 1t-16 4t-13.5 7.5t-5.5 11.5q-1 8 4.5 19.5t14.5 12.5q11 0 17 -6t9.5 -14t6 -14.5t8.5 -6.5q10 0 22 21t21.5 47t16.5 47.5t7 23.5l-121 296q-1 7 -7 9l-12 3v5h67l98 -254
l88 254h48v-5q-7 -1 -11 -4z" />
    <glyph glyph-name="z" unicode="z" horiz-adv-x="331" 
d="M293 0h-254v22l186 271h-132q-18 0 -22 -8q-6 -9 -7 -24h-6l1 60h227v-22l-187 -271h147q16 0 21 1q8 3 12 7q4 2 8 12q2 4 2.5 8.5t2.5 11.5l6 -2z" />
    <glyph glyph-name="braceleft" unicode="{" horiz-adv-x="210" 
d="M26 189q7 1 15.5 8t17 16.5t14 19.5t6.5 16t1 20.5v31.5t-0.5 32t-0.5 22q0 41 15.5 64.5t35 35t36.5 14.5t20 3v-12q-9 0 -20 -5.5t-20 -15t-15 -22.5t-6 -28v-115q0 -20 -9 -36t-20.5 -28.5t-22.5 -20t-16 -8.5q5 -2 16 -9.5t22.5 -19.5t20.5 -28.5t9 -36.5v-114
q0 -15 6 -28t15 -22.5t20 -15t20 -5.5v-13q-3 0 -20 3t-36.5 15t-35 35.5t-15.5 64.5q0 7 0.5 22t0.5 32v31.5t-1 20.5t-6.5 15.5t-14 19t-17 17t-15.5 8.5v16z" />
    <glyph glyph-name="bar" unicode="|" horiz-adv-x="119" 
d="M39 -14v488h43v-488h-43v0z" />
    <glyph glyph-name="braceright" unicode="}" horiz-adv-x="213" 
d="M186 188v-15q-7 -1 -15.5 -8.5t-17 -17t-14 -19t-6.5 -15.5t-1.5 -20.5t-0.5 -31.5t0.5 -32t0.5 -22q0 -41 -15.5 -64.5t-35 -35.5t-36 -15t-19.5 -3v13q9 0 20 5.5t20 15t15 22.5t6 28v114q0 20 9 36.5t20 28.5t22 19.5t16 9.5q-5 1 -16 8.5t-22 20t-20 28.5t-9 36v115
q0 15 -6 28t-15 22.5t-20 15t-20 5.5v12q3 0 19.5 -3t36 -14.5t35 -35t15.5 -64.5q0 -7 -0.5 -22t-0.5 -32t0.5 -31.5t1.5 -20.5t6.5 -16t14 -19.5t17 -16.5t15.5 -8v-1z" />
    <glyph glyph-name="asciitilde" unicode="~" horiz-adv-x="429" 
d="M399 255v-7q0 -26 -7 -43.5t-18.5 -28.5t-25.5 -16t-29 -5q-19 0 -42.5 6t-68.5 26l-48 22t-50 11q-50 0 -50 -65h-31v7q0 44 24.5 68.5t56.5 24.5q22 0 44 -7t63 -26q24 -11 51 -21.5t53 -10.5q46 0 46 65h32z" />
    <glyph glyph-name="nonbreakingspace" unicode="&#xa0;" horiz-adv-x="220" 
 />
    <glyph glyph-name="exclamdown" unicode="&#xa1;" horiz-adv-x="155" 
 />
    <glyph glyph-name="cent" unicode="&#xa2;" horiz-adv-x="382" 
 />
    <glyph glyph-name="sterling" unicode="&#xa3;" horiz-adv-x="382" 
 />
    <glyph glyph-name="currency" unicode="&#xa4;" horiz-adv-x="486" 
 />
    <glyph glyph-name="yen" unicode="&#xa5;" horiz-adv-x="382" 
 />
    <glyph glyph-name="brokenbar" unicode="&#xa6;" horiz-adv-x="158" 
 />
    <glyph glyph-name="section" unicode="&#xa7;" horiz-adv-x="382" 
 />
    <glyph glyph-name="dieresis" unicode="&#xa8;" horiz-adv-x="216" 
 />
    <glyph glyph-name="copyright" unicode="&#xa9;" horiz-adv-x="487" 
 />
    <glyph glyph-name="ordfeminine" unicode="&#xaa;" horiz-adv-x="252" 
 />
    <glyph glyph-name="guillemotleft" unicode="&#xab;" horiz-adv-x="295" 
 />
    <glyph glyph-name="logicalnot" unicode="&#xac;" horiz-adv-x="429" 
 />
    <glyph glyph-name="registered" unicode="&#xae;" horiz-adv-x="367" 
 />
    <glyph glyph-name="macron" unicode="&#xaf;" horiz-adv-x="216" 
 />
    <glyph glyph-name="degree" unicode="&#xb0;" horiz-adv-x="216" 
 />
    <glyph glyph-name="plusminus" unicode="&#xb1;" horiz-adv-x="429" 
 />
    <glyph glyph-name="twosuperior" unicode="&#xb2;" horiz-adv-x="259" 
 />
    <glyph glyph-name="threesuperior" unicode="&#xb3;" horiz-adv-x="245" 
 />
    <glyph glyph-name="acute" unicode="&#xb4;" horiz-adv-x="216" 
 />
    <glyph glyph-name="mu" unicode="&#xb5;" horiz-adv-x="422" 
 />
    <glyph glyph-name="paragraph" unicode="&#xb6;" horiz-adv-x="382" 
 />
    <glyph glyph-name="periodcentered" unicode="&#xb7;" horiz-adv-x="230" 
d="M180 236q0 -27 -19 -45.5t-46 -18.5q-26 0 -45.5 18.5t-19.5 45.5t19.5 46t45.5 19q27 0 46 -19t19 -46z" />
    <glyph glyph-name="cedilla" unicode="&#xb8;" horiz-adv-x="216" 
 />
    <glyph glyph-name="onesuperior" unicode="&#xb9;" horiz-adv-x="216" 
 />
    <glyph glyph-name="ordmasculine" unicode="&#xba;" horiz-adv-x="252" 
 />
    <glyph glyph-name="guillemotright" unicode="&#xbb;" horiz-adv-x="295" 
 />
    <glyph glyph-name="onequarter" unicode="&#xbc;" horiz-adv-x="547" 
 />
    <glyph glyph-name="onehalf" unicode="&#xbd;" horiz-adv-x="547" 
 />
    <glyph glyph-name="threequarters" unicode="&#xbe;" horiz-adv-x="547" 
 />
    <glyph glyph-name="questiondown" unicode="&#xbf;" horiz-adv-x="295" 
 />
    <glyph glyph-name="Agrave" unicode="&#xc0;" horiz-adv-x="428" 
 />
    <glyph glyph-name="Aacute" unicode="&#xc1;" horiz-adv-x="428" 
 />
    <glyph glyph-name="Acircumflex" unicode="&#xc2;" horiz-adv-x="428" 
 />
    <glyph glyph-name="Atilde" unicode="&#xc3;" horiz-adv-x="428" 
 />
    <glyph glyph-name="Adieresis" unicode="&#xc4;" horiz-adv-x="428" 
 />
    <glyph glyph-name="Aring" unicode="&#xc5;" horiz-adv-x="461" 
 />
    <glyph glyph-name="AE" unicode="&#xc6;" horiz-adv-x="581" 
 />
    <glyph glyph-name="Ccedilla" unicode="&#xc7;" horiz-adv-x="461" 
 />
    <glyph glyph-name="Egrave" unicode="&#xc8;" horiz-adv-x="368" 
 />
    <glyph glyph-name="Eacute" unicode="&#xc9;" horiz-adv-x="368" 
 />
    <glyph glyph-name="Ecircumflex" unicode="&#xca;" horiz-adv-x="368" 
 />
    <glyph glyph-name="Edieresis" unicode="&#xcb;" horiz-adv-x="368" 
 />
    <glyph glyph-name="Igrave" unicode="&#xcc;" horiz-adv-x="162" 
 />
    <glyph glyph-name="Iacute" unicode="&#xcd;" horiz-adv-x="162" 
 />
    <glyph glyph-name="Icircumflex" unicode="&#xce;" horiz-adv-x="162" 
 />
    <glyph glyph-name="Idieresis" unicode="&#xcf;" horiz-adv-x="162" 
 />
    <glyph glyph-name="Eth" unicode="&#xd0;" horiz-adv-x="522" 
 />
    <glyph glyph-name="Ntilde" unicode="&#xd1;" horiz-adv-x="508" 
 />
    <glyph glyph-name="Ograve" unicode="&#xd2;" horiz-adv-x="542" 
 />
    <glyph glyph-name="Oacute" unicode="&#xd3;" horiz-adv-x="542" 
 />
    <glyph glyph-name="Ocircumflex" unicode="&#xd4;" horiz-adv-x="542" 
 />
    <glyph glyph-name="Otilde" unicode="&#xd5;" horiz-adv-x="542" 
 />
    <glyph glyph-name="Odieresis" unicode="&#xd6;" horiz-adv-x="542" 
 />
    <glyph glyph-name="multiply" unicode="&#xd7;" horiz-adv-x="429" 
 />
    <glyph glyph-name="Oslash" unicode="&#xd8;" horiz-adv-x="542" 
 />
    <glyph glyph-name="Ugrave" unicode="&#xd9;" horiz-adv-x="498" 
 />
    <glyph glyph-name="Uacute" unicode="&#xda;" horiz-adv-x="498" 
 />
    <glyph glyph-name="Ucircumflex" unicode="&#xdb;" horiz-adv-x="498" 
 />
    <glyph glyph-name="Udieresis" unicode="&#xdc;" horiz-adv-x="498" 
 />
    <glyph glyph-name="Yacute" unicode="&#xdd;" horiz-adv-x="390" 
 />
    <glyph glyph-name="Thorn" unicode="&#xde;" horiz-adv-x="395" 
 />
    <glyph glyph-name="uni00DF" unicode="&#xdf;" horiz-adv-x="402" 
 />
    <glyph glyph-name="agrave" unicode="&#xe0;" horiz-adv-x="357" 
 />
    <glyph glyph-name="aacute" unicode="&#xe1;" horiz-adv-x="357" 
 />
    <glyph glyph-name="acircumflex" unicode="&#xe2;" horiz-adv-x="357" 
 />
    <glyph glyph-name="atilde" unicode="&#xe3;" horiz-adv-x="357" 
 />
    <glyph glyph-name="adieresis" unicode="&#xe4;" horiz-adv-x="357" 
 />
    <glyph glyph-name="aring" unicode="&#xe5;" horiz-adv-x="357" 
 />
    <glyph glyph-name="ae" unicode="&#xe6;" horiz-adv-x="601" 
 />
    <glyph glyph-name="ccedilla" unicode="&#xe7;" horiz-adv-x="359" 
 />
    <glyph glyph-name="egrave" unicode="&#xe8;" horiz-adv-x="387" 
 />
    <glyph glyph-name="eacute" unicode="&#xe9;" horiz-adv-x="387" 
 />
    <glyph glyph-name="ecircumflex" unicode="&#xea;" horiz-adv-x="387" 
 />
    <glyph glyph-name="edieresis" unicode="&#xeb;" horiz-adv-x="387" 
 />
    <glyph glyph-name="igrave" unicode="&#xec;" horiz-adv-x="162" 
 />
    <glyph glyph-name="iacute" unicode="&#xed;" horiz-adv-x="162" 
 />
    <glyph glyph-name="icircumflex" unicode="&#xee;" horiz-adv-x="162" 
 />
    <glyph glyph-name="idieresis" unicode="&#xef;" horiz-adv-x="162" 
 />
    <glyph glyph-name="eth" unicode="&#xf0;" horiz-adv-x="416" 
 />
    <glyph glyph-name="ntilde" unicode="&#xf1;" horiz-adv-x="426" 
 />
    <glyph glyph-name="ograve" unicode="&#xf2;" horiz-adv-x="426" 
 />
    <glyph glyph-name="oacute" unicode="&#xf3;" horiz-adv-x="426" 
 />
    <glyph glyph-name="ocircumflex" unicode="&#xf4;" horiz-adv-x="426" 
 />
    <glyph glyph-name="otilde" unicode="&#xf5;" horiz-adv-x="426" 
 />
    <glyph glyph-name="odieresis" unicode="&#xf6;" horiz-adv-x="426" 
 />
    <glyph glyph-name="divide" unicode="&#xf7;" horiz-adv-x="429" 
 />
    <glyph glyph-name="oslash" unicode="&#xf8;" horiz-adv-x="426" 
 />
    <glyph glyph-name="ugrave" unicode="&#xf9;" horiz-adv-x="422" 
 />
    <glyph glyph-name="uacute" unicode="&#xfa;" horiz-adv-x="422" 
 />
    <glyph glyph-name="ucircumflex" unicode="&#xfb;" horiz-adv-x="422" 
 />
    <glyph glyph-name="udieresis" unicode="&#xfc;" horiz-adv-x="422" 
 />
    <glyph glyph-name="yacute" unicode="&#xfd;" horiz-adv-x="346" 
 />
    <glyph glyph-name="thorn" unicode="&#xfe;" horiz-adv-x="441" 
 />
    <glyph glyph-name="ydieresis" unicode="&#xff;" horiz-adv-x="346" 
 />
    <glyph glyph-name="Lslash" unicode="&#x141;" horiz-adv-x="353" 
 />
    <glyph glyph-name="lslash" unicode="&#x142;" horiz-adv-x="162" 
 />
    <glyph glyph-name="OE" unicode="&#x152;" horiz-adv-x="693" 
 />
    <glyph glyph-name="oe" unicode="&#x153;" horiz-adv-x="688" 
 />
    <glyph glyph-name="Scaron" unicode="&#x160;" horiz-adv-x="364" 
 />
    <glyph glyph-name="scaron" unicode="&#x161;" horiz-adv-x="294" 
 />
    <glyph glyph-name="Ydieresis" unicode="&#x178;" horiz-adv-x="390" 
 />
    <glyph glyph-name="Zcaron" unicode="&#x17d;" horiz-adv-x="436" 
 />
    <glyph glyph-name="zcaron" unicode="&#x17e;" horiz-adv-x="317" 
 />
    <glyph glyph-name="florin" unicode="&#x192;" horiz-adv-x="382" 
 />
    <glyph glyph-name="circumflex" unicode="&#x2c6;" horiz-adv-x="321" 
 />
    <glyph glyph-name="caron" unicode="&#x2c7;" horiz-adv-x="321" 
 />
    <glyph glyph-name="breve" unicode="&#x2d8;" horiz-adv-x="300" 
 />
    <glyph glyph-name="dotaccent" unicode="&#x2d9;" horiz-adv-x="158" 
 />
    <glyph glyph-name="ring" unicode="&#x2da;" horiz-adv-x="278" 
 />
    <glyph glyph-name="ogonek" unicode="&#x2db;" horiz-adv-x="194" 
 />
    <glyph glyph-name="tilde" unicode="&#x2dc;" horiz-adv-x="216" 
 />
    <glyph glyph-name="hungarumlaut" unicode="&#x2dd;" horiz-adv-x="301" 
 />
    <glyph glyph-name="uni0E00" unicode="&#xe00;" horiz-adv-x="400" 
 />
    <glyph glyph-name="uni0E01" unicode="&#xe01;" horiz-adv-x="396" 
d="M211 395q30 0 61 -10t46 -27q17 -20 23 -42t6 -50v-231q0 -19 6 -23q7 -5 22 -5v-7h-87v258q0 53 -26.5 77t-75.5 24q-26 0 -42.5 -3t-27.5 -6q-12 -4 -19 -8q5 -5 6.5 -11.5t3.5 -12.5q1 -7 2 -15v-303h-59l1 305q0 16 -6 19q-8 4 -20 4v6q22 17 50 30q24 11 58 21
t78 10z" />
    <glyph glyph-name="uni0E02" unicode="&#xe02;" horiz-adv-x="343" 
d="M322 385v-7q-21 0 -24 -7q-4 -5 -4 -27v-213q0 -23 -5.5 -47.5t-19 -44.5t-37 -33.5t-60.5 -13.5q-39 0 -64.5 13.5t-41 33.5t-21.5 44.5t-6 47.5q0 28 9.5 52t20.5 45t20.5 40.5t9.5 38.5q0 23 -10 33.5t-21 13.5q-14 4 -31 1v19q18 10 38.5 10.5t37.5 -7t28 -23.5
t11 -40q0 -22 -8.5 -42.5t-19 -42.5t-19 -47t-8.5 -55q0 -8 1 -25t8 -33.5t22 -29t42 -12.5q25 0 38.5 13t19.5 30t7 33.5t1 23.5v258h86z" />
    <glyph glyph-name="uni0E03" unicode="&#xe03;" horiz-adv-x="343" 
d="M322 385v-7q-21 0 -24 -7q-4 -5 -4 -27v-213q0 -23 -5.5 -47.5t-19 -44.5t-37 -33.5t-59.5 -13.5q-39 0 -65 13.5t-41.5 33.5t-21.5 44.5t-6 47.5q0 28 9.5 52t20.5 44.5t20.5 39t9.5 37.5q1 11 -2 21q-2 8 -7 15t-16 7q-16 0 -22.5 -12.5t-7.5 -21.5h-13l6 72h42l25 -25
l24 25h24v-73v-1q0 -22 -8.5 -42t-19 -41.5t-19 -46t-8.5 -54.5q0 -8 1 -25t8 -33.5t22 -29t42 -12.5q25 0 38.5 13t19.5 30t7 33.5t1 23.5v258h86z" />
    <glyph glyph-name="uni0E04" unicode="&#xe04;" horiz-adv-x="401" 
d="M358 12q7 -5 22 -5v-7h-88l2 258q0 8 -4 25.5t-14.5 35t-30 31t-49.5 13.5q-31 0 -50.5 -13.5t-30 -31.5t-14 -35.5t-3.5 -24.5v-118q3 7 6.5 13t8.5 13q5 8 10.5 14.5t11.5 12.5q15 14 28 20q18 8 36 8q12 0 23 -7q12 -6 14 -20v-10q0 -7 -3 -14q-1 -3 -2.5 -6t-3.5 -6
q-5 -7 -11 -8q-8 -3 -12 3q-5 4 -9 12q-3 8 -9 14q-4 7 -14 7q-8 0 -17 -6q-5 -2 -9.5 -5.5t-9.5 -7.5q-4 -5 -8 -8.5t-8 -8.5q-3 -5 -6 -8.5t-5 -7.5q-11 -17 -11 -36v-98h-60l2 254q0 22 9 47t27.5 45.5t48.5 34t72 13.5q43 0 72.5 -13.5t48 -34t26.5 -45.5t8 -47v-219
q0 -19 6 -23z" />
    <glyph glyph-name="uni0E05" unicode="&#xe05;" horiz-adv-x="400" 
d="M358 12q7 -5 23 -5v-7h-89l2 258q0 6 -2 18t-8 25.5t-16 27t-25 22.5l-46 -47l-48 47q-16 -9 -26 -22.5t-15.5 -27.5t-7.5 -25.5t-2 -17.5v-118q3 7 6.5 13t8.5 13q5 8 10.5 14.5t12.5 12.5q13 13 28 20q16 8 35 8q11 0 24 -7q12 -6 14 -20q0 -6 -1 -10q0 -7 -3 -14
q-2 -6 -6 -12q-5 -7 -10 -8q-9 -3 -13 3q-5 5 -8 12q-2 4 -4.5 7.5t-5.5 6.5q-4 7 -14 7q-8 0 -17 -6q-5 -2 -9 -5.5t-9 -7.5l-8.5 -8.5t-7.5 -8.5q-9 -10 -12 -16q-11 -17 -11 -36v-98h-60l2 254q0 19 6.5 40.5t20.5 40t36 33.5t52 21l42 -42l42 43q32 -6 53.5 -20.5
t35 -33.5t19 -40.5t5.5 -41.5v-219q0 -19 6 -23z" />
    <glyph glyph-name="uni0E06" unicode="&#xe06;" horiz-adv-x="425" 
d="M154 127v-4.5t2 -7.5l3 -7.5t2 -4.5q10 -30 36 -50q25 -19 58 -19q19 0 35 8q15 7 24 21q8 11 13 29q4 16 4 36v196v20v41h58v-38v-63v-158q0 -27 -6 -51q-4 -12 -8.5 -23t-11.5 -20q-13 -18 -35 -30q-20 -10 -51 -10q-44 0 -73 20t-53 55v-75h-15l-70 24v8q8 3 14 1
q4 -1 9 -1q4 2 5 5t1 18v274q0 7 -2 13q-2 5 -6 9t-12 4q-16 0 -22.5 -12.5t-7.5 -21.5h-12l5 72h43l24 -25l25 25h24v-258v0z" />
    <glyph glyph-name="uni0E07" unicode="&#xe07;" horiz-adv-x="333" 
d="M233 246q10 29 12 53.5t-4.5 41.5t-22.5 25t-41 4v16q26 12 54 8.5t47.5 -22t24.5 -53.5t-14 -86l-83 -233h-38q-35 92 -62 166q-12 31 -23 61.5t-20 55.5t-15 41.5t-7 19.5q-4 14 -9.5 24.5t-19.5 10.5v7h58l110 -307l53 167v0z" />
    <glyph glyph-name="uni0E08" unicode="&#xe08;" horiz-adv-x="311" 
d="M268 12q7 -5 22 -5v-7h-88l1 98q0 18 -11 37q-5 6 -12 15q-4 5 -7.5 8.5l-8.5 8.5q-5 4 -9 7.5t-9 5.5q-9 6 -17 6q-10 0 -14 -7q-3 -3 -5.5 -6.5t-4.5 -7.5q-3 -7 -8 -12q-4 -6 -13 -3q-5 1 -10 8q-5 6 -6 12q-3 7 -3 14q-1 4 -1 10q2 14 14 20q13 7 24 7q19 0 35 -8
q15 -7 28 -20q7 -6 12.5 -12.5t10.5 -14.5q8 -12 15 -26l1 118v11v16q0 21 -9 36q-10 16 -23 25q-7 5 -15 8.5t-17 6.5q-22 5 -36 5q-5 0 -10.5 -1t-10.5 -3q-6 -2 -12 -4.5t-11 -4.5q-13 -6 -22 -13q-12 -8 -19 -12l-7 4q5 5 8.5 9t7.5 8q5 4 8.5 7.5t8.5 6.5q20 16 43 24
q21 9 47 9q60 0 94 -31q33 -33 33 -93v-6v-231q0 -19 6 -23z" />
    <glyph glyph-name="uni0E09" unicode="&#xe09;" horiz-adv-x="400" 
d="M292 257q0 15 -6.5 33t-21 33.5t-37 26t-55.5 10.5q-35 0 -60 -4.5t-41.5 -10.5t-25.5 -11.5t-12 -6.5l-9 4q9 10 25 21t36.5 20.5t44 15.5t48.5 6q90 0 131.5 -35t41.5 -92v-226q0 -17 5 -19q5 -4 20 -4v-6l-72 -20l-8 1v75q-12 -18 -23 -32t-26 -24q-14 -11 -30 -16
t-39 -5q-21 0 -41 8.5t-35.5 24.5t-25.5 40t-10 55v66q0 18 -6 24q-7 5 -22 5v6h87v-93q0 -8 1.5 -23.5t9.5 -30.5t24 -26t45 -11q21 0 37.5 12t27.5 28.5t16.5 33t5.5 25.5v122z" />
    <glyph glyph-name="uni0E0A" unicode="&#xe0a;" horiz-adv-x="331" 
d="M403 513q13 -6 17 -15q-2 -8 -4 -13q-2 -4 -4.5 -6.5l-4.5 -4.5q-5 -5 -11 -5q-6 -1 -13 3q-6 6 -9 10q-2 2 -3.5 5t-3.5 5q-3 4 -9 10q-5 4 -13 4q-16 1 -26 -13q-9 -13 -13 -32q-2 -8 -2.5 -16.5t-1.5 -17.5v-42q0 -50 -21 -74t-46 -34q10 -5 20.5 -13.5t19 -20.5
t14 -29t5.5 -39v-44q0 -23 -5 -47.5t-18.5 -44.5t-37 -33.5t-60.5 -13.5q-39 0 -65 13.5t-41.5 33.5t-21.5 44.5t-6 47.5q0 28 9.5 52t20.5 45t20.5 40.5t9.5 38.5q0 23 -10 33.5t-21 13.5q-14 4 -31 1v19q18 10 38.5 10.5t38 -7t28.5 -23.5t11 -40q0 -22 -9 -42.5
t-19.5 -42.5t-19 -47t-8.5 -55q0 -8 1 -25t8 -33.5t22 -29t42 -12.5q25 0 38.5 13t19.5 30t7 33.5t1 23.5v50q0 32 -9 50.5t-20 27.5q-12 11 -28 13v22q25 -2 38 9.5t19 25.5q7 17 8 39q0 49 11 82q13 34 31 49q20 18 41 24q22 4 42 3q19 -1 34 -9z" />
    <glyph glyph-name="uni0E0B" unicode="&#xe0b;" horiz-adv-x="331" 
d="M395 513q15 -6 17 -15q0 -3 -1 -6t-3 -7q-2 -5 -8 -11q-7 -5 -11 -5q-6 -2 -14 3q-6 6 -8 10q-2 2 -4 5t-4 5q-3 5 -9 10q-4 4 -13 4q-16 1 -26 -13q-9 -14 -12 -32q-4 -15 -4 -34v-42q0 -24 -5.5 -41.5t-14.5 -30.5t-20 -21t-23 -13q10 -5 21.5 -13t20.5 -20.5t15 -30
t6 -40.5v-44q0 -23 -5.5 -47.5t-19 -44.5t-37 -33.5t-60.5 -13.5q-39 0 -64.5 13.5t-41 33.5t-21.5 44.5t-6 47.5q0 28 9.5 52t20.5 44.5t20.5 39t9.5 37.5q1 11 -2 21q-2 8 -7.5 15t-16.5 7q-16 0 -22.5 -12.5t-7.5 -21.5h-12l6 72h42l25 -25l24 25h24v-73v-1
q0 -22 -8.5 -42t-19 -41.5t-19 -46t-8.5 -54.5q0 -8 1 -25t8 -33.5t22 -29t42 -12.5q25 0 38.5 13t19.5 30t7 33.5t1 23.5v50q0 32 -9 50.5t-20 27.5q-13 11 -29 13h-8v22q25 -2 38.5 9.5t19.5 25.5q7 17 8 39q-1 49 11 82q13 33 30 49q19 18 41 24q22 4 42 3q19 -1 34 -9z
" />
    <glyph glyph-name="uni0E0C" unicode="&#xe0c;" horiz-adv-x="607" 
d="M340 211l-1 -84l1 8q0 -31 13 -51q13 -21 34 -34q10 -6 21 -10t22 -4q30 0 46.5 12.5t22.5 23.5q13 20 13 55l-1 258h60v-35v-63v-168q0 -55 -29 -92q-29 -36 -88 -36q-22 0 -37 5t-29 16q-27 18 -52 56l-1 -75l-7 -1l-72 20v6q15 0 20 4q6 3 6 19l-1 216q0 53 -26.5 77
t-74.5 24q-26 0 -42.5 -3t-25.5 -6q-11 -4 -15 -8q5 -5 7 -11.5t4 -12.5q2 -7 2 -15v-210q0 -5 1 -13.5t4 -17t9 -15.5t16 -10q14 -5 32.5 -1t32.5 11v-16q-10 -12 -24 -21q-12 -8 -29 -13t-39 -1q-23 4 -35.5 16t-18.5 27t-7.5 29.5t-1.5 23.5v115q0 44 1 98q0 16 -6 19
q-8 4 -19 4v6q20 17 46 30q23 11 56 21t77 10q29 0 60 -10t47 -27q17 -20 22 -42t5 -50z" />
    <glyph glyph-name="uni0E0D" unicode="&#xe0d;" horiz-adv-x="607" 
d="M571 385v-35v-97v-74v-1q0 -45 -2.5 -73t-9.5 -47q-11 -32 -31 -49q-27 -23 -58.5 -30.5t-60 -6.5t-51 7.5t-32.5 12.5q-16 8 -17 16q0 4 4 12q3 8 9 11q5 5 10 6q7 0 14 -4q6 -6 8 -10l6 -8t5 -6q3 -3 8.5 -7.5t13.5 -6.5q4 -1 19 -3t34 2t37.5 18.5t30.5 46.5
q-16 -9 -37 -14.5t-47 -5.5q-37 0 -64 10.5t-45 28t-26.5 39t-8.5 44.5l2 96q0 53 -27 77t-75 24q-26 0 -42 -3t-25 -6q-11 -4 -15 -8q5 -5 6.5 -11.5t3.5 -12.5q1 -7 2 -15v-210q0 -5 1 -13.5t4.5 -17t9.5 -15.5t15 -10q14 -5 32.5 -1t32.5 11v-16q-10 -12 -24 -21
q-12 -8 -29 -13t-39 -1q-23 4 -35.5 16t-18.5 27t-7 29.5t-1 23.5v115q0 44 1 98q0 16 -6 19q-8 4 -20 4v6q20 17 46 30q23 11 56 21t77 10q29 0 60.5 -10t46.5 -27q17 -20 22.5 -42t5.5 -50l-1 -108q0 -7 3 -21t12 -27.5t25.5 -24t44.5 -10.5q27 0 44.5 12.5t27.5 29.5
t13.5 34t3.5 25l-2 210h60z" />
    <glyph glyph-name="uni0E0E" unicode="&#xe0e;" horiz-adv-x="395" 
d="M359 -19q0 -50 -12 -81q-13 -34 -31 -49q-20 -19 -41 -23q-6 -1 -12 -1q-5 0 -12.5 1t-14.5 5q-5 3 -12.5 8.5t-16.5 12.5q-26 -23 -54.5 -26.5t-49.5 5.5q-21 8 -28 23t-4.5 30t13.5 27t28 14q35 5 58 -11.5t40 -36.5q8 9 10 17q1 4 1 7q0 5 -1 8t-3 6q-2 2 -5 4.5
t-5 4.5q-5 2 -11 7q-4 2 -10 8q-5 8 -3 14q0 4 5 11q6 6 11 8q8 4 12 4q10 -2 16 -16q7 -14 10 -34q1 -10 0 -20q-1 -9 -5 -19t-12 -21q10 -11 19 -18.5t20 -7.5q17 0 26 13q8 12 11 30q2 9 3 18.5t2 19.5v334q0 54 -27 78t-75 24q-26 0 -43 -3t-28 -6q-12 -4 -19 -9
q5 -5 7 -11.5t4 -12.5q2 -7 2 -15l-3 -179l-2 -66q-1 -14 -2.5 -24.5t-4.5 -17.5q-7 -14 -18 -19q-11 -4 -28 2q-19 7 -38 19l-1 12q4 -4 11 -6q6 -3 10 -3q6 0 9 7q3 4 5 15q1 5 1.5 9t0.5 8q1 5 1 12v233q0 17 -6 20t-20 3v7q22 17 50 30q24 11 58.5 20.5t78.5 9.5
q29 0 60 -10t47 -27q17 -19 22.5 -41t5.5 -51v-284zM177 -150q11 5 19 13q-14 11 -29.5 20t-28.5 10t-19 -3t-10 -11q-5 -9 -0.5 -17.5t15 -13.5t25 -5t28.5 7z" />
    <glyph glyph-name="uni0E0F" unicode="&#xe0f;" horiz-adv-x="396" 
d="M360 -19q0 -50 -12 -81q-13 -34 -31 -49q-20 -19 -41 -23l-29 35l-28 -35q-11 4 -20 10t-17 13q-14 -12 -28.5 -18t-28.5 -7t-26.5 1.5t-21.5 7.5q-18 9 -24.5 24.5t-2.5 30t16 25.5t31 13q31 2 52 -14.5t38 -33.5q7 13 7 23q1 7 -4 14q-6 6 -10 9q-2 2 -5 3.5t-6 3.5
q-7 4 -9 8q-6 7 -4 14q1 3 2 5.5t3 5.5q5 5 11 8q4 2 7 3t6 1q8 -1 16 -16t9 -32q1 -12 0 -23q-1 -10 -4 -20.5t-8 -18.5q4 -4 7.5 -7t7.5 -5l34 42l36 -45l1 1q2 2 3 4q7 8 10 27q2 9 3 18.5t2 19.5v334q0 54 -27 78t-75 24q-26 0 -43 -3t-28 -6q-12 -4 -19 -9
q5 -5 7 -11.5t4 -12.5q2 -7 2 -15l-3 -179l-2 -66q-2 -29 -7 -43q-8 -14 -18 -18q-11 -4 -28 2q-19 7 -38 19l-1 12q4 -4 11 -6q6 -3 10 -3q6 0 9 7q3 4 5 15q1 5 1.5 9t0.5 8q1 5 1 12v233q0 17 -6 20t-20 3v7q22 17 50 30q24 11 58.5 20.5t78.5 9.5q29 0 60 -10t47 -27
q17 -19 22.5 -41t5.5 -51v-284zM147 -155q15 8 25 16q-13 11 -25 20t-26 11t-21.5 -2t-11.5 -11q-5 -9 -1 -17.5t14 -13.5t22.5 -6.5t23.5 3.5z" />
    <glyph glyph-name="uni0E10" unicode="&#xe10;" horiz-adv-x="314" 
d="M363 514q16 -8 17 -16q0 -7 -4 -12q-3 -8 -8 -11q-4 -4 -11 -6t-13 4q-6 3 -9 9q-2 3 -3.5 6t-3.5 5q-4 6 -10 10q-4 4 -13 4q-17 0 -26 -13q-4 -7 -7 -15t-5 -17q-4 -17 -4 -38v-29l-1 -137v-223q0 -18 6 -24q5 -4 23 -4v-7h-89l1 98q0 19 -11 36q-2 3 -5 7t-7 8
q-6 8 -16 17q-5 5 -9 8t-9 6q-9 6 -17 6q-9 0 -14 -7q-7 -9 -9 -14q-2 -4 -4.5 -7t-4.5 -6q-5 -5 -12 -3q-5 2 -11 8q-5 6 -6 13q-3 7 -3 13q0 4 -0.5 6.5t-0.5 4.5q3 15 15 20q12 6 23 6q21 0 35 -7q8 -4 15 -9t14 -11q10 -10 22 -27q9 -14 15 -27l1 118v11v17q0 19 -9 36
q-8 13 -23 25q-14 10 -32 14q-9 3 -18 4t-18 1q-11 0 -21 -3q-12 -5 -23 -10q-6 -3 -11.5 -6t-10.5 -6q-5 -4 -9.5 -7t-8.5 -6l-8 5l8.5 8.5t7.5 8.5q5 4 8.5 7t8.5 7q20 16 43 24q22 8 47 8q40 0 70 -14q1 37 11 66q12 31 31 49q9 9 19.5 14.5t21.5 8.5q20 6 41 4
q19 -1 34 -9zM264 -21q15 -3 20 -15q7 -11 7 -23q0 -19 -8 -35q-5 -14 -15 -28q-8 -12 -21 -25.5t-32 -24.5l-28 35l-29 -35q-10 4 -19 10t-17 13q-27 -25 -57 -25.5t-49 9.5q-18 9 -24 24.5t-2.5 30t16 25.5t31.5 13q30 2 51.5 -14.5t37.5 -33.5q4 7 5.5 12.5t2.5 10.5
q1 7 -4 14q-2 2 -5 4.5t-5 4.5q-5 2 -11 7q-4 2 -10 8q-5 8 -3 14t5 11q6 6 11 8q3 2 6.5 3t5.5 2q9 -3 17 -17q6 -16 9 -32q0 -12 -1 -23q-1 -10 -3.5 -20.5t-8.5 -18.5q5 -4 8.5 -7t6.5 -5l35 42l36 -44q13 11 19.5 22t9.5 19q4 10 4 19q0 10 -7 14q-6 6 -14 9q-8 4 -12 9
q-6 4 -3 12q3 7 8 11q6 5 13 6q6 3 13 3q3 0 5.5 0.5t4.5 0.5zM86 -155q16 7 25 16q-12 11 -24 20t-27 11q-13 2 -20.5 -2t-11.5 -11q-5 -9 -1 -17.5t13.5 -13.5t22 -6.5t23.5 3.5z" />
    <glyph glyph-name="uni0E11" unicode="&#xe11;" horiz-adv-x="442" 
d="M394 14q4 -7 24 -7v-7h-86v258q0 20 -4 35q-3 16 -13 30q-9 13 -24 21q-16 8 -35 8q-33 0 -58 -19t-36 -50q-1 -2 -2 -4.5l-3 -7.5q-3 -9 -3 -12v-259h-58v322q0 7 -2 13q-2 5 -6 9t-12 4q-17 0 -23.5 -12.5t-7.5 -22.5h-12l6 72h42l25 -24l24 24h22v-66q24 35 53 55
q30 21 73 21q28 0 52 -11q23 -13 34 -30q14 -19 20 -43q7 -22 7 -52v-218q0 -21 3 -27z" />
    <glyph glyph-name="uni0E12" unicode="&#xe12;" horiz-adv-x="639" 
d="M602 384v-265q0 -55 -29 -92q-29 -36 -88 -36q-15 0 -32 5.5t-33 14.5q-15 9 -28 24t-24 33l-1 -75l-7 -2l-72 21v6q12 0 20 3q3 2 4.5 9t1.5 15l-1 189q0 43 -11.5 74.5t-39.5 45.5l-52 -56l-57 51q-5 -2 -7 -4q-24 -17 -39 -52q-16 -33 -16 -88q0 -59 16 -95
q15 -38 39 -56q12 -10 25 -16t27 -6q21 0 31.5 6t18.5 14v-16q-6 -12 -24 -27t-48 -15q-9 0 -25.5 2.5t-32.5 10.5q-31 15 -50 42q-18 25 -29 63q-9 34 -9 74t10 76q11 39 31 66q11 15 24 26.5t29 20.5q8 5 16.5 7.5t19.5 4.5l50 -45l46 49q33 -4 55 -15.5t35.5 -28.5
t19.5 -38t6 -44l1 -14l-1 -66v-51q0 -27 13 -50q8 -15 25 -29t44 -19q11 -3 22 -1t21 7q21 9 33 30q13 20 13 55l-1 257h60z" />
    <glyph glyph-name="uni0E13" unicode="&#xe13;" horiz-adv-x="621" 
d="M341 265v-138q0 -35 13 -55q12 -21 33 -30q20 -9 43 -6q10 1 21 6.5t20.5 13t17 15t10.5 13.5q13 20 13 50v250h60l-1 -343q0 -17 6 -20t19 -3v-6l-72 -21l-7 2l-1 75q-22 -35 -52 -57q-14 -10 -31.5 -15t-33.5 -5q-60 0 -88 36q-29 37 -29 92l1 137q0 54 -27 78t-75 24
q-26 0 -42 -3t-25 -6q-11 -4 -15 -8q5 -5 6.5 -11.5t3.5 -12.5q1 -7 2 -15v-210q0 -5 1 -13.5t4.5 -17t9.5 -16t15 -10.5q14 -4 32.5 0t32.5 11v-16q-10 -12 -24 -21q-12 -8 -29 -13t-39 -1q-23 3 -35.5 15.5t-18.5 27.5t-7 29.5t-1 23.5v115q0 44 1 98q0 16 -6 19t-20 3v7
q20 17 46 30q23 11 56 21t77 10q29 0 60.5 -10.5t46.5 -27.5q17 -19 22.5 -41t5.5 -50z" />
    <glyph glyph-name="uni0E14" unicode="&#xe14;" horiz-adv-x="416" 
d="M364 252v-217q0 -18 6 -24q5 -4 23 -4v-7h-89v235q0 57 -24 93t-74 36q-14 0 -31 -4.5t-29 -13.5q-24 -17 -39 -52q-16 -33 -16 -88q0 -59 16 -95q15 -38 39 -56q12 -10 25 -16t27 -6q21 0 31.5 6t18.5 14l1 -16q-7 -12 -25 -27t-47 -15q-10 0 -26.5 2.5t-32.5 10.5
q-31 15 -50 42q-18 25 -29 63q-9 34 -9 74t10 76q11 39 31 66q11 15 24 26.5t29 20.5q17 9 39.5 13.5t44.5 4.5q42 0 71.5 -10t48 -27.5t27 -41t8.5 -49.5z" />
    <glyph glyph-name="uni0E15" unicode="&#xe15;" horiz-adv-x="427" 
d="M373 252v-217q0 -18 6 -24q7 -4 23 -4v-7h-88v235q0 43 -12 74.5t-39 45.5l-53 -56l-57 51q-4 -2 -6 -4q-24 -16 -40 -52q-16 -37 -16 -88q0 -29 4 -52.5t12 -42.5q17 -39 40 -56q12 -10 24.5 -16t26.5 -6q21 0 31.5 6t19.5 14v-16q-6 -12 -24 -27t-48 -15
q-10 0 -26.5 2.5t-31.5 10.5q-30 14 -50 42t-29 63q-9 34 -9 74t10 76q9 35 31 66q11 15 24 26.5t29 20.5q15 9 35 12l50 -45l47 49q32 -4 54.5 -15.5t36 -28.5t19.5 -38t6 -44v-14z" />
    <glyph glyph-name="uni0E16" unicode="&#xe16;" horiz-adv-x="400" 
d="M290 257q0 54 -27 78t-75 24q-26 0 -43 -3t-28 -6q-12 -4 -19 -8q5 -5 7 -11.5t4 -12.5q2 -7 2 -15v-210q0 -5 1 -13.5t4 -17t9 -15.5t16 -10q14 -5 32.5 -1t32.5 11v-16q-10 -12 -24 -21q-12 -8 -29 -13t-39 -1q-23 3 -35.5 15.5t-18.5 27.5t-7.5 29.5t-1.5 23.5v115
q0 44 1 98q0 16 -6 19t-19 3v7q22 17 50 30q24 11 58 21t78 10q29 0 60 -10.5t47 -27.5q17 -19 22.5 -41t5.5 -50h1v-231q0 -18 6 -24q5 -4 22 -4v-7h-88z" />
    <glyph glyph-name="uni0E17" unicode="&#xe17;" horiz-adv-x="397" 
d="M352 13q4 -6 24 -6v-7h-86v258q0 20 -4 35q-3 14 -13 30q-9 13 -24 21q-14 7 -35 7q-35 0 -58 -19q-25 -18 -36 -49q-2 -2 -2.5 -5t-2.5 -8q-3 -8 -3 -12v-128v-92v-38h-58v41v52v252q0 20 -4 27t-24 7v6h84v-66q21 33 53 55q31 20 73 20q31 0 52 -11q20 -10 34 -29
q14 -21 20 -43q3 -12 5 -25t2 -27v-218q0 -21 3 -28z" />
    <glyph glyph-name="uni0E18" unicode="&#xe18;" horiz-adv-x="348" 
d="M319 133q0 -23 -5.5 -48t-21 -46t-42.5 -35t-70 -14q-37 0 -63.5 13.5t-44 33.5t-25.5 44.5t-8 47.5v61h58v-64q0 -8 2.5 -24.5t11 -33.5t25 -30t43.5 -13q28 0 44 13t24.5 30.5t11 35t2.5 26.5q0 38 -22 55.5t-54 28.5q-15 5 -39.5 10.5t-48.5 15.5t-41 26t-17 43
q0 40 36.5 62t102.5 22q34 0 63 -8.5t43 -8.5l7 13h4v-90h-6q-4 9 -12.5 20.5t-22 22t-32.5 18t-43 7.5q-42 0 -62 -14t-20 -35q0 -15 10.5 -23.5t27.5 -14.5t38.5 -10.5t42.5 -11.5q35 -12 55.5 -27.5t31 -32t13.5 -33.5t3 -32z" />
    <glyph glyph-name="uni0E19" unicode="&#xe19;" horiz-adv-x="401" 
d="M305 -10l-7 2l-1 75q-24 -37 -52 -57q-29 -20 -73 -20q-60 0 -88 36q-29 37 -29 92v231q0 18 -6 23q-7 5 -22 5v6h88l-2 -257q0 -32 13 -55q14 -21 34 -30q19 -9 43 -6q23 2 43 14q21 12 34 34q13 20 13 50v250h60l-2 -343q0 -17 6 -20t20 -3v-6z" />
    <glyph glyph-name="uni0E1A" unicode="&#xe1a;" horiz-adv-x="389" 
d="M203 -10q-43 0 -71.5 13.5t-45.5 34t-24 45t-7 47.5v219q0 18 -6 23q-7 5 -22 5v6h88l-1 -257q0 -9 3.5 -25.5t13.5 -33.5t27.5 -29.5t44.5 -12.5q28 0 45.5 13t27.5 30.5t13.5 34t3.5 23.5v257h60l-1 -253q0 -23 -9.5 -47.5t-28.5 -45t-46.5 -34t-64.5 -13.5z" />
    <glyph glyph-name="uni0E1B" unicode="&#xe1b;" horiz-adv-x="386" 
d="M352 383l-1 -253q0 -23 -9.5 -47.5t-28.5 -45t-47 -34t-64 -13.5q-43 0 -71.5 13.5t-45.5 34t-24 45t-7 47.5v219q0 18 -6 23q-7 5 -22 5v6h88l-1 -257q0 -9 3.5 -25.5t13 -33.5t27 -29.5t45.5 -12.5t45.5 13t27.5 30.5t13.5 34t3.5 23.5v192v204q0 15 -1 18q-2 6 -5 6
q-3 2 -8 0q-3 0 -6 0.5t-7 1.5v5l70 21h15v-191h2z" />
    <glyph glyph-name="uni0E1C" unicode="&#xe1c;" horiz-adv-x="478" 
d="M453 385v-7q-20 0 -23 -6q-4 -5 -4 -23v-58v-135q0 -23 -5 -50t-18.5 -50.5t-36.5 -39.5t-60 -16l-78 263l-77 -263h-39l-65 204q-20 54 -15.5 89.5t21.5 55.5t40.5 28t42.5 8v-16q-22 -6 -32.5 -19.5t-14 -30.5t-1 -36t7.5 -37l44 -170l89 309h27l93 -329q6 12 10 27
t6 28.5t2.5 24.5t0.5 16v233h85z" />
    <glyph glyph-name="uni0E1D" unicode="&#xe1d;" horiz-adv-x="462" 
d="M426 156q0 -23 -5 -50t-18.5 -50.5t-36.5 -39.5t-60 -16l-78 263l-77 -263h-39l-65 204q-20 54 -15 89t22 55.5t40.5 28.5t42.5 8v-16q-22 -6 -33 -19.5t-14 -30.5t-1 -36t7 -37l45 -170l88 309h27l93 -329q7 12 10.5 27t5.5 28.5t2.5 24.5t0.5 16v371q0 13 -2 19
q0 4 -4 6h-9h-5t-8 2v4l70 22l16 -1v-419z" />
    <glyph glyph-name="uni0E1E" unicode="&#xe1e;" horiz-adv-x="462" 
d="M426 156q0 -23 -5 -50t-18.5 -50.5t-36.5 -39.5t-60 -16l-78 263l-77 -263q-29 6 -48 23t-30 39.5t-15 47.5t-4 46l-1 189q0 19 -3 27q-5 7 -24 7v6h85l1 -233q0 -6 0.5 -16.5t3.5 -22.5t9 -24.5t17 -21.5l87 318h27l87 -339l-3 -4q10 11 15.5 27.5t8.5 33t3.5 30.5
t0.5 19v233h58v-229z" />
    <glyph glyph-name="uni0E1F" unicode="&#xe1f;" horiz-adv-x="462" 
d="M426 156q0 -23 -5 -50t-18.5 -50.5t-36.5 -39.5t-60 -16l-78 263l-77 -263q-29 6 -48 23t-30 39.5t-15 47.5t-4 46v189q0 17 -4 27q-5 7 -24 7v6h86v-233q0 -6 0.5 -16.5t3.5 -22.5t9 -24.5t17 -21.5l87 318h27l87 -339l-3 -4q10 11 15.5 27.5t8.5 33t3.5 30.5t0.5 19
v372q0 12 -2 18q0 4 -4 6h-9q-2 0 -5 0.5t-8 1.5v4l70 22l16 -1v-419z" />
    <glyph glyph-name="uni0E20" unicode="&#xe20;" horiz-adv-x="413" 
d="M303 257q0 54 -27 78t-75 24q-26 0 -43 -3t-28 -6q-12 -4 -19 -9q5 -5 6.5 -11.5t3.5 -12.5q1 -7 2 -15l-2 -182l-2 -63q-2 -29 -7 -43q-8 -15 -18 -18q-11 -4 -28 2q-19 7 -38 19l-1 12q4 -4 10 -7q4 -1 6.5 -1.5t4.5 -0.5q6 0 9 6q2 4 3 7.5t2 8.5t1.5 8.5t0.5 8.5
q0 4 0.5 7t0.5 5v233q0 17 -6 20t-20 3v7q22 17 50 30q24 11 58.5 20.5t78.5 9.5q29 0 60 -10t47 -27q17 -19 22.5 -41t5.5 -51v-230q0 -18 6 -24q7 -5 23 -5v-6h-89z" />
    <glyph glyph-name="uni0E21" unicode="&#xe21;" horiz-adv-x="397" 
d="M361 345v-63v-157q0 -14 -1.5 -27t-5.5 -25q-3 -12 -8 -22.5t-11 -20.5q-14 -18 -35 -29q-22 -11 -51 -11q-45 0 -73 21q-29 19 -53 54v-74l-16 -1l-69 24v8q4 2 7.5 2h6.5q4 -1 9 -1q2 0 4 5q2 3 2 17v298q0 20 -4 27t-23 7v6h85v-38v-18v-201q0 -3 3 -12q2 -5 2.5 -7.5
t1.5 -4.5q11 -30 36 -50q25 -19 59 -19q22 0 35 8q14 8 23 20t14 30q2 8 3 17t1 19v196v20v40h58v-38z" />
    <glyph glyph-name="uni0E22" unicode="&#xe22;" horiz-adv-x="397" 
d="M374 383v-7q-18 0 -23 -4q-6 -6 -6 -24v-114v-105q0 -23 -9.5 -47.5t-28.5 -44.5t-47 -33.5t-64 -13.5q-43 0 -71.5 11t-45.5 29t-24 41t-7 47q0 40 15 63t35 35q-27 10 -45.5 31.5t-19.5 51.5q0 9 2.5 23.5t10.5 29t23.5 26t41.5 14.5q20 2 34.5 -2.5t25.5 -11.5
q12 -8 22 -19v-16q-14 7 -33 12t-39 -6q-17 -8 -23.5 -23.5t-6.5 -32.5q2 -22 16.5 -33.5t34 -16t40 -2.5t32.5 8v-18q-6 -6 -15 -10q-8 -4 -18 -7t-24 -5v-1q-14 -3 -25 -13q-10 -8 -17.5 -24.5t-7.5 -44.5q0 -10 3.5 -27t13 -33.5t27 -28.5t45.5 -12t45.5 13t27.5 30
t13.5 33.5t3.5 24.5v109l-1 148h89z" />
    <glyph glyph-name="uni0E23" unicode="&#xe23;" horiz-adv-x="310" 
d="M38 -7l1 102l7 1q6 -25 21 -41t36 -26q21 -8 42 -8q11 -1 21 1t19 5q17 7 30 22q12 15 12 37t-14 39q-8 8 -16 15t-19 13q-21 13 -45 24q-13 6 -24 12t-22 14q-21 17 -34 36q-15 21 -15 51q0 23 10 45q10 20 26 33q8 7 18 11.5t21 8.5q11 3 22.5 5t22.5 2q29 0 52.5 -7.5
t35.5 -9.5l6 13h4v-90h-6q-14 35 -42 50q-27 15 -54 15q-28 0 -47 -16q-20 -15 -20 -43q0 -21 15 -36q13 -15 36 -27q11 -6 22.5 -12.5t23.5 -12.5q28 -13 47 -28q21 -14 36 -37q15 -21 15 -52q0 -49 -36 -79q-19 -16 -44 -24q-12 -4 -24.5 -5.5t-24.5 -1.5q-19 0 -38 3
q-9 2 -18.5 3.5t-18.5 3.5q-3 1 -6.5 2t-6.5 2q-8 2 -13 2q-3 0 -6 -9q-1 -2 -1 -3.5t-2 -2.5h-5z" />
    <glyph glyph-name="uni0E24" unicode="&#xe24;" horiz-adv-x="387" 
d="M292 259q0 54 -27 78t-75 24q-26 0 -43 -3t-28 -6q-12 -4 -19 -8q5 -5 7 -11.5t4 -12.5q2 -7 2 -15v-213q0 -5 1 -13.5t4 -17t9 -16t16 -10.5q14 -4 32.5 -0.5t32.5 11.5v-16q-10 -12 -24 -21q-12 -8 -29 -13t-39 -1q-23 3 -35.5 15.5t-18.5 27.5t-7.5 29.5t-1.5 23.5
v15.5v28t0.5 35.5t0.5 38q0 45 1 99q0 16 -6 19t-20 3v7q22 17 50 30q24 11 58 21t78 10q29 0 60 -10.5t47 -27.5q17 -19 23 -41t6 -50v-285q0 -50 -12 -81q-12 -32 -32 -49q-16 -16 -41 -23q-23 -5 -41 -3q-21 2 -34 9q-16 8 -17 16q0 3 1 6t3 7q3 6 8 11q4 3 11 5t14 -4
q5 -4 8 -9l4 -6t4 -5q2 -4 8 -10q5 -4 14 -4q17 -2 26 12q8 12 13 32q2 10 3 19t1 19v29v305z" />
    <glyph glyph-name="uni0E25" unicode="&#xe25;" horiz-adv-x="378" 
d="M215 36q-8 -13 -28.5 -27.5t-49.5 -16.5q-20 -1 -42 7q-21 8 -34 20q-8 7 -13 15t-10 17q-8 17 -8 42q0 24 8 43q9 17 24 31q16 14 34 24q10 5 19.5 9.5t20.5 9.5q38 16 64 20q15 3 29.5 6.5t29.5 8.5v40q0 10 -2 19t-7 17q-14 22 -33.5 33t-57.5 11q-22 0 -41 -6
t-33.5 -13t-23.5 -13.5t-11 -7.5l-10 7q2 2 12.5 12t29 21.5t44.5 20.5t60 9q67 0 98 -31q32 -30 32 -93v-202v-13q1 -4 1 -8t1 -9q2 -8 5 -15q3 -6 9 -6q7 0 11 2q6 3 10 7l-1 -13q-11 -6 -20 -11t-17 -8q-15 -6 -28 -2q-12 5 -18 19q-7 17 -7 43l-3 67v93l-50 -13
q-9 -3 -18.5 -5.5t-20.5 -6.5q-20 -6 -38 -17t-30 -27q-11 -16 -11 -39q0 -28 13 -44q13 -17 31 -22q18 -6 40 -3q20 3 41 14z" />
    <glyph glyph-name="uni0E26" unicode="&#xe26;" horiz-adv-x="397" 
d="M303 259q0 53 -27 77t-75 24q-26 0 -43 -3t-28 -6q-12 -4 -19 -8q5 -5 7 -11.5t4 -12.5q2 -7 2 -15l-3 -180l-2 -67q0 -26 -7 -43q-8 -15 -18 -19q-13 -3 -28 2q-8 3 -17.5 8t-20.5 11v12q2 -2 10 -6q6 -3 11 -3q4 0 9 7q2 4 4 15q2 5 2 9v8q1 5 1 7.5v4.5l1 236
q0 15 -7 19q-5 4 -19 4v6q22 17 50 30q24 11 58 21t78 10q29 0 60 -10t47 -27q17 -20 23 -42t6 -50l-1 -293q0 -26 -3 -41.5t-9 -31.5q-12 -32 -31 -49q-18 -17 -42 -23q-11 -2 -21 -3.5t-20 0.5q-19 1 -34 9q-16 8 -17 16q0 3 1 6t3 7q6 8 9 11q5 4 11 5q6 2 13 -4
l4.5 -4.5l4.5 -4.5q4 -8 7 -11q3 -5 9 -10q4 -4 13 -4q17 -2 26 12q8 12 13 32q4 17 4 38q1 9 1 16.5v12.5v306z" />
    <glyph glyph-name="uni0E27" unicode="&#xe27;" horiz-adv-x="361" 
d="M160 391q41 0 76 -16q33 -17 53 -43q22 -25 33 -62q11 -38 11 -75q0 -43 -13 -79q-12 -38 -41 -69q-19 -20 -44 -35q-13 -7 -26 -12.5t-27 -7.5q-24 -4 -51 -0.5t-53 19.5q-9 5 -15 12t-8 12q-6 10 -4 20q2 9 16 14q11 3 15 -4q2 -4 4.5 -8.5t6.5 -9.5t8.5 -10.5
t12.5 -8.5q10 -5 23 -6t25.5 0.5t23.5 5t17 6.5q24 12 41 35q16 21 24 50q8 30 8 59q0 31 -9 61q-9 32 -26 55q-17 24 -42 39q-26 15 -60 15q-13 0 -28 -3q-18 -5 -32 -10q-16 -8 -28 -16q-14 -12 -19 -22l-6 14q45 80 134 80z" />
    <glyph glyph-name="uni0E28" unicode="&#xe28;" horiz-adv-x="401" 
d="M452 514q14 -7 17 -16q0 -3 -1 -6t-3 -7l-4 -6t-5 -5q-6 -4 -10 -5q-7 -2 -14 4q-5 3 -8 9q-2 3 -4 5.5t-4 5.5q-4 6 -9 10q-6 4 -13 4q-17 0 -26 -13t-12 -32q-4 -17 -4 -38q-1 -19 0 -29l-1 -137v-4v-219q0 -18 6 -24q7 -5 22 -5v-6h-88l2 257q0 9 -4 26.5t-14.5 35
t-30 30.5t-49.5 13q-31 0 -50.5 -13.5t-30 -31.5t-14 -35.5t-3.5 -24.5v-117q3 6 6.5 12.5t8.5 12.5q5 8 10.5 15t11.5 13q7 6 13.5 10.5t14.5 9.5q15 7 36 7q11 0 23 -6q13 -7 14 -20v-11q0 -7 -3 -13q-1 -4 -2.5 -7t-3.5 -6q-6 -6 -11 -8q-8 -2 -12 3q-2 3 -4.5 6t-4.5 7
q-4 7 -9 14t-14 7q-8 0 -17 -6q-12 -7 -18 -14q-9 -8 -17 -17q-3 -5 -6 -8.5t-5 -6.5q-11 -17 -11 -36v-98h-60l2 254q0 22 9 47t27.5 45t48.5 33.5t72 13.5q32 0 56 -7t42 -20q-1 48 11 81q12 31 30 49q18 17 41 23q21 6 42 4q19 -1 34 -9z" />
    <glyph glyph-name="uni0E29" unicode="&#xe29;" horiz-adv-x="417" 
d="M392 193h2v-11l-26 -32h-1h-15v-21q0 -23 -9.5 -47.5t-28.5 -44.5t-46.5 -33.5t-64.5 -13.5q-43 0 -71.5 13.5t-45 33.5t-23.5 44.5t-7 47.5v219q0 18 -6 24q-7 5 -23 5v6h89l-2 -257q0 -9 3.5 -25.5t13.5 -33.5t27.5 -29.5t44.5 -12.5q28 0 45.5 13t27.5 30t14 33.5
t4 24.5v22q-51 1 -75.5 21.5t-24.5 49.5q0 17 5 28t12 19q7 9 17 14q19 -2 26.5 -9t6 -16.5t-10 -19t-21.5 -16.5q-8 -5 -4 -14.5t22 -11.5q10 0 21.5 -0.5t25.5 -0.5v191h59l-1 -190h40z" />
    <glyph glyph-name="uni0E2A" unicode="&#xe2a;" horiz-adv-x="388" 
d="M425 514q16 -8 17 -16q0 -7 -4 -12q-3 -8 -8 -11q-4 -4 -11 -6q-6 -1 -13 4q-5 2 -9 9q-2 3 -3.5 6t-3.5 5q-4 6 -10 10q-4 4 -13 4q-17 0 -26 -13q-4 -7 -7 -15t-5 -17q-4 -17 -4 -38v-29l-1 -117v-7v-202q0 -2 0.5 -5t0.5 -7t0.5 -8t1.5 -9q1 -8 5 -15q3 -7 9 -7
q3 0 11 3q5 1 10 6l-1 -12q-19 -12 -38 -19q-17 -6 -28 -2t-18 18q-5 14 -7 43l-2 68v92l-50 -13q-10 -2 -19.5 -5t-20.5 -6q-21 -8 -38 -18q-19 -11 -29 -27q-11 -14 -11 -39q0 -28 12 -44q13 -16 31 -22q19 -6 41 -3q11 2 21 5.5t19 9.5l-1 -17q-8 -13 -28 -27.5
t-49 -16.5q-11 -1 -21.5 1.5t-20.5 5.5q-20 8 -34 20q-15 14 -23 32q-9 19 -9 42q0 25 9 43q9 19 23 31q16 14 34 24q10 5 20 9.5t21 9.5q35 15 64 21q29 5 59 15v39q0 21 -9 36q-15 22 -34.5 33t-56.5 11q-22 0 -41 -5.5t-33.5 -13t-24 -14t-11.5 -7.5l-10 7q2 2 12.5 12
t29 21.5t44.5 20.5t60 9q46 0 73 -14q1 37 11 66q12 31 31 49q18 18 41 23q20 6 41 4q19 -1 34 -9z" />
    <glyph glyph-name="uni0E2B" unicode="&#xe2b;" horiz-adv-x="404" 
d="M359 11q7 -5 23 -5v-6h-89l2 137q0 36 -13 55q-12 18 -31.5 31t-51.5 13q-35 0 -54.5 -5t-28.5 -9v-222h-60v350q0 19 -6 24q-7 5 -22 5v6h88v-127q7 2 14.5 4t15.5 4q14 5 41 9t53.5 10t46.5 16.5t20 28.5q0 13 -9 20.5t-23.5 10t-32 -0.5t-33.5 -12v13q9 10 21 18
q11 7 26 12t35 3q25 -3 39.5 -11.5t22 -19t9 -22t0.5 -19.5q-2 -23 -20.5 -39t-47.5 -24q22 -10 31 -22q28 -35 28 -92v-110q0 -18 6 -24z" />
    <glyph glyph-name="uni0E2C" unicode="&#xe2c;" horiz-adv-x="463" 
d="M427 525q1 -13 0 -26q-1 -11 -4 -23.5t-11 -23.5q15 -32 15 -79v-217q0 -23 -5 -50t-18.5 -50.5t-36.5 -39.5t-60 -16l-78 263l-78 -263q-29 6 -48 23t-30 39.5t-15 47.5t-4 46v189q0 20 -4 27t-23 7v6h85v-233q0 -6 1 -16.5t4 -22.5t9 -24.5t17 -21.5l87 318h27l86 -339
l-3 -3q10 11 15.5 27.5t8.5 33t3.5 30t0.5 18.5v208v29.5t-1 26.5q-21 -9 -41 -9t-36 5q-24 8 -32.5 24t-3 32.5t23.5 28.5t47 12q53 0 79 -42q3 6 4 12t2 11t1 11q0 8 -5 13q-5 6 -9 9q-6 4 -11 7q-4 3 -10 9q-4 7 -4 13q2 7 6 11q3 4 11 9q8 4 12 4q9 -3 16 -17t10 -34z
M289 460q-6 -11 0 -19t18 -12.5t28 -4.5t30 6q-4 18 -12 30t-25 14q-13 2 -24.5 -2.5t-14.5 -11.5z" />
    <glyph glyph-name="uni0E2D" unicode="&#xe2d;" horiz-adv-x="405" 
d="M202 -10q-15 0 -33 2t-36.5 8.5t-36.5 18t-32 30.5q-14 18 -19.5 40t-2.5 44t13.5 40.5t30.5 30.5q17 11 35.5 13.5t34.5 0.5q18 -2 35 -8l-1 -18q-14 0 -28 -3q-12 -2 -25 -7.5t-22 -15.5q-11 -11 -14 -28.5t0 -36t12.5 -35.5t23.5 -26q19 -12 36 -15.5t33 -3.5t34.5 9
t34.5 29.5t26 52.5t10 78q0 13 -2 33.5t-8.5 41.5t-19 40.5t-32.5 32.5q-18 12 -53 17t-80 -15q-16 -7 -28 -15.5t-21 -16.5q-11 -10 -19 -19l-9 14q25 43 67 67q44 22 88 22q47 0 88 -23q41 -22 68 -67t27 -112q0 -66 -27 -111q-14 -23 -31 -39t-37 -28t-41 -17t-39 -5z
" />
    <glyph glyph-name="uni0E2E" unicode="&#xe2e;" horiz-adv-x="412" 
d="M321 340q8 -8 15.5 -17.5t13.5 -20.5q27 -45 27 -111q0 -67 -27 -112q-27 -43 -68 -66q-20 -12 -41 -17.5t-39 -5.5q-15 0 -33 2t-36.5 8.5t-36.5 18.5t-32 31q-14 18 -19.5 39.5t-2.5 43.5t13.5 41t30.5 31q17 11 36 13t34 0q18 -2 35 -7l-1 -19q-15 1 -28 -2
q-12 -2 -24.5 -7.5t-21.5 -15.5q-11 -12 -14.5 -29.5t-0.5 -36t12.5 -35.5t23.5 -26q19 -12 36 -15.5t33 -3.5t34.5 9.5t34.5 29.5t26 52.5t10 78.5q0 13 -2 33t-8.5 41t-19 41t-32.5 33q-9 6 -22 10.5t-30 6t-37.5 -2t-43.5 -13.5q-16 -7 -28 -15.5t-21 -16.5
q-11 -10 -19 -19l-9 14q27 45 68 67q40 22 87 22t87 -22l92 22l4 -10l-56 -42v0z" />
    <glyph glyph-name="uni0E2F" unicode="&#xe2f;" horiz-adv-x="328" 
d="M303 0h-91v38v81v115v39q-6 -7 -16 -11q-8 -4 -20 -7t-28 -3q-54 0 -81.5 31t-27.5 74q0 10 6 24q8 13 21 14h4.5t5.5 -1q5 0 13 -2q8 -3 13 -7q7 -5 8 -10q3 -9 -3 -13q-5 -5 -12 -8q-4 -2 -7.5 -4.5t-6.5 -5.5q-7 -4 -7 -14q0 -21 19.5 -38t45.5 -17q27 0 51.5 21
t24.5 62v32l15 1l72 -25v-4q-5 -1 -8.5 -1.5t-6.5 -0.5h-9q-5 -2 -6 -6t-1 -18v-296q0 -21 5 -28q6 -6 27 -6v-6z" />
    <glyph glyph-name="uni0E30" unicode="&#xe30;" horiz-adv-x="252" 
d="M40 291q0 17 5 28t12 19q7 9 17 14q19 -2 26.5 -9t6 -16.5t-10 -19.5t-21.5 -16q-8 -5 -4 -15t22 -11q23 -2 48.5 -1.5t46.5 1.5q25 1 49 3l-1 -11l-64 -33l-12 -2q-5 -1 -10 -1.5t-9 -0.5q-51 0 -76 20.5t-25 50.5zM41 104q-1 17 4.5 28.5t11.5 19.5q7 9 17 14
q19 -2 26.5 -9.5t6.5 -17t-9.5 -19t-21.5 -16.5q-9 -5 -5 -14.5t22 -11.5q23 -2 48.5 -1.5t46.5 1.5q25 1 49 3v-11l-65 -33l-12 -2q-5 -1 -10 -1.5t-8 -0.5q-52 0 -76.5 21t-24.5 50z" />
    <glyph glyph-name="uni0E31" unicode="&#xe31;" 
d="M-200 522q0 17 5 28t12 19q7 9 17 14q19 -2 26.5 -9t6 -16.5t-10 -19.5t-21.5 -16q-8 -5 -4 -15t22 -11q23 -2 60 -2h72q41 0 86 1v-11l-65 -33h-105q-51 0 -76 20.5t-25 50.5z" />
    <glyph glyph-name="uni0E32" unicode="&#xe32;" horiz-adv-x="313" 
d="M261 265v-231q0 -19 6 -23q8 -5 23 -5v-6h-88l1 257v11v17q0 20 -9 35q-5 8 -10 14t-13 11q-13 10 -32 15q-20 5 -36 5q-5 0 -10.5 -1t-10.5 -3q-6 -2 -11.5 -4.5t-11.5 -4.5q-5 -3 -11 -6t-11 -7q-5 -3 -9.5 -6.5t-8.5 -5.5l-8 4q5 5 8.5 9t8.5 8q8 8 17 14q20 15 42 25
q22 8 47 8q60 0 94 -31q33 -33 33 -93v-6z" />
    <glyph glyph-name="uni0E33" unicode="&#xe33;" horiz-adv-x="313" 
d="M-59 482q0 -23 -23 -38.5t-55 -15.5t-54.5 15.5t-22.5 38.5t22.5 39t54.5 16t55 -16t23 -39zM-137 511q-11 0 -19.5 -8.5t-8.5 -20.5q0 -11 8.5 -19.5t19.5 -8.5q12 0 20 8.5t8 19.5q0 12 -8 20.5t-20 8.5zM263 265v-231q0 -19 6 -23q7 -5 22 -5v-6h-88l2 257v11v17
q0 20 -9 35q-10 16 -23 25q-16 11 -33 15q-20 5 -36 5q-5 0 -10 -1t-11 -3q-5 -2 -11 -4.5t-11 -4.5q-13 -6 -22 -13q-5 -3 -9.5 -6.5t-9.5 -5.5l-7 4q4 5 8 9l8 8q5 4 8.5 7.5t8.5 6.5q20 16 43 25q22 8 47 8q60 0 93 -31q34 -32 34 -93v-6z" />
    <glyph glyph-name="uni0E34" unicode="&#xe34;" 
d="M-51 448h-298v12l64 32h234v-44z" />
    <glyph glyph-name="uni0E35" unicode="&#xe35;" 
d="M-95 494v42l38 46h8v-132h-298v11l64 33h188v0z" />
    <glyph glyph-name="uni0E36" unicode="&#xe36;" 
d="M-110 450h-236v11l64 33h165q7 0 15 5.5t8 17.5q0 9 -6.5 16t-15.5 7q-13 0 -19 -8.5t-4 -19.5l-10 -6q-11 13 -6.5 33.5t26.5 28.5q15 5 29 3t25.5 -10t18 -21t6.5 -28q0 -27 -19.5 -44.5t-40.5 -17.5z" />
    <glyph glyph-name="uni0E37" unicode="&#xe37;" 
d="M-56 582h8v-132h-1h-297v11l63 33v0h118v42l38 46h8v-88h25v42l38 46v0z" />
    <glyph glyph-name="uni0E38" unicode="&#xe38;" 
d="M-102 -212v110q0 18 -6 23q-7 5 -22 5v6h83v-144h-55z" />
    <glyph glyph-name="uni0E39" unicode="&#xe39;" 
d="M-206 -102q0 18 -6 24q-7 5 -22 5v6h83v-90q0 -11 7 -17.5t18 -6.5q10 0 17 6.5t7 17.5v90h55v-66q0 -33 -23.5 -56t-55.5 -23q-33 0 -56.5 23t-23.5 56v31z" />
    <glyph glyph-name="uni0E3A" unicode="&#xe3a;" 
d="M-61 -79q0 -29 -29 -29t-29 29t29 29t29 -29z" />
    <glyph glyph-name="uni0E3F" unicode="&#xe3f;" horiz-adv-x="395" 
 />
    <glyph glyph-name="uni0E40" unicode="&#xe40;" horiz-adv-x="161" 
d="M137 0h-98v40v243v102h58v-347q0 -18 10 -25q11 -7 30 -7v-6z" />
    <glyph glyph-name="uni0E41" unicode="&#xe41;" horiz-adv-x="296" 
d="M137 0h-98v40v243v102h59v-347q0 -18 10 -25t29 -7v-6zM272 0h-98v40v243v102h59v-347q0 -18 10 -25t29 -7v-6z" />
    <glyph glyph-name="uni0E42" unicode="&#xe42;" horiz-adv-x="161" 
d="M78 578q-23 11 -40.5 11.5t-28.5 -4.5q-13 -5 -23 -15q33 -12 54.5 -27t33.5 -31t17 -32t5 -29v-413q0 -18 11 -24q10 -7 29 -7v-7h-98v41v243v176q0 29 -18.5 47t-41 28.5t-43 14.5t-23.5 4v6q13 17 33 30q17 11 43.5 21t64.5 10q27 0 49 -6.5t39 -11t30.5 -3.5t24.5 17
h14q0 -18 -10 -32t-27.5 -20.5t-41.5 -4t-53 17.5z" />
    <glyph glyph-name="uni0E43" unicode="&#xe43;" horiz-adv-x="161" 
d="M137 0h-98v41v206v253q0 10 -2 28t-9.5 35t-21 29.5t-36.5 12.5q-35 0 -49.5 -19.5t-14.5 -42.5q0 -27 13.5 -38.5t21.5 -11.5q7 0 14 5q6 6 8 9l4 6t4 5q2 4 8 10q9 5 14 4q4 -1 11 -6q4 -3 8 -10q2 -4 3 -7l2 -6q-3 -8 -17 -16q-13 -7 -35 -10q-9 -1 -22 -0.5t-22 3.5
q-10 3 -19.5 10t-17 17t-10.5 23.5t0 30.5t13.5 29.5t24.5 20t30.5 10.5t32.5 3q28 0 48 -8.5t33.5 -20t20.5 -23.5t10 -20q6 -16 8 -38t2 -47v-429q0 -18 11 -24q10 -7 29 -7v-7z" />
    <glyph glyph-name="uni0E44" unicode="&#xe44;" horiz-adv-x="158" 
d="M38 467q0 29 1.5 48.5t3.5 33.5q3 15 6 26l-60 -61l-38 38q-15 15 -30 29.5t-20 19.5t-10 7.5t-8 3.5q-4 1 -7 1v8h62l65 -65l68 65h25v-154v-429q0 -18 10 -24q10 -7 30 -7v-7h-98v41v243v183v0z" />
    <glyph glyph-name="uni0E45" unicode="&#xe45;" horiz-adv-x="315" 
 />
    <glyph glyph-name="uni0E46" unicode="&#xe46;" horiz-adv-x="368" 
d="M129 391l49 -49l49 49q32 -5 52.5 -18.5t32 -32t16 -40t4.5 -40.5v-279q0 -26 -2.5 -46t-9.5 -36q-12 -31 -31 -49q-16 -16 -41 -23q-23 -5 -42 -3q-19 1 -34 9q-14 8 -17 17q1 2 2 5t3 7q2 5 8 11q4 3 11 5q6 2 14 -3q6 -6 8 -10q2 -3 3.5 -6t3.5 -5q3 -4 9 -10
q5 -4 14 -4q17 -2 25 12q10 15 13 32q2 10 3.5 19t1.5 19v29l1 48v234q0 43 -8 73.5t-36 44.5l-53 -53l-54 53q-11 -6 -20 -16q-8 -8 -14 -20t-6 -28q0 -17 5.5 -29t12.5 -19.5t14.5 -11.5t12.5 -4q8 0 13 5q6 5 9 10q2 2 3.5 5t3.5 6l4.5 4.5l4.5 4.5q7 6 13 4q6 -1 11 -5
q3 -3 9 -11q2 -4 3 -7t1 -6q-1 -8 -17 -16q-15 -8 -34 -9q-20 -3 -42 3q-9 2 -21 8.5t-23.5 17t-19.5 25.5t-8 36q0 24 10.5 40.5t25.5 28t30 17t24 7.5z" />
    <glyph glyph-name="uni0E47" unicode="&#xe47;" 
d="M-95 560q11 0 15 10q2 4 2 11h35q0 -26 -13 -38t-30 -12h-61q-3 0 -9.5 -1t-12.5 -3.5t-11 -7.5t-5 -14t2.5 -14t6.5 -8q4 -4 9 -5l31 31l30 -30q6 -1 11 1q4 2 7.5 4.5t3.5 8.5q0 8 -10 10t-18 2v13q3 1 7 2q3 1 6.5 2t8.5 1q14 0 28.5 -8t14.5 -22q0 -17 -10.5 -26
t-23.5 -13q-15 -5 -33 -5l-22 23l-23 -23q-18 2 -32 8q-12 5 -22 16.5t-10 31.5q0 16 7.5 26.5t19 17t25.5 9t27 2.5h49z" />
    <glyph glyph-name="uni0E48" unicode="&#xe48;" 
d="M-94 621l-4 98h55l-4 -98h-47v0z" />
    <glyph glyph-name="uni0E49" unicode="&#xe49;" 
d="M6 720q-1 -28 -12 -50q-9 -19 -29.5 -34.5t-59.5 -15.5h-92v7q18 0 24 6q7 4 7 26v22q0 22 -7 26q-5 5 -24 5v8h83v-80q15 0 27 8q11 7 19.5 23.5t8.5 48.5h55z" />
    <glyph glyph-name="uni0E4A" unicode="&#xe4a;" 
d="M-152 720l17 -16l16 16q13 -3 24 -9q9 -5 17 -15t8 -26v-25q6 1 11 7q4 5 7.5 15t3.5 28v25h52v-5q-3 0 -5 -2q-5 -3 -5 -9q0 -39 -23.5 -61.5t-74.5 -22.5v49q0 8 -2.5 12.5t-4.5 7.5q-3 4 -6 5l-18 -19l-17 17q-5 -2 -9 -5q-3 -3 -5.5 -7t-2.5 -11q0 -17 14 -24t26 4
l7 -7q-3 -7 -8 -11q-5 -5 -12 -8t-18 -3q-18 0 -30 14.5t-12 34.5q0 18 7.5 28t17.5 15q11 6 25 8z" />
    <glyph glyph-name="uni0E4B" unicode="&#xe4b;" 
d="M-1 707v-46l-47 5l4 -46h-45l4 46l-47 -5v46l47 -4l-4 48h45l-4 -48l47 4v0z" />
    <glyph glyph-name="uni0E4C" unicode="&#xe4c;" 
d="M71 702l-1 -11l-64 -33h-106h-48q-18 -1 -22 -11t4 -15q13 -6 21.5 -16t10 -19.5t-6 -17t-26.5 -8.5q-10 5 -17 14q-7 8 -12 19t-5 28q0 30 24.5 50.5t76.5 20.5z" />
    <glyph glyph-name="uni0E4D" unicode="&#xe4d;" 
d="M-59 482q0 -23 -23 -38.5t-55 -15.5t-54.5 15.5t-22.5 38.5t22.5 39t54.5 16t55 -16t23 -39zM-137 511q-11 0 -19.5 -8.5t-8.5 -20.5q0 -11 8.5 -19.5t19.5 -8.5q12 0 20 8.5t8 19.5q0 12 -8 20.5t-20 8.5z" />
    <glyph glyph-name="uni0E4E" unicode="&#xe4e;" 
 />
    <glyph glyph-name="uni0E4F" unicode="&#xe4f;" horiz-adv-x="450" 
 />
    <glyph glyph-name="uni0E50" unicode="&#xe50;" horiz-adv-x="441" 
d="M378 61q-26 -33 -68 -52q-42 -17 -88 -17q-49 0 -89 17q-41 17 -68 51t-27 86t27 87q26 33 68 52q43 17 88 17q48 0 89 -18q40 -16 68 -52q27 -35 27 -86q0 -52 -27 -85zM323 217q-17 27 -46 43q-25 15 -59 17q-29 1 -58 -13q-25 -13 -43 -43q-17 -28 -17 -75
q1 -40 20 -71q20 -29 47 -43q26 -14 58 -16q31 -1 58 13q29 16 44 44q18 28 16 73q-1 40 -20 71z" />
    <glyph glyph-name="uni0E51" unicode="&#xe51;" horiz-adv-x="441" 
d="M267 -8v14q10 4 23 15.5t25 29.5t20 42t8 53q0 21 -5.5 38.5t-14.5 32.5q-17 27 -46 43q-25 15 -59 17q-29 1 -58 -13q-26 -14 -43 -43q-17 -32 -16 -75q0 -41 19 -71q14 -20 29 -27.5t28 -7t23 5.5t15 11q3 4 4 8.5t1 8.5q0 9 -6 14q-8 6 -15 9q-3 2 -6.5 4.5t-5.5 4.5
q-6 4 -3 13q3 6 8 10t13 7q8 2 13 2q4 1 11 1q12 -1 20 -14q6 -14 6 -24q0 -21 -7 -35q-11 -22 -28 -37q-14 -13 -35.5 -21t-50.5 1q-12 3 -28.5 13t-31.5 26.5t-25 40.5t-10 57q0 52 27 87q27 34 68 52q42 17 87 17q48 0 89 -18q40 -16 68 -52q27 -35 27 -86q0 -39 -15 -68
t-36.5 -48t-45.5 -28.5t-41 -9.5z" />
    <glyph glyph-name="uni0E52" unicode="&#xe52;" horiz-adv-x="573" 
d="M242 198q0 22 10.5 39t25.5 28.5t30 17.5t24 8l49 -49l49 49q32 -4 53 -18t33 -33t16.5 -40.5t4.5 -40.5q0 -20 -5 -48.5t-24 -54.5t-56 -45t-101 -19t-104 15.5t-62.5 40.5t-30.5 57t-8 64q0 14 -0.5 30.5t-0.5 31.5v36v29q0 10 -1 19.5t-3 18.5t-5.5 17t-7.5 15
q-9 13 -26 13q-7 0 -14 -5q-6 -6 -9 -10q-2 -2 -3.5 -5t-3.5 -6q-4 -7 -8 -9q-7 -6 -14 -4q-3 1 -5.5 2t-5.5 3q-5 5 -8 11q-2 4 -3 7l-2 6q3 8 17 16q15 8 34 9q19 3 42 -3q22 -5 41 -23q18 -15 31 -49q7 -16 9.5 -36t2.5 -45v-59q0 -27 5 -54.5t20.5 -50.5t44.5 -37.5
t78 -14.5t75 18.5t38 41.5q14 26 16 60q0 43 -9 69.5t-37 40.5l-53 -53l-53 53q-12 -6 -21 -16q-8 -8 -14 -20t-6 -28q0 -17 6 -28t14.5 -17t16.5 -8.5t12 -2.5q10 0 14 7q7 8 9 14q2 4 4.5 7t4.5 6q4 4 12 3q6 -2 11 -9q4 -5 6 -12q3 -8 3 -13q2 -12 -2.5 -20t-11.5 -11
q-10 -5 -23 -7q-11 -1 -31.5 1.5t-40.5 12.5t-34.5 30.5t-14.5 56.5z" />
    <glyph glyph-name="uni0E53" unicode="&#xe53;" horiz-adv-x="454" 
d="M146 254q-17 -13 -29 -33q-16 -29 -16 -75q0 -29 5.5 -53.5t14.5 -41.5t19.5 -26.5t20.5 -9.5q5 0 9 2.5t7 5.5q6 6 5 15q0 5 -1 8.5t-2 8.5q-3 7 -3 14q0 8 7 11t13 2q8 -2 14 -4q6 -3 11 -8q2 -2 4 -3.5t4 -3.5q8 -11 4 -24t-12 -22q-12 -12 -31 -19q-8 -3 -15.5 -4.5
t-18.5 -1.5q-15 0 -35 6.5t-38 24t-31 47t-13 76.5q0 52 27 87q26 33 68 52q5 2 10.5 3.5t10.5 3.5l67 -67l68 67q9 -3 20 -8q21 -8 37.5 -21.5t30.5 -30.5t18.5 -38.5t4.5 -47.5v-1v-110q0 -20 6 -24q7 -5 23 -5v-6h-90v146q0 21 -3.5 38.5t-13.5 32.5q-12 20 -29 32
l-72 -71z" />
    <glyph glyph-name="uni0E54" unicode="&#xe54;" horiz-adv-x="431" 
d="M286 91q0 -12 7 -27t20.5 -24t33.5 -8.5t47 20.5v-16q-8 -14 -27.5 -24t-42.5 -11.5t-45.5 6.5t-36.5 31q-12 -17 -33.5 -31t-58.5 -14q-32 0 -51 11q-20 10 -35 29q-7 9 -11.5 20t-8.5 23q-6 24 -6 51v28q2 38 18 68q7 13 17 25t24.5 22t34.5 16t47 6q21 0 37.5 -1.5
t30.5 -3.5t26.5 -4t25.5 -3q28 -2 43.5 3.5t22.5 10.5q13 9 13 25q0 7 -5 14l-9 9q-3 2 -5.5 3.5t-5.5 3.5q-4 3 -10 9q-4 7 -3 13t5 11q3 3 11 9q5 2 13 4q8 -3 16 -17q7 -15 9 -34q2 -21 -4 -42q-3 -11 -10.5 -23.5t-22.5 -20.5q-18 -10 -36.5 -12.5t-37.5 -1.5t-40 3.5
t-44 2.5q-29 0 -49 -8.5t-32 -22t-17 -30.5t-5 -34v-26q0 -20 4 -36q5 -18 13 -29q9 -14 24 -21q16 -8 35 -8q8 0 17.5 3t18 9t14 15t5.5 20h1q0 5 -0.5 9t-0.5 9v68h88v-7q-16 0 -23 -5q-6 -5 -6 -23v-42v0z" />
    <glyph glyph-name="uni0E55" unicode="&#xe55;" horiz-adv-x="431" 
d="M288 91q0 -12 7 -27t20.5 -24t33.5 -8.5t47 20.5v-16q-8 -14 -28 -24t-43 -11.5t-45.5 7t-35.5 31.5q-12 -18 -34 -32t-59 -14q-14 0 -27 2.5t-24 8.5q-22 11 -34 29q-14 18 -20 43q-7 22 -7 51v28q2 38 18 68q7 13 17 25t25 22t35 16t47 6q26 0 49 -3q7 0 14.5 5.5
t7.5 17.5q0 9 -6 16t-16 7q-13 0 -19 -8.5t-4 -19.5l-9 -6q-6 6 -8 15.5t0.5 18.5t9 17t17.5 12q15 5 28.5 2.5t23.5 -10.5t16 -20.5t6 -27.5q0 -16 -9 -26q5 -1 9.5 -1t9.5 -1q28 -2 43 3.5t22 10.5q13 9 13 25q0 9 -4 14q-6 6 -10 9q-2 2 -5 3.5t-6 3.5l-4.5 4.5l-4.5 4.5
q-5 9 -4 13q2 7 6 11q3 4 11 9q3 2 6.5 2.5t5.5 1.5q10 -3 16 -17q7 -15 9 -34q2 -21 -4 -42q-2 -11 -10 -23.5t-22 -20.5q-18 -10 -36.5 -12.5t-38 -1.5t-40 3.5t-44.5 2.5q-29 0 -48.5 -8.5t-31.5 -22t-17.5 -30.5t-5.5 -34v-26q0 -9 1 -18t3 -18q4 -16 14 -29
q9 -14 24 -21q14 -8 34 -8q9 0 18.5 3t18 9t14 15t5.5 20h1q0 5 -0.5 9t-0.5 9v68h88v-7q-16 0 -23 -5q-6 -5 -6 -23v-42v0z" />
    <glyph glyph-name="uni0E56" unicode="&#xe56;" horiz-adv-x="413" 
d="M182 274q48 7 83.5 -2t59 -28t36 -45t14.5 -53q3 -31 -8.5 -59t-33.5 -49t-53 -33.5t-67 -12.5q-8 0 -23.5 1.5t-34.5 7.5t-38.5 17t-34.5 31q-10 13 -13 28t1.5 30t16 28.5t31.5 22.5q17 8 33.5 9.5t30.5 -0.5q16 -2 30 -6l-1 -18q-12 2 -23 0q-10 -2 -21.5 -6
t-22.5 -13q-13 -12 -16 -30t5 -34.5t27.5 -28.5t52.5 -12q17 0 35 7t32.5 22t23 38t6.5 56q-1 10 -4.5 22.5t-11.5 25t-21.5 24.5t-34.5 21q-32 14 -66.5 8.5t-62.5 -18.5v17q16 16 21.5 36t6 38.5t-3 32.5t-5.5 17q-9 13 -26 13q-8 0 -13 -5q-5 -2 -9 -9q-2 -3 -4 -5.5
t-4 -5.5q-2 -4 -8 -10q-8 -5 -14 -3q-4 1 -10 5q-3 2 -5 5l-4 6q-2 4 -3 7t-1 6q3 9 17 16q15 8 34 9q21 2 42 -4q11 -3 21.5 -8.5t19.5 -14.5q14 -15 21.5 -38.5t-0.5 -55.5z" />
    <glyph glyph-name="uni0E57" unicode="&#xe57;" horiz-adv-x="641" 
d="M283 0v13q15 11 26 29q10 16 18 41t8 63q0 13 -5.5 34.5t-14.5 36.5q-14 21 -30 32l-68 -67l-72 72q-16 -11 -28 -33q-16 -29 -16 -75q0 -29 5.5 -53.5t14 -41.5t19 -26.5t20.5 -9.5q6 0 10 2.5t7 5.5q6 6 5 15q-2 10 -4 17q-2 10 -2 14q-2 8 6 11t14 2q3 -1 6.5 -1.5
t6.5 -2.5q6 -3 11 -8q4 -3 8 -7q8 -10 5 -24q-5 -14 -13 -22q-13 -13 -30 -19q-8 -3 -15.5 -4.5t-18.5 -1.5q-15 0 -35 6.5t-38.5 24t-31 47t-12.5 76.5q0 52 27 87q27 34 68 52q5 2 10 3.5t10 3.5l64 -63l63 63q5 -2 10.5 -4t10.5 -4q40 -16 68 -52q14 -17 20.5 -38.5
t6.5 -52.5q0 -29 -8.5 -50.5t-18.5 -35.5q-12 -17 -27 -28q28 0 46.5 14t30 35.5t16 48.5t4.5 54v59q0 49 12 81t31 49q20 19 42 23q22 6 41 3q21 -2 34 -9q16 -8 17 -16q0 -3 -1 -6t-3 -7l-4 -6t-5 -5q-5 -4 -11 -5q-6 -2 -13 4q-4 2 -8 9l-4 6t-4 5q-3 5 -9 10q-5 5 -13 5
q-17 0 -26 -13q-8 -12 -13 -32q-2 -9 -3 -18.5t-1 -19.5q-1 -9 -1 -16.5v-12.5v-98q0 -32 -7 -62.5t-23.5 -54t-44 -38t-69.5 -14.5h-71z" />
    <glyph glyph-name="uni0E58" unicode="&#xe58;" horiz-adv-x="430" 
d="M205 -8q-5 0 -19.5 1t-33 5.5t-39 13.5t-37.5 24t-28 37t-11 54v28q2 38 18 68q7 13 17 25t25 22t35 16t47 6q41 0 67.5 -5.5t52.5 -6.5q28 -2 43 3.5t22 10.5q13 9 13 25q0 9 -4 14q-6 6 -10 9q-2 2 -5 3.5t-6 3.5l-4.5 4.5l-4.5 4.5q-5 9 -4 13q2 7 6 11q3 4 11 9
q4 2 12 4q10 -3 16 -17q7 -15 9 -34q2 -21 -4 -42q-2 -11 -10 -23.5t-22 -20.5q-18 -10 -36.5 -12.5t-38 -1.5t-40 3.5t-44.5 2.5q-29 0 -49 -8.5t-32 -22t-17 -30.5t-5 -34v-26q0 -29 14.5 -48t33 -30t35.5 -15.5t22 -4.5l54 53l53 -53q11 6 20 16q8 8 14.5 20t6.5 28
q0 17 -6 28t-14.5 17t-16.5 8.5t-12 2.5q-10 0 -14 -7q-6 -8 -10 -14q-2 -5 -8 -13q-4 -4 -13 -3q-7 4 -10 9q-4 4 -7 12q-1 5 -3 13q-1 12 3.5 20t10.5 11q12 5 24 7q11 1 31 -1.5t40 -12.5t35 -30.5t15 -56.5q0 -22 -11 -39t-25.5 -28.5t-29.5 -18t-24 -7.5l-49 49z" />
    <glyph glyph-name="uni0E59" unicode="&#xe59;" horiz-adv-x="418" 
d="M355 22q2 -4 6 -7q7 -7 21 -7v-8h-60l-181 247l-12 -10t-12 -16q-16 -29 -16 -75q0 -29 5.5 -53.5t14.5 -41.5t19.5 -26.5t20.5 -9.5q5 0 9 2.5t7 5.5q6 6 5 15q-1 5 -1.5 8.5t-1.5 8.5q-3 7 -3 14q-2 8 7 11q7 3 13 2q3 -1 6.5 -1.5t6.5 -2.5q4 -2 6.5 -4t5.5 -4l7 -7
q9 -11 5 -24q-5 -14 -13 -22q-13 -13 -30 -19q-8 -3 -15.5 -4.5t-18.5 -1.5q-15 0 -35 6.5t-38 24t-31 47t-13 76.5q0 52 27 87q27 34 68 52q5 2 10 3.5t10 3.5l45 -60q1 26 20.5 43t42.5 17q12 0 22.5 -4t18.5 -9q9 -5 17 -12q8 3 16 10q6 6 12.5 15.5t9.5 25.5t-9 28
q-6 6 -13 6q-7 2 -13 0q-8 -2 -13 -3q-3 0 -6.5 -0.5t-6.5 0.5q-8 2 -12 7q-3 4 -3 11q-1 4 1 14q3 7 6 12q9 4 24 -1q15 -6 30 -18q14 -12 27 -32q12 -20 12 -45q0 -22 -10 -37.5t-21 -25.5q-14 -11 -31 -19q-10 14 -28 23.5t-35 1.5q-9 -5 -13.5 -13.5t-6 -18t0 -19.5
t5.5 -16l3 -5l109 -146v0z" />
    <glyph glyph-name="uni0E5A" unicode="&#xe5a;" horiz-adv-x="549" 
 />
    <glyph glyph-name="uni0E5B" unicode="&#xe5b;" horiz-adv-x="697" 
 />
    <glyph glyph-name="endash" unicode="&#x2013;" horiz-adv-x="360" 
d="M21 165v33h317v-33h-317z" />
    <glyph glyph-name="emdash" unicode="&#x2014;" horiz-adv-x="720" 
d="M22 165v33h673v-33h-673z" />
    <glyph glyph-name="quoteleft" unicode="&#x2018;" horiz-adv-x="247" 
d="M108 408q1 0 2 0.5t3 0.5q14 0 25 -11t11 -25q0 -17 -11.5 -28t-25.5 -11q-17 0 -28 11t-11 28q0 36 12 62t26.5 43.5t27 26.5t14.5 10l15 -17q-22 -14 -40 -38t-20 -52z" />
    <glyph glyph-name="quoteright" unicode="&#x2019;" horiz-adv-x="160" 
d="M66 311l-6 11q14 8 25.5 24.5t11.5 32.5q0 2 -2 5t-4 4q-2 0 -3 0.5t-2 0.5l-13 -1q-12 0 -23 8q-10 7 -10 23q0 12 8 23q9 12 28 12t34 -15t15 -41q0 -16 -7 -30.5t-16.5 -26.5t-19.5 -19.5t-16 -10.5z" />
    <glyph glyph-name="quotesinglbase" unicode="&#x201a;" horiz-adv-x="126" 
d="M108 29q0 -36 -12 -62t-26.5 -43.5t-27.5 -26t-14 -9.5l-15 17q22 14 40 38t20 52q-8 -3 -14 -3q-17 0 -28.5 11.5t-11.5 26.5q0 18 12.5 30.5t30.5 12.5t32 -12.5t14 -31.5z" />
    <glyph glyph-name="quotedblleft" unicode="&#x201c;" horiz-adv-x="299" 
d="M254 368q10 -7 10 -23q0 -12 -8 -23t-29 -11q-19 0 -33 14q-15 15 -15 41q0 16 7 31t16.5 26.5t19.5 19.5t16 11l6 -12q-14 -8 -25.5 -24.5t-11.5 -32.5q0 -2 2 -4.5t4 -3.5t5 -1l13 1q12 0 23 -9zM114 368q10 -8 10 -23q0 -13 -9 -23q-7 -11 -28 -11q-19 0 -33 14
q-15 15 -15 41q0 16 7 31t16.5 26.5t19.5 19.5t16 11l6 -12q-14 -8 -25.5 -24.5t-11.5 -32.5q0 -2 2 -4.5t3 -3.5q2 -1 6 -1l13 1q12 0 23 -9z" />
    <glyph glyph-name="quotedblright" unicode="&#x201d;" horiz-adv-x="300" 
d="M76 454q18 0 33 -15t15 -41q0 -16 -7 -30.5t-16.5 -26.5t-19.5 -19.5t-16 -10.5l-5 11q14 8 25 24.5t11 32.5q0 2 -2 5t-3 4q-2 0 -3 0.5t-3 0.5l-13 -1q-11 0 -22 8t-11 23q0 12 9 23q9 12 28 12zM250 439q14 -16 14 -41q0 -16 -7 -30.5t-16.5 -26.5t-19.5 -19.5
t-16 -10.5l-5 11q14 8 25.5 24.5t11.5 32.5q0 2 -2 5t-4 4q-2 0 -3 0.5t-3 0.5l-12 -1q-12 0 -23 8q-10 7 -10 23q0 14 8 23q9 12 28 12t34 -15z" />
    <glyph glyph-name="quotedblbase" unicode="&#x201e;" horiz-adv-x="268" 
d="M243 29q0 -36 -12 -62t-26.5 -43.5t-27.5 -26t-14 -9.5l-15 17q22 14 40 38t20 52q-8 -3 -14 -3q-17 0 -28.5 11.5t-11.5 26.5q0 18 12.5 30.5t30.5 12.5t32 -12.5t14 -31.5zM108 29q0 -36 -12 -62t-26.5 -43.5t-27.5 -26t-14 -9.5l-15 17q22 14 40 38t20 52
q-8 -3 -14 -3q-17 0 -28.5 11.5t-11.5 26.5q0 18 12.5 30.5t30.5 12.5t32 -12.5t14 -31.5z" />
    <glyph glyph-name="dagger" unicode="&#x2020;" horiz-adv-x="382" 
 />
    <glyph glyph-name="daggerdbl" unicode="&#x2021;" horiz-adv-x="382" 
 />
    <glyph glyph-name="bullet" unicode="&#x2022;" horiz-adv-x="349" 
d="M175 117q-25 0 -47 9.5t-38 25.5t-25 37.5t-9 46.5t9 46.5t25 37.5t38 25t47 9t46.5 -9t37.5 -25t25 -37.5t9 -46.5t-9 -46.5t-25 -37.5t-37.5 -25.5t-46.5 -9.5z" />
    <glyph glyph-name="ellipsis" unicode="&#x2026;" horiz-adv-x="720" 
d="M84 26q0 17 11 27.5t25 10.5q17 0 28 -10.5t11 -27.5q0 -15 -11 -25.5t-28 -10.5q-14 0 -25 10.5t-11 25.5zM320 26q0 17 11 27.5t25 10.5q17 0 28 -10.5t11 -27.5q0 -15 -11 -25.5t-28 -10.5q-14 0 -25 10.5t-11 25.5zM557 26q0 17 11 27.5t25 10.5q17 0 28 -10.5
t11 -27.5q0 -15 -11 -25.5t-28 -10.5q-14 0 -25 10.5t-11 25.5z" />
    <glyph glyph-name="perthousand" unicode="&#x2030;" horiz-adv-x="832" 
 />
    <glyph glyph-name="minute" unicode="&#x2032;" horiz-adv-x="130" 
 />
    <glyph glyph-name="second" unicode="&#x2033;" horiz-adv-x="217" 
 />
    <glyph glyph-name="guilsinglleft" unicode="&#x2039;" horiz-adv-x="187" 
 />
    <glyph glyph-name="guilsinglright" unicode="&#x203a;" horiz-adv-x="187" 
 />
    <glyph glyph-name="fraction" unicode="&#x2044;" horiz-adv-x="106" 
 />
    <glyph glyph-name="Euro" unicode="&#x20ac;" horiz-adv-x="483" 
 />
    <glyph glyph-name="uni2113" unicode="&#x2113;" horiz-adv-x="213" 
 />
    <glyph glyph-name="trademark" unicode="&#x2122;" horiz-adv-x="570" 
 />
    <glyph glyph-name="Ohm" unicode="&#x2126;" horiz-adv-x="463" 
 />
    <glyph glyph-name="estimated" unicode="&#x212e;" horiz-adv-x="319" 
 />
    <glyph glyph-name="partialdiff" unicode="&#x2202;" horiz-adv-x="323" 
 />
    <glyph glyph-name="Delta" unicode="&#x2206;" horiz-adv-x="397" 
 />
    <glyph glyph-name="product" unicode="&#x220f;" horiz-adv-x="480" 
 />
    <glyph glyph-name="summation" unicode="&#x2211;" horiz-adv-x="518" 
 />
    <glyph glyph-name="minus" unicode="&#x2212;" horiz-adv-x="337" 
 />
    <glyph glyph-name="radical" unicode="&#x221a;" horiz-adv-x="352" 
 />
    <glyph glyph-name="infinity" unicode="&#x221e;" horiz-adv-x="630" 
 />
    <glyph glyph-name="integral" unicode="&#x222b;" horiz-adv-x="247" 
 />
    <glyph glyph-name="approxequal" unicode="&#x2248;" horiz-adv-x="389" 
 />
    <glyph glyph-name="notequal" unicode="&#x2260;" horiz-adv-x="350" 
 />
    <glyph glyph-name="lessequal" unicode="&#x2264;" horiz-adv-x="351" 
 />
    <glyph glyph-name="greaterequal" unicode="&#x2265;" horiz-adv-x="351" 
 />
    <glyph glyph-name="lozenge" unicode="&#x25ca;" horiz-adv-x="394" 
 />
    <glyph glyph-name="dottedcircle" unicode="&#x25cc;" horiz-adv-x="408" 
 />
    <glyph glyph-name="uni0E10.alt1" unicode="&#xf700;" horiz-adv-x="317" 
d="M363 514q16 -8 17 -16q0 -7 -4 -12q-3 -8 -8 -11q-4 -4 -11 -6t-13 4q-6 3 -9 9q-2 3 -3.5 6t-3.5 5q-4 6 -10 10q-4 4 -13 4q-17 0 -26 -13q-4 -7 -7 -15t-5 -17q-4 -17 -4 -38v-29l-1 -137v-223q0 -18 6 -24q5 -4 23 -4v-7h-89l1 98q0 19 -11 36q-2 3 -5 7t-7 8
q-6 8 -16 17q-5 5 -9 8t-9 6q-9 6 -17 6q-9 0 -14 -7q-7 -9 -9 -14q-2 -4 -4.5 -7t-4.5 -6q-5 -5 -12 -3q-5 2 -11 8q-5 6 -6 13q-3 7 -3 13q0 4 -0.5 6.5t-0.5 4.5q3 15 15 20q12 6 23 6q21 0 35 -7q8 -4 15 -9t14 -11q10 -10 22 -27q9 -14 15 -27l1 118v11v17q0 19 -9 36
q-8 13 -23 25q-14 10 -32 14q-9 3 -18 4t-18 1q-11 0 -21 -3q-12 -5 -23 -10q-6 -3 -11.5 -6t-10.5 -6q-5 -4 -9.5 -7t-8.5 -6l-8 5l8.5 8.5t7.5 8.5q5 4 8.5 7t8.5 7q20 16 43 24q22 8 47 8q40 0 70 -14q1 37 11 66q12 31 31 49q9 9 19.5 14.5t21.5 8.5q20 6 41 4
q19 -1 34 -9z" />
    <glyph glyph-name="uni0E34.alt1" unicode="&#xf701;" 
d="M-137 448h-298v11l64 33h234v-44z" />
    <glyph glyph-name="uni0E35.alt1" unicode="&#xf702;" 
d="M-185 494v42l38 46h8v-132h-298v11l64 33h188v0z" />
    <glyph glyph-name="uni0E36.alt1" unicode="&#xf703;" 
d="M-200 450h-236v11l63 33h166q7 0 15 5.5t8 16.5q0 9 -6.5 16.5t-16.5 7.5q-12 0 -18.5 -9t-4.5 -20l-9 -5q-12 13 -7 33.5t27 28.5q15 5 29 3t25.5 -10t18 -21t6.5 -28q0 -27 -19.5 -44.5t-40.5 -17.5z" />
    <glyph glyph-name="uni0E37.alt1" unicode="&#xf704;" 
d="M-148 582h7v-132v0h-298v11l64 33v0h118v42l38 46h8v-88h25v42l38 46v0z" />
    <glyph glyph-name="uni0E48.alt1" unicode="&#xf705;" 
d="M-198 451l-4 98h55l-4 -98h-47v0z" />
    <glyph glyph-name="uni0E49.alt1" unicode="&#xf706;" 
d="M-148 550q-1 -28 -12 -50q-9 -19 -29.5 -34.5t-59.5 -15.5h-92v7q18 0 24 6q7 4 7 26v22q0 20 -7 26q-5 5 -24 5v8h83v-80q15 0 27 8q11 7 19.5 23.5t8.5 48.5h55z" />
    <glyph glyph-name="uni0E4A.alt1" unicode="&#xf707;" 
d="M-298 550l17 -16l16 16q13 -3 24 -9q9 -5 17 -15t8 -26v-25q6 1 11 7q4 5 7.5 15t3.5 28v25h52v-5q-3 0 -5 -2q-5 -3 -5 -10q0 -38 -23.5 -60.5t-74.5 -22.5v49q0 8 -2.5 12.5t-4.5 7.5q-3 4 -6 5l-18 -19l-17 17q-5 -1 -9 -5q-3 -3 -5.5 -7.5t-2.5 -10.5q0 -17 14 -24
t26 3l7 -6q-3 -7 -8 -11q-5 -5 -12 -8t-18 -3q-18 0 -30 14.5t-12 34.5q0 18 7.5 28t17.5 15q11 6 25 8z" />
    <glyph glyph-name="uni0E4B.alt1" unicode="&#xf708;" 
d="M-136 535v-46l-47 4l5 -45h-46l4 45l-47 -4v46l47 -4l-4 48h46l-5 -48l47 4v0z" />
    <glyph glyph-name="uni0E4C.alt1" unicode="&#xf709;" 
d="M11 559l-1 -11l-64 -33h-105h-49q-18 -1 -22 -11t4 -14q13 -7 21.5 -17t10 -19.5t-6 -17t-26.5 -8.5q-10 5 -17 14q-7 8 -12 19t-5 28q0 30 25 51t76 21z" />
    <glyph glyph-name="uni0E48.alt2" unicode="&#xf70a;" 
d="M-97 450l-4 98h55l-4 -98h-47v0z" />
    <glyph glyph-name="uni0E49.alt2" unicode="&#xf70b;" 
d="M2 548q-1 -28 -12 -50q-9 -19 -30 -34t-60 -15h-91v7q18 0 24 6q7 4 7 26v22q0 20 -7 26q-5 5 -24 5v7h82v-79q16 0 28 8q11 7 19.5 23t8.5 48h55z" />
    <glyph glyph-name="uni0E4A.alt2" unicode="&#xf70c;" 
d="M-158 549l16 -17l17 17q13 -3 24 -9q9 -5 17 -15t8 -26v-25q6 1 11 7q4 5 7.5 15t3.5 28v25h52v-5q-3 0 -5 -2q-5 -3 -5 -10q0 -38 -23.5 -60.5t-74.5 -22.5v49q0 8 -2.5 12t-4.5 7q-3 3 -6 5l-19 -18l-17 17q-4 -1 -8 -5q-3 -3 -5.5 -7.5t-2.5 -10.5q0 -17 14 -24t26 3
l7 -6q-3 -7 -8 -11q-5 -5 -12 -8t-18 -3q-18 0 -30 14.5t-12 34.5q0 18 7.5 28t17.5 15q11 6 25 8z" />
    <glyph glyph-name="uni0E4B.alt2" unicode="&#xf70d;" 
d="M-8 535v-46l-47 4l4 -45h-45l4 45l-47 -4v46l47 -4l-4 48h45l-4 -48l47 4v0z" />
    <glyph glyph-name="uni0E4C.alt2" unicode="&#xf70e;" 
d="M72 561v-11l-65 -33h-105h-49q-18 -1 -22 -11t4 -15q13 -6 21.5 -16t10 -19.5t-6 -17t-26.5 -8.5q-10 5 -17 14q-7 8 -12 19t-5 28q0 30 25 50.5t76 20.5z" />
    <glyph glyph-name="uni0E0D.alt1" unicode="&#xf70f;" horiz-adv-x="609" 
d="M284 253q0 53 -26.5 77t-74.5 24q-26 0 -42.5 -3t-25.5 -6q-11 -4 -15 -8q5 -5 7 -11.5t4 -12.5q2 -7 2 -15v-209q0 -5 1 -13.5t4 -17.5t9 -16t16 -10q14 -4 32.5 -0.5t32.5 11.5v-17q-10 -11 -24 -20q-12 -8 -29 -13t-39 -1q-23 3 -35.5 15t-18.5 27t-7.5 29.5
t-1.5 23.5v115q0 44 1 98q0 15 -6 20q-6 3 -19 3v6q20 17 46 30q23 11 56 21t77 10q29 0 60 -10t47 -27q17 -19 22 -41.5t5 -50.5v-135q0 -8 3 -25t12 -34t26 -29.5t45 -12.5q27 0 44 13t26.5 30.5t12.5 34t3 23.5v257h60l-2 -253q0 -23 -9 -47.5t-27 -45t-45 -34t-64 -13.5
q-43 0 -70.5 13.5t-43.5 34t-22.5 45t-6.5 47.5v123z" />
    <glyph glyph-name="uni0E31.alt1" unicode="&#xf710;" 
d="M-261 520q0 17 5 28t12 19q7 9 17 14q19 -2 26.5 -9t6 -16.5t-10 -19t-21.5 -16.5q-8 -5 -4 -14.5t22 -11.5q23 -2 60 -2h72q41 0 86 1v-11l-64 -33h-106q-51 0 -76 21t-25 50z" />
    <glyph glyph-name="uni0E4D.alt1" unicode="&#xf711;" 
d="M-137 483q0 -23 -23 -39t-55 -16t-54.5 16t-22.5 39t22.5 39t54.5 16t55 -16t23 -39zM-215 511q-11 0 -19.5 -8.5t-8.5 -19.5q0 -12 8.5 -20t19.5 -8q12 0 20.5 8t8.5 20q0 11 -8.5 19.5t-20.5 8.5z" />
    <glyph glyph-name="uni0E47.alt1" unicode="&#xf712;" 
d="M-187 558q11 0 15 10q2 4 2 11h35q0 -26 -13 -37.5t-30 -11.5h-61q-3 0 -9.5 -1t-12.5 -3.5t-11 -8t-5 -14.5t2.5 -14t6.5 -8q4 -4 9 -5l31 31l30 -30q6 -1 11 1q4 2 7.5 4.5t3.5 8.5q0 8 -10 10t-18 2v13q3 1 7 2q3 1 6.5 2t8.5 1q14 0 28.5 -7.5t14.5 -22.5
q0 -17 -10.5 -26t-23.5 -13q-15 -5 -33 -5l-22 23l-23 -23q-18 2 -32 8q-12 5 -22 16.5t-10 32.5q0 16 7.5 26.5t19 16.5t25.5 8.5t27 2.5h49z" />
    <glyph glyph-name="uni0E48.alt3" unicode="&#xf713;" 
d="M-182 623l-4 98h55l-5 -98h-46v0z" />
    <glyph glyph-name="uni0E49.alt3" unicode="&#xf714;" 
d="M-27 721q-1 -28 -12 -50q-10 -19 -30.5 -34t-59.5 -15h-92v7q17 0 25 5q6 6 6 26v23q0 20 -6 26q-8 5 -25 5v7h83v-79q15 0 27 8q11 7 19.5 23t8.5 48h56z" />
    <glyph glyph-name="uni0E4A.alt3" unicode="&#xf715;" 
d="M-219 722l16 -17l17 17q13 -3 24 -9q9 -5 17 -15t8 -26v-25q6 1 11 7q4 5 7.5 15t3.5 28v25h52v-6q-3 -1 -5 -2q-5 -3 -5 -9q0 -39 -23.5 -61t-74.5 -22v49q0 8 -2.5 12t-4.5 7q-3 3 -6 5l-19 -18l-17 17q-4 -1 -8 -5q-3 -3 -5.5 -7.5t-2.5 -10.5q0 -17 14 -24t26 3l7 -7
q-3 -7 -8 -11t-12 -7t-18 -3q-18 0 -30 14.5t-12 34.5q0 18 7.5 28t17.5 15q11 6 25 8z" />
    <glyph glyph-name="uni0E4B.alt3" unicode="&#xf716;" 
d="M-96 707v-46l-47 4l4 -45h-45l4 45l-47 -4v46l47 -4l-4 48h45l-4 -48l47 4v0z" />
    <glyph glyph-name="uni0E4C.alt3" unicode="&#xf717;" 
d="M-21 702l-1 -11l-64 -33h-105h-49q-18 -1 -22 -11t4 -15q13 -6 21.5 -16t10 -19.5t-6 -17t-26.5 -8.5q-10 5 -17 14q-7 8 -12 19t-5 28q0 30 24.5 50.5t76.5 20.5z" />
    <glyph glyph-name="uni0E38.alt1" unicode="&#xf718;" 
d="M-123 -378v110q0 19 -6 24q-7 5 -22 5v6h83v-145h-55z" />
    <glyph glyph-name="uni0E39.alt1" unicode="&#xf719;" 
d="M-194 -267q0 18 -6 23q-5 5 -22 5v7h83v-90q0 -11 7 -18t17 -7t17 7t7 18v90h55v-66q0 -33 -23 -56t-56 -23t-56 23t-23 56v31z" />
    <glyph glyph-name="uni0E3A.alt1" unicode="&#xf71a;" 
d="M-34 -259q0 -29 -29 -29t-29 29t29 29t29 -29z" />
    <glyph glyph-name="uni0E0E.alt1" unicode="&#xf71b;" horiz-adv-x="426" 
 />
    <glyph glyph-name="uni0E0F.alt1" unicode="&#xf71c;" horiz-adv-x="426" 
 />
    <glyph glyph-name="uni0E2C.alt1" unicode="&#xf71d;" horiz-adv-x="449" 
 />
    <glyph glyph-name="fi" unicode="&#xfb01;" horiz-adv-x="374" 
 />
    <glyph glyph-name="uni0E33.alt2" unicode="&#xfb02;" horiz-adv-x="313" 
d="M-103 482q0 -23 -23 -38.5t-55 -15.5t-54.5 15.5t-22.5 38.5t22.5 39t54.5 16t55 -16t23 -39zM-181 511q-11 0 -19.5 -8.5t-8.5 -20.5q0 -11 8.5 -19.5t19.5 -8.5q12 0 20 8.5t8 19.5q0 12 -8 20.5t-20 8.5zM263 265v-231q0 -19 6 -23q7 -5 22 -5v-6h-88l2 257v11v17
q0 20 -9 35q-10 16 -23 25q-16 11 -33 15q-20 5 -36 5q-5 0 -10 -1t-11 -3q-5 -2 -11 -4.5t-11 -4.5q-13 -6 -22 -13q-5 -3 -9.5 -6.5t-9.5 -5.5l-7 4q4 5 8 9l8 8q5 4 8.5 7.5t8.5 6.5q20 16 43 25q22 8 47 8q60 0 93 -31q34 -32 34 -93v-6z" />
    <glyph glyph-name="uni0E33.alt1" horiz-adv-x="315" 
d="M-137 483q0 -23 -23 -39t-55 -16t-54.5 16t-22.5 39t22.5 39t54.5 16t55 -16t23 -39zM-215 511q-11 0 -19.5 -8.5t-8.5 -19.5q0 -12 8.5 -20t19.5 -8q12 0 20.5 8t8.5 20q0 11 -8.5 19.5t-20.5 8.5zM262 265v-230q0 -20 6 -24q7 -5 23 -5v-6h-89l2 257v11v17q0 20 -9 35
q-9 16 -23 26t-32 14q-20 5 -36 5q-12 0 -21 -4q-10 -3 -23 -9q-5 -3 -11 -6t-11 -6q-5 -4 -9.5 -7t-8.5 -6l-8 5l8.5 8.5t8.5 7.5q4 5 8 8t9 7q21 15 42 24q22 8 47 8q62 0 94 -31q33 -31 33 -93v-6z" />
    <glyph glyph-name="uni0E4E.alt1" 
 />
    <glyph glyph-name="fl.002" horiz-adv-x="374" 
 />
    </font>
</defs>
</svg>
