<?xml version="1.0" standalone="no"?>
<!DOCTYPE svg PUBLIC "-//W3C//DTD SVG 1.1//EN" "http://www.w3.org/Graphics/SVG/1.1/DTD/svg11.dtd" >
<svg xmlns="http://www.w3.org/2000/svg" xmlns:xlink="http://www.w3.org/1999/xlink" version="1.1">
<metadata>
Created by FontForge 20150318 at Tue May 19 08:21:56 2015
 By uniteet7
Copyright (c) 2010 by Numchoke sinmongkolraksa. All rights reserved.
</metadata>
<defs>
<font id="LayijiMahaniyom" horiz-adv-x="0" >
  <font-face 
    font-family="LayijiMahaniyom"
    font-weight="400"
    font-stretch="normal"
    units-per-em="2048"
    panose-1="2 0 0 0 0 0 0 0 0 0"
    ascent="1638"
    descent="-410"
    x-height="750"
    cap-height="1002"
    bbox="-949.071 -888 1559.25 1826"
    underline-thickness="90"
    underline-position="-34"
    unicode-range="U+0020-25CC"
  />
<missing-glyph horiz-adv-x="1484" 
d="M167 1319l15 16q10 21 27 21q14 0 33 -25q165 14 373 14q107 0 295 -4q180 -4 290 -4q17 35 34 35q22 0 34 -36q18 -21 12 -44q5 -20 13 -60q25 -167 25 -350q0 -114 -15 -378q-17 -244 -17 -402q0 -11 0.5 -32.5t0.5 -31.5q-1 -19 -10 -29t-21 -10q-21 0 -36 50
q-111 -5 -275 -19q-254 -20 -378 -20q-147 0 -301 25q-16 -44 -36 -44q-22 0 -31 34v22q-25 23 -25 34t26 31q1 17 7 237q7 229 7 388q0 268 -27 519q-43 15 -43 34t23 29zM265 1270l-2 -1173l40 -10q106 -17 232 -17q137 0 337 20q236 20 355 20q5 207 13 371
q11 229 11 373q0 188 -18 362q-12 54 -13 59q-145 0 -293 5q-192 4 -289 4q-194 0 -373 -14z" />
    <glyph glyph-name="quotedblleft" unicode="&#x91;&#x91;" horiz-adv-x="719" 
d="M216 875q-65 -1 -94 28.5t-29 75.5q0 87 49 149.5t137 82.5q28 1 34 -14q4 -10 4.5 -15t-9 -14t-33.5 -15q-77 -22 -99 -80q35 15 60 12.5t41.5 -12.5t26 -29t13 -36t3.5 -33q0 -38 -30 -68.5t-74 -31.5zM226 920q24 5 36 21t12 34q0 29 -18.5 46t-48.5 17q-20 0 -33 -8
t-26 -31q-14 -38 13.5 -61.5t64.5 -17.5zM512 875q-65 -1 -94 28.5t-29 75.5q0 87 49 149.5t137 82.5q28 1 34 -14q4 -10 4.5 -15t-9 -14t-33.5 -15q-77 -22 -99 -80q35 15 60 12.5t41.5 -12.5t26 -29t13 -36t3.5 -33q0 -38 -30 -68.5t-74 -31.5zM522 920q24 5 36 21t12 34
q0 29 -18.5 46t-48.5 17q-20 0 -33 -8t-26 -31q-14 -38 13.5 -61.5t64.5 -17.5z" />
    <glyph glyph-name="quotedblright" unicode="&#x92;&#x92;" horiz-adv-x="690" 
d="M498 1211q65 1 94 -28.5t29 -75.5q0 -87 -49 -149.5t-137 -82.5q-28 -1 -34 14q-4 10 -4.5 15t9 14t33.5 15q77 22 99 80q-35 -15 -60 -12.5t-41.5 12.5t-26 29t-13 36t-3.5 33q0 38 30 68.5t74 31.5zM488 1166q-24 -5 -36 -21t-12 -34q0 -29 18.5 -46t48.5 -17
q20 0 33 8t26 31q14 38 -13.5 61.5t-64.5 17.5zM202 1211q65 1 94 -28.5t29 -75.5q0 -87 -49 -149.5t-137 -82.5q-28 -1 -34 14q-4 10 -4.5 15t9 14t33.5 15q77 22 99 80q-35 -15 -60 -12.5t-41.5 12.5t-26 29t-13 36t-3.5 33q0 38 30 68.5t74 31.5zM192 1166
q-24 -5 -36 -21t-12 -34q0 -29 18.5 -46t48.5 -17q20 0 33 8t26 31q14 38 -13.5 61.5t-64.5 17.5z" />
    <glyph glyph-name="copyright2" unicode="&#x3b;&#x3b;For&#x20;Education&#x20;Used&#x20;Only&#x3b;&#x3b;" horiz-adv-x="1264" 
d="M106 514q0 147 72.5 272t198 198t272.5 73t272.5 -73t198.5 -198t73 -272q0 -110 -43.5 -211t-116.5 -173.5t-173.5 -115.5t-210.5 -43q-111 0 -211.5 43t-173 115.5t-115.5 173t-43 211.5zM199 514q0 -188 131.5 -319t318.5 -131t319 131.5t132 318.5q0 122 -60.5 226
t-164 164t-226.5 60q-187 0 -318.5 -131.5t-131.5 -318.5zM822 665q20 -26 20 -46q0 -12 -18 -20t-27 -3q-10 5 -23 20t-23.5 28t-30 24t-42.5 11q-72 0 -129.5 -70.5t-55.5 -150.5q4 -120 143 -131q84 -7 138 80q11 16 39 16q10 0 18.5 -11t9.5 -27q-31 -60 -84.5 -95
t-114.5 -35q-85 0 -152.5 56t-73.5 146q-4 61 16 117t55.5 94.5t82.5 61.5t95 23q51 0 89.5 -19t67.5 -69z" />
    <glyph glyph-name="registered2" unicode="&#x3b;&#x3b;Registered&#x3b;&#x3b;" horiz-adv-x="1286" 
d="M98 533q0 153 75.5 283t205.5 206t283 76t283 -76t205.5 -206t75.5 -283t-75.5 -282.5t-205.5 -205t-283 -75.5t-283 75.5t-205.5 205t-75.5 282.5zM194 533q0 -194 137 -330.5t331 -136.5t331 136.5t137 330.5t-137 331.5t-331 137.5t-331 -137.5t-137 -331.5zM851 299
q-24 9 -57.5 35.5t-63.5 52.5t-80.5 49.5t-107.5 28.5q2 -24 2.5 -57.5t2 -54.5t7.5 -38q6 -20 -6.5 -35.5t-28.5 -15.5q-8 0 -20 11.5t-18 23.5q-25 212 7 433q27 43 71.5 63.5t91.5 18t93.5 -22.5t80.5 -52.5t49.5 -77t2.5 -91.5q-12 -61 -142 -118q7 -5 47.5 -30.5
t77.5 -55.5q22 -16 22 -40q0 -12 -9.5 -21.5t-21.5 -5.5zM547 676q-4 -48 -4 -79t-1 -52q56 -29 128 -29q120 0 142 74v-1q19 60 -33.5 107.5t-120.5 47.5q-84 0 -111 -68z" />
    <glyph glyph-name="trademark2" unicode="&#x3b;&#x3b;Trademark&#x3b;&#x3b;" horiz-adv-x="1110" 
d="M529 787q-2 -21 -19.5 -21.5t-20.5 20.5q2 47 28 184q24 122 107 10q30 -42 58 -99q25 78 59 119q73 84 109 -9q27 -67 22 -164q-2 -22 -5 -35q-2 -21 -19.5 -21.5t-20.5 20.5q1 12 0.5 45.5t-2 68.5t-9 62t-18.5 26q-17 -1 -32.5 -22.5t-25.5 -46.5t-24 -62.5t-22 -54.5
q-16 -9 -30 4q-19 45 -28 65.5t-29.5 56t-41.5 58.5q-14 -20 -24 -88.5t-12 -115.5zM157 1009q-18 -10 -29 5t6 28q21 14 89.5 14t157.5 -7t102 -7q18 -5 17 -20.5t-18 -19.5q-50 1 -157 7h-4q2 -38 -2 -107t-4 -96q-2 -21 -19.5 -21.5t-20.5 20.5q0 27 4 97t2 108v2
q-80 8 -123 -2q-1 0 -1 -1z" />
    <glyph glyph-name="multiply2" unicode="&#x3b;&#x3b;Multiply&#x3b;&#x3b;" horiz-adv-x="687" 
d="M156 144q-16 -19 -33 -19q-11 0 -19.5 8.5t-8.5 21.5q0 11 9 27q35 43 111 117.5t110 113.5q-123 113 -239 205q-13 13 -13 30q0 11 8 19t21 8q14 0 29 -11q97 -74 244 -208q31 28 82.5 98t100.5 115q10 9 30.5 11t21.5 -8q0 -30 -9 -41q-27 -34 -84 -97.5t-94 -113.5
q29 -36 109 -103t115 -119q10 -28 -9.5 -36.5t-38.5 5.5q-55 36 -127 105.5t-96 89.5q-124 -97 -220 -218z" />
    <glyph glyph-name="divide2" unicode="&#x3b;&#x3b;Divide&#x3b;&#x3b;" horiz-adv-x="836" 
d="M659 385l-528 -2q-35 6 -35 30q0 19 26 32q30 4 74.5 5.5t110.5 1.5t108 -0.5t126.5 -2.5t105.5 -2q11 0 35.5 0.5t39.5 0.5q29 -11 29 -31q0 -21 -30 -31q-12 0 -32.5 -0.5t-29.5 -0.5zM128 383h5h-2h-3zM400 735q28 0 56.5 -14t28.5 -39q0 -29 -27.5 -53t-58.5 -24
q-23 0 -40.5 22.5t-17.5 46.5q0 22 18 41.5t41 19.5zM411 266q22 0 49 -21t27 -47q0 -28 -24.5 -51t-54.5 -23q-24 0 -45.5 23.5t-21.5 46.5q0 46 18.5 59t51.5 13z" />
    <glyph glyph-name="rulakkhangyao" unicode="&#xc4;&#xd2;" horiz-adv-x="1426" 
d="M147 515q15 0 38 2t36 3t28 -0.5t22 -7.5t11.5 -18.5t2.5 -32.5q-4 -41 -17.5 -110t-15.5 -83q90 29 144.5 -20t54.5 -117q0 -60 -47.5 -100.5t-109.5 -40.5q-98 0 -117 73q-8 33 -9.5 70.5t3.5 81t10.5 78t15 86.5t13.5 82q-15 1 -38 -0.5t-39.5 -3t-33.5 1t-25.5 10.5
t-8.5 26.5t12 47.5q40 96 172 166.5t269 69.5q73 0 126 -43.5t81.5 -112.5t43.5 -168.5t17 -196t-4 -211t-14.5 -199.5t-18.5 -174l-3 -24q-1 -20 -10 -31t-22 -11q-10 0 -19 10.5t-13 25.5q0 20 7.5 97.5t14.5 170t12 206.5t-2.5 217.5t-26.5 191t-63 139t-109 50.5
q-107 -2 -218.5 -59t-149.5 -142zM386 117q7 39 -16.5 66.5t-61.5 27.5q-55 0 -67 -45q-13 -52 7 -82t62 -30q23 0 47 17.5t29 45.5zM893 604q-33 -45 -61 -28q-34 20 -9 64q31 55 103 95t127 39q163 -3 222 -151q54 -133 42 -455q-3 -80 -31 -512q-1 -20 -14 -32t-30 -12
q-22 0 -31 34q1 52 5.5 122t11.5 135t13 141t10.5 143t4 136t-6 125.5t-20 106.5t-38 83.5t-61 52t-86.5 16.5q-78 -3 -151 -103z" />
    <glyph glyph-name="lulakkhangyao" unicode="&#xc6;&#xd2;" horiz-adv-x="1423" 
d="M893 604q-33 -45 -61 -28q-34 20 -9 64q31 55 103 95t127 39q163 -3 222 -151q54 -133 42 -455q-3 -80 -31 -512q-1 -20 -14 -32t-30 -12q-22 0 -31 34q1 52 5.5 122t11.5 135t13 141t10.5 143t4 136t-6 125.5t-20 106.5t-38 83.5t-61 52t-86.5 16.5q-78 -3 -151 -103z
M52 127q-1 31 7 54.5t24 37.5t30 21.5t32 13.5q26 9 65.5 -2t58.5 -50q10 249 1 278q-10 5 -72.5 6t-76.5 20q-23 26 -23 43q0 58 57.5 112.5t132 86t137.5 36.5q128 10 200 -43t91 -173q22 -172 17 -331.5t-16.5 -338.5t-8.5 -219q-1 -22 -9.5 -37t-21.5 -15
q-11 0 -25 17.5t-19 34.5q0 54 11.5 241t15.5 320.5t-9 301.5q-21 188 -223 169q-175 -17 -250 -153q20 -3 52 -5t53 -3.5t26 -4.5q22 -12 27.5 -129t-8 -239t-39.5 -145q-44 -39 -98.5 -42.5t-95 33.5t-43.5 104zM113 127q0 -49 35 -69.5t70.5 -3.5t35.5 59q0 52 -35 74
t-70.5 3.5t-35.5 -63.5z" />
    <glyph glyph-name=".notdef" horiz-adv-x="1484" 
d="M167 1319l15 16q10 21 27 21q14 0 33 -25q165 14 373 14q107 0 295 -4q180 -4 290 -4q17 35 34 35q22 0 34 -36q18 -21 12 -44q5 -20 13 -60q25 -167 25 -350q0 -114 -15 -378q-17 -244 -17 -402q0 -11 0.5 -32.5t0.5 -31.5q-1 -19 -10 -29t-21 -10q-21 0 -36 50
q-111 -5 -275 -19q-254 -20 -378 -20q-147 0 -301 25q-16 -44 -36 -44q-22 0 -31 34v22q-25 23 -25 34t26 31q1 17 7 237q7 229 7 388q0 268 -27 519q-43 15 -43 34t23 29zM265 1270l-2 -1173l40 -10q106 -17 232 -17q137 0 337 20q236 20 355 20q5 207 13 371
q11 229 11 373q0 188 -18 362q-12 54 -13 59q-145 0 -293 5q-192 4 -289 4q-194 0 -373 -14z" />
    <glyph glyph-name=".null" 
 />
    <glyph glyph-name="nonmarkingreturn" horiz-adv-x="579" 
 />
    <glyph glyph-name="space" unicode=" " horiz-adv-x="576" 
 />
    <glyph glyph-name="exclam" unicode="!" horiz-adv-x="485" 
d="M332 1001q-2 -142 -17.5 -517t-16.5 -457q-6 -7 -24.5 -13.5t-25.5 -6.5t-20.5 14.5t-20.5 27.5q-2 79 -15 409.5t-17 526.5q0 13 25 43.5t54 30.5q20 0 43 -20t35 -38zM324 -257q0 -36 -38.5 -55t-76.5 0t-38 75q0 52 44 70q42 18 77 -10q32 -27 32 -80z" />
    <glyph glyph-name="quotedbl" unicode="&#x22;" horiz-adv-x="553" 
d="M135 772v1q-10 28 -8 78.5t7.5 99t7.5 48.5l-1 -1q4 20 13.5 31.5t20.5 11.5q12 0 25 -9.5t11 -28.5q0 -3 -2 -34.5t-4 -65.5t-1 -70.5t5 -51.5q-2 -17 -12.5 -33t-20.5 -16q-31 0 -41 40zM395 772q-7 26 -10 58.5t-3 54t0.5 67.5t0.5 66q0 24 26 24q35 0 40 -19
q16 -129 10 -245q-1 -20 -10.5 -30.5t-21.5 -10.5q-11 0 -20.5 9.5t-11.5 27.5v-2z" />
    <glyph glyph-name="numbersign" unicode="#" horiz-adv-x="1188" 
d="M868 932q5 25 23.5 33t34.5 -4t15 -37q-3 -56 -30 -180q157 2 230 -3q32 -9 32 -37.5t-32 -36.5h-7q-4 0 -5 1q-153 7 -235 5q-14 -62 -49 -178.5t-39 -132.5q249 -3 251 -3q33 -9 31.5 -38t-34.5 -35q-1 0 -126.5 -0.5t-126.5 0.5q-14 -44 -23.5 -99.5t-18.5 -90.5
t-29 -57q-30 -20 -52.5 -6.5t-15.5 56.5q3 15 25.5 86t27.5 116q-36 1 -131 3.5t-130.5 2.5t-132.5 -3q-6 -27 -16.5 -76t-20 -89t-20.5 -74q-9 -23 -28.5 -27.5t-33.5 10t-10 38.5q13 39 28.5 112t22.5 100q-30 -3 -67 -3t-79 1.5t-60 1.5q-33 4 -36.5 32.5t28.5 40.5
q120 18 235 3q34 123 91 298q-141 -3 -283 -3q-24 3 -33 21t1.5 35t35.5 18q1 0 301 3q17 13 32 110.5t33 124.5q14 20 41 9t27 -37q0 -82 -55 -205h155q155 0 226 3q28 126 32 191zM342 368l389 -4q30 91 86 306q-76 -5 -217 -5.5t-167 -1.5q-73 -231 -91 -295z" />
    <glyph glyph-name="dollar" unicode="$" horiz-adv-x="777" 
d="M359 1092q0 25 18 35t36 -1t18 -36v-50q49 -3 94.5 -23t74.5 -49t49 -64t19 -67t-17 -58q-45 -27 -45 27q0 68 -51.5 115.5t-123.5 52.5l-10 -446q78 -17 136.5 -52.5t89 -80t42.5 -94.5t-2 -98.5t-45 -89.5t-86.5 -70t-126.5 -38v-47q0 -25 -20 -35.5t-40 0t-20 35.5v42
q-85 7 -154 52t-94 113.5t17 151.5q21 5 32 2.5t14.5 -4.5t2 -11.5t-4.5 -19t-5.5 -28t-0.5 -36.5q6 -55 41.5 -95.5t78 -56.5t81.5 -14v430q-90 15 -152.5 59t-88 100.5t-22.5 120.5t33.5 119t91 96.5t140.5 52.5v60zM360 544l5 430q-45 -1 -88 -27t-72.5 -66t-40 -90
t1.5 -96.5t62 -88t132 -62.5zM421 470v-408q38 0 72.5 11.5t59.5 31t44 45.5t26 56t6.5 61t-15 61.5t-38 57.5t-64 49t-91.5 35z" />
    <glyph glyph-name="percent" unicode="%" horiz-adv-x="926" 
d="M864 1020q8 9 22.5 12.5t26 0.5t11.5 -11q0 -2 6 -15t6 -26.5t-12 -24.5q-75 -102 -181.5 -230t-193 -226.5t-190.5 -231t-183 -254.5q-31 -32 -66.5 -21t-39.5 58q89 121 152 204.5t107.5 141t107.5 132t101.5 119t143 164t182.5 208.5zM52 878q-2 68 55.5 116.5
t127.5 48.5q81 0 139 -47t58 -132q0 -86 -72 -144.5t-160 -34.5q-74 22 -109.5 65t-38.5 128zM129 875q0 -45 43 -74.5t94 -29.5q81 0 81 83q0 44 -32 81.5t-77 37.5q-40 0 -74.5 -28.5t-34.5 -69.5zM502 204q-2 68 55.5 116.5t127.5 48.5q81 0 139 -47t58 -132
q0 -86 -72 -144.5t-160 -34.5q-74 22 -109.5 65t-38.5 128zM579 201q0 -45 43 -74.5t94 -29.5q81 0 81 83q0 44 -32 81.5t-77 37.5q-40 0 -74.5 -28.5t-34.5 -69.5z" />
    <glyph glyph-name="ampersand" unicode="&#x26;" horiz-adv-x="1156" 
d="M1007 74l-1 1q11 -19 11 -29q0 -13 -8 -21t-19 -8q-33 0 -51 16q-8 10 -34 44t-45 59q-63 -69 -151.5 -106t-177 -35.5t-167 30.5t-131 95.5t-59.5 155.5q-4 50 16.5 100t54.5 88.5t76 71t80 52.5t67 29q-44 29 -68 47.5t-50 44.5t-37 54.5t-11 63.5q0 71 70.5 130
t145.5 59q99 0 155.5 -54t56.5 -151q0 -51 -26 -104.5t-72 -96.5q37 -72 115.5 -200t98.5 -162q9 22 15.5 49.5t13 62t10.5 52.5q16 22 32 22q11 0 22.5 -17.5t12.5 -36.5q-26 -106 -50 -175q33 -48 105 -131zM804 186q-92 164 -245 381q-63 0 -137.5 -43.5t-126.5 -113
t-52 -136.5q0 -71 48.5 -122t122 -69t151 -15.5t144.5 34.5t95 84zM573 665q67 35 83.5 111.5t-32.5 140.5q-23 29 -64.5 33.5t-81.5 -10.5t-72.5 -44t-39.5 -62q-4 -38 32 -86t88 -74.5t87 -8.5z" />
    <glyph glyph-name="quotesingle" unicode="'" horiz-adv-x="301" 
d="M119 748l-7 251q4 15 13.5 24t19.5 9q22 0 31 -32q1 -22 4 -111t3 -138q-1 -19 -10.5 -29t-21.5 -10q-10 0 -19 10t-13 26zM112 1002l-1 -7q0 3 1 4v3z" />
    <glyph glyph-name="parenleft" unicode="(" horiz-adv-x="473" 
d="M413 1260h1q10 5 22 5q13 0 21 -7.5t8 -18.5q0 -12 -10 -28q-97 -47 -169 -168t-107.5 -277t-35.5 -326q0 -118 18.5 -226t56 -201t100.5 -157.5t144 -85.5q19 -16 19 -32q0 -14 -13 -22t-34 -5q-80 7 -145.5 62.5t-106 134t-68.5 177t-40.5 184t-15.5 163.5
q0 97 10.5 192.5t36 197.5t64.5 186t102 152t142 100z" />
    <glyph glyph-name="parenright" unicode=")" horiz-adv-x="518" 
d="M88 -288h-1q-10 -5 -22 -5q-13 0 -21 7.5t-8 18.5q0 12 10 28q97 47 169 168t107.5 277t35.5 326q0 118 -18.5 226t-56 201t-100.5 157.5t-144 85.5q-19 16 -19 32q0 14 13 22t34 5q80 -7 145.5 -62.5t106 -134t68.5 -177t40.5 -184t15.5 -163.5q0 -97 -10.5 -192.5
t-36 -197.5t-64.5 -186t-102 -152t-142 -100z" />
    <glyph glyph-name="asterisk" unicode="*" horiz-adv-x="739" 
d="M173 753q21 21 68.5 54.5t69.5 57.5q-89 32 -152 78q-26 19 -21.5 43.5t35.5 25.5q26 -10 73 -40.5t88 -41.5l4 135q6 32 33 32.5t37 -30.5v-142q33 13 47 21t37 25.5t56 37.5q31 1 37 -27t-20 -46l-119 -70q28 -22 48.5 -45.5t55.5 -47.5q18 -14 17.5 -33t-16 -27
t-37.5 0q-36 25 -56 41.5t-40.5 35.5t-40.5 35q-27 -28 -56.5 -51t-59 -42.5t-39.5 -27.5q-27 -17 -46.5 2.5t-2.5 46.5z" />
    <glyph glyph-name="plus" unicode="+" horiz-adv-x="940" 
d="M464 435q-38 -2 -97 -3t-102 -2.5t-77 -6.5q-16 3 -25 12t-9 19q0 20 27 32q51 8 155 11t124 4q-2 31 -3.5 107.5t-9.5 128.5q0 18 9 32t21 14q10 0 19.5 -9t13.5 -25q8 -54 9 -131t5 -117q12 2 56 2.5t107 -0.5t78 -1q22 0 34.5 -1.5t23 -9t10.5 -21.5
q-6 -22 -24.5 -27.5t-54.5 -4.5h-29.5h-74.5h-123q5 -108 7 -299q-3 -40 -31 -40q-10 0 -19.5 10t-13.5 25q-2 183 -6 301z" />
    <glyph glyph-name="comma" unicode="," horiz-adv-x="404" 
d="M142 -218q0 15 29 28q37 7 70 43t48 92q-46 -24 -93 -22.5t-82 33t-35 79.5q0 54 31.5 96t87.5 42q51 0 85.5 -20.5t48.5 -53.5t16 -75t-12 -85q-20 -71 -60.5 -122t-98.5 -62q-35 6 -35 27zM131 51q0 -36 21 -56.5t57 -20.5q37 0 59.5 22t22.5 57q0 49 -44 67
q-42 18 -79 -3.5t-37 -65.5z" />
    <glyph glyph-name="hyphen" unicode="-" horiz-adv-x="827" 
d="M667 391l-521 -19q-17 4 -27 16.5t-10 26.5q0 30 28 40q133 17 269 19.5t260 -2.5q32 -11 32 -38q0 -12 -9 -24.5t-22 -18.5z" />
    <glyph glyph-name="period" unicode="." horiz-adv-x="316" 
d="M171 125q25 0 45 -19.5t20 -45.5t-19 -45.5t-46 -19.5q-25 0 -45 19.5t-20 45.5t19.5 45.5t45.5 19.5z" />
    <glyph glyph-name="slash" unicode="/" horiz-adv-x="668" 
d="M686 1133q-90 -180 -184 -385t-208.5 -462.5t-173.5 -387.5v1q-12 -28 -34 -28q-16 0 -24.5 15t-1.5 37l-2 -4q40 89 171.5 383t220.5 486.5t181 377.5q17 22 35 22q11 0 19 -8.5t8 -21.5q0 -14 -7 -25z" />
    <glyph glyph-name="zero" unicode="0" horiz-adv-x="905" 
d="M133 189q-25 80 -39.5 182.5t-14.5 220t36.5 228t108.5 176.5q79 72 255 72q144 0 247.5 -94.5t107.5 -241.5q1 -32 5 -100t5.5 -109t0.5 -103.5t-8 -107.5t-22.5 -96t-40.5 -91q-43 -61 -128 -96.5t-175 -35.5q-75 0 -143.5 21.5t-121.5 67t-73 107.5zM471 1000
q-94 0 -161 -44t-99.5 -115.5t-47.5 -158.5t-9.5 -177t19.5 -166t35 -131q21 -56 100.5 -103t156.5 -47q149 0 253 114q93 103 52 540q-13 130 -96.5 209t-202.5 79z" />
    <glyph glyph-name="one" unicode="1" horiz-adv-x="575" 
d="M473 8l-287 -6q-18 2 -27.5 12t-9.5 21q0 12 10.5 21t30.5 10l120 7q-2 164 -8.5 462.5t-8.5 444.5q-16 -20 -57.5 -61t-69.5 -61q-14 -9 -27 -9q-11 0 -19 9t-8 22q0 11 7 24q19 13 86 71.5t105 75.5q13 6 27 -7.5t21 -35.5q1 -150 7.5 -457t7.5 -479h101q31 -10 31 -32
t-32 -32z" />
    <glyph glyph-name="two" unicode="2" horiz-adv-x="794" 
d="M707 18q-17 1 -162 -1.5t-282.5 -5t-139.5 -2.5q-15 2 -24.5 7t-13 9.5t-3 13t2 14t6 17.5t6.5 18q30 61 95 127.5t131.5 124t130 120t104 138.5t40.5 157q0 85 -54 145t-151 55q-43 -2 -76 -10t-56.5 -23.5t-40 -31.5t-30 -43t-21.5 -49.5t-18 -58.5q-8 -34 -24 -48.5
t-30 -14.5q-18 0 -31.5 21.5t-8.5 41.5q14 113 115 204t228 91q107 0 188 -84.5t81 -198.5q0 -63 -19.5 -120.5t-53 -104.5t-75 -90t-89.5 -86t-92.5 -84t-88 -92.5t-72.5 -103.5q122 14 257.5 16t271.5 -4q30 -9 30 -31t-31 -33z" />
    <glyph glyph-name="three" unicode="3" horiz-adv-x="732" 
d="M476 515h-1q-21 7 -68 -0.5t-62 2.5q-20 7 -20 42q1 28 15 27q138 -7 202 95t9.5 204.5t-204.5 98.5q-83 -2 -136.5 -49.5t-70.5 -122.5q-10 -49 -31 -49q-42 10 -33 55q4 105 85 166.5t192 65.5q64 2 121 -22t95 -65t58 -94.5t17 -107.5t-34.5 -106.5t-90.5 -89.5
q168 -70 153 -308v1q-8 -96 -100 -171.5t-212 -75.5q-130 0 -200.5 71t-77.5 206q9 32 33 32q21 0 31 -31q4 -97 64.5 -152t149.5 -55q73 0 130 28.5t84 76t30 103t-30.5 116t-97.5 109.5z" />
    <glyph glyph-name="four" unicode="4" horiz-adv-x="769" 
d="M444 374q-1 32 -1 77t0.5 112.5t0.5 111.5q9 34 38 34q23 0 37 -30q1 -39 1.5 -144.5t2.5 -160.5q81 0 205 2q31 -9 31 -31t-32 -33h-201q2 -38 3 -139t2 -129q-3 -37 -38 -37q-15 0 -27.5 10.5t-16.5 28.5q0 26 1.5 108.5t0.5 154.5q-9 0 -57.5 0.5t-66.5 1t-60.5 3
t-64.5 8t-51.5 13.5t-49 21t-31.5 31q-24 32 -26.5 71.5t15.5 84t45.5 90.5t68.5 99.5t79.5 101t83.5 106t76 103.5q16 9 30 9q38 0 28 -51q-291 -340 -345 -512q-4 -22 1 -40t18.5 -30t29.5 -21t40.5 -13.5t45.5 -7.5t50 -3.5t48.5 -0.5t46.5 0.5t39 0.5z" />
    <glyph glyph-name="five" unicode="5" horiz-adv-x="846" 
d="M738 362q-8 88 -51.5 148t-104.5 85.5t-133 31.5t-134.5 -4t-110.5 -29q-4 -2 -13 -7t-15 -7.5t-10 -2.5q-35 0 -46.5 102.5t3.5 211.5t43 124q12 7 32.5 12t50.5 8.5t56 5.5t68.5 2.5t67.5 1t72.5 -0.5t64 -1.5t62.5 -2t49 -1.5q23 -7 23 -29q0 -13 -10.5 -26t-27.5 -18
q-3 0 -33.5 4.5t-39.5 5t-41.5 2.5t-58.5 1.5t-68.5 -2t-94.5 -6t-115 -11.5q-64 -67 -25 -302q90 42 196.5 43.5t198.5 -33.5t152.5 -120t57.5 -205q-3 -97 -66 -174t-154.5 -116t-189.5 -39q-48 0 -98 12t-97.5 36t-77.5 67t-30 98q0 46 34 46q11 0 14.5 -1t9 -9t10.5 -26
q25 -86 79 -120.5t161 -34.5q80 0 159 32t133.5 98.5t47.5 149.5z" />
    <glyph glyph-name="six" unicode="6" horiz-adv-x="838" 
d="M496 1067q15 0 61 -8l-1 1q24 -6 24 -32q0 -13 -8 -22.5t-15 -7.5q-58 16 -124.5 -12.5t-123 -89t-97.5 -156t-49 -202.5q42 70 108.5 108.5t138 43t143.5 -19.5t127.5 -70.5t87.5 -120t26 -158.5q-7 -101 -58 -176t-126 -111.5t-160 -36.5q-67 0 -130.5 28t-115.5 80
t-86 134.5t-40 182.5q1 159 53 306t149.5 243t215.5 96zM160 403q-3 -131 79.5 -232.5t204.5 -101.5q69 0 135 37t106.5 96.5t39.5 120.5q-1 64 -21.5 117t-54 88.5t-77.5 58t-91.5 28.5t-96.5 -4.5t-91.5 -35.5t-78 -69.5t-54.5 -102.5z" />
    <glyph glyph-name="seven" unicode="7" horiz-adv-x="843" 
d="M177 803l-108 172q-22 33 53 54q121 34 385 30q147 -1 170 -13q4 -2 17 -6.5t23 -8.5t24 -11.5t20 -16t11 -22t-3 -28.5q-199 -538 -355 -890q-7 -17 -22.5 -33.5t-29.5 -16.5q-19 0 -25.5 16.5t1.5 33.5q384 874 370 915q-32 9 -62.5 15t-65.5 9t-58.5 5.5t-64.5 1
t-58 -1.5t-64.5 -4.5t-59.5 -5.5t-68 -7t-65 -7q24 -26 52.5 -75.5t33.5 -65.5t-3 -33t-20.5 -21t-27.5 15z" />
    <glyph glyph-name="eight" unicode="8" horiz-adv-x="825" 
d="M580 583q109 -23 167 -102.5t58 -168.5q0 -140 -111 -233.5t-257 -93.5q-92 0 -176 36t-141.5 109t-57.5 167q0 54 22.5 113t73.5 113t121 75q-87 24 -131 75t-44 112q0 119 85 198t209 79q77 0 146.5 -27.5t119.5 -85t57 -134.5q4 -42 -3.5 -74.5t-29.5 -60.5
t-44.5 -47.5t-63.5 -49.5zM733 328q-11 94 -120 170.5t-205 65.5q-103 -11 -185.5 -86t-82.5 -188q0 -70 42 -124.5t104.5 -81.5t130.5 -27q58 0 115.5 17t106 49t75.5 85.5t19 119.5zM405 628q73 0 126.5 20t78.5 52.5t33.5 71t-7.5 77.5t-44.5 71t-78 51.5t-108.5 19.5
q-44 0 -83.5 -11.5t-75.5 -35t-55 -69t-13 -107.5q18 -55 87 -97.5t140 -42.5z" />
    <glyph glyph-name="nine" unicode="9" horiz-adv-x="804" 
d="M695 909q25 -63 25 -228.5t-9.5 -352.5t-5.5 -247q-1 -25 -7.5 -42.5t-15.5 -17.5q-15 0 -29 13t-19 34q1 69 8.5 243.5t7.5 271.5q-45 -66 -119.5 -104t-171.5 -27q-148 16 -219 77.5t-77 183.5q-4 85 53.5 169t149.5 134q46 24 111.5 27t127.5 -12t115 -47.5t75 -74.5z
M647 679q13 83 -13 201q-72 75 -154 97.5t-176 -13.5q-74 -33 -125 -107.5t-51 -137.5q0 -83 76 -148t175 -58q93 7 165 52.5t103 113.5z" />
    <glyph glyph-name="colon" unicode=":" horiz-adv-x="300" 
d="M97 713q0 25 17.5 43t43.5 18t43.5 -18t17.5 -43t-17.5 -43t-43.5 -18t-43.5 18t-17.5 43zM97 61q0 25 17.5 43t43.5 18t43.5 -18t17.5 -43t-17.5 -43t-43.5 -18t-43.5 18t-17.5 43z" />
    <glyph glyph-name="semicolon" unicode=";" horiz-adv-x="300" 
d="M113 81q-19 19 -14.5 36t24.5 20.5t46 -5.5q62 -65 54 -168t-81 -148q-33 -18 -52.5 9t8.5 58q50 34 55 95t-40 103zM97 713q0 25 17.5 43t43.5 18t43.5 -18t17.5 -43t-17.5 -43t-43.5 -18t-43.5 18t-17.5 43z" />
    <glyph glyph-name="less" unicode="&#x3c;" horiz-adv-x="758" 
d="M119 472q41 71 99 135t129.5 117.5t126.5 88.5t130 77q23 12 39 -0.5t13.5 -34t-25.5 -30.5q-87 -34 -246 -164.5t-184 -198.5q6 -21 40.5 -69.5t88 -109t134 -116.5t161.5 -79q38 -10 38 -47q0 -16 -11.5 -25t-38.5 -2q-102 30 -217 113.5t-193 180t-84 164.5z" />
    <glyph glyph-name="equal" unicode="=" horiz-adv-x="1052" 
d="M146 201q-19 -1 -29 9.5t-10 22.5t10.5 21t30.5 10q115 1 329 5t361 5q30 -10 30 -32t-31 -32q-539 -4 -691 -9zM152 520q-53 -1 -53 32q0 12 10.5 21t30.5 10q88 2 326.5 9t368.5 8q30 -9 30 -31t-31 -32q-134 -1 -377 -8.5t-305 -8.5z" />
    <glyph glyph-name="greater" unicode="&#x3e;" horiz-adv-x="720" 
d="M679 438q-41 -72 -100 -137t-131.5 -119.5t-128 -90t-131.5 -78.5q-23 -12 -39.5 1t-13.5 34.5t26 30.5q88 35 249 168t186 201q-6 21 -40.5 70.5t-89 111t-136 118.5t-163.5 81q-39 10 -39 47q0 17 12 26t39 2q103 -30 219 -115t195.5 -183.5t85.5 -167.5z" />
    <glyph glyph-name="question" unicode="?" horiz-adv-x="776" 
d="M170 855q61 38 128 32t117 -58q18 -18 31 -43t19.5 -56.5t-8 -66.5t-51.5 -64q-55 -45 -116 -49.5t-107 23t-76 81t-30 117.5q0 107 88 189t198 82q151 0 258.5 -97.5t107.5 -247.5q0 -64 -34 -122t-77 -95t-100 -89t-87 -93q-11 -14 -13 -63t1 -114.5t2 -81.5
q-4 -40 -32 -40q-10 0 -19 10t-13 26q0 3 -2 47.5t-2 85.5t3.5 89.5t15 81.5t31.5 41q20 21 70 60.5t87.5 70.5t69.5 77t34 89q4 122 -87 210.5t-204 88.5q-153 0 -203 -121zM392 -290q-27 0 -42.5 21t-3.5 48q4 15 18 23.5t31 8.5q20 0 34.5 -12t14.5 -33
q0 -19 -15.5 -37.5t-36.5 -18.5zM399 716q0 43 -38 72.5t-86 29.5q-60 0 -91.5 -20.5t-28.5 -81.5q2 -45 39.5 -71t83.5 -26q49 0 85 26.5t36 70.5z" />
    <glyph glyph-name="at" unicode="@" horiz-adv-x="1317" 
d="M827 635q5 5 11.5 18t14.5 20.5t20 7.5q60 0 2 -123q-18 -38 -29 -68t-19 -66t-5.5 -72t15.5 -73q25 -67 85 -67q59 0 105 64t67.5 148.5t21.5 164.5q0 77 -39.5 134t-104.5 86.5t-132 42.5t-137 13q-141 0 -261 -56t-196 -167.5t-76 -258.5q0 -109 41.5 -195t113.5 -139
t163.5 -80t195.5 -27q134 0 235.5 40t200.5 127q30 17 50 -4.5t3 -50.5q-85 -92 -229.5 -144.5t-303.5 -52.5q-158 0 -286 69t-201 193t-73 279q0 116 48 219.5t131.5 178t203 116.5t255.5 38q72 -3 136.5 -14.5t129.5 -39.5t111 -69t75 -107t29 -149q0 -97 -31.5 -192
t-94.5 -161t-142 -66q-65 0 -152 55q-47 -40 -100 -64t-97 -24q-105 0 -181.5 83.5t-76.5 194.5q0 48 19.5 94.5t56.5 85.5t99.5 62t140.5 20q94 -4 160 -76q25 49 27 52zM582 201q52 5 94 22t58 31l15 15q-15 72 -13.5 120t16.5 122q-2 3 -8 18t-10 18t-17 11.5t-35.5 13.5
t-58.5 10q-93 13 -155.5 -42.5t-62.5 -134.5q0 -80 50.5 -142t126.5 -62z" />
    <glyph glyph-name="A" unicode="A" horiz-adv-x="883" 
d="M65 28q12 58 42 162t43 168q21 99 33.5 153t36.5 146t45 144.5t49.5 109.5t62 83t70.5 26q45 0 106 -130t109.5 -288t101 -330t73.5 -221q4 -30 -11 -41.5t-36.5 -2.5t-34.5 30q-19 51 -44.5 150t-43.5 136q-82 1 -227.5 4.5t-217.5 4.5q-30 -113 -69 -322
q-3 -15 -13 -24t-22.5 -9.5t-24.5 4.5t-20 17.5t-8 29.5zM446 940q-17 2 -34.5 -12t-33.5 -42.5t-30 -59.5t-28 -77.5t-24 -81t-21 -84.5t-16.5 -74t-13.5 -64t-8 -41q86 -1 232 -6t183 -6q-53 215 -111 380t-95 168z" />
    <glyph glyph-name="B" unicode="B" horiz-adv-x="876" 
d="M206 -18q-18 -20 -44.5 -11t-22.5 41q-16 194 -23.5 316t-6.5 295t17 342q-50 31 5 55q49 11 117 15t149.5 -4t149.5 -29.5t113 -71.5t43 -121q-3 -102 -79.5 -162.5t-194.5 -74.5q98 -11 168.5 -42.5t106.5 -77t51.5 -94t13.5 -103.5q-2 -45 -16.5 -83t-38 -64.5
t-55.5 -47.5t-69 -34t-77.5 -22.5t-81 -13t-81 -6.5t-77 -2t-67.5 0zM697 286q-1 68 -39 117.5t-94.5 74.5t-128 36.5t-135 10t-120.5 -10.5q-10 -212 31 -462q63 -4 130 -3.5t131.5 17.5t114.5 42.5t80.5 71.5t29.5 106zM195 968q-15 -140 -15 -379q4 0 41 3.5t53.5 5.5
t57 7.5t63.5 11t60.5 16t59.5 21.5t49.5 28t42.5 36t25.5 44.5t10.5 54.5q0 83 -126 123t-322 28z" />
    <glyph glyph-name="C" unicode="C" horiz-adv-x="989" 
d="M837 867q-4 119 22 134q15 6 35 -7q5 -31 5 -63t-2.5 -71t-2.5 -62q-1 -20 -14.5 -31.5t-29.5 -11.5q-19 0 -30 38q-98 153 -269 159q-75 2 -141 -21t-114.5 -64.5t-85 -97.5t-56 -120t-24 -132t7 -133t42 -123.5t75.5 -103.5t112.5 -73t149.5 -31q104 -4 211 60.5
t142 151.5q9 22 27.5 30.5t31 -3.5t4.5 -42q-34 -126 -151.5 -196t-275.5 -70q-219 0 -344 160q-106 134 -110 328q-3 195 98 344q116 172 321 202q45 7 94 6q64 -2 145 -45.5t127 -111.5z" />
    <glyph glyph-name="D" unicode="D" horiz-adv-x="863" 
d="M121 959q8 37 62.5 62.5t104.5 25.5q236 0 378.5 -136.5t142.5 -366.5q0 -114 -32 -206.5t-87.5 -156t-132.5 -106t-165 -62t-187 -19.5q-33 0 -56 20t-30 79q-19 176 -16 485t18 381zM202 963q-24 -141 -26.5 -338t8 -344t25.5 -216q77 1 153.5 21t146 59.5t122.5 94
t83.5 129.5t28.5 161q-3 151 -79.5 263t-199.5 157t-262 13z" />
    <glyph glyph-name="E" unicode="E" horiz-adv-x="787" 
d="M697 1q-27 0 -97 -0.5t-109 -1.5l-97.5 -2.5t-108.5 -5.5t-96 -10q-19 4 -34.5 15t-16.5 28q-1 44 -4.5 173.5t-5 200.5t-3 180.5t-1 201t3.5 174.5q1 18 20 35.5t38 18.5q148 5 500 3q33 -10 33 -40q0 -31 -23 -39q-43 0 -152.5 3t-181.5 1.5t-154 -10.5q0 -16 -3 -81
t-4 -104.5t0.5 -98.5t6.5 -104q44 6 94.5 9t86.5 3.5t99 0t96 -0.5q15 -5 20 -7t10 -7.5t5 -14.5q0 -11 -8.5 -25t-19.5 -20q-4 -1 -166 -0.5t-212 -10.5q0 -15 -2.5 -178.5t-0.5 -220.5q206 15 502 17q23 -7 23 -32q0 -15 -10.5 -29.5t-27.5 -20.5z" />
    <glyph glyph-name="F" unicode="F" horiz-adv-x="790" 
d="M203 -1h-1q-15 -4 -32.5 4t-20.5 21q-31 380 -11 936q0 13 11.5 26.5t21.5 20.5t11 7q314 5 509 4q16 -5 28 -19.5t12 -27.5q0 -25 -27 -35q-8 0 -93 6t-170 9.5t-175 -0.5q-35 -2 -46 -13t-11 -49q-2 -59 1 -185.5t3 -159.5q124 18 385 20q33 -11 33 -43q0 -22 -28 -38
q-2 0 -170 5t-209 -4q-7 -15 -8 -91.5t0.5 -171.5t0.5 -115q0 -103 -14 -107z" />
    <glyph glyph-name="G" unicode="G" horiz-adv-x="957" 
d="M797 418h-234q-18 2 -30.5 11.5t-12.5 19.5q0 14 8.5 27t25.5 14q62 1 129 1t127 1q0 -1 10.5 -1.5t21 -12t12.5 -39.5q6 -86 5 -161.5t-3.5 -144t-1.5 -79.5v-11t-0.5 -11t-1 -10t-1 -9t-2 -6t-3.5 -4.5t-5 -1.5q-34 0 -39 20l2 161q-60 -85 -131.5 -116t-169.5 -31
q-190 0 -308 119t-125 321q-3 100 18.5 190.5t63.5 158t99 117t127 68.5t144.5 12t155 -52.5t155.5 -125.5q5 -24 -3.5 -45t-26.5 -21q-3 0 -7 2t-8.5 6.5l-8 8t-8.5 9.5t-8 9q-81 81 -162 116.5t-148.5 26t-127 -50t-100 -105.5t-64 -147t-23.5 -169q0 -92 30 -167
t80.5 -122t116 -72t138.5 -24q90 2 171.5 51t127.5 143q-5 112 -5 126z" />
    <glyph glyph-name="H" unicode="H" horiz-adv-x="937" 
d="M750 562l6 452q8 27 34 27q21 0 35 -39q8 -104 1.5 -482.5t-6.5 -482.5q-2 -43 -36 -43q-17 0 -23.5 7.5t-10.5 26.5q1 68 1 470q-8 11 -125 19t-248 5t-170 -21q-2 -70 -2 -224t-1 -224q-1 -32 -29 -32q-13 0 -24.5 9.5t-15.5 25.5l-6 937q4 14 17.5 26t24.5 12
q9 0 14.5 -4.5t8 -10t6.5 -19.5l8 -434q76 24 244 21.5t297 -22.5z" />
    <glyph glyph-name="I" unicode="I" horiz-adv-x="469" 
d="M387 9l-286 -6q-15 3 -24 12.5t-9 21.5q0 8 4.5 12t17.5 11q16 2 56 1.5t56 0.5l-2 883q-18 0 -62.5 2.5t-44.5 -0.5q-18 5 -25 9.5t-7 14.5q0 21 25 31q143 8 290 0q29 -9 29 -32q0 -16 -30 -25q-14 -2 -48 0t-65 2l6 -880q5 0 56 2t65 3q28 -8 28 -30q0 -24 -30 -33z
M98 3h7h-4h-3z" />
    <glyph glyph-name="J" unicode="J" horiz-adv-x="753" 
d="M502 951l-146 -4q-35 6 -35 30q0 8 9.5 20.5t20.5 17.5q153 10 354 -2q25 -20 25 -43q0 -28 -23 -28q-17 0 -54.5 5.5t-85.5 3.5q4 -54 16 -171.5t18.5 -210t6.5 -173.5q0 -372 -234 -374q-76 -1 -137.5 22.5t-95.5 68.5q-32 42 -45.5 89.5t-14.5 132.5q7 27 40 27
q14 0 19 -5.5t11 -23.5q-6 -66 13 -121t71 -92.5t131 -37.5q171 0 171 350q0 60 -4 132.5t-8 124t-12 136.5t-11 126z" />
    <glyph glyph-name="K" unicode="K" horiz-adv-x="907" 
d="M333 521l-138 -127l6 -357q-2 -41 -32 -41q-32 0 -41 34v983q10 31 45 31q23 0 32 -27l-5 -521q77 78 231.5 245t236.5 249q14 11 30 11q18 0 33 -12t9 -25q-12 -27 -185 -198.5t-177 -191.5q63 -86 253.5 -283.5t221.5 -240.5q10 -13 -7.5 -28t-35.5 -15q-14 0 -32 20
q-37 43 -198 218t-247 276z" />
    <glyph glyph-name="L" unicode="L" horiz-adv-x="807" 
d="M118 34l-1 950q10 36 35 36q30 0 43 -30q-1 -150 1 -445t0 -464q432 -7 541 -3q50 0 50 -36q0 -15 -8.5 -30t-28.5 -12h-588q-15 -3 -27.5 6.5t-16.5 27.5z" />
    <glyph glyph-name="M" unicode="M" horiz-adv-x="1213" 
d="M683 94q-14 -40 -49 -41t-52 33h1q-37 95 -77 249.5t-87.5 313t-111.5 295.5q-26 -153 -43 -299t-33 -311.5t-28 -264.5q-3 -24 -12 -39t-21 -15q-49 0 -43 57q6 52 19 176t20.5 190t20.5 167t28 190t33 178q5 25 28 35.5t46 5.5t31 -18q48 -78 95.5 -213.5t77.5 -255.5
t59.5 -230t45.5 -141q25 89 82.5 283t101 342t49.5 174q3 15 19 30t34.5 23t36.5 -1t25 -37q37 -156 58.5 -255.5t48.5 -285.5t38 -372q1 -19 -7.5 -35.5t-20.5 -16.5q-21 0 -29.5 13.5t-12.5 48.5q-26 219 -54 416t-48 307.5t-28 118.5q-9 -12 -47.5 -152t-95.5 -342
t-98 -321z" />
    <glyph glyph-name="N" unicode="N" horiz-adv-x="970" 
d="M877 974l24 -919q2 -72 -57 -34q-46 31 -86 88q-50 75 -150 216t-237.5 332.5t-188.5 262.5q10 -597 10 -882q-2 -40 -24 -40q-15 0 -27 10t-16 27q-7 516 -7 862q0 170 107 63q71 -73 191.5 -241t266 -385.5t161.5 -240.5l-38 881q5 19 9.5 24.5t18.5 5.5q32 0 43 -30z
" />
    <glyph glyph-name="O" unicode="O" horiz-adv-x="944" 
d="M54 538q1 41 5.5 81t17 90.5t31 94.5t50.5 87.5t73 73.5t101 48t132 17q112 3 198.5 -33.5t138.5 -102.5t79 -151t29 -187q2 -114 -24.5 -210t-80.5 -169t-142 -115t-201 -43q-206 -2 -310.5 136.5t-96.5 382.5zM836 549q2 178 -105 297t-267 115q-76 -2 -135 -27.5
t-95 -65t-59.5 -95.5t-32.5 -112.5t-9 -120.5q0 -71 9 -132.5t32.5 -122t59.5 -103t95 -68t135 -24.5q121 2 206.5 66t124.5 164.5t41 228.5z" />
    <glyph glyph-name="P" unicode="P" horiz-adv-x="817" 
d="M101 970q0 21 9 34t21 13q20 0 30 -2t16 -13.5t3 -34.5q58 38 136 50.5t155.5 -4t144 -53t108 -101t41.5 -143.5q0 -91 -32.5 -164.5t-85 -118t-115 -67t-127.5 -21.5q-142 2 -229 98q-4 -18 -4 -88.5t2 -174t2 -141.5q-2 -32 -36 -32q-14 0 -22 5t-10 9.5t-4 15.5t-3 15
v918zM169 892q2 -91 1.5 -155t-2.5 -140t-2 -89q38 -28 63 -44.5t73.5 -37.5t88.5 -22q69 -1 139 39t117.5 111t48.5 149q2 85 -55.5 148t-139.5 87.5t-175 14t-157 -60.5z" />
    <glyph glyph-name="Q" unicode="Q" horiz-adv-x="976" 
d="M58 499q2 102 21 185t47 137t67 94.5t75 62t78.5 35t69.5 16.5t55 4q209 4 325.5 -129.5t116.5 -352.5q0 -119 -31.5 -214.5t-97.5 -191.5q78 -69 106 -113q6 -19 -2 -32.5t-22 -13.5t-30 13q-13 18 -28 34.5t-26.5 26.5t-45.5 39q-13 -9 -36.5 -27t-38.5 -27t-42 -20
t-64.5 -16t-89.5 -6q-104 -1 -185.5 41t-129 114.5t-71 159t-21.5 181.5zM541 263q-16 15 -16 32q0 11 8 18.5t19 7.5q25 0 57.5 -24t70 -61.5t48.5 -46.5q56 80 84.5 176t28.5 188q0 106 -41 198.5t-124.5 153t-193.5 59.5q-74 -1 -133.5 -26t-97.5 -65.5t-63.5 -96
t-37 -112t-13.5 -118.5q-3 -74 3.5 -136t28.5 -123.5t59 -104.5t100 -71t148 -32q137 -7 202 70q-126 103 -137 114z" />
    <glyph glyph-name="R" unicode="R" horiz-adv-x="848" 
d="M429 418l-253 -5q1 -77 8.5 -194.5t8.5 -183.5q-3 -28 -39 -28q-25 0 -36 47q-6 136 -10 283t-5 297t5.5 249.5t21.5 105.5q61 25 146 35.5t176.5 -0.5t170 -42t129 -96.5t50.5 -156.5q0 -112 -84.5 -189t-209.5 -108q57 -65 80 -92t64.5 -80t71.5 -102.5t60 -109.5
q8 -15 2 -27t-23 -12q-14 0 -35 28q-20 29 -62 91t-68 99t-72 91t-97 100zM732 737q1 65 -40.5 114t-106 73.5t-139.5 34.5t-143.5 4.5t-115.5 -22.5q-7 -37 -11.5 -78.5t-6 -73t-1 -81t1 -72.5t3 -79.5t3.5 -72.5q46 -3 86.5 -4.5t99.5 1t106.5 11t98 27t85 46t57 71.5
t23.5 101z" />
    <glyph glyph-name="S" unicode="S" horiz-adv-x="753" 
d="M689 782q6 -26 -3.5 -35.5t-30.5 -9.5q-12 0 -25.5 10.5t-14.5 22.5q-11 87 -81 139t-156 50q-89 -3 -147.5 -62t-56.5 -145q1 -60 55.5 -115.5t126.5 -76.5q9 -3 41.5 -12t47.5 -13.5t46.5 -15.5t48.5 -20t44.5 -24.5t43 -30.5t35 -37.5t29.5 -46.5t17 -55t7 -66
q0 -75 -48 -130.5t-120.5 -81.5t-157.5 -26q-84 0 -157.5 31.5t-122 96t-49.5 148.5q0 31 7.5 46t30.5 20q38 -1 38 -72q0 -59 46 -108t100.5 -72t94.5 -22q115 2 191.5 55t72.5 138q-3 51 -48.5 99t-103 78t-115.5 45q-46 13 -81.5 26.5t-74 36.5t-64 50t-42.5 67.5
t-18 89.5q-1 119 82.5 195.5t187.5 77.5q130 1 214 -65t110 -180z" />
    <glyph glyph-name="T" unicode="T" horiz-adv-x="854" 
d="M428 948l-342 -2q-31 6 -31 30q0 19 25 30q135 6 366 6t359 7q29 -11 29 -31q0 -10 -9 -22.5t-22 -16.5l-297 -5q1 -105 -2 -280t-2 -322.5t12 -281.5q-1 -20 -21 -36t-39 -16q-6 0 -9.5 8t-6.5 19t-5 15q-12 35 -13 208.5t3.5 405.5t4.5 284z" />
    <glyph glyph-name="U" unicode="U" horiz-adv-x="999" 
d="M122 299q-19 66 -22 240t4 315l6 141q11 28 49 28q6 0 11 -1.5t9 -6t5.5 -6.5t6 -10.5t5.5 -10.5q-8 -91 -12 -269t5 -325q12 -145 107.5 -236t226.5 -91q61 0 119 21.5t104.5 60t74.5 99.5t27 134q-1 70 -3.5 293.5t-4.5 323.5q5 18 11 24t22 6q28 0 38 -27
q5 -59 9 -277t1 -398q-1 -85 -58 -163.5t-147.5 -126.5t-186.5 -48q-84 0 -162.5 31t-146.5 103t-98 176zM109 990v4v-4zM110 996l-1 -2l1 1v1z" />
    <glyph glyph-name="V" unicode="V" horiz-adv-x="911" 
d="M856 960l-370 -954q-14 -13 -26 -13q-16 0 -33 24q-116 335 -354 947q0 18 6.5 26t23.5 8q22 0 36 -18q44 -121 107 -264.5t116 -279.5t102 -306q53 158 166 445t157 419q10 16 39 16q32 0 30 -50zM484 0l6 10l-4 -4q0 -1 -1 -3t-1 -3z" />
    <glyph glyph-name="W" unicode="W" horiz-adv-x="1162" 
d="M1130 990q0 -23 -1 -62.5t-11.5 -155.5t-29 -225.5t-60.5 -249t-100 -247.5q-1 -2 -14 -4.5t-28.5 0t-20.5 11.5q-46 78 -90 209t-105.5 361t-78.5 288q-39 -225 -112 -511t-115 -366q-16 -29 -31 -29q-19 0 -36.5 21.5t-28.5 50.5q-76 196 -135 447.5t-62 474.5
q8 32 29 32h4.5h5.5t6 -0.5t6.5 -1.5t6 -3t6 -5t4.5 -7.5t3.5 -11t2.5 -14.5q43 -511 185 -866q46 153 108.5 402.5t103.5 441.5q13 34 45 34q19 0 30 -11.5t21 -40.5q33 -105 128.5 -426.5t126.5 -405.5q43 90 72.5 183.5t48 212.5t25.5 189.5t19 219.5q3 40 5 61
q-4 47 39 47q13 0 21 -11.5t7 -31.5z" />
    <glyph glyph-name="X" unicode="X" horiz-adv-x="860" 
d="M413 483l-257 -445q-17 -32 -57 -32q-22 13 -23.5 21t5.5 36q48 86 147 243.5t135 225.5q-81 117 -111.5 162.5t-82.5 132t-94 171.5q0 30 10 35.5t39 -7.5q43 -60 128.5 -205.5t160.5 -239.5q208 309 325 456q6 7 17.5 0t18.5 -20.5t3 -23.5q-11 -24 -159.5 -228
t-156.5 -233q27 -37 104.5 -143.5t132.5 -184t104 -152.5q7 -35 -7.5 -46t-34.5 -0.5t-29 29.5q-177 263 -318 448z" />
    <glyph glyph-name="Y" unicode="Y" horiz-adv-x="885" 
d="M780 996q1 1 4 6t4 6.5t4 5.5t4.5 5.5t4.5 3.5t5.5 3t5.5 1q16 0 28.5 -11t13.5 -30q-4 -8 -32 -66t-42 -85t-46 -85t-58 -95.5t-63 -84.5t-74 -82q-3 -42 -4.5 -91t-2 -79.5t0 -133t0.5 -159.5q-1 -19 -12.5 -29t-27.5 -10q-31 0 -41 35l-2 476q-68 37 -127 92
t-105.5 123t-80.5 132.5t-67 142.5q-1 19 9 29.5t26 10.5q21 0 39 -22q25 -58 58 -118.5t79.5 -131t102.5 -123.5t111 -71q1 1 5.5 3t8.5 5t11.5 10t18 21t25.5 34.5t35.5 53.5t46.5 75t60 101.5t74 131.5z" />
    <glyph glyph-name="Z" unicode="Z" horiz-adv-x="879" 
d="M121 80l311 391q326 416 322 441q-10 15 -136.5 19t-255.5 0.5t-204 -9.5q-24 -2 -34 8.5t-10 25.5v3v5t0.5 5.5t2 6.5t3.5 6.5t6.5 5.5t9.5 4.5t13 3.5t18 1l85 3q85 4 167.5 3.5t179 -5t160 -23t71.5 -48.5q5 -19 -44 -96t-137.5 -193.5t-165.5 -215t-172.5 -218
t-114.5 -143.5q146 5 565 9q18 -6 31 -16.5t13 -22.5q0 -10 -7 -19t-20 -13q-311 8 -659 -1q-36 -6 -27 28q6 20 29 54z" />
    <glyph glyph-name="bracketleft" unicode="[" horiz-adv-x="494" 
d="M113 -147l-16 1324q21 16 167.5 19t197.5 -6q32 -9 32 -31t-32 -33q-6 0 -75.5 2t-122.5 3t-104 -2q2 -196 10 -650.5t10 -558.5q18 -8 97.5 -9t182.5 6q30 -9 30 -39q0 -28 -30 -41q-38 -7 -172 -4t-175 20z" />
    <glyph glyph-name="backslash" unicode="\" horiz-adv-x="743" 
d="M63 1133q-7 16 -7 25q0 13 8 21.5t20 8.5q17 0 34 -22q91 -182 186 -388.5t211.5 -467.5t176.5 -391l-3 4q7 -22 -1.5 -37t-24.5 -15q-22 0 -34 28v-1q-51 113 -172 384.5t-212 470t-182 380.5z" />
    <glyph glyph-name="bracketright" unicode="]" horiz-adv-x="483" 
d="M390 1177l-16 -1324q-41 -17 -175 -20t-172 4q-30 13 -30 41q0 30 30 39q103 -7 182.5 -6t97.5 9q2 104 10 558.5t10 650.5q-51 3 -104 2t-122.5 -3t-75.5 -2q-32 11 -32 33t32 31q51 9 197.5 6t167.5 -19z" />
    <glyph glyph-name="asciicircum" unicode="^" horiz-adv-x="697" 
d="M363 1047q-27 1 -76.5 -68t-85.5 -138l-36 -69v1q-11 -30 -33 -30q-15 0 -24 13.5t-4 36.5v-4q-5 24 37 92t99.5 135t93.5 89l1 1q19 8 37 9t35 -7t32 -19.5t31.5 -32t29.5 -40t30 -49t30 -52.5t31.5 -57t31.5 -58q5 -20 -3 -34t-22 -14t-29 12q-13 23 -42.5 83.5
t-49.5 97t-51.5 69t-62.5 33.5z" />
    <glyph glyph-name="underscore" unicode="_" horiz-adv-x="863" 
d="M857 -125l-836 12q-22 13 -22 32q0 10 10 21t24 13q80 -7 370.5 -6.5t454.5 -4.5q30 -10 30 -35q0 -22 -31 -32z" />
    <glyph glyph-name="grave" unicode="`" horiz-adv-x="454" 
d="M306 778q-25 31 -49.5 66t-46.5 70.5t-36 59.5t-32 57t-22 39q-6 11 -1 29t16 23q23 10 46 -20q29 -55 102 -165.5t97 -158.5q-1 -17 -10 -27t-20 -10q-8 0 -22.5 12.5t-21.5 24.5z" />
    <glyph glyph-name="a" unicode="a" horiz-adv-x="727" 
d="M358 695q-37 -2 -74.5 -12.5t-65 -24t-49 -26.5t-33.5 -22l-13 -9q-18 -6 -31 8t-13 32q0 13 10 23q128 95 265 95q56 0 101.5 -12t77 -31t54.5 -51t36.5 -64.5t21 -79t9.5 -87t1 -96t-4 -98.5t-6.5 -102.5t-4.5 -100.5q0 -30 -46 -30q-14 0 -25 16t-4 49
q-69 -69 -223 -69q-120 0 -184 58.5t-64 170.5q0 130 88 220.5t204 90.5q69 0 199 -74q-1 112 -71.5 171.5t-155.5 54.5zM572 168q14 148 5 207q-46 66 -118 86t-136.5 -2t-111.5 -83t-48 -143q-1 -75 52 -119t122 -48t137.5 23t97.5 79z" />
    <glyph glyph-name="b" unicode="b" horiz-adv-x="808" 
d="M123 0l-2 1005q11 42 27 42q9 0 21.5 -12t17.5 -26q1 -147 5 -401q55 64 121 94t128.5 26.5t122 -33t104 -79t72 -118.5t27.5 -144q0 -90 -36 -166t-97 -122.5t-134.5 -68t-154.5 -7t-151 64.5q-2 -15 -2.5 -31t-0.5 -23t-2.5 -14t-10 -9t-22.5 -2t-24 6.5t-9 17.5z
M704 345q0 75 -28 138.5t-72 103.5t-100.5 57.5t-112.5 8t-109.5 -53.5t-88.5 -119l-4 -344q58 -51 130 -72t138.5 -9t122.5 47t90 99t34 144z" />
    <glyph glyph-name="c" unicode="c" horiz-adv-x="747" 
d="M669 606q7 -7 12.5 -17.5t7.5 -21t-4.5 -17.5t-21.5 -7q-19 0 -36 17q-111 104 -219 104q-73 0 -125.5 -28.5t-80 -77t-40 -99.5t-13.5 -108q-1 -72 24 -135t78 -107.5t126 -52.5q31 -3 50 -3.5t51.5 4.5t56.5 17t51.5 39t48.5 67q4 12 17 20t25 8q17 0 22.5 -6.5
t4.5 -29.5q-44 -91 -116.5 -136t-184.5 -44q-146 2 -239 104t-93 252q0 77 22.5 146.5t64.5 123.5t107.5 85t145.5 28q83 -4 138.5 -33.5t119.5 -91.5z" />
    <glyph glyph-name="d" unicode="d" horiz-adv-x="837" 
d="M687 963q8 31 38 31q13 0 23.5 -13.5t10.5 -31.5q-12 -48 -14.5 -169.5t1.5 -246.5t8 -278.5t3 -234.5q-1 -19 -10.5 -29.5t-21.5 -10.5q-20 0 -30 24.5t-11 93.5q-68 -55 -153 -74.5t-164.5 -1.5t-147.5 61.5t-109.5 119t-41.5 166.5q0 68 31.5 133.5t81.5 114.5
t115.5 78t131.5 31.5t131.5 -32.5t112.5 -107q2 49 1.5 132.5t2 140.5t11.5 103zM443 73q161 0 241 108q4 65 4 99.5t-3.5 103.5t-3.5 101q-41 75 -99 117t-116 49.5t-116 -11t-102.5 -58.5t-72.5 -99.5t-28 -126.5q0 -129 83 -206t213 -77z" />
    <glyph glyph-name="e" unicode="e" horiz-adv-x="790" 
d="M480 12q-97 -1 -175.5 30.5t-127 84.5t-75 122.5t-25.5 142t30 146t83 132.5q35 38 82.5 60.5t97 28t102 -1.5t98 -29.5t85 -55.5t62.5 -79t30.5 -100.5t-10.5 -120.5q-37 -3 -282 2.5t-313 2.5q-8 -69 27.5 -136.5t115.5 -115t187 -48.5q98 -1 193 90q18 28 37 28
q11 0 19 -8t8 -21q0 -10 -3 -22q-32 -64 -98.5 -97.5t-147.5 -34.5zM250 642q-70 -57 -110 -206q32 0 278 0.5t267 -1.5q7 65 -20 120t-76.5 87t-108.5 47t-121 2.5t-109 -49.5z" />
    <glyph glyph-name="f" unicode="f" horiz-adv-x="451" 
d="M386 707h-150l10 -663q-1 -19 -10.5 -29t-21.5 -10q-10 0 -19 10.5t-13 25.5q-6 70 -7.5 235.5t-2 295t-1.5 130.5q-9 0 -63 -4q-16 3 -25.5 12t-9.5 19q0 21 24 32q32 3 71 5q3 22 3.5 63t1 72.5t7.5 68.5t21 62t43 42.5t72 19.5q47 2 81.5 -9.5t57.5 -41t30 -43.5
t21 -51q3 -6 4 -9q15 -39 -22 -47q-32 -8 -43 28q-15 51 -40.5 78.5t-70.5 27.5q-39 0 -62.5 -24.5t-30 -62t-9 -83t1.5 -87.5q23 4 153 1q30 -10 30 -32t-31 -32z" />
    <glyph glyph-name="g" unicode="g" horiz-adv-x="844" 
d="M79 357q-1 77 30 152t86.5 128t123 81t149 13t156.5 -78q0 3 -5.5 26t-7 35.5t2.5 27.5q12 20 39 21t33 -21q15 -69 25.5 -128.5t25.5 -161t17.5 -185.5t-0.5 -183.5t-27.5 -175.5t-63 -141.5t-107.5 -100.5t-161 -35q-73 0 -136.5 42.5t-106.5 128.5q-12 28 -6 41
q5 9 13 17q7 9 28 5.5t28 -21.5q61 -150 184 -151q96 -1 166 70.5t100 182.5t21 238q-41 -66 -117 -98.5t-158.5 -24.5t-157.5 41.5t-124 101.5t-50 153zM141 363q0 -52 32.5 -99t82.5 -78.5t112.5 -45t120 -6.5t107 45t72.5 104q8 39 -3.5 149.5t-29.5 141.5
q-37 40 -97 64.5t-111 24.5q-107 0 -196.5 -86t-89.5 -214z" />
    <glyph glyph-name="h" unicode="h" horiz-adv-x="815" 
d="M680 35q-4 37 -1.5 88.5t1 112.5t-3.5 122.5t-15.5 119t-34.5 102t-61 71.5t-94 27q-84 1 -168.5 -79t-109.5 -179q3 -34 2.5 -98.5t-2 -159.5t-0.5 -122q-3 -40 -32 -40q-13 0 -26.5 10.5t-10.5 26.5q-2 171 -6 486t-5 485q7 21 38 21q19 0 31 -27l-3 -470
q32 91 115 156.5t184 62.5q61 -2 108 -28.5t75.5 -66t48 -98t27 -113.5t10 -124t0.5 -117.5t-4.5 -105.5t-2.5 -78q-6 -21 -26 -21q-13 0 -23 10t-11 26z" />
    <glyph glyph-name="i" unicode="i" horiz-adv-x="375" 
d="M130 710q0 37 33 42q18 0 29 -30q19 -165 12 -663q-1 -20 -14 -35.5t-24 -15.5q-10 0 -19 10.5t-10 26.5q2 89 1.5 167.5t-4.5 273.5t-4 224zM170 926q-27 0 -50.5 18.5t-24.5 45.5q8 53 64 53q25 0 41.5 -16.5t16.5 -41.5q0 -22 -12.5 -40.5t-34.5 -18.5z" />
    <glyph glyph-name="j" unicode="j" horiz-adv-x="343" 
d="M144 -177l-6 910q-5 11 7 24.5t25 13.5q31 0 38 -28q-5 -150 -5 -305.5t2.5 -333.5t2.5 -272q0 -56 -22.5 -98t-59.5 -65t-78 -34t-84 -11q-23 0 -50 7.5t-60.5 27t-57.5 63.5t-28 106v-1q-3 18 11.5 27.5t28.5 9.5q13 0 21 -11.5t7 -32.5q-4 -49 37.5 -87t78.5 -45
q20 -3 48.5 1.5t60 18t55.5 43.5t28 72zM114 981q0 22 15 37t37 15t37 -15t15 -37t-15 -37t-37 -15t-37 15t-15 37z" />
    <glyph glyph-name="k" unicode="k" horiz-adv-x="736" 
d="M117 31l-5 976q10 32 33 32q10 0 23.5 -8.5t17.5 -21.5q2 -97 0 -311t2 -313q81 65 197.5 181.5t195.5 175.5q20 13 40.5 2t20.5 -25q0 -5 -6 -13.5t-11 -10.5q-2 -2 -8 -7t-18.5 -16t-32 -28.5t-56.5 -51t-84 -77.5q22 -56 44.5 -105t49.5 -99.5t44.5 -80t53.5 -90
t52 -87.5q5 -21 -3 -35.5t-23 -14.5q-24 0 -36 28l-238 437q-32 -28 -90 -88.5t-86 -85.5q-1 -13 -5 -89t-3 -87.5t3 -96.5q2 -21 -7 -35t-26 -14q-39 0 -39 59z" />
    <glyph glyph-name="l" unicode="l" horiz-adv-x="362" 
d="M144 4l5 1000q8 33 35 33q26 0 34 -31q1 -168 -2 -498.5t-2 -497.5q-1 -20 -11.5 -30.5t-23.5 -10.5q-12 0 -21.5 9.5t-13.5 25.5z" />
    <glyph glyph-name="m" unicode="m" horiz-adv-x="1179" 
d="M871 687q-164 0 -198 -142q7 -40 7 -135.5t-3 -210t-2 -156.5q-1 -20 -12.5 -30.5t-25.5 -10.5q-11 0 -20.5 10.5t-13.5 26.5q18 349 -2 502q-8 59 -62 111t-119 53q-84 1 -157.5 -59.5t-73.5 -111.5q0 -2 -2.5 -62.5t-5 -133t-3 -159.5t2.5 -140q3 -40 -30 -40
q-12 0 -29.5 12t-21.5 27q5 121 5.5 343t3.5 324q-2 22 12 43.5t29 21.5q19 0 32 -39q2 -11 -0.5 -34t-1.5 -35q67 58 113 83t112 25q27 0 41 -1t41 -9t47 -24.5t46.5 -49t52.5 -80.5q19 54 53 89.5t73.5 48t68 16t55.5 1.5q176 -15 208 -117q20 -62 21.5 -189.5t-5 -253.5
t-5.5 -148q1 -20 -12.5 -35.5t-28.5 -15.5q-21 0 -27 55q-2 10 3 230.5t-11 312.5q-5 25 -21.5 43t-40 27t-46.5 13t-47 4z" />
    <glyph glyph-name="n" unicode="n" horiz-adv-x="788" 
d="M650 392q3 112 -20 184.5t-62.5 98t-90 22t-103 -35t-101.5 -81.5t-84 -111l2 -428q-4 -39 -33 -39q-13 0 -24 9.5t-15 26.5q-3 64 -5 695q14 31 39 31q27 0 36 -29q0 -3 -1.5 -15t-3 -47t-1.5 -94q34 38 74 72.5t91 63t100.5 40t102 -2t94.5 -55.5q96 -90 62 -674
q-1 -11 -9.5 -21.5t-14.5 -10.5q-16 0 -31 25q-9 12 -9 88t4 170.5t3 117.5z" />
    <glyph glyph-name="o" unicode="o" horiz-adv-x="788" 
d="M399 8q-89 3 -155.5 33.5t-104.5 82t-56 114.5t-17 139q2 150 91.5 263t236.5 119q44 2 87.5 -5t92 -30t84.5 -60.5t59.5 -102.5t22.5 -149q-1 -71 -24.5 -142t-65 -130t-107.5 -95.5t-144 -36.5zM669 393q0 82 -22.5 142t-51 89.5t-68 46.5t-61.5 20t-43 3
q-120 1 -198 -86.5t-88 -228.5q-9 -138 69.5 -217.5t200.5 -79.5q112 0 187 89t75 222z" />
    <glyph glyph-name="p" unicode="p" horiz-adv-x="801" 
d="M102 -270l2 1005q0 11 9 17.5t24 6.5t22.5 -2t10 -9t2.5 -14t0.5 -23t2.5 -31q70 50 151 64.5t154.5 -7t134.5 -68t97 -122.5t36 -166q0 -75 -27.5 -144t-72 -118.5t-104 -79t-122 -33t-128.5 26.5t-121 94q-4 -254 -5 -401q-5 -14 -17.5 -26t-21.5 -12q-17 0 -27 42z
M685 390q0 80 -34 144t-90 99t-122.5 47t-138.5 -9t-130 -72l4 -344q35 -75 88.5 -119t109.5 -53.5t112.5 8t100.5 57.5t72 103.5t28 138.5z" />
    <glyph glyph-name="q" unicode="q" horiz-adv-x="793" 
d="M716 735l2 -1005q-10 -42 -27 -42q-9 0 -21.5 12t-17.5 26q-1 147 -5 401q-55 -64 -124.5 -94.5t-137 -27.5t-131 34.5t-109 84.5t-68.5 130.5t-13 164.5q13 112 69 194t135.5 119.5t180 25.5t196.5 -78q2 15 2.5 31t0.5 23t2.5 14t10 9t22.5 2t24 -6.5t9 -17.5zM127 428
q-9 -87 15 -161t68 -121t103.5 -69t119 -12.5t117.5 58t96 132.5l4 344q-67 70 -155.5 92t-165.5 -1.5t-134.5 -92.5t-67.5 -169z" />
    <glyph glyph-name="r" unicode="r" horiz-adv-x="614" 
d="M539 637q-68 62 -135 46t-119.5 -71.5t-84 -114.5t-29.5 -84q1 -13 3 -197.5t1 -195.5q-12 -25 -30 -25q-17 0 -32 24q-10 66 -12.5 152t-1.5 211.5t-2 340.5q-2 22 6.5 35t22.5 13q20 0 33 -31q6 -22 3.5 -94.5t-0.5 -100.5q21 45 47.5 82.5t65 69t81 45t97 3
t110.5 -49.5q32 -22 24 -51q-7 -22 -28 -18q-10 2 -20 11z" />
    <glyph glyph-name="s" unicode="s" horiz-adv-x="635" 
d="M520 578q0 -51 -28 -51q-27 0 -34 27q-20 155 -132 155q-65 0 -115.5 -46.5t-44.5 -119.5q2 -25 20 -46t45.5 -35.5t50.5 -24t48.5 -17t26.5 -7.5q45 -16 66.5 -25t57.5 -29t54 -39.5t33 -51t16 -70.5q2 -57 -40.5 -102t-103 -66.5t-124.5 -21.5q-80 0 -144.5 50.5
t-78.5 127.5q0 18 9 32t20 14t22.5 -10t15.5 -26q16 -55 65.5 -91.5t109.5 -36.5q69 0 129 41t61 104q-9 38 -44.5 67.5t-81.5 45.5t-98.5 36t-96.5 40.5t-73 59t-29 89.5q-1 103 60 155t168 55q80 2 128.5 -48t61.5 -135z" />
    <glyph glyph-name="t" unicode="t" horiz-adv-x="458" 
d="M190 700l-129 -1q-16 3 -25.5 12t-9.5 20q0 9 7.5 21.5t19.5 17.5q31 2 57 0.5t76 1.5q-4 37 -1.5 126t-1.5 119q11 30 39 30q12 0 18.5 -7.5t13.5 -24.5q3 -30 0.5 -117.5t1.5 -124.5q3 0 56 -0.5t96 -0.5q14 -4 21 -16t7 -24q0 -22 -31 -33l-144 2q13 -211 5 -680
q-1 -43 -30 -43q-32 0 -40 36q9 539 -6 686z" />
    <glyph glyph-name="u" unicode="u" horiz-adv-x="813" 
d="M143 164q-25 54 -35 198t-7 262l3 117q8 33 39 33q14 0 24 -9t10 -25t-0.5 -117t0.5 -166t7 -141t19 -103q63 -137 223 -137q79 0 139.5 44.5t71.5 104.5q18 98 21 264.5t-6 251.5q-1 18 10 28t24 10t24 -8.5t12 -23.5q13 -382 -16 -546q-14 -80 -82.5 -135t-167.5 -55
q-42 0 -73.5 2.5t-70 11.5t-67 25t-56 45t-46.5 69z" />
    <glyph glyph-name="v" unicode="v" horiz-adv-x="723" 
d="M367 11q-35 -1 -83 77t-91 191.5t-78.5 233t-51.5 206.5q-1 17 7.5 27.5t20.5 10.5q20 0 40 -22q166 -631 243 -639q28 -9 80.5 114.5t97 273t67.5 255.5q13 21 37 21q23 0 25 -44q-10 -48 -27 -116.5t-50 -176.5t-68 -195t-81 -151.5t-88 -65.5z" />
    <glyph glyph-name="w" unicode="w" horiz-adv-x="1000" 
d="M89 671v46t8.5 39.5t25.5 15.5q7 0 12.5 -2.5t9.5 -7.5t6.5 -10t4 -13.5t2.5 -14t1 -15.5v-15.5t-0.5 -16t-0.5 -13.5q-5 -152 14.5 -280t57.5 -201.5t85 -72.5q43 -4 83.5 89.5t60 220.5t10.5 222q11 29 35 29q16 0 29 -13.5t15 -36.5q8 -68 15.5 -121t24 -130.5
t35.5 -129.5t50 -92t68 -44q42 -4 71.5 39.5t45 128.5t21.5 196.5t3 253.5q-1 20 9.5 31.5t25.5 11.5q13 0 24 -12.5t10 -30.5q-1 -17 -1 -65t-1.5 -87t-4 -98t-9 -106.5t-16 -101.5t-25.5 -94.5t-36.5 -75t-50.5 -52.5t-67 -18q-66 0 -133.5 102.5t-93.5 244.5
q-16 -145 -80.5 -250.5t-106.5 -101.5q-51 5 -90.5 40.5t-63.5 90t-40.5 119t-24 134t-11.5 127.5t-6 106q-1 25 -1 35z" />
    <glyph glyph-name="x" unicode="x" horiz-adv-x="679" 
d="M343 352q-83 -103 -127 -164.5t-106 -158.5q-16 -18 -32 -18q-11 0 -19.5 8.5t-8.5 21.5q0 15 9 28l-1 -1q111 179 241 341q-125 161 -267 305q-5 10 -5 22q0 13 7.5 21t18.5 8q15 0 28 -10q125 -125 262 -298q31 39 107 123q100 108 128 145q26 34 58 34q26 0 26 -19
q0 -18 -21 -40q-112 -121 -256 -297q5 -6 29 -37.5t33 -43.5q128 -169 202 -255l-2 3q12 -15 12 -30q0 -12 -8 -20t-19 -8q-18 0 -33 16l2 -1q-64 74 -189 235q-39 52 -69 90zM109 27l2 3l-1 -1q0 -1 -0.5 -1t-0.5 -1z" />
    <glyph glyph-name="y" unicode="y" horiz-adv-x="797" 
d="M133 -248q-39 46 -39 65q0 20 22 26t36 -14q3 -4 17 -19.5t44 -42.5t62 -51t73 -42.5t77 -20.5q98 -4 158 45t65 122q5 72 -3 320q-72 -64 -124.5 -93t-110.5 -30q-74 -2 -130.5 24t-90 67.5t-53.5 104t-27 123t-5 136t7.5 130t14.5 117.5q9 33 38 33q14 0 25 -11.5
t8 -31.5q-25 -175 -20 -298t37 -198.5t78.5 -108t104.5 -26.5q43 5 88 27.5t75 45.5t78 65q-1 42 -2.5 121t-3 120t-8.5 110t-19 141q0 18 9 31.5t20 13.5t22.5 -9.5t16.5 -24.5q32 -285 41.5 -476.5t-1.5 -440.5q-5 -77 -46.5 -127t-103.5 -69.5t-141 -14.5
q-165 11 -289 161zM125 715q0 3 1 4v1z" />
    <glyph glyph-name="z" unicode="z" horiz-adv-x="759" 
d="M120 750q34 3 287 -0.5t258 -8.5q11 -13 4.5 -41t-24.5 -50q-340 -412 -465 -580q316 11 495 10q17 -5 24 -12t7 -20q0 -10 -8.5 -21.5t-20.5 -16.5l-525 -15q-30 2 -57 26t-9 44q50 62 221 280.5t274 341.5q-80 -2 -230.5 -2t-234.5 -1q-34 9 -34 30q0 14 10 24.5
t28 11.5z" />
    <glyph glyph-name="braceleft" unicode="{" horiz-adv-x="426" 
d="M71 414q-27 19 -30 41.5t24 37.5q26 13 42.5 24t32.5 29t22 40q11 43 11 122t0.5 152t13 149.5t57.5 138.5t125 94q12 5 29.5 -5t17.5 -21q0 -9 -5.5 -23t-13.5 -20q-73 -29 -108 -92.5t-38 -142.5t1 -158t-3 -155.5t-39 -119.5q-7 -9 -13.5 -16t-15 -12.5t-14.5 -8.5
l-19 -9.5t-20 -10.5l6 -3l12.5 -7.5t16 -9.5t17 -11t12.5 -11q26 -23 34.5 -88t6 -145t-4 -160t11.5 -145.5t45 -88.5q15 -11 30.5 -12t52.5 6q16 3 28 -5.5t17 -21.5q14 -38 -39 -45q-76 -11 -112 10q-43 25 -66 81t-28.5 128t-5.5 144.5t-3.5 148.5t-17.5 122
q-6 19 -20 36t-23 24t-27 19z" />
    <glyph glyph-name="bar" unicode="|" horiz-adv-x="311" 
d="M115 -88l12 1237q9 32 33 32q22 0 31 -30q-1 -193 -6 -629.5t-6 -604.5q-3 -41 -31 -41q-10 0 -19 10.5t-14 25.5zM127 1151l-1 -6q0 3 1 4v2z" />
    <glyph glyph-name="braceright" unicode="}" horiz-adv-x="460" 
d="M362 414q-1 -1 -9.5 -6.5t-10.5 -7t-9.5 -7t-11 -9t-9 -10t-9 -11.5t-6.5 -12.5t-5 -15.5q-13 -58 -15.5 -140.5t-1.5 -151.5t-4 -136.5t-29 -119t-71 -76.5q-38 -20 -112 -10q-57 8 -41 49q10 26 44 20q38 -7 52 -5t30 13q32 23 46 87.5t13.5 143t-1.5 156.5t8.5 142
t35.5 87q4 5 12 12l16 14t15 13.5t12 10.5l5 4q-9 5 -19 9.5t-15 7t-11.5 6.5t-12 10t-13.5 15q-27 32 -35.5 93t-5 131.5t7 142t-5.5 142t-36 115.5t-122 54q-8 6 -14.5 20t-6.5 22q0 10 16.5 19t30.5 7q109 -11 151 -69q32 -44 46.5 -108.5t12.5 -127t-5 -131t-6.5 -121.5
t8.5 -99q8 -31 32.5 -51.5t64.5 -41.5q27 -15 24 -37.5t-30 -41.5z" />
    <glyph glyph-name="asciitilde" unicode="~" horiz-adv-x="914" 
d="M242 687q-44 -11 -71 -41t-33.5 -50.5t-14.5 -62.5q-1 -5 -2 -8q-3 -13 -14 -21.5t-21 -8.5q-14 0 -23.5 11t-9.5 29q0 93 67 153.5t162 60.5q39 0 77.5 -19t71 -46.5t65.5 -54.5t72 -45.5t79 -17.5q78 3 124.5 46t51.5 114q1 20 11.5 32t22.5 12q13 0 21.5 -12.5
t7.5 -32.5q-5 -87 -76.5 -151t-164.5 -71q-43 0 -91 21.5t-88 51.5t-79 58.5t-76.5 44.5t-68.5 8z" />
    <glyph glyph-name="thothannobasethai" horiz-adv-x="823" 
d="M136 552q34 -1 86 13t102.5 29.5t106.5 26.5t116 2.5t112 -41.5q43 -27 63.5 -81.5t18.5 -130.5t-9.5 -137.5t-21.5 -143.5q-4 -18 -5 -27q-6 -33 -25.5 -50t-43.5 -17q-22 0 -38 17.5t-26.5 48.5t-18 62.5t-16 72.5t-15.5 65q-39 -29 -90 -32.5t-94 13.5t-73 52t-30 77
q0 58 68.5 107.5t140.5 23.5q29 -11 50 -24t36.5 -34t25.5 -40.5t20 -56.5t16 -66.5t18 -87.5t22 -103q25 74 35.5 156.5t0 160.5t-45.5 121q-19 24 -65.5 30t-108 -3.5t-113 -21t-107 -27t-63.5 -17.5q-5 -1 -18 -4t-17.5 -4t-15 -2.5t-14.5 0t-12 3t-11 7t-7.5 12.5
t-6.5 17.5t-3 24.5q-4 51 34.5 108.5t93 94.5t97.5 38q49 1 89.5 -9t63.5 -23t59.5 -23.5t78.5 -10.5q23 0 37 2t29.5 13.5t20 15.5t27.5 29q24 10 47 10q10 0 16.5 -8.5t6.5 -16.5q0 -20 -13.5 -38.5t-31.5 -28.5q-53 -31 -126.5 -33.5t-128.5 12.5t-105 32t-53 17
q-64 5 -116 -56t-50 -116zM414 447q-47 10 -77.5 -19.5t-30.5 -67.5q0 -21 24 -39t66.5 -23t101.5 17q-2 11 -4.5 32t-4.5 29.5t-7 23t-13 21.5t-21.5 14.5t-33.5 11.5z" />
    <glyph glyph-name="thothannobasethai" unicode="&#xf700;" horiz-adv-x="823" 
d="M136 552q34 -1 86 13t102.5 29.5t106.5 26.5t116 2.5t112 -41.5q43 -27 63.5 -81.5t18.5 -130.5t-9.5 -137.5t-21.5 -143.5q-4 -18 -5 -27q-6 -33 -25.5 -50t-43.5 -17q-22 0 -38 17.5t-26.5 48.5t-18 62.5t-16 72.5t-15.5 65q-39 -29 -90 -32.5t-94 13.5t-73 52t-30 77
q0 58 68.5 107.5t140.5 23.5q29 -11 50 -24t36.5 -34t25.5 -40.5t20 -56.5t16 -66.5t18 -87.5t22 -103q25 74 35.5 156.5t0 160.5t-45.5 121q-19 24 -65.5 30t-108 -3.5t-113 -21t-107 -27t-63.5 -17.5q-5 -1 -18 -4t-17.5 -4t-15 -2.5t-14.5 0t-12 3t-11 7t-7.5 12.5
t-6.5 17.5t-3 24.5q-4 51 34.5 108.5t93 94.5t97.5 38q49 1 89.5 -9t63.5 -23t59.5 -23.5t78.5 -10.5q23 0 37 2t29.5 13.5t20 15.5t27.5 29q24 10 47 10q10 0 16.5 -8.5t6.5 -16.5q0 -20 -13.5 -38.5t-31.5 -28.5q-53 -31 -126.5 -33.5t-128.5 12.5t-105 32t-53 17
q-64 5 -116 -56t-50 -116zM414 447q-47 10 -77.5 -19.5t-30.5 -67.5q0 -21 24 -39t66.5 -23t101.5 17q-2 11 -4.5 32t-4.5 29.5t-7 23t-13 21.5t-21.5 14.5t-33.5 11.5z" />
    <glyph glyph-name="thothannobasethai" unicode="&#x20ac;" horiz-adv-x="823" 
d="M136 552q34 -1 86 13t102.5 29.5t106.5 26.5t116 2.5t112 -41.5q43 -27 63.5 -81.5t18.5 -130.5t-9.5 -137.5t-21.5 -143.5q-4 -18 -5 -27q-6 -33 -25.5 -50t-43.5 -17q-22 0 -38 17.5t-26.5 48.5t-18 62.5t-16 72.5t-15.5 65q-39 -29 -90 -32.5t-94 13.5t-73 52t-30 77
q0 58 68.5 107.5t140.5 23.5q29 -11 50 -24t36.5 -34t25.5 -40.5t20 -56.5t16 -66.5t18 -87.5t22 -103q25 74 35.5 156.5t0 160.5t-45.5 121q-19 24 -65.5 30t-108 -3.5t-113 -21t-107 -27t-63.5 -17.5q-5 -1 -18 -4t-17.5 -4t-15 -2.5t-14.5 0t-12 3t-11 7t-7.5 12.5
t-6.5 17.5t-3 24.5q-4 51 34.5 108.5t93 94.5t97.5 38q49 1 89.5 -9t63.5 -23t59.5 -23.5t78.5 -10.5q23 0 37 2t29.5 13.5t20 15.5t27.5 29q24 10 47 10q10 0 16.5 -8.5t6.5 -16.5q0 -20 -13.5 -38.5t-31.5 -28.5q-53 -31 -126.5 -33.5t-128.5 12.5t-105 32t-53 17
q-64 5 -116 -56t-50 -116zM414 447q-47 10 -77.5 -19.5t-30.5 -67.5q0 -21 24 -39t66.5 -23t101.5 17q-2 11 -4.5 32t-4.5 29.5t-7 23t-13 21.5t-21.5 14.5t-33.5 11.5z" />
    <glyph glyph-name="saraileftthai" 
d="M-328 933q1 -10 -56.5 -16.5t-142 -8.5t-171 -1.5t-154 5.5t-81.5 12q-30 16 -4 67q31 62 111 107q82 47 180 48q30 1 73.5 -7.5t99.5 -29t97.5 -66.5t47.5 -110zM-408 979q-14 37 -45.5 61.5t-71.5 33.5t-69.5 12t-57.5 2q-133 -5 -195 -108q-4 -14 104.5 -15.5t219 4.5
t115.5 10z" />
    <glyph glyph-name="saraileftthai" unicode="&#xf701;" 
d="M-328 933q1 -10 -56.5 -16.5t-142 -8.5t-171 -1.5t-154 5.5t-81.5 12q-30 16 -4 67q31 62 111 107q82 47 180 48q30 1 73.5 -7.5t99.5 -29t97.5 -66.5t47.5 -110zM-408 979q-14 37 -45.5 61.5t-71.5 33.5t-69.5 12t-57.5 2q-133 -5 -195 -108q-4 -14 104.5 -15.5t219 4.5
t115.5 10z" />
    <glyph glyph-name="saraiileftthai" 
d="M-307 1146q-1 -7 -2 -37t-2.5 -60t-5 -61.5t-9.5 -51.5t-15 -20q-379 0 -486 13q-92 10 -94 32q-5 52 37 99.5t104.5 74t121.5 26.5q175 0 280 -168q-1 19 2.5 79.5t3.5 78.5q9 30 31 30q10 0 22.5 -11t11.5 -24zM-834 1019q-20 -24 32 -32q10 -1 32 -3l7 -1
q121 -10 335 -5q-2 2 -18 19.5t-20 22t-20.5 19.5t-26 20t-28 15.5t-34.5 14.5t-38.5 7.5t-47.5 3.5q-107 0 -173 -81z" />
    <glyph glyph-name="saraiileftthai" unicode="&#xf702;" 
d="M-307 1146q-1 -7 -2 -37t-2.5 -60t-5 -61.5t-9.5 -51.5t-15 -20q-379 0 -486 13q-92 10 -94 32q-5 52 37 99.5t104.5 74t121.5 26.5q175 0 280 -168q-1 19 2.5 79.5t3.5 78.5q9 30 31 30q10 0 22.5 -11t11.5 -24zM-834 1019q-20 -24 32 -32q10 -1 32 -3l7 -1
q121 -10 335 -5q-2 2 -18 19.5t-20 22t-20.5 19.5t-26 20t-28 15.5t-34.5 14.5t-38.5 7.5t-47.5 3.5q-107 0 -173 -81z" />
    <glyph glyph-name="saraiileftthai" unicode="&#x201a;" 
d="M-307 1146q-1 -7 -2 -37t-2.5 -60t-5 -61.5t-9.5 -51.5t-15 -20q-379 0 -486 13q-92 10 -94 32q-5 52 37 99.5t104.5 74t121.5 26.5q175 0 280 -168q-1 19 2.5 79.5t3.5 78.5q9 30 31 30q10 0 22.5 -11t11.5 -24zM-834 1019q-20 -24 32 -32q10 -1 32 -3l7 -1
q121 -10 335 -5q-2 2 -18 19.5t-20 22t-20.5 19.5t-26 20t-28 15.5t-34.5 14.5t-38.5 7.5t-47.5 3.5q-107 0 -173 -81z" />
    <glyph glyph-name="saraueleftthai" 
d="M-323 930q1 -10 -55.5 -16t-139 -7.5t-168 -0.5t-151.5 6.5t-80 12.5q-30 16 -10 67q26 65 101 110q76 46 173 47q116 0 164 -38q-7 46 22.5 74.5t72 31.5t81.5 -6q44 -14 66.5 -70t7.5 -98q-12 -33 -33 -45.5t-68 -10.5q0 -9 8 -26t9 -31zM-431 979q-17 44 -73 71.5
t-103.5 34t-46.5 -0.5q-118 -5 -177 -103q-4 -14 95 -15.5t199.5 4t105.5 9.5zM-384 1172q-56 -19 -51.5 -68t58.5 -73q77 -7 92 41q11 38 -19 74q-34 39 -80 26z" />
    <glyph glyph-name="saraueleftthai" unicode="&#xf703;" 
d="M-323 930q1 -10 -55.5 -16t-139 -7.5t-168 -0.5t-151.5 6.5t-80 12.5q-30 16 -10 67q26 65 101 110q76 46 173 47q116 0 164 -38q-7 46 22.5 74.5t72 31.5t81.5 -6q44 -14 66.5 -70t7.5 -98q-12 -33 -33 -45.5t-68 -10.5q0 -9 8 -26t9 -31zM-431 979q-17 44 -73 71.5
t-103.5 34t-46.5 -0.5q-118 -5 -177 -103q-4 -14 95 -15.5t199.5 4t105.5 9.5zM-384 1172q-56 -19 -51.5 -68t58.5 -73q77 -7 92 41q11 38 -19 74q-34 39 -80 26z" />
    <glyph glyph-name="saraueleftthai" unicode="&#x192;" 
d="M-323 930q1 -10 -55.5 -16t-139 -7.5t-168 -0.5t-151.5 6.5t-80 12.5q-30 16 -10 67q26 65 101 110q76 46 173 47q116 0 164 -38q-7 46 22.5 74.5t72 31.5t81.5 -6q44 -14 66.5 -70t7.5 -98q-12 -33 -33 -45.5t-68 -10.5q0 -9 8 -26t9 -31zM-431 979q-17 44 -73 71.5
t-103.5 34t-46.5 -0.5q-118 -5 -177 -103q-4 -14 95 -15.5t199.5 4t105.5 9.5zM-384 1172q-56 -19 -51.5 -68t58.5 -73q77 -7 92 41q11 38 -19 74q-34 39 -80 26z" />
    <glyph glyph-name="saraueeleftthai" 
d="M-429 1169q0 -5 1 -25t0 -33t-4 -24q22 -12 61 -49q0 12 2 57t2 67q0 23 12 33t27 1.5t21 -30.5q4 -126 -12 -236q-7 -17 -276.5 -20.5t-306.5 15.5q-30 16 -9 63q26 59 103 99q75 39 169 40q92 0 142 -14q2 46 2 56q4 23 17.5 31.5t28 0t20.5 -31.5zM-390 979
q-28 50 -107 71t-148 19q-64 -3 -91 -14q-47 -20 -80 -74q-4 -14 101.5 -15.5t212.5 4t112 9.5z" />
    <glyph glyph-name="saraueeleftthai" unicode="&#xf704;" 
d="M-429 1169q0 -5 1 -25t0 -33t-4 -24q22 -12 61 -49q0 12 2 57t2 67q0 23 12 33t27 1.5t21 -30.5q4 -126 -12 -236q-7 -17 -276.5 -20.5t-306.5 15.5q-30 16 -9 63q26 59 103 99q75 39 169 40q92 0 142 -14q2 46 2 56q4 23 17.5 31.5t28 0t20.5 -31.5zM-390 979
q-28 50 -107 71t-148 19q-64 -3 -91 -14q-47 -20 -80 -74q-4 -14 101.5 -15.5t212.5 4t112 9.5z" />
    <glyph glyph-name="saraueeleftthai" unicode="&#x201e;" 
d="M-429 1169q0 -5 1 -25t0 -33t-4 -24q22 -12 61 -49q0 12 2 57t2 67q0 23 12 33t27 1.5t21 -30.5q4 -126 -12 -236q-7 -17 -276.5 -20.5t-306.5 15.5q-30 16 -9 63q26 59 103 99q75 39 169 40q92 0 142 -14q2 46 2 56q4 23 17.5 31.5t28 0t20.5 -31.5zM-390 979
q-28 50 -107 71t-148 19q-64 -3 -91 -14q-47 -20 -80 -74q-4 -14 101.5 -15.5t212.5 4t112 9.5z" />
    <glyph glyph-name="ellipsis" unicode="&#x85;" horiz-adv-x="1040" 
d="M75 59q0 30 20.5 51t50.5 21t51 -21t21 -51t-21 -50.5t-51 -20.5t-50.5 20.5t-20.5 50.5zM456 59q0 30 20.5 51t50.5 21t51 -21t21 -51t-21 -50.5t-51 -20.5t-50.5 20.5t-20.5 50.5zM848 59q0 30 20.5 51t50.5 21t51 -21t21 -51t-21 -50.5t-51 -20.5t-50.5 20.5
t-20.5 50.5z" />
    <glyph glyph-name="ellipsis" unicode="&#x2026;" horiz-adv-x="1040" 
d="M75 59q0 30 20.5 51t50.5 21t51 -21t21 -51t-21 -50.5t-51 -20.5t-50.5 20.5t-20.5 50.5zM456 59q0 30 20.5 51t50.5 21t51 -21t21 -51t-21 -50.5t-51 -20.5t-50.5 20.5t-20.5 50.5zM848 59q0 30 20.5 51t50.5 21t51 -21t21 -51t-21 -50.5t-51 -20.5t-50.5 20.5
t-20.5 50.5z" />
    <glyph glyph-name="maieklowleftthai" 
d="M-504 1143l1 -2q-1 18 10 28.5t27 9.5q37 -2 46 -40v3q8 -61 2 -164q-1 -21 -13.5 -32.5t-27.5 -10.5q-10 0 -19 10t-12 24q2 75 -14 174z" />
    <glyph glyph-name="maieklowleftthai" unicode="&#xf705;" 
d="M-504 1143l1 -2q-1 18 10 28.5t27 9.5q37 -2 46 -40v3q8 -61 2 -164q-1 -21 -13.5 -32.5t-27.5 -10.5q-10 0 -19 10t-12 24q2 75 -14 174z" />
    <glyph glyph-name="maieklowleftthai" unicode="&#x2020;" 
d="M-504 1143l1 -2q-1 18 10 28.5t27 9.5q37 -2 46 -40v3q8 -61 2 -164q-1 -21 -13.5 -32.5t-27.5 -10.5q-10 0 -19 10t-12 24q2 75 -14 174z" />
    <glyph glyph-name="maitholowleftthai" 
d="M-745 930q4 13 16 21t26 6q12 -1 32.5 -6t38.5 -4q22 1 55 46q-39 -12 -72.5 -11t-55.5 26.5t-22 71.5q0 30 30.5 58t57.5 31q83 11 120.5 -30t21.5 -101.5t-71 -104.5q92 9 142.5 43.5t99.5 102.5q9 11 26 15t32 -5q31 -21 7 -53q-86 -114 -190.5 -147t-264.5 4
q-14 3 -23 14.5t-6 22.5zM-681 1083q-3 -30 16.5 -46t45 -16t47.5 13t25 34q3 32 -14 51t-41 21t-47.5 -13t-31.5 -44z" />
    <glyph glyph-name="maitholowleftthai" unicode="&#xf706;" 
d="M-745 930q4 13 16 21t26 6q12 -1 32.5 -6t38.5 -4q22 1 55 46q-39 -12 -72.5 -11t-55.5 26.5t-22 71.5q0 30 30.5 58t57.5 31q83 11 120.5 -30t21.5 -101.5t-71 -104.5q92 9 142.5 43.5t99.5 102.5q9 11 26 15t32 -5q31 -21 7 -53q-86 -114 -190.5 -147t-264.5 4
q-14 3 -23 14.5t-6 22.5zM-681 1083q-3 -30 16.5 -46t45 -16t47.5 13t25 34q3 32 -14 51t-41 21t-47.5 -13t-31.5 -44z" />
    <glyph glyph-name="maitholowleftthai" unicode="&#x2021;" 
d="M-745 930q4 13 16 21t26 6q12 -1 32.5 -6t38.5 -4q22 1 55 46q-39 -12 -72.5 -11t-55.5 26.5t-22 71.5q0 30 30.5 58t57.5 31q83 11 120.5 -30t21.5 -101.5t-71 -104.5q92 9 142.5 43.5t99.5 102.5q9 11 26 15t32 -5q31 -21 7 -53q-86 -114 -190.5 -147t-264.5 4
q-14 3 -23 14.5t-6 22.5zM-681 1083q-3 -30 16.5 -46t45 -16t47.5 13t25 34q3 32 -14 51t-41 21t-47.5 -13t-31.5 -44z" />
    <glyph glyph-name="maitrilowleftthai" 
d="M-585 1026q-2 46 -28.5 75.5t-62.5 26t-63 -45.5q38 3 68 -11t43.5 -38t15 -51.5t-15.5 -54.5t-50 -44q-60 -30 -103.5 13t-42 110.5t43.5 123.5q39 42 85 53t97 -15q19 -10 36 -34q11 26 23 39q23 24 58.5 15t43.5 -42q5 -20 6.5 -45.5t0 -43.5t-4.5 -48.5t-4 -44.5
q64 -2 98.5 45.5t16.5 135.5q-5 24 11 33q13 7 23.5 -0.5t15.5 -19.5q32 -81 -22 -170q-40 -68 -98 -89q-64 -21 -94 37q-11 22 -2.5 109t-5.5 91q-11 -13 -24 -54t-25 -54q-15 -9 -21 -10t-19 8zM-755 1031q-28 -16 -21.5 -54t41.5 -48q51 -14 65 25q11 33 -11 65
q-29 38 -74 12z" />
    <glyph glyph-name="maitrilowleftthai" unicode="&#xf707;" 
d="M-585 1026q-2 46 -28.5 75.5t-62.5 26t-63 -45.5q38 3 68 -11t43.5 -38t15 -51.5t-15.5 -54.5t-50 -44q-60 -30 -103.5 13t-42 110.5t43.5 123.5q39 42 85 53t97 -15q19 -10 36 -34q11 26 23 39q23 24 58.5 15t43.5 -42q5 -20 6.5 -45.5t0 -43.5t-4.5 -48.5t-4 -44.5
q64 -2 98.5 45.5t16.5 135.5q-5 24 11 33q13 7 23.5 -0.5t15.5 -19.5q32 -81 -22 -170q-40 -68 -98 -89q-64 -21 -94 37q-11 22 -2.5 109t-5.5 91q-11 -13 -24 -54t-25 -54q-15 -9 -21 -10t-19 8zM-755 1031q-28 -16 -21.5 -54t41.5 -48q51 -14 65 25q11 33 -11 65
q-29 38 -74 12z" />
    <glyph glyph-name="maitrilowleftthai" unicode="&#x2c6;" 
d="M-585 1026q-2 46 -28.5 75.5t-62.5 26t-63 -45.5q38 3 68 -11t43.5 -38t15 -51.5t-15.5 -54.5t-50 -44q-60 -30 -103.5 13t-42 110.5t43.5 123.5q39 42 85 53t97 -15q19 -10 36 -34q11 26 23 39q23 24 58.5 15t43.5 -42q5 -20 6.5 -45.5t0 -43.5t-4.5 -48.5t-4 -44.5
q64 -2 98.5 45.5t16.5 135.5q-5 24 11 33q13 7 23.5 -0.5t15.5 -19.5q32 -81 -22 -170q-40 -68 -98 -89q-64 -21 -94 37q-11 22 -2.5 109t-5.5 91q-11 -13 -24 -54t-25 -54q-15 -9 -21 -10t-19 8zM-755 1031q-28 -16 -21.5 -54t41.5 -48q51 -14 65 25q11 33 -11 65
q-29 38 -74 12z" />
    <glyph glyph-name="maichattawalowleftthai" 
d="M-580 1016q-8 -4 -21 -6q-36 8 -36 32q0 22 30 32q7 1 18 4.5t13 3.5q6 -1 15 -1q3 0 25 -0.5t25 -0.5q-3 54 -3 97q7 32 32 32q21 0 32 -31q0 -6 0.5 -16t0.5 -17v-71q44 0 62 -2q22 -2 38 -2q30 -10 30 -32t-31 -32q-23 0 -29 1q-16 2 -65 2q-3 -18 -6 -66
q-2 -26 -2 -31q-12 -25 -32 -25q-10 0 -19 10.5t-12 25.5q0 18 1 25q0 32 8 62q-38 6 -53 6q-13 1 -21 0zM-599 1010h-2h-2h4zM-575 1083l-1 -1z" />
    <glyph glyph-name="maichattawalowleftthai" unicode="&#xf708;" 
d="M-580 1016q-8 -4 -21 -6q-36 8 -36 32q0 22 30 32q7 1 18 4.5t13 3.5q6 -1 15 -1q3 0 25 -0.5t25 -0.5q-3 54 -3 97q7 32 32 32q21 0 32 -31q0 -6 0.5 -16t0.5 -17v-71q44 0 62 -2q22 -2 38 -2q30 -10 30 -32t-31 -32q-23 0 -29 1q-16 2 -65 2q-3 -18 -6 -66
q-2 -26 -2 -31q-12 -25 -32 -25q-10 0 -19 10.5t-12 25.5q0 18 1 25q0 32 8 62q-38 6 -53 6q-13 1 -21 0zM-599 1010h-2h-2h4zM-575 1083l-1 -1z" />
    <glyph glyph-name="maichattawalowleftthai" unicode="&#x2030;" 
d="M-580 1016q-8 -4 -21 -6q-36 8 -36 32q0 22 30 32q7 1 18 4.5t13 3.5q6 -1 15 -1q3 0 25 -0.5t25 -0.5q-3 54 -3 97q7 32 32 32q21 0 32 -31q0 -6 0.5 -16t0.5 -17v-71q44 0 62 -2q22 -2 38 -2q30 -10 30 -32t-31 -32q-23 0 -29 1q-16 2 -65 2q-3 -18 -6 -66
q-2 -26 -2 -31q-12 -25 -32 -25q-10 0 -19 10.5t-12 25.5q0 18 1 25q0 32 8 62q-38 6 -53 6q-13 1 -21 0zM-599 1010h-2h-2h4zM-575 1083l-1 -1z" />
    <glyph glyph-name="thanthakhatlowleftthai" 
d="M-245 1294q14 0 26.5 -14t11.5 -33q-9 -62 -51 -100t-133 -56q23 -8 38 -19.5t19.5 -26t5.5 -24.5t-0.5 -25t-1.5 -18q0 -47 -40 -81t-98 -34q-55 0 -95 30.5t-40 93.5q0 69 39.5 99.5t112.5 46.5q34 8 54.5 14t49 19t46.5 33.5t28 48.5q1 4 3.5 11.5l3.5 10.5t3 8t3.5 7
t4 4.5t5 3.5t5.5 1zM-483 1061q-21 -5 -40.5 -26t-19.5 -40q0 -63 68 -72q31 -4 62.5 12.5t33.5 51.5q2 27 -28 55.5t-76 18.5z" />
    <glyph glyph-name="thanthakhatlowleftthai" unicode="&#xf709;" 
d="M-245 1294q14 0 26.5 -14t11.5 -33q-9 -62 -51 -100t-133 -56q23 -8 38 -19.5t19.5 -26t5.5 -24.5t-0.5 -25t-1.5 -18q0 -47 -40 -81t-98 -34q-55 0 -95 30.5t-40 93.5q0 69 39.5 99.5t112.5 46.5q34 8 54.5 14t49 19t46.5 33.5t28 48.5q1 4 3.5 11.5l3.5 10.5t3 8t3.5 7
t4 4.5t5 3.5t5.5 1zM-483 1061q-21 -5 -40.5 -26t-19.5 -40q0 -63 68 -72q31 -4 62.5 12.5t33.5 51.5q2 27 -28 55.5t-76 18.5z" />
    <glyph glyph-name="thanthakhatlowleftthai" unicode="&#x160;" 
d="M-245 1294q14 0 26.5 -14t11.5 -33q-9 -62 -51 -100t-133 -56q23 -8 38 -19.5t19.5 -26t5.5 -24.5t-0.5 -25t-1.5 -18q0 -47 -40 -81t-98 -34q-55 0 -95 30.5t-40 93.5q0 69 39.5 99.5t112.5 46.5q34 8 54.5 14t49 19t46.5 33.5t28 48.5q1 4 3.5 11.5l3.5 10.5t3 8t3.5 7
t4 4.5t5 3.5t5.5 1zM-483 1061q-21 -5 -40.5 -26t-19.5 -40q0 -63 68 -72q31 -4 62.5 12.5t33.5 51.5q2 27 -28 55.5t-76 18.5z" />
    <glyph glyph-name="maieklowrightthai" 
d="M-226 1140q5 27 34.5 26.5t37.5 -27.5q0 -25 -1 -87t-1 -88q-1 -19 -18 -27t-34.5 0t-19.5 28q0 26 1 87.5t1 87.5z" />
    <glyph glyph-name="maieklowrightthai" unicode="&#xf70a;" 
d="M-226 1140q5 27 34.5 26.5t37.5 -27.5q0 -25 -1 -87t-1 -88q-1 -19 -18 -27t-34.5 0t-19.5 28q0 26 1 87.5t1 87.5z" />
    <glyph glyph-name="maieklowrightthai" unicode="&#x2039;" 
d="M-226 1140q5 27 34.5 26.5t37.5 -27.5q0 -25 -1 -87t-1 -88q-1 -19 -18 -27t-34.5 0t-19.5 28q0 26 1 87.5t1 87.5z" />
    <glyph glyph-name="maitholowrightthai" 
d="M-517 960q5 13 17.5 21t27.5 7q13 -2 34.5 -7.5t38.5 -4.5q24 1 57 49q-40 -12 -74.5 -11t-58 27t-23.5 74q0 33 32 61.5t61 32.5q87 11 125.5 -32t22 -106t-73.5 -109q51 5 90 17.5t68.5 35t49 43.5t45.5 56q9 12 26.5 16t32.5 -5q35 -22 8 -55q-89 -119 -198.5 -154
t-276.5 4q-15 3 -24.5 15.5t-6.5 24.5zM-450 1119q-2 -25 11 -41.5t33.5 -20.5t41 -1t36.5 16t18 30q3 34 -15 54.5t-43 22t-49.5 -14t-32.5 -45.5z" />
    <glyph glyph-name="maitholowrightthai" unicode="&#xf70b;" 
d="M-517 960q5 13 17.5 21t27.5 7q13 -2 34.5 -7.5t38.5 -4.5q24 1 57 49q-40 -12 -74.5 -11t-58 27t-23.5 74q0 33 32 61.5t61 32.5q87 11 125.5 -32t22 -106t-73.5 -109q51 5 90 17.5t68.5 35t49 43.5t45.5 56q9 12 26.5 16t32.5 -5q35 -22 8 -55q-89 -119 -198.5 -154
t-276.5 4q-15 3 -24.5 15.5t-6.5 24.5zM-450 1119q-2 -25 11 -41.5t33.5 -20.5t41 -1t36.5 16t18 30q3 34 -15 54.5t-43 22t-49.5 -14t-32.5 -45.5z" />
    <glyph glyph-name="maitholowrightthai" unicode="&#x152;" 
d="M-517 960q5 13 17.5 21t27.5 7q13 -2 34.5 -7.5t38.5 -4.5q24 1 57 49q-40 -12 -74.5 -11t-58 27t-23.5 74q0 33 32 61.5t61 32.5q87 11 125.5 -32t22 -106t-73.5 -109q51 5 90 17.5t68.5 35t49 43.5t45.5 56q9 12 26.5 16t32.5 -5q35 -22 8 -55q-89 -119 -198.5 -154
t-276.5 4q-15 3 -24.5 15.5t-6.5 24.5zM-450 1119q-2 -25 11 -41.5t33.5 -20.5t41 -1t36.5 16t18 30q3 34 -15 54.5t-43 22t-49.5 -14t-32.5 -45.5z" />
    <glyph glyph-name="maitrilowrightthai" 
d="M-315 1026q-2 46 -28.5 75.5t-62.5 26t-63 -45.5q38 3 68 -11t43.5 -38t15 -51.5t-15.5 -54.5t-50 -44q-60 -30 -103.5 13t-42 110.5t43.5 123.5q39 42 85 53t97 -15q19 -10 36 -34q11 26 23 39q23 24 58.5 15t43.5 -42q5 -20 6.5 -45.5t0 -43.5t-4.5 -48.5t-4 -44.5
q64 -2 98.5 45.5t16.5 135.5q-5 24 11 33q13 7 23.5 -0.5t15.5 -19.5q32 -81 -22 -170q-40 -68 -98 -89q-64 -23 -94 37q-11 22 -2.5 109t-5.5 91q-11 -13 -24 -54t-25 -54q-15 -9 -21 -10t-19 8zM-485 1031q-28 -16 -21.5 -54t41.5 -48q51 -14 65 25q11 33 -11 65
q-29 38 -74 12z" />
    <glyph glyph-name="maitrilowrightthai" unicode="&#xf70c;" 
d="M-315 1026q-2 46 -28.5 75.5t-62.5 26t-63 -45.5q38 3 68 -11t43.5 -38t15 -51.5t-15.5 -54.5t-50 -44q-60 -30 -103.5 13t-42 110.5t43.5 123.5q39 42 85 53t97 -15q19 -10 36 -34q11 26 23 39q23 24 58.5 15t43.5 -42q5 -20 6.5 -45.5t0 -43.5t-4.5 -48.5t-4 -44.5
q64 -2 98.5 45.5t16.5 135.5q-5 24 11 33q13 7 23.5 -0.5t15.5 -19.5q32 -81 -22 -170q-40 -68 -98 -89q-64 -23 -94 37q-11 22 -2.5 109t-5.5 91q-11 -13 -24 -54t-25 -54q-15 -9 -21 -10t-19 8zM-485 1031q-28 -16 -21.5 -54t41.5 -48q51 -14 65 25q11 33 -11 65
q-29 38 -74 12z" />
    <glyph glyph-name="maichattawalowrightthai" 
d="M-245 1015l-84 6q-16 3 -25 11.5t-9 18.5q0 21 28 31q12 11 93 6q-3 51 -3 94q7 30 31 30q20 0 30 -29v-12.5t0.5 -30.5t0.5 -58q37 0 56 -2t40 -2q30 -9 30 -30t-31 -31q-18 0 -35 1.5t-54 1.5q-3 -20 -3 -91q-5 -11 -16 -19t-20 -8t-18 10t-12 25q0 9 -1 24t-1 27.5
t3 26.5zM-327 1021h-2h-2h4z" />
    <glyph glyph-name="maichattawalowrightthai" unicode="&#xf70d;" 
d="M-245 1015l-84 6q-16 3 -25 11.5t-9 18.5q0 21 28 31q12 11 93 6q-3 51 -3 94q7 30 31 30q20 0 30 -29v-12.5t0.5 -30.5t0.5 -58q37 0 56 -2t40 -2q30 -9 30 -30t-31 -31q-18 0 -35 1.5t-54 1.5q-3 -20 -3 -91q-5 -11 -16 -19t-20 -8t-18 10t-12 25q0 9 -1 24t-1 27.5
t3 26.5zM-327 1021h-2h-2h4z" />
    <glyph glyph-name="maichattawalowrightthai" unicode="&#x17d;" 
d="M-245 1015l-84 6q-16 3 -25 11.5t-9 18.5q0 21 28 31q12 11 93 6q-3 51 -3 94q7 30 31 30q20 0 30 -29v-12.5t0.5 -30.5t0.5 -58q37 0 56 -2t40 -2q30 -9 30 -30t-31 -31q-18 0 -35 1.5t-54 1.5q-3 -20 -3 -91q-5 -11 -16 -19t-20 -8t-18 10t-12 25q0 9 -1 24t-1 27.5
t3 26.5zM-327 1021h-2h-2h4z" />
    <glyph glyph-name="thanthakhatlowrightthai" 
d="M-77 1270q13 0 22 -11t8 -30q-9 -61 -37.5 -86t-120.5 -43q20 -6 34 -16t21 -18t10.5 -21.5t4 -19.5t0 -19t-0.5 -14q0 -47 -40 -81t-98 -34q-55 0 -95 30.5t-40 93.5q0 69 39.5 99.5t112.5 46.5q16 4 39 6.5t37 5t30 8.5t27 20t19 37q1 4 3.5 11.5l3.5 10.5t3 8t3.5 7
t4 4.5t5 3.5t5.5 1zM-284 1063q-22 -5 -39.5 -21.5t-17.5 -35.5q0 -33 13 -49t47 -20q30 -4 54.5 9.5t26.5 48.5q2 29 -18.5 53.5t-65.5 14.5z" />
    <glyph glyph-name="thanthakhatlowrightthai" unicode="&#xf70e;" 
d="M-77 1270q13 0 22 -11t8 -30q-9 -61 -37.5 -86t-120.5 -43q20 -6 34 -16t21 -18t10.5 -21.5t4 -19.5t0 -19t-0.5 -14q0 -47 -40 -81t-98 -34q-55 0 -95 30.5t-40 93.5q0 69 39.5 99.5t112.5 46.5q16 4 39 6.5t37 5t30 8.5t27 20t19 37q1 4 3.5 11.5l3.5 10.5t3 8t3.5 7
t4 4.5t5 3.5t5.5 1zM-284 1063q-22 -5 -39.5 -21.5t-17.5 -35.5q0 -33 13 -49t47 -20q30 -4 54.5 9.5t26.5 48.5q2 29 -18.5 53.5t-65.5 14.5z" />
    <glyph glyph-name="yoyingnobasethai" horiz-adv-x="1130" 
d="M1043 741q-1 -68 3.5 -211.5t2 -266t-17.5 -250.5q-3 -23 -104 -28t-201.5 2t-106.5 13q-23 20 -23 82q0 9 7 66t14 121.5t4.5 144t-15.5 142t-52 106t-101 45.5q-65 2 -125 -17t-109.5 -67.5t-62.5 -119.5q36 2 58.5 -1.5t37.5 -23t10 -55.5q-1 -4 -18.5 -69t-25.5 -150
q50 33 95.5 31.5t78 -34.5t33.5 -82q2 -56 -39 -104.5t-112 -47.5q-24 0 -47 7t-45.5 22t-35 45t-10.5 71q3 50 23 156t35 164q-82 -13 -104 11t-12 70q11 54 33 96t53 70t65.5 47.5t77 29.5t81.5 14t84 4t80.5 -14.5t60 -37t42 -59t27 -72.5t14 -86t4.5 -90t-3 -93.5
t-6.5 -89t-8.5 -84t-7 -70.5q-1 -9 10.5 -15t33 -9t45.5 -3.5t55 -0.5q137 2 144 25q12 38 13.5 163.5t-1.5 298.5t-3 209q8 27 33 27t38 -32zM363 118q-1 29 -22 44.5t-50 15.5q-34 0 -58.5 -21t-21.5 -56q2 -36 24 -55.5t51 -19.5q33 0 56.5 24.5t20.5 67.5z" />
    <glyph glyph-name="yoyingnobasethai" unicode="&#xf70f;" horiz-adv-x="1130" 
d="M1043 741q-1 -68 3.5 -211.5t2 -266t-17.5 -250.5q-3 -23 -104 -28t-201.5 2t-106.5 13q-23 20 -23 82q0 9 7 66t14 121.5t4.5 144t-15.5 142t-52 106t-101 45.5q-65 2 -125 -17t-109.5 -67.5t-62.5 -119.5q36 2 58.5 -1.5t37.5 -23t10 -55.5q-1 -4 -18.5 -69t-25.5 -150
q50 33 95.5 31.5t78 -34.5t33.5 -82q2 -56 -39 -104.5t-112 -47.5q-24 0 -47 7t-45.5 22t-35 45t-10.5 71q3 50 23 156t35 164q-82 -13 -104 11t-12 70q11 54 33 96t53 70t65.5 47.5t77 29.5t81.5 14t84 4t80.5 -14.5t60 -37t42 -59t27 -72.5t14 -86t4.5 -90t-3 -93.5
t-6.5 -89t-8.5 -84t-7 -70.5q-1 -9 10.5 -15t33 -9t45.5 -3.5t55 -0.5q137 2 144 25q12 38 13.5 163.5t-1.5 298.5t-3 209q8 27 33 27t38 -32zM363 118q-1 29 -22 44.5t-50 15.5q-34 0 -58.5 -21t-21.5 -56q2 -36 24 -55.5t51 -19.5q33 0 56.5 24.5t20.5 67.5z" />
    <glyph glyph-name="quoteleft" horiz-adv-x="369" 
d="M188 875q-65 -1 -94 28.5t-29 75.5q0 87 49 149.5t137 82.5q28 1 34 -14q4 -10 4.5 -15t-9 -14t-33.5 -15q-77 -22 -99 -80q35 15 60 12.5t41.5 -12.5t26 -29t13 -36t3.5 -33q0 -38 -30 -68.5t-74 -31.5zM198 920q24 5 36 21t12 34q0 29 -18.5 46t-48.5 17q-20 0 -33 -8
t-26 -31q-14 -38 13.5 -61.5t64.5 -17.5z" />
    <glyph glyph-name="quoteleft" unicode="&#x2018;" horiz-adv-x="369" 
d="M188 875q-65 -1 -94 28.5t-29 75.5q0 87 49 149.5t137 82.5q28 1 34 -14q4 -10 4.5 -15t-9 -14t-33.5 -15q-77 -22 -99 -80q35 15 60 12.5t41.5 -12.5t26 -29t13 -36t3.5 -33q0 -38 -30 -68.5t-74 -31.5zM198 920q24 5 36 21t12 34q0 29 -18.5 46t-48.5 17q-20 0 -33 -8
t-26 -31q-14 -38 13.5 -61.5t64.5 -17.5z" />
    <glyph glyph-name="quoteright" horiz-adv-x="392" 
d="M186 1211q65 1 94 -28.5t29 -75.5q0 -87 -49 -149.5t-137 -82.5q-28 -1 -34 14q-4 10 -4.5 15t9 14t33.5 15q77 22 99 80q-35 -15 -60 -12.5t-41.5 12.5t-26 29t-13 36t-3.5 33q0 38 30 68.5t74 31.5zM176 1166q-24 -5 -36 -21t-12 -34q0 -29 18.5 -46t48.5 -17
q20 0 33 8t26 31q14 38 -13.5 61.5t-64.5 17.5z" />
    <glyph glyph-name="quoteright" unicode="&#x2019;" horiz-adv-x="392" 
d="M186 1211q65 1 94 -28.5t29 -75.5q0 -87 -49 -149.5t-137 -82.5q-28 -1 -34 14q-4 10 -4.5 15t9 14t33.5 15q77 22 99 80q-35 -15 -60 -12.5t-41.5 12.5t-26 29t-13 36t-3.5 33q0 38 30 68.5t74 31.5zM176 1166q-24 -5 -36 -21t-12 -34q0 -29 18.5 -46t48.5 -17
q20 0 33 8t26 31q14 38 -13.5 61.5t-64.5 17.5z" />
    <glyph glyph-name="bullet" horiz-adv-x="708" 
d="M366 145q-102 0 -173.5 71t-71.5 174q0 99 71.5 172t173.5 73q99 0 172 -71.5t73 -173.5q0 -100 -72.5 -172.5t-172.5 -72.5z" />
    <glyph glyph-name="bullet" unicode="&#x2022;" horiz-adv-x="708" 
d="M366 145q-102 0 -173.5 71t-71.5 174q0 99 71.5 172t173.5 73q99 0 172 -71.5t73 -173.5q0 -100 -72.5 -172.5t-172.5 -72.5z" />
    <glyph glyph-name="endash" horiz-adv-x="862" 
d="M813 485l-755 3q-18 2 -27.5 11.5t-9.5 20.5q0 12 10.5 21.5t30.5 10.5l752 -3q30 -10 30 -32t-31 -32z" />
    <glyph glyph-name="endash" unicode="&#x2013;" horiz-adv-x="862" 
d="M813 485l-755 3q-18 2 -27.5 11.5t-9.5 20.5q0 12 10.5 21.5t30.5 10.5l752 -3q30 -10 30 -32t-31 -32z" />
    <glyph glyph-name="emdash" horiz-adv-x="1292" 
d="M1283 453q-505 10 -1272 -14q-18 2 -28 11t-10 20q0 20 25 32q58 7 188.5 12t413 8.5t687.5 -4.5q30 -9 30 -31q0 -10 -10 -19.5t-24 -14.5zM3 438l10 1h-2q-3 -1 -8 -1z" />
    <glyph glyph-name="emdash" unicode="&#x2014;" horiz-adv-x="1292" 
d="M1283 453q-505 10 -1272 -14q-18 2 -28 11t-10 20q0 20 25 32q58 7 188.5 12t413 8.5t687.5 -4.5q30 -9 30 -31q0 -10 -10 -19.5t-24 -14.5zM3 438l10 1h-2q-3 -1 -8 -1z" />
    <glyph glyph-name="maihanakatleftthai" 
d="M-781 1014q-4 69 37 109t102 43q87 5 125.5 -58t-0.5 -145q27 -4 62.5 6.5t81.5 50.5t76 104q18 39 54 29q20 -14 22 -22t-10 -37q-48 -111 -142.5 -161t-215.5 -46q-49 1 -88.5 11.5t-70 40t-33.5 75.5zM-634 1119q-36 -1 -59 -25t-26 -53.5t17 -55t60 -29.5
q47 -4 68.5 37t4 84t-64.5 42z" />
    <glyph glyph-name="maihanakatleftthai" unicode="&#xf710;" 
d="M-781 1014q-4 69 37 109t102 43q87 5 125.5 -58t-0.5 -145q27 -4 62.5 6.5t81.5 50.5t76 104q18 39 54 29q20 -14 22 -22t-10 -37q-48 -111 -142.5 -161t-215.5 -46q-49 1 -88.5 11.5t-70 40t-33.5 75.5zM-634 1119q-36 -1 -59 -25t-26 -53.5t17 -55t60 -29.5
q47 -4 68.5 37t4 84t-64.5 42z" />
    <glyph glyph-name="maihanakatleftthai" unicode="&#x2dc;" 
d="M-781 1014q-4 69 37 109t102 43q87 5 125.5 -58t-0.5 -145q27 -4 62.5 6.5t81.5 50.5t76 104q18 39 54 29q20 -14 22 -22t-10 -37q-48 -111 -142.5 -161t-215.5 -46q-49 1 -88.5 11.5t-70 40t-33.5 75.5zM-634 1119q-36 -1 -59 -25t-26 -53.5t17 -55t60 -29.5
q47 -4 68.5 37t4 84t-64.5 42z" />
    <glyph glyph-name="nikhahitleftthai" 
d="M-520 1191q49 6 85 -9t53.5 -43t25 -55t7.5 -52q-1 -54 -49 -97.5t-103 -43.5t-104 52t-46 108q7 125 131 140zM-419 1035q-2 46 -21 66.5t-58 20.5q-30 0 -57 -21.5t-27 -50.5q0 -27 20 -60t64 -31q30 2 55 23t24 53z" />
    <glyph glyph-name="nikhahitleftthai" unicode="&#xf711;" 
d="M-520 1191q49 6 85 -9t53.5 -43t25 -55t7.5 -52q-1 -54 -49 -97.5t-103 -43.5t-104 52t-46 108q7 125 131 140zM-419 1035q-2 46 -21 66.5t-58 20.5q-30 0 -57 -21.5t-27 -50.5q0 -27 20 -60t64 -31q30 2 55 23t24 53z" />
    <glyph glyph-name="nikhahitleftthai" unicode="&#x2122;" 
d="M-520 1191q49 6 85 -9t53.5 -43t25 -55t7.5 -52q-1 -54 -49 -97.5t-103 -43.5t-104 52t-46 108q7 125 131 140zM-419 1035q-2 46 -21 66.5t-58 20.5q-30 0 -57 -21.5t-27 -50.5q0 -27 20 -60t64 -31q30 2 55 23t24 53z" />
    <glyph glyph-name="maitaikhuleftthai" 
d="M-505 966q-19 41 -19 74t15.5 52.5t40 32t55.5 13t61 -3.5q48 -10 64 -66q17 -63 -18 -117q-47 -74 -154 -56q-3 1 -5 1l-11 2q-10 2 -16 3.5t-18.5 5t-23.5 9t-24 13.5t-26.5 19t-25.5 25q-10 -16 -18.5 -43.5t-19.5 -35.5t-42 -5q-44 5 -76 38.5t-32 111.5
q0 87 51.5 135.5t143.5 48.5q21 0 61.5 -3t64.5 -2.5t55.5 6t58 23.5t50.5 49q18 -1 29.5 -9t11.5 -20v-5q1 -6 0.5 -9.5t-2.5 -9.5t-7.5 -12.5t-14.5 -12.5q-1 0 -16.5 -11.5t-19 -13.5t-20.5 -10.5t-27 -10t-32 -6.5t-43.5 -4.5t-52.5 2t-67 5.5q-129 16 -157 -100
q-10 -38 1.5 -72t52.5 -40q0 2 2.5 13t3.5 14.5t3.5 13.5t5.5 14.5t7.5 12.5t10 12t13.5 8t17 6q11 2 18 -6t13 -21t26 -30t52 -28zM-423 1080q-22 -3 -36 -16.5t-16 -31t3.5 -34.5t22.5 -29t40 -12q29 0 48 19.5t19 48.5q-5 42 -44 53q-16 4 -37 2z" />
    <glyph glyph-name="maitaikhuleftthai" unicode="&#xf712;" 
d="M-505 966q-19 41 -19 74t15.5 52.5t40 32t55.5 13t61 -3.5q48 -10 64 -66q17 -63 -18 -117q-47 -74 -154 -56q-3 1 -5 1l-11 2q-10 2 -16 3.5t-18.5 5t-23.5 9t-24 13.5t-26.5 19t-25.5 25q-10 -16 -18.5 -43.5t-19.5 -35.5t-42 -5q-44 5 -76 38.5t-32 111.5
q0 87 51.5 135.5t143.5 48.5q21 0 61.5 -3t64.5 -2.5t55.5 6t58 23.5t50.5 49q18 -1 29.5 -9t11.5 -20v-5q1 -6 0.5 -9.5t-2.5 -9.5t-7.5 -12.5t-14.5 -12.5q-1 0 -16.5 -11.5t-19 -13.5t-20.5 -10.5t-27 -10t-32 -6.5t-43.5 -4.5t-52.5 2t-67 5.5q-129 16 -157 -100
q-10 -38 1.5 -72t52.5 -40q0 2 2.5 13t3.5 14.5t3.5 13.5t5.5 14.5t7.5 12.5t10 12t13.5 8t17 6q11 2 18 -6t13 -21t26 -30t52 -28zM-423 1080q-22 -3 -36 -16.5t-16 -31t3.5 -34.5t22.5 -29t40 -12q29 0 48 19.5t19 48.5q-5 42 -44 53q-16 4 -37 2z" />
    <glyph glyph-name="maitaikhuleftthai" unicode="&#x161;" 
d="M-505 966q-19 41 -19 74t15.5 52.5t40 32t55.5 13t61 -3.5q48 -10 64 -66q17 -63 -18 -117q-47 -74 -154 -56q-3 1 -5 1l-11 2q-10 2 -16 3.5t-18.5 5t-23.5 9t-24 13.5t-26.5 19t-25.5 25q-10 -16 -18.5 -43.5t-19.5 -35.5t-42 -5q-44 5 -76 38.5t-32 111.5
q0 87 51.5 135.5t143.5 48.5q21 0 61.5 -3t64.5 -2.5t55.5 6t58 23.5t50.5 49q18 -1 29.5 -9t11.5 -20v-5q1 -6 0.5 -9.5t-2.5 -9.5t-7.5 -12.5t-14.5 -12.5q-1 0 -16.5 -11.5t-19 -13.5t-20.5 -10.5t-27 -10t-32 -6.5t-43.5 -4.5t-52.5 2t-67 5.5q-129 16 -157 -100
q-10 -38 1.5 -72t52.5 -40q0 2 2.5 13t3.5 14.5t3.5 13.5t5.5 14.5t7.5 12.5t10 12t13.5 8t17 6q11 2 18 -6t13 -21t26 -30t52 -28zM-423 1080q-22 -3 -36 -16.5t-16 -31t3.5 -34.5t22.5 -29t40 -12q29 0 48 19.5t19 48.5q-5 42 -44 53q-16 4 -37 2z" />
    <glyph glyph-name="maiekupperleftthai" 
d="M-344 1531q5 27 31 22t34 -32q0 -33 -2.5 -98.5t-2.5 -99.5q-1 -19 -16.5 -25t-31 4.5t-17.5 30.5q0 33 2.5 99t2.5 99z" />
    <glyph glyph-name="maiekupperleftthai" unicode="&#xf713;" 
d="M-344 1531q5 27 31 22t34 -32q0 -33 -2.5 -98.5t-2.5 -99.5q-1 -19 -16.5 -25t-31 4.5t-17.5 30.5q0 33 2.5 99t2.5 99z" />
    <glyph glyph-name="maiekupperleftthai" unicode="&#x203a;" 
d="M-344 1531q5 27 31 22t34 -32q0 -33 -2.5 -98.5t-2.5 -99.5q-1 -19 -16.5 -25t-31 4.5t-17.5 30.5q0 33 2.5 99t2.5 99z" />
    <glyph glyph-name="maithoupperleftthai" 
d="M-628 1358q4 12 15 19t24 6q11 -1 30 -6t35 -4q21 1 51 43q-36 -11 -67 -10t-51.5 24.5t-20.5 65.5q0 28 28.5 54t53.5 29q77 10 111.5 -28t20 -94t-65.5 -97q59 6 103 26.5t67.5 44t53.5 64.5q8 11 24 14.5t29 -4.5q30 -20 7 -49q-80 -106 -176.5 -136.5t-244.5 3.5
q-13 3 -21.5 13.5t-5.5 21.5zM-569 1499q-2 -22 9.5 -36.5t29.5 -17.5t36.5 -0.5t32.5 13.5t16 27q4 40 -23 57.5t-59 5t-42 -48.5z" />
    <glyph glyph-name="maithoupperleftthai" unicode="&#xf714;" 
d="M-628 1358q4 12 15 19t24 6q11 -1 30 -6t35 -4q21 1 51 43q-36 -11 -67 -10t-51.5 24.5t-20.5 65.5q0 28 28.5 54t53.5 29q77 10 111.5 -28t20 -94t-65.5 -97q59 6 103 26.5t67.5 44t53.5 64.5q8 11 24 14.5t29 -4.5q30 -20 7 -49q-80 -106 -176.5 -136.5t-244.5 3.5
q-13 3 -21.5 13.5t-5.5 21.5zM-569 1499q-2 -22 9.5 -36.5t29.5 -17.5t36.5 -0.5t32.5 13.5t16 27q4 40 -23 57.5t-59 5t-42 -48.5z" />
    <glyph glyph-name="maithoupperleftthai" unicode="&#x153;" 
d="M-628 1358q4 12 15 19t24 6q11 -1 30 -6t35 -4q21 1 51 43q-36 -11 -67 -10t-51.5 24.5t-20.5 65.5q0 28 28.5 54t53.5 29q77 10 111.5 -28t20 -94t-65.5 -97q59 6 103 26.5t67.5 44t53.5 64.5q8 11 24 14.5t29 -4.5q30 -20 7 -49q-80 -106 -176.5 -136.5t-244.5 3.5
q-13 3 -21.5 13.5t-5.5 21.5zM-569 1499q-2 -22 9.5 -36.5t29.5 -17.5t36.5 -0.5t32.5 13.5t16 27q4 40 -23 57.5t-59 5t-42 -48.5z" />
    <glyph glyph-name="maitriupperleftthai" 
d="M-487 1427q-2 46 -28.5 75.5t-62.5 26t-63 -45.5q38 3 68 -11t43.5 -38t15 -51.5t-15.5 -54.5t-50 -44q-60 -30 -103.5 13t-42 110.5t43.5 123.5q39 42 85 53t97 -15q19 -10 36 -34q11 26 23 39q23 24 58.5 15t43.5 -42q5 -20 6.5 -45.5t0 -43.5t-4.5 -48.5t-4 -44.5
q64 -2 98.5 45.5t16.5 135.5q-5 24 11 33q13 7 23.5 -0.5t15.5 -19.5q32 -81 -22 -170q-40 -68 -98 -89q-64 -21 -94 37q-11 22 -2.5 109t-5.5 91q-11 -13 -24 -54t-25 -54q-15 -9 -21 -10t-19 8zM-657 1432q-28 -16 -21.5 -54t41.5 -48q51 -14 65 25q11 33 -11 65
q-29 38 -74 12z" />
    <glyph glyph-name="maitriupperleftthai" unicode="&#xf715;" 
d="M-487 1427q-2 46 -28.5 75.5t-62.5 26t-63 -45.5q38 3 68 -11t43.5 -38t15 -51.5t-15.5 -54.5t-50 -44q-60 -30 -103.5 13t-42 110.5t43.5 123.5q39 42 85 53t97 -15q19 -10 36 -34q11 26 23 39q23 24 58.5 15t43.5 -42q5 -20 6.5 -45.5t0 -43.5t-4.5 -48.5t-4 -44.5
q64 -2 98.5 45.5t16.5 135.5q-5 24 11 33q13 7 23.5 -0.5t15.5 -19.5q32 -81 -22 -170q-40 -68 -98 -89q-64 -21 -94 37q-11 22 -2.5 109t-5.5 91q-11 -13 -24 -54t-25 -54q-15 -9 -21 -10t-19 8zM-657 1432q-28 -16 -21.5 -54t41.5 -48q51 -14 65 25q11 33 -11 65
q-29 38 -74 12z" />
    <glyph glyph-name="maichattawaupperleftthai" 
d="M-361 1465q-8 1 -23 2.5t-24 2t-22 -0.5t-25 -4q-36 8 -36 32q0 21 30 32q14 11 96 6q-3 54 -3 97q7 32 32 32q21 0 32 -31v-10.5t0.5 -15t0.5 -29v-49.5q38 0 58 -2t42 -2q30 -9 30 -31t-32 -33q-19 0 -36.5 1.5t-56.5 1.5q-7 -72 -8 -97q-12 -25 -32 -25
q-10 0 -19 10.5t-12 26.5q2 60 8 86zM-453 1465h-2h-2h4z" />
    <glyph glyph-name="maichattawaupperleftthai" unicode="&#xf716;" 
d="M-361 1465q-8 1 -23 2.5t-24 2t-22 -0.5t-25 -4q-36 8 -36 32q0 21 30 32q14 11 96 6q-3 54 -3 97q7 32 32 32q21 0 32 -31v-10.5t0.5 -15t0.5 -29v-49.5q38 0 58 -2t42 -2q30 -9 30 -31t-32 -33q-19 0 -36.5 1.5t-56.5 1.5q-7 -72 -8 -97q-12 -25 -32 -25
q-10 0 -19 10.5t-12 26.5q2 60 8 86zM-453 1465h-2h-2h4z" />
    <glyph glyph-name="maichattawaupperleftthai" unicode="&#x17e;" 
d="M-361 1465q-8 1 -23 2.5t-24 2t-22 -0.5t-25 -4q-36 8 -36 32q0 21 30 32q14 11 96 6q-3 54 -3 97q7 32 32 32q21 0 32 -31v-10.5t0.5 -15t0.5 -29v-49.5q38 0 58 -2t42 -2q30 -9 30 -31t-32 -33q-19 0 -36.5 1.5t-56.5 1.5q-7 -72 -8 -97q-12 -25 -32 -25
q-10 0 -19 10.5t-12 26.5q2 60 8 86zM-453 1465h-2h-2h4z" />
    <glyph glyph-name="thanthakhatupperleftthai" 
d="M-155 1650q13 0 22 -11t8 -30q-19 -134 -184 -167q20 -6 34 -16t21 -18t10.5 -21.5t4 -19.5t0 -19t-0.5 -14q0 -47 -40 -81t-98 -34q-55 0 -95 30.5t-40 93.5q0 69 39.5 99.5t112.5 46.5q34 8 54.5 14t49 19t46.5 33.5t28 48.5q1 4 3.5 11.5l3.5 10.5t3 8t3.5 7t4 4.5
t5 3.5t5.5 1zM-388 1405q-22 -5 -39.5 -21.5t-17.5 -35.5q0 -33 13 -49t47 -20q30 -4 54.5 9.5t26.5 48.5q2 29 -18.5 53.5t-65.5 14.5z" />
    <glyph glyph-name="thanthakhatupperleftthai" unicode="&#xf717;" 
d="M-155 1650q13 0 22 -11t8 -30q-19 -134 -184 -167q20 -6 34 -16t21 -18t10.5 -21.5t4 -19.5t0 -19t-0.5 -14q0 -47 -40 -81t-98 -34q-55 0 -95 30.5t-40 93.5q0 69 39.5 99.5t112.5 46.5q34 8 54.5 14t49 19t46.5 33.5t28 48.5q1 4 3.5 11.5l3.5 10.5t3 8t3.5 7t4 4.5
t5 3.5t5.5 1zM-388 1405q-22 -5 -39.5 -21.5t-17.5 -35.5q0 -33 13 -49t47 -20q30 -4 54.5 9.5t26.5 48.5q2 29 -18.5 53.5t-65.5 14.5z" />
    <glyph glyph-name="thanthakhatupperleftthai" unicode="&#x178;" 
d="M-155 1650q13 0 22 -11t8 -30q-19 -134 -184 -167q20 -6 34 -16t21 -18t10.5 -21.5t4 -19.5t0 -19t-0.5 -14q0 -47 -40 -81t-98 -34q-55 0 -95 30.5t-40 93.5q0 69 39.5 99.5t112.5 46.5q34 8 54.5 14t49 19t46.5 33.5t28 48.5q1 4 3.5 11.5l3.5 10.5t3 8t3.5 7t4 4.5
t5 3.5t5.5 1zM-388 1405q-22 -5 -39.5 -21.5t-17.5 -35.5q0 -33 13 -49t47 -20q30 -4 54.5 9.5t26.5 48.5q2 29 -18.5 53.5t-65.5 14.5z" />
    <glyph glyph-name="uni00A0" unicode="&#xa0;" horiz-adv-x="925" 
 />
    <glyph glyph-name="uni00A0" unicode="&#xe00;" horiz-adv-x="925" 
 />
    <glyph glyph-name="kokaithai" unicode="&#xa1;" horiz-adv-x="825" 
d="M264 13q-2 -26 -14 -35.5t-33 -10.5q-13 -1 -25.5 7.5t-12.5 19.5q2 27 12.5 123.5t14 161t0.5 122.5q-1 17 -7 29t-15.5 18t-21.5 9t-26 3h-29q-50 0 -51 15q-4 76 65 150.5t165 119.5t179 50q56 3 101 -11t75.5 -40.5t53 -67t35 -84.5t19.5 -99.5t8.5 -105t-0.5 -109
t-5 -103.5t-6.5 -95t-4.5 -78q-10 -26 -31 -27q-20 -1 -33.5 8t-12.5 33q1 22 5.5 76.5t7 95.5t4.5 102.5t-2 108t-11.5 101t-24.5 92t-41.5 69.5t-62.5 46.5t-86 10.5q-117 -9 -199 -65t-106 -130q16 -3 40.5 -5t37 -4t27 -9.5t21 -24.5t8.5 -46q7 -117 -18 -421z" />
    <glyph glyph-name="kokaithai" unicode="&#xe01;" horiz-adv-x="825" 
d="M264 13q-2 -26 -14 -35.5t-33 -10.5q-13 -1 -25.5 7.5t-12.5 19.5q2 27 12.5 123.5t14 161t0.5 122.5q-1 17 -7 29t-15.5 18t-21.5 9t-26 3h-29q-50 0 -51 15q-4 76 65 150.5t165 119.5t179 50q56 3 101 -11t75.5 -40.5t53 -67t35 -84.5t19.5 -99.5t8.5 -105t-0.5 -109
t-5 -103.5t-6.5 -95t-4.5 -78q-10 -26 -31 -27q-20 -1 -33.5 8t-12.5 33q1 22 5.5 76.5t7 95.5t4.5 102.5t-2 108t-11.5 101t-24.5 92t-41.5 69.5t-62.5 46.5t-86 10.5q-117 -9 -199 -65t-106 -130q16 -3 40.5 -5t37 -4t27 -9.5t21 -24.5t8.5 -46q7 -117 -18 -421z" />
    <glyph glyph-name="khokhaithai" unicode="&#xa2;" horiz-adv-x="684" 
d="M389 -20q-34 2 -58.5 36t-35.5 83.5t-15.5 113t-3 116t5.5 101.5q-61 -36 -108.5 -28.5t-76 47t-28.5 94.5q0 76 58.5 150.5t133.5 74.5q23 0 40.5 -9t27.5 -28.5t16 -36.5t8.5 -47.5t3.5 -45t1 -45.5q0 -30 -2.5 -78t-4.5 -91t-4 -91.5t0 -87.5t7 -72t16.5 -51t29.5 -18
q39 -1 64.5 38t37 100.5t15.5 142t2.5 158.5t-3.5 156q-2 33 -2 49q-1 23 7 43.5t23 20.5q16 0 30 -8t15 -22q0 -15 2 -53q2 -49 3 -77.5t2 -86t-1 -95.5t-5 -94.5t-10.5 -94.5t-17.5 -84t-26 -75.5t-36.5 -56t-48.5 -38.5t-62 -10zM289 534q1 10 3 28.5t3 29t1 26.5
t-4 25.5t-10.5 19.5t-20 15.5t-31.5 6.5q-46 -4 -71 -41.5t-25 -90.5q0 -40 19 -61.5t44.5 -22t52 17t39.5 47.5z" />
    <glyph glyph-name="khokhaithai" unicode="&#xe02;" horiz-adv-x="684" 
d="M389 -20q-34 2 -58.5 36t-35.5 83.5t-15.5 113t-3 116t5.5 101.5q-61 -36 -108.5 -28.5t-76 47t-28.5 94.5q0 76 58.5 150.5t133.5 74.5q23 0 40.5 -9t27.5 -28.5t16 -36.5t8.5 -47.5t3.5 -45t1 -45.5q0 -30 -2.5 -78t-4.5 -91t-4 -91.5t0 -87.5t7 -72t16.5 -51t29.5 -18
q39 -1 64.5 38t37 100.5t15.5 142t2.5 158.5t-3.5 156q-2 33 -2 49q-1 23 7 43.5t23 20.5q16 0 30 -8t15 -22q0 -15 2 -53q2 -49 3 -77.5t2 -86t-1 -95.5t-5 -94.5t-10.5 -94.5t-17.5 -84t-26 -75.5t-36.5 -56t-48.5 -38.5t-62 -10zM289 534q1 10 3 28.5t3 29t1 26.5
t-4 25.5t-10.5 19.5t-20 15.5t-31.5 6.5q-46 -4 -71 -41.5t-25 -90.5q0 -40 19 -61.5t44.5 -22t52 17t39.5 47.5z" />
    <glyph glyph-name="khokhuatthai" unicode="&#xa3;" horiz-adv-x="753" 
d="M253 708q-7 -4 -13 -10t-9.5 -10t-9.5 -12.5t-9 -12.5q28 2 54 -23.5t38.5 -63t12.5 -75.5t-26 -65t-74 -28q-72 -1 -101.5 40t-18.5 102.5t53 130.5q46 75 108.5 89.5t99.5 -49.5q23 62 71 66q35 3 66 -56q19 -45 18 -88.5t-15.5 -108t-31 -121.5t-29 -129.5
t-9.5 -130.5q3 -73 48 -92q41 -18 81 25q51 56 54 173q6 256 6 486q7 31 32 31q20 0 32 -30q0 -38 -7 -482q-4 -274 -177 -278q-81 -1 -119 58.5t-28 143.5q5 40 17.5 97.5t26 109t27 106.5t22 96.5t7.5 72t-13 39.5q-25 18 -31 -31q-3 -15 -4 -52q-2 -29 -3 -40
q-8 -22 -28 -23t-30 20q-4 9 -8.5 26.5t-7.5 33t-9 33.5t-13 27t-20 13t-30 -8zM208 466q33 -2 46.5 33t-2 71.5t-54.5 37.5q-21 -24 -33.5 -55t-3.5 -58t47 -29z" />
    <glyph glyph-name="khokhuatthai" unicode="&#xe03;" horiz-adv-x="753" 
d="M253 708q-7 -4 -13 -10t-9.5 -10t-9.5 -12.5t-9 -12.5q28 2 54 -23.5t38.5 -63t12.5 -75.5t-26 -65t-74 -28q-72 -1 -101.5 40t-18.5 102.5t53 130.5q46 75 108.5 89.5t99.5 -49.5q23 62 71 66q35 3 66 -56q19 -45 18 -88.5t-15.5 -108t-31 -121.5t-29 -129.5
t-9.5 -130.5q3 -73 48 -92q41 -18 81 25q51 56 54 173q6 256 6 486q7 31 32 31q20 0 32 -30q0 -38 -7 -482q-4 -274 -177 -278q-81 -1 -119 58.5t-28 143.5q5 40 17.5 97.5t26 109t27 106.5t22 96.5t7.5 72t-13 39.5q-25 18 -31 -31q-3 -15 -4 -52q-2 -29 -3 -40
q-8 -22 -28 -23t-30 20q-4 9 -8.5 26.5t-7.5 33t-9 33.5t-13 27t-20 13t-30 -8zM208 466q33 -2 46.5 33t-2 71.5t-54.5 37.5q-21 -24 -33.5 -55t-3.5 -58t47 -29z" />
    <glyph glyph-name="khokhwaithai" unicode="&#xa4;" horiz-adv-x="876" 
d="M496 281q-107 -15 -136 73q-12 -31 -29 -104t-38 -134t-51 -95q-34 -38 -74 0q-56 53 -69 192q-2 23 -3 47q-2 80 9.5 155t40 143t70.5 118.5t104.5 81t138.5 30.5t134 -18t96 -47.5t63.5 -78t38 -99.5t15.5 -122.5t0.5 -135t-10.5 -148.5q-3 -34 -4 -71t-3 -56
q-3 -31 -45 -31q-12 0 -22 10.5t-11 22.5q-1 41 -1.5 46t4 36.5t7.5 56.5q7 71 10 110t4 107.5t-6.5 109t-25 91t-47 78t-77.5 47t-112 19.5q-75 0 -134 -42.5t-92.5 -106.5t-53.5 -140t-22 -143.5t8.5 -117.5t31.5 -62q7 -3 16 15.5t19.5 53t22 77t25.5 88t29.5 86
t34.5 72.5t39 44q52 29 99 26.5t79 -43t32 -105.5q0 -49 -30.5 -89.5t-74.5 -46.5zM500 345q31 15 41.5 54.5t-6 73t-52.5 33.5q-34 0 -64.5 -32t-23.5 -73q6 -31 35 -52.5t70 -3.5z" />
    <glyph glyph-name="khokhwaithai" unicode="&#xe04;" horiz-adv-x="876" 
d="M496 281q-107 -15 -136 73q-12 -31 -29 -104t-38 -134t-51 -95q-34 -38 -74 0q-56 53 -69 192q-2 23 -3 47q-2 80 9.5 155t40 143t70.5 118.5t104.5 81t138.5 30.5t134 -18t96 -47.5t63.5 -78t38 -99.5t15.5 -122.5t0.5 -135t-10.5 -148.5q-3 -34 -4 -71t-3 -56
q-3 -31 -45 -31q-12 0 -22 10.5t-11 22.5q-1 41 -1.5 46t4 36.5t7.5 56.5q7 71 10 110t4 107.5t-6.5 109t-25 91t-47 78t-77.5 47t-112 19.5q-75 0 -134 -42.5t-92.5 -106.5t-53.5 -140t-22 -143.5t8.5 -117.5t31.5 -62q7 -3 16 15.5t19.5 53t22 77t25.5 88t29.5 86
t34.5 72.5t39 44q52 29 99 26.5t79 -43t32 -105.5q0 -49 -30.5 -89.5t-74.5 -46.5zM500 345q31 15 41.5 54.5t-6 73t-52.5 33.5q-34 0 -64.5 -32t-23.5 -73q6 -31 35 -52.5t70 -3.5z" />
    <glyph glyph-name="khokhonthai" unicode="&#xa5;" horiz-adv-x="836" 
d="M438 246q-34 -14 -75.5 0t-63.5 47q-19 -45 -34 -108t-26.5 -104.5t-27.5 -55.5q-4 -4 -25.5 -13.5t-27.5 -9.5q-35 0 -52 39q-15 35 -25 118.5t-6.5 188t21.5 200.5t66.5 161.5t121.5 65.5q34 0 58.5 -17t35 -37.5t25 -38.5t31.5 -19q14 -1 24 11t19 29.5t23 35t44 29
t74 10.5q54 -2 90.5 -36.5t52 -94t21.5 -126.5t0 -147t-13 -142t-15.5 -125.5t-10.5 -82.5q-1 -12 -10 -20t-20 -8q-35 0 -36 33t8 115.5t16.5 164.5t9.5 167t-17.5 146.5t-61.5 78.5q-31 11 -47.5 2t-33.5 -30t-30.5 -42.5t-39 -36.5t-57.5 -11q-22 2 -45.5 23.5t-40.5 44
t-36 39t-41 9t-46 -45.5q-29 -46 -46.5 -117t-21.5 -140.5t-1.5 -132t12 -101t20.5 -38.5q6 0 14.5 36.5t20.5 90.5t29 109t46 99t65 54q47 13 79.5 1.5t56 -36t30.5 -59t3 -68t-26 -63t-58 -42.5zM331 399q-12 -40 10 -65.5t61 -25.5q32 0 50.5 22t18.5 57q0 20 -15.5 43.5
t-33.5 28.5q-30 8 -54.5 -7t-36.5 -53z" />
    <glyph glyph-name="khokhonthai" unicode="&#xe05;" horiz-adv-x="836" 
d="M438 246q-34 -14 -75.5 0t-63.5 47q-19 -45 -34 -108t-26.5 -104.5t-27.5 -55.5q-4 -4 -25.5 -13.5t-27.5 -9.5q-35 0 -52 39q-15 35 -25 118.5t-6.5 188t21.5 200.5t66.5 161.5t121.5 65.5q34 0 58.5 -17t35 -37.5t25 -38.5t31.5 -19q14 -1 24 11t19 29.5t23 35t44 29
t74 10.5q54 -2 90.5 -36.5t52 -94t21.5 -126.5t0 -147t-13 -142t-15.5 -125.5t-10.5 -82.5q-1 -12 -10 -20t-20 -8q-35 0 -36 33t8 115.5t16.5 164.5t9.5 167t-17.5 146.5t-61.5 78.5q-31 11 -47.5 2t-33.5 -30t-30.5 -42.5t-39 -36.5t-57.5 -11q-22 2 -45.5 23.5t-40.5 44
t-36 39t-41 9t-46 -45.5q-29 -46 -46.5 -117t-21.5 -140.5t-1.5 -132t12 -101t20.5 -38.5q6 0 14.5 36.5t20.5 90.5t29 109t46 99t65 54q47 13 79.5 1.5t56 -36t30.5 -59t3 -68t-26 -63t-58 -42.5zM331 399q-12 -40 10 -65.5t61 -25.5q32 0 50.5 22t18.5 57q0 20 -15.5 43.5
t-33.5 28.5q-30 8 -54.5 -7t-36.5 -53z" />
    <glyph glyph-name="khorakhangthai" unicode="&#xa6;" horiz-adv-x="936" 
d="M531 705q11 -68 14.5 -131.5t2 -99.5t-8.5 -122.5t-10 -136.5q15 -9 53.5 -32t63 -37.5t55 -31t50 -23.5t26.5 -4q13 5 19.5 48.5t4.5 125.5t-4.5 146t-9 172.5t-8.5 143.5q-2 44 37 44q12 0 19 -2t14 -11t8 -27q6 -70 10.5 -219t-2.5 -314.5t-32 -187.5
q-23 -20 -93.5 7.5t-128 62.5t-102.5 67q-27 -89 -42 -114q-38 -65 -125 -65q-154 0 -179 113q-18 82 38 139.5t141 57.5q68 0 119 -30q0 14 4 68q22 317 -7 378q-12 26 -33 15q-12 -6 -16.5 -23t-6.5 -51t-3 -45q-8 -22 -28 -23t-30 20q-4 9 -8.5 26.5t-7.5 33t-9 33.5
t-13 27t-20 13t-30 -8q-7 -4 -13 -10t-9.5 -10t-9.5 -12.5t-9 -12.5q28 2 54 -23.5t38.5 -63t12.5 -75.5t-26 -65t-74 -28q-72 -1 -104 40.5t-23.5 104.5t49.5 131q45 74 113.5 87.5t105.5 -50.5q10 26 32 42t50 18q77 5 91 -76zM339 29q89 0 105 145q-25 13 -55.5 21
t-63 8.5t-59.5 -16t-39 -49.5q-18 -50 18 -79.5t94 -29.5zM208 466q35 -2 46 39q11 45 -15 80q-20 24 -49 25q-24 -17 -35 -50t2 -62.5t51 -31.5z" />
    <glyph glyph-name="khorakhangthai" unicode="&#xe06;" horiz-adv-x="936" 
d="M531 705q11 -68 14.5 -131.5t2 -99.5t-8.5 -122.5t-10 -136.5q15 -9 53.5 -32t63 -37.5t55 -31t50 -23.5t26.5 -4q13 5 19.5 48.5t4.5 125.5t-4.5 146t-9 172.5t-8.5 143.5q-2 44 37 44q12 0 19 -2t14 -11t8 -27q6 -70 10.5 -219t-2.5 -314.5t-32 -187.5
q-23 -20 -93.5 7.5t-128 62.5t-102.5 67q-27 -89 -42 -114q-38 -65 -125 -65q-154 0 -179 113q-18 82 38 139.5t141 57.5q68 0 119 -30q0 14 4 68q22 317 -7 378q-12 26 -33 15q-12 -6 -16.5 -23t-6.5 -51t-3 -45q-8 -22 -28 -23t-30 20q-4 9 -8.5 26.5t-7.5 33t-9 33.5
t-13 27t-20 13t-30 -8q-7 -4 -13 -10t-9.5 -10t-9.5 -12.5t-9 -12.5q28 2 54 -23.5t38.5 -63t12.5 -75.5t-26 -65t-74 -28q-72 -1 -104 40.5t-23.5 104.5t49.5 131q45 74 113.5 87.5t105.5 -50.5q10 26 32 42t50 18q77 5 91 -76zM339 29q89 0 105 145q-25 13 -55.5 21
t-63 8.5t-59.5 -16t-39 -49.5q-18 -50 18 -79.5t94 -29.5zM208 466q35 -2 46 39q11 45 -15 80q-20 24 -49 25q-24 -17 -35 -50t2 -62.5t51 -31.5z" />
    <glyph glyph-name="ngonguthai" unicode="&#xa7;" horiz-adv-x="678" 
d="M393 85q54 1 87.5 56t42.5 134t9.5 141.5t-4.5 102.5q-20 -29 -52.5 -43t-57 -12t-42.5 6q-38 14 -61.5 38t-30 53t-3.5 58.5t14 59.5q17 45 63.5 70.5t96.5 23.5q42 -2 77.5 -35.5t49.5 -103.5q20 -102 21 -211.5t-17 -205t-65 -157t-116 -60.5q-81 1 -160.5 71.5
t-127.5 168.5t-53 184q-1 19 9.5 26.5t22.5 7.5q33 0 37 -30q8 -58 46.5 -137t98.5 -142.5t115 -63.5zM447 713q-48 -8 -75.5 -33t-34.5 -57q-7 -36 18 -64.5t63 -28.5q27 0 63.5 19t42.5 43q0 51 -21 89t-56 32z" />
    <glyph glyph-name="ngonguthai" unicode="&#xe07;" horiz-adv-x="678" 
d="M393 85q54 1 87.5 56t42.5 134t9.5 141.5t-4.5 102.5q-20 -29 -52.5 -43t-57 -12t-42.5 6q-38 14 -61.5 38t-30 53t-3.5 58.5t14 59.5q17 45 63.5 70.5t96.5 23.5q42 -2 77.5 -35.5t49.5 -103.5q20 -102 21 -211.5t-17 -205t-65 -157t-116 -60.5q-81 1 -160.5 71.5
t-127.5 168.5t-53 184q-1 19 9.5 26.5t22.5 7.5q33 0 37 -30q8 -58 46.5 -137t98.5 -142.5t115 -63.5zM447 713q-48 -8 -75.5 -33t-34.5 -57q-7 -36 18 -64.5t63 -28.5q27 0 63.5 19t42.5 43q0 51 -21 89t-56 32z" />
    <glyph glyph-name="chochanthai" unicode="&#xa8;" horiz-adv-x="784" 
d="M603 -2q-35 2 -54.5 64t-32 144t-23.5 105q-31 -51 -90 -68.5t-111.5 9.5t-65.5 91q-8 38 13.5 79t58.5 67t82.5 33.5t86.5 -21.5q34 -23 59 -71.5t38 -100.5t22 -101t15.5 -80.5t12.5 -31.5t15 34t14 87.5t6 118t-11.5 127.5t-35.5 114t-70 80t-111 22q-33 -3 -61 -10
t-48 -14t-41 -23.5t-33 -26.5t-32.5 -37t-30.5 -41.5t-35 -51.5q-11 -17 -30 -20t-29 6q-30 21 -3 63q132 242 386 228q81 -4 137 -53t81 -120t33.5 -161t3 -168.5t-19.5 -150.5q-14 -71 -39.5 -97t-56.5 -24zM305 325q14 -20 40.5 -24.5t51.5 5t43.5 31t18.5 48.5
q0 37 -27.5 56.5t-77.5 6.5q-37 -10 -53.5 -47.5t4.5 -75.5z" />
    <glyph glyph-name="chochanthai" unicode="&#xe08;" horiz-adv-x="784" 
d="M603 -2q-35 2 -54.5 64t-32 144t-23.5 105q-31 -51 -90 -68.5t-111.5 9.5t-65.5 91q-8 38 13.5 79t58.5 67t82.5 33.5t86.5 -21.5q34 -23 59 -71.5t38 -100.5t22 -101t15.5 -80.5t12.5 -31.5t15 34t14 87.5t6 118t-11.5 127.5t-35.5 114t-70 80t-111 22q-33 -3 -61 -10
t-48 -14t-41 -23.5t-33 -26.5t-32.5 -37t-30.5 -41.5t-35 -51.5q-11 -17 -30 -20t-29 6q-30 21 -3 63q132 242 386 228q81 -4 137 -53t81 -120t33.5 -161t3 -168.5t-19.5 -150.5q-14 -71 -39.5 -97t-56.5 -24zM305 325q14 -20 40.5 -24.5t51.5 5t43.5 31t18.5 48.5
q0 37 -27.5 56.5t-77.5 6.5q-37 -10 -53.5 -47.5t4.5 -75.5z" />
    <glyph glyph-name="chochingthai" unicode="&#xa9;" horiz-adv-x="876" 
d="M269 61q15 122 35 197q-21 -29 -58 -36t-71.5 6t-60 47.5t-25.5 80.5q0 10 1 20.5t9 37t22.5 45.5t47 35t76.5 17q118 1 141 -119q7 -36 -9 -114t-30 -136.5t-4 -61.5q11 -2 46.5 30.5t76 74.5t91.5 79t89 42q17 172 10 234q-14 111 -102 146q-58 23 -156 21
q-53 -1 -90.5 -9.5t-67.5 -29.5t-45 -36t-44 -49q-30 -37 -62 -12q-29 22 -9 53q44 69 129.5 113.5t201.5 44.5q208 0 281.5 -116.5t27.5 -359.5q78 -2 118.5 -43.5t40.5 -99.5q0 -61 -33.5 -113.5t-86.5 -60.5q-47 -7 -79.5 10.5t-45.5 52t-15.5 79.5t10.5 93
q-46 -34 -113 -97.5t-111.5 -94.5t-85.5 -28q-22 1 -37 19.5t-13 37.5zM214 287q45 -7 76 15t31 58q0 56 -40 78.5t-81 1.5t-43 -72q7 -73 57 -81zM697 232q-18 -64 -12 -117t39 -57q44 -5 70.5 26.5t24.5 70.5q-3 49 -41 70.5t-81 6.5z" />
    <glyph glyph-name="chochingthai" unicode="&#xe09;" horiz-adv-x="876" 
d="M269 61q15 122 35 197q-21 -29 -58 -36t-71.5 6t-60 47.5t-25.5 80.5q0 10 1 20.5t9 37t22.5 45.5t47 35t76.5 17q118 1 141 -119q7 -36 -9 -114t-30 -136.5t-4 -61.5q11 -2 46.5 30.5t76 74.5t91.5 79t89 42q17 172 10 234q-14 111 -102 146q-58 23 -156 21
q-53 -1 -90.5 -9.5t-67.5 -29.5t-45 -36t-44 -49q-30 -37 -62 -12q-29 22 -9 53q44 69 129.5 113.5t201.5 44.5q208 0 281.5 -116.5t27.5 -359.5q78 -2 118.5 -43.5t40.5 -99.5q0 -61 -33.5 -113.5t-86.5 -60.5q-47 -7 -79.5 10.5t-45.5 52t-15.5 79.5t10.5 93
q-46 -34 -113 -97.5t-111.5 -94.5t-85.5 -28q-22 1 -37 19.5t-13 37.5zM214 287q45 -7 76 15t31 58q0 56 -40 78.5t-81 1.5t-43 -72q7 -73 57 -81zM697 232q-18 -64 -12 -117t39 -57q44 -5 70.5 26.5t24.5 70.5q-3 49 -41 70.5t-81 6.5z" />
    <glyph glyph-name="chochangthai" unicode="&#xaa;" horiz-adv-x="604" 
d="M365 62q57 -9 82 82q28 101 4 239t-81 175l-8 4q-31 16 -28 45t31 40q6 6 39 33t61 52t57 65t39 78q5 18 17.5 28t22.5 9.5t15 -0.5q30 -17 15 -59q-11 -32 -37.5 -69.5t-56.5 -68.5t-58.5 -57t-47.5 -42l-19 -16q33 -11 60.5 -62.5t42.5 -121.5t15 -147.5t-16.5 -142
t-59 -105.5t-105.5 -38q-42 2 -64 40t-25 100t0 124.5t7.5 133.5t1.5 107q-34 -35 -74 -42t-72.5 9.5t-54 51.5t-21.5 79q0 169 129 181q63 6 100.5 -28.5t49 -95t12 -135t-5.5 -151t-9 -141t6 -107.5t36 -47zM114 604q-1 -55 26 -79.5t65 -12.5t66 52q8 63 -20.5 101
t-67.5 35q-17 -1 -27.5 -5.5t-23 -26.5t-18.5 -64z" />
    <glyph glyph-name="chochangthai" unicode="&#xe0a;" horiz-adv-x="604" 
d="M365 62q57 -9 82 82q28 101 4 239t-81 175l-8 4q-31 16 -28 45t31 40q6 6 39 33t61 52t57 65t39 78q5 18 17.5 28t22.5 9.5t15 -0.5q30 -17 15 -59q-11 -32 -37.5 -69.5t-56.5 -68.5t-58.5 -57t-47.5 -42l-19 -16q33 -11 60.5 -62.5t42.5 -121.5t15 -147.5t-16.5 -142
t-59 -105.5t-105.5 -38q-42 2 -64 40t-25 100t0 124.5t7.5 133.5t1.5 107q-34 -35 -74 -42t-72.5 9.5t-54 51.5t-21.5 79q0 169 129 181q63 6 100.5 -28.5t49 -95t12 -135t-5.5 -151t-9 -141t6 -107.5t36 -47zM114 604q-1 -55 26 -79.5t65 -12.5t66 52q8 63 -20.5 101
t-67.5 35q-17 -1 -27.5 -5.5t-23 -26.5t-18.5 -64z" />
    <glyph glyph-name="sosothai" unicode="&#xab;" horiz-adv-x="771" 
d="M418 390q16 233 8 285q-6 38 -22 38q-1 -1 -3 -1q-24 -19 -39 -129q-8 -22 -26.5 -21t-29.5 22q-4 9 -8.5 26.5t-7.5 33t-9 33.5t-13 27t-20 13t-30 -8q-7 -4 -13 -10t-9.5 -10t-9.5 -12.5t-9 -12.5q28 2 54 -23.5t38.5 -63t12.5 -75.5t-26 -65t-74 -28q-72 -1 -105 39.5
t-25 102.5t49 130q29 48 72 73.5t85 17.5t65 -50q10 27 34.5 45t51.5 19q44 1 64.5 -50t19.5 -129t-5 -170.5t-8 -172.5t10 -135.5t49 -59.5q68 -8 93 108.5t-1 246.5t-84 157q-32 15 -33 46t27 41q6 6 39 33t61 52t57 65t39 78q4 18 19.5 27.5t28 8.5t17.5 -1
q17 -10 18 -27.5t-7 -31.5q-11 -32 -38 -69t-58 -68t-60.5 -57t-48.5 -42l-20 -15q33 -11 60.5 -64t43.5 -124.5t15 -151.5t-18.5 -146t-64 -107.5t-115.5 -37.5q-26 2 -45 17t-29 44t-15.5 58.5t-6.5 75.5t0 78t3 81q1 31 2 46zM173 467q19 -1 34 8.5t21 26.5q20 52 -15 91
t-77 21q-20 -23 -26 -56t9.5 -61t53.5 -30z" />
    <glyph glyph-name="sosothai" unicode="&#xe0b;" horiz-adv-x="771" 
d="M418 390q16 233 8 285q-6 38 -22 38q-1 -1 -3 -1q-24 -19 -39 -129q-8 -22 -26.5 -21t-29.5 22q-4 9 -8.5 26.5t-7.5 33t-9 33.5t-13 27t-20 13t-30 -8q-7 -4 -13 -10t-9.5 -10t-9.5 -12.5t-9 -12.5q28 2 54 -23.5t38.5 -63t12.5 -75.5t-26 -65t-74 -28q-72 -1 -105 39.5
t-25 102.5t49 130q29 48 72 73.5t85 17.5t65 -50q10 27 34.5 45t51.5 19q44 1 64.5 -50t19.5 -129t-5 -170.5t-8 -172.5t10 -135.5t49 -59.5q68 -8 93 108.5t-1 246.5t-84 157q-32 15 -33 46t27 41q6 6 39 33t61 52t57 65t39 78q4 18 19.5 27.5t28 8.5t17.5 -1
q17 -10 18 -27.5t-7 -31.5q-11 -32 -38 -69t-58 -68t-60.5 -57t-48.5 -42l-20 -15q33 -11 60.5 -64t43.5 -124.5t15 -151.5t-18.5 -146t-64 -107.5t-115.5 -37.5q-26 2 -45 17t-29 44t-15.5 58.5t-6.5 75.5t0 78t3 81q1 31 2 46zM173 467q19 -1 34 8.5t21 26.5q20 52 -15 91
t-77 21q-20 -23 -26 -56t9.5 -61t53.5 -30z" />
    <glyph glyph-name="chochoethai" unicode="&#xac;" horiz-adv-x="1094" 
d="M154 571q3 -6 39.5 -2.5t47.5 -10.5q8 -11 -3.5 -65.5t-29.5 -136t-20 -136.5q35 32 75 33t69 -21.5t45 -61.5t8 -81q-10 -46 -52 -76t-94 -30q-31 0 -54 14t-35 39.5t-19 56.5t-6 71.5t3.5 76t9.5 79t12.5 72.5t13 63.5t9.5 45.5q-38 -9 -72 6.5t-30 40.5
q39 119 126.5 180.5t208.5 61.5q23 0 43.5 -2t58.5 -13.5t67.5 -31.5t62.5 -60.5t53 -95.5t29.5 -142.5t0.5 -195.5q160 -61 244 -125q0 2 -1 10.5t-2 22.5t-2 38.5t-2.5 66.5t-2.5 97.5t-1.5 140.5t-0.5 188q0 85 38 87q15 1 29 -11t13 -33q0 -577 1 -699
q-2 -12 -24.5 -18.5t-32.5 2.5q-9 8 -39.5 39t-52.5 49.5t-68.5 42.5t-102.5 37q-3 -58 -12.5 -98t-36 -69.5t-68.5 -29.5t-89 25.5t-54 59.5q-10 45 -4.5 84t29 68.5t67 40t107.5 -2.5q-1 36 0 78t-4.5 88t-12.5 89.5t-25 83t-41 69t-60.5 47t-84.5 17.5
q-77 0 -157.5 -43.5t-113.5 -119.5zM328 116q0 65 -38.5 80.5t-75 -14t-31.5 -70.5q6 -49 18 -65.5t51 -14.5q30 2 53 26.5t23 57.5zM658 199q-42 31 -95 12t-58.5 -62.5t61.5 -96.5q22 -7 36.5 -7t24.5 10.5t15 23.5t7.5 31.5t3.5 33.5t2 31t3 24z" />
    <glyph glyph-name="chochoethai" unicode="&#xe0c;" horiz-adv-x="1094" 
d="M154 571q3 -6 39.5 -2.5t47.5 -10.5q8 -11 -3.5 -65.5t-29.5 -136t-20 -136.5q35 32 75 33t69 -21.5t45 -61.5t8 -81q-10 -46 -52 -76t-94 -30q-31 0 -54 14t-35 39.5t-19 56.5t-6 71.5t3.5 76t9.5 79t12.5 72.5t13 63.5t9.5 45.5q-38 -9 -72 6.5t-30 40.5
q39 119 126.5 180.5t208.5 61.5q23 0 43.5 -2t58.5 -13.5t67.5 -31.5t62.5 -60.5t53 -95.5t29.5 -142.5t0.5 -195.5q160 -61 244 -125q0 2 -1 10.5t-2 22.5t-2 38.5t-2.5 66.5t-2.5 97.5t-1.5 140.5t-0.5 188q0 85 38 87q15 1 29 -11t13 -33q0 -577 1 -699
q-2 -12 -24.5 -18.5t-32.5 2.5q-9 8 -39.5 39t-52.5 49.5t-68.5 42.5t-102.5 37q-3 -58 -12.5 -98t-36 -69.5t-68.5 -29.5t-89 25.5t-54 59.5q-10 45 -4.5 84t29 68.5t67 40t107.5 -2.5q-1 36 0 78t-4.5 88t-12.5 89.5t-25 83t-41 69t-60.5 47t-84.5 17.5
q-77 0 -157.5 -43.5t-113.5 -119.5zM328 116q0 65 -38.5 80.5t-75 -14t-31.5 -70.5q6 -49 18 -65.5t51 -14.5q30 2 53 26.5t23 57.5zM658 199q-42 31 -95 12t-58.5 -62.5t61.5 -96.5q22 -7 36.5 -7t24.5 10.5t15 23.5t7.5 31.5t3.5 33.5t2 31t3 24z" />
    <glyph glyph-name="yoyingthai" unicode="&#xad;" horiz-adv-x="1152" 
d="M1043 741q-1 -68 3.5 -211.5t2 -266t-17.5 -250.5q-3 -23 -104 -28t-201.5 2t-106.5 13q-23 20 -23 82q0 9 7 66t14 121.5t4.5 144t-15.5 142t-52 106t-101 45.5q-65 2 -125 -17t-109.5 -67.5t-62.5 -119.5q36 2 58.5 -1.5t37.5 -23t10 -55.5q-1 -4 -18.5 -69t-25.5 -150
q50 33 95.5 31.5t78 -34.5t33.5 -82q2 -56 -39 -104.5t-112 -47.5q-24 0 -47 7t-45.5 22t-35 45t-10.5 71q3 50 23 156t35 164q-82 -13 -104 11t-12 70q11 54 33 96t53 70t65.5 47.5t77 29.5t81.5 14t84 4q56 0 97.5 -22t66 -56t39 -87.5t19.5 -102t3.5 -116t-5 -113.5
t-9.5 -109.5t-8 -89.5q-1 -11 10.5 -18t31 -9t45 -2.5t53.5 0.5q106 3 129 11q16 5 19 15q12 38 14 163.5t-1.5 298t-3.5 209.5q8 27 33 27t38 -32zM606 -204q0 49 24.5 77.5t90.5 29.5q65 2 96 -39.5t15 -113.5q79 0 124 101q14 32 41 21q31 -13 11 -52
q-39 -74 -103.5 -107t-165.5 -33q-52 0 -92.5 31t-40.5 85zM363 118q-1 29 -22 44.5t-50 15.5q-34 0 -58.5 -21t-21.5 -56q2 -36 24 -55.5t51 -19.5q33 0 56.5 24.5t20.5 67.5zM723 -133q-34 -3 -50.5 -23t-14.5 -42.5t19.5 -41.5t45.5 -22q29 -2 48 14.5t19 49.5
q0 32 -18 50t-49 15z" />
    <glyph glyph-name="yoyingthai" unicode="&#xe0d;" horiz-adv-x="1152" 
d="M1043 741q-1 -68 3.5 -211.5t2 -266t-17.5 -250.5q-3 -23 -104 -28t-201.5 2t-106.5 13q-23 20 -23 82q0 9 7 66t14 121.5t4.5 144t-15.5 142t-52 106t-101 45.5q-65 2 -125 -17t-109.5 -67.5t-62.5 -119.5q36 2 58.5 -1.5t37.5 -23t10 -55.5q-1 -4 -18.5 -69t-25.5 -150
q50 33 95.5 31.5t78 -34.5t33.5 -82q2 -56 -39 -104.5t-112 -47.5q-24 0 -47 7t-45.5 22t-35 45t-10.5 71q3 50 23 156t35 164q-82 -13 -104 11t-12 70q11 54 33 96t53 70t65.5 47.5t77 29.5t81.5 14t84 4q56 0 97.5 -22t66 -56t39 -87.5t19.5 -102t3.5 -116t-5 -113.5
t-9.5 -109.5t-8 -89.5q-1 -11 10.5 -18t31 -9t45 -2.5t53.5 0.5q106 3 129 11q16 5 19 15q12 38 14 163.5t-1.5 298t-3.5 209.5q8 27 33 27t38 -32zM606 -204q0 49 24.5 77.5t90.5 29.5q65 2 96 -39.5t15 -113.5q79 0 124 101q14 32 41 21q31 -13 11 -52
q-39 -74 -103.5 -107t-165.5 -33q-52 0 -92.5 31t-40.5 85zM363 118q-1 29 -22 44.5t-50 15.5q-34 0 -58.5 -21t-21.5 -56q2 -36 24 -55.5t51 -19.5q33 0 56.5 24.5t20.5 67.5zM723 -133q-34 -3 -50.5 -23t-14.5 -42.5t19.5 -41.5t45.5 -22q29 -2 48 14.5t19 49.5
q0 32 -18 50t-49 15z" />
    <glyph glyph-name="yoyingthai" unicode="&#xde;" horiz-adv-x="1152" 
d="M1043 741q-1 -68 3.5 -211.5t2 -266t-17.5 -250.5q-3 -23 -104 -28t-201.5 2t-106.5 13q-23 20 -23 82q0 9 7 66t14 121.5t4.5 144t-15.5 142t-52 106t-101 45.5q-65 2 -125 -17t-109.5 -67.5t-62.5 -119.5q36 2 58.5 -1.5t37.5 -23t10 -55.5q-1 -4 -18.5 -69t-25.5 -150
q50 33 95.5 31.5t78 -34.5t33.5 -82q2 -56 -39 -104.5t-112 -47.5q-24 0 -47 7t-45.5 22t-35 45t-10.5 71q3 50 23 156t35 164q-82 -13 -104 11t-12 70q11 54 33 96t53 70t65.5 47.5t77 29.5t81.5 14t84 4q56 0 97.5 -22t66 -56t39 -87.5t19.5 -102t3.5 -116t-5 -113.5
t-9.5 -109.5t-8 -89.5q-1 -11 10.5 -18t31 -9t45 -2.5t53.5 0.5q106 3 129 11q16 5 19 15q12 38 14 163.5t-1.5 298t-3.5 209.5q8 27 33 27t38 -32zM606 -204q0 49 24.5 77.5t90.5 29.5q65 2 96 -39.5t15 -113.5q79 0 124 101q14 32 41 21q31 -13 11 -52
q-39 -74 -103.5 -107t-165.5 -33q-52 0 -92.5 31t-40.5 85zM363 118q-1 29 -22 44.5t-50 15.5q-34 0 -58.5 -21t-21.5 -56q2 -36 24 -55.5t51 -19.5q33 0 56.5 24.5t20.5 67.5zM723 -133q-34 -3 -50.5 -23t-14.5 -42.5t19.5 -41.5t45.5 -22q29 -2 48 14.5t19 49.5
q0 32 -18 50t-49 15z" />
    <glyph glyph-name="dochadathai" unicode="&#xae;" horiz-adv-x="850" 
d="M673 -239q5 36 9.5 66.5t12.5 95t11 119.5t7 129.5t0 136t-11.5 128t-25.5 117t-43 91.5t-64 61.5t-88 18.5q-78 -3 -180 -58t-144 -123q41 9 66.5 10t39.5 -7t20 -16.5t14 -27.5q10 -26 19 -84t10.5 -131t-6.5 -140t-36 -113.5t-72 -47.5q-70 -2 -110.5 31.5t-40.5 84.5
q0 37 23.5 74t67.5 55.5t107 -9.5q6 43 1.5 122.5t-17.5 119.5q0 17 -22.5 18.5t-50 -5t-52 -1.5t-26.5 29q-8 68 54.5 134t160.5 107t196 45q62 3 111 -22t78.5 -78.5t51.5 -111.5t28 -145.5t10 -155.5t-4 -167t-12 -154t-17.5 -141t-16.5 -105t-12 -68v-1
q-10 -57 -123 -14q-16 6 -88 44.5t-86 44.5q-49 -51 -84 -80t-87 -48t-102 -5q-38 11 -62 35.5t-31 54t-1 62t24.5 60t50 46t70.5 21.5q122 8 218 -66q1 1 24.5 25.5t43.5 41t49 34.5q50 26 64.5 10t0.5 -50q-30 -17 -71 -51.5t-42 -35.5q12 -7 31.5 -21t33.5 -23.5
t31.5 -19t30 -11.5t25 2t21 20t12.5 43zM191 -362q43 0 93.5 29t87.5 80q-19 22 -59.5 38.5t-83 20t-74.5 -21.5t-32 -78q0 -31 19.5 -49.5t48.5 -18.5zM184 49q75 -3 75 106q0 4 -12.5 10t-31 9t-37.5 1t-36 -17t-23 -42q-7 -28 9 -47t56 -20z" />
    <glyph glyph-name="dochadathai" unicode="&#xe0e;" horiz-adv-x="850" 
d="M673 -239q5 36 9.5 66.5t12.5 95t11 119.5t7 129.5t0 136t-11.5 128t-25.5 117t-43 91.5t-64 61.5t-88 18.5q-78 -3 -180 -58t-144 -123q41 9 66.5 10t39.5 -7t20 -16.5t14 -27.5q10 -26 19 -84t10.5 -131t-6.5 -140t-36 -113.5t-72 -47.5q-70 -2 -110.5 31.5t-40.5 84.5
q0 37 23.5 74t67.5 55.5t107 -9.5q6 43 1.5 122.5t-17.5 119.5q0 17 -22.5 18.5t-50 -5t-52 -1.5t-26.5 29q-8 68 54.5 134t160.5 107t196 45q62 3 111 -22t78.5 -78.5t51.5 -111.5t28 -145.5t10 -155.5t-4 -167t-12 -154t-17.5 -141t-16.5 -105t-12 -68v-1
q-10 -57 -123 -14q-16 6 -88 44.5t-86 44.5q-49 -51 -84 -80t-87 -48t-102 -5q-38 11 -62 35.5t-31 54t-1 62t24.5 60t50 46t70.5 21.5q122 8 218 -66q1 1 24.5 25.5t43.5 41t49 34.5q50 26 64.5 10t0.5 -50q-30 -17 -71 -51.5t-42 -35.5q12 -7 31.5 -21t33.5 -23.5
t31.5 -19t30 -11.5t25 2t21 20t12.5 43zM191 -362q43 0 93.5 29t87.5 80q-19 22 -59.5 38.5t-83 20t-74.5 -21.5t-32 -78q0 -31 19.5 -49.5t48.5 -18.5zM184 49q75 -3 75 106q0 4 -12.5 10t-31 9t-37.5 1t-36 -17t-23 -42q-7 -28 9 -47t56 -20z" />
    <glyph glyph-name="topatakthai" unicode="&#xaf;" horiz-adv-x="896" 
d="M106 125q0 75 29.5 116.5t77.5 42.5t110 -27q5 62 2 129.5t-15 71.5q-19 7 -83 7t-82 8q-54 25 -22 90q58 98 164.5 153.5t218.5 55.5q103 0 180.5 -46.5t98.5 -138.5q27 -122 37 -355t-3 -420t-45 -188q-24 -1 -67 48.5t-91.5 112.5t-74.5 81q-3 -22 -7.5 -61.5
t-8 -69.5t-9 -60.5t-13.5 -47t-19 -16.5q-34 1 -76.5 30.5t-64.5 76.5q-8 -6 -31.5 -25t-32.5 -26t-29 -21.5t-32 -20.5t-29 -14t-32.5 -11t-30.5 -3q-43 1 -63.5 23t-20.5 58q0 79 55.5 157.5t120.5 69.5q9 -2 17 -4.5t14.5 -5t14 -7.5t11.5 -7.5t11.5 -10l10.5 -10.5
t11.5 -13t11.5 -14t12.5 -17t13.5 -18q18 15 60.5 40.5t73.5 35.5q1 6 2.5 19t2 18.5t2.5 15.5t4 15.5t5.5 12t8 11t10.5 7.5q7 4 26 -19.5t24 -39.5q46 33 73 40q27 2 34 -18t-16 -33q-15 -4 -51 -24q50 -47 140 -168q15 95 19 246.5t-8.5 324t-40.5 288.5q-18 73 -80 101
t-158 28q-163 0 -288 -164q114 -4 144 -15q27 -9 34 -27q32 -91 20 -247t-46 -206q-25 -37 -81 -42t-104 29.5t-50 97.5zM123 -335q6 -8 15 -11t19.5 -1t21 6t24 13t23.5 16t23.5 19t21.5 19t20.5 18.5t16.5 15.5q-3 4 -19.5 27t-23.5 31.5t-21.5 19.5t-27.5 14
q-29 6 -62 -29.5t-43 -79.5t12 -78zM167 148q-7 -44 22 -72.5t68 -13.5q31 12 46 57t5 88q-61 32 -101 9t-40 -68zM372 -235q-3 0 16 -27t43.5 -49.5t37.5 -12.5q4 3 8 40t6 75t3 40q1 3 -27 -13.5t-57 -34.5t-30 -18z" />
    <glyph glyph-name="topatakthai" unicode="&#xe0f;" horiz-adv-x="896" 
d="M106 125q0 75 29.5 116.5t77.5 42.5t110 -27q5 62 2 129.5t-15 71.5q-19 7 -83 7t-82 8q-54 25 -22 90q58 98 164.5 153.5t218.5 55.5q103 0 180.5 -46.5t98.5 -138.5q27 -122 37 -355t-3 -420t-45 -188q-24 -1 -67 48.5t-91.5 112.5t-74.5 81q-3 -22 -7.5 -61.5
t-8 -69.5t-9 -60.5t-13.5 -47t-19 -16.5q-34 1 -76.5 30.5t-64.5 76.5q-8 -6 -31.5 -25t-32.5 -26t-29 -21.5t-32 -20.5t-29 -14t-32.5 -11t-30.5 -3q-43 1 -63.5 23t-20.5 58q0 79 55.5 157.5t120.5 69.5q9 -2 17 -4.5t14.5 -5t14 -7.5t11.5 -7.5t11.5 -10l10.5 -10.5
t11.5 -13t11.5 -14t12.5 -17t13.5 -18q18 15 60.5 40.5t73.5 35.5q1 6 2.5 19t2 18.5t2.5 15.5t4 15.5t5.5 12t8 11t10.5 7.5q7 4 26 -19.5t24 -39.5q46 33 73 40q27 2 34 -18t-16 -33q-15 -4 -51 -24q50 -47 140 -168q15 95 19 246.5t-8.5 324t-40.5 288.5q-18 73 -80 101
t-158 28q-163 0 -288 -164q114 -4 144 -15q27 -9 34 -27q32 -91 20 -247t-46 -206q-25 -37 -81 -42t-104 29.5t-50 97.5zM123 -335q6 -8 15 -11t19.5 -1t21 6t24 13t23.5 16t23.5 19t21.5 19t20.5 18.5t16.5 15.5q-3 4 -19.5 27t-23.5 31.5t-21.5 19.5t-27.5 14
q-29 6 -62 -29.5t-43 -79.5t12 -78zM167 148q-7 -44 22 -72.5t68 -13.5q31 12 46 57t5 88q-61 32 -101 9t-40 -68zM372 -235q-3 0 16 -27t43.5 -49.5t37.5 -12.5q4 3 8 40t6 75t3 40q1 3 -27 -13.5t-57 -34.5t-30 -18z" />
    <glyph glyph-name="thothanthai" unicode="&#xb0;" horiz-adv-x="811" 
d="M136 552q34 -1 86 13t102.5 29.5t106.5 26.5t116 2.5t112 -41.5q43 -27 63.5 -81.5t18.5 -130.5t-9.5 -137.5t-21.5 -143.5q-4 -18 -5 -27q-6 -33 -25.5 -50t-43.5 -17q-22 0 -38 17.5t-26.5 48.5t-18 62.5t-16 72.5t-15.5 65q-39 -29 -90 -32.5t-94 13.5t-73 52t-30 77
q0 58 68.5 107.5t140.5 23.5q29 -11 50 -24t36.5 -34t25.5 -40.5t20 -56.5t16 -66.5t18 -87.5t22 -103q25 74 35.5 156.5t0 160.5t-45.5 121q-19 24 -65.5 30t-108 -3.5t-113 -21t-107 -27t-63.5 -17.5q-5 -1 -18 -4t-17.5 -4t-15 -2.5t-14.5 0t-12 3t-11 7t-7.5 12.5
t-6.5 17.5t-3 24.5q-4 51 34.5 108.5t93 94.5t97.5 38q49 1 89.5 -9t63.5 -23t59.5 -23.5t78.5 -10.5q23 0 37 2t29.5 13.5t20 15.5t27.5 29q24 10 47 10q10 0 16.5 -8.5t6.5 -16.5q0 -20 -13.5 -38.5t-31.5 -28.5q-53 -31 -126.5 -33.5t-128.5 12.5t-105 32t-53 17
q-64 5 -116 -56t-50 -116zM499 -183q3 -20 26.5 -55.5t55.5 -65.5t70 -26t64 59l-68 -12q-51 8 -74.5 38.5t-18.5 64.5t29.5 64.5t59.5 41.5q32 9 58.5 3.5t44 -25t28.5 -45t13 -56.5t-3.5 -60t-21 -56t-38.5 -44q-27 -20 -52 -28t-45 -7t-41 12t-36 24t-33 35.5t-29 39
t-27.5 42t-25.5 38.5q-3 -2 -7.5 -3.5l-7.5 -2.5q-2 -10 -2.5 -50.5t-3.5 -51.5q-10 -27 -19.5 -30.5t-22.5 18.5l-24 48q-23 -23 -36 -34.5t-43.5 -26t-62.5 -14.5q-31 0 -46 23.5t-14.5 52t10.5 50.5q39 90 98.5 93.5t120.5 -78.5q3 9 6 28.5t6.5 35t8.5 20.5q14 13 38 6
q3 -2 14 -13.5t13 -13.5l13.5 13.5t14.5 13.5q15 33 44 12q16 -9 -3 -38q-7 -12 -31 -40zM414 447q-47 10 -77.5 -19.5t-30.5 -67.5q0 -21 24 -39t66.5 -23t101.5 17q-2 11 -4.5 32t-4.5 29.5t-7 23t-13 21.5t-21.5 14.5t-33.5 11.5zM615 -180q0 -36 37 -46.5t66 7.5
q13 29 5 59t-38 37q-70 17 -70 -57zM330 -231q-14 19 -20.5 26t-21 15t-30.5 4q-38 -10 -49.5 -40.5t11.5 -65.5l1 1h2q19 12 107 60z" />
    <glyph glyph-name="thothanthai" unicode="&#xe10;" horiz-adv-x="811" 
d="M136 552q34 -1 86 13t102.5 29.5t106.5 26.5t116 2.5t112 -41.5q43 -27 63.5 -81.5t18.5 -130.5t-9.5 -137.5t-21.5 -143.5q-4 -18 -5 -27q-6 -33 -25.5 -50t-43.5 -17q-22 0 -38 17.5t-26.5 48.5t-18 62.5t-16 72.5t-15.5 65q-39 -29 -90 -32.5t-94 13.5t-73 52t-30 77
q0 58 68.5 107.5t140.5 23.5q29 -11 50 -24t36.5 -34t25.5 -40.5t20 -56.5t16 -66.5t18 -87.5t22 -103q25 74 35.5 156.5t0 160.5t-45.5 121q-19 24 -65.5 30t-108 -3.5t-113 -21t-107 -27t-63.5 -17.5q-5 -1 -18 -4t-17.5 -4t-15 -2.5t-14.5 0t-12 3t-11 7t-7.5 12.5
t-6.5 17.5t-3 24.5q-4 51 34.5 108.5t93 94.5t97.5 38q49 1 89.5 -9t63.5 -23t59.5 -23.5t78.5 -10.5q23 0 37 2t29.5 13.5t20 15.5t27.5 29q24 10 47 10q10 0 16.5 -8.5t6.5 -16.5q0 -20 -13.5 -38.5t-31.5 -28.5q-53 -31 -126.5 -33.5t-128.5 12.5t-105 32t-53 17
q-64 5 -116 -56t-50 -116zM499 -183q3 -20 26.5 -55.5t55.5 -65.5t70 -26t64 59l-68 -12q-51 8 -74.5 38.5t-18.5 64.5t29.5 64.5t59.5 41.5q32 9 58.5 3.5t44 -25t28.5 -45t13 -56.5t-3.5 -60t-21 -56t-38.5 -44q-27 -20 -52 -28t-45 -7t-41 12t-36 24t-33 35.5t-29 39
t-27.5 42t-25.5 38.5q-3 -2 -7.5 -3.5l-7.5 -2.5q-2 -10 -2.5 -50.5t-3.5 -51.5q-10 -27 -19.5 -30.5t-22.5 18.5l-24 48q-23 -23 -36 -34.5t-43.5 -26t-62.5 -14.5q-31 0 -46 23.5t-14.5 52t10.5 50.5q39 90 98.5 93.5t120.5 -78.5q3 9 6 28.5t6.5 35t8.5 20.5q14 13 38 6
q3 -2 14 -13.5t13 -13.5l13.5 13.5t14.5 13.5q15 33 44 12q16 -9 -3 -38q-7 -12 -31 -40zM414 447q-47 10 -77.5 -19.5t-30.5 -67.5q0 -21 24 -39t66.5 -23t101.5 17q-2 11 -4.5 32t-4.5 29.5t-7 23t-13 21.5t-21.5 14.5t-33.5 11.5zM615 -180q0 -36 37 -46.5t66 7.5
q13 29 5 59t-38 37q-70 17 -70 -57zM330 -231q-14 19 -20.5 26t-21 15t-30.5 4q-38 -10 -49.5 -40.5t11.5 -65.5l1 1h2q19 12 107 60z" />
    <glyph glyph-name="thonangmonthothai" unicode="&#xb1;" horiz-adv-x="1025" 
d="M406 787q36 6 57 -22t25 -79.5t2 -96.5t-8 -95q34 56 74 108.5t99 104t109 63.5q35 4 62 -5t44.5 -33t29 -53.5t16.5 -77t7 -91.5t0 -108.5t-4.5 -118t-6 -129.5t-4.5 -133q-1 -14 -15 -24.5t-22 -10.5q-31 0 -30 49q2 85 8 230q6 137 6.5 195t-6 123.5t-26.5 85
t-57 15.5q-45 -5 -118 -83.5t-124.5 -159t-51.5 -100.5q-8 -65 -13.5 -143.5t-9.5 -125t-10 -65.5q-5 -17 -22 -25t-32 1t-14 36q3 96 22 257.5t29.5 277t0.5 149.5q-15 49 -41 12q-22 -31 -27 -73q-8 -23 -31 -28.5t-34 14.5q-4 8 -8.5 23t-7.5 27.5t-9 25.5t-13.5 19.5
t-20.5 6t-30 -10.5q-8 -5 -13.5 -12.5t-10.5 -17.5t-10 -16q28 2 54 -23.5t38.5 -63t12.5 -75.5t-26 -65t-74 -28q-72 -1 -105 40t-25.5 103.5t48.5 130.5q29 48 72.5 73t85.5 16.5t65 -50.5q16 44 93 56zM163 476q35 -2 45 39q10 45 -17 80q-20 24 -49 25
q-15 -17 -24 -40.5t-10.5 -46t12.5 -39t43 -18.5z" />
    <glyph glyph-name="thonangmonthothai" unicode="&#xe11;" horiz-adv-x="1025" 
d="M406 787q36 6 57 -22t25 -79.5t2 -96.5t-8 -95q34 56 74 108.5t99 104t109 63.5q35 4 62 -5t44.5 -33t29 -53.5t16.5 -77t7 -91.5t0 -108.5t-4.5 -118t-6 -129.5t-4.5 -133q-1 -14 -15 -24.5t-22 -10.5q-31 0 -30 49q2 85 8 230q6 137 6.5 195t-6 123.5t-26.5 85
t-57 15.5q-45 -5 -118 -83.5t-124.5 -159t-51.5 -100.5q-8 -65 -13.5 -143.5t-9.5 -125t-10 -65.5q-5 -17 -22 -25t-32 1t-14 36q3 96 22 257.5t29.5 277t0.5 149.5q-15 49 -41 12q-22 -31 -27 -73q-8 -23 -31 -28.5t-34 14.5q-4 8 -8.5 23t-7.5 27.5t-9 25.5t-13.5 19.5
t-20.5 6t-30 -10.5q-8 -5 -13.5 -12.5t-10.5 -17.5t-10 -16q28 2 54 -23.5t38.5 -63t12.5 -75.5t-26 -65t-74 -28q-72 -1 -105 40t-25.5 103.5t48.5 130.5q29 48 72.5 73t85.5 16.5t65 -50.5q16 44 93 56zM163 476q35 -2 45 39q10 45 -17 80q-20 24 -49 25
q-15 -17 -24 -40.5t-10.5 -46t12.5 -39t43 -18.5z" />
    <glyph glyph-name="thophuthaothai" unicode="&#xb2;" horiz-adv-x="1237" 
d="M272 86q73 -1 114.5 48t51.5 116q-53 -24 -94 -26t-63.5 12t-37.5 38.5t-19.5 45.5t-4.5 40q0 43 39 88t108 47q77 2 111 -42t32 -146q-4 -126 -65 -212.5t-145 -86.5q-100 0 -162 79t-70 191t14 224.5t91.5 191.5t161.5 79q84 0 184 -132q37 77 67.5 110.5t76.5 33.5
q61 0 105 -33.5t66.5 -85t33.5 -119t10.5 -128.5t-8.5 -120q82 -32 146.5 -87.5t93.5 -129.5q11 136 14.5 217t-2.5 195.5t-28 226.5q-4 20 7.5 35t24.5 15q33 0 42 -31q12 -110 18 -223t0.5 -257t-30.5 -232q-28 -33 -53.5 -26.5t-43.5 40.5q-77 142 -197 181
q-10 -114 -38 -171t-90 -57q-73 0 -104 13q-76 33 -76 154q0 96 73 145.5t170 13.5q18 141 -4.5 255t-92.5 138q-18 6 -33.5 0.5t-29 -23t-21.5 -30.5t-20.5 -39t-15.5 -32q-7 -13 -24.5 -24t-43 -8.5t-44.5 27.5q-28 36 -42 53t-38.5 36.5t-41.5 18.5q-83 -7 -136.5 -71.5
t-65 -152.5t-2 -175t46 -147t84.5 -61zM617 172q-3 -56 24.5 -85t66.5 -29t61.5 57.5t13.5 130.5q-51 31 -106.5 9.5t-59.5 -83.5zM442 359q-1 35 -17 53.5t-39 19t-46 -8t-39 -26.5t-16 -38q0 -26 19 -50t48 -24q36 0 63.5 19.5t26.5 54.5z" />
    <glyph glyph-name="thophuthaothai" unicode="&#xe12;" horiz-adv-x="1237" 
d="M272 86q73 -1 114.5 48t51.5 116q-53 -24 -94 -26t-63.5 12t-37.5 38.5t-19.5 45.5t-4.5 40q0 43 39 88t108 47q77 2 111 -42t32 -146q-4 -126 -65 -212.5t-145 -86.5q-100 0 -162 79t-70 191t14 224.5t91.5 191.5t161.5 79q84 0 184 -132q37 77 67.5 110.5t76.5 33.5
q61 0 105 -33.5t66.5 -85t33.5 -119t10.5 -128.5t-8.5 -120q82 -32 146.5 -87.5t93.5 -129.5q11 136 14.5 217t-2.5 195.5t-28 226.5q-4 20 7.5 35t24.5 15q33 0 42 -31q12 -110 18 -223t0.5 -257t-30.5 -232q-28 -33 -53.5 -26.5t-43.5 40.5q-77 142 -197 181
q-10 -114 -38 -171t-90 -57q-73 0 -104 13q-76 33 -76 154q0 96 73 145.5t170 13.5q18 141 -4.5 255t-92.5 138q-18 6 -33.5 0.5t-29 -23t-21.5 -30.5t-20.5 -39t-15.5 -32q-7 -13 -24.5 -24t-43 -8.5t-44.5 27.5q-28 36 -42 53t-38.5 36.5t-41.5 18.5q-83 -7 -136.5 -71.5
t-65 -152.5t-2 -175t46 -147t84.5 -61zM617 172q-3 -56 24.5 -85t66.5 -29t61.5 57.5t13.5 130.5q-51 31 -106.5 9.5t-59.5 -83.5zM442 359q-1 35 -17 53.5t-39 19t-46 -8t-39 -26.5t-16 -38q0 -26 19 -50t48 -24q36 0 63.5 19.5t26.5 54.5z" />
    <glyph glyph-name="nonenthai" unicode="&#xb3;" horiz-adv-x="1094" 
d="M638 45q-21 -32 -42 -32.5t-35 26t-8 60.5q1 11 5 39q6 39 8.5 61.5t7.5 69t6 77t2 76t-4.5 76.5t-13 68t-22.5 61t-35 45t-49 29.5t-65 6.5q-61 -5 -146 -50.5t-101 -107.5q75 27 94.5 21t15.5 -48q-2 -25 -32 -143.5t-32 -163.5q24 42 95 42q41 -1 75 -38t37 -88
q4 -61 -30.5 -108.5t-83.5 -50.5q-159 -9 -159 132q0 88 21 218t51 181q-44 -17 -70 -21t-40 8t-13 44q4 68 54 122t120 82.5t146 33.5q51 3 91.5 -11t67.5 -37.5t45.5 -65t28.5 -79.5t13 -94.5t2.5 -97.5t-6 -101t-9.5 -91.5t-11 -82.5q19 56 68.5 98.5t95 59t74.5 15.5
q0 85 11 236t13 216q7 32 32 32q21 0 32 -31q-1 -72 -12.5 -207t-9.5 -247q68 8 115.5 -37.5t44.5 -126.5q-2 -47 -41 -82t-91 -35q-124 0 -98 220q-32 -6 -58 -15.5t-47 -25t-34.5 -27.5t-29.5 -36t-22.5 -35.5t-21.5 -39.5zM282 192q-51 1 -72.5 -25t-18.5 -72
q5 -65 83 -61q73 6 68 88q-2 31 -17.5 50.5t-42.5 19.5zM1001 71q29 45 21 83.5t-40 62.5t-64 15q-12 -121 14 -154q22 -26 69 -7z" />
    <glyph glyph-name="nonenthai" unicode="&#xe13;" horiz-adv-x="1094" 
d="M638 45q-21 -32 -42 -32.5t-35 26t-8 60.5q1 11 5 39q6 39 8.5 61.5t7.5 69t6 77t2 76t-4.5 76.5t-13 68t-22.5 61t-35 45t-49 29.5t-65 6.5q-61 -5 -146 -50.5t-101 -107.5q75 27 94.5 21t15.5 -48q-2 -25 -32 -143.5t-32 -163.5q24 42 95 42q41 -1 75 -38t37 -88
q4 -61 -30.5 -108.5t-83.5 -50.5q-159 -9 -159 132q0 88 21 218t51 181q-44 -17 -70 -21t-40 8t-13 44q4 68 54 122t120 82.5t146 33.5q51 3 91.5 -11t67.5 -37.5t45.5 -65t28.5 -79.5t13 -94.5t2.5 -97.5t-6 -101t-9.5 -91.5t-11 -82.5q19 56 68.5 98.5t95 59t74.5 15.5
q0 85 11 236t13 216q7 32 32 32q21 0 32 -31q-1 -72 -12.5 -207t-9.5 -247q68 8 115.5 -37.5t44.5 -126.5q-2 -47 -41 -82t-91 -35q-124 0 -98 220q-32 -6 -58 -15.5t-47 -25t-34.5 -27.5t-29.5 -36t-22.5 -35.5t-21.5 -39.5zM282 192q-51 1 -72.5 -25t-18.5 -72
q5 -65 83 -61q73 6 68 88q-2 31 -17.5 50.5t-42.5 19.5zM1001 71q29 45 21 83.5t-40 62.5t-64 15q-12 -121 14 -154q22 -26 69 -7z" />
    <glyph glyph-name="dodekthai" unicode="&#xb4;" horiz-adv-x="856" 
d="M136 328q9 -220 124 -261q52 -19 130 64t92 155q-63 -37 -112 -29t-79 46t-30 87q0 59 47.5 106.5t105.5 46.5q67 -2 112.5 -51.5t45.5 -111.5q0 -60 -25 -129t-66.5 -127t-101 -96t-122.5 -37q-48 1 -88 39.5t-62.5 95.5t-35 114t-12.5 103q0 83 25.5 161t72.5 141
t122 101t167 38q88 0 154.5 -28.5t106.5 -75t64 -111.5t31 -133t3 -144.5t-14.5 -142t-26.5 -128.5q-13 -31 -38 -31q-33 0 -40 31q14 69 23 122t16 129t3 132.5t-21.5 118t-51 100.5t-91.5 64t-137 24q-86 -1 -155.5 -60.5t-104.5 -146.5t-31 -176zM487 342q27 61 1 95
t-77 32q-34 -2 -60 -24.5t-26 -51.5q0 -32 21.5 -55t52.5 -23q72 0 88 27z" />
    <glyph glyph-name="dodekthai" unicode="&#xe14;" horiz-adv-x="856" 
d="M136 328q9 -220 124 -261q52 -19 130 64t92 155q-63 -37 -112 -29t-79 46t-30 87q0 59 47.5 106.5t105.5 46.5q67 -2 112.5 -51.5t45.5 -111.5q0 -60 -25 -129t-66.5 -127t-101 -96t-122.5 -37q-48 1 -88 39.5t-62.5 95.5t-35 114t-12.5 103q0 83 25.5 161t72.5 141
t122 101t167 38q88 0 154.5 -28.5t106.5 -75t64 -111.5t31 -133t3 -144.5t-14.5 -142t-26.5 -128.5q-13 -31 -38 -31q-33 0 -40 31q14 69 23 122t16 129t3 132.5t-21.5 118t-51 100.5t-91.5 64t-137 24q-86 -1 -155.5 -60.5t-104.5 -146.5t-31 -176zM487 342q27 61 1 95
t-77 32q-34 -2 -60 -24.5t-26 -51.5q0 -32 21.5 -55t52.5 -23q72 0 88 27z" />
    <glyph glyph-name="totaothai" unicode="&#xb5;" horiz-adv-x="936" 
d="M287 684q-48 -13 -81 -54t-46 -97t-15.5 -121t9.5 -127t29.5 -113t43 -82.5t51.5 -31.5q41 0 112 65t83 121q-85 -36 -142.5 10.5t-54.5 119.5q3 66 48 100.5t110 34.5q59 0 104.5 -42t44.5 -93q-2 -80 -42.5 -169.5t-112 -153.5t-147.5 -64q-47 0 -84 26t-60 66.5
t-38.5 94t-21.5 105t-6 103.5q0 96 24.5 182.5t75.5 144t118 55.5q47 -1 79.5 -14t46 -25t40.5 -41q118 90 189 90q45 0 80.5 -16.5t58.5 -43t38.5 -67t23 -81.5t9 -95t-1 -98t-8 -99t-11 -90.5t-12.5 -81t-9 -61.5q-3 -22 -17.5 -35.5t-31.5 -13.5q-10 0 -19.5 9t-13.5 23
q3 40 16.5 132t21.5 165.5t9 156t-20 140t-66 80.5q-31 17 -68 3.5t-64.5 -37t-55.5 -45.5t-42 -21q-20 1 -36.5 12.5t-27 26.5t-26.5 29t-34 19.5t-50 -1.5zM417 288q97 1 97 86q0 38 -24.5 59t-66.5 19q-37 -4 -58.5 -25t-21.5 -56q0 -76 74 -83z" />
    <glyph glyph-name="totaothai" unicode="&#xe15;" horiz-adv-x="936" 
d="M287 684q-48 -13 -81 -54t-46 -97t-15.5 -121t9.5 -127t29.5 -113t43 -82.5t51.5 -31.5q41 0 112 65t83 121q-85 -36 -142.5 10.5t-54.5 119.5q3 66 48 100.5t110 34.5q59 0 104.5 -42t44.5 -93q-2 -80 -42.5 -169.5t-112 -153.5t-147.5 -64q-47 0 -84 26t-60 66.5
t-38.5 94t-21.5 105t-6 103.5q0 96 24.5 182.5t75.5 144t118 55.5q47 -1 79.5 -14t46 -25t40.5 -41q118 90 189 90q45 0 80.5 -16.5t58.5 -43t38.5 -67t23 -81.5t9 -95t-1 -98t-8 -99t-11 -90.5t-12.5 -81t-9 -61.5q-3 -22 -17.5 -35.5t-31.5 -13.5q-10 0 -19.5 9t-13.5 23
q3 40 16.5 132t21.5 165.5t9 156t-20 140t-66 80.5q-31 17 -68 3.5t-64.5 -37t-55.5 -45.5t-42 -21q-20 1 -36.5 12.5t-27 26.5t-26.5 29t-34 19.5t-50 -1.5zM417 288q97 1 97 86q0 38 -24.5 59t-66.5 19q-37 -4 -58.5 -25t-21.5 -56q0 -76 74 -83z" />
    <glyph glyph-name="thothungthai" unicode="&#xb6;" horiz-adv-x="884" 
d="M164 515q15 0 38 2t36 3t28 -0.5t22 -7.5t11.5 -18.5t2.5 -32.5q-4 -41 -17.5 -110t-15.5 -83q90 29 144.5 -20t54.5 -117q0 -60 -47.5 -100.5t-109.5 -40.5q-98 0 -117 73q-8 33 -9.5 70.5t3.5 81t10.5 78t15 86.5t13.5 82q-15 1 -38 -0.5t-39.5 -3t-33.5 1t-25.5 10.5
t-8.5 26.5t12 47.5q40 96 172 166t269 70q65 0 115 -24t82 -63t52.5 -98.5t29 -121t9 -140.5t-4 -147t-13.5 -150q-1 -20 -10 -31t-22 -11q-10 0 -19 10.5t-13 25.5q0 18 3.5 76t5 114.5t0 130t-14 135t-35 115.5t-66 85t-102.5 31q-68 0 -142.5 -25t-137.5 -72t-88 -104z
M403 117q7 39 -16.5 66.5t-61.5 27.5q-55 0 -67 -45q-13 -52 7 -82t62 -30q23 0 47 17.5t29 45.5z" />
    <glyph glyph-name="thothungthai" unicode="&#xe16;" horiz-adv-x="884" 
d="M164 515q15 0 38 2t36 3t28 -0.5t22 -7.5t11.5 -18.5t2.5 -32.5q-4 -41 -17.5 -110t-15.5 -83q90 29 144.5 -20t54.5 -117q0 -60 -47.5 -100.5t-109.5 -40.5q-98 0 -117 73q-8 33 -9.5 70.5t3.5 81t10.5 78t15 86.5t13.5 82q-15 1 -38 -0.5t-39.5 -3t-33.5 1t-25.5 10.5
t-8.5 26.5t12 47.5q40 96 172 166t269 70q65 0 115 -24t82 -63t52.5 -98.5t29 -121t9 -140.5t-4 -147t-13.5 -150q-1 -20 -10 -31t-22 -11q-10 0 -19 10.5t-13 25.5q0 18 3.5 76t5 114.5t0 130t-14 135t-35 115.5t-66 85t-102.5 31q-68 0 -142.5 -25t-137.5 -72t-88 -104z
M403 117q7 39 -16.5 66.5t-61.5 27.5q-55 0 -67 -45q-13 -52 7 -82t62 -30q23 0 47 17.5t29 45.5z" />
    <glyph glyph-name="thothahanthai" unicode="&#xb7;" horiz-adv-x="932" 
d="M257 32q4 32 17.5 126.5t19 169t1.5 167.5q-28 -29 -56.5 -40.5t-71.5 -9.5q-52 3 -85 45.5t-33 101.5q0 75 54 126.5t135 51.5q151 0 128 -359q20 55 35.5 93t43.5 93.5t55.5 89t66.5 59t81 24.5q41 -1 73.5 -15.5t55.5 -37.5t40 -61.5t27 -75.5t15 -92t7 -98.5
t0.5 -107t-3.5 -106.5t-6 -107q-1 -23 -2 -34q-4 -15 -18 -24.5t-29 -9.5q-17 0 -24 23q0 17 5 86t9.5 136.5t0.5 151.5t-17 146.5t-47 106t-87 44.5q-32 1 -64.5 -27t-62.5 -79.5t-53 -100.5t-52.5 -114.5t-45.5 -97.5q-19 -49 -31 -241q-2 -38 -44 -42q-21 -2 -30 13.5
t-8 25.5zM114 595q0 -59 49 -77q45 -16 86 15q39 31 40 88q0 29 -12 53t-38 29q-51 9 -88 -27t-37 -81z" />
    <glyph glyph-name="thothahanthai" unicode="&#x2219;" horiz-adv-x="932" 
d="M257 32q4 32 17.5 126.5t19 169t1.5 167.5q-28 -29 -56.5 -40.5t-71.5 -9.5q-52 3 -85 45.5t-33 101.5q0 75 54 126.5t135 51.5q151 0 128 -359q20 55 35.5 93t43.5 93.5t55.5 89t66.5 59t81 24.5q41 -1 73.5 -15.5t55.5 -37.5t40 -61.5t27 -75.5t15 -92t7 -98.5
t0.5 -107t-3.5 -106.5t-6 -107q-1 -23 -2 -34q-4 -15 -18 -24.5t-29 -9.5q-17 0 -24 23q0 17 5 86t9.5 136.5t0.5 151.5t-17 146.5t-47 106t-87 44.5q-32 1 -64.5 -27t-62.5 -79.5t-53 -100.5t-52.5 -114.5t-45.5 -97.5q-19 -49 -31 -241q-2 -38 -44 -42q-21 -2 -30 13.5
t-8 25.5zM114 595q0 -59 49 -77q45 -16 86 15q39 31 40 88q0 29 -12 53t-38 29q-51 9 -88 -27t-37 -81z" />
    <glyph glyph-name="thothahanthai" unicode="&#xe17;" horiz-adv-x="932" 
d="M257 32q4 32 17.5 126.5t19 169t1.5 167.5q-28 -29 -56.5 -40.5t-71.5 -9.5q-52 3 -85 45.5t-33 101.5q0 75 54 126.5t135 51.5q151 0 128 -359q20 55 35.5 93t43.5 93.5t55.5 89t66.5 59t81 24.5q41 -1 73.5 -15.5t55.5 -37.5t40 -61.5t27 -75.5t15 -92t7 -98.5
t0.5 -107t-3.5 -106.5t-6 -107q-1 -23 -2 -34q-4 -15 -18 -24.5t-29 -9.5q-17 0 -24 23q0 17 5 86t9.5 136.5t0.5 151.5t-17 146.5t-47 106t-87 44.5q-32 1 -64.5 -27t-62.5 -79.5t-53 -100.5t-52.5 -114.5t-45.5 -97.5q-19 -49 -31 -241q-2 -38 -44 -42q-21 -2 -30 13.5
t-8 25.5zM114 595q0 -59 49 -77q45 -16 86 15q39 31 40 88q0 29 -12 53t-38 29q-51 9 -88 -27t-37 -81z" />
    <glyph glyph-name="thothongthai" unicode="&#xb8;" horiz-adv-x="741" 
d="M581 436q-12 27 -78 35t-144 1.5t-153 -7t-105 9.5q-31 13 -31 70q0 74 43.5 128t101.5 76t116 17q33 -2 100.5 -34t104.5 -32q7 0 14.5 2t14 4t15 7.5t13.5 9t15 11.5t14.5 11t15.5 12.5t14 12.5q12 2 17 2q14 0 22.5 -8t8.5 -19q0 -33 -45 -71t-95 -37q-37 1 -123 32
t-114 31q-71 -1 -115 -28.5t-54 -100.5q-3 -26 5 -31t43 -5h10q1 0 63 2t117.5 2.5t115 -4t78.5 -15.5q20 -7 35.5 -24.5t24.5 -46.5t15.5 -57.5t8 -71.5t2.5 -73t-1.5 -77t-4 -69t-4.5 -62q-1 -9 -1 -13q-2 -29 -119 -40.5t-236.5 0.5t-128.5 40q-23 137 -5 324
q1 16 11.5 25t21.5 9q30 0 37 -25q1 -4 -6.5 -111.5t4.5 -167.5q5 -21 94.5 -25t177.5 5.5t89 22.5q10 64 7 182.5t-27 170.5z" />
    <glyph glyph-name="thothongthai" unicode="&#xe18;" horiz-adv-x="741" 
d="M581 436q-12 27 -78 35t-144 1.5t-153 -7t-105 9.5q-31 13 -31 70q0 74 43.5 128t101.5 76t116 17q33 -2 100.5 -34t104.5 -32q7 0 14.5 2t14 4t15 7.5t13.5 9t15 11.5t14.5 11t15.5 12.5t14 12.5q12 2 17 2q14 0 22.5 -8t8.5 -19q0 -33 -45 -71t-95 -37q-37 1 -123 32
t-114 31q-71 -1 -115 -28.5t-54 -100.5q-3 -26 5 -31t43 -5h10q1 0 63 2t117.5 2.5t115 -4t78.5 -15.5q20 -7 35.5 -24.5t24.5 -46.5t15.5 -57.5t8 -71.5t2.5 -73t-1.5 -77t-4 -69t-4.5 -62q-1 -9 -1 -13q-2 -29 -119 -40.5t-236.5 0.5t-128.5 40q-23 137 -5 324
q1 16 11.5 25t21.5 9q30 0 37 -25q1 -4 -6.5 -111.5t4.5 -167.5q5 -21 94.5 -25t177.5 5.5t89 22.5q10 64 7 182.5t-27 170.5z" />
    <glyph glyph-name="nonuthai" unicode="&#xb9;" horiz-adv-x="917" 
d="M630 160q-148 -73 -266 -147q-28 -15 -54.5 -14.5t-46 24t-21.5 61.5q-3 75 15 242t18 189q-36 -32 -77.5 -38.5t-75.5 9.5t-57 54.5t-23 89.5q0 21 6.5 42t21.5 44t48 38.5t78 17.5q49 2 82.5 -17.5t48 -57.5t20 -83t1.5 -102.5t-10 -106t-13 -104.5t-8 -88
q-3 -81 1 -98q12 -43 77 5q58 43 125.5 79t109.5 43q0 53 10 205t23 275q11 42 41 45q19 2 27.5 -13t4.5 -31q-3 -35 -12 -116t-11.5 -112.5t-6.5 -114t2 -120.5q87 30 144.5 -12.5t50.5 -129.5q-4 -58 -53 -96t-109 -38q-31 0 -52.5 9.5t-32.5 23.5t-17 36.5t-7 43.5t-2 49
v14zM189 539q55 9 75 58t-9 88.5t-92 24.5q-40 -13 -52 -58t10.5 -82.5t67.5 -30.5zM779 44q43 11 62.5 50.5t-0.5 71.5q-15 26 -44.5 32t-53 -1t-37.5 -17q-2 -33 -0.5 -61t7 -47.5t22 -27t44.5 -0.5z" />
    <glyph glyph-name="nonuthai" unicode="&#xe19;" horiz-adv-x="917" 
d="M630 160q-148 -73 -266 -147q-28 -15 -54.5 -14.5t-46 24t-21.5 61.5q-3 75 15 242t18 189q-36 -32 -77.5 -38.5t-75.5 9.5t-57 54.5t-23 89.5q0 21 6.5 42t21.5 44t48 38.5t78 17.5q49 2 82.5 -17.5t48 -57.5t20 -83t1.5 -102.5t-10 -106t-13 -104.5t-8 -88
q-3 -81 1 -98q12 -43 77 5q58 43 125.5 79t109.5 43q0 53 10 205t23 275q11 42 41 45q19 2 27.5 -13t4.5 -31q-3 -35 -12 -116t-11.5 -112.5t-6.5 -114t2 -120.5q87 30 144.5 -12.5t50.5 -129.5q-4 -58 -53 -96t-109 -38q-31 0 -52.5 9.5t-32.5 23.5t-17 36.5t-7 43.5t-2 49
v14zM189 539q55 9 75 58t-9 88.5t-92 24.5q-40 -13 -52 -58t10.5 -82.5t67.5 -30.5zM779 44q43 11 62.5 50.5t-0.5 71.5q-15 26 -44.5 32t-53 -1t-37.5 -17q-2 -33 -0.5 -61t7 -47.5t22 -27t44.5 -0.5z" />
    <glyph glyph-name="bobaimaithai" unicode="&#xba;" horiz-adv-x="899" 
d="M268 86q-4 75 2.5 219t5.5 192q-23 -20 -63.5 -25t-80 6.5t-67.5 50t-27 96.5q1 40 19.5 73t46.5 50.5t62 26.5t67.5 1.5t60.5 -25.5t43.5 -54.5t14.5 -84.5q-12 -366 -10 -477q1 -52 20 -63.5t83 -13.5q168 -5 244 9q34 7 44 16q19 20 19 88q0 77 -5.5 289t-5.5 282
q0 18 12.5 28t27.5 10q13 0 28.5 -12t15.5 -26q0 -36 2.5 -267.5t2.5 -323.5q0 -25 -2.5 -45.5t-8.5 -35t-11.5 -26t-15.5 -18.5t-16 -12t-18 -8l-16 -4t-16 -2l-13 -1q-62 -9 -261 -9q-38 0 -56.5 0.5t-47 5.5t-42 14.5t-25.5 28.5t-13 47zM205 710q-58 0 -85 -44.5t-5 -88
t83 -40.5q54 1 75.5 44t1 86t-69.5 43z" />
    <glyph glyph-name="bobaimaithai" unicode="&#xe1a;" horiz-adv-x="899" 
d="M268 86q-4 75 2.5 219t5.5 192q-23 -20 -63.5 -25t-80 6.5t-67.5 50t-27 96.5q1 40 19.5 73t46.5 50.5t62 26.5t67.5 1.5t60.5 -25.5t43.5 -54.5t14.5 -84.5q-12 -366 -10 -477q1 -52 20 -63.5t83 -13.5q168 -5 244 9q34 7 44 16q19 20 19 88q0 77 -5.5 289t-5.5 282
q0 18 12.5 28t27.5 10q13 0 28.5 -12t15.5 -26q0 -36 2.5 -267.5t2.5 -323.5q0 -25 -2.5 -45.5t-8.5 -35t-11.5 -26t-15.5 -18.5t-16 -12t-18 -8l-16 -4t-16 -2l-13 -1q-62 -9 -261 -9q-38 0 -56.5 0.5t-47 5.5t-42 14.5t-25.5 28.5t-13 47zM205 710q-58 0 -85 -44.5t-5 -88
t83 -40.5q54 1 75.5 44t1 86t-69.5 43z" />
    <glyph glyph-name="poplathai" unicode="&#xbb;" horiz-adv-x="932" 
d="M268 86q-4 80 1 239t5 172q-25 -19 -65 -23.5t-79 6t-67 47.5t-27 94q2 58 48 106t106 48q80 0 121.5 -44.5t38.5 -126.5q-10 -329 -8 -469q1 -52 20 -63.5t83 -13.5q168 -5 244 9q34 7 44 16q19 20 19 88q0 77 -6 420t-6 413q0 18 12.5 28t27.5 10q13 0 28.5 -12
t15.5 -26q0 -36 3 -398.5t3 -454.5q0 -25 -2.5 -45.5t-8.5 -35t-11.5 -26t-15.5 -18.5t-16 -12t-18 -8l-16 -4t-16 -2l-13 -1q-62 -9 -261 -9q-38 0 -56.5 0.5t-47 5.5t-42 14.5t-25.5 28.5t-13 47zM201 705q-57 0 -83.5 -43.5t-5 -86t81.5 -40.5q32 1 53.5 19t26.5 43
t0.5 49.5t-24.5 41.5t-49 17z" />
    <glyph glyph-name="poplathai" unicode="&#xe1b;" horiz-adv-x="932" 
d="M268 86q-4 80 1 239t5 172q-25 -19 -65 -23.5t-79 6t-67 47.5t-27 94q2 58 48 106t106 48q80 0 121.5 -44.5t38.5 -126.5q-10 -329 -8 -469q1 -52 20 -63.5t83 -13.5q168 -5 244 9q34 7 44 16q19 20 19 88q0 77 -6 420t-6 413q0 18 12.5 28t27.5 10q13 0 28.5 -12
t15.5 -26q0 -36 3 -398.5t3 -454.5q0 -25 -2.5 -45.5t-8.5 -35t-11.5 -26t-15.5 -18.5t-16 -12t-18 -8l-16 -4t-16 -2l-13 -1q-62 -9 -261 -9q-38 0 -56.5 0.5t-47 5.5t-42 14.5t-25.5 28.5t-13 47zM201 705q-57 0 -83.5 -43.5t-5 -86t81.5 -40.5q32 1 53.5 19t26.5 43
t0.5 49.5t-24.5 41.5t-49 17z" />
    <glyph glyph-name="phophungthai" unicode="&#xbc;" horiz-adv-x="875" 
d="M200 752q90 47 157 -10q53 -44 57 -118q4 -81 -57 -123q-26 -17 -61 -24q-79 -13 -129 43q-8 -46 -12 -111.5t-0.5 -143t29.5 -135t72 -65.5q30 -5 62 28.5t56 85.5t41 103.5t23 88.5q7 49 38 51q24 1 33 -21q1 -5 2 -9q5 -45 16 -92t31 -100t53.5 -84t75.5 -26
q22 3 33.5 58t13 142t-0.5 170t-5.5 168.5t-3.5 110.5q3 15 16.5 23.5t25.5 8.5q11 0 23.5 -9t11.5 -23q-3 -33 -0.5 -87.5t3 -124t1 -142t-6 -141.5t-17.5 -123.5t-34 -87t-56 -32.5q-65 1 -136 71t-80 181q-24 -112 -85.5 -188.5t-129.5 -76.5q-67 0 -111 71t-56 175.5
t-5.5 213t37.5 195t75 109.5zM363 619q0 52 -42.5 74.5t-84.5 1t-42 -76.5q0 -31 17.5 -53t42 -27t49.5 0t42.5 27t17.5 54z" />
    <glyph glyph-name="phophungthai" unicode="&#xe1c;" horiz-adv-x="875" 
d="M200 752q90 47 157 -10q53 -44 57 -118q4 -81 -57 -123q-26 -17 -61 -24q-79 -13 -129 43q-8 -46 -12 -111.5t-0.5 -143t29.5 -135t72 -65.5q30 -5 62 28.5t56 85.5t41 103.5t23 88.5q7 49 38 51q24 1 33 -21q1 -5 2 -9q5 -45 16 -92t31 -100t53.5 -84t75.5 -26
q22 3 33.5 58t13 142t-0.5 170t-5.5 168.5t-3.5 110.5q3 15 16.5 23.5t25.5 8.5q11 0 23.5 -9t11.5 -23q-3 -33 -0.5 -87.5t3 -124t1 -142t-6 -141.5t-17.5 -123.5t-34 -87t-56 -32.5q-65 1 -136 71t-80 181q-24 -112 -85.5 -188.5t-129.5 -76.5q-67 0 -111 71t-56 175.5
t-5.5 213t37.5 195t75 109.5zM363 619q0 52 -42.5 74.5t-84.5 1t-42 -76.5q0 -31 17.5 -53t42 -27t49.5 0t42.5 27t17.5 54z" />
    <glyph glyph-name="fofathai" unicode="&#xbd;" horiz-adv-x="868" 
d="M200 752q90 47 157 -10q53 -44 57 -118q4 -81 -57 -123q-26 -17 -61 -24q-79 -13 -129 43q-8 -46 -12 -111.5t-0.5 -143t29.5 -135t72 -65.5q30 -5 62 28.5t56 85.5t41 103.5t23 88.5q7 49 38 51q24 1 33 -21q1 -5 2 -9q5 -45 16 -92t31 -100t53.5 -84t75.5 -26
q35 5 44.5 214.5t2 418t-16.5 289.5q3 15 16.5 23.5t25.5 8.5q10 0 22 -9t13 -23q6 -50 12 -132t11.5 -201.5t2.5 -234.5t-14 -217t-40.5 -164.5t-74.5 -61.5q-65 2 -136 71.5t-80 180.5q-24 -112 -85.5 -188.5t-129.5 -76.5q-67 0 -111 71t-56 175.5t-5.5 213t37.5 195
t75 109.5zM265 707q-28 0 -47 -16t-24 -39.5t-0.5 -48t24.5 -43.5t51 -24h-1q55 -4 78.5 39t0 87.5t-81.5 44.5z" />
    <glyph glyph-name="fofathai" unicode="&#xe1d;" horiz-adv-x="868" 
d="M200 752q90 47 157 -10q53 -44 57 -118q4 -81 -57 -123q-26 -17 -61 -24q-79 -13 -129 43q-8 -46 -12 -111.5t-0.5 -143t29.5 -135t72 -65.5q30 -5 62 28.5t56 85.5t41 103.5t23 88.5q7 49 38 51q24 1 33 -21q1 -5 2 -9q5 -45 16 -92t31 -100t53.5 -84t75.5 -26
q35 5 44.5 214.5t2 418t-16.5 289.5q3 15 16.5 23.5t25.5 8.5q10 0 22 -9t13 -23q6 -50 12 -132t11.5 -201.5t2.5 -234.5t-14 -217t-40.5 -164.5t-74.5 -61.5q-65 2 -136 71.5t-80 180.5q-24 -112 -85.5 -188.5t-129.5 -76.5q-67 0 -111 71t-56 175.5t-5.5 213t37.5 195
t75 109.5zM265 707q-28 0 -47 -16t-24 -39.5t-0.5 -48t24.5 -43.5t51 -24h-1q55 -4 78.5 39t0 87.5t-81.5 44.5z" />
    <glyph glyph-name="phophanthai" unicode="&#xbe;" horiz-adv-x="919" 
d="M845 31q-19 -41 -57 -26.5t-55 54.5q-30 73 -75.5 192.5t-68 169t-38.5 60.5q-14 -21 -32.5 -63t-36 -86.5t-52 -134.5t-63.5 -163h1q-12 -31 -49 -31q-20 0 -33.5 11t-12.5 30q-5 95 8 439q-24 -30 -60.5 -40t-70.5 1.5t-64 38.5t-39.5 70t3.5 98q13 49 59.5 82.5
t98.5 33.5q58 0 99 -41.5t45 -118.5q1 -33 -1 -80t-7 -155.5t-9 -242.5q10 26 30 80.5t27.5 73.5t22 57t23.5 58.5t22 48t27 53.5q13 24 33 46.5t34 21.5q38 -5 70 -62q28 -51 78.5 -193t75.5 -201l3 610q-4 23 2.5 35.5t15 15t21.5 2.5q17 0 26.5 -12t8.5 -32
q-1 -17 0 -153q2 -547 -10 -547zM284 551q8 154 -86 154q-27 0 -56.5 -25t-33.5 -68q-3 -34 16.5 -68.5t59 -42.5t100.5 50z" />
    <glyph glyph-name="phophanthai" unicode="&#xe1e;" horiz-adv-x="919" 
d="M845 31q-19 -41 -57 -26.5t-55 54.5q-30 73 -75.5 192.5t-68 169t-38.5 60.5q-14 -21 -32.5 -63t-36 -86.5t-52 -134.5t-63.5 -163h1q-12 -31 -49 -31q-20 0 -33.5 11t-12.5 30q-5 95 8 439q-24 -30 -60.5 -40t-70.5 1.5t-64 38.5t-39.5 70t3.5 98q13 49 59.5 82.5
t98.5 33.5q58 0 99 -41.5t45 -118.5q1 -33 -1 -80t-7 -155.5t-9 -242.5q10 26 30 80.5t27.5 73.5t22 57t23.5 58.5t22 48t27 53.5q13 24 33 46.5t34 21.5q38 -5 70 -62q28 -51 78.5 -193t75.5 -201l3 610q-4 23 2.5 35.5t15 15t21.5 2.5q17 0 26.5 -12t8.5 -32
q-1 -17 0 -153q2 -547 -10 -547zM284 551q8 154 -86 154q-27 0 -56.5 -25t-33.5 -68q-3 -34 16.5 -68.5t59 -42.5t100.5 50z" />
    <glyph glyph-name="fofanthai" unicode="&#xbf;" horiz-adv-x="1003" 
d="M906 31q-19 -41 -57 -26.5t-55 54.5q-163 395 -204 422q-82 -124 -211 -447h1q-12 -31 -49 -31q-20 0 -33.5 11t-12.5 30q-5 95 8 439q-24 -30 -60.5 -40t-70.5 1.5t-64 38.5t-39.5 70t3.5 98q13 49 59.5 82.5t98.5 33.5q58 0 99 -41.5t45 -118.5q1 -33 -1 -80t-7 -155.5
t-9 -242.5q24 63 50 121t42.5 89.5t46 85.5t40.5 75q13 24 33 46.5t34 21.5q38 -5 70 -62q40 -72 176 -394l10 893q-4 23 2.5 35.5t15 15t21.5 2.5q17 0 26.5 -12t8.5 -32q0 -14 -0.5 -127.5t-1 -255.5t-2 -283t-5 -233t-8.5 -84zM296 551q8 154 -86 154q-27 0 -56.5 -25
t-33.5 -68q-3 -34 16.5 -68.5t59 -42.5t100.5 50z" />
    <glyph glyph-name="fofanthai" unicode="&#xe1f;" horiz-adv-x="1003" 
d="M906 31q-19 -41 -57 -26.5t-55 54.5q-163 395 -204 422q-82 -124 -211 -447h1q-12 -31 -49 -31q-20 0 -33.5 11t-12.5 30q-5 95 8 439q-24 -30 -60.5 -40t-70.5 1.5t-64 38.5t-39.5 70t3.5 98q13 49 59.5 82.5t98.5 33.5q58 0 99 -41.5t45 -118.5q1 -33 -1 -80t-7 -155.5
t-9 -242.5q24 63 50 121t42.5 89.5t46 85.5t40.5 75q13 24 33 46.5t34 21.5q38 -5 70 -62q40 -72 176 -394l10 893q-4 23 2.5 35.5t15 15t21.5 2.5q17 0 26.5 -12t8.5 -32q0 -14 -0.5 -127.5t-1 -255.5t-2 -283t-5 -233t-8.5 -84zM296 551q8 154 -86 154q-27 0 -56.5 -25
t-33.5 -68q-3 -34 16.5 -68.5t59 -42.5t100.5 50z" />
    <glyph glyph-name="phosamphaothai" unicode="&#xc0;" horiz-adv-x="843" 
d="M52 127q-1 31 7 54.5t24 37.5t30 21.5t32 13.5q26 9 65.5 -2t58.5 -50q10 249 1 278q-10 5 -72.5 6t-76.5 20q-23 26 -23 43q0 58 57 114t132.5 88t137.5 33q79 2 138 -19t94.5 -55.5t58 -89t30.5 -107.5t9 -124t-3 -126.5t-8.5 -126.5t-4.5 -113q0 -13 -7 -20t-13.5 -8
t-18.5 -1q-19 0 -29 35q0 38 4.5 100.5t9 113.5t5 115t-5 113t-22.5 97.5t-45 80t-76 49t-113 13.5q-171 -9 -250 -153q20 -3 52 -5t53 -3.5t26 -4.5q22 -12 27.5 -129t-8 -239t-39.5 -145q-44 -39 -98.5 -42.5t-95 33.5t-43.5 104zM113 127q0 -49 35 -69.5t70.5 -3.5
t35.5 59q0 52 -35 74t-70.5 3.5t-35.5 -63.5z" />
    <glyph glyph-name="phosamphaothai" unicode="&#xe20;" horiz-adv-x="843" 
d="M52 127q-1 31 7 54.5t24 37.5t30 21.5t32 13.5q26 9 65.5 -2t58.5 -50q10 249 1 278q-10 5 -72.5 6t-76.5 20q-23 26 -23 43q0 58 57 114t132.5 88t137.5 33q79 2 138 -19t94.5 -55.5t58 -89t30.5 -107.5t9 -124t-3 -126.5t-8.5 -126.5t-4.5 -113q0 -13 -7 -20t-13.5 -8
t-18.5 -1q-19 0 -29 35q0 38 4.5 100.5t9 113.5t5 115t-5 113t-22.5 97.5t-45 80t-76 49t-113 13.5q-171 -9 -250 -153q20 -3 52 -5t53 -3.5t26 -4.5q22 -12 27.5 -129t-8 -239t-39.5 -145q-44 -39 -98.5 -42.5t-95 33.5t-43.5 104zM113 127q0 -49 35 -69.5t70.5 -3.5
t35.5 59q0 52 -35 74t-70.5 3.5t-35.5 -63.5z" />
    <glyph glyph-name="momathai" unicode="&#xc1;" horiz-adv-x="865" 
d="M307 218l14 313q-39 -51 -116 -45q-51 4 -88.5 35t-36.5 98q0 74 46 117t107.5 42t107.5 -43q14 -13 24.5 -36.5t16.5 -52.5t9 -65t3.5 -71.5t-1 -74.5t-4 -72t-5.5 -66t-6 -54t-5 -39l-2 -17q14 -5 38 -15.5t49 -21.5t53 -23.5t52.5 -22t45.5 -15.5t34.5 -5t16.5 10
q6 38 7.5 129t0.5 171t-3.5 199t-2.5 152q4 12 13 20t19 8q32 0 34 -32q12 -168 12.5 -361t-18.5 -336q-5 -14 -20.5 -25t-29.5 -11q-47 0 -104.5 18.5t-127 50t-79.5 35.5q-11 -60 -55 -94t-91.5 -36t-87.5 26t-46 80q-13 114 51 152t175 -22zM287 154q-25 17 -50.5 27
t-49 9.5t-37.5 -19.5t-13 -57q2 -50 43 -67.5t74 16.5q30 30 33 91zM219 715q-81 0 -86 -90q-3 -55 62 -72q34 -10 77.5 10.5t45.5 64.5q1 39 -29 63t-70 24z" />
    <glyph glyph-name="momathai" unicode="&#xe21;" horiz-adv-x="865" 
d="M307 218l14 313q-39 -51 -116 -45q-51 4 -88.5 35t-36.5 98q0 74 46 117t107.5 42t107.5 -43q14 -13 24.5 -36.5t16.5 -52.5t9 -65t3.5 -71.5t-1 -74.5t-4 -72t-5.5 -66t-6 -54t-5 -39l-2 -17q14 -5 38 -15.5t49 -21.5t53 -23.5t52.5 -22t45.5 -15.5t34.5 -5t16.5 10
q6 38 7.5 129t0.5 171t-3.5 199t-2.5 152q4 12 13 20t19 8q32 0 34 -32q12 -168 12.5 -361t-18.5 -336q-5 -14 -20.5 -25t-29.5 -11q-47 0 -104.5 18.5t-127 50t-79.5 35.5q-11 -60 -55 -94t-91.5 -36t-87.5 26t-46 80q-13 114 51 152t175 -22zM287 154q-25 17 -50.5 27
t-49 9.5t-37.5 -19.5t-13 -57q2 -50 43 -67.5t74 16.5q30 30 33 91zM219 715q-81 0 -86 -90q-3 -55 62 -72q34 -10 77.5 10.5t45.5 64.5q1 39 -29 63t-70 24z" />
    <glyph glyph-name="yoyakthai" unicode="&#xc2;" horiz-adv-x="837" 
d="M295 506q-57 -16 -109.5 11t-57.5 67q-13 -42 7.5 -85t62 -68t96.5 -31t111 25q14 7 31 -1.5t20 -29.5q2 -19 -20.5 -36t-64.5 -20q-72 -12 -120.5 -52.5t-64 -87.5t-3.5 -88q13 -45 74 -49q213 -13 287 -1q75 11 87 43q16 41 23 271.5t-1 342.5q-2 36 4.5 47t26.5 13
t29 -9t11 -42q3 -73 4.5 -198.5t-8.5 -280.5t-30 -219q-7 -24 -105 -34t-212 -6t-182 16q-69 12 -75 108q-2 28 2 56t15.5 62t39 66t68.5 55q-92 27 -134.5 86t-42.5 125q0 80 51 144.5t130 68.5q45 3 81.5 -19.5t52 -58t16 -73.5t-26 -71t-73.5 -47zM336 614q15 46 -23 82
t-89 28t-66 -68q-10 -40 27 -73t85 -27.5t66 58.5z" />
    <glyph glyph-name="yoyakthai" unicode="&#xe22;" horiz-adv-x="837" 
d="M295 506q-57 -16 -109.5 11t-57.5 67q-13 -42 7.5 -85t62 -68t96.5 -31t111 25q14 7 31 -1.5t20 -29.5q2 -19 -20.5 -36t-64.5 -20q-72 -12 -120.5 -52.5t-64 -87.5t-3.5 -88q13 -45 74 -49q213 -13 287 -1q75 11 87 43q16 41 23 271.5t-1 342.5q-2 36 4.5 47t26.5 13
t29 -9t11 -42q3 -73 4.5 -198.5t-8.5 -280.5t-30 -219q-7 -24 -105 -34t-212 -6t-182 16q-69 12 -75 108q-2 28 2 56t15.5 62t39 66t68.5 55q-92 27 -134.5 86t-42.5 125q0 80 51 144.5t130 68.5q45 3 81.5 -19.5t52 -58t16 -73.5t-26 -71t-73.5 -47zM336 614q15 46 -23 82
t-89 28t-66 -68q-10 -40 27 -73t85 -27.5t66 58.5z" />
    <glyph glyph-name="roruathai" unicode="&#xc3;" horiz-adv-x="733" 
d="M303 149q7 51 53 77t99.5 20.5t84.5 -37.5q10 50 0 152t-31 116q-38 26 -89.5 29.5t-94.5 -6.5t-100 -24t-91 -17q-20 -2 -42 24.5t-21 48.5q4 98 74.5 164t159.5 66q30 0 65 -13t63 -26.5t59 -22t64.5 3t66.5 46.5q12 11 26 11q15 0 27.5 -12t9.5 -27q-6 -29 -34 -50.5
t-62.5 -31t-70 -9.5t-57.5 11q-121 63 -204 41t-104 -123q-3 -16 0.5 -24t16 -8t30.5 4.5t47 15.5q43 16 106.5 20t126 -9.5t88.5 -44.5q27 -31 34.5 -124t1 -178.5t-16.5 -125.5q-13 -52 -56 -76.5t-98 -22.5q-56 2 -98 48t-33 114zM438 187q-49 0 -66.5 -34t2.5 -68.5
t62 -35.5q30 -2 55.5 16t26.5 56q0 30 -25.5 48t-54.5 18z" />
    <glyph glyph-name="roruathai" unicode="&#xe23;" horiz-adv-x="733" 
d="M303 149q7 51 53 77t99.5 20.5t84.5 -37.5q10 50 0 152t-31 116q-38 26 -89.5 29.5t-94.5 -6.5t-100 -24t-91 -17q-20 -2 -42 24.5t-21 48.5q4 98 74.5 164t159.5 66q30 0 65 -13t63 -26.5t59 -22t64.5 3t66.5 46.5q12 11 26 11q15 0 27.5 -12t9.5 -27q-6 -29 -34 -50.5
t-62.5 -31t-70 -9.5t-57.5 11q-121 63 -204 41t-104 -123q-3 -16 0.5 -24t16 -8t30.5 4.5t47 15.5q43 16 106.5 20t126 -9.5t88.5 -44.5q27 -31 34.5 -124t1 -178.5t-16.5 -125.5q-13 -52 -56 -76.5t-98 -22.5q-56 2 -98 48t-33 114zM438 187q-49 0 -66.5 -34t2.5 -68.5
t62 -35.5q30 -2 55.5 16t26.5 56q0 30 -25.5 48t-54.5 18z" />
    <glyph glyph-name="ruthai" unicode="&#xc4;" horiz-adv-x="863" 
d="M147 515q15 0 38 2t36 3t28 -0.5t22 -7.5t11.5 -18.5t2.5 -32.5q-4 -41 -17.5 -110t-15.5 -83q90 29 144.5 -20t54.5 -117q0 -60 -47.5 -100.5t-109.5 -40.5q-98 0 -117 73q-8 33 -9.5 70.5t3.5 81t10.5 78t15 86.5t13.5 82q-15 1 -38 -0.5t-39.5 -3t-33.5 1t-25.5 10.5
t-8.5 26.5t12 47.5q40 96 172 166.5t269 69.5q73 0 126 -43.5t81.5 -112.5t43.5 -168.5t17 -196t-4 -211t-14.5 -199.5t-18.5 -174l-3 -24q-1 -20 -10 -31t-22 -11q-10 0 -19 10.5t-13 25.5q0 20 7.5 97.5t14.5 170t12 206.5t-2.5 217.5t-26.5 191t-63 139t-109 50.5
q-107 -2 -218.5 -59t-149.5 -142zM386 117q7 39 -16.5 66.5t-61.5 27.5q-55 0 -67 -45q-13 -52 7 -82t62 -30q23 0 47 17.5t29 45.5z" />
    <glyph glyph-name="ruthai" unicode="&#xe24;" horiz-adv-x="863" 
d="M147 515q15 0 38 2t36 3t28 -0.5t22 -7.5t11.5 -18.5t2.5 -32.5q-4 -41 -17.5 -110t-15.5 -83q90 29 144.5 -20t54.5 -117q0 -60 -47.5 -100.5t-109.5 -40.5q-98 0 -117 73q-8 33 -9.5 70.5t3.5 81t10.5 78t15 86.5t13.5 82q-15 1 -38 -0.5t-39.5 -3t-33.5 1t-25.5 10.5
t-8.5 26.5t12 47.5q40 96 172 166.5t269 69.5q73 0 126 -43.5t81.5 -112.5t43.5 -168.5t17 -196t-4 -211t-14.5 -199.5t-18.5 -174l-3 -24q-1 -20 -10 -31t-22 -11q-10 0 -19 10.5t-13 25.5q0 20 7.5 97.5t14.5 170t12 206.5t-2.5 217.5t-26.5 191t-63 139t-109 50.5
q-107 -2 -218.5 -59t-149.5 -142zM386 117q7 39 -16.5 66.5t-61.5 27.5q-55 0 -67 -45q-13 -52 7 -82t62 -30q23 0 47 17.5t29 45.5z" />
    <glyph glyph-name="lolingthai" unicode="&#xc5;" horiz-adv-x="822" 
d="M306 -8q-50 -5 -86.5 8.5t-54.5 40t-25.5 51.5t-8.5 52q-7 252 151 336q52 28 136 30.5t138 -23.5q41 -21 71.5 -65t46.5 -88q-3 25 -0.5 57t-1.5 68t-9 72t-23 68.5t-44 58t-72 40.5t-107 15q-86 0 -170 -34.5t-105 -86.5q-4 -11 -24.5 -12t-27.5 7q-25 27 10 67
q48 55 135.5 89.5t181.5 31.5q180 -5 252 -78.5t74.5 -238.5t-25.5 -435q-13 -31 -43 -31q-15 0 -28 9t-12 24q21 224 -38 326.5t-211 90.5q-71 -6 -122.5 -60t-50.5 -136q43 16 89 8t82.5 -43.5t36.5 -82.5q0 -57 -29 -93.5t-86 -42.5zM270 50q44 -6 68.5 14.5t24.5 54.5
q0 29 -26.5 53t-63.5 26q-77 4 -77 -72q0 -26 19 -48.5t55 -27.5z" />
    <glyph glyph-name="lolingthai" unicode="&#xe25;" horiz-adv-x="822" 
d="M306 -8q-50 -5 -86.5 8.5t-54.5 40t-25.5 51.5t-8.5 52q-7 252 151 336q52 28 136 30.5t138 -23.5q41 -21 71.5 -65t46.5 -88q-3 25 -0.5 57t-1.5 68t-9 72t-23 68.5t-44 58t-72 40.5t-107 15q-86 0 -170 -34.5t-105 -86.5q-4 -11 -24.5 -12t-27.5 7q-25 27 10 67
q48 55 135.5 89.5t181.5 31.5q180 -5 252 -78.5t74.5 -238.5t-25.5 -435q-13 -31 -43 -31q-15 0 -28 9t-12 24q21 224 -38 326.5t-211 90.5q-71 -6 -122.5 -60t-50.5 -136q43 16 89 8t82.5 -43.5t36.5 -82.5q0 -57 -29 -93.5t-86 -42.5zM270 50q44 -6 68.5 14.5t24.5 54.5
q0 29 -26.5 53t-63.5 26q-77 4 -77 -72q0 -26 19 -48.5t55 -27.5z" />
    <glyph glyph-name="luthai" unicode="&#xc6;" horiz-adv-x="828" 
d="M52 127q-1 31 7 54.5t24 37.5t30 21.5t32 13.5q26 9 65.5 -2t58.5 -50q10 249 1 278q-10 5 -72.5 6t-76.5 20q-23 26 -23 43q0 58 57.5 112.5t132 86t137.5 36.5q128 10 200 -43t91 -173q22 -172 17 -331.5t-16.5 -338.5t-8.5 -219q-1 -22 -9.5 -37t-21.5 -15
q-11 0 -25 17.5t-19 34.5q0 54 11.5 241t15.5 320.5t-9 301.5q-21 188 -223 169q-175 -17 -250 -153q20 -3 52 -5t53 -3.5t26 -4.5q22 -12 27.5 -129t-8 -239t-39.5 -145q-44 -39 -98.5 -42.5t-95 33.5t-43.5 104zM113 127q0 -49 35 -69.5t70.5 -3.5t35.5 59q0 52 -35 74
t-70.5 3.5t-35.5 -63.5z" />
    <glyph glyph-name="luthai" unicode="&#xe26;" horiz-adv-x="828" 
d="M52 127q-1 31 7 54.5t24 37.5t30 21.5t32 13.5q26 9 65.5 -2t58.5 -50q10 249 1 278q-10 5 -72.5 6t-76.5 20q-23 26 -23 43q0 58 57.5 112.5t132 86t137.5 36.5q128 10 200 -43t91 -173q22 -172 17 -331.5t-16.5 -338.5t-8.5 -219q-1 -22 -9.5 -37t-21.5 -15
q-11 0 -25 17.5t-19 34.5q0 54 11.5 241t15.5 320.5t-9 301.5q-21 188 -223 169q-175 -17 -250 -153q20 -3 52 -5t53 -3.5t26 -4.5q22 -12 27.5 -129t-8 -239t-39.5 -145q-44 -39 -98.5 -42.5t-95 33.5t-43.5 104zM113 127q0 -49 35 -69.5t70.5 -3.5t35.5 59q0 52 -35 74
t-70.5 3.5t-35.5 -63.5z" />
    <glyph glyph-name="wowaenthai" unicode="&#xc7;" horiz-adv-x="684" 
d="M254 120q-6 54 26.5 94t78 54t91.5 0.5t64 -55.5q12 5 17.5 52t4.5 94q-4 347 -163 347q-63 0 -133 -39.5t-112 -90.5q-23 -29 -58 0q-13 11 -11 31.5t18 37.5q52 55 129 90.5t159 35.5q61 0 105.5 -23.5t69.5 -59.5t39.5 -92.5t19 -109.5t4.5 -123q0 -113 -18.5 -198.5
t-61.5 -137.5t-106 -48q-71 4 -113 35.5t-50 105.5zM317 127q0 -34 18.5 -56.5t45.5 -28t54 -1t47.5 23.5t22.5 47q6 64 -41.5 92.5t-97 6t-49.5 -83.5z" />
    <glyph glyph-name="wowaenthai" unicode="&#xe27;" horiz-adv-x="684" 
d="M254 120q-6 54 26.5 94t78 54t91.5 0.5t64 -55.5q12 5 17.5 52t4.5 94q-4 347 -163 347q-63 0 -133 -39.5t-112 -90.5q-23 -29 -58 0q-13 11 -11 31.5t18 37.5q52 55 129 90.5t159 35.5q61 0 105.5 -23.5t69.5 -59.5t39.5 -92.5t19 -109.5t4.5 -123q0 -113 -18.5 -198.5
t-61.5 -137.5t-106 -48q-71 4 -113 35.5t-50 105.5zM317 127q0 -34 18.5 -56.5t45.5 -28t54 -1t47.5 23.5t22.5 47q6 64 -41.5 92.5t-97 6t-49.5 -83.5z" />
    <glyph glyph-name="sosalathai" unicode="&#xc8;" horiz-adv-x="875" 
d="M496 271q-107 -15 -136 73q-12 -31 -29 -101.5t-38 -129t-51 -92.5q-34 -38 -74 -3q-57 48 -69 188l-3 44q-2 80 9.5 155t40 143t70.5 118.5t104.5 81t138.5 30.5q150 0 233 -67q49 15 108.5 68.5t73.5 99.5q20 32 49 23.5t28 -45.5q-19 -60 -78.5 -120.5t-124.5 -89.5
q34 -55 47.5 -140t12 -166.5t-11.5 -201.5q-3 -34 -4 -71t-3 -56q-3 -31 -45 -31q-12 0 -22 10.5t-11 22.5q-1 41 -1.5 46t4 36.5t7.5 56.5q7 71 10 109.5t4 106t-6.5 106.5t-25 89t-47 76.5t-77.5 45.5t-112 19q-75 0 -134 -41.5t-92.5 -104.5t-53.5 -137.5t-22 -141.5
t8.5 -116t31.5 -61q7 -3 16 15t19.5 51.5t22 75t25.5 86t29.5 84t34.5 71t39 43.5q52 29 99 26.5t79 -43t32 -105.5q0 -49 -30.5 -89.5t-74.5 -46.5zM500 335q31 15 41.5 54.5t-6 73t-52.5 33.5q-34 0 -64.5 -32t-23.5 -73q6 -31 35 -52.5t70 -3.5z" />
    <glyph glyph-name="sosalathai" unicode="&#xe28;" horiz-adv-x="875" 
d="M496 271q-107 -15 -136 73q-12 -31 -29 -101.5t-38 -129t-51 -92.5q-34 -38 -74 -3q-57 48 -69 188l-3 44q-2 80 9.5 155t40 143t70.5 118.5t104.5 81t138.5 30.5q150 0 233 -67q49 15 108.5 68.5t73.5 99.5q20 32 49 23.5t28 -45.5q-19 -60 -78.5 -120.5t-124.5 -89.5
q34 -55 47.5 -140t12 -166.5t-11.5 -201.5q-3 -34 -4 -71t-3 -56q-3 -31 -45 -31q-12 0 -22 10.5t-11 22.5q-1 41 -1.5 46t4 36.5t7.5 56.5q7 71 10 109.5t4 106t-6.5 106.5t-25 89t-47 76.5t-77.5 45.5t-112 19q-75 0 -134 -41.5t-92.5 -104.5t-53.5 -137.5t-22 -141.5
t8.5 -116t31.5 -61q7 -3 16 15t19.5 51.5t22 75t25.5 86t29.5 84t34.5 71t39 43.5q52 29 99 26.5t79 -43t32 -105.5q0 -49 -30.5 -89.5t-74.5 -46.5zM500 335q31 15 41.5 54.5t-6 73t-52.5 33.5q-34 0 -64.5 -32t-23.5 -73q6 -31 35 -52.5t70 -3.5z" />
    <glyph glyph-name="sorusithai" unicode="&#xc9;" horiz-adv-x="973" 
d="M784 302q-34 -29 -88 -46t-107 -15.5t-89.5 40t-33.5 111.5q1 39 39 65t81 26q25 0 46.5 -6t44 -22.5t28 -45.5t-2.5 -75q6 4 21 10t27 15t23 25q3 51 1 186t2 165q15 48 36 48q26 0 35 -27q5 -40 7.5 -168.5t3.5 -150.5q64 83 81 83q11 0 18.5 -12t8.5 -29
q-7 -26 -25.5 -50.5t-35 -39t-50.5 -41.5q0 -185 -6 -231q-13 -109 -73 -123l-8 -2q-33 -4 -124 -8.5t-199 -3t-141 14.5q-2 4 -11 18.5t-11 19.5t-5 19.5t-3 32.5q0 158 33 398q-61 -32 -114.5 -21t-90 55t-36.5 97q0 64 47 117t112 53q83 0 123.5 -56.5t40.5 -138.5
q0 -42 -17.5 -226.5t-17.5 -239.5q0 -45 13 -58t55 -13q33 0 147.5 5.5t145.5 5.5q65 0 62 79q-1 22 0.5 51t3.5 63t3 46zM129 612q1 -3 2.5 -9t8 -20.5t15.5 -25.5t26.5 -19.5t39.5 -7.5q51 2 77 27.5t26 64.5q0 43 -24 70t-63 27q-43 0 -75.5 -33t-32.5 -74zM529 366v1
q-3 -28 19 -46.5t49 -18.5q29 0 48 19t16 57q-5 21 -26.5 37t-43.5 16q-25 0 -42.5 -16t-19.5 -49z" />
    <glyph glyph-name="sorusithai" unicode="&#xe29;" horiz-adv-x="973" 
d="M784 302q-34 -29 -88 -46t-107 -15.5t-89.5 40t-33.5 111.5q1 39 39 65t81 26q25 0 46.5 -6t44 -22.5t28 -45.5t-2.5 -75q6 4 21 10t27 15t23 25q3 51 1 186t2 165q15 48 36 48q26 0 35 -27q5 -40 7.5 -168.5t3.5 -150.5q64 83 81 83q11 0 18.5 -12t8.5 -29
q-7 -26 -25.5 -50.5t-35 -39t-50.5 -41.5q0 -185 -6 -231q-13 -109 -73 -123l-8 -2q-33 -4 -124 -8.5t-199 -3t-141 14.5q-2 4 -11 18.5t-11 19.5t-5 19.5t-3 32.5q0 158 33 398q-61 -32 -114.5 -21t-90 55t-36.5 97q0 64 47 117t112 53q83 0 123.5 -56.5t40.5 -138.5
q0 -42 -17.5 -226.5t-17.5 -239.5q0 -45 13 -58t55 -13q33 0 147.5 5.5t145.5 5.5q65 0 62 79q-1 22 0.5 51t3.5 63t3 46zM129 612q1 -3 2.5 -9t8 -20.5t15.5 -25.5t26.5 -19.5t39.5 -7.5q51 2 77 27.5t26 64.5q0 43 -24 70t-63 27q-43 0 -75.5 -33t-32.5 -74zM529 366v1
q-3 -28 19 -46.5t49 -18.5q29 0 48 19t16 57q-5 21 -26.5 37t-43.5 16q-25 0 -42.5 -16t-19.5 -49z" />
    <glyph glyph-name="sosuathai" unicode="&#xca;" horiz-adv-x="822" 
d="M799 871q5 26 25 34.5t37.5 -4t16.5 -39.5q-12 -77 -61.5 -126t-124.5 -69q47 -70 48.5 -219t-23.5 -361q-4 -44 -6 -67q-12 -28 -36 -28q-14 0 -22 8t-7 23q20 222 -43.5 326.5t-216.5 92.5q-71 -6 -122.5 -60t-50.5 -136q43 16 89 8t82.5 -43.5t36.5 -82.5
q0 -57 -29 -93.5t-86 -42.5q-50 -5 -86.5 8.5t-54.5 40t-25.5 51.5t-8.5 52q-7 252 151 336q52 28 136 30.5t138 -23.5q41 -21 71.5 -65t46.5 -88q-3 25 -0.5 57t-1 67.5t-8.5 70.5t-23 67.5t-43.5 57t-71.5 39.5t-107 15q-82 0 -160 -33.5t-109 -82.5q-9 -15 -28 -18.5
t-34 13.5q-13 17 -11 30t23 37q48 55 135.5 89.5t181.5 31.5q131 -5 202 -42q165 25 180 138zM270 50q44 -6 68.5 14.5t24.5 54.5q0 29 -26.5 53t-63.5 26q-77 4 -77 -72q0 -26 19 -48.5t55 -27.5z" />
    <glyph glyph-name="sosuathai" unicode="&#xe2a;" horiz-adv-x="822" 
d="M799 871q5 26 25 34.5t37.5 -4t16.5 -39.5q-12 -77 -61.5 -126t-124.5 -69q47 -70 48.5 -219t-23.5 -361q-4 -44 -6 -67q-12 -28 -36 -28q-14 0 -22 8t-7 23q20 222 -43.5 326.5t-216.5 92.5q-71 -6 -122.5 -60t-50.5 -136q43 16 89 8t82.5 -43.5t36.5 -82.5
q0 -57 -29 -93.5t-86 -42.5q-50 -5 -86.5 8.5t-54.5 40t-25.5 51.5t-8.5 52q-7 252 151 336q52 28 136 30.5t138 -23.5q41 -21 71.5 -65t46.5 -88q-3 25 -0.5 57t-1 67.5t-8.5 70.5t-23 67.5t-43.5 57t-71.5 39.5t-107 15q-82 0 -160 -33.5t-109 -82.5q-9 -15 -28 -18.5
t-34 13.5q-13 17 -11 30t23 37q48 55 135.5 89.5t181.5 31.5q131 -5 202 -42q165 25 180 138zM270 50q44 -6 68.5 14.5t24.5 54.5q0 29 -26.5 53t-63.5 26q-77 4 -77 -72q0 -26 19 -48.5t55 -27.5z" />
    <glyph glyph-name="hohipthai" unicode="&#xcb;" horiz-adv-x="903" 
d="M689 458q-39 -33 -112 -134t-146.5 -196.5t-121.5 -126.5q-20 -8 -50 2t-30 36q0 71 14.5 222t13.5 229q-59 -34 -108.5 -22.5t-81.5 56t-32 100.5q0 46 17.5 78t47.5 47.5t59.5 21.5t64.5 6q38 0 62 -25.5t33.5 -71.5t11.5 -101.5t-2.5 -123.5t-9.5 -129.5t-9.5 -128
t-2.5 -109.5q33 45 83.5 116.5t78.5 110t72.5 91t92.5 97.5q-73 37 -96 85t-2 114q12 39 56.5 61.5t89.5 21.5q46 -1 82 -23.5t51 -56.5t15.5 -71.5t-24 -73.5t-67.5 -57q27 -20 46 -49t28 -65.5t13.5 -69t3 -78.5t-3.5 -75t-7 -76t-7 -65q-1 -18 -14 -26.5t-28 -8.5
q-30 0 -35 33q1 28 8.5 84.5t11 100t2 93.5t-18.5 90.5t-49 66.5zM682 725q-38 -2 -58 -27.5t-19 -56t22 -57t57 -28.5q45 -3 66.5 37.5t3 83.5t-71.5 48zM96 631q-1 -28 21.5 -58t57 -39t76.5 24q7 21 6 82.5t-18 68.5q-52 19 -97 -4t-46 -74z" />
    <glyph glyph-name="hohipthai" unicode="&#xe2b;" horiz-adv-x="903" 
d="M689 458q-39 -33 -112 -134t-146.5 -196.5t-121.5 -126.5q-20 -8 -50 2t-30 36q0 71 14.5 222t13.5 229q-59 -34 -108.5 -22.5t-81.5 56t-32 100.5q0 46 17.5 78t47.5 47.5t59.5 21.5t64.5 6q38 0 62 -25.5t33.5 -71.5t11.5 -101.5t-2.5 -123.5t-9.5 -129.5t-9.5 -128
t-2.5 -109.5q33 45 83.5 116.5t78.5 110t72.5 91t92.5 97.5q-73 37 -96 85t-2 114q12 39 56.5 61.5t89.5 21.5q46 -1 82 -23.5t51 -56.5t15.5 -71.5t-24 -73.5t-67.5 -57q27 -20 46 -49t28 -65.5t13.5 -69t3 -78.5t-3.5 -75t-7 -76t-7 -65q-1 -18 -14 -26.5t-28 -8.5
q-30 0 -35 33q1 28 8.5 84.5t11 100t2 93.5t-18.5 90.5t-49 66.5zM682 725q-38 -2 -58 -27.5t-19 -56t22 -57t57 -28.5q45 -3 66.5 37.5t3 83.5t-71.5 48zM96 631q-1 -28 21.5 -58t57 -39t76.5 24q7 21 6 82.5t-18 68.5q-52 19 -97 -4t-46 -74z" />
    <glyph glyph-name="lochulathai" unicode="&#xcc;" horiz-adv-x="1014" 
d="M906 31q-19 -41 -57 -26.5t-55 54.5q-163 395 -204 422q-82 -124 -211 -447h1q-12 -31 -49 -31q-20 0 -33.5 11t-12.5 30q-5 95 8 439q-24 -30 -60.5 -40t-70.5 1.5t-64 38.5t-39.5 70t3.5 98q13 49 59.5 82.5t98.5 33.5q58 0 99 -41.5t45 -118.5q1 -33 -1 -80t-7 -155.5
t-9 -242.5q24 63 50 121t42.5 89.5t46 85.5t40.5 75q13 24 33 46.5t34 21.5q38 -5 70 -62q40 -72 176 -394l-1 602q-72 -21 -121.5 -18t-79.5 22.5t-42.5 51.5t-11 68.5t16.5 73.5q18 44 70.5 76t107 34.5t97.5 -28.5q13 -12 20 -20.5t10.5 -25.5t4 -28.5t1 -48t1.5 -64.5
q26 6 62 29.5t44 27.5q27 1 38 -11.5t2.5 -30t-33.5 -30.5q-66 -35 -113 -56q0 -88 1 -300t0 -313t-7 -92zM296 551q8 154 -86 154q-27 0 -56.5 -25t-33.5 -68q-3 -34 16.5 -68.5t59 -42.5t100.5 50zM698 779q15 -14 36 -15.5t34.5 2t37.5 14.5l24 11q0 12 2.5 44.5t2 45.5
t-6 32t-18.5 32q-24 25 -75.5 3.5t-69 -66t32.5 -103.5z" />
    <glyph glyph-name="lochulathai" unicode="&#xe2c;" horiz-adv-x="1014" 
d="M906 31q-19 -41 -57 -26.5t-55 54.5q-163 395 -204 422q-82 -124 -211 -447h1q-12 -31 -49 -31q-20 0 -33.5 11t-12.5 30q-5 95 8 439q-24 -30 -60.5 -40t-70.5 1.5t-64 38.5t-39.5 70t3.5 98q13 49 59.5 82.5t98.5 33.5q58 0 99 -41.5t45 -118.5q1 -33 -1 -80t-7 -155.5
t-9 -242.5q24 63 50 121t42.5 89.5t46 85.5t40.5 75q13 24 33 46.5t34 21.5q38 -5 70 -62q40 -72 176 -394l-1 602q-72 -21 -121.5 -18t-79.5 22.5t-42.5 51.5t-11 68.5t16.5 73.5q18 44 70.5 76t107 34.5t97.5 -28.5q13 -12 20 -20.5t10.5 -25.5t4 -28.5t1 -48t1.5 -64.5
q26 6 62 29.5t44 27.5q27 1 38 -11.5t2.5 -30t-33.5 -30.5q-66 -35 -113 -56q0 -88 1 -300t0 -313t-7 -92zM296 551q8 154 -86 154q-27 0 -56.5 -25t-33.5 -68q-3 -34 16.5 -68.5t59 -42.5t100.5 50zM698 779q15 -14 36 -15.5t34.5 2t37.5 14.5l24 11q0 12 2.5 44.5t2 45.5
t-6 32t-18.5 32q-24 25 -75.5 3.5t-69 -66t32.5 -103.5z" />
    <glyph glyph-name="oangthai" unicode="&#xcd;" horiz-adv-x="795" 
d="M470 298q-17 -29 -49.5 -47.5t-67.5 -18.5q-44 0 -95 26t-71 85q-11 -61 -1.5 -109.5t32 -84.5t53.5 -60t62.5 -35.5t59.5 -11.5q76 0 138.5 55.5t94 133.5t31.5 155q0 133 -91 225t-216 92q-102 0 -220 -75q-10 -6 -23 -6t-21 8t-8 19q0 21 18 37q107 84 267 84
q161 0 261.5 -111t100.5 -288q0 -77 -21 -146.5t-60.5 -125t-104.5 -88.5t-146 -33q-85 0 -149.5 40t-95.5 100.5t-36 132t17 135t75.5 110t128.5 56.5q74 9 120 -40t46 -117q0 -44 -29 -97zM432 392q0 52 -33.5 75.5t-63.5 21.5q-41 -3 -69.5 -30.5t-29.5 -66.5
q-2 -77 107 -85q38 -2 63.5 19.5t25.5 65.5z" />
    <glyph glyph-name="oangthai" unicode="&#xe2d;" horiz-adv-x="795" 
d="M470 298q-17 -29 -49.5 -47.5t-67.5 -18.5q-44 0 -95 26t-71 85q-11 -61 -1.5 -109.5t32 -84.5t53.5 -60t62.5 -35.5t59.5 -11.5q76 0 138.5 55.5t94 133.5t31.5 155q0 133 -91 225t-216 92q-102 0 -220 -75q-10 -6 -23 -6t-21 8t-8 19q0 21 18 37q107 84 267 84
q161 0 261.5 -111t100.5 -288q0 -77 -21 -146.5t-60.5 -125t-104.5 -88.5t-146 -33q-85 0 -149.5 40t-95.5 100.5t-36 132t17 135t75.5 110t128.5 56.5q74 9 120 -40t46 -117q0 -44 -29 -97zM432 392q0 52 -33.5 75.5t-63.5 21.5q-41 -3 -69.5 -30.5t-29.5 -66.5
q-2 -77 107 -85q38 -2 63.5 19.5t25.5 65.5z" />
    <glyph glyph-name="honokhukthai" unicode="&#xce;" horiz-adv-x="808" 
d="M73 521q-47 76 0 135t134 94.5t159 32.5q67 -3 117.5 -25t101.5 -63q145 75 157 125q20 32 49 23.5t28 -45.5q-3 -12 -7.5 -23t-13.5 -21.5t-14 -17t-19.5 -17.5t-18.5 -14.5t-21.5 -15.5t-19.5 -13q-31 -21 -63 -39q83 -108 83 -266q0 -77 -21 -146.5t-60.5 -125
t-104.5 -88.5t-146 -33q-70 0 -126.5 27.5t-90 70.5t-51 98.5t-15 111.5t23.5 109t59 90q-33 -3 -68.5 5t-51.5 31zM470 298q-17 -29 -49.5 -47.5t-67.5 -18.5q-44 0 -95 26t-71 85q-11 -61 -1.5 -109.5t32 -84.5t53.5 -60t62.5 -35.5t59.5 -11.5q76 0 138.5 55.5t94 133.5
t31.5 155q0 124 -82 216q-71 -34 -159 -63q39 -20 61 -59.5t22 -84.5q0 -44 -29 -97zM350 728q-92 -6 -157 -46t-75 -82q-10 -40 47 -47q83 -11 233 40q80 27 123 55q-14 29 -66.5 56t-104.5 24zM438 390q0 52 -40 80.5t-69 26.5q-41 -3 -71 -32.5t-31 -68.5
q-1 -34 29.5 -64t89.5 -34q37 -2 64.5 23t27.5 69z" />
    <glyph glyph-name="honokhukthai" unicode="&#xe2e;" horiz-adv-x="808" 
d="M73 521q-47 76 0 135t134 94.5t159 32.5q67 -3 117.5 -25t101.5 -63q145 75 157 125q20 32 49 23.5t28 -45.5q-3 -12 -7.5 -23t-13.5 -21.5t-14 -17t-19.5 -17.5t-18.5 -14.5t-21.5 -15.5t-19.5 -13q-31 -21 -63 -39q83 -108 83 -266q0 -77 -21 -146.5t-60.5 -125
t-104.5 -88.5t-146 -33q-70 0 -126.5 27.5t-90 70.5t-51 98.5t-15 111.5t23.5 109t59 90q-33 -3 -68.5 5t-51.5 31zM470 298q-17 -29 -49.5 -47.5t-67.5 -18.5q-44 0 -95 26t-71 85q-11 -61 -1.5 -109.5t32 -84.5t53.5 -60t62.5 -35.5t59.5 -11.5q76 0 138.5 55.5t94 133.5
t31.5 155q0 124 -82 216q-71 -34 -159 -63q39 -20 61 -59.5t22 -84.5q0 -44 -29 -97zM350 728q-92 -6 -157 -46t-75 -82q-10 -40 47 -47q83 -11 233 40q80 27 123 55q-14 29 -66.5 56t-104.5 24zM438 390q0 52 -40 80.5t-69 26.5q-41 -3 -71 -32.5t-31 -68.5
q-1 -34 29.5 -64t89.5 -34q37 -2 64.5 23t27.5 69z" />
    <glyph glyph-name="paiyannoithai" unicode="&#xcf;" horiz-adv-x="804" 
d="M602 714l-1 2q-2 12 14 19t37 7q16 0 27 -6t10 -19q17 -91 22 -275.5t-2 -307.5q1 -12 -6.5 -20t-21 -11.5t-26 -5t-27.5 -2t-20 -1.5q-9 -1 -38.5 -5t-41.5 -6t-38.5 -8.5t-38.5 -13.5t-30.5 -19.5t-27.5 -28t-16 -39t-7 -51.5q0 -10 1 -23.5t1 -19.5t-3 -12.5t-11 -9
t-22 -2.5q-53 0 -53 101q0 35 11.5 63.5t28.5 48t47.5 34.5t56.5 23.5t67 15.5t68.5 10.5t71.5 7.5h3.5t3.5 0.5t4 0.5q0 28 6 162.5t4 177.5q-6 -55 -21.5 -99.5t-34 -72t-45 -47.5t-47.5 -29.5t-49.5 -15t-43 -6t-35.5 -0.5q-150 0 -225 83t-76 240q2 72 57.5 131
t126.5 59q92 0 136 -60.5t29 -156.5q-8 -43 -35.5 -74t-62.5 -43.5t-73 -10.5t-68 21q9 -42 43.5 -70.5t70 -38t68.5 -9.5q65 0 112.5 25.5t72 67.5t39.5 96t13.5 111t-5.5 112zM240 679q-50 -14 -75 -48.5t-21 -75t31 -78.5q42 -19 82 -18t69 31t29 80q0 56 -31 90.5
t-84 18.5z" />
    <glyph glyph-name="paiyannoithai" unicode="&#xe2f;" horiz-adv-x="804" 
d="M602 714l-1 2q-2 12 14 19t37 7q16 0 27 -6t10 -19q17 -91 22 -275.5t-2 -307.5q1 -12 -6.5 -20t-21 -11.5t-26 -5t-27.5 -2t-20 -1.5q-9 -1 -38.5 -5t-41.5 -6t-38.5 -8.5t-38.5 -13.5t-30.5 -19.5t-27.5 -28t-16 -39t-7 -51.5q0 -10 1 -23.5t1 -19.5t-3 -12.5t-11 -9
t-22 -2.5q-53 0 -53 101q0 35 11.5 63.5t28.5 48t47.5 34.5t56.5 23.5t67 15.5t68.5 10.5t71.5 7.5h3.5t3.5 0.5t4 0.5q0 28 6 162.5t4 177.5q-6 -55 -21.5 -99.5t-34 -72t-45 -47.5t-47.5 -29.5t-49.5 -15t-43 -6t-35.5 -0.5q-150 0 -225 83t-76 240q2 72 57.5 131
t126.5 59q92 0 136 -60.5t29 -156.5q-8 -43 -35.5 -74t-62.5 -43.5t-73 -10.5t-68 21q9 -42 43.5 -70.5t70 -38t68.5 -9.5q65 0 112.5 25.5t72 67.5t39.5 96t13.5 111t-5.5 112zM240 679q-50 -14 -75 -48.5t-21 -75t31 -78.5q42 -19 82 -18t69 31t29 80q0 56 -31 90.5
t-84 18.5z" />
    <glyph glyph-name="saraathai" unicode="&#xd0;" horiz-adv-x="657" 
d="M87 576q-6 64 34.5 105.5t102.5 41.5q45 0 76 -20.5t42.5 -52t9 -67.5t-20.5 -67q54 0 92 29t83 102q4 18 16.5 26.5t24.5 3.5q20 -8 20.5 -20t-10.5 -38q-19 -55 -68.5 -97.5t-111 -60t-122 -15.5t-107.5 36t-61 94zM255 663q-48 20 -75.5 0t-27.5 -63q0 -87 101 -78
q30 16 34.5 62.5t-32.5 78.5zM87 160q-6 64 34.5 105.5t102.5 41.5q45 0 76 -20t42.5 -50.5t9 -66.5t-20.5 -67q53 0 88 28t81 103q4 17 19 24.5t28 2.5q20 -8 21.5 -20t-9.5 -38q-17 -50 -66.5 -91t-111.5 -59.5t-123 -18t-109 33t-62 92.5zM258 247q-49 20 -79 0t-30 -62
q0 -91 100 -82q31 16 38.5 64t-29.5 80z" />
    <glyph glyph-name="saraathai" unicode="&#xe30;" horiz-adv-x="657" 
d="M87 576q-6 64 34.5 105.5t102.5 41.5q45 0 76 -20.5t42.5 -52t9 -67.5t-20.5 -67q54 0 92 29t83 102q4 18 16.5 26.5t24.5 3.5q20 -8 20.5 -20t-10.5 -38q-19 -55 -68.5 -97.5t-111 -60t-122 -15.5t-107.5 36t-61 94zM255 663q-48 20 -75.5 0t-27.5 -63q0 -87 101 -78
q30 16 34.5 62.5t-32.5 78.5zM87 160q-6 64 34.5 105.5t102.5 41.5q45 0 76 -20t42.5 -50.5t9 -66.5t-20.5 -67q53 0 88 28t81 103q4 17 19 24.5t28 2.5q20 -8 21.5 -20t-9.5 -38q-17 -50 -66.5 -91t-111.5 -59.5t-123 -18t-109 33t-62 92.5zM258 247q-49 20 -79 0t-30 -62
q0 -91 100 -82q31 16 38.5 64t-29.5 80z" />
    <glyph glyph-name="maihanakatthai" unicode="&#xd1;" 
d="M-439 1052q-4 69 37 109t102 43q87 5 125.5 -58t-0.5 -145q27 -4 62.5 6.5t81.5 50.5t76 104q18 39 54 29q20 -14 22 -22t-10 -37q-48 -111 -142.5 -161t-215.5 -46q-49 1 -88.5 11.5t-70 40t-33.5 75.5zM-292 1157q-36 -1 -59 -25t-26 -53.5t17 -55t60 -29.5
q47 -4 68.5 37t4 84t-64.5 42z" />
    <glyph glyph-name="maihanakatthai" unicode="&#xe31;" 
d="M-439 1052q-4 69 37 109t102 43q87 5 125.5 -58t-0.5 -145q27 -4 62.5 6.5t81.5 50.5t76 104q18 39 54 29q20 -14 22 -22t-10 -37q-48 -111 -142.5 -161t-215.5 -46q-49 1 -88.5 11.5t-70 40t-33.5 75.5zM-292 1157q-36 -1 -59 -25t-26 -53.5t17 -55t60 -29.5
q47 -4 68.5 37t4 84t-64.5 42z" />
    <glyph glyph-name="saraaathai" unicode="&#xd2;" horiz-adv-x="661" 
d="M144 603q-33 -45 -61 -28q-34 20 -9 64q31 55 103 94.5t127 39.5q44 0 77 -6t68 -25t58 -51.5t41.5 -89t24.5 -133.5t0.5 -188.5t-24.5 -251.5q-3 -20 -15.5 -32t-28.5 -12q-23 0 -31 34q1 26 6.5 78.5t12 103t10 113t2 117t-13.5 107t-34.5 89.5t-63.5 59t-98 21
q-77 -2 -151 -103z" />
    <glyph glyph-name="saraaathai" unicode="&#xe32;" horiz-adv-x="661" 
d="M144 603q-33 -45 -61 -28q-34 20 -9 64q31 55 103 94.5t127 39.5q44 0 77 -6t68 -25t58 -51.5t41.5 -89t24.5 -133.5t0.5 -188.5t-24.5 -251.5q-3 -20 -15.5 -32t-28.5 -12q-23 0 -31 34q1 26 6.5 78.5t12 103t10 113t2 117t-13.5 107t-34.5 89.5t-63.5 59t-98 21
q-77 -2 -151 -103z" />
    <glyph glyph-name="saraamthai" unicode="&#xd3;" horiz-adv-x="683" 
d="M-218 1201q62 0 107 -35.5t45 -100.5q0 -66 -46.5 -113t-122.5 -38q-59 8 -94.5 52.5t-35.5 98.5t40.5 95t106.5 41zM-222 976q38 0 65.5 22t27.5 60t-24 60t-69 22q-30 0 -54 -24t-24 -55q0 -32 22 -58.5t56 -26.5zM158 617q-33 -45 -61 -28q-34 20 -9 64
q31 55 103 94.5t127 39.5q43 0 76 -7t66 -27t55.5 -54t39 -92t21.5 -136.5t-1.5 -190.5t-25.5 -252q-3 -20 -15.5 -32t-28.5 -12q-23 0 -31 34q1 32 11 111t18.5 150t7 156t-17.5 145.5t-62.5 101t-121.5 38.5q-77 -2 -151 -103z" />
    <glyph glyph-name="saraamthai" unicode="&#xe33;" horiz-adv-x="683" 
d="M-218 1201q62 0 107 -35.5t45 -100.5q0 -66 -46.5 -113t-122.5 -38q-59 8 -94.5 52.5t-35.5 98.5t40.5 95t106.5 41zM-222 976q38 0 65.5 22t27.5 60t-24 60t-69 22q-30 0 -54 -24t-24 -55q0 -32 22 -58.5t56 -26.5zM158 617q-33 -45 -61 -28q-34 20 -9 64
q31 55 103 94.5t127 39.5q43 0 76 -7t66 -27t55.5 -54t39 -92t21.5 -136.5t-1.5 -190.5t-25.5 -252q-3 -20 -15.5 -32t-28.5 -12q-23 0 -31 34q1 32 11 111t18.5 150t7 156t-17.5 145.5t-62.5 101t-121.5 38.5q-77 -2 -151 -103z" />
    <glyph glyph-name="saraithai" unicode="&#xd4;" 
d="M-126 933q1 -10 -59.5 -16.5t-149.5 -8.5t-180.5 -1t-162 6t-84.5 12q-30 16 1 67q38 65 125 111q87 45 182 46q30 1 75 -8t103 -30t101 -67.5t49 -110.5zM-206 979q-14 37 -47 62t-74.5 34.5t-73.5 13t-59 2.5q-32 -1 -66.5 -8.5t-79.5 -34t-70 -67.5
q-4 -14 112.5 -15.5t234.5 4t123 9.5z" />
    <glyph glyph-name="saraithai" unicode="&#xe34;" 
d="M-126 933q1 -10 -59.5 -16.5t-149.5 -8.5t-180.5 -1t-162 6t-84.5 12q-30 16 1 67q38 65 125 111q87 45 182 46q30 1 75 -8t103 -30t101 -67.5t49 -110.5zM-206 979q-14 37 -47 62t-74.5 34.5t-73.5 13t-59 2.5q-32 -1 -66.5 -8.5t-79.5 -34t-70 -67.5
q-4 -14 112.5 -15.5t234.5 4t123 9.5z" />
    <glyph glyph-name="saraiithai" unicode="&#xd5;" 
d="M-117 1146q-1 -7 -2 -37t-2.5 -60t-5 -61.5t-9.5 -51.5t-15 -20q-414 0 -532 14q-93 11 -95 31q-5 51 42 99t114 74.5t127 26.5q30 0 42.5 -0.5t42 -3t46 -8.5t43 -18t46 -29.5t43 -45t44.5 -63.5q-1 19 2.5 79.5t3.5 78.5q9 30 31 30q10 0 22.5 -11t11.5 -24zM-706 1018
q-20 -24 32 -32q10 -1 32 -3l7 -1q126 -10 397 -4q-56 71 -108.5 96.5t-151.5 25.5q-64 0 -121 -22.5t-87 -59.5z" />
    <glyph glyph-name="saraiithai" unicode="&#xe35;" 
d="M-117 1146q-1 -7 -2 -37t-2.5 -60t-5 -61.5t-9.5 -51.5t-15 -20q-414 0 -532 14q-93 11 -95 31q-5 51 42 99t114 74.5t127 26.5q30 0 42.5 -0.5t42 -3t46 -8.5t43 -18t46 -29.5t43 -45t44.5 -63.5q-1 19 2.5 79.5t3.5 78.5q9 30 31 30q10 0 22.5 -11t11.5 -24zM-706 1018
q-20 -24 32 -32q10 -1 32 -3l7 -1q126 -10 397 -4q-56 71 -108.5 96.5t-151.5 25.5q-64 0 -121 -22.5t-87 -59.5z" />
    <glyph glyph-name="sarauethai" unicode="&#xd6;" 
d="M-124 930q1 -10 -60 -16t-150 -7.5t-180.5 -0.5t-162.5 6.5t-85 12.5q-30 16 1 67q38 65 125 111q87 45 182 46q116 0 164 -38q-5 35 11 64.5t45 44t64 20.5t66 -5q50 -16 71 -79.5t3 -112.5q-13 -35 -37 -46.5t-74 -9.5q0 -9 8 -26t9 -31zM-206 979q-11 28 -41 50
t-64.5 33t-69 19.5t-54.5 7.5t-22 -2q-159 -7 -219 -106q-4 -14 112.5 -15.5t234.5 4t123 9.5zM-185 1190q-31 -10 -45 -33t-10.5 -48t20.5 -49t43 -35q79 -13 101 41q17 42 -11 87q-31 49 -85 40q-6 -1 -13 -3z" />
    <glyph glyph-name="sarauethai" unicode="&#xe36;" 
d="M-124 930q1 -10 -60 -16t-150 -7.5t-180.5 -0.5t-162.5 6.5t-85 12.5q-30 16 1 67q38 65 125 111q87 45 182 46q116 0 164 -38q-5 35 11 64.5t45 44t64 20.5t66 -5q50 -16 71 -79.5t3 -112.5q-13 -35 -37 -46.5t-74 -9.5q0 -9 8 -26t9 -31zM-206 979q-11 28 -41 50
t-64.5 33t-69 19.5t-54.5 7.5t-22 -2q-159 -7 -219 -106q-4 -14 112.5 -15.5t234.5 4t123 9.5zM-185 1190q-31 -10 -45 -33t-10.5 -48t20.5 -49t43 -35q79 -13 101 41q17 42 -11 87q-31 49 -85 40q-6 -1 -13 -3z" />
    <glyph glyph-name="saraueethai" unicode="&#xd7;" 
d="M-247 1199q0 -4 1 -28t0 -39.5t-4 -26.5q22 -12 61 -49q0 8 2 61t2 75q0 23 12 33t27 1.5t21 -30.5q5 -163 -10 -266q-7 -17 -298.5 -20.5t-328.5 15.5q-30 16 1 67q38 65 125 111q87 45 182 46q74 0 139 -18q2 46 2 68q4 23 17.5 31.5t28 0t20.5 -31.5zM-206 979
q-9 34 -40.5 58.5t-72.5 35t-76 15t-65 3.5q-32 -1 -66.5 -8.5t-79.5 -34t-70 -67.5q-4 -14 112.5 -15.5t234.5 4t123 9.5z" />
    <glyph glyph-name="saraueethai" unicode="&#xe37;" 
d="M-247 1199q0 -4 1 -28t0 -39.5t-4 -26.5q22 -12 61 -49q0 8 2 61t2 75q0 23 12 33t27 1.5t21 -30.5q5 -163 -10 -266q-7 -17 -298.5 -20.5t-328.5 15.5q-30 16 1 67q38 65 125 111q87 45 182 46q74 0 139 -18q2 46 2 68q4 23 17.5 31.5t28 0t20.5 -31.5zM-206 979
q-9 34 -40.5 58.5t-72.5 35t-76 15t-65 3.5q-32 -1 -66.5 -8.5t-79.5 -34t-70 -67.5q-4 -14 112.5 -15.5t234.5 4t123 9.5z" />
    <glyph glyph-name="sarauthai" unicode="&#xd8;" 
d="M-204 -519q-3 14 -0.5 39.5t3.5 31.5t5 29.5t6 32.5q-91 -55 -168 8q-52 47 -47 92t48 77.5t94 32.5q95 0 125 -84q7 -20 7.5 -63.5t-1.5 -98.5t-1 -82q-2 -26 -13.5 -41t-28.5 -15q-11 0 -19.5 14.5t-9.5 26.5zM-266 -349q35 -2 53.5 26t6 58t-54.5 32q-50 3 -67.5 -25
t2 -58t60.5 -33z" />
    <glyph glyph-name="sarauthai" unicode="&#xe38;" 
d="M-204 -519q-3 14 -0.5 39.5t3.5 31.5t5 29.5t6 32.5q-91 -55 -168 8q-52 47 -47 92t48 77.5t94 32.5q95 0 125 -84q7 -20 7.5 -63.5t-1.5 -98.5t-1 -82q-2 -26 -13.5 -41t-28.5 -15q-11 0 -19.5 14.5t-9.5 26.5zM-266 -349q35 -2 53.5 26t6 58t-54.5 32q-50 3 -67.5 -25
t2 -58t60.5 -33z" />
    <glyph glyph-name="sarauuthai" unicode="&#xd9;" 
d="M-99 -495q-22 -22 -61 -30.5t-76 -4t-64.5 21.5t-27.5 42q0 22 0.5 30t3.5 20.5t5 26.5q-91 -55 -168 8q-52 47 -47 92t48 77.5t94 32.5q96 0 125 -81q7 -29 5.5 -47.5t-5.5 -59t-3 -68.5q6 -26 50.5 -28t74.5 15q10 37 10 73.5t-5 84t-5 76.5q4 23 16.5 30t26 -3
t19.5 -33q9 -58 7 -149.5t-23 -125.5zM-395 -352q35 -2 53.5 26t6 58t-54.5 32q-50 3 -67.5 -25t2 -58t60.5 -33z" />
    <glyph glyph-name="sarauuthai" unicode="&#xe39;" 
d="M-99 -495q-22 -22 -61 -30.5t-76 -4t-64.5 21.5t-27.5 42q0 22 0.5 30t3.5 20.5t5 26.5q-91 -55 -168 8q-52 47 -47 92t48 77.5t94 32.5q96 0 125 -81q7 -29 5.5 -47.5t-5.5 -59t-3 -68.5q6 -26 50.5 -28t74.5 15q10 37 10 73.5t-5 84t-5 76.5q4 23 16.5 30t26 -3
t19.5 -33q9 -58 7 -149.5t-23 -125.5zM-395 -352q35 -2 53.5 26t6 58t-54.5 32q-50 3 -67.5 -25t2 -58t60.5 -33z" />
    <glyph glyph-name="phinthuthai" unicode="&#xda;" 
d="M-167 -165q31 0 50 -20t17 -46q0 -28 -19.5 -47t-46.5 -19t-46.5 19t-19.5 47q-1 26 19.5 46t45.5 20z" />
    <glyph glyph-name="phinthuthai" unicode="&#xe3a;" 
d="M-167 -165q31 0 50 -20t17 -46q0 -28 -19.5 -47t-46.5 -19t-46.5 19t-19.5 47q-1 26 19.5 46t45.5 20z" />
    <glyph glyph-name="PUCR2005.003" unicode="&#xdb;" 
 />
    <glyph glyph-name="PUCR2005.003" unicode="&#xe3b;" 
 />
    <glyph glyph-name="PUCR2005.002" unicode="&#xdc;" 
 />
    <glyph glyph-name="PUCR2005.002" unicode="&#xe3c;" 
 />
    <glyph glyph-name="PUCR2005.001" unicode="&#xdd;" 
 />
    <glyph glyph-name="PUCR2005.001" unicode="&#xe3d;" 
 />
    <glyph glyph-name="bahtthai" unicode="&#xdf;" horiz-adv-x="714" 
d="M302 795q0 9 -0.5 30.5t-0.5 22.5v21q9 31 34 31q23 0 34 -26v-23q0 -2 1 -22.5t1 -30.5q37 -11 67 -15q80 -15 99 -32v1q53 -47 53 -124q0 -103 -85 -172q-2 -1 -8 -5t-9 -7q-4 -2 -32.5 -22t-30.5 -21q215 -72 233 -225q-1 -64 -73.5 -113.5t-173.5 -60.5q5 -29 14 -64
v1q1 -2 -1 -11q-17 -16 -35 -16q-19 0 -31 25.5t-7 53.5q-71 0 -99 -3h1q-40 -4 -66 -4q-35 0 -60 3q-1 0 -3.5 0.5t-3.5 0.5q3 0 6 -1l-1 1q-8 6 -12 24q3 65 3 125q0 91 -7 217q-6 148 -6 222q0 108 10 188l-1 -2q6 33 36 33q15 0 38 -31l33 11q37 12 83 20zM301 873
l-1 -8q0 2 1 4v4zM133 -17q-1 2 -6 4q5 -3 6 -4zM136 -20q-2 0 -2 3q0 -3 2 -3zM474 321h-2q-32 8 -88 20q5 -72 5 -129q0 -69 10 -160q90 18 144.5 59.5t54.5 87.5q0 39 -31 71t-93 51zM181 312v-274q94 7 147 9q-5 96 -7 208v78q-7 -1 -41 -6t-37 -5q-6 -1 -32 -5t-30 -5z
M192 713l-21 -28q-2 -42 -2 -67q0 -49 4 -127q0 -6 0.5 -33.5t0.5 -32.5q10 1 24.5 3t23 3t10.5 1q8 1 42 4t43 4q-6 121 -7 145q-1 19 -3 77.5t-3 77.5q-59 -14 -64 -14q-24 -3 -48 -13zM419 478l-3 -1q60 6 93 41.5t33 81.5q0 48 -44 82.5t-123 31.5q0 -71 -1 -95
q0 -9 -0.5 -26.5t-0.5 -25.5q0 -97 46 -89z" />
    <glyph glyph-name="bahtthai" unicode="&#xe3f;" horiz-adv-x="714" 
d="M302 795q0 9 -0.5 30.5t-0.5 22.5v21q9 31 34 31q23 0 34 -26v-23q0 -2 1 -22.5t1 -30.5q37 -11 67 -15q80 -15 99 -32v1q53 -47 53 -124q0 -103 -85 -172q-2 -1 -8 -5t-9 -7q-4 -2 -32.5 -22t-30.5 -21q215 -72 233 -225q-1 -64 -73.5 -113.5t-173.5 -60.5q5 -29 14 -64
v1q1 -2 -1 -11q-17 -16 -35 -16q-19 0 -31 25.5t-7 53.5q-71 0 -99 -3h1q-40 -4 -66 -4q-35 0 -60 3q-1 0 -3.5 0.5t-3.5 0.5q3 0 6 -1l-1 1q-8 6 -12 24q3 65 3 125q0 91 -7 217q-6 148 -6 222q0 108 10 188l-1 -2q6 33 36 33q15 0 38 -31l33 11q37 12 83 20zM301 873
l-1 -8q0 2 1 4v4zM133 -17q-1 2 -6 4q5 -3 6 -4zM136 -20q-2 0 -2 3q0 -3 2 -3zM474 321h-2q-32 8 -88 20q5 -72 5 -129q0 -69 10 -160q90 18 144.5 59.5t54.5 87.5q0 39 -31 71t-93 51zM181 312v-274q94 7 147 9q-5 96 -7 208v78q-7 -1 -41 -6t-37 -5q-6 -1 -32 -5t-30 -5z
M192 713l-21 -28q-2 -42 -2 -67q0 -49 4 -127q0 -6 0.5 -33.5t0.5 -32.5q10 1 24.5 3t23 3t10.5 1q8 1 42 4t43 4q-6 121 -7 145q-1 19 -3 77.5t-3 77.5q-59 -14 -64 -14q-24 -3 -48 -13zM419 478l-3 -1q60 6 93 41.5t33 81.5q0 48 -44 82.5t-123 31.5q0 -71 -1 -95
q0 -9 -0.5 -26.5t-0.5 -25.5q0 -97 46 -89z" />
    <glyph glyph-name="saraethai" unicode="&#xe0;" horiz-adv-x="458" 
d="M152 725q4 27 13 40t17.5 11.5t15.5 -0.5q12 -1 23 -14t8 -35q-43 -269 -44 -470q17 37 63 48.5t98 -9.5v1q36 -15 59.5 -56.5t23.5 -86.5q0 -68 -44 -118t-117 -50q-35 0 -62 14.5t-45 39t-29.5 61.5t-16.5 78t-5 94t3 103t9.5 110.5t13 112t14.5 112.5q1 9 2 14z
M183 148q3 -45 31.5 -77.5t57.5 -30.5q35 2 64.5 37t29.5 75q0 37 -24 67t-60 30q-33 0 -67 -33t-32 -68z" />
    <glyph glyph-name="saraethai" unicode="&#xe40;" horiz-adv-x="458" 
d="M152 725q4 27 13 40t17.5 11.5t15.5 -0.5q12 -1 23 -14t8 -35q-43 -269 -44 -470q17 37 63 48.5t98 -9.5v1q36 -15 59.5 -56.5t23.5 -86.5q0 -68 -44 -118t-117 -50q-35 0 -62 14.5t-45 39t-29.5 61.5t-16.5 78t-5 94t3 103t9.5 110.5t13 112t14.5 112.5q1 9 2 14z
M183 148q3 -45 31.5 -77.5t57.5 -30.5q35 2 64.5 37t29.5 75q0 37 -24 67t-60 30q-33 0 -67 -33t-32 -68z" />
    <glyph glyph-name="saraaethai" unicode="&#xe1;" horiz-adv-x="896" 
d="M152 725q4 27 13 40t17.5 11.5t15.5 -0.5q12 -1 23 -14t8 -35q-43 -269 -44 -470q17 37 63 48.5t98 -9.5v1q36 -15 59.5 -56.5t23.5 -86.5q0 -68 -44 -118t-117 -50q-35 0 -62 14.5t-45 39t-29.5 61.5t-16.5 78t-5 94t3 103t9.5 110.5t13 112t14.5 112.5q1 9 2 14z
M183 148q3 -45 31.5 -77.5t57.5 -30.5q35 2 64.5 37t29.5 75q0 37 -24 67t-60 30q-33 0 -67 -33t-32 -68zM556 711q4 27 13 40t17.5 11.5t15.5 -0.5q12 -1 23 -14t8 -35q-16 -98 -22 -141.5t-13 -127t-7 -174.5q17 37 63 48.5t98 -9.5v1q36 -15 59.5 -56.5t23.5 -86.5
q0 -68 -44 -118t-117 -50q-39 0 -68.5 16t-47 46.5t-28.5 69.5t-13.5 91t-1 105t8 117.5t13.5 121.5t16 124zM599 193q-7 -67 20 -104.5t59 -35.5q35 2 64.5 37t29.5 75q0 37 -24 67t-60 30q-35 0 -60 -17.5t-29 -51.5z" />
    <glyph glyph-name="saraaethai" unicode="&#xe41;" horiz-adv-x="896" 
d="M152 725q4 27 13 40t17.5 11.5t15.5 -0.5q12 -1 23 -14t8 -35q-43 -269 -44 -470q17 37 63 48.5t98 -9.5v1q36 -15 59.5 -56.5t23.5 -86.5q0 -68 -44 -118t-117 -50q-35 0 -62 14.5t-45 39t-29.5 61.5t-16.5 78t-5 94t3 103t9.5 110.5t13 112t14.5 112.5q1 9 2 14z
M183 148q3 -45 31.5 -77.5t57.5 -30.5q35 2 64.5 37t29.5 75q0 37 -24 67t-60 30q-33 0 -67 -33t-32 -68zM556 711q4 27 13 40t17.5 11.5t15.5 -0.5q12 -1 23 -14t8 -35q-16 -98 -22 -141.5t-13 -127t-7 -174.5q17 37 63 48.5t98 -9.5v1q36 -15 59.5 -56.5t23.5 -86.5
q0 -68 -44 -118t-117 -50q-39 0 -68.5 16t-47 46.5t-28.5 69.5t-13.5 91t-1 105t8 117.5t13.5 121.5t16 124zM599 193q-7 -67 20 -104.5t59 -35.5q35 2 64.5 37t29.5 75q0 37 -24 67t-60 30q-35 0 -60 -17.5t-29 -51.5z" />
    <glyph glyph-name="saraothai" unicode="&#xe2;" horiz-adv-x="495" 
d="M139 1254q-12 2 -48 -10.5t-89 -29t-96 -21.5q-24 -3 -51 10.5t-30 39.5q-13 117 44.5 200.5t180.5 83.5q36 0 81.5 -16t83 -32t77 -26.5t75.5 2t65 52.5q15 18 32 10t17 -19q0 -21 -13 -43q-35 -39 -74 -54.5t-76.5 -11t-76.5 18t-77.5 29t-74.5 24.5t-73.5 1.5
t-68.5 -36.5h1q-20 -16 -37 -61t-14 -87q19 -13 60.5 -4t82 25t84.5 23t69 -10q36 -24 55 -93.5t19.5 -172.5t-3 -180.5t-13.5 -180.5t-10 -109q-2 -35 -7 -95.5t-6 -84t0 -66.5t7 -90q38 38 82 43.5t78 -15t57 -58.5t23 -82q0 -49 -44.5 -90t-110.5 -38q-70 3 -108 72
t-45.5 177.5t-1.5 239t17.5 262t17 241.5t-8 182.5t-52.5 79.5zM414 170q-16 25 -39.5 38t-44.5 13q-33 0 -56 -22t-23 -56q0 -35 22 -62t52 -27q44 0 74.5 34t14.5 82z" />
    <glyph glyph-name="saraothai" unicode="&#xe42;" horiz-adv-x="495" 
d="M139 1254q-12 2 -48 -10.5t-89 -29t-96 -21.5q-24 -3 -51 10.5t-30 39.5q-13 117 44.5 200.5t180.5 83.5q36 0 81.5 -16t83 -32t77 -26.5t75.5 2t65 52.5q15 18 32 10t17 -19q0 -21 -13 -43q-35 -39 -74 -54.5t-76.5 -11t-76.5 18t-77.5 29t-74.5 24.5t-73.5 1.5
t-68.5 -36.5h1q-20 -16 -37 -61t-14 -87q19 -13 60.5 -4t82 25t84.5 23t69 -10q36 -24 55 -93.5t19.5 -172.5t-3 -180.5t-13.5 -180.5t-10 -109q-2 -35 -7 -95.5t-6 -84t0 -66.5t7 -90q38 38 82 43.5t78 -15t57 -58.5t23 -82q0 -49 -44.5 -90t-110.5 -38q-70 3 -108 72
t-45.5 177.5t-1.5 239t17.5 262t17 241.5t-8 182.5t-52.5 79.5zM414 170q-16 25 -39.5 38t-44.5 13q-33 0 -56 -22t-23 -56q0 -35 22 -62t52 -27q44 0 74.5 34t14.5 82z" />
    <glyph glyph-name="saraaimaimuanthai" unicode="&#xe3;" horiz-adv-x="493" 
d="M-12 1599q96 0 168 -52.5t92 -150.5q17 -218 8.5 -365.5t-20 -376.5t-2.5 -394q34 27 68.5 30.5t67.5 -9.5q46 -15 72 -50t26 -75t-13.5 -77.5t-46 -62.5t-72.5 -25q-74 0 -116 47t-50 173q-10 255 -6.5 390.5t15 362.5t12.5 359v-1q-4 90 -65.5 146.5t-140.5 56.5
q-45 0 -89 -18t-78 -63.5t-34 -109.5q27 25 52 41t50 21.5t38.5 6.5t36.5 0q66 -2 107 -69q42 -68 22 -140q-22 -84 -120 -104q-29 -6 -64 -6q-99 1 -144.5 69.5t-45.5 178.5q0 112 78 189.5t194 77.5zM23 1283q-21 35 -56.5 48t-67.5 4t-59.5 -30t-33.5 -54.5t11 -70.5
q34 -46 92.5 -44.5t101 49t12.5 98.5zM405 149q-4 60 -54 75q-44 13 -80 -16q-45 -38 -17 -103q3 -8 8 -16q43 -42 93 -23.5t50 83.5z" />
    <glyph glyph-name="saraaimaimuanthai" unicode="&#xe43;" horiz-adv-x="493" 
d="M-12 1599q96 0 168 -52.5t92 -150.5q17 -218 8.5 -365.5t-20 -376.5t-2.5 -394q34 27 68.5 30.5t67.5 -9.5q46 -15 72 -50t26 -75t-13.5 -77.5t-46 -62.5t-72.5 -25q-74 0 -116 47t-50 173q-10 255 -6.5 390.5t15 362.5t12.5 359v-1q-4 90 -65.5 146.5t-140.5 56.5
q-45 0 -89 -18t-78 -63.5t-34 -109.5q27 25 52 41t50 21.5t38.5 6.5t36.5 0q66 -2 107 -69q42 -68 22 -140q-22 -84 -120 -104q-29 -6 -64 -6q-99 1 -144.5 69.5t-45.5 178.5q0 112 78 189.5t194 77.5zM23 1283q-21 35 -56.5 48t-67.5 4t-59.5 -30t-33.5 -54.5t11 -70.5
q34 -46 92.5 -44.5t101 49t12.5 98.5zM405 149q-4 60 -54 75q-44 13 -80 -16q-45 -38 -17 -103q3 -8 8 -16q43 -42 93 -23.5t50 83.5z" />
    <glyph glyph-name="saraaimaimalaithai" unicode="&#xe4;" horiz-adv-x="475" 
d="M168 68q-33 134 -31.5 603t27.5 523q14 26 54.5 80.5t61.5 90t7 44.5q-14 31 -51.5 44t-71.5 -16q-11 -12 -42 -45.5t-50.5 -53.5t-44 -38t-39.5 -18q-31 0 -89.5 55.5t-110.5 127.5q-38 64 4 96q23 8 49.5 -17.5t46.5 -62t47 -69t49 -35.5q27 -2 58.5 25.5t54.5 61.5
t46.5 61t36.5 24q70 -14 129.5 -54t65.5 -75q3 -14 -19.5 -53.5t-67.5 -105.5t-56 -83q-14 -30 -20.5 -116t-6 -207.5t3 -226t6.5 -229t5 -159.5q30 47 103 47q44 0 77 -21.5t48 -54t20.5 -72t-5.5 -75.5q-14 -52 -76.5 -75t-129.5 -2.5t-89 81.5zM319 216
q-51 -6 -69.5 -30.5t-21.5 -65.5q-3 -40 42 -64.5t91 -5t46 85.5q0 71 -88 80z" />
    <glyph glyph-name="saraaimaimalaithai" unicode="&#xe44;" horiz-adv-x="475" 
d="M168 68q-33 134 -31.5 603t27.5 523q14 26 54.5 80.5t61.5 90t7 44.5q-14 31 -51.5 44t-71.5 -16q-11 -12 -42 -45.5t-50.5 -53.5t-44 -38t-39.5 -18q-31 0 -89.5 55.5t-110.5 127.5q-38 64 4 96q23 8 49.5 -17.5t46.5 -62t47 -69t49 -35.5q27 -2 58.5 25.5t54.5 61.5
t46.5 61t36.5 24q70 -14 129.5 -54t65.5 -75q3 -14 -19.5 -53.5t-67.5 -105.5t-56 -83q-14 -30 -20.5 -116t-6 -207.5t3 -226t6.5 -229t5 -159.5q30 47 103 47q44 0 77 -21.5t48 -54t20.5 -72t-5.5 -75.5q-14 -52 -76.5 -75t-129.5 -2.5t-89 81.5zM319 216
q-51 -6 -69.5 -30.5t-21.5 -65.5q-3 -40 42 -64.5t91 -5t46 85.5q0 71 -88 80z" />
    <glyph glyph-name="lakkhangyaothai" unicode="&#xe5;" horiz-adv-x="691" 
d="M152 604q-33 -45 -61 -28q-34 20 -9 64q31 55 103 95t127 39q163 -3 222 -151q54 -133 42 -455q-3 -80 -31 -512q-1 -20 -14 -32t-30 -12q-23 0 -31 34q1 52 5.5 122t11.5 135t13 141t10.5 143t4 136t-6 125.5t-20 106.5t-38 83.5t-61 52t-86.5 16.5q-78 -3 -151 -103z
" />
    <glyph glyph-name="lakkhangyaothai" unicode="&#xe45;" horiz-adv-x="691" 
d="M152 604q-33 -45 -61 -28q-34 20 -9 64q31 55 103 95t127 39q163 -3 222 -151q54 -133 42 -455q-3 -80 -31 -512q-1 -20 -14 -32t-30 -12q-23 0 -31 34q1 52 5.5 122t11.5 135t13 141t10.5 143t4 136t-6 125.5t-20 106.5t-38 83.5t-61 52t-86.5 16.5q-78 -3 -151 -103z
" />
    <glyph glyph-name="maiyamokthai" unicode="&#xe6;" horiz-adv-x="949" 
d="M697 700q-87 4 -120.5 -45t-34.5 -154q-1 -9 0 -17.5t0 -16.5t-3.5 -14t-8.5 -10t-15 -4q-12 0 -18.5 6t-8.5 12t-3.5 22.5t-3.5 24.5q-2 61 -25.5 105.5t-56.5 65.5t-72.5 23.5t-74 -14t-61 -54.5t-32.5 -90q60 23 109.5 18t82 -46t32.5 -109q0 -80 -41 -113t-125 -30
q-81 3 -113 48t-24 179q3 50 18 98.5t49.5 94t83.5 64.5q32 12 68.5 14.5t75.5 -7t74.5 -39.5t59.5 -78q18 125 185 127q29 1 53 -7t41 -24t30 -36t21 -49.5t13.5 -56.5t7 -65.5t2 -69.5t-2 -73.5t-4.5 -72.5t-5 -73q-4 -45 -5 -66q-4 -33 -20 -53.5t-38 -33.5t-47.5 -27.5
t-50 -44t-44.5 -74t-31.5 -126.5t-10.5 -193q0 -19 -11.5 -32t-24.5 -13q-10 0 -21 16t-12 32q-6 111 3.5 197t30.5 136.5t47.5 87t54 55.5t51 33t38.5 29t15 35q0 21 5 75.5t9.5 105.5t4 112t-8 106t-29.5 76t-58 33zM323 401q1 56 -41.5 81t-85.5 1.5t-43 -86.5
q0 -24 17 -44t42 -27.5t50 -5.5t42.5 23t18.5 58z" />
    <glyph glyph-name="maiyamokthai" unicode="&#xe46;" horiz-adv-x="949" 
d="M697 700q-87 4 -120.5 -45t-34.5 -154q-1 -9 0 -17.5t0 -16.5t-3.5 -14t-8.5 -10t-15 -4q-12 0 -18.5 6t-8.5 12t-3.5 22.5t-3.5 24.5q-2 61 -25.5 105.5t-56.5 65.5t-72.5 23.5t-74 -14t-61 -54.5t-32.5 -90q60 23 109.5 18t82 -46t32.5 -109q0 -80 -41 -113t-125 -30
q-81 3 -113 48t-24 179q3 50 18 98.5t49.5 94t83.5 64.5q32 12 68.5 14.5t75.5 -7t74.5 -39.5t59.5 -78q18 125 185 127q29 1 53 -7t41 -24t30 -36t21 -49.5t13.5 -56.5t7 -65.5t2 -69.5t-2 -73.5t-4.5 -72.5t-5 -73q-4 -45 -5 -66q-4 -33 -20 -53.5t-38 -33.5t-47.5 -27.5
t-50 -44t-44.5 -74t-31.5 -126.5t-10.5 -193q0 -19 -11.5 -32t-24.5 -13q-10 0 -21 16t-12 32q-6 111 3.5 197t30.5 136.5t47.5 87t54 55.5t51 33t38.5 29t15 35q0 21 5 75.5t9.5 105.5t4 112t-8 106t-29.5 76t-58 33zM323 401q1 56 -41.5 81t-85.5 1.5t-43 -86.5
q0 -24 17 -44t42 -27.5t50 -5.5t42.5 23t18.5 58z" />
    <glyph glyph-name="maitaikhuthai" unicode="&#xe7;" 
d="M-349 976q-53 98 4.5 147.5t156.5 28.5q59 -12 72 -72q14 -61 -27 -117q-52 -71 -147 -62q-9 1 -17 2q-92 14 -152 80q-10 -16 -18.5 -45t-21 -37.5t-44.5 -5.5q-46 5 -79.5 40.5t-33.5 116.5q0 91 54 142t150 51q22 0 65 -3t67.5 -2.5t58.5 6.5t61.5 25t52.5 51
q19 -1 31 -9.5t12 -20.5q0 -1 0.5 -5t0.5 -7t-1.5 -8.5t-4 -10t-8 -10.5t-13.5 -11q-3 -2 -15.5 -11t-17.5 -12t-18 -10.5t-23 -10t-26.5 -7.5t-34.5 -5.5t-41.5 -1.5t-52 1t-62.5 6q-136 16 -165 -105q-10 -40 2 -75.5t55 -41.5q0 2 2.5 13.5t3.5 15l4 14t5.5 15.5t7.5 13
t11 12t14 8.5t18 6.5q11 2 19 -6.5t14 -22t27 -31t54 -29.5zM-266 1106q-26 -3 -42 -18.5t-18.5 -36t4 -40.5t26 -33.5t46.5 -13.5q33 0 54.5 22.5t21.5 56.5q0 30 -26 49q-24 19 -66 14z" />
    <glyph glyph-name="maitaikhuthai" unicode="&#xe47;" 
d="M-349 976q-53 98 4.5 147.5t156.5 28.5q59 -12 72 -72q14 -61 -27 -117q-52 -71 -147 -62q-9 1 -17 2q-92 14 -152 80q-10 -16 -18.5 -45t-21 -37.5t-44.5 -5.5q-46 5 -79.5 40.5t-33.5 116.5q0 91 54 142t150 51q22 0 65 -3t67.5 -2.5t58.5 6.5t61.5 25t52.5 51
q19 -1 31 -9.5t12 -20.5q0 -1 0.5 -5t0.5 -7t-1.5 -8.5t-4 -10t-8 -10.5t-13.5 -11q-3 -2 -15.5 -11t-17.5 -12t-18 -10.5t-23 -10t-26.5 -7.5t-34.5 -5.5t-41.5 -1.5t-52 1t-62.5 6q-136 16 -165 -105q-10 -40 2 -75.5t55 -41.5q0 2 2.5 13.5t3.5 15l4 14t5.5 15.5t7.5 13
t11 12t14 8.5t18 6.5q11 2 19 -6.5t14 -22t27 -31t54 -29.5zM-266 1106q-26 -3 -42 -18.5t-18.5 -36t4 -40.5t26 -33.5t46.5 -13.5q33 0 54.5 22.5t21.5 56.5q0 30 -26 49q-24 19 -66 14z" />
    <glyph glyph-name="maiekthai" unicode="&#xe8;" 
d="M-179 1495q4 20 17.5 28.5t27.5 1.5t19 -27v-146q-1 -23 -16 -33.5t-30.5 -2t-17.5 31.5v147z" />
    <glyph glyph-name="maiekthai" unicode="&#xe48;" 
d="M-179 1495q4 20 17.5 28.5t27.5 1.5t19 -27v-146q-1 -23 -16 -33.5t-30.5 -2t-17.5 31.5v147z" />
    <glyph glyph-name="maithothai" unicode="&#xe9;" 
d="M-391 1384q4 13 15 20t24 5q13 -1 32 -5.5t35 -3.5q20 1 52 43q-37 -11 -68 -10t-52 25t-21 67q0 29 28.5 55t54.5 29q59 8 94.5 -14t41 -57.5t-12.5 -77.5t-56 -73q87 8 134.5 41t93.5 96q8 11 24 14.5t30 -4.5q30 -20 7 -50q-81 -108 -179.5 -139t-249.5 4
q-13 3 -21.5 13.5t-5.5 21.5zM-331 1528q-3 -37 27 -51t63 -2t36 39q4 40 -23 58t-60 5t-43 -49z" />
    <glyph glyph-name="maithothai" unicode="&#xe49;" 
d="M-391 1384q4 13 15 20t24 5q13 -1 32 -5.5t35 -3.5q20 1 52 43q-37 -11 -68 -10t-52 25t-21 67q0 29 28.5 55t54.5 29q59 8 94.5 -14t41 -57.5t-12.5 -77.5t-56 -73q87 8 134.5 41t93.5 96q8 11 24 14.5t30 -4.5q30 -20 7 -50q-81 -108 -179.5 -139t-249.5 4
q-13 3 -21.5 13.5t-5.5 21.5zM-331 1528q-3 -37 27 -51t63 -2t36 39q4 40 -23 58t-60 5t-43 -49z" />
    <glyph glyph-name="maitrithai" unicode="&#xea;" 
d="M-318 1425q-2 45 -28 74t-61.5 25.5t-61.5 -44.5q46 3 78.5 -19t42 -53.5t-6 -66.5t-55.5 -55q-59 -30 -101.5 12t-41 107.5t42.5 120.5q38 41 83.5 52t95.5 -14q22 -12 35 -34q10 24 23 39q22 24 57 14.5t43 -42.5q5 -19 6.5 -43.5t0 -42t-4.5 -47t-4 -43.5q63 -2 97 44
t16 132q-5 24 11 32q13 8 23 0.5t15 -19.5q32 -79 -21 -166q-40 -66 -96 -87q-63 -23 -93 36q-11 22 -2.5 107t-5.5 89q-11 -13 -23.5 -53.5t-24.5 -53.5q-16 -8 -21 -8.5t-18 7.5zM-485 1431q-28 -16 -22 -53.5t41 -47.5q51 -14 64 25q11 33 -11 64q-28 36 -72 12z" />
    <glyph glyph-name="maitrithai" unicode="&#xe4a;" 
d="M-318 1425q-2 45 -28 74t-61.5 25.5t-61.5 -44.5q46 3 78.5 -19t42 -53.5t-6 -66.5t-55.5 -55q-59 -30 -101.5 12t-41 107.5t42.5 120.5q38 41 83.5 52t95.5 -14q22 -12 35 -34q10 24 23 39q22 24 57 14.5t43 -42.5q5 -19 6.5 -43.5t0 -42t-4.5 -47t-4 -43.5q63 -2 97 44
t16 132q-5 24 11 32q13 8 23 0.5t15 -19.5q32 -79 -21 -166q-40 -66 -96 -87q-63 -23 -93 36q-11 22 -2.5 107t-5.5 89q-11 -13 -23.5 -53.5t-24.5 -53.5q-16 -8 -21 -8.5t-18 7.5zM-485 1431q-28 -16 -22 -53.5t41 -47.5q51 -14 64 25q11 33 -11 64q-28 36 -72 12z" />
    <glyph glyph-name="maichattawathai" unicode="&#xeb;" 
d="M-216 1478l-83 -2q-35 8 -35 32q0 22 29 32q15 11 96 6q-3 54 -3 97q9 32 33 32q21 0 31 -31v-10.5t0.5 -15t0.5 -29v-49.5q37 0 57.5 -2t42.5 -2q30 -10 30 -32t-31 -32q-19 0 -37 1.5t-56 1.5q-3 -7 -0.5 -42.5t2.5 -43.5q-6 -12 -20.5 -24t-22.5 -12q-10 0 -19 10.5
t-12 26.5q0 3 2 23t1 33.5t-6 31.5zM-296 1476h-3h-2h5z" />
    <glyph glyph-name="maichattawathai" unicode="&#xe4b;" 
d="M-216 1478l-83 -2q-35 8 -35 32q0 22 29 32q15 11 96 6q-3 54 -3 97q9 32 33 32q21 0 31 -31v-10.5t0.5 -15t0.5 -29v-49.5q37 0 57.5 -2t42.5 -2q30 -10 30 -32t-31 -32q-19 0 -37 1.5t-56 1.5q-3 -7 -0.5 -42.5t2.5 -43.5q-6 -12 -20.5 -24t-22.5 -12q-10 0 -19 10.5
t-12 26.5q0 3 2 23t1 33.5t-6 31.5zM-296 1476h-3h-2h5z" />
    <glyph glyph-name="thanthakhatthai" unicode="&#xec;" 
d="M-17 1826q13 0 22 -11t8 -30q-17 -123 -192 -158q78 -25 77 -112v-5q0 -47 -40 -81t-98 -34q-55 0 -95 30.5t-40 93.5q0 69 39.5 99.5t112.5 46.5q34 8 54.5 14t49 19t46.5 33.5t28 48.5q1 4 3.5 11.5l3.5 10.5t3 8t3.5 7t4 4.5t5 3.5t5.5 1zM-255 1593q-21 -5 -40.5 -26
t-19.5 -40q0 -63 68 -72q31 -4 62.5 12.5t33.5 51.5q2 27 -28 55.5t-76 18.5z" />
    <glyph glyph-name="thanthakhatthai" unicode="&#xe4c;" 
d="M-17 1826q13 0 22 -11t8 -30q-17 -123 -192 -158q78 -25 77 -112v-5q0 -47 -40 -81t-98 -34q-55 0 -95 30.5t-40 93.5q0 69 39.5 99.5t112.5 46.5q34 8 54.5 14t49 19t46.5 33.5t28 48.5q1 4 3.5 11.5l3.5 10.5t3 8t3.5 7t4 4.5t5 3.5t5.5 1zM-255 1593q-21 -5 -40.5 -26
t-19.5 -40q0 -63 68 -72q31 -4 62.5 12.5t33.5 51.5q2 27 -28 55.5t-76 18.5z" />
    <glyph glyph-name="nikhahitthai" unicode="&#xed;" 
d="M-432 1062q0 66 42 107.5t110 41.5q75 0 118.5 -43t43.5 -102q0 -58 -38.5 -98.5t-97.5 -40.5q-67 0 -122.5 35t-55.5 100zM-229 995q20 14 29 27.5t10 21t1 26.5q0 38 -22 63t-60 25q-40 0 -86 -62q-17 -29 3 -62.5t55 -45t70 6.5z" />
    <glyph glyph-name="nikhahitthai" unicode="&#xe4d;" 
d="M-432 1062q0 66 42 107.5t110 41.5q75 0 118.5 -43t43.5 -102q0 -58 -38.5 -98.5t-97.5 -40.5q-67 0 -122.5 35t-55.5 100zM-229 995q20 14 29 27.5t10 21t1 26.5q0 38 -22 63t-60 25q-40 0 -86 -62q-17 -29 3 -62.5t55 -45t70 6.5z" />
    <glyph glyph-name="yamakkanthai" unicode="&#xee;" 
d="M-251 1115l-1 -3q4 18 13.5 27.5t21.5 9.5q11 0 19.5 -13t9.5 -31q2 -90 -45.5 -145t-149.5 -56q-60 -1 -114.5 37t-84.5 91.5t-27.5 116.5t46.5 109q28 29 69.5 36.5t113.5 7.5q-161 228 155 226q59 0 182 -12q24 -7 24 -49q0 -10 -9 -21t-23 -16q-43 3 -95.5 10
t-81.5 11t-56.5 2t-42.5 -14q-22 -18 -23 -38.5t11 -35.5t30 -36.5t24 -34.5q5 -23 -20.5 -51.5t-68.5 -13.5q-44 38 -94 -4q-46 -37 -55 -99q-11 -79 56 -116q42 -24 111 -24q59 0 83 36.5t22 92.5z" />
    <glyph glyph-name="yamakkanthai" unicode="&#xe4e;" 
d="M-251 1115l-1 -3q4 18 13.5 27.5t21.5 9.5q11 0 19.5 -13t9.5 -31q2 -90 -45.5 -145t-149.5 -56q-60 -1 -114.5 37t-84.5 91.5t-27.5 116.5t46.5 109q28 29 69.5 36.5t113.5 7.5q-161 228 155 226q59 0 182 -12q24 -7 24 -49q0 -10 -9 -21t-23 -16q-43 3 -95.5 10
t-81.5 11t-56.5 2t-42.5 -14q-22 -18 -23 -38.5t11 -35.5t30 -36.5t24 -34.5q5 -23 -20.5 -51.5t-68.5 -13.5q-44 38 -94 -4q-46 -37 -55 -99q-11 -79 56 -116q42 -24 111 -24q59 0 83 36.5t22 92.5z" />
    <glyph glyph-name="fongmanthai" unicode="&#xef;" horiz-adv-x="968" 
d="M125 383q0 156 111 267t267 111t267.5 -111t111.5 -267t-111.5 -267.5t-267.5 -111.5t-267 111.5t-111 267.5zM173 383q0 -138 96.5 -234.5t233.5 -96.5t234 96.5t97 234.5q0 137 -97 233.5t-234 96.5t-233.5 -96.5t-96.5 -233.5zM363 383q0 58 41 98.5t99 40.5t99 -40.5
t41 -98.5t-41 -99t-99 -41t-99 41t-41 99z" />
    <glyph glyph-name="fongmanthai" unicode="&#xe4f;" horiz-adv-x="968" 
d="M125 383q0 156 111 267t267 111t267.5 -111t111.5 -267t-111.5 -267.5t-267.5 -111.5t-267 111.5t-111 267.5zM173 383q0 -138 96.5 -234.5t233.5 -96.5t234 96.5t97 234.5q0 137 -97 233.5t-234 96.5t-233.5 -96.5t-96.5 -233.5zM363 383q0 58 41 98.5t99 40.5t99 -40.5
t41 -98.5t-41 -99t-99 -41t-99 41t-41 99z" />
    <glyph glyph-name="zerothai" unicode="&#xf0;" horiz-adv-x="814" 
d="M417 756q83 -6 144.5 -34.5t96.5 -65.5t57 -91t29.5 -98t11.5 -100q6 -90 -31 -169t-116.5 -130.5t-184.5 -51.5q-89 -3 -159.5 25.5t-112.5 79.5t-64 115t-22 135q0 95 44.5 183t126.5 145t180 57zM684 325q14 145 -58 246t-200 108q-83 4 -149.5 -47t-100 -127
t-33.5 -154q0 -108 85.5 -189t192.5 -78q81 3 167 72.5t96 168.5z" />
    <glyph glyph-name="zerothai" unicode="&#xe50;" horiz-adv-x="814" 
d="M417 756q83 -6 144.5 -34.5t96.5 -65.5t57 -91t29.5 -98t11.5 -100q6 -90 -31 -169t-116.5 -130.5t-184.5 -51.5q-89 -3 -159.5 25.5t-112.5 79.5t-64 115t-22 135q0 95 44.5 183t126.5 145t180 57zM684 325q14 145 -58 246t-200 108q-83 4 -149.5 -47t-100 -127
t-33.5 -154q0 -108 85.5 -189t192.5 -78q81 3 167 72.5t96 168.5z" />
    <glyph glyph-name="onethai" unicode="&#xf1;" horiz-adv-x="853" 
d="M695 289q12 55 11.5 112.5t-22.5 112.5t-56.5 98.5t-90.5 70.5t-123 28q-54 1 -108 -23.5t-93 -66t-63 -91t-21 -103.5t36 -98q-11 48 -3 83.5t21.5 59t36.5 39t41.5 22t36.5 8.5q74 8 133 -37.5t70 -111.5q12 -76 -54 -125.5t-142 -51.5q-115 2 -175.5 65.5t-60.5 159.5
q0 142 98.5 240.5t242.5 98.5q105 0 193 -50.5t132 -144.5q32 -68 41.5 -138.5t-4 -133t-44 -120.5t-78 -99.5t-107 -71t-129.5 -35t-146 8.5q-2 2 -9 7.5t-10.5 10t-7.5 13.5t2 18q2 6 5.5 10.5t6.5 7.5t7.5 5t7.5 3t8 1.5t7.5 0.5h8h6.5q71 -23 155.5 0.5t151.5 83
t88 133.5zM225 368q-3 -34 23.5 -61.5t59.5 -27.5q44 0 87.5 25.5t43.5 61.5q0 48 -42 72t-89 24q-39 0 -58.5 -22.5t-24.5 -71.5z" />
    <glyph glyph-name="onethai" unicode="&#xe51;" horiz-adv-x="853" 
d="M695 289q12 55 11.5 112.5t-22.5 112.5t-56.5 98.5t-90.5 70.5t-123 28q-54 1 -108 -23.5t-93 -66t-63 -91t-21 -103.5t36 -98q-11 48 -3 83.5t21.5 59t36.5 39t41.5 22t36.5 8.5q74 8 133 -37.5t70 -111.5q12 -76 -54 -125.5t-142 -51.5q-115 2 -175.5 65.5t-60.5 159.5
q0 142 98.5 240.5t242.5 98.5q105 0 193 -50.5t132 -144.5q32 -68 41.5 -138.5t-4 -133t-44 -120.5t-78 -99.5t-107 -71t-129.5 -35t-146 8.5q-2 2 -9 7.5t-10.5 10t-7.5 13.5t2 18q2 6 5.5 10.5t6.5 7.5t7.5 5t7.5 3t8 1.5t7.5 0.5h8h6.5q71 -23 155.5 0.5t151.5 83
t88 133.5zM225 368q-3 -34 23.5 -61.5t59.5 -27.5q44 0 87.5 25.5t43.5 61.5q0 48 -42 72t-89 24q-39 0 -58.5 -22.5t-24.5 -71.5z" />
    <glyph glyph-name="twothai" unicode="&#xf2;" horiz-adv-x="1028" 
d="M60 807q0 48 41 48q7 0 13 -1.5t10 -4t7.5 -6t5.5 -6.5t4 -7.5t2.5 -7t1.5 -6.5l1 -3q0 -54 -1 -152q-2 -126 -1 -226.5t6 -173.5t19 -121t38 -67q59 -20 208.5 -26.5t294 5.5t184.5 38q0 18 3.5 68t6 99t4 111.5t-2.5 115t-12 98.5t-26.5 73t-44.5 28q-13 1 -31.5 -30.5
t-37.5 -72.5t-28 -51q-21 -21 -49 -21t-41 29l1 -1q-2 5 -7.5 26t-10 34.5t-14.5 34t-20.5 34t-27.5 25t-38 14.5q-51 8 -91.5 -39t-51.5 -99q35 10 67 10t63.5 -12t54.5 -46.5t31 -89.5q12 -81 -57.5 -136.5t-149.5 -36.5q-47 13 -71 66.5t-24 124.5q0 48 7.5 93t26 89.5
t46.5 76.5t73 49t101 10q46 -6 85.5 -49.5t55.5 -92.5q21 36 28 47.5t25 36.5t30.5 34t32.5 18t42 10q52 2 85.5 -73.5t43 -184.5t8 -219.5t-14 -190.5t-28.5 -86q-444 -75 -757 -3q-69 16 -94 150q-21 112 -24 457v83q-1 69 -1 106zM419 502q-38 -3 -52.5 -19t-14.5 -57
q0 -51 23 -85t69 -24q32 8 59.5 38.5t23.5 63.5q-11 90 -108 83z" />
    <glyph glyph-name="twothai" unicode="&#xe52;" horiz-adv-x="1028" 
d="M60 807q0 48 41 48q7 0 13 -1.5t10 -4t7.5 -6t5.5 -6.5t4 -7.5t2.5 -7t1.5 -6.5l1 -3q0 -54 -1 -152q-2 -126 -1 -226.5t6 -173.5t19 -121t38 -67q59 -20 208.5 -26.5t294 5.5t184.5 38q0 18 3.5 68t6 99t4 111.5t-2.5 115t-12 98.5t-26.5 73t-44.5 28q-13 1 -31.5 -30.5
t-37.5 -72.5t-28 -51q-21 -21 -49 -21t-41 29l1 -1q-2 5 -7.5 26t-10 34.5t-14.5 34t-20.5 34t-27.5 25t-38 14.5q-51 8 -91.5 -39t-51.5 -99q35 10 67 10t63.5 -12t54.5 -46.5t31 -89.5q12 -81 -57.5 -136.5t-149.5 -36.5q-47 13 -71 66.5t-24 124.5q0 48 7.5 93t26 89.5
t46.5 76.5t73 49t101 10q46 -6 85.5 -49.5t55.5 -92.5q21 36 28 47.5t25 36.5t30.5 34t32.5 18t42 10q52 2 85.5 -73.5t43 -184.5t8 -219.5t-14 -190.5t-28.5 -86q-444 -75 -757 -3q-69 16 -94 150q-21 112 -24 457v83q-1 69 -1 106zM419 502q-38 -3 -52.5 -19t-14.5 -57
q0 -51 23 -85t69 -24q32 8 59.5 38.5t23.5 63.5q-11 90 -108 83z" />
    <glyph glyph-name="threethai" unicode="&#xf3;" horiz-adv-x="922" 
d="M670 678q-22 -2 -39.5 -13.5t-29 -34.5t-19.5 -45t-13.5 -58t-8 -59.5t-5.5 -64.5t-5 -58q-2 -24 -33 -22q-34 1 -49 28q-4 9 -5 19q-7 182 -84 266q-57 63 -121 35q-75 -33 -108 -172q-25 -103 -19 -245q12 31 35.5 49t41.5 22t44 6q44 4 75.5 -37.5t32.5 -99.5
q2 -95 -34 -142.5t-117 -47.5q-65 0 -104 75.5t-41.5 184t15.5 217t67.5 186t113.5 79.5q54 2 95.5 -15.5t70 -52.5t47.5 -80t31 -104q32 259 167 259q174 0 180 -336q1 -94 -19 -336q-2 -23 -3 -39q-1 -39 -22 -39q-11 0 -25.5 10.5t-17.5 25.5q-4 21 -2 76.5t11 126
t9.5 147.5t-5 141t-33 105.5t-74.5 42.5zM309 175q0 34 -16 59.5t-43 30.5q-31 6 -65.5 -25.5t-34.5 -71.5q0 -28 24.5 -65t54.5 -37q34 0 57 29t23 80z" />
    <glyph glyph-name="threethai" unicode="&#xe53;" horiz-adv-x="922" 
d="M670 678q-22 -2 -39.5 -13.5t-29 -34.5t-19.5 -45t-13.5 -58t-8 -59.5t-5.5 -64.5t-5 -58q-2 -24 -33 -22q-34 1 -49 28q-4 9 -5 19q-7 182 -84 266q-57 63 -121 35q-75 -33 -108 -172q-25 -103 -19 -245q12 31 35.5 49t41.5 22t44 6q44 4 75.5 -37.5t32.5 -99.5
q2 -95 -34 -142.5t-117 -47.5q-65 0 -104 75.5t-41.5 184t15.5 217t67.5 186t113.5 79.5q54 2 95.5 -15.5t70 -52.5t47.5 -80t31 -104q32 259 167 259q174 0 180 -336q1 -94 -19 -336q-2 -23 -3 -39q-1 -39 -22 -39q-11 0 -25.5 10.5t-17.5 25.5q-4 21 -2 76.5t11 126
t9.5 147.5t-5 141t-33 105.5t-74.5 42.5zM309 175q0 34 -16 59.5t-43 30.5q-31 6 -65.5 -25.5t-34.5 -71.5q0 -28 24.5 -65t54.5 -37q34 0 57 29t23 80z" />
    <glyph glyph-name="fourthai" unicode="&#xf4;" horiz-adv-x="931" 
d="M796 340q0 -66 -44 -106.5t-123 -72.5q45 -64 114.5 -85t130.5 5q20 7 31 0.5t11 -25.5q0 -30 -24 -43l4 1q-79 -29 -162.5 -4.5t-132.5 78.5q-104 -97 -285 -66q-112 23 -183.5 119.5t-71.5 217.5q0 92 48 178.5t132 142.5t180 56q26 0 156 -22.5t146 -21.5q92 7 127 40
t34 118q-4 22 4 35.5t22 13.5q18 0 38 -23q15 -114 -33 -189.5t-166 -75.5q-48 0 -164.5 27.5t-159.5 27.5q-71 0 -139 -49t-109 -122.5t-41 -144.5q0 -87 57 -162t148 -98q5 -1 25 -4.5t23.5 -4t20 -2.5t20.5 -1t18 1.5t20 3.5t18 7t21 11t20.5 15.5t24.5 19.5
q-40 36 -58.5 81t-18.5 83q0 69 55.5 121.5t125.5 52.5q61 0 100.5 -38t39.5 -96zM645 406q-35 -4 -63 -33.5t-32.5 -66t20.5 -70.5q20 -14 62 1t73.5 47.5t22.5 62.5q-11 33 -36 47.5t-47 11.5z" />
    <glyph glyph-name="fourthai" unicode="&#xe54;" horiz-adv-x="931" 
d="M796 340q0 -66 -44 -106.5t-123 -72.5q45 -64 114.5 -85t130.5 5q20 7 31 0.5t11 -25.5q0 -30 -24 -43l4 1q-79 -29 -162.5 -4.5t-132.5 78.5q-104 -97 -285 -66q-112 23 -183.5 119.5t-71.5 217.5q0 92 48 178.5t132 142.5t180 56q26 0 156 -22.5t146 -21.5q92 7 127 40
t34 118q-4 22 4 35.5t22 13.5q18 0 38 -23q15 -114 -33 -189.5t-166 -75.5q-48 0 -164.5 27.5t-159.5 27.5q-71 0 -139 -49t-109 -122.5t-41 -144.5q0 -87 57 -162t148 -98q5 -1 25 -4.5t23.5 -4t20 -2.5t20.5 -1t18 1.5t20 3.5t18 7t21 11t20.5 15.5t24.5 19.5
q-40 36 -58.5 81t-18.5 83q0 69 55.5 121.5t125.5 52.5q61 0 100.5 -38t39.5 -96zM645 406q-35 -4 -63 -33.5t-32.5 -66t20.5 -70.5q20 -14 62 1t73.5 47.5t22.5 62.5q-11 33 -36 47.5t-47 11.5z" />
    <glyph glyph-name="fivethai" unicode="&#xf5;" horiz-adv-x="987" 
d="M531 716q-36 30 -42 70t11.5 73.5t52.5 57t76 23.5q38 0 71.5 -20.5t50 -51.5t20.5 -64.5t-16 -64.5t-60 -47q101 -9 144.5 26t44.5 132q-4 22 4 35.5t22 13.5q18 0 38 -23q15 -114 -33 -189.5t-166 -75.5q-48 0 -164.5 27.5t-159.5 27.5q-71 0 -139 -49t-109 -122.5
t-41 -144.5q0 -87 57 -162t148 -98q5 -1 25 -4.5t23.5 -4t20 -2.5t20.5 -1t18 1.5t20 3.5t18 7t21 11t20.5 15.5t24.5 19.5q-40 36 -58.5 81t-18.5 83q0 69 55.5 121.5t125.5 52.5q61 0 100.5 -38t39.5 -96q0 -66 -44 -106.5t-123 -72.5q45 -64 114.5 -85t130.5 5
q20 7 31 0.5t11 -25.5q0 -30 -24 -43l4 1q-79 -29 -162.5 -4.5t-132.5 78.5q-104 -97 -285 -66q-112 23 -183.5 119.5t-71.5 217.5q0 91 48.5 178t133.5 143t181 56q49 1 107 -20zM645 406q-35 -4 -63 -33.5t-32.5 -66t20.5 -70.5q20 -14 62 1t73.5 47.5t22.5 62.5
q-11 33 -36 47.5t-47 11.5zM556 795q0 -31 22 -53t53 -22q33 0 55 21.5t22 53.5q0 33 -23.5 58t-56.5 25q-31 0 -51.5 -25t-20.5 -58z" />
    <glyph glyph-name="fivethai" unicode="&#xe55;" horiz-adv-x="987" 
d="M531 716q-36 30 -42 70t11.5 73.5t52.5 57t76 23.5q38 0 71.5 -20.5t50 -51.5t20.5 -64.5t-16 -64.5t-60 -47q101 -9 144.5 26t44.5 132q-4 22 4 35.5t22 13.5q18 0 38 -23q15 -114 -33 -189.5t-166 -75.5q-48 0 -164.5 27.5t-159.5 27.5q-71 0 -139 -49t-109 -122.5
t-41 -144.5q0 -87 57 -162t148 -98q5 -1 25 -4.5t23.5 -4t20 -2.5t20.5 -1t18 1.5t20 3.5t18 7t21 11t20.5 15.5t24.5 19.5q-40 36 -58.5 81t-18.5 83q0 69 55.5 121.5t125.5 52.5q61 0 100.5 -38t39.5 -96q0 -66 -44 -106.5t-123 -72.5q45 -64 114.5 -85t130.5 5
q20 7 31 0.5t11 -25.5q0 -30 -24 -43l4 1q-79 -29 -162.5 -4.5t-132.5 78.5q-104 -97 -285 -66q-112 23 -183.5 119.5t-71.5 217.5q0 91 48.5 178t133.5 143t181 56q49 1 107 -20zM645 406q-35 -4 -63 -33.5t-32.5 -66t20.5 -70.5q20 -14 62 1t73.5 47.5t22.5 62.5
q-11 33 -36 47.5t-47 11.5zM556 795q0 -31 22 -53t53 -22q33 0 55 21.5t22 53.5q0 33 -23.5 58t-56.5 25q-31 0 -51.5 -25t-20.5 -58z" />
    <glyph glyph-name="sixthai" unicode="&#xf6;" horiz-adv-x="964" 
d="M278 276q9 66 54 111.5t108 45.5q73 0 125 -47t50 -113q-2 -72 -52.5 -120t-116.5 -46q124 -77 229 -6q83 56 115 173q36 129 -16 237q-29 57 -78 95q-70 52 -165.5 61t-184 -27.5t-137.5 -108.5q-15 -17 -31.5 -11.5t-26.5 31.5q-21 54 -73 117t-102 107t-88.5 78.5
t-38.5 40.5q0 65 27 58q8 -3 16 -9q105 -83 156 -133t89 -103t55 -73q67 56 146 84t153.5 27.5t144.5 -27t122 -74t83.5 -121t31.5 -161.5q0 -81 -34.5 -161.5t-105 -139.5t-160.5 -64q-30 -2 -70 8.5t-82.5 33.5t-77 55t-53.5 80t-12 102zM478 372l1 -1q-36 11 -69 -3.5
t-51 -42.5t-18.5 -65t23.5 -68q57 -54 116 -18q46 28 57 86q14 66 -37 101q-10 6 -22 11z" />
    <glyph glyph-name="sixthai" unicode="&#xe56;" horiz-adv-x="964" 
d="M278 276q9 66 54 111.5t108 45.5q73 0 125 -47t50 -113q-2 -72 -52.5 -120t-116.5 -46q124 -77 229 -6q83 56 115 173q36 129 -16 237q-29 57 -78 95q-70 52 -165.5 61t-184 -27.5t-137.5 -108.5q-15 -17 -31.5 -11.5t-26.5 31.5q-21 54 -73 117t-102 107t-88.5 78.5
t-38.5 40.5q0 65 27 58q8 -3 16 -9q105 -83 156 -133t89 -103t55 -73q67 56 146 84t153.5 27.5t144.5 -27t122 -74t83.5 -121t31.5 -161.5q0 -81 -34.5 -161.5t-105 -139.5t-160.5 -64q-30 -2 -70 8.5t-82.5 33.5t-77 55t-53.5 80t-12 102zM478 372l1 -1q-36 11 -69 -3.5
t-51 -42.5t-18.5 -65t23.5 -68q57 -54 116 -18q46 28 57 86q14 66 -37 101q-10 6 -22 11z" />
    <glyph glyph-name="seventhai" unicode="&#xf7;" horiz-adv-x="1156" 
d="M738 68q21 119 30.5 191.5t10.5 161.5t-18 139q-34 91 -87 106q-54 15 -92 -64q-39 -82 -42 -244q-1 -52 -24 -52h-28q-41 0 -53 51q0 49 -3.5 85t-14.5 83t-39 78.5t-71 44.5q-57 17 -96 -5.5t-58 -77.5t-25.5 -126t-1.5 -163q27 62 121 62q43 0 76 -32t33 -76
q0 -27 -1.5 -48.5t-5 -45.5t-11 -41.5t-18.5 -34.5t-27.5 -27.5t-38.5 -17t-51.5 -6t-65.5 7.5q-30 6 -48 59t-22.5 131.5t-4.5 142.5t3 122q2 71 28 127t64.5 87t86.5 39.5t93.5 -6.5t86.5 -59.5t64 -112.5q0 59 23.5 105t61 66t80 22t85 -24.5t70.5 -75.5
q29 -51 35.5 -165.5t-3.5 -221.5t-26 -184q70 3 126 70t84 170.5t37 218t-12 222.5t-66 174q-10 14 -13 29t3.5 25t22.5 9q55 -4 92.5 -106t40 -244.5t-20.5 -285t-96 -241.5t-181 -99q-96 0 -93 57zM181 61q51 -18 88 43q32 54 25 111q-8 55 -53 55q-34 0 -63 -28
t-41 -63.5t-2 -70.5t46 -47z" />
    <glyph glyph-name="seventhai" unicode="&#xe57;" horiz-adv-x="1156" 
d="M738 68q21 119 30.5 191.5t10.5 161.5t-18 139q-34 91 -87 106q-54 15 -92 -64q-39 -82 -42 -244q-1 -52 -24 -52h-28q-41 0 -53 51q0 49 -3.5 85t-14.5 83t-39 78.5t-71 44.5q-57 17 -96 -5.5t-58 -77.5t-25.5 -126t-1.5 -163q27 62 121 62q43 0 76 -32t33 -76
q0 -27 -1.5 -48.5t-5 -45.5t-11 -41.5t-18.5 -34.5t-27.5 -27.5t-38.5 -17t-51.5 -6t-65.5 7.5q-30 6 -48 59t-22.5 131.5t-4.5 142.5t3 122q2 71 28 127t64.5 87t86.5 39.5t93.5 -6.5t86.5 -59.5t64 -112.5q0 59 23.5 105t61 66t80 22t85 -24.5t70.5 -75.5
q29 -51 35.5 -165.5t-3.5 -221.5t-26 -184q70 3 126 70t84 170.5t37 218t-12 222.5t-66 174q-10 14 -13 29t3.5 25t22.5 9q55 -4 92.5 -106t40 -244.5t-20.5 -285t-96 -241.5t-181 -99q-96 0 -93 57zM181 61q51 -18 88 43q32 54 25 111q-8 55 -53 55q-34 0 -63 -28
t-41 -63.5t-2 -70.5t46 -47z" />
    <glyph glyph-name="eightthai" unicode="&#xf8;" horiz-adv-x="1014" 
d="M137 326q-2 -67 14 -121.5t44 -81.5t61 -30t69.5 35.5t64.5 112.5q5 13 17.5 28.5t30 27t39 -3t38.5 -60.5q30 -79 77 -113t122 -34q48 0 93 45t75 124q-49 -37 -106 -43t-102.5 13.5t-76 62.5t-30.5 98q0 69 56 124t129 54q56 -1 96.5 -27t60.5 -66t28.5 -90t5 -98
t-15.5 -90q-21 -71 -81 -121t-131 -50q-93 0 -164 53.5t-92 144.5q-50 -95 -103 -151t-102 -56q-93 0 -143 85t-50 200q0 218 84 335q33 46 75 73.5t95.5 35.5t93 8.5t102.5 -4.5q155 -19 225 -6q161 29 165 215q9 32 36 32q18 0 27.5 -12t8.5 -34q3 -79 -23 -136
t-70.5 -87.5t-105.5 -44t-124 -11t-131 16.5q-81 18 -143.5 8.5t-107 -37.5t-73 -77t-42.5 -110t-16 -137zM874 340q-1 68 -36 110t-78 42q-46 0 -86.5 -34.5t-40.5 -75.5q0 -51 47 -79.5t105.5 -18.5t88.5 56z" />
    <glyph glyph-name="eightthai" unicode="&#xe58;" horiz-adv-x="1014" 
d="M137 326q-2 -67 14 -121.5t44 -81.5t61 -30t69.5 35.5t64.5 112.5q5 13 17.5 28.5t30 27t39 -3t38.5 -60.5q30 -79 77 -113t122 -34q48 0 93 45t75 124q-49 -37 -106 -43t-102.5 13.5t-76 62.5t-30.5 98q0 69 56 124t129 54q56 -1 96.5 -27t60.5 -66t28.5 -90t5 -98
t-15.5 -90q-21 -71 -81 -121t-131 -50q-93 0 -164 53.5t-92 144.5q-50 -95 -103 -151t-102 -56q-93 0 -143 85t-50 200q0 218 84 335q33 46 75 73.5t95.5 35.5t93 8.5t102.5 -4.5q155 -19 225 -6q161 29 165 215q9 32 36 32q18 0 27.5 -12t8.5 -34q3 -79 -23 -136
t-70.5 -87.5t-105.5 -44t-124 -11t-131 16.5q-81 18 -143.5 8.5t-107 -37.5t-73 -77t-42.5 -110t-16 -137zM874 340q-1 68 -36 110t-78 42q-46 0 -86.5 -34.5t-40.5 -75.5q0 -51 47 -79.5t105.5 -18.5t88.5 56z" />
    </font>
</defs>
</svg>
