<svg id="Layer_1" xmlns="http://www.w3.org/2000/svg" viewBox="0 0 100 100"><path fill="#F89C26" d="M50 100c27.618 0 50-22.387 50-50.002 0-27.613-22.382-50-50-50s-50 22.387-50 50 22.382 50.003 50 50.003"/><g fill="#FFF"><path d="M13.873 40.718h1.17L19.88 58.06h.05l4.915-17.342h1.43l4.992 17.342h.052l4.757-17.342H37.3l-5.33 18.564h-1.3l-5.097-17.577h-.052l-5.017 17.577H19.23l-5.357-18.564zM38.287 40.718h1.17l4.836 17.342h.052l4.914-17.342h1.43l4.99 17.342h.053l4.758-17.342h1.223l-5.33 18.564h-1.3l-5.096-17.577h-.052l-5.018 17.577h-1.274l-5.356-18.564zM62.7 40.718h1.17l4.837 17.342h.052l4.913-17.342h1.43l4.992 17.342h.053l4.758-17.342h1.222l-5.33 18.564h-1.3l-5.096-17.577h-.052l-5.02 17.577H68.06L62.7 40.718z"/></g></svg>